<svg xmlns="http://www.w3.org/2000/svg" xmlns:xlink="http://www.w3.org/1999/xlink" width="144" height="138" viewBox="0 0 144 138">
  <defs>
    <clipPath id="clip-path">
      <rect id="Rect치ngulo_44633" data-name="Rect치ngulo 44633" width="101.261" height="101.26" fill="none"/>
    </clipPath>
  </defs>
  <g id="Grupo_173509" data-name="Grupo 173509" transform="translate(-698 -4474)">
    <g id="Grupo_165391" data-name="Grupo 165391" transform="translate(161 3186)">
      <rect id="Rect치ngulo_40797" data-name="Rect치ngulo 40797" width="144" height="138" transform="translate(537 1288)" fill="#ffe891"/>
    </g>
    <g id="Grupo_173508" data-name="Grupo 173508" transform="translate(719 4492)">
      <g id="Grupo_173508-2" data-name="Grupo 173508" clip-path="url(#clip-path)">
        <path id="Trazado_177246" data-name="Trazado 177246" d="M96.4,38.771q-5.792-5.226-11.6-10.436a2.379,2.379,0,0,1-.792-1.076c-1.859-6.037-3.744-12.07-3.016-18.528a.807.807,0,0,0,0-.105A8.437,8.437,0,0,0,72.4.014C68.6,0,64.8,0,61.007.012a5.052,5.052,0,0,0-1.868,9.841c.482.184.528.348.472.816a15.373,15.373,0,0,1-1.871,5.1c-.692,1.37-.473,2.244.955,2.775a2.822,2.822,0,0,1,2.1,3.348,3.231,3.231,0,0,0,3.346,3.425c1.23.026,2.469-.078,3.689.03,1.064.094,1.565-.184,1.384-1.3-.093-2.1-.093-2.09-2.262-2.1-.906,0-2.09.3-2.643-.156-.584-.478-.225-1.716-.164-2.607a2.269,2.269,0,0,0-1.766-2.51c-.872-.3-1.123-.721-.564-1.563.842-1.269.863-2.8,1.162-4.229.132-.633.37-.763.955-.756,2.389.03,4.778.024,7.167,0a1.2,1.2,0,0,1,1.063.509c1.761,2.233,3.546,4.447,5.32,6.67a1.664,1.664,0,0,1,.332.529c.874,3.022,1.736,6.05,2.619,9.142h-10.2c-2.31-.035-4.643.322-6.924-.222-3.511-.839-6.994-1.794-10.507-2.621a1.768,1.768,0,0,1-1.379-1.209c-2.5-5.9-5.006-11.8-7.577-17.673A8.09,8.09,0,0,0,36.011.027C24.693-.021,13.374.008,2.056.012.612.012,0,.618,0,2.057q0,48.56,0,97.12c0,1.449.607,2.068,2.033,2.069q16.5.007,33.006.013a2.088,2.088,0,0,0,2.081-1.278c3.223-6.437,7.273-12.394,10.859-18.62a.993.993,0,0,1,.8-.579c2.02-.258,4.031-.58,6.051-.839a39.81,39.81,0,0,0,13.224-3.6,29.257,29.257,0,0,0,7.876-5.885v1.219c0,2.53-.018,5.061.005,7.593A5.044,5.044,0,0,0,81,84.371c1.546.024,3.093.007,4.639,0a5.083,5.083,0,0,0,5.476-5.442c.006-4.393.014-8.788-.011-13.181a1.938,1.938,0,0,1,.63-1.56c1.769-1.709,3.495-3.465,5.229-5.21,5.94-5.976,5.7-14.558-.563-20.211M77.616,12.064c-1.276-1.592-2.392-2.945-3.46-4.334a2.379,2.379,0,0,0-2.08-.984c-3.619.031-7.238.015-10.857.011-1.388,0-2.19-.651-2.16-1.731.029-1.045.8-1.638,2.144-1.64q5.587-.007,11.175,0a5.058,5.058,0,0,1,5.238,5.254c.008,1.047,0,2.1,0,3.422M91.29,38.694a.573.573,0,0,1,.1.886c-1.333,2.058-2.634,4.137-3.958,6.2-.149.233-.241.648-.69.408-.345-.185-.629-.355-.59-.865a45.252,45.252,0,0,0-.1-8.4c-.11-1.008-.242-2.013-.394-3.263,1.981,1.775,3.8,3.41,5.63,5.034M85.711,49.5c.731.408,1.421.814,2.131,1.18.45.232.417.43.086.756-1.074,1.054-2.126,2.132-3.186,3.2l-.181-.065c.378-1.665.756-3.33,1.15-5.071M55.61,35.879c.585-2.056,1.092-4.136,1.54-6.227.177-.823.543-.895,1.221-.679.633.2,1.293.321,1.929.516a23.42,23.42,0,0,0,7.37.914c4.285-.083,8.573-.008,12.859-.037.673,0,.964.162,1.13.865A46.986,46.986,0,0,1,82.9,41.372a45.211,45.211,0,0,1-2.288,14.359c-.252.752-.438.9-1.183.449-4.28-2.619-8.589-5.189-12.907-7.745a1.3,1.3,0,0,1-.732-1.333c.05-1.51-.014-3.022.026-4.532a1.979,1.979,0,0,0-1.4-2.09c-2.728-1.107-5.435-2.268-8.162-3.375-.612-.249-.857-.481-.644-1.226M36.513,3.433a5.033,5.033,0,0,1,4.38,3.444c1.967,4.642,3.962,9.274,5.946,13.91.689,1.609,1.4,3.209,2.066,4.828a2.14,2.14,0,0,0,1.664,1.427c.96.194,1.9.51,2.855.71.528.11.7.3.558.846q-.811,3.1-1.56,6.219c-.123.516-.305.574-.767.375-1.962-.845-3.928-1.683-5.912-2.471-.551-.219-.676-.638-.842-1.1-2.527-7.091-5.077-14.174-7.574-21.275a2.763,2.763,0,0,0-2.114-2.077,4.55,4.55,0,0,1-.5-.158C31.4,6.995,31.4,6.995,30.936,3.4c1.864,0,3.729-.108,5.577.029M17.853,97.877q-6.905-.029-13.812,0c-.5,0-.712-.17-.663-.67.021-.209,0-.421,0-.632q0-45.915,0-91.83c0-1.533-.2-1.347,1.333-1.354,2.031-.011,4.062,0,6.391,0C9.925,4.561,8.948,5.586,7.914,6.55c-.515.481-.591.785-.039,1.33,1.772,1.751,1.747,1.775,3.48.043C12.673,6.607,14,5.3,15.3,3.966a1.74,1.74,0,0,1,1.373-.595c3.268.027,6.537.037,9.8-.007.708-.008.938.256,1.136.879A27.28,27.28,0,0,1,28.7,13.8a1.626,1.626,0,0,1-.512,1.2c-1.184,1.152-2.328,2.344-3.518,3.489-.422.406-.436.657-.015,1.1,1.82,1.907,1.814,1.93,3.618.093.413-.421.738-.928,1.27-1.609.817,2.46,1.485,4.515,2.188,6.557.186.542-.229.783-.464,1.082-1.738,2.207-3.487,4.406-5.269,6.578a2.307,2.307,0,0,0-.539,2.317c.452,1.543.745,3.133,1.178,4.682a1.2,1.2,0,0,1-.293,1.316q-7.75,8.476-15.478,16.973a2.522,2.522,0,0,0-.756,1.883c.04,1.194.066,2.393-.008,3.583-.055.871.21,1.238,1.1,1.1a3.373,3.373,0,0,1,.631.017h0c1.673-.072,1.79-.083,1.643-1.721a5.674,5.674,0,0,1,1.8-4.733c4.841-5.139,9.527-10.424,14.292-15.635a2.347,2.347,0,0,0,.645-2.478c-.458-1.544-.759-3.134-1.191-4.686a1.308,1.308,0,0,1,.28-1.332c1.839-2.261,3.632-4.559,5.478-6.813a2.288,2.288,0,0,0,.442-2.43c-.756-2.146-1.347-4.356-2.2-6.463a14.445,14.445,0,0,1-.9-6.9c1.654.107,1.938.318,2.481,1.843,2.469,6.925,4.949,13.844,7.394,20.777a3.147,3.147,0,0,0,1.916,2.043c5.928,2.428,11.831,4.918,17.754,7.36a1.015,1.015,0,0,1,.788,1.117c-.046,2.342-.018,4.685-.018,7.161-2.39-1.191-4.669-2.323-6.947-3.46-2.413-1.2-4.808-2.447-7.238-3.612a14.264,14.264,0,0,0-18.623,5.534c-2.806,4.611-5.566,9.252-8.325,13.892a2.25,2.25,0,0,1-1.314,1.093c-2.667.856-5.323,1.749-7.983,2.628-1.647.509-1.884.839-1.884,2.627a1.392,1.392,0,0,0,0,.211,5.227,5.227,0,0,1-2.267,5.63c-.561.378-.545.743-.047,1.254,1.77,1.813,1.771,1.851,3.484.094.528-.542.867-.556,1.584-.212a3.786,3.786,0,0,1,2.348,4.328c-.2,1.876.439,3.99-.216,5.63-.638,1.595-2.428,2.744-3.756,4.042-.51.5-.568.805-.029,1.344,1.761,1.76,1.738,1.783,3.5.025a8.16,8.16,0,0,1,.9-.884c.481-.351.676-1.2,1.427-1.043.676.138,1.51,1.616,1.51,2.428,0,1.44-.018,2.882.009,4.323.01.532-.141.74-.709.738M58.514,53.609c-.227,2.367-.481,4.732-.747,7.1-.034.292.048.9-.476.7-.6-.225-1.628-.178-1.342-1.472.195-2.126.38-4.393.637-6.652.033-.29-.11-1.088.558-.824.519.2,1.464.181,1.371,1.15m-5.127-2.137c-.24,2.544-.468,4.875-.674,7.207-.04.457-.139.644-.635.411-1.458-.682-2.929-1.335-4.4-1.99-.382-.171-.541-.416-.392-.826q1.258-3.45,2.51-6.9c.173-.481.441-.436.81-.239.586.312,1.178.624,1.788.884.756.322,1.315.721.991,1.453m-39.428,18.8c2.466-.9,4.97-1.686,7.458-2.517a.893.893,0,0,1,.714.034c1.219.612,2.438,1.228,3.665,1.826.336.164.379.324.16.633-.464.659-.906,1.334-1.333,2.017-.239.382-.6.293-.934.294-1.578.005-3.157,0-4.736,0-1.544,0-3.088.014-4.631-.012-.287,0-.858.235-.792-.334.075-.657-.523-1.595.429-1.942M24.9,65.416c-.462-.211-.525-.409-.253-.856,2.763-4.553,5.424-9.168,8.28-13.66a10.305,10.305,0,0,1,8.636-4.808,11.752,11.752,0,0,1,4.643.871c.547.231.756.426.508,1.07-.855,2.22-1.647,4.465-2.437,6.709-.192.546-.4.716-.957.382a14.592,14.592,0,0,0-1.624-.734c-1.4-.622-1.846-.529-2.837.6-3.328,3.8-6.669,7.594-9.966,11.425-.485.564-.834.651-1.462.273A25.228,25.228,0,0,0,24.9,65.416m9.908,31.638c-.232.5-.439.863-1.13.84-1.823-.061-3.648-.021-5.473-.021-1.859,0-3.719-.021-5.579.012-.557.011-.681-.161-.713-.7-.059-1.013.106-1.616,1.293-1.918,2.063-.526,4.062-1.3,6.076-2.009a1.3,1.3,0,0,1,1.422.2c1.172.948,2.408,1.814,3.6,2.732.267.206.759.3.5.864m14.1-19.689c-2.028-.062-3.185,1-4.159,2.727-2.449,4.332-5.095,8.55-7.628,12.834-.358.606-.574.807-1.2.279-.962-.816-2-1.545-3.025-2.281a.674.674,0,0,1-.289-.952c2.123-5.447,4.207-10.91,6.329-16.357a5.585,5.585,0,0,1,2.837-3.126c.9-.418,1-.874.581-1.645a2.481,2.481,0,0,1-.149-.494c-.749-1.649-.751-1.653-2.346-.682A10.1,10.1,0,0,0,35.6,72.849c-2.04,5.332-4.107,10.653-6.135,15.99a1.869,1.869,0,0,1-1.343,1.271c-2.043.618-4.054,1.335-6.225,2.062.465-2.091-1.171-2.921-2.271-4.015a3.249,3.249,0,0,1-1.1-2.645c.09-2.386.008-4.78.038-7.17a2.336,2.336,0,0,0-1.2-2.4c2.671,0,5.013-.039,7.352.017a2.4,2.4,0,0,0,2.337-1.268c3.73-6.145,8.981-11.049,13.521-16.535a.615.615,0,0,1,.885-.175c4.074,1.868,8.157,3.712,12.48,5.672-1.581.405-2.936.757-4.294,1.1-.986.248-1.977.473-2.961.727-1.366.352-1.706.8-1.724,2.221h0q2.074,4.756,4.142,9.5c-.1.094-.15.171-.193.17m9.934-1.477c-1.815.349-3.652.584-5.479.877a.825.825,0,0,1-1.056-.583c-.234-.657-.527-1.293-.8-1.939-.75-1.734-1.476-3.48-2.265-5.2-.253-.551-.081-.73.42-.849.883-.209,1.759-.448,2.643-.657a1.329,1.329,0,0,1,1.188.216c1.7,1.277,3.417,2.525,5.128,3.783,1.552.881,2.921,2.018,4.513,3.142a20.7,20.7,0,0,1-4.3,1.207m8.264-2.857a.455.455,0,0,1-.57-.068c-3.009-2.16-6.022-4.318-9.168-6.573a2.517,2.517,0,0,1,2.24-.183c3.286,1.481,6.583,2.939,9.874,4.407.219.1.428.222.7.366a15.768,15.768,0,0,1-3.081,2.05m7.6-6.275c-1.612,1.756-1.578,1.77-3.728.81q-4.612-2.061-9.242-4.083c-.533-.233-.878-.491-.8-1.159.3-2.466.564-4.936.852-7.486a8.327,8.327,0,0,1,3.317,2.3c3.18,2.763,6.333,5.556,9.52,8.312.539.465.593.749.078,1.309m3.927-6.3c-.384.669-.724,1.365-1.053,2.063-.235.5-.434.612-.909.19-1.991-1.77-4.022-3.5-6.032-5.246-1.348-1.176-2.673-2.38-4.029-3.546-.849-.73-.867-.71-.709-1.934,2.525,1.509,5.019,3,7.51,4.489,1.625.974,3.234,1.977,4.877,2.92.506.29.647.541.345,1.064m9.075,11.469c.009,2.418.033,4.837.02,7.256A1.648,1.648,0,0,1,85.9,81c-1.437.019-2.875.006-4.312,0-1.78,0-2.291-.523-2.279-2.325,0-.21.017-.42.025-.63-.008-3.049-.011-6.1-.03-9.146,0-.563.059-.844.766-.63q3.457,1.047,6.951,1.968c1.054.28.654,1.053.7,1.692M95.219,55.9c-1.865,2-3.783,3.968-5.806,5.807a4.339,4.339,0,0,0-1.672,4.139c.142.888-.1,1.192-1.039.833a18.346,18.346,0,0,0-2.924-.839c-.865-.174-1.269-.554-1.107-1.461a8.4,8.4,0,0,0,.008-1.2c-.372-1.2.35-2.146,1.354-3.108,2.684-2.576,5.284-5.241,7.909-7.878,1.3-1.3,1.153-2.338-.43-3.268C90,48.028,90,48.031,90.927,46.6c.967-1.5,1.951-3,2.865-4.533.353-.592.548-.623,1.052-.139A10.056,10.056,0,0,1,95.219,55.9" transform="translate(0 0)"/>
        <path id="Trazado_177247" data-name="Trazado 177247" d="M91.035,29.973c2.388-.008,4.776.006,7.164-.008,1.1-.006,1.2-.134.907-1.158-.67-2.365-1.357-4.725-2.019-7.092a3.384,3.384,0,0,0-.634-1.2c-1.571-1.98-3.176-3.935-4.726-5.933a2.155,2.155,0,0,0-1.894-.9c-2,.037-4,.028-6,0a1.121,1.121,0,0,0-1.291,1.055,12.006,12.006,0,0,1-1.07,3.837c-.3.531-.018.891.468,1.075,1.584.6,1.953,1.805,1.884,3.368-.082,1.887-.018,1.89,1.888,1.891.457,0,.913,0,1.37,0,1.779.017,2.2.683,1.517,2.393a16.341,16.341,0,0,1,1.02,2.93,2.158,2.158,0,0,1,1.421-.259" transform="translate(-19.385 -3.259)" fill="#fdc8a2"/>
        <path id="Trazado_177248" data-name="Trazado 177248" d="M97.056,21a1.664,1.664,0,0,0-.332-.529c-1.773-2.223-3.559-4.438-5.32-6.67a1.2,1.2,0,0,0-1.063-.509c-2.389.023-4.778.028-7.167,0-.585-.007-.823.123-.955.756-.3,1.43-.321,2.961-1.162,4.23-.559.842-.308,1.261.564,1.562a2.269,2.269,0,0,1,1.766,2.511c-.061.89-.42,2.128.164,2.607.553.453,1.737.152,2.643.156,2.169.01,2.169,0,2.261,2.1.685-1.711.263-2.377-1.517-2.393-.457,0-.913,0-1.37,0-1.9,0-1.97,0-1.888-1.891.069-1.563-.3-2.769-1.884-3.368-.486-.184-.768-.544-.468-1.075a12.011,12.011,0,0,0,1.07-3.837,1.12,1.12,0,0,1,1.291-1.055c2,.024,4,.033,6,0a2.153,2.153,0,0,1,1.894.9c1.549,2,3.154,3.952,4.726,5.933a3.377,3.377,0,0,1,.634,1.2c.663,2.367,1.35,4.727,2.019,7.092.29,1.024.189,1.152-.907,1.158-2.388.013-4.776,0-7.164.008a2.158,2.158,0,0,0-1.421.259h10.2c-.883-3.092-1.744-6.119-2.619-9.142" transform="translate(-19.246 -3.166)" fill="#fdc8a2"/>
        <path id="Trazado_177249" data-name="Trazado 177249" d="M19.608,93.87c0-.813-.833-2.29-1.51-2.428-.75-.154-.945.692-1.426,1.043a8.159,8.159,0,0,0-.9.884c-1.757,1.757-1.735,1.735-3.5-.025-.539-.539-.481-.846.03-1.344,1.328-1.3,3.118-2.447,3.756-4.042.655-1.639.011-3.753.215-5.629A3.785,3.785,0,0,0,13.927,78c-.717-.344-1.056-.33-1.584.213-1.714,1.756-1.714,1.718-3.484-.094-.5-.51-.513-.876.047-1.254a5.228,5.228,0,0,0,2.267-5.63,1.393,1.393,0,0,1,0-.211c0-1.788.238-2.118,1.884-2.627-.408-1.043-.088-2.125-.176-3.185h0a3.364,3.364,0,0,0-.63-.017c-.886.139-1.151-.228-1.1-1.1.075-1.19.047-2.389.008-3.583a2.522,2.522,0,0,1,.756-1.884Q19.667,50.15,27.4,41.655a1.208,1.208,0,0,0,.293-1.317c-.433-1.549-.726-3.138-1.178-4.681a2.307,2.307,0,0,1,.538-2.317c1.783-2.172,3.532-4.371,5.269-6.578.236-.3.65-.541.464-1.082-.7-2.043-1.37-4.1-2.187-6.557-.532.681-.857,1.188-1.27,1.609-1.8,1.837-1.8,1.813-3.618-.093-.42-.441-.407-.692.015-1.1,1.191-1.144,2.335-2.337,3.518-3.489a1.629,1.629,0,0,0,.512-1.2A27.278,27.278,0,0,0,28.669,5.3c-.2-.624-.427-.889-1.135-.879-3.268.044-6.536.034-9.8.006a1.738,1.738,0,0,0-1.373.6c-1.3,1.334-2.628,2.639-3.946,3.956-1.733,1.733-1.708,1.708-3.481-.042-.551-.545-.475-.849.04-1.33,1.034-.964,2.01-1.99,3.188-3.167-2.329,0-4.361-.008-6.391,0C4.234,4.448,4.432,4.261,4.432,5.8q0,45.915,0,91.83c0,.211.018.424,0,.632-.049.5.161.672.663.67q6.905-.019,13.811,0c.569,0,.72-.206.71-.739-.027-1.44-.008-2.881-.009-4.322M18.585,44.986c-1.881,1.885-3.779,3.754-5.639,5.661-.458.468-.732.436-1.188-.005-1.845-1.783-1.859-1.768-.053-3.575,1.488-1.487,2.987-2.961,4.453-4.469.409-.42.69-.465,1.1-.011s.911.869,1.363,1.309a5.171,5.171,0,0,1,.375.449.969.969,0,0,1-.407.641m-7.4-27.767.372-.372c1.958-1.958,1.957-1.958,3.754.188.182.216.434.405.139.7q-1.409,1.416-2.827,2.821a.986.986,0,0,1-.276.136l-.25.235a11.4,11.4,0,0,0-.935-1.274c-1.184-1.227-1.2-1.214.024-2.435m-1.1,19.666c1.689-1.689,3.362-3.4,5.077-5.059a.843.843,0,0,0,.126-1.331c-.631-.841-1.168-1.752-1.769-2.616-.277-.4-.28-.7.178-.935a.67.67,0,0,0,.086-.06c2.106-1.552,2.106-1.552,3.556.622.624.935,1.251,1.866,1.873,2.8a1.819,1.819,0,0,1,.41,1.032,1.972,1.972,0,0,1-.635,1.432c-2.585,2.582-5.177,5.157-7.742,7.761-.439.446-.683.369-1.1-.027-1.88-1.8-1.892-1.791-.063-3.621" transform="translate(-1.054 -1.053)" fill="#91563a"/>
        <path id="Trazado_177250" data-name="Trazado 177250" d="M15.689,87.415a5.274,5.274,0,0,0-.176-3.185c.088,1.06-.232,2.143.176,3.185" transform="translate(-3.688 -20.073)" fill="#fefefe"/>
        <path id="Trazado_177251" data-name="Trazado 177251" d="M73.63,46.138c2.728,1.107,5.433,2.269,8.161,3.374a1.98,1.98,0,0,1,1.4,2.091c-.04,1.51.024,3.022-.026,4.532a1.3,1.3,0,0,0,.732,1.333c4.318,2.556,8.628,5.126,12.907,7.745.745.456.931.3,1.184-.449A45.211,45.211,0,0,0,100.275,50.4a46.974,46.974,0,0,0-1.239-10.14c-.166-.7-.458-.869-1.13-.865-4.286.028-8.574-.046-12.859.037a23.4,23.4,0,0,1-7.37-.914c-.636-.194-1.3-.313-1.929-.516-.677-.216-1.044-.144-1.22.679-.449,2.09-.956,4.17-1.541,6.226-.213.746.033.978.644,1.226" transform="translate(-17.375 -9.032)" fill="#f96d00"/>
        <path id="Trazado_177252" data-name="Trazado 177252" d="M44.391,9.162a4.55,4.55,0,0,0,.5.158A2.763,2.763,0,0,1,47.006,11.4c2.5,7.1,5.047,14.184,7.574,21.275.165.462.291.882.842,1.1,1.984.788,3.95,1.625,5.912,2.471.462.2.644.141.767-.375q.743-3.119,1.56-6.219c.142-.545-.03-.736-.558-.846-.96-.2-1.894-.516-2.855-.71a2.14,2.14,0,0,1-1.664-1.427c-.666-1.619-1.377-3.219-2.066-4.828-1.984-4.636-3.978-9.267-5.946-13.91a5.033,5.033,0,0,0-4.38-3.444c-1.848-.138-3.713-.029-5.577-.029.459,3.591.459,3.591,3.776,4.706" transform="translate(-9.679 -1.052)" fill="#fdc8a2"/>
        <path id="Trazado_177253" data-name="Trazado 177253" d="M36.555,80.84c3.3-3.83,6.638-7.621,9.965-11.425.99-1.131,1.44-1.225,2.837-.6a14.593,14.593,0,0,1,1.624.734c.554.334.764.164.957-.382.79-2.244,1.581-4.489,2.437-6.709.248-.644.039-.839-.508-1.07a11.767,11.767,0,0,0-4.644-.871,10.308,10.308,0,0,0-8.636,4.807c-2.856,4.492-5.516,9.108-8.28,13.66-.271.447-.209.645.254.857a25.142,25.142,0,0,1,2.532,1.275c.628.379.976.291,1.462-.273" transform="translate(-7.661 -14.421)" fill="#fdc8a2"/>
        <path id="Trazado_177254" data-name="Trazado 177254" d="M55.137,88.88a3.471,3.471,0,0,1-2.748.651,2.462,2.462,0,0,0,.149.494c.418.772.314,1.227-.581,1.644A5.588,5.588,0,0,0,49.119,94.8c-2.123,5.448-4.206,10.91-6.329,16.357a.673.673,0,0,0,.289.951c1.026.737,2.063,1.465,3.025,2.282.622.528.837.327,1.2-.279,2.533-4.285,5.179-8.5,7.628-12.835.974-1.724,2.13-2.789,4.159-2.727.043,0,.088-.075.192-.169q-2.065-4.736-4.142-9.5" transform="translate(-10.177 -21.181)" fill="#fdc8a2"/>
        <path id="Trazado_177255" data-name="Trazado 177255" d="M58.167,88.88l-2.748.651a3.471,3.471,0,0,0,2.748-.651" transform="translate(-13.207 -21.181)" fill="#fdc8a2"/>
        <path id="Trazado_177256" data-name="Trazado 177256" d="M120.682,54.938c-.5-.484-.7-.453-1.052.139-.916,1.535-1.9,3.028-2.865,4.532-.923,1.435-.93,1.43.583,2.32,1.583.93,1.726,1.967.43,3.268-2.626,2.637-5.224,5.3-7.909,7.878-1,.963-1.726,1.91-1.354,3.109a8.4,8.4,0,0,1-.008,1.2c-.161.908.242,1.286,1.107,1.462a18.367,18.367,0,0,1,2.924.839c.939.36,1.18.056,1.039-.832a4.336,4.336,0,0,1,1.672-4.139c2.024-1.839,3.941-3.805,5.806-5.807a10.056,10.056,0,0,0-.374-13.972" transform="translate(-25.837 -13.012)" fill="#fdc8a2"/>
        <path id="Trazado_177257" data-name="Trazado 177257" d="M93.7,82.605c-3.186-2.755-6.34-5.549-9.52-8.311A8.314,8.314,0,0,0,80.86,72c-.286,2.55-.551,5.02-.851,7.485-.081.669.264.926.8,1.159q4.628,2.022,9.242,4.083c2.15.96,2.117.947,3.728-.809.514-.56.46-.844-.078-1.31" transform="translate(-19.064 -17.158)" fill="#344f7a"/>
        <path id="Trazado_177258" data-name="Trazado 177258" d="M90.855,4.445c-3.725-.011-7.449-.005-11.174,0-1.347,0-2.115.6-2.144,1.64-.03,1.081.772,1.731,2.159,1.732,3.62,0,7.239.019,10.857-.011a2.379,2.379,0,0,1,2.08.984c1.069,1.388,2.185,2.741,3.46,4.334,0-1.328.007-2.375,0-3.422a5.058,5.058,0,0,0-5.238-5.255" transform="translate(-18.478 -1.058)" fill="#feb431"/>
        <path id="Trazado_177259" data-name="Trazado 177259" d="M111.827,91.574q-3.492-.925-6.951-1.968c-.708-.214-.77.068-.766.631.019,3.048.022,6.1.03,9.146a23.57,23.57,0,0,0,4.28-2.937c1.4-1.015,2.619-2.269,4.1-3.178h0c-.042-.64.358-1.413-.7-1.692" transform="translate(-24.81 -21.337)" fill="#353f52"/>
        <path id="Trazado_177260" data-name="Trazado 177260" d="M104.142,100.55c-.008.21-.024.42-.025.63-.012,1.8.5,2.324,2.278,2.325,1.438,0,2.875.014,4.313,0a1.648,1.648,0,0,0,1.837-1.811c.013-2.418-.011-4.837-.02-7.256h0a55.358,55.358,0,0,1-7.181,5.77c-.349.252-.682.647-1.2.345" transform="translate(-24.812 -22.505)" fill="#253555"/>
        <path id="Trazado_177261" data-name="Trazado 177261" d="M104.15,100.55c.519.3.852-.093,1.2-.345a55.358,55.358,0,0,0,7.181-5.77c-1.484.909-2.7,2.162-4.1,3.178a23.57,23.57,0,0,1-4.28,2.937" transform="translate(-24.82 -22.505)" fill="#253555"/>
        <path id="Trazado_177262" data-name="Trazado 177262" d="M18.518,93.734c1.543.025,3.087.012,4.631.012,1.579,0,3.158,0,4.736,0,.337,0,.695.088.934-.295.427-.683.87-1.357,1.333-2.016.219-.31.176-.469-.16-.633-1.227-.6-2.445-1.214-3.665-1.826a.89.89,0,0,0-.714-.035c-2.488.832-4.993,1.621-7.458,2.518-.952.347-.354,1.286-.429,1.942-.065.571.5.331.792.335" transform="translate(-4.196 -21.181)" fill="#bebebc"/>
        <path id="Trazado_177263" data-name="Trazado 177263" d="M41.161,125.33c-1.2-.919-2.431-1.785-3.6-2.732a1.3,1.3,0,0,0-1.422-.2c-2.015.7-4.013,1.484-6.076,2.009-1.187.3-1.351.9-1.293,1.919.032.544.156.714.713.7,1.859-.034,3.719-.013,5.578-.013,1.825,0,3.651-.04,5.473.021.691.023.9-.34,1.13-.84.26-.56-.232-.658-.5-.864" transform="translate(-6.853 -29.139)" fill="#bebebc"/>
        <path id="Trazado_177264" data-name="Trazado 177264" d="M65.385,64.464c-.369-.2-.637-.241-.81.239-.829,2.3-1.672,4.6-2.51,6.9-.15.41.008.655.391.826,1.47.654,2.942,1.309,4.4,1.99.5.232.595.045.635-.412.207-2.332.434-4.663.674-7.207.324-.733-.235-1.131-.991-1.453-.611-.26-1.2-.572-1.788-.884" transform="translate(-14.778 -15.329)" fill="#34507a"/>
        <path id="Trazado_177265" data-name="Trazado 177265" d="M74,92.656h0c-1.712-1.258-3.431-2.507-5.128-3.783a1.329,1.329,0,0,0-1.188-.216c-.884.209-1.76.448-2.643.657-.5.119-.673.3-.42.849.788,1.717,1.514,3.463,2.264,5.2A28.171,28.171,0,0,0,72.425,93.6c.554-.213,1.4-.061,1.577-.947" transform="translate(-15.373 -21.115)" fill="#34507a"/>
        <path id="Trazado_177266" data-name="Trazado 177266" d="M112.949,55.855c-.04.51.245.68.59.865.449.24.541-.175.69-.408,1.324-2.063,2.625-4.143,3.958-6.2.238-.368.228-.6-.1-.887-1.83-1.624-3.649-3.259-5.63-5.034.152,1.25.284,2.255.394,3.263a45.253,45.253,0,0,1,.1,8.4" transform="translate(-26.8 -10.531)" fill="#f26100"/>
        <path id="Trazado_177267" data-name="Trazado 177267" d="M98.89,75.662c-1.644-.942-3.252-1.945-4.877-2.92-2.491-1.492-4.985-2.98-7.51-4.488-.158,1.223-.14,1.2.708,1.933,1.357,1.166,2.681,2.37,4.03,3.546,2.009,1.75,4.04,3.476,6.032,5.246.475.423.675.309.909-.19.328-.7.668-1.395,1.053-2.063.3-.523.161-.774-.345-1.064" transform="translate(-20.596 -16.266)" fill="#353f52"/>
        <path id="Trazado_177268" data-name="Trazado 177268" d="M74.746,93.923c.261.519-.142.71-.48.852-1.873.786-3.813,1.383-5.747,2a.858.858,0,0,1-.888-.145c.268.645.561,1.282.8,1.939a.825.825,0,0,0,1.056.583c1.827-.293,3.664-.529,5.479-.877a20.7,20.7,0,0,0,4.3-1.207C77.667,95.941,76.3,94.8,74.746,93.923Z" transform="translate(-16.117 -22.383)" fill="#2f486e"/>
        <path id="Trazado_177269" data-name="Trazado 177269" d="M68.519,96.773c1.934-.615,3.874-1.212,5.747-2,.338-.142.741-.333.48-.852-.174.886-1.023.733-1.577.947a28.164,28.164,0,0,1-5.537,1.758.858.858,0,0,0,.888.145" transform="translate(-16.117 -22.383)" fill="#2f486e"/>
        <path id="Trazado_177270" data-name="Trazado 177270" d="M77.56,86.865a2.517,2.517,0,0,0-2.24.183c3.146,2.255,6.158,4.412,9.168,6.573a.456.456,0,0,0,.57.068,15.8,15.8,0,0,0,3.081-2.05c-.276-.144-.485-.267-.7-.366-3.291-1.469-6.588-2.926-9.874-4.407" transform="translate(-17.95 -20.656)" fill="#353f51"/>
        <path id="Trazado_177271" data-name="Trazado 177271" d="M74.074,69.68c-.256,2.259-.442,4.526-.637,6.652-.286,1.293.74,1.246,1.342,1.472.524.2.443-.41.476-.7.266-2.363.52-4.728.747-7.1.093-.969-.852-.945-1.371-1.15-.668-.264-.525.534-.558.824" transform="translate(-17.489 -16.396)" fill="#343e51"/>
        <path id="Trazado_177272" data-name="Trazado 177272" d="M114.385,66.929c.332-.325.364-.525-.086-.756-.71-.366-1.4-.772-2.131-1.18-.395,1.741-.772,3.406-1.149,5.071l.181.065c1.06-1.068,2.112-2.145,3.186-3.2" transform="translate(-26.457 -15.489)" fill="#fbfbfb"/>
        <path id="Trazado_177273" data-name="Trazado 177273" d="M11.492,47.193c.413.4.657.472,1.1.027,2.565-2.6,5.157-5.178,7.742-7.761a1.972,1.972,0,0,0,.634-1.431A1.806,1.806,0,0,0,20.554,37c-.622-.936-1.249-1.868-1.873-2.8-1.449-2.174-1.449-2.174-3.555-.622a.678.678,0,0,1-.087.06c-.458.236-.455.535-.177.934.6.865,1.137,1.776,1.769,2.617a.843.843,0,0,1-.126,1.331c-1.715,1.664-3.388,3.37-5.077,5.059-1.83,1.83-1.817,1.817.063,3.621" transform="translate(-2.399 -7.739)"/>
        <path id="Trazado_177274" data-name="Trazado 177274" d="M19.112,54.427c-.405-.453-.687-.408-1.1.012-1.466,1.507-2.966,2.981-4.453,4.468-1.807,1.807-1.793,1.792.053,3.575.456.441.73.475,1.187.005,1.86-1.906,3.758-3.775,5.64-5.66a.973.973,0,0,0,.406-.642,5.271,5.271,0,0,0-.374-.449c-.452-.439-.944-.841-1.363-1.309" transform="translate(-2.912 -12.894)"/>
        <path id="Trazado_177275" data-name="Trazado 177275" d="M13.924,24.365l.25-.235a.928.928,0,0,0,.276-.136q1.419-1.4,2.827-2.819c.3-.3.043-.485-.139-.7-1.8-2.145-1.8-2.146-3.754-.187-.124.123-.248.248-.372.372-1.221,1.221-1.207,1.208-.024,2.436a11.377,11.377,0,0,1,.935,1.273" transform="translate(-2.883 -4.489)" fill="#010000"/>
      </g>
    </g>
  </g>
</svg>
