<svg xmlns="http://www.w3.org/2000/svg" xmlns:xlink="http://www.w3.org/1999/xlink" width="295" height="557" viewBox="0 0 295 557">
  <defs>
    <clipPath id="clip-path">
      <rect id="Rectángulo_44600" data-name="Rectángulo 44600" width="221.005" height="546.184" fill="none"/>
    </clipPath>
  </defs>
  <g id="Grupo_172622" data-name="Grupo 172622" transform="translate(-1091 -1707)">
    <rect id="Rectángulo_44116" data-name="Rectángulo 44116" width="295" height="557" transform="translate(1091 1707)" fill="none"/>
    <g id="Grupo_172620" data-name="Grupo 172620" transform="translate(1104 1712.748)">
      <g id="Grupo_157493" data-name="Grupo 157493" transform="translate(0 0)">
        <path id="Trazado_114544" data-name="Trazado 114544" d="M197.627,548.687c35.563-16.178,72.444-38.008,86.767-74.515,15.9-40.516-.743-85.89-.343-129.441.318-34.5,11.437-67.82,20.185-101.182s15.174-68.81,6.148-102.1C304.341,119.167,291.506,99,274.936,83.005c-29.178-28.173-71.218-43.418-111.162-36.974s-76.231,35.8-87.909,74.745c-16.544,55.175,15.773,114.073,8.9,171.286-2.687,22.387-11.289,43.557-17.121,65.331a269.025,269.025,0,0,0-9.14,71.079c.218,36.725,9.475,75.908,36.724,100.365C122.718,553.507,163.621,564.157,197.627,548.687Z" transform="translate(-52.422 -44.565)" fill="#fcf2ca"/>
        <g id="Grupo_173483" data-name="Grupo 173483" transform="translate(-729.365 -1669.932)">
          <g id="Grupo_173484" data-name="Grupo 173484" transform="translate(754 1675)">
            <g id="Grupo_173483-2" data-name="Grupo 173483" clip-path="url(#clip-path)">
              <path id="Trazado_176929" data-name="Trazado 176929" d="M51.432,37.831c-.173-13.974,1.957-25.7,11.343-30.816s42.673-9.693,65.358-5.166,36.54,23.987,38.775,75.932c0,0,11.621,38.482,16.984,78.063s12.067,67.611-8.94,90.243-47.571,19.224-65.116,18.095S68.4,250,60.224,189.639,51.71,60.349,51.432,37.831" transform="translate(31.677 0)" fill="#489e99"/>
              <path id="Trazado_176930" data-name="Trazado 176930" d="M60.49,35.693c3.179-13.183,32.223-8.045,44.6-3.184s16.008,26.011,22.015,46.5,21.2,72.066,9.583,87.616-59.442,20.913-67.487-4.337S56.691,51.449,60.49,35.693" transform="translate(36.418 16.826)" fill="#1d3927"/>
              <path id="Trazado_176931" data-name="Trazado 176931" d="M170.095,311.616a14.711,14.711,0,0,1-6.847,4.291c-4.344,1.537-9.993,2.377-16.393,3.45-9.118,1.519-14.337,1.734-17.914-.233a8.465,8.465,0,0,1-1.752-1.251c-3.575-3.272-8.348-22.65-14.3-42.154s-18.77-72.564-19.664-72.564c-.09,0-.179.126-.268.394-.018.018-.018.018-.018.036-.43,1.233-.86,5.113-1.626,10.029l-.037.215c-.339,2.216-.769,4.648-1.306,7.131l-.036.2c-.339,1.645-.732,3.308-1.18,4.953-2.986,11.012-22.936,79.552-23.83,82.234-.448,1.34-1.126,4.7-1.681,7.705-.553,3.02-1,5.7-1,5.7a64.532,64.532,0,0,1-8.206-.464c-2.9-.3-6.6-.823-11.173-1.627a92.478,92.478,0,0,1-15.268-4,42.56,42.56,0,0,1-5.291-2.253,86.2,86.2,0,0,0,3.289-10.654c.339-1.984,1.164-15,2.38-32,.928-12.925,2.072-28.156,3.432-42.564.537-5.721,1.2-11.406,1.947-16.91,1.071-7.9,2.306-15.448,3.557-22.259.108-.554.217-1.091.305-1.627,2.93-15.373,5.971-26.69,7.524-29.211a103.847,103.847,0,0,0,12.051,3.075c.3.071.608.126.91.2,12.729,2.663,33,5.774,52.508,4.255l.016-.091.771-4.468,10.617,1.949,1.054.2,6.222,1.144,12.6,2.306s1.949,11.353,4.417,25.94c.053.322.107.661.16.983.911,5.4,1.878,11.209,2.843,17.02l.018.089c2.752,16.608,5.4,33.233,6.328,40.653.25,2,.519,3.969.787,5.9a185.983,185.983,0,0,0,9.278,37.686c4.47,12,4.774,16.608,4.774,16.608" transform="translate(13.74 97.44)" fill="#a5882f"/>
              <path id="Trazado_176932" data-name="Trazado 176932" d="M129.466,309.23a14.71,14.71,0,0,1-6.847,4.291c-1.537-8.455-3.861-24.242-7.2-35.129-4.47-14.551-15.357-79.07-27.156-116.344l12.6,2.306s3.772,21.918,7.419,43.943l.018.089c2.752,16.608,5.4,33.233,6.328,40.653.25,2,.519,3.969.787,5.9a185.984,185.984,0,0,0,9.278,37.686c4.47,12,4.774,16.608,4.774,16.608" transform="translate(54.369 99.825)" fill="#535c2f"/>
              <path id="Trazado_176933" data-name="Trazado 176933" d="M26.22,327.52c-6.852.745-17.282,5.215-26.22,13.854H46.779l3.874-12.812c-11.918,4.173-24.433-1.042-24.433-1.042" transform="translate(0 201.759)" fill="#1d3927"/>
              <path id="Trazado_176934" data-name="Trazado 176934" d="M135.455,327.52a44.775,44.775,0,0,1-27.413,3.432c.6,1.782,1.789,10.422,1.789,10.422h43.2s-13.111-12.215-17.579-13.854" transform="translate(66.556 201.759)" fill="#1d3927"/>
              <path id="Trazado_176935" data-name="Trazado 176935" d="M65.883,269.731q-.027.429-.053.911a195.262,195.262,0,0,1-5.507,34.235C53.763,331.693,40.658,373.7,40.658,373.7a29.607,29.607,0,0,1-8.634,1.592,41.124,41.124,0,0,1-15.8-2.629V325.741c0-18.253,5.255-52.648,8.331-66.236.089-.339.162-.661.231-.965a26.6,26.6,0,0,1,1.272-4.308c.052.036,7.2,3.878,20.557,6.257,4.111.732,7.526,1.215,10.28,1.519a66.407,66.407,0,0,0,9.1.572c0,.036.144,2.5-.107,7.151" transform="translate(9.992 156.612)" fill="#d07528"/>
              <path id="Trazado_176936" data-name="Trazado 176936" d="M147.627,373.349a39.031,39.031,0,0,1-5.524,2.2,45.154,45.154,0,0,1-21.9,1.233s-2.681-9.242-8.331-30.391c-2.843-10.583-8.2-30.695-13.122-48.823-3.109-11.495-6.06-22.185-8.045-29.156-.107-.341-.2-.663-.286-.984-1.018-3.486-1.77-5.9-2.127-6.794,3.575,1.967,8.8,1.752,17.914.233,6.739-1.126,12.637-2,17.072-3.683a14.118,14.118,0,0,0,6.168-4.058s.929,1.7,2.342,4.738c.124.268.25.554.393.84a160.575,160.575,0,0,1,11.871,38.81c4.164,25.333,3.575,75.835,3.575,75.835" transform="translate(54.39 155.93)" fill="#d07528"/>
              <path id="Trazado_176937" data-name="Trazado 176937" d="M164.541,155.829c-.036,7.973-.465,15.016-1.341,19.522-1.984,10.191-4.719,17.377-10.832,23.027l-1.663,1.448a40.785,40.785,0,0,1-6.042,3.969,30.692,30.692,0,0,1-4.434,1.947l-.036.018c-11.138,3.969-23.919,2.361-23.919,2.361l-.645,3.717-1.251,7.348-.769,4.47-.018.089c-31.5,2.45-65.037-7.151-65.465-7.526a22.435,22.435,0,0,1,.2-4.809c.233-2.485.537-5.435.769-7.615a.168.168,0,0,0,.018-.091c.2-1.752.339-2.985.339-2.985l-.268.053c-2.324.448-19.021,3.164-25.9-10.637a57.872,57.872,0,0,1-5.829-19.719c-1.233-10.315-.59-22.918,1.181-40.992,3.02-30.963,14.963-44.318,14.963-44.318a59.54,59.54,0,0,1,4.129-4.612c9.69-9.761,19.308-12.335,26.655-14,1.126-.25,2.217-.5,3.237-.732l18.949-1.807s38.2,0,51.092,7.741c12.889,7.723,19.058,20.417,22.865,36.506,2.557,10.816,4.111,31.231,4.022,47.624" transform="translate(10.356 39.399)" fill="#f26453"/>
              <path id="Trazado_176938" data-name="Trazado 176938" d="M31.589,127.2c-.116-2.309-.671-10.726-4.245-11.621s-2.272,3.576-2.272,3.576-2.644-2.458-5.1-.671,0,5.936,0,5.936-.669-2.359-3.129-1.02,1.341,6.48,1.341,6.48-2.681-3.8-4.022-1.564,2.681,8.269,6.257,11.173,3.672,2.224,4.68,1.341-2.283-4.63-2.283-4.63,3.347,4.207,4.609,2.631-1.2-5.6-1.2-5.6,1.521,5.029,2.906,2.967.223-6.32.223-6.32.952,4.247,2.376,3.129.113-.811-.141-5.81" transform="translate(8.559 71.127)" fill="#f9b88c"/>
              <path id="Trazado_176939" data-name="Trazado 176939" d="M63.8,53.463c-.3.719-.622,1.414-.957,2.1a29.924,29.924,0,0,1-5.671,8.159,16.485,16.485,0,0,1-10.045,4.047l-.037.042c.7,6.191,10.082,11.555,10.082,11.555v4.245l5.587,1.118V76.267l5.081-5.777.058-.066s-3.365-3.93-4.1-16.96" transform="translate(29.009 32.934)" fill="#f2a470"/>
              <path id="Trazado_176940" data-name="Trazado 176940" d="M85.1,50.766c-1.787,4.683-8.491,5.577-8.491,5.577A25.814,25.814,0,0,1,74.519,65.3c-.286.732-.625,1.412-.947,2.109a30.519,30.519,0,0,1-5.667,8.153A16.54,16.54,0,0,1,57.858,79.6c-3.825.233-8.4-.716-13.426-4.04a20.558,20.558,0,0,1-2.342-1.789,32.038,32.038,0,0,1-7.849-10.761,49.386,49.386,0,0,1-4.559-18.967s5.525-4.4,16.268-7.51c2.128-.608,4.434-1.18,6.973-1.643,2.127-.323,4.058-.519,5.9-.627a43.7,43.7,0,0,1,21.6,4.88l.428,3.111c5.149-3.79,6.044,3.809,4.255,8.51" transform="translate(18.285 21.092)" fill="#f9b88c"/>
              <path id="Trazado_176941" data-name="Trazado 176941" d="M39.748,35.97c.965-.28,1.981-.545,3.027-.8q-1.576.383-3.027.8" transform="translate(24.486 21.665)" fill="#f8b348"/>
              <path id="Trazado_176942" data-name="Trazado 176942" d="M45.378,34.643c-1.2.221-2.337.47-3.445.729,1.1-.26,2.246-.507,3.445-.729" transform="translate(25.832 21.341)" fill="#f8b348"/>
              <path id="Trazado_176943" data-name="Trazado 176943" d="M49.973,34.251a40.26,40.26,0,0,0-5.908.633c2.122-.326,4.068-.516,5.908-.633" transform="translate(27.145 21.099)" fill="#f8b348"/>
              <path id="Trazado_176944" data-name="Trazado 176944" d="M42.126,35.094c-.171.04-.336.082-.506.123.17-.04.335-.082.506-.123" transform="translate(25.639 21.619)" fill="#1d3927"/>
              <path id="Trazado_176945" data-name="Trazado 176945" d="M75.336,31.364s-7.747-5.727-21.9-5.016-21.007,6.794-21.007,6.794c-3.874,5.567-2.681,15.81-2.681,15.81s5.52-4.405,16.264-7.51q1.447-.419,3.027-.8c.168-.04.333-.082.5-.123,1.109-.26,2.246-.507,3.445-.729a40.237,40.237,0,0,1,5.908-.633,43.751,43.751,0,0,1,21.579,4.879c.968-8.715-5.141-12.671-5.141-12.671" transform="translate(18.22 16.193)" fill="#1d3927"/>
              <path id="Trazado_176946" data-name="Trazado 176946" d="M57.523,65.529c-3.557,4.022-17.377,40.384-19.825,47.963-2.468,7.6-6.938,19.219-6.938,19.219s-3.575-19.665-2.681-32.626a183.634,183.634,0,0,1,2.789-20.559,49.1,49.1,0,0,1,10.994-8.421c.394-.231.8-.446,1.2-.643a57.74,57.74,0,0,1,14.462-4.934" transform="translate(17.209 40.367)" fill="#89453c"/>
              <path id="Trazado_176947" data-name="Trazado 176947" d="M128.869,101.675c-1.412,4.971-3.361,8.672-6.579,11.068-2.86,2.125-6.721,3.234-12.191,3.234a22.04,22.04,0,0,1-9.3-1.626c-3.843-1.77-5.149-4.756-6.2-7.615-1.627-4.47-1.485-11.763-6.257-12.068-3.791-.231-7.366.446-10.262-2.162l.071-.073S74.773,88.5,74.04,75.469a25.775,25.775,0,0,0,2.091-8.958s6.7-.894,8.491-5.579c1.789-4.7.9-12.3-4.253-8.508l-.43-3.111c.966-8.723-5.149-12.676-5.149-12.676S67.462,31.2,54.036,31.58c-.377,0-.769.018-1.144.036a.462.462,0,0,0-.162.019,47.977,47.977,0,0,0-7.9,1.071c-.357.071-.716.142-1.055.233A39.038,39.038,0,0,0,38.5,34.653c-.3.124-.572.25-.84.375a23.7,23.7,0,0,0-5.774,3.379c-1.789-1.841-2.683-5.254,2.233-10.1S46.187,17.044,54.535,17.8c8.332.753,15.643,3.575,21.293,11.925a44.254,44.254,0,0,1,3.5,6.256c.465,1,.911,1.951,1.359,2.828,1.645,3.163,3.63,5.629,9.3,8.045,10.137,4.326,22.794,10.582,31.142,21,8.331,10.423,10.423,24.439,7.741,33.823" transform="translate(18.766 10.925)" fill="#f8b348"/>
              <path id="Trazado_176948" data-name="Trazado 176948" d="M53.368,72.117l5.587,1.117s.3,16.834,0,20.262c0,0-4.568-6.556-5.263-12.663a39.27,39.27,0,0,1-.323-8.715" transform="translate(32.815 44.426)" fill="#d07528"/>
              <path id="Trazado_176949" data-name="Trazado 176949" d="M96.61,164.237c-3.289-.519-29.677-3.951-33.912-4.809s-24.189.858-26.388,0c.412-4.559,1.126-10.69,1.126-10.69s21.238-.894,24.368,0c0,0,17.251,6.7,34.431,6.7Z" transform="translate(22.368 91.381)" fill="#489e99"/>
              <path id="Trazado_176950" data-name="Trazado 176950" d="M118.331,237.35c-6.293,1.341-18.377,3.736-19.468,2.754-1.162-1.055-9.851-23.437-13.6-33.216H85.24q-.16-.456-.322-.858c-.858-2.235-1.395-3.63-1.395-3.63,6.1-8.634,21.6-12.514,27.674-11.692l.018.09c.233,1.43.465,2.859.716,4.289.036.305.089.59.142.9,2.432,14.783,4.63,28.817,5.47,35.467.25,2,.519,3.969.787,5.9" transform="translate(51.452 117.414)" fill="#1d3927"/>
              <path id="Trazado_176951" data-name="Trazado 176951" d="M40.329,194.626a20.5,20.5,0,0,1-.41,2.86c-.053.286-.108.59-.162.911-1.412,7.973-5,26.477-5.792,34.879-1,10.726-1.9,17.233-1.9,17.233s-3.271-.018-6.257,0c.931-12.925,2.075-28.156,3.432-42.564.359-3.773.769-7.527,1.215-11.228.037-.3.073-.59.108-.876.2-1.627.412-3.217.625-4.809,5.9,1.341,8.956,3.022,9.135,3.594" transform="translate(15.901 117.68)" fill="#1d3927"/>
              <path id="Trazado_176952" data-name="Trazado 176952" d="M84.028,110.835c.037,4.693-4.431,15.717-13.966,18.1,0,0,8.045,1.2,17.876-8.34Z" transform="translate(43.16 68.277)" fill="#bc5548"/>
              <path id="Trazado_176953" data-name="Trazado 176953" d="M83.282,116.875c1.49,2.38,3.88,17.839,3.88,17.839l-9.541.619,1.734-15.115Z" transform="translate(47.816 71.997)" fill="#bc5548"/>
              <path id="Trazado_176954" data-name="Trazado 176954" d="M36.8,150.521c.018-.034,0-.052,0-.087Z" transform="translate(22.668 92.67)" fill="#bc5548"/>
              <path id="Trazado_176955" data-name="Trazado 176955" d="M49.205,150.179l-.268,10.011c-2.324.446-19.021,3.164-25.9-10.637a57.846,57.846,0,0,1-5.829-19.719c3.791,3.9,5.847,2.144,5.847,2.144l13.085,7.151Z" transform="translate(10.599 79.981)" fill="#bc5548"/>
              <path id="Trazado_176956" data-name="Trazado 176956" d="M143.288,120.819c-.036,7.973-.465,15-1.341,19.5-1.984,10.191-4.719,17.377-10.832,23.025l-1.663,1.45a40.783,40.783,0,0,1-6.042,3.967,30.525,30.525,0,0,1-4.434,1.949l-.036.018c-11.138,3.969-23.919,2.359-23.919,2.359l-8.028-.7s-7.025.519-21.684-2.86c-11.353-2.61-13.57-4.076-14-4.219,13.1,1.27,33.626,2.933,55.633-4,16.59-5.22,29.623-25.814,36.344-40.491" transform="translate(31.609 74.427)" fill="#bc5548"/>
              <path id="Trazado_176957" data-name="Trazado 176957" d="M81.128,186.01l-1.913,10.459-.036.213-1.3,7.133-.037.2c-.339,1.645-.732,3.306-1.18,4.952-2.985,11.013-22.936,79.553-23.83,82.234-.448,1.341-1.126,4.7-1.681,7.705-.554,3.022-1,5.7-1,5.7a64.405,64.405,0,0,1-8.206-.465c3.379-14.48,9.779-40.383,15.142-53.469,7.561-18.45,17.876-55.473,23.759-64.232,0-.018,0-.018.018-.037.089-.142.179-.268.268-.393" transform="translate(25.837 114.586)" fill="#535c2f"/>
              <path id="Trazado_176958" data-name="Trazado 176958" d="M54.3,301.914C47.739,328.73,34.636,370.74,34.636,370.74A29.522,29.522,0,0,1,26,372.332c6.776-25.278,22.437-85.077,24.867-113.288a66.09,66.09,0,0,0,9.1.572c0,.073.876,15.554-5.667,42.3" transform="translate(16.017 159.576)" fill="#b36133"/>
              <path id="Trazado_176959" data-name="Trazado 176959" d="M134.291,373.349a39.032,39.032,0,0,1-5.524,2.2c-.608-12.443-1.681-30.856-3.272-46.517a312.19,312.19,0,0,0-15.553-71.848,14.118,14.118,0,0,0,6.168-4.058,155.284,155.284,0,0,1,14.606,44.389c4.164,25.333,3.575,75.835,3.575,75.835" transform="translate(67.726 155.93)" fill="#b36133"/>
              <path id="Trazado_176960" data-name="Trazado 176960" d="M87.888,101.8c-2.45,11.621-2,39.919-2,39.919a121.826,121.826,0,0,1-9.832-24.938c-3.576-13.639-2.9-32.644-1.7-38.65a22.028,22.028,0,0,0,9.3,1.627c.25,0,.483,0,.716-.018.339,0,.643,0,.965-.018,4.594-.215,7.956-1.306,10.512-3.2-2.736,7.508-6.472,18.306-7.956,25.278" transform="translate(45.212 47.141)" fill="#89453c"/>
              <path id="Trazado_176961" data-name="Trazado 176961" d="M42.233,134.81,41.1,132.126s-1.508-5.638-2.445-7.115c-1.194-1.879-4.717-3.015-5.955-5.6-1.886-3.938-3.276-8.76-2.308-12.311,0,0-4.164,9.682,0,15.795a30.969,30.969,0,0,1,2.657,6.934c6.479.931,9.187,4.979,9.187,4.979" transform="translate(17.58 65.977)" fill="#bc5548"/>
              <path id="Trazado_176962" data-name="Trazado 176962" d="M43.171,59.151a.446.446,0,0,1-.024-.892c3.35-.163,5.737-1.227,7.3-3.255a.446.446,0,0,1,.706.546c-1.731,2.246-4.334,3.424-7.959,3.6h-.023" transform="translate(26.318 33.778)" fill="#f25e4c"/>
              <path id="Trazado_176963" data-name="Trazado 176963" d="M60.137,47.669a.441.441,0,0,1-.184-.04.447.447,0,0,1-.223-.591,23.421,23.421,0,0,1,4.211-5.9.446.446,0,1,1,.643.619,22.964,22.964,0,0,0-4.04,5.646.449.449,0,0,1-.407.262" transform="translate(36.77 25.259)" fill="#cc6e24"/>
              <path id="Trazado_176964" data-name="Trazado 176964" d="M38.982,61.792a.476.476,0,0,1-.176-.036.448.448,0,0,1-.271-.41V42.287a.447.447,0,1,1,.894,0v18.02l4.908-4.649a.447.447,0,0,1,.614.65l-5.661,5.362a.444.444,0,0,1-.307.123" transform="translate(23.738 25.774)" fill="#cc6e24"/>
              <path id="Trazado_176965" data-name="Trazado 176965" d="M40.25,68.582c-3.878,10.153-6.829,24.706-6.865,24.85a.438.438,0,0,1-.43.357.135.135,0,0,1-.089-.018.425.425,0,0,1-.357-.519c.036-.142,2.807-13.872,6.543-24.027.393-.231.8-.446,1.2-.643" transform="translate(20.02 42.248)" fill="#d07528"/>
              <path id="Trazado_176966" data-name="Trazado 176966" d="M79.212,112.346a.438.438,0,0,1-.3.554.264.264,0,0,1-.124.018.472.472,0,0,1-.43-.322c-2.342-7.991-1.233-18.288,3.683-34.074.339,0,.643,0,.965-.018-4.987,15.75-6.1,25.976-3.79,33.841" transform="translate(47.542 48.361)" fill="#d07528"/>
              <path id="Trazado_176967" data-name="Trazado 176967" d="M43.132,130.512a.446.446,0,0,1-.176-.036c-.3-.131-7.463-3.242-10.924-8.508-3.9-5.936-2.355-13.457-.372-18.72a.447.447,0,1,1,.837.314c-1.91,5.071-3.411,12.295.283,17.915,3.313,5.044,10.456,8.146,10.528,8.177a.447.447,0,0,1-.176.858" transform="translate(18.246 63.423)" fill="#89453c"/>
              <path id="Trazado_176968" data-name="Trazado 176968" d="M37.96,128.344s-3.119-9.822-3.154-9.935a.445.445,0,0,1,.356-.579c.367-.068.377-.069,3.651,10.242Z" transform="translate(21.427 72.579)" fill="#89453c"/>
              <path id="Trazado_176969" data-name="Trazado 176969" d="M91.987,135.33a.445.445,0,0,1-.441-.386c-.609-4.447-2.891-13.835-3.634-16.842-6.176,8.575-11.6,9.3-17.791,7.715a.446.446,0,1,1,.221-.865c6.189,1.589,11.257.776,17.4-8.161a.447.447,0,0,1,.8.144c.031.124,3.156,12.527,3.888,17.888a.442.442,0,0,1-.381.5.393.393,0,0,1-.061,0" transform="translate(42.989 71.827)" fill="#89453c"/>
              <path id="Trazado_176970" data-name="Trazado 176970" d="M81.061,132.971c-2.426,0-4.743-.082-6.87-.276-16.168-1.462-33.537-4.766-37.17-7.068a.447.447,0,0,1,.478-.755c3.536,2.241,20.719,5.482,36.771,6.933,16.214,1.466,43.755-3.444,44.032-3.494a.447.447,0,1,1,.158.879c-.242.044-21.2,3.781-37.4,3.781" transform="translate(22.678 76.881)" fill="#89453c"/>
              <path id="Trazado_176971" data-name="Trazado 176971" d="M52.134,160.276c-3.9,9.135-14,20.541-20.79,27.566.107-.554.213-1.091.3-1.626,6.652-7.009,15.911-17.663,19.576-26.138.3.073.608.126.911.2" transform="translate(19.309 98.612)" fill="#1d3927"/>
              <path id="Trazado_176972" data-name="Trazado 176972" d="M108.213,191.789c-9.046-3.146-18.342-14.714-24.455-30.57l1.054.2c5.918,15.107,14.7,26.154,23.24,29.389.055.322.108.663.162.984" transform="translate(51.597 99.314)" fill="#1d3927"/>
              <path id="Trazado_176973" data-name="Trazado 176973" d="M111.543,194.271c-7.616,2.111-23.419,7.508-26.672,10.8a.28.28,0,0,1-.144.107h-.018q-.16-.456-.322-.858c3.718-3.5,19.379-8.832,27.012-10.94.037.3.09.59.144.894" transform="translate(51.984 119.124)" fill="#a5882f"/>
              <path id="Trazado_176974" data-name="Trazado 176974" d="M38.146,195.653c-.053.286-.108.59-.162.911a33.9,33.9,0,0,0-9.3-1.681c.036-.3.071-.59.107-.876a34.736,34.736,0,0,1,9.35,1.645" transform="translate(17.673 119.513)" fill="#a5882f"/>
              <path id="Trazado_176975" data-name="Trazado 176975" d="M62.707,268.089q-.027.429-.053.911c-1.538.126-3.075.179-4.612.179-14.517,0-28.943-4.935-36.666-11.317.089-.339.162-.661.231-.965,8.259,7.115,25.064,12.46,41.1,11.191" transform="translate(13.168 158.254)" fill="#89453c"/>
              <path id="Trazado_176976" data-name="Trazado 176976" d="M131.37,256.9c-8.672,7.437-21.488,10.53-32.34,10.53A48.324,48.324,0,0,1,89.9,266.6c-.107-.339-.2-.661-.286-.983,10.9,2.144,29.622.75,41.368-9.565.124.268.249.554.393.84" transform="translate(55.201 157.736)" fill="#89453c"/>
              <path id="Trazado_176977" data-name="Trazado 176977" d="M57.765,160.44a.434.434,0,0,1-.168-.034,13.772,13.772,0,0,0-6.689-.378c-.464.137-1.319.347-4.921-11.383a.434.434,0,0,1,.069-.4.445.445,0,0,1,.357-.179h.006l6.312.092,7.893,2.091a.456.456,0,0,1,.275.213.446.446,0,0,1,.039.346l-2.746,9.308a.44.44,0,0,1-.234.276.455.455,0,0,1-.194.045M53.6,158.882a12.926,12.926,0,0,1,3.874.527L59.952,151l-7.342-1.959-5.588-.069c1.435,4.6,3.166,9.41,3.812,10.157a13.835,13.835,0,0,1,2.763-.244" transform="translate(28.317 91.213)" fill="#1d3927"/>
              <path id="Trazado_176978" data-name="Trazado 176978" d="M40.263,22.277c-3.164,2.306-5.435,6.328-4.379,10.082-.3.126-.572.25-.84.375-1.252-4.2,1.215-8.652,4.683-11.191a.439.439,0,0,1,.625.108.453.453,0,0,1-.089.625" transform="translate(21.384 13.219)" fill="#faebd1"/>
              <path id="Trazado_176979" data-name="Trazado 176979" d="M75.616,37.5c-1.572-1.645-3.182-3.541-4.845-5.47-3.825-4.488-7.794-9.118-11.37-10.656-3.45-1.484-8.419-.322-13.335,3.093-3.075,2.164-5.417,4.756-6.311,6.938-.357.071-.716.142-1.055.231.823-2.466,3.344-5.452,6.865-7.9,5.149-3.594,10.459-4.792,14.194-3.182,3.756,1.608,7.8,6.328,11.692,10.9.929,1.091,1.86,2.18,2.807,3.217.465,1,.911,1.949,1.359,2.825" transform="translate(23.84 12.228)" fill="#faebd1"/>
              <path id="Trazado_176980" data-name="Trazado 176980" d="M60.422,26.137a.434.434,0,0,1-.608.142c-6.078-3.754-9.887-2.359-14.266,1.931-.375,0-.769.018-1.144.036a.507.507,0,0,0-.162.018c4.88-5.023,9.171-6.972,16.036-2.752a.445.445,0,0,1,.144.625" transform="translate(27.254 14.294)" fill="#faebd1"/>
              <path id="Trazado_176981" data-name="Trazado 176981" d="M91.58,81.058a.447.447,0,0,1-.121-.016c-.242-.07-6.02-1.768-13.45-9.963-6.912-7.621-9.5-18.261-11.994-28.552L65.373,39.9a.447.447,0,0,1,.868-.215l.643,2.632C69.356,52.5,71.911,63.025,78.67,70.478c7.24,7.983,12.975,9.688,13.033,9.7a.447.447,0,0,1-.123.877" transform="translate(40.263 24.237)" fill="#faebd1"/>
              <path id="Trazado_176982" data-name="Trazado 176982" d="M83.76,58.526a.441.441,0,0,1-.229-.065c-.1-.06-9.993-6.126-14.617-15.019a.447.447,0,0,1,.793-.412C74.212,51.7,83.9,57.639,83.993,57.7a.447.447,0,0,1-.233.829" transform="translate(42.421 26.359)" fill="#faebd1"/>
              <path id="Trazado_176983" data-name="Trazado 176983" d="M94.1,86.373a.448.448,0,0,1-.448-.446l0-1.254c.036-8.014.108-24.688-17.282-42.071A.447.447,0,0,1,77,41.97C94.654,59.617,94.58,76.543,94.544,84.676l0,1.249a.446.446,0,0,1-.446.448" transform="translate(46.964 25.774)" fill="#faebd1"/>
              <path id="Trazado_176984" data-name="Trazado 176984" d="M90.176,90.555a.446.446,0,0,1-.441-.381c-.024-.158-2.448-15.837-11.039-19.119C69.59,67.575,65.036,64.1,60.411,51.562a.446.446,0,1,1,.837-.309c4.717,12.779,9.247,15.711,17.768,18.966,9.077,3.468,11.5,19.158,11.6,19.824a.447.447,0,0,1-.377.507.442.442,0,0,1-.066,0" transform="translate(37.197 31.392)" fill="#faebd1"/>
              <path id="Trazado_176985" data-name="Trazado 176985" d="M45.6,40.436c-2.316-1.676,2.376-4.134,5.17-4.134s6.146,2.067,6.146,2.067a22.662,22.662,0,0,0-5.364.391c-2.569.559-5.952,1.676-5.952,1.676" transform="translate(27.705 22.363)" fill="#f8b348"/>
              <path id="Trazado_176986" data-name="Trazado 176986" d="M40.984,40.936c1.671-1.409-2.161-2.235-4.73-1.117A11.491,11.491,0,0,0,31.9,43.85s7.9-1.909,9.087-2.914" transform="translate(19.649 24.209)" fill="#f8b348"/>
              <path id="Trazado_176987" data-name="Trazado 176987" d="M48.395,42.594c.449,1.715.186,3.269-.59,3.473s-1.768-1.023-2.216-2.738-.186-3.269.59-3.473,1.766,1.023,2.216,2.738" transform="translate(27.949 24.539)" fill="#1d3927"/>
              <path id="Trazado_176988" data-name="Trazado 176988" d="M35.9,45.753c.556,1.732.464,3.31-.205,3.525s-1.661-1.015-2.217-2.747-.464-3.31.205-3.525,1.661,1.015,2.217,2.747" transform="translate(20.398 26.477)" fill="#1d3927"/>
              <path id="Trazado_176989" data-name="Trazado 176989" d="M55.112,44.865c-6.8-.934-6.225,16.247.422,14.64s4.171-14.008-.422-14.64" transform="translate(30.97 27.615)" fill="#ff9d7b"/>
              <path id="Trazado_176990" data-name="Trazado 176990" d="M40.352,62.962A32.017,32.017,0,0,1,32.505,52.2c4.505-2.269,9.135,5.435,7.847,10.763" transform="translate(20.024 31.905)" fill="#ff9d7b"/>
              <path id="Trazado_176991" data-name="Trazado 176991" d="M37.806,121.266c-.493-.071-1-.128-1.54-.16-7.6-.448-10.28.671-11.844,2.569s5.141,2.569,5.141,2.569-4.47-.223-6.928,1.789,6.033,3.121,6.033,3.121-6.033-.217-7.6,1.8,5.141,3.352,5.141,3.352-4.72-.671-5.377,1.117,13.078,7.151,13.078,7.151,3.471-6.7,6.6-10.28a30.633,30.633,0,0,1,6.482-5.587v-2.458s-2.708-4.046-9.187-4.979" transform="translate(12.821 74.543)" fill="#f9b88c"/>
              <path id="Trazado_176992" data-name="Trazado 176992" d="M117.625,147.136a37.748,37.748,0,0,1-7.71,5.417c-11.852,6.417-28.389,4.326-28.389,4.326l-8.027-.7s-2.4,12.215,6.789,17.361a16,16,0,0,0,4.814,2.3c10.726,3.129,27.485,2.012,33.743-3.352s7.616-20.772-1.22-25.359" transform="translate(45.103 90.639)" fill="#f8b348"/>
              <path id="Trazado_176993" data-name="Trazado 176993" d="M115.5,164.9q-2.063,0-4.26-.094a184.388,184.388,0,0,1-39.164-5.554C63.6,156.98,50.6,152.172,43.509,148.063c-7.419-4.3-14.672-11.92-14.745-12a.447.447,0,0,1,.65-.614c.071.074,7.238,7.6,14.544,11.837,7.022,4.074,19.93,8.843,28.355,11.1a183.458,183.458,0,0,0,38.97,5.525c17.589.756,28.368-2.985,36.021-12.484a.447.447,0,0,1,.7.559c-7.211,8.948-17.068,12.912-32.5,12.912" transform="translate(17.644 83.355)" fill="#89453c"/>
              <path id="Trazado_176994" data-name="Trazado 176994" d="M108.584,57.653a68.768,68.768,0,0,1-8.1-.406c-.827-.112-1.149-.186-1.241-.522a.446.446,0,0,1,.315-.548.438.438,0,0,1,.378.068c1.637.488,30.68,2.712,37.139-8.171a.446.446,0,1,1,.768.456c-4.52,7.615-19.471,9.122-29.26,9.122" transform="translate(61.126 29.48)" fill="#1d3927"/>
              <path id="Trazado_176995" data-name="Trazado 176995" d="M64.187,464.037a.447.447,0,0,1-.443-.394L25.061,133.852a.449.449,0,0,1,.391-.5.453.453,0,0,1,.5.393L64.629,463.538a.445.445,0,0,1-.391.5.5.5,0,0,1-.052,0" transform="translate(15.436 82.147)" fill="#1d3927"/>
              <path id="Trazado_176996" data-name="Trazado 176996" d="M2.383,461.893l-.045,0a.448.448,0,0,1-.4-.491L35.368,133.009a.429.429,0,0,1,.491-.4.446.446,0,0,1,.4.49L2.829,461.491a.449.449,0,0,1-.446.4" transform="translate(1.193 81.688)" fill="#1d3927"/>
            </g>
          </g>
        </g>
      </g>
    </g>
    <rect id="Rectángulo_44601" data-name="Rectángulo 44601" width="158" height="44" rx="22" transform="translate(1155 1952)" fill="#3c3fa7"/>
    <path id="Trazado_177685" data-name="Trazado 177685" d="M45.833,8.634q0-.19.007-.637t.029-1.033q.022-.586.059-1.238t.1-1.245q.059-.593.132-1.055a3.065,3.065,0,0,1,.161-.667,1.563,1.563,0,0,1,.623-.674,1.544,1.544,0,0,1,.784-.249.96.96,0,0,1,.557.183,2.223,2.223,0,0,1,.52.542,6.614,6.614,0,0,1,.527.908q.271.549.593,1.3.1.234.337.952t.571,1.736q.337,1.018.732,2.249t.806,2.476q.41,1.245.813,2.417t.747,2.08q.344.908.608,1.458t.4.549q.073,0,.1-.549t.044-1.458q.015-.908.015-2.073t-.015-2.4q-.015-1.238-.029-2.439t-.022-2.183q-.007-.981-.015-1.648t.007-.813q.015-.22.051-.549a7.029,7.029,0,0,1,.117-.7,6.489,6.489,0,0,1,.212-.754,2.7,2.7,0,0,1,.344-.681,1.745,1.745,0,0,1,.527-.491,1.4,1.4,0,0,1,.74-.19,1.345,1.345,0,0,1,.776.22,1.559,1.559,0,0,1,.513.593,2.823,2.823,0,0,1,.264.886,5.743,5.743,0,0,1,.044,1.1q-.059.908-.088,2.08t-.044,2.49q-.015,1.318-.029,2.747T58.4,14.706q-.029,1.414-.066,2.776t-.11,2.549q-.073,1.187-.176,2.153a13.568,13.568,0,0,1-.249,1.6.933.933,0,0,1-.242.439,1.838,1.838,0,0,1-.432.33,2.251,2.251,0,0,1-.527.212,2.126,2.126,0,0,1-.542.073,2,2,0,0,1-1.392-.63,7.646,7.646,0,0,1-1.252-1.626A17.749,17.749,0,0,1,52.3,20.338q-.52-1.245-.959-2.483t-.8-2.336q-.359-1.1-.623-1.8l-.073-.212a2.906,2.906,0,0,0-.146-.344,1.809,1.809,0,0,0-.205-.322.326.326,0,0,0-.249-.146q-.1,0-.176.505t-.11,1.333q-.037.828-.051,1.9t-.015,2.219q0,1.143.007,2.271t.007,2.065q0,.234-.022.469a1.189,1.189,0,0,1-.117.425.767.767,0,0,1-.278.308.933.933,0,0,1-.505.117,3.337,3.337,0,0,1-1.238-.212,1.756,1.756,0,0,1-.872-.8,2.967,2.967,0,0,1-.1-.74q-.044-.623-.059-1.582t-.007-2.161q.007-1.2.015-2.468t.029-2.52q.022-1.252.037-2.3t.029-1.816Q45.833,8.941,45.833,8.634ZM60.378,19.811q0-.513-.022-1.362t-.015-1.816q.007-.967.073-1.956a14.651,14.651,0,0,1,.22-1.787,4.327,4.327,0,0,1,.439-1.3.843.843,0,0,1,.74-.505,1.867,1.867,0,0,1,.872.168,1.076,1.076,0,0,1,.447.769,6.652,6.652,0,0,1,.1.74q.037.447.037,1.077,0,.337.015,1.143t.022,1.831q.007,1.025.015,2.146t-.007,2.117q-.015,1-.059,1.729a5,5,0,0,1-.117.967.472.472,0,0,1-.234.271,1.734,1.734,0,0,1-.359.146,1.924,1.924,0,0,1-.352.066q-.168.015-.227.015a.88.88,0,0,1-.688-.344,2.8,2.8,0,0,1-.491-.952,7.766,7.766,0,0,1-.3-1.421A13.892,13.892,0,0,1,60.378,19.811Zm.293-14.546a2.816,2.816,0,0,1,.11-.8,1.908,1.908,0,0,1,.33-.652,1.48,1.48,0,0,1,.557-.432,1.851,1.851,0,0,1,.776-.154,2.154,2.154,0,0,1,.608.088,1.4,1.4,0,0,1,.535.293,1.529,1.529,0,0,1,.381.527,1.948,1.948,0,0,1,.146.806,2.24,2.24,0,0,1-.161.879,1.74,1.74,0,0,1-.439.63,1.86,1.86,0,0,1-.637.374,2.241,2.241,0,0,1-.74.125,1.5,1.5,0,0,1-.74-.161,1.28,1.28,0,0,1-.447-.4,1.476,1.476,0,0,1-.22-.542A3.021,3.021,0,0,1,60.671,5.265Zm4.014,12.949a10.833,10.833,0,0,1,.381-2.9A8.4,8.4,0,0,1,66.135,12.9a5.553,5.553,0,0,1,1.677-1.663A4.027,4.027,0,0,1,70,10.611a2.574,2.574,0,0,1,1.362.374,3.99,3.99,0,0,1,1.055.923A4.446,4.446,0,0,1,73.1,13.08a3.167,3.167,0,0,1,.242,1.135,4.012,4.012,0,0,1-.066.652,8.416,8.416,0,0,1-.469,1.663,6.179,6.179,0,0,1-.359.762,2.4,2.4,0,0,1-.41.549.654.654,0,0,1-.454.212.857.857,0,0,1-.388-.11,1.553,1.553,0,0,1-.4-.308,1.908,1.908,0,0,1-.322-.454,1.184,1.184,0,0,1-.132-.549,2.1,2.1,0,0,1,.073-.549q.073-.271.154-.564t.154-.6a2.84,2.84,0,0,0,.073-.659,2.978,2.978,0,0,0-.022-.337,1.35,1.35,0,0,0-.1-.366.7.7,0,0,0-.227-.293.647.647,0,0,0-.4-.117,1.251,1.251,0,0,0-.9.454,4.1,4.1,0,0,0-.762,1.223,8.832,8.832,0,0,0-.527,1.78,10.965,10.965,0,0,0-.2,2.109,7.182,7.182,0,0,0,.168,1.692,3.2,3.2,0,0,0,.454,1.084,1.633,1.633,0,0,0,.667.571,1.97,1.97,0,0,0,.806.168,3.178,3.178,0,0,0,1.282-.286,8.018,8.018,0,0,0,1.3-.725q.645-.439,1.238-.937t1.091-.937q.5-.439.872-.725a1.123,1.123,0,0,1,.564-.286q.527,0,.667.337a2.381,2.381,0,0,1,.139.894,1.938,1.938,0,0,1-.308.93,6.1,6.1,0,0,1-.842,1.106A10.648,10.648,0,0,1,74.5,22.726a11.409,11.409,0,0,1-1.538,1,9.159,9.159,0,0,1-1.707.718,5.964,5.964,0,0,1-1.75.271,4.141,4.141,0,0,1-2.051-.5,4.507,4.507,0,0,1-1.509-1.377,6.572,6.572,0,0,1-.937-2.065A9.751,9.751,0,0,1,64.685,18.214ZM79.89,10.963a3.6,3.6,0,0,1,2.014.579,5.219,5.219,0,0,1,1.509,1.523,7.485,7.485,0,0,1,.952,2.131,8.99,8.99,0,0,1,.33,2.417,7.437,7.437,0,0,1-.469,2.7,6.739,6.739,0,0,1-1.238,2.08,5.531,5.531,0,0,1-1.772,1.34,4.752,4.752,0,0,1-2.058.476,3.39,3.39,0,0,1-1.89-.505,3.972,3.972,0,0,1-1.252-1.3,5.786,5.786,0,0,1-.688-1.765,8.957,8.957,0,0,1-.212-1.912,10.024,10.024,0,0,1,.168-1.8,11.223,11.223,0,0,1,.476-1.78,10.381,10.381,0,0,1,.74-1.619,6.978,6.978,0,0,1,.967-1.333,4.473,4.473,0,0,1,1.15-.9A2.665,2.665,0,0,1,79.89,10.963Zm.249,2.783a1,1,0,0,0-.725.461,4.895,4.895,0,0,0-.681,1.2,9.5,9.5,0,0,0-.505,1.67,8.958,8.958,0,0,0-.2,1.868q0,.146.015.571a4.378,4.378,0,0,0,.125.879,2.249,2.249,0,0,0,.366.806.845.845,0,0,0,.725.352,1.432,1.432,0,0,0,.923-.381A3.824,3.824,0,0,0,81,20.191a5.751,5.751,0,0,0,.579-1.362,5.474,5.474,0,0,0,.22-1.523q0-.249-.015-.615a7.153,7.153,0,0,0-.073-.762,6.225,6.225,0,0,0-.168-.784,3.039,3.039,0,0,0-.293-.7,1.571,1.571,0,0,0-.454-.505A1.1,1.1,0,0,0,80.139,13.746Zm5.552-4q.029-.557.059-1.516t.1-2.065q.066-1.106.168-2.249t.271-2.058A7.274,7.274,0,0,1,86.7.357q.249-.586.6-.586a1.738,1.738,0,0,1,.454.073,1.984,1.984,0,0,1,.513.227,1.585,1.585,0,0,1,.439.41,1.262,1.262,0,0,1,.234.608,10.107,10.107,0,0,1,.015,1.069q-.015.835-.066,2.073t-.11,2.8q-.059,1.56-.11,3.245t-.081,3.4q-.029,1.714,0,3.281t.11,2.893a17.175,17.175,0,0,0,.256,2.219q.117.571.249,1.033a6.165,6.165,0,0,1,.183.828,1.313,1.313,0,0,1-.044.63.888.888,0,0,1-.447.454,1.3,1.3,0,0,1-.586.146,1.251,1.251,0,0,1-.725-.227A2.9,2.9,0,0,1,87,24.4a4.056,4.056,0,0,1-.425-.608q-.168-.3-.227-.432a5.7,5.7,0,0,1-.33-1.187q-.139-.747-.227-1.692t-.132-2.029q-.044-1.084-.059-2.175T85.6,14.142q.007-1.04.022-1.919t.037-1.531Q85.676,10.04,85.691,9.747Zm13.345,5.171a4.742,4.742,0,0,1-.234,1.509,5.431,5.431,0,0,1-.623,1.289,5.54,5.54,0,0,1-.886,1.04,7.407,7.407,0,0,1-1,.776,5.419,5.419,0,0,1-.989.505,2.763,2.763,0,0,1-.85.2.7.7,0,0,0-.513.168.516.516,0,0,0-.132.344.9.9,0,0,0,.088.381,2.842,2.842,0,0,0,.161.308,1.721,1.721,0,0,0,.608.557,2.586,2.586,0,0,0,1.223.22,6.969,6.969,0,0,0,.989-.088,5.582,5.582,0,0,0,1.289-.374A7.078,7.078,0,0,0,101.1,19.43a.583.583,0,0,1,.22-.176.613.613,0,0,1,.835.256,2.619,2.619,0,0,1-.044,2.329,3.758,3.758,0,0,1-.8.967,6.45,6.45,0,0,1-1.172.813,8.87,8.87,0,0,1-1.421.623,10.334,10.334,0,0,1-1.553.4,9.077,9.077,0,0,1-1.56.139,6.147,6.147,0,0,1-2.322-.417,4.646,4.646,0,0,1-1.743-1.208,5.412,5.412,0,0,1-1.091-1.934,8.181,8.181,0,0,1-.381-2.593,11.437,11.437,0,0,1,.146-1.809,11.106,11.106,0,0,1,.439-1.787,8.991,8.991,0,0,1,.732-1.633,6,6,0,0,1,1.033-1.333,4.589,4.589,0,0,1,1.34-.9,4.02,4.02,0,0,1,1.641-.33,3.471,3.471,0,0,1,1.736.4,3.338,3.338,0,0,1,1.113,1,4.031,4.031,0,0,1,.6,1.326A5.6,5.6,0,0,1,99.036,14.918Zm-5.771,2.476q0,.059.007.161a.486.486,0,0,0,.059.2.44.44,0,0,0,.154.161.542.542,0,0,0,.293.066,1.623,1.623,0,0,0,.945-.374,4.589,4.589,0,0,0,.923-.923,5.849,5.849,0,0,0,.7-1.179,2.838,2.838,0,0,0,.278-1.128,1.929,1.929,0,0,0-.044-.388,1.768,1.768,0,0,0-.139-.41.918.918,0,0,0-.264-.33.68.68,0,0,0-.432-.132,1.241,1.241,0,0,0-.806.417,4.61,4.61,0,0,0-.806,1.055,7.505,7.505,0,0,0-.615,1.392A4.522,4.522,0,0,0,93.264,17.394Z" transform="translate(1162 1958)" fill="#ffd947"/>
  </g>
</svg>
