<svg xmlns="http://www.w3.org/2000/svg" xmlns:xlink="http://www.w3.org/1999/xlink" width="523" height="251" viewBox="0 0 523 251">
  <defs>
    <clipPath id="clip-path">
      <rect id="Rectángulo_44625" data-name="Rectángulo 44625" width="4.945" height="4.946" fill="none"/>
    </clipPath>
    <clipPath id="clip-path-2">
      <rect id="Rectángulo_44626" data-name="Rectángulo 44626" width="7.203" height="2.956" fill="none"/>
    </clipPath>
  </defs>
  <g id="Grupo_173504" data-name="Grupo 173504" transform="translate(-228 -2719)">
    <path id="Trazado_177245" data-name="Trazado 177245" d="M16,0H507a16,16,0,0,1,16,16V235a16,16,0,0,1-16,16H16A16,16,0,0,1,0,235V16A16,16,0,0,1,16,0Z" transform="translate(228 2719)" fill="#c4d1ff"/>
    <g id="Grupo_173503" data-name="Grupo 173503" transform="translate(236 2726)">
      <g id="Grupo_173492" data-name="Grupo 173492" transform="translate(11.917 5.544)" opacity="0.69">
        <path id="Sustracción_5" data-name="Sustracción 5" d="M470.436,225.152H10.788a113.4,113.4,0,0,1-7.194-20.538A87.5,87.5,0,0,1,1.285,189.99a122.827,122.827,0,0,1,.5-38.563,134.09,134.09,0,0,1,13.144-38.7c1.28-2.481,2.653-4.968,4.08-7.392A164.248,164.248,0,0,1,43.593,73.309,192.888,192.888,0,0,1,62.522,56.4,221.861,221.861,0,0,1,86.712,39.97a260.084,260.084,0,0,1,32.047-16.1A293.783,293.783,0,0,1,153.907,11.7c2-.579,4.03-1.149,6.038-1.693l5.506-1.273c1.047-.248,2.085-.488,3.172-.733l2.189-.508a.1.1,0,0,1,.011.014l0,0A330,330,0,0,1,241.093,0a333.621,333.621,0,0,1,41.722,2.621,323.151,323.151,0,0,1,41.579,8.049,288.861,288.861,0,0,1,50.2,18.184c2.935,1.145,29.431,11.854,55.5,34.856a162.768,162.768,0,0,1,35.795,44.174,137.577,137.577,0,0,1,15.4,46.486,146.691,146.691,0,0,1,1.431,18.207l-1.115,11.1c-.057.613-.114,1.18-.174,1.733l-.085.854-.01,0a130.392,130.392,0,0,1-10.9,38.887Z" fill="#f0f4ff" stroke="rgba(0,0,0,0)" stroke-miterlimit="10" stroke-width="1"/>
      </g>
      <path id="Trazado_177048" data-name="Trazado 177048" d="M479.53,453.051l-.015,0c-.079.191-.154.383-.232.575a.749.749,0,0,1-.4,1c-.368.942-.72,1.889-1.051,2.845q6.014-.115,12.024.085a46.99,46.99,0,0,0,1.3-6.139,56.641,56.641,0,0,0-11.627,1.626" transform="translate(-225.091 -230.759)" fill="#97d19d"/>
      <path id="Trazado_177049" data-name="Trazado 177049" d="M489.455,428.257a77.536,77.536,0,0,0-7.514,13.312,58.368,58.368,0,0,1,11.147-1.447,17.65,17.65,0,0,0-.471-7.457,8.847,8.847,0,0,0-3.163-4.408" transform="translate(-226.854 -220.812)" fill="#97d19d"/>
      <path id="Trazado_177050" data-name="Trazado 177050" d="M466.706,449.585a76.547,76.547,0,0,1-5.6-8.022,37.548,37.548,0,0,0-3.98,8.135c-1.888,5.331-4.1,11.515-5.012,17.1h9.975a78.233,78.233,0,0,1,4.614-17.211" transform="translate(-214.049 -226.524)" fill="#97d19d"/>
      <path id="Trazado_177051" data-name="Trazado 177051" d="M469.473,434a74.409,74.409,0,0,0,5.184,7.549,78.3,78.3,0,0,1,8.186-14.842,6.029,6.029,0,0,0-1.083-.36c-2.873-.65-5.808.851-8.076,2.731a25.958,25.958,0,0,0-4.394,4.719.686.686,0,0,1,.183.2" transform="translate(-221.422 -219.926)" fill="#97d19d"/>
      <path id="Trazado_177052" data-name="Trazado 177052" d="M474.868,464.372a77.711,77.711,0,0,0-2.9,12.2h9.8a65.961,65.961,0,0,0,5.182-12.128q-6.039-.19-12.079-.067" transform="translate(-222.572 -236.296)" fill="#97d19d"/>
      <path id="Trazado_177053" data-name="Trazado 177053" d="M424.65,427.981a.669.669,0,0,1-.128.183q3.818,5.332,7.557,10.72a.661.661,0,0,1,.386-.129q5.667-.156,11.3-.756-1.473-2.7-2.975-5.39a2.7,2.7,0,0,0-1.06-1.22,2.474,2.474,0,0,0-1.82.079c-1.964.653-3.852,1.775-5.921,1.724s-4.257-2.094-3.417-3.987a4.523,4.523,0,0,1,1.852-1.778l4.6-2.959c.7-.451,1.48-1.029,1.519-1.863a2.655,2.655,0,0,0-.639-1.558c-1.4-2.018-2.8-4.038-4.236-6.03a133.757,133.757,0,0,0-7.017,12.963" transform="translate(-202.201 -215.128)" fill="#5ea466"/>
      <path id="Trazado_177054" data-name="Trazado 177054" d="M424.785,427.19c-.009,0-.016,0-.025.005q-5.748.633-11.525.806,4.072,5.9,8.05,11.867c.483.726-.687,1.4-1.165.681q-18.356-27.6-38.85-53.686a11.682,11.682,0,0,0-1.587,3.905c-1.783,7.274-.936,14.974,1.011,22.206a75.413,75.413,0,0,0,16.9,30.933l35.923.134q-4.211-8.506-8.734-16.851" transform="translate(-182.531 -203.04)" fill="#5ea466"/>
      <path id="Trazado_177055" data-name="Trazado 177055" d="M406.58,412.6a133.746,133.746,0,0,1,7.157-13.106,102.584,102.584,0,0,0-6.7-8.319c-3.757-4.14-8.229-7.988-13.675-9.249-2.962-.685-6.418-.409-8.607,1.635q11.226,14.282,21.823,29.039" transform="translate(-185.129 -200.775)" fill="#5ea466"/>
      <path id="Trazado_177056" data-name="Trazado 177056" d="M829.828,455.184a50.46,50.46,0,0,1-6.286,7.936c-.009.009-.018.014-.026.022q2.112,4.9,4,9.9h7.531c-.946-5.824-3.231-12.262-5.214-17.859" transform="translate(-373.505 -232.373)" fill="#96d89f"/>
      <path id="Trazado_177057" data-name="Trazado 177057" d="M806.3,445.48a.587.587,0,0,1-.526-.807c.022-.06.044-.121.067-.181a220.325,220.325,0,0,0-10.325-19.654.675.675,0,0,1,1.165-.681q5.358,9.048,9.82,18.563l3.659-9.817c.3-.807,1.6-.456,1.3.359L807.3,444.437q.817,1.776,1.6,3.567a48.9,48.9,0,0,0,6.308-8.216,32.936,32.936,0,0,0-9.305-13.671c-2.415-2-5.539-3.6-8.6-2.907a8.489,8.489,0,0,0-5.777,5.783,19.577,19.577,0,0,0-.445,8.465c.886,7.5,3.815,15.159,7.439,21.787H812.04q-2.636-6.983-5.739-13.765" transform="translate(-359.474 -218.574)" fill="#96d89f"/>
      <path id="Trazado_177058" data-name="Trazado 177058" d="M773.517,451.874l.192-7.031a.637.637,0,0,1,.189-.453,5.908,5.908,0,0,0-4.192-.831,5.393,5.393,0,0,0-3.4,2.749,18.158,18.158,0,0,1,7.21,5.565" transform="translate(-348.943 -227.334)" fill="#5ea466"/>
      <path id="Trazado_177059" data-name="Trazado 177059" d="M781.211,454.5a.725.725,0,0,1-.041.213c.963,1.231,1.849,2.471,2.667,3.6a38.424,38.424,0,0,1,5.662,10.968h2.669a75.491,75.491,0,0,0-3.619-12.347,22.9,22.9,0,0,0-6.631-10.126c-.158-.131-.322-.258-.489-.383q-.109,4.036-.219,8.071" transform="translate(-355.324 -228.613)" fill="#5ea466"/>
      <path id="Trazado_177060" data-name="Trazado 177060" d="M766.245,462.745q5.275.126,10.543-.131c-.265-.4-.533-.8-.81-1.2-2.639-3.766-6.329-9.116-10.955-10.767a13.4,13.4,0,0,0-.281,5.668,34.656,34.656,0,0,0,1.434,6.434.674.674,0,0,1,.07-.005" transform="translate(-348.199 -230.425)" fill="#5ea466"/>
      <path id="Trazado_177061" data-name="Trazado 177061" d="M779.164,473.916q-5.491.293-10.986.174a49.1,49.1,0,0,0,3.157,7h11.186a34.976,34.976,0,0,0-3.357-7.17" transform="translate(-349.746 -240.415)" fill="#5ea466"/>
      <path id="Trazado_177062" data-name="Trazado 177062" d="M890.2,393.676q3.444-9.358,6.192-18.965a13.09,13.09,0,0,0-4.747.238,23.213,23.213,0,0,0-9.154,4.69q3.684,7.112,7.71,14.038" transform="translate(-398.826 -197.986)" fill="#5ea466"/>
      <path id="Trazado_177063" data-name="Trazado 177063" d="M889.814,406.573a84.126,84.126,0,0,1,10.921.11,38.54,38.54,0,0,1,4.366.643c.138-.477.28-.953.408-1.432,2.074-7.7,2.975-15.9,1.077-23.64a11.07,11.07,0,0,0-2.208-4.827,7.339,7.339,0,0,0-3.517-2.129,268.872,268.872,0,0,1-11.048,31.275" transform="translate(-401.969 -198.074)" fill="#5ea466"/>
      <path id="Trazado_177064" data-name="Trazado 177064" d="M841.806,445.547a267.493,267.493,0,0,0,17.962-36.236l0,0q-4.79-8.564-10.019-16.869l-.015.017a158.964,158.964,0,0,0-12.554,16.524,2.831,2.831,0,0,0-.68,1.659c.042.887.87,1.5,1.618,1.983l4.9,3.15a4.819,4.819,0,0,1,1.972,1.893c.893,2.014-1.435,4.189-3.638,4.243s-4.213-1.14-6.3-1.835a2.632,2.632,0,0,0-1.937-.084,2.883,2.883,0,0,0-1.129,1.3q-6.919,12.348-13.2,25.038l23.051-.086a.605.605,0,0,1-.021-.692" transform="translate(-371.47 -205.434)" fill="#5ea466"/>
      <path id="Trazado_177065" data-name="Trazado 177065" d="M888.85,432.528c-1.244-.13-2.493-.2-3.744-.242-2.728-.083-5.457.013-8.183.111a268.681,268.681,0,0,1-15.752,30.925l0,.007,14.051-.053a80.318,80.318,0,0,0,17.236-30.318c-1.417-.227-3.48-.418-3.6-.431" transform="translate(-389.67 -222.528)" fill="#5ea466"/>
      <path id="Trazado_177066" data-name="Trazado 177066" d="M884.428,404.5q.936-2.356,1.825-4.729-4.271-7.295-8.16-14.8a46.709,46.709,0,0,0-3.375,3.236q5.06,8.025,9.71,16.294" transform="translate(-395.488 -202.416)" fill="#5ea466"/>
      <path id="Trazado_177067" data-name="Trazado 177067" d="M899.577,472.951a.674.674,0,0,1-.229-.029c-.759,2.413-1.442,4.852-2.028,7.323a.663.663,0,0,1-.131.272h6.772a48.372,48.372,0,0,0,3.478-7.927l-7.863.362" transform="translate(-405.136 -239.845)" fill="#96d89f"/>
      <path id="Trazado_177068" data-name="Trazado 177068" d="M909.384,444.654q-2.372,4.639-4.254,9.475a44.026,44.026,0,0,1,7.317-.722,12.865,12.865,0,0,0-.331-5.471,6.233,6.233,0,0,0-2.675-3.431.75.75,0,0,1-.057.149" transform="translate(-408.545 -227.788)" fill="#96d89f"/>
      <path id="Trazado_177069" data-name="Trazado 177069" d="M903.494,463.238a.68.68,0,0,1-.359-.023q-.752,2-1.424,4.037l8.1-.373a34.847,34.847,0,0,0,.994-4.4,41.969,41.969,0,0,0-7.306.759" transform="translate(-407.077 -235.505)" fill="#96d89f"/>
      <path id="Trazado_177070" data-name="Trazado 177070" d="M889.637,467.375a106.048,106.048,0,0,1,8.77-23.815h0c-2.075-.469-4.194.615-5.832,1.972a22.9,22.9,0,0,0-6.63,10.126A75.552,75.552,0,0,0,882.325,468h7.488a.639.639,0,0,1-.175-.63" transform="translate(-398.754 -227.334)" fill="#96d89f"/>
      <path id="Trazado_177071" data-name="Trazado 177071" d="M249.308,423.37a104.431,104.431,0,0,0-17.139-30.734c-7.413-9.191-16.969-18.616-27.887-23.495-5.2-2.323-10.739-3.152-16.258-1.506-6.6,1.968-12.761,6.269-19.707,2.866-5.767-2.826-10.7-7.663-16.014-11.247a96.785,96.785,0,0,0-16.907-9.331c-12.911-5.357-27.891-6.662-40.61-.068-.978.507-.114,1.985.864,1.478,11.662-6.046,25.437-5.1,37.426-.506a89.654,89.654,0,0,1,17.1,9.065c5.1,3.36,9.754,7.375,14.87,10.69a16.189,16.189,0,0,0,14.593,1.989c6.326-2.02,11.683-5.166,18.577-3.682,6.382,1.373,12.01,5.3,17.029,9.3A101.117,101.117,0,0,1,227.431,389.7a102.138,102.138,0,0,1,20.226,34.122c.365,1.031,2.02.587,1.651-.455" transform="translate(-60.449 -185.235)" fill="#5ebd75"/>
      <path id="Trazado_177072" data-name="Trazado 177072" d="M206.292,404.33a156.178,156.178,0,0,0-33.422,41.381.766.766,0,0,1-.958.371q.332.724.658,1.451l109.413,1.423a147.184,147.184,0,0,0-10.674-12.921.735.735,0,0,1-.282.43c-7.15,5.666-16.642,3.272-22.881-2.55-5.8-5.408-11.094-14.917-6.269-22.525.589-.929,2.07-.069,1.479.864-4.235,6.677.462,14.96,5.372,19.844,5.5,5.471,14.4,8.457,21.088,3.156a.879.879,0,0,1,.593-.2,230.416,230.416,0,0,0-34.83-30.622c-2.8-1.939-5.828-3.853-9.225-4.049-4.487-.26-8.547,2.5-12.929,3.493a18.278,18.278,0,0,1-6.934.2.838.838,0,0,1-.2.254m20.062-1.185a.857.857,0,0,1,1.651.455,64.973,64.973,0,0,0-2.545,21.382c.339,6.654,1.168,15.6,6,20.667.761.8-.449,2.009-1.21,1.211-4.81-5.042-5.813-13.146-6.363-19.8a66.371,66.371,0,0,1,2.466-23.914" transform="translate(-93.746 -208.839)" fill="#5ebd75"/>
      <path id="Trazado_177073" data-name="Trazado 177073" d="M145.64,409.993a241.867,241.867,0,0,1,14.446,26.551c.01-.02.015-.04.026-.06A157.56,157.56,0,0,1,193.2,395.3c-7.1-1.8-13.783-6.977-19.974-11.409-1.441-1.032-2.911-2.024-4.392-3a115.675,115.675,0,0,0-23.192,29.1" transform="translate(-82.467 -200.477)" fill="#5ebd75"/>
      <path id="Trazado_177074" data-name="Trazado 177074" d="M102.908,443.733a.719.719,0,0,1-.536-.023,147.9,147.9,0,0,0-66.7-10.459.7.7,0,0,1-.729-.39,89.884,89.884,0,0,0,5.217,27.655l71.724.932q-4.126-9.05-8.981-17.716" transform="translate(-34.942 -222.778)" fill="#5ebd75"/>
      <path id="Trazado_177075" data-name="Trazado 177075" d="M113.14,388.568c.342.213.688.417,1.029.631a.846.846,0,0,1,.234,1.229q1.518,2.26,2.982,4.557a117.066,117.066,0,0,1,22.743-28.427A133.989,133.989,0,0,0,117.342,354.9c-9.771-3.864-20.483-6.591-30.747-4.344a32.49,32.49,0,0,0-4.354,1.285,242.663,242.663,0,0,1,30.9,36.727" transform="translate(-55.247 -187.103)" fill="#5ebd75"/>
      <path id="Trazado_177076" data-name="Trazado 177076" d="M35.673,397.967a149.032,149.032,0,0,1,66.038,10.087q-4.736-8.268-10.109-16.139a308.463,308.463,0,0,0-45.507-23.28c-1.007-.413-.563-2.069.455-1.651a311.383,311.383,0,0,1,42.633,21.451A241.03,241.03,0,0,0,60.2,354.644c-11.472,5-20.013,16.263-23.322,28.521a58.385,58.385,0,0,0-1.939,15.319.846.846,0,0,1,.735-.518" transform="translate(-34.938 -189.207)" fill="#5ebd75"/>
      <path id="Trazado_177077" data-name="Trazado 177077" d="M299.122,323.958s-1.045-14.625-10.969-13.058c0,0-3.134,12.014,10.969,13.058" transform="translate(-143.525 -170.768)" fill="#5ea466"/>
      <path id="Trazado_177078" data-name="Trazado 177078" d="M217.6,361.067s7.913-7.047,2.64-12.038c0,0-8.26,3.5-2.64,12.038" transform="translate(-112.521 -187.098)" fill="#5ea466"/>
      <path id="Trazado_177079" data-name="Trazado 177079" d="M347.42,387.306s-5.648-6.151-9.518-1.936c0,0,2.86,6.467,9.518,1.936" transform="translate(-165.012 -202.003)" fill="#fffaed"/>
      <path id="Trazado_177080" data-name="Trazado 177080" d="M883,337.229s-2.7-7.646,6.084-9.9c0,0,3.32,9.695-6.084,9.9" transform="translate(-398.875 -177.841)" fill="#5ea466"/>
      <path id="Trazado_177081" data-name="Trazado 177081" d="M897.781,349.872s3.152-10.836,14.914-6.252c0,0-4.117,13.654-14.914,6.252" transform="translate(-405.39 -184.313)" fill="#5ea466"/>
      <path id="Trazado_177082" data-name="Trazado 177082" d="M343.161,458.91s4.03-13.855,19.069-7.993c0,0-5.264,17.458-19.069,7.993" transform="translate(-167.27 -229.92)" fill="#fffaed"/>
      <path id="Trazado_177083" data-name="Trazado 177083" d="M486.294,484.432c0,1.618-11.615,2.929-25.943,2.929s-25.942-1.311-25.942-2.929,11.615-2.929,25.942-2.929,25.943,1.311,25.943,2.929" transform="translate(-206.446 -243.672)" fill="#292b50"/>
      <path id="Trazado_177084" data-name="Trazado 177084" d="M786.92,484.432c0,1.618-11.615,2.929-25.943,2.929s-25.942-1.311-25.942-2.929,11.615-2.929,25.942-2.929,25.943,1.311,25.943,2.929" transform="translate(-335.517 -243.672)" fill="#292b50"/>
      <path id="Trazado_177085" data-name="Trazado 177085" d="M637.6,352.8c-1.957,5.429-8.224,18.069-8.224,18.069l22.11,10.471c-2.018-2.8-8.385-13.969-8.385-13.969l3.482-10.479s-9.038-4.007-8.982-4.092" transform="translate(-290.154 -188.652)" fill="#ffb09e"/>
      <path id="Trazado_177086" data-name="Trazado 177086" d="M640.408,373.876l8.757,13.829a.773.773,0,0,1-.9,1.156c-5.643-2.017-20.812-7.551-24.8-9.02a.766.766,0,0,1-.333-1.189c1.75-2.288,6.046-8.942,7.494-10.787.229-.293,1.569,7.066,3.46,7.015,1.627-.045,6.186-1.031,6.313-1" transform="translate(-287.407 -195.104)" fill="#e26191"/>
      <path id="Trazado_177087" data-name="Trazado 177087" d="M648.269,384.5a1.885,1.885,0,0,1-.795-3.595l3.418-1.586.22.474-3.418,1.587a1.361,1.361,0,0,0,1.146,2.47l3.838-1.782.22.475-3.837,1.781a1.882,1.882,0,0,1-.792.176" transform="translate(-297.455 -200.051)" fill="#fcf9f5"/>
      <path id="Trazado_177088" data-name="Trazado 177088" d="M640.471,352.663l-4.076,8.679s1.189,5.134,1.7,5.361,6.221-12.188,6.221-12.188Z" transform="translate(-293.167 -188.643)" fill="#d47082"/>
      <path id="Trazado_177089" data-name="Trazado 177089" d="M553.744,234.364c-4.677-11.873,6.657-23.023,9.354-27.7,2.4-.019,7.109,5.508,11.366,5.957,18.876,1.99,42.379,15.893,48.719,20.308,10.074,7.016-5.148,56.393-8.455,66.111-1.007.788-15.022-5.846-14.3-5.487,4.074-21.536,12.762-31.754,2.789-39.923-9.319-7.634-45.169-8.34-49.472-19.262" transform="translate(-257.201 -126.141)" fill="#34753d"/>
      <path id="Trazado_177090" data-name="Trazado 177090" d="M718.887,223.233a1.418,1.418,0,0,1-1.287-.819l-2.831-6.067a4.258,4.258,0,0,0-3.965-2.454l-14.683.377h-.037a1.419,1.419,0,0,1-.035-2.837l14.683-.377.183,0a7.09,7.09,0,0,1,6.426,4.094l2.831,6.067a1.419,1.419,0,0,1-1.285,2.018" transform="translate(-318.185 -128.2)" fill="#f7b767"/>
      <path id="Trazado_177091" data-name="Trazado 177091" d="M696.084,214.271a1.419,1.419,0,0,1-.035-2.837l14.683-.377h.036a1.419,1.419,0,0,1,.036,2.837l-14.683.377h-.037" transform="translate(-318.185 -128.215)" fill="#222343"/>
      <rect id="Rectángulo_44607" data-name="Rectángulo 44607" width="42.135" height="1.226" transform="matrix(0.257, -0.966, 0.966, 0.257, 446.164, 194.885)" fill="#292b50"/>
      <rect id="Rectángulo_44608" data-name="Rectángulo 44608" width="42.136" height="1.227" transform="translate(446.641 194.431) rotate(-30.109)" fill="#292b50"/>
      <rect id="Rectángulo_44609" data-name="Rectángulo 44609" width="1.226" height="42.136" transform="matrix(0.257, -0.966, 0.966, 0.257, 444.864, 196.112)" fill="#292b50"/>
      <rect id="Rectángulo_44610" data-name="Rectángulo 44610" width="1.226" height="42.135" transform="matrix(0.865, -0.502, 0.502, 0.865, 444.598, 196.171)" fill="#292b50"/>
      <rect id="Rectángulo_44611" data-name="Rectángulo 44611" width="1.226" height="42.136" transform="translate(423.905 159.697) rotate(-30.101)" fill="#292b50"/>
      <rect id="Rectángulo_44612" data-name="Rectángulo 44612" width="1.226" height="42.136" transform="translate(404.484 185.573) rotate(-75.101)" fill="#292b50"/>
      <rect id="Rectángulo_44613" data-name="Rectángulo 44613" width="42.135" height="1.227" transform="translate(410.591 216.602) rotate(-30.109)" fill="#292b50"/>
      <rect id="Rectángulo_44614" data-name="Rectángulo 44614" width="42.136" height="1.226" transform="matrix(0.257, -0.966, 0.966, 0.257, 435.863, 236.765)" fill="#292b50"/>
      <path id="Trazado_177092" data-name="Trazado 177092" d="M782.73,417.8a45.928,45.928,0,1,1,45.927-45.929A45.98,45.98,0,0,1,782.73,417.8m0-87.175a41.247,41.247,0,1,0,41.246,41.246,41.294,41.294,0,0,0-41.246-41.246" transform="translate(-336.275 -176.887)" fill="#292b50"/>
      <path id="Trazado_177093" data-name="Trazado 177093" d="M819.713,399.049a9.811,9.811,0,1,0-9.811,9.811,9.811,9.811,0,0,0,9.811-9.811" transform="translate(-363.448 -204.235)" fill="#292b50"/>
      <path id="Trazado_177094" data-name="Trazado 177094" d="M818.837,401.709a6.275,6.275,0,1,0-6.275,6.274,6.275,6.275,0,0,0,6.275-6.274" transform="translate(-366.108 -206.905)" fill="#f7b767"/>
      <path id="Trazado_177095" data-name="Trazado 177095" d="M818.371,403.128a4.388,4.388,0,1,0-4.388,4.388,4.388,4.388,0,0,0,4.388-4.388" transform="translate(-367.528 -208.329)" fill="#292b50"/>
      <path id="Trazado_177096" data-name="Trazado 177096" d="M780.427,418.561a48.988,48.988,0,1,1,48.988-48.988,49.043,49.043,0,0,1-48.988,48.988m0-94.2a45.211,45.211,0,1,0,45.211,45.211,45.262,45.262,0,0,0-45.211-45.211" transform="translate(-333.973 -174.584)" fill="#fff"/>
      <path id="Trazado_177097" data-name="Trazado 177097" d="M722.326,366.879a2.136,2.136,0,0,1-2.136-2.136A55.47,55.47,0,0,1,775.6,309.336a2.136,2.136,0,0,1,0,4.272,51.193,51.193,0,0,0-51.136,51.135,2.136,2.136,0,0,1-2.136,2.136" transform="translate(-329.143 -170.007)" fill="#f7b767"/>
      <rect id="Rectángulo_44615" data-name="Rectángulo 44615" width="42.136" height="1.226" transform="matrix(0.257, -0.966, 0.966, 0.257, 278.563, 194.885)" fill="#292b50"/>
      <rect id="Rectángulo_44616" data-name="Rectángulo 44616" width="42.136" height="1.227" transform="translate(279.04 194.431) rotate(-30.109)" fill="#292b50"/>
      <rect id="Rectángulo_44617" data-name="Rectángulo 44617" width="1.226" height="42.136" transform="matrix(0.257, -0.966, 0.966, 0.257, 277.262, 196.112)" fill="#292b50"/>
      <rect id="Rectángulo_44618" data-name="Rectángulo 44618" width="1.226" height="42.135" transform="matrix(0.865, -0.502, 0.502, 0.865, 276.997, 196.171)" fill="#292b50"/>
      <rect id="Rectángulo_44619" data-name="Rectángulo 44619" width="1.226" height="42.136" transform="translate(256.304 159.697) rotate(-30.101)" fill="#292b50"/>
      <rect id="Rectángulo_44620" data-name="Rectángulo 44620" width="1.226" height="42.136" transform="translate(236.883 185.573) rotate(-75.101)" fill="#292b50"/>
      <rect id="Rectángulo_44621" data-name="Rectángulo 44621" width="42.135" height="1.227" transform="translate(242.99 216.602) rotate(-30.109)" fill="#292b50"/>
      <rect id="Rectángulo_44622" data-name="Rectángulo 44622" width="42.136" height="1.226" transform="translate(268.262 236.765) rotate(-75.084)" fill="#292b50"/>
      <path id="Trazado_177098" data-name="Trazado 177098" d="M489.034,417.8a45.928,45.928,0,1,1,45.927-45.929A45.981,45.981,0,0,1,489.034,417.8m0-87.175a41.247,41.247,0,1,0,41.246,41.246,41.294,41.294,0,0,0-41.246-41.246" transform="translate(-210.18 -176.887)" fill="#292b50"/>
      <path id="Trazado_177099" data-name="Trazado 177099" d="M526.017,399.049a9.811,9.811,0,1,0-9.811,9.811,9.811,9.811,0,0,0,9.811-9.811" transform="translate(-237.353 -204.235)" fill="#292b50"/>
      <path id="Trazado_177100" data-name="Trazado 177100" d="M525.141,401.709a6.274,6.274,0,1,0-6.274,6.274,6.274,6.274,0,0,0,6.274-6.274" transform="translate(-240.013 -206.905)" fill="#f7b767"/>
      <path id="Trazado_177101" data-name="Trazado 177101" d="M524.61,403.321a4.132,4.132,0,1,0-4.132,4.132,4.132,4.132,0,0,0,4.132-4.132" transform="translate(-241.625 -208.523)" fill="#292b50"/>
      <path id="Trazado_177102" data-name="Trazado 177102" d="M486.731,418.561a48.988,48.988,0,1,1,48.988-48.988,49.043,49.043,0,0,1-48.988,48.988m0-94.2a45.211,45.211,0,1,0,45.211,45.211,45.262,45.262,0,0,0-45.211-45.211" transform="translate(-207.878 -174.584)" fill="#fff"/>
      <path id="Trazado_177103" data-name="Trazado 177103" d="M575.2,366.921a2.134,2.134,0,0,1-2.134-2.134A51.141,51.141,0,0,0,521.982,313.7a2.134,2.134,0,0,1,0-4.267,55.412,55.412,0,0,1,55.35,55.35,2.134,2.134,0,0,1-2.134,2.134" transform="translate(-243.129 -170.05)" fill="#f7b767"/>
      <rect id="Rectángulo_44623" data-name="Rectángulo 44623" width="3.777" height="7.359" transform="translate(378.376 157.364) rotate(-41.596)" fill="#fff"/>
      <path id="Trazado_177104" data-name="Trazado 177104" d="M642.64,321.918l-.621-3.726.31,1.863-.314-1.862c.1-.017,9.933-1.787,21.751-11.252,10.938-8.763,25.865-26.1,34.851-58.951l3.644,1c-5.133,18.759-15.605,44.582-36.354,61.078-12.548,9.976-22.836,11.781-23.268,11.854" transform="translate(-295.579 -143.803)" fill="#fff"/>
      <path id="Trazado_177105" data-name="Trazado 177105" d="M733.363,228.6,779.307,330.2a2.136,2.136,0,0,0,3.893-1.76L737.255,226.836Z" transform="translate(-334.799 -134.673)" fill="#f7b767"/>
      <path id="Trazado_177106" data-name="Trazado 177106" d="M629.02,353.551a2.136,2.136,0,0,1-1.938-1.237L591.74,276.262a2.136,2.136,0,0,1,3.874-1.8l35.342,76.053a2.138,2.138,0,0,1-1.936,3.036" transform="translate(-273.909 -154.526)" fill="#f7b767"/>
      <path id="Trazado_177107" data-name="Trazado 177107" d="M594.43,360.171H521.98a2.136,2.136,0,0,1-1.409-3.742l52.6-46.148a2.136,2.136,0,0,1,2.817,3.211L527.653,355.9H593.59l66.263-61.616a2.136,2.136,0,1,1,2.909,3.128L595.885,359.6a2.137,2.137,0,0,1-1.455.572" transform="translate(-243.127 -163.311)" fill="#f7b767"/>
      <path id="Trazado_177108" data-name="Trazado 177108" d="M656.7,401.377a5.607,5.607,0,1,0-5.607,5.607,5.607,5.607,0,0,0,5.607-5.607" transform="translate(-297.069 -207.053)" fill="#292b50"/>
      <path id="Trazado_177109" data-name="Trazado 177109" d="M645.73,408.748a12.734,12.734,0,1,1,12.733-12.733,12.747,12.747,0,0,1-12.733,12.733m0-23.628a10.895,10.895,0,1,0,10.895,10.9,10.907,10.907,0,0,0-10.895-10.9" transform="translate(-291.707 -201.671)" fill="#292b50"/>
      <path id="Trazado_177110" data-name="Trazado 177110" d="M582.16,271.465H568.712a4.3,4.3,0,0,1-4.292-4.292V264.6a.613.613,0,0,1,1.226,0v2.574a3.07,3.07,0,0,0,3.066,3.066H582.16a.613.613,0,1,1,0,1.226" transform="translate(-262.265 -150.806)" fill="#f7b767"/>
      <path id="Trazado_177111" data-name="Trazado 177111" d="M577.453,267.228h-25.63a7.884,7.884,0,0,1-7.884-7.884h33.514a3.942,3.942,0,1,1,0,7.884" transform="translate(-253.472 -148.823)" fill="#fff"/>
      <path id="Trazado_177112" data-name="Trazado 177112" d="M669.957,431.642a.612.612,0,0,1-.53-.3L654.32,405.444a.613.613,0,1,1,1.059-.617l15.108,25.893a.613.613,0,0,1-.529.922" transform="translate(-300.826 -210.621)" fill="#fff"/>
      <path id="Trazado_177113" data-name="Trazado 177113" d="M685.4,453.595H663a2.02,2.02,0,0,1-2.02-2.021v0a2.02,2.02,0,0,1,2.02-2.02h22.4a2.02,2.02,0,0,1,2.021,2.02v0a2.02,2.02,0,0,1-2.021,2.021" transform="translate(-303.721 -229.954)" fill="#292b50"/>
      <path id="Trazado_177114" data-name="Trazado 177114" d="M539.056,72.038c-3.472-2.695-8.7-1.38-12.155,1.336s-5.844,6.557-9.047,9.566a24.945,24.945,0,0,1-10.8,5.941c-11.018,2.839-22.362-2.066-33.635-3.6-4.723-.644-10.058-.5-13.549,2.744a11.374,11.374,0,0,0-3.334,8.693,18.161,18.161,0,0,0,3.054,8.984c1.6,2.521,3.769,4.846,6.6,5.811,4.289,1.463,9.383-.408,13.348,1.784,2.541,1.4,4.009,4.207,4.752,7.014s.9,5.739,1.609,8.556c2.015,8.058,9.3,14.93,17.6,15.076,0,0,18.8,6.835,17.2.328-4.894-19.922,24.41-34.358,9.714-56.667-5.474-8.31,8.639-15.565,8.639-15.565" transform="translate(-215.945 -68.238)" fill="#003b3a"/>
      <path id="Trazado_177115" data-name="Trazado 177115" d="M538.782,69.893c-10.847-7.421-18.873,9.193-26.218,13.821-12.478,7.863-26.873.953-40.03-.747-4.651-.6-9.94-.528-13.775,2.56-4.194,3.376-5.1,9.229-3.653,14.184,1.335,4.569,4.511,9.618,9.044,11.549,6.016,2.564,13.82-1.486,17.241,5.949,1.421,3.088,1.5,6.544,2.205,9.824a22.3,22.3,0,0,0,2.9,7.258,21.332,21.332,0,0,0,10.37,8.665c2.66,1,5.514,1.152,8.235,2a50.494,50.494,0,0,0,8.96,2.085c2.032.244,5.154.545,6.521-1.4a3.541,3.541,0,0,0,.4-2.787,23.887,23.887,0,0,1-.416-6.262c.82-8.039,6.071-14.937,9.714-21.892,4.116-7.857,6.34-16.29,2.534-24.751-1.054-2.344-3.289-4.637-3.336-7.3-.039-2.231,1.333-4.215,2.788-5.782a24.214,24.214,0,0,1,6.51-4.871c1.39-.723.161-2.824-1.229-2.1-4.105,2.135-8.816,5.733-10.158,10.355-1.11,3.822,1.021,6.375,2.682,9.6a20.573,20.573,0,0,1,2.278,11.682c-1.558,14.372-16.372,24.931-14.073,40.14.183,1.21.888,2.214-.235,2.89-.994.6-3.086.173-4.149.027a51.255,51.255,0,0,1-8.336-2.034c-2.311-.726-4.622-.869-6.924-1.563A18.87,18.87,0,0,1,487.43,130.94c-2.465-5.194-1.543-11.445-4.679-16.372-2.816-4.424-7.247-4.725-12.04-4.739-3.34-.01-6.143-.487-8.625-2.911a18.338,18.338,0,0,1-4.877-8.778c-1.572-7,2.747-12.531,9.777-13,6.738-.447,13.566,1.891,20.092,3.249,6.208,1.292,12.656,2.171,18.914.688,5.963-1.413,10.776-4.889,14.732-9.467,3.911-4.526,10.175-12.169,16.829-7.617,1.3.887,2.516-1.222,1.229-2.1" transform="translate(-215.057 -67.145)" fill="#003b3a"/>
      <path id="Trazado_177116" data-name="Trazado 177116" d="M584.292,88.645s-12.682-12.143-5.4-18.889,21.407-2.743,22.937,9.31Z" transform="translate(-267.51 -66.492)" fill="#003b3a"/>
      <path id="Trazado_177117" data-name="Trazado 177117" d="M578.673,121.589c10.287,10.241,51.424,18.5,60.042,4.562,5.174-8.37,8.5-21.588,10.6-27.825,3.048-9.058,4.35-9.6,5.242-17.955-1.1,2.69-1.889,4.8-2.753,7.3.276-3.475.874-7.086,1.461-10.4.063-.356-.583.385-.719.71a63.813,63.813,0,0,0-2.857,8.131,82.431,82.431,0,0,1,.984-10.557c.041-.312-.276-.374-.391-.086a79.869,79.869,0,0,0-3.354,10.089c-.2-.373,1.306-9.932-.216-8.567s-2.075,8.979-2.855,11.574c-.253-.049-1.223-7.271-2.406-5.626-.769,1.069.358,5.957.448,8.424a11.868,11.868,0,0,1-.5,5.676c-1.7,4.545-7.552,13.957-10.544,16.907-10.137,9.992-37.029-3.084-46.009-9.407-2.826-.194-9.49-3.363-10.764,3.027s-5.7,3.778,4.589,14.019" transform="translate(-265.538 -70.268)" fill="#ffb09e"/>
      <path id="Trazado_177118" data-name="Trazado 177118" d="M618.106,133.654c-14.732,0-33.488-5.4-40.208-12.088-7.509-7.475-7.461-8.381-6.05-11.014a11.51,11.51,0,0,0,1.315-3.487,5.33,5.33,0,0,1,2.166-3.614c2.043-1.334,4.86-.71,7.124-.209a15.733,15.733,0,0,0,2.034.369.538.538,0,0,1,.269.1c8.213,5.783,35.313,19.337,45.329,9.463,2.895-2.854,8.738-12.226,10.42-16.714a9.463,9.463,0,0,0,.52-4.544c-.023-.312-.046-.619-.057-.926-.03-.813-.176-1.9-.332-3.059-.4-3-.6-4.876-.017-5.695a.914.914,0,0,1,.952-.45c.788.164,1.239,1.392,1.846,4.037.1-.548.191-1.14.289-1.743.652-4.016,1.2-6.932,2.251-7.879A.812.812,0,0,1,646.9,76c.582.294.747,1.241.549,4.122.566-1.7,1.216-3.466,1.935-5.255a.764.764,0,0,1,.891-.5.74.74,0,0,1,.523.851l-.114.854c-.24,1.792-.484,3.62-.652,5.456.46-1.3,1-2.676,1.618-4.158.005-.013.647-1.313,1.34-1.109a.585.585,0,0,1,.395.7c-.341,1.923-.679,3.917-.957,5.908.383-1,.785-2.013,1.232-3.106a.533.533,0,0,1,1.023.258,35.806,35.806,0,0,1-2.88,11.576c-.639,1.632-1.434,3.661-2.387,6.492-.447,1.327-.943,2.95-1.517,4.828-2.123,6.95-5.031,16.468-9.135,23.107-2.425,3.923-7.559,6.45-14.847,7.306a50.059,50.059,0,0,1-5.816.318M578.65,120.81c6.783,6.753,28.946,13.372,45.147,11.467,6.954-.817,11.817-3.172,14.066-6.809,4.031-6.522,6.916-15.963,9.022-22.857.577-1.887,1.075-3.516,1.526-4.857.962-2.856,1.762-4.9,2.4-6.541a36.431,36.431,0,0,0,2.138-6.7c-.347.937-.688,1.894-1.047,2.93a.532.532,0,0,1-1.034-.217c.193-2.441.548-4.963.951-7.43a55.491,55.491,0,0,0-2.019,6.051.533.533,0,0,1-1.048-.137,63.207,63.207,0,0,1,.621-7.851,73.611,73.611,0,0,0-2.332,7.428.533.533,0,0,1-.452.4.528.528,0,0,1-.535-.278c-.122-.23-.115-.438.084-2.47a39.866,39.866,0,0,0,.293-5.644c-.746,1.216-1.278,4.491-1.677,6.95a38.535,38.535,0,0,1-.79,4.075.54.54,0,0,1-.612.37c-.416-.081-.459-.278-.8-1.818a19.6,19.6,0,0,0-1.133-3.912c-.288.716.042,3.169.265,4.823.159,1.181.309,2.3.34,3.162.011.293.033.586.055.886a10.5,10.5,0,0,1-.585,5c-1.754,4.682-7.637,14.11-10.67,17.1-5.707,5.625-16.183,3.945-23.969,1.544a90.752,90.752,0,0,1-22.6-10.812,18.094,18.094,0,0,1-2.039-.379c-2.07-.458-4.645-1.027-6.312.062a4.259,4.259,0,0,0-1.7,2.929,12.631,12.631,0,0,1-1.421,3.782c-1.08,2.014-1.37,2.555,5.863,9.755" transform="translate(-265.139 -69.867)" fill="#ffb09e"/>
      <path id="Trazado_177119" data-name="Trazado 177119" d="M611.828,135.354c-9.333,1.762-15.491-4.308-27.821-9.106,0,0-6.4-2.864-10.853,3.779s4.944,12.695,4.944,12.695c9.136,6.224,16.682,15.406,26.58,13.139Z" transform="translate(-265.5 -91.884)" fill="#f7b767"/>
      <path id="Trazado_177120" data-name="Trazado 177120" d="M636.719,145.977l-2.788,18.079s-.639-1.05-3.058-.9Z" transform="translate(-290.796 -100.416)" fill="#c56274"/>
      <path id="Trazado_177121" data-name="Trazado 177121" d="M582.31,126A60.725,60.725,0,0,0,618.6,140.2c1.566.073,1.563-2.361,0-2.434a58.006,58.006,0,0,1-34.571-13.493c-1.192-1-2.923.712-1.721,1.721" transform="translate(-269.771 -91.17)" fill="#fcf9f5"/>
      <path id="Trazado_177122" data-name="Trazado 177122" d="M572.348,133.6a89.392,89.392,0,0,0,36.888,15.829c1.532.277,2.189-2.068.648-2.347A87.821,87.821,0,0,1,573.576,131.5c-1.265-.926-2.482,1.185-1.228,2.1" transform="translate(-265.443 -94.137)" fill="#fcf9f5"/>
      <path id="Trazado_177123" data-name="Trazado 177123" d="M569.315,140.655a70.657,70.657,0,0,0,42.234,19.226c1.559.146,1.549-2.289,0-2.434a67.978,67.978,0,0,1-40.512-18.513c-1.133-1.082-2.857.636-1.721,1.721" transform="translate(-264.207 -97.261)" fill="#fcf9f5"/>
      <path id="Trazado_177124" data-name="Trazado 177124" d="M573.154,130.028c-4.456,6.643,4.943,12.695,4.943,12.695,9.136,6.224,16.682,15.406,26.581,13.14l7.151-20.508c-9.333,1.763-15.491-4.308-27.821-9.105a8.8,8.8,0,0,0-3.287-.614c-2.221,0-5.174.826-7.566,4.393" transform="translate(-265.5 -91.885)" fill="none"/>
      <path id="Trazado_177125" data-name="Trazado 177125" d="M586.762,84.316a.348.348,0,0,1-.493.183,2.75,2.75,0,0,0-3.973.817c-1.274,2.059,1.573,3.778,2.522,4.727,1.387,1.387,3.85,6.26,3.638,11.09-.153,3.491-3.333,10.766-3.333,10.766s10.034,5.276,13.928-.12c0,0-3.648-11.348-2.763-14.189.019-.062,5.41.939,7.609-8.407,2.072-8.807-4.228-11.476-5.693-11.96-1.237-.408-7.141-2.925-11.442,7.094" transform="translate(-269.802 -70.851)" fill="#ffb09e"/>
      <path id="Trazado_177126" data-name="Trazado 177126" d="M605.112,130.052c-.167.077-5.969,6.193-5.969,6.193s4.516,2.108,7.281-1.536Z" transform="translate(-277.173 -93.781)" fill="#d47082"/>
      <path id="Trazado_177127" data-name="Trazado 177127" d="M615.1,102.2l-4.8-.736s.845,2.488,2.271,2.458S615.1,102.2,615.1,102.2" transform="translate(-281.966 -81.507)" fill="#fff"/>
      <path id="Trazado_177128" data-name="Trazado 177128" d="M587.31,92.478a1.681,1.681,0,0,0-2.172.508,1.8,1.8,0,0,0,.94,2.123" transform="translate(-271.116 -77.571)" fill="#d47082"/>
      <path id="Trazado_177129" data-name="Trazado 177129" d="M615.682,96.864l-.628,2.38,1.277.077a.311.311,0,0,0,.3-.443Z" transform="translate(-284.004 -79.532)" fill="#d47082"/>
      <path id="Trazado_177130" data-name="Trazado 177130" d="M602.406,73.917s-8.6,9.45-14.434,7.776,2.034-13.517,9-11.313c4.355,1.378,5.434,3.536,5.434,3.536" transform="translate(-271.503 -68.045)" fill="#003b3a"/>
      <path id="Trazado_177131" data-name="Trazado 177131" d="M602.692,111.285a10.061,10.061,0,0,1-5.535-2.6c-1.407-1.32,1.528,6.538,5.755,7.069,0,0-.163-2.366-.22-4.473" transform="translate(-276.167 -84.545)" fill="#d47082"/>
      <path id="Trazado_177132" data-name="Trazado 177132" d="M610.486,89.246c-.479.245.382-1.029,1-1.106a1.06,1.06,0,0,1,1.239.83,3.314,3.314,0,0,0-2.241.276" transform="translate(-281.983 -75.782)" fill="#003b3a"/>
      <path id="Trazado_177133" data-name="Trazado 177133" d="M619.8,89.457a1.106,1.106,0,0,0-1.437.518,3.274,3.274,0,0,1,1.544.4" transform="translate(-285.423 -76.316)" fill="#003b3a"/>
      <path id="Trazado_177134" data-name="Trazado 177134" d="M612.592,95.185c-.04.432.1.8.307.818s.411-.315.452-.748-.1-.8-.307-.818-.412.316-.452.748" transform="translate(-282.944 -78.49)" fill="#003b3a"/>
      <path id="Trazado_177135" data-name="Trazado 177135" d="M617.811,95.7c-.038.413.093.762.293.781s.393-.3.431-.714-.093-.762-.293-.781-.393.3-.431.714" transform="translate(-285.185 -78.728)" fill="#003b3a"/>
      <g id="Grupo_173499" data-name="Grupo 173499" transform="translate(322.527 16.941)" opacity="0.37">
        <g id="Grupo_173498" data-name="Grupo 173498" transform="translate(0 0)">
          <g id="Grupo_173497" data-name="Grupo 173497" clip-path="url(#clip-path)">
            <path id="Trazado_177136" data-name="Trazado 177136" d="M600.322,98.871a2.358,2.358,0,1,0,2.225-2.484,2.358,2.358,0,0,0-2.225,2.484" transform="translate(-600.205 -96.267)" fill="#ff5e6e"/>
            <path id="Trazado_177137" data-name="Trazado 177137" d="M602.588,101.126a2.486,2.486,0,1,1,.138,0c-.046,0-.092,0-.138,0m0-4.717c-.041,0-.083,0-.124,0a2.243,2.243,0,0,0-1.374,3.911,2.243,2.243,0,0,0,3.737-1.794,2.248,2.248,0,0,0-2.239-2.121" transform="translate(-600.119 -96.18)" fill="#ff5e6e"/>
          </g>
        </g>
      </g>
      <path id="Trazado_177138" data-name="Trazado 177138" d="M620.705,92.617c-.085,1.991-.966,3.571-1.967,3.528s-1.744-1.692-1.658-3.683.966-3.571,1.967-3.527,1.743,1.691,1.658,3.682" transform="translate(-284.871 -76.127)" fill="#003b3a"/>
      <path id="Trazado_177139" data-name="Trazado 177139" d="M618.471,96.244h-.056c-1.244-.053-2.143-1.857-2.046-4.106a6.218,6.218,0,0,1,.691-2.707,1.927,1.927,0,0,1,1.7-1.209c1.243.053,2.143,1.856,2.046,4.105-.095,2.215-1.115,3.917-2.334,3.917m.231-7.212c-.312,0-.652.288-.934.794a5.409,5.409,0,0,0-.59,2.346c-.081,1.886.605,3.232,1.271,3.261h.022c.661,0,1.443-1.275,1.523-3.14.08-1.886-.606-3.232-1.271-3.261Z" transform="translate(-284.566 -75.82)" fill="#f7b767"/>
      <path id="Trazado_177140" data-name="Trazado 177140" d="M612.277,91.436c-.1,2.256-1.368,4.034-2.841,3.971s-2.587-1.943-2.491-4.2,1.368-4.034,2.841-3.971,2.588,1.943,2.491,4.2" transform="translate(-280.52 -75.398)" fill="#003b3a"/>
      <path id="Trazado_177141" data-name="Trazado 177141" d="M609.207,95.51l-.095,0c-1.722-.074-2.986-2.1-2.879-4.622a5.753,5.753,0,0,1,.98-3.074,2.486,2.486,0,0,1,4.449.191,6.141,6.141,0,0,1-.266,6.22,2.731,2.731,0,0,1-2.189,1.287m.2-8.174a1.957,1.957,0,0,0-1.531.947,4.936,4.936,0,0,0-.829,2.636c-.085,2,.878,3.725,2.1,3.777a1.9,1.9,0,0,0,1.589-.947,5.336,5.336,0,0,0,.228-5.334,1.925,1.925,0,0,0-1.5-1.079H609.4" transform="translate(-280.214 -75.094)" fill="#f7b767"/>
      <line id="Línea_1415" data-name="Línea 1415" x2="10.591" y2="1.754" transform="translate(315.836 13.248)" fill="#003b3a"/>
      <path id="Trazado_177142" data-name="Trazado 177142" d="M598.682,91.562a.377.377,0,0,1-.067-.006L588.023,89.8a.406.406,0,1,1,.133-.8l10.591,1.754a.406.406,0,0,1-.066.806" transform="translate(-272.253 -76.154)" fill="#f7b767"/>
      <g id="Grupo_173502" data-name="Grupo 173502" transform="translate(327.387 13.441)" opacity="0.17">
        <g id="Grupo_173501" data-name="Grupo 173501" transform="translate(0 0)">
          <g id="Grupo_173500" data-name="Grupo 173500" clip-path="url(#clip-path-2)">
            <path id="Trazado_177143" data-name="Trazado 177143" d="M610.077,92.68l1.024-1.243a.808.808,0,0,0-.322-1.27c-.77-.283-1.795-.213-2.133,1.883a.812.812,0,0,0,1.431.631" transform="translate(-608.635 -90.046)" fill="#fff"/>
            <path id="Trazado_177144" data-name="Trazado 177144" d="M619.5,93.218l.562-1a.805.805,0,0,0-.177-1.019c-.422-.227-.984-.171-1.169,1.511-.071.649.5,1.013.785.506" transform="translate(-612.96 -90.5)" fill="#fff"/>
          </g>
        </g>
      </g>
      <path id="Trazado_177145" data-name="Trazado 177145" d="M591.234,131.562c.551.494,8.7,15.62,7.608,22.146-.733,4.375-6.755,14.042-9.537,22.577,0,0-13.15.611-21.227-2.878-.663-6.833-5.664-30.829,3.4-41.431a68.876,68.876,0,0,1,7.859-.667s10.151,8.214,11.893.253" transform="translate(-262.99 -94.131)" fill="#ffb09e"/>
      <path id="Trazado_177146" data-name="Trazado 177146" d="M586.466,176.462c-4.226,0-12.931-.35-18.99-2.967a.533.533,0,0,1-.32-.438c-.091-.943-.27-2.247-.478-3.759-1.282-9.337-3.95-28.765,4.008-38.068a.528.528,0,0,1,.333-.182,67.578,67.578,0,0,1,7.953-.672.532.532,0,0,1,.313.118c.058.046,5.7,4.573,8.962,3.427,1.054-.37,1.733-1.31,2.075-2.873a.533.533,0,0,1,.876-.283c.777.7,8.91,15.883,7.779,22.63-.382,2.279-2.1,5.841-4.091,9.965a107.35,107.35,0,0,0-5.465,12.689.532.532,0,0,1-.482.367c-.136.006-1.052.046-2.473.046m-18.281-3.825c7.14,2.953,18.2,2.785,20.34,2.727a111.733,111.733,0,0,1,5.4-12.467c1.955-4.051,3.643-7.549,4-9.678.917-5.465-4.961-17.382-6.906-20.794a4.034,4.034,0,0,1-2.42,2.5c-3.535,1.238-8.88-2.743-9.841-3.492a67.659,67.659,0,0,0-7.393.641c-7.486,9-4.885,27.947-3.632,37.077.187,1.362.351,2.557.451,3.484" transform="translate(-262.599 -93.731)" fill="#ffb09e"/>
      <path id="Trazado_177147" data-name="Trazado 177147" d="M588.724,131.562c.551.494,8.7,15.62,7.608,22.146-.733,4.375,2.059,12.513-.723,21.048a238.1,238.1,0,0,1-35.1-4.809c-.661-6.833-.6-27.369,8.466-37.971a68.876,68.876,0,0,1,7.859-.667s10.151,8.214,11.893.253" transform="translate(-260.479 -94.132)" fill="#f7b767"/>
      <path id="Trazado_177148" data-name="Trazado 177148" d="M566.649,168.672c1.709-14.266,3.671-29.084,12.061-41.18.895-1.29-1.214-2.509-2.1-1.229-8.636,12.451-10.633,27.724-12.394,42.408-.186,1.552,2.25,1.539,2.435,0" transform="translate(-262.172 -91.921)" fill="#fcf9f5"/>
      <path id="Trazado_177149" data-name="Trazado 177149" d="M578.61,171.014a233.759,233.759,0,0,1,7.857-41.25,1.218,1.218,0,0,0-2.348-.647,237.48,237.48,0,0,0-7.944,41.9c-.153,1.558,2.283,1.548,2.434,0" transform="translate(-267.309 -93.012)" fill="#fcf9f5"/>
      <path id="Trazado_177150" data-name="Trazado 177150" d="M590.688,172.27a329.354,329.354,0,0,0,4.71-41.52c.077-1.566-2.357-1.562-2.434,0a324.1,324.1,0,0,1-4.622,40.872c-.273,1.532,2.073,2.19,2.347.647" transform="translate(-272.526 -93.577)" fill="#fcf9f5"/>
      <path id="Trazado_177151" data-name="Trazado 177151" d="M606.408,174.345c2.3-14.579,1.234-29.27.042-43.9-.126-1.551-2.562-1.564-2.434,0,1.172,14.385,2.312,28.912.045,43.252-.243,1.533,2.1,2.192,2.347.647" transform="translate(-279.263 -93.448)" fill="#fcf9f5"/>
      <path id="Trazado_177152" data-name="Trazado 177152" d="M617.167,175.876a76.66,76.66,0,0,0-4.4-44.362c-.594-1.424-2.95-.8-2.347.648a74.429,74.429,0,0,1,4.4,43.067c-.3,1.53,2.044,2.185,2.347.647" transform="translate(-281.971 -93.877)" fill="#fcf9f5"/>
      <path id="Trazado_177153" data-name="Trazado 177153" d="M568.972,131.976c-9.068,10.6-9.127,31.138-8.465,37.971a238.066,238.066,0,0,0,35.1,4.81c2.782-8.534-.011-16.672.723-21.048,1.094-6.526-7.057-21.651-7.608-22.146-1.742,7.96-11.893-.253-11.893-.253q-.2-.008-.431-.008c-2.486,0-7.429.675-7.429.675" transform="translate(-260.48 -94.132)" fill="none"/>
      <path id="Trazado_177154" data-name="Trazado 177154" d="M642.595,178.908l-11.482.845s-54.342-6.472-59.26-39.006c0,0-1.978-11.024,6.455-12.2s10.768,5.478,10.768,5.478c2.769,21.043,22.61,31.673,36.715,34.519l16.6,3.617c2.273.51,2.416-.214,4.687-.617,3.526-.625,12.022,3.338,12.787,3.724,1.178.6-11.2.27-11.2.27s-8.9-.675-6.071,3.373" transform="translate(-265.37 -93.072)" fill="#ffb09e"/>
      <path id="Trazado_177155" data-name="Trazado 177155" d="M630.708,179.886a.57.57,0,0,1-.063,0,125.014,125.014,0,0,1-27.921-7.337c-18.765-7.512-29.762-18.619-31.8-32.119-.042-.231-1.045-6.04,1.693-9.817a7.428,7.428,0,0,1,5.215-2.994c4.56-.637,7.4.971,8.982,2.433a9.314,9.314,0,0,1,2.363,3.4.565.565,0,0,1,.026.106c1.232,9.366,5.913,17.352,13.91,23.737a54.172,54.172,0,0,0,22.382,10.33l16.607,3.619a3.874,3.874,0,0,0,2.631-.131,11.848,11.848,0,0,1,1.849-.49c3.932-.7,13.031,3.728,13.121,3.773a.6.6,0,0,1,.354.689c-.12.479-.224.894-11.806.589-2.158-.162-5.416.069-5.993,1.083-.192.337-.067.825.372,1.452a.532.532,0,0,1-.4.837l-11.482.844-.039,0m-50.856-51.35a13.517,13.517,0,0,0-1.875.135,6.4,6.4,0,0,0-4.5,2.561c-2.472,3.406-1.517,8.966-1.507,9.021,2.505,16.571,18.321,26.168,31.147,31.3a123.988,123.988,0,0,0,27.6,7.262l10.59-.779a1.953,1.953,0,0,1,.017-1.815c1.141-2,6.379-1.665,6.973-1.62,3.521.093,7.333.119,9.422.045-2.83-1.247-8.412-3.431-10.958-2.983a10.814,10.814,0,0,0-1.7.451,4.913,4.913,0,0,1-3.2.161l-16.6-3.617a55.263,55.263,0,0,1-22.828-10.54c-8.088-6.457-13.03-14.883-14.295-24.371a8.568,8.568,0,0,0-8.3-5.215" transform="translate(-264.965 -92.674)" fill="#ffb09e"/>
      <path id="Trazado_177156" data-name="Trazado 177156" d="M605.9,159.554c-8.087-5.712-11.757-13.187-16.828-25.533,0,0-2.335-6.658-10.768-5.478s-6.455,12.2-6.455,12.2c1.654,10.945,3.6,17.272,12.492,23.064Z" transform="translate(-265.37 -93.072)" fill="#f7b767"/>
      <path id="Trazado_177157" data-name="Trazado 177157" d="M575.093,130.9a42.893,42.893,0,0,0,13.159,33.862c1.133,1.081,2.858-.637,1.721-1.722a40.536,40.536,0,0,1-12.446-32.14c.108-1.564-2.327-1.557-2.434,0" transform="translate(-266.804 -93.644)" fill="#fcf9f5"/>
      <path id="Trazado_177158" data-name="Trazado 177158" d="M582.452,128.07a56.963,56.963,0,0,0,15.609,34.539c1.085,1.134,2.8-.589,1.721-1.721a54.3,54.3,0,0,1-14.9-32.818c-.135-1.549-2.571-1.563-2.434,0" transform="translate(-270.004 -92.429)" fill="#fcf9f5"/>
      <path id="Trazado_177159" data-name="Trazado 177159" d="M591.605,128.878c2.953,12.579,7.564,25.521,19.065,32.824,1.326.842,2.549-1.264,1.229-2.1-10.935-6.944-15.148-19.45-17.946-31.369-.358-1.524-2.706-.879-2.347.647" transform="translate(-273.921 -92.625)" fill="#fcf9f5"/>
      <path id="Trazado_177160" data-name="Trazado 177160" d="M578.309,128.542c-8.433,1.18-6.455,12.2-6.455,12.2,1.654,10.945,3.6,17.272,12.492,23.064l21.559-4.256c-8.087-5.712-11.757-13.187-16.829-25.533a9.159,9.159,0,0,0-8.828-5.619,13.922,13.922,0,0,0-1.939.14" transform="translate(-265.37 -93.072)" fill="none"/>
      <path id="Trazado_177161" data-name="Trazado 177161" d="M613.732,185.133l-7.4,8.39s-6.536-3.564-8.391-5.252Z" transform="translate(-276.656 -117.141)" fill="#d47082"/>
      <path id="Trazado_177162" data-name="Trazado 177162" d="M671.045,409.356c.131,5.77-1.16,19.819-1.16,19.819l24.4,1.8c-2.892-1.887-12.856-10.009-12.856-10.009l-3.4-11.069s-7-.442-6.979-.541" transform="translate(-307.545 -212.697)" fill="#ffb09e"/>
      <path id="Trazado_177163" data-name="Trazado 177163" d="M679.374,428.157l13.153,9.743a.774.774,0,0,1-.419,1.4c-5.991.152-22.135.456-26.38.522a.767.767,0,0,1-.74-.99c.808-2.765,2.417-10.52,3.1-12.763.109-.356,4.011,6.027,5.756,5.3,1.5-.628,5.4-3.191,5.527-3.211" transform="translate(-305.429 -219.867)" fill="#e26191"/>
      <path id="Trazado_177164" data-name="Trazado 177164" d="M687.638,436.221a1.884,1.884,0,0,1-1.357-3.192l2.617-2.712.377.364-2.617,2.712a1.359,1.359,0,0,0,.034,1.922,1.379,1.379,0,0,0,.971.384,1.352,1.352,0,0,0,.954-.416l2.938-3.044.377.363-2.938,3.044a1.874,1.874,0,0,1-1.321.575Z" transform="translate(-314.358 -221.696)" fill="#fcf9f5"/>
      <path id="Trazado_177165" data-name="Trazado 177165" d="M668.071,409.989l1.358,9.184s2.959,4.36,3.516,4.389-.916-13.214-.916-13.214Z" transform="translate(-306.766 -212.969)" fill="#d47082"/>
      <path id="Trazado_177166" data-name="Trazado 177166" d="M561.949,204.769s-10.793,16.91-9.354,23.026c2.543,10.812,18.349,15.471,19.428,17.27s29.143,36.7,46.772,82.752l15.111-.72s-12.592-62.6-17.99-71.238c-18.448-29.518-31.661-47.852-31.661-47.852Z" transform="translate(-257.131 -125.201)" fill="#419355"/>
      <path id="Trazado_177167" data-name="Trazado 177167" d="M561.949,204.769s-10.793,16.91-9.354,23.026c2.543,10.812,18.349,15.471,19.428,17.27s29.143,36.7,46.772,82.752l15.111-.72s-14.721-14.752-21.737-28.244-28.063-57.206-39.667-63.143-10.554-30.942-10.554-30.942" transform="translate(-257.131 -125.201)" fill="#357843"/>
      <path id="Trazado_177168" data-name="Trazado 177168" d="M577.57,103.959c3.007,6.757,8.054,12.354,12.35,18.375s8,13,7.635,20.383q-6.63-10.135-13.553-20.073c-1.379-1.979-2.92-4.071-5.21-4.83a7.666,7.666,0,0,0-5.893.763,22.759,22.759,0,0,0-4.786,3.765l-2.945,2.778c1.282-8.035,9.383-13.245,12.247-20.861" transform="translate(-262.587 -82.578)" fill="#003b3a"/>
      <path id="Trazado_177169" data-name="Trazado 177169" d="M575.617,103.637c5.937,12.871,20.211,22.838,19.819,38.144l2.268-.614q-4.223-6.447-8.557-12.82c-2.391-3.51-4.61-7.728-7.736-10.654-6.446-6.035-13.31,1.2-18,5.631l2.034,1.184c1.548-8.178,9.208-13.311,12.248-20.862.584-1.453-1.769-2.085-2.348-.647-3.06,7.6-10.672,12.541-12.247,20.862a1.228,1.228,0,0,0,2.034,1.184c2.466-2.327,4.963-5.309,8.147-6.631,4.527-1.88,7.08,1.473,9.4,4.812q6.6,9.49,12.924,19.17a1.228,1.228,0,0,0,2.268-.615c.408-15.948-13.983-26-20.152-39.372-.655-1.421-2.754-.186-2.1,1.229" transform="translate(-261.685 -81.642)" fill="#003b3a"/>
    </g>
  </g>
</svg>
