<svg xmlns="http://www.w3.org/2000/svg" width="111.916" height="82.986" viewBox="0 0 111.916 82.986">
  <g id="Grupo_171382" data-name="Grupo 171382" transform="translate(0)">
    <path id="Trazado_118782" data-name="Trazado 118782" d="M-104.864,96.215c4.849-5.429,12.524-7.022,19.336-8.09a334.136,334.136,0,0,1,64.3-3.757c6.856.265,13.8,1.16,18.161,5.878,3.834,4.14,4.453,9.955,4.731,15.078a217.194,217.194,0,0,1-.024,23.963C1.38,133.934.878,138.8-2.03,142.7c-3.963,5.32-11,7.005-18.021,8.031a332.662,332.662,0,0,1-39.831,3.388,29.321,29.321,0,0,1-24.5,12.988,34.032,34.032,0,0,1-6.392-.619l-3.9-.746,3.5-1.867a25.462,25.462,0,0,0,10.174-10c-6.051-.473-13.143-1.792-18.5-6.324-7.705-6.519-9.2-17.124-10.06-27.427C-110.28,111.494-110.514,102.542-104.864,96.215Z" transform="translate(109.931 -84.122)" fill="#fff"/>
    <g id="Grupo_84976" data-name="Grupo 84976">
      <g id="Grupo_84972" data-name="Grupo 84972">
        <path id="Trazado_118783" data-name="Trazado 118783" d="M-104.864,96.215c4.849-5.429,12.524-7.022,19.336-8.09a334.147,334.147,0,0,1,64.3-3.757c6.856.265,13.8,1.16,18.161,5.878,3.834,4.14,4.453,9.955,4.733,15.078a217.736,217.736,0,0,1-.026,23.963C1.379,133.934.878,138.8-2.03,142.7c-3.961,5.32-11,7.005-18.021,8.031a332.623,332.623,0,0,1-39.831,3.388,29.321,29.321,0,0,1-24.5,12.988,34.031,34.031,0,0,1-6.392-.619l-3.9-.746,3.506-1.867a25.463,25.463,0,0,0,10.174-10c-6.053-.473-13.146-1.792-18.5-6.324-7.707-6.519-9.2-17.124-10.062-27.427C-110.28,111.494-110.514,102.542-104.864,96.215Zm7.18,49.195c5.361,4.536,12.957,5.486,18.975,5.806l2.057.107-.858,1.873a28.459,28.459,0,0,1-8.977,11.034,26.4,26.4,0,0,0,24.674-12.262l.4-.615.737-.018a329.662,329.662,0,0,0,40.216-3.377c6.421-.939,12.826-2.431,16.181-6.931,2.442-3.28,2.88-7.679,3.121-11.9a214.8,214.8,0,0,0,.024-23.652c-.252-4.635-.79-9.87-3.989-13.327-3.67-3.968-9.961-4.738-16.214-4.981-4.206-.16-8.473-.243-12.688-.243a331.165,331.165,0,0,0-51.07,3.97,51.47,51.47,0,0,0-10.592,2.571l14.262,9.662a1.053,1.053,0,0,1,.282,1.464,1.054,1.054,0,0,1-.873.462,1.053,1.053,0,0,1-.591-.182L-97.938,94.482a16.775,16.775,0,0,0-4.4,3.182,189.376,189.376,0,0,0,24.77,17.929,1.055,1.055,0,0,1,.354,1.447,1.058,1.058,0,0,1-.9.508,1.062,1.062,0,0,1-.547-.153,191.678,191.678,0,0,1-25.009-18.1,16.32,16.32,0,0,0-2.4,5l13.942,10.548a1.051,1.051,0,0,1,.2,1.475,1.048,1.048,0,0,1-.84.418,1.047,1.047,0,0,1-.635-.214l-13.2-9.986a35.329,35.329,0,0,0-.512,6.423c3.1,2.289,6.088,4.4,8.981,6.434,2.694,1.9,5.237,3.685,7.565,5.416a1.053,1.053,0,0,1,.214,1.473,1.052,1.052,0,0,1-.847.425,1.059,1.059,0,0,1-.628-.208c-2.311-1.72-4.841-3.5-7.517-5.381-2.486-1.746-5.062-3.576-7.7-5.5.066,1.42.158,2.847.276,4.267.046.53.092,1.061.14,1.591L-93.117,131.7a1.051,1.051,0,0,1,.2,1.475,1.048,1.048,0,0,1-.84.418,1.045,1.045,0,0,1-.635-.212l-11.942-9.036C-105.4,132.555-103.522,140.471-97.684,145.41Z" transform="translate(109.931 -84.122)" fill="#231f20"/>
      </g>
      <g id="Grupo_84973" data-name="Grupo 84973" transform="translate(78.754 32.763)">
        <ellipse id="Elipse_4821" data-name="Elipse 4821" cx="3.965" cy="3.965" rx="3.965" ry="3.965" transform="translate(0 0)" fill="#231f20"/>
      </g>
      <g id="Grupo_84974" data-name="Grupo 84974" transform="translate(51.993 32.763)">
        <ellipse id="Elipse_4822" data-name="Elipse 4822" cx="3.965" cy="3.965" rx="3.965" ry="3.965" transform="translate(0 0)" fill="#231f20"/>
      </g>
      <g id="Grupo_84975" data-name="Grupo 84975" transform="translate(25.231 32.763)">
        <ellipse id="Elipse_4823" data-name="Elipse 4823" cx="3.965" cy="3.965" rx="3.965" ry="3.965" transform="translate(0 0)" fill="#231f20"/>
      </g>
    </g>
  </g>
</svg>
