<svg xmlns="http://www.w3.org/2000/svg" xmlns:xlink="http://www.w3.org/1999/xlink" width="621" height="239.788" viewBox="0 0 621 239.788">
  <defs>
    <clipPath id="clip-path">
      <rect id="Rectángulo_44205" data-name="Rectángulo 44205" width="162.439" height="191.2" fill="none"/>
    </clipPath>
    <clipPath id="clip-path-2">
      <rect id="Rectángulo_44206" data-name="Rectángulo 44206" width="248.178" height="191.156" fill="none"/>
    </clipPath>
    <clipPath id="clip-path-3">
      <rect id="Rectángulo_44209" data-name="Rectángulo 44209" width="61.118" height="22.339" transform="translate(0 0)" fill="none"/>
    </clipPath>
  </defs>
  <g id="Grupo_173638" data-name="Grupo 173638" transform="translate(1647 11303.788)">
    <path id="Trazado_173867" data-name="Trazado 173867" d="M-2619.859-10837.848s-50.042-27.954-15.477-77.816,80.885,21.766,108.716-23.336,31.9-104.474,116.716-110.427,141.354,63.166,173.789,99.224,90.18,50.117,119.286,34.539,72.037-2.1,70.216,26.919-.846,46.511-15.1,50.9S-2619.859-10837.848-2619.859-10837.848Z" transform="translate(1013 -254)" fill="#fff0b5"/>
    <path id="Trazado_178016" data-name="Trazado 178016" d="M310.5,0C481.984,0,621,10.3,621,23S481.984,46,310.5,46,0,35.7,0,23,139.016,0,310.5,0Z" transform="translate(-1647 -11110)" fill="#ffd947"/>
    <g id="Grupo_172833" data-name="Grupo 172833" transform="translate(-1637.439 -11271.834)" clip-path="url(#clip-path)">
      <path id="Trazado_173771" data-name="Trazado 173771" d="M112.2,165.392c6.371-3.909,13.941-5.262,20.88-8.038,11.245-4.5,21.352-13.765,23.422-25.7l2.371,8.472c3.8,4.651,2.89,11.917-.786,16.663s-9.473,7.372-15.268,8.946S131,168.019,125.3,169.885c-2.025.661-4.264,1.75-4.762,3.822-.545,2.264,1.394,4.46,3.556,5.322s4.568.849,6.828,1.407c1.185.293,2.593,1.312,2.075,2.416-.3.649-1.116.848-1.823.959-7.573,1.184-16.082.646-21.769-4.494a8.65,8.65,0,0,1-2.979-4.84c-.6-3.763,2.525-7.092,5.774-9.085" transform="translate(-106.348 1.392)" fill="#ad6b4a"/>
      <path id="Trazado_173772" data-name="Trazado 173772" d="M84.373,128.824a35.946,35.946,0,0,1-4.295,38.038c6.16,1.348,12.934,3.1,16.428,8.349.771,1.159,1.25,2.922.158,3.785a3.145,3.145,0,0,1-1.729.5,105.759,105.759,0,0,1-33.673-2.621,5.993,5.993,0,0,1-2.889-1.3c-.963-.947-1.194-2.4-1.879-3.561-1.445-2.463-4.551-3.238-7.126-4.471-11.111-5.323-12.645-17.575-9.839-28.224A152.931,152.931,0,0,1,46.36,119.2c1.084-2.586,2.328-5.255,4.571-6.94,5.72-4.3,14.036-1.153,19.472,1.992a35.371,35.371,0,0,1,13.97,14.572" transform="translate(26.424 1.165)" fill="#a0603f"/>
      <path id="Trazado_173773" data-name="Trazado 173773" d="M42.308,178.73h0a.253.253,0,0,0,.25-.255A4.314,4.314,0,0,0,40.9,175.16a.252.252,0,1,0-.306.4,3.8,3.8,0,0,1,1.466,2.919.253.253,0,0,0,.253.251" transform="translate(78.962 1.851)" fill="#47112c"/>
      <path id="Trazado_173774" data-name="Trazado 173774" d="M46.477,179.1l.035,0a.253.253,0,0,0,.215-.286,4.2,4.2,0,0,0-2.236-3.122.252.252,0,1,0-.226.451,3.684,3.684,0,0,1,1.962,2.742.253.253,0,0,0,.251.217" transform="translate(71.117 1.857)" fill="#47112c"/>
      <path id="Trazado_173775" data-name="Trazado 173775" d="M57.334,168.483a25.775,25.775,0,0,0,8.606-1.475.253.253,0,0,0-.168-.477,25.157,25.157,0,0,1-9.134,1.438h-.007a.253.253,0,0,0-.007.505c.236.006.474.009.709.009" transform="translate(39.357 1.76)" fill="#47112c"/>
      <path id="Trazado_173776" data-name="Trazado 173776" d="M45.787,106.469c-.5,19.163-2.724,38.337-1.363,57.459.271,3.8.992,9.817,3.083,13.109a23.032,23.032,0,0,0,2.844,2.933c.925,1,1.6,2.493.994,3.718-.719,1.459-2.706,1.637-4.327,1.508a37.576,37.576,0,0,1-5.121-.767,7.878,7.878,0,0,1-3.63-1.558,8.194,8.194,0,0,1-1.894-3.042c-4.107-9.744-5.386-20.453-7.589-30.733q-3.632-16.946-7.835-33.762c-1.317-5.267-2.685-10.623-2.393-16.044.492-9.126,7.628-18.525,17.792-15.852,8.971,2.358,9.628,15.734,9.439,23.031" transform="translate(92.152 0.877)" fill="#a0603f"/>
      <path id="Trazado_173777" data-name="Trazado 173777" d="M24.593,184.2a.252.252,0,0,0,.241-.177,4.749,4.749,0,0,0-1.186-4.715.253.253,0,0,0-.353.362,4.234,4.234,0,0,1,1.058,4.2.254.254,0,0,0,.241.328" transform="translate(113.939 1.895)" fill="#47112c"/>
      <path id="Trazado_173778" data-name="Trazado 173778" d="M20.638,183.522a.252.252,0,0,0,.241-.177,3.338,3.338,0,0,0-1.216-3.636.253.253,0,0,0-.294.411,2.824,2.824,0,0,1,1.029,3.073.254.254,0,0,0,.241.328" transform="translate(121.951 1.899)" fill="#47112c"/>
      <path id="Trazado_173779" data-name="Trazado 173779" d="M23.594,176.887h.015c1.157-.069,2.322-.194,3.464-.375a.253.253,0,1,0-.079-.5c-1.125.179-2.275.3-3.416.369a.253.253,0,0,0,.015.505" transform="translate(111.565 1.861)" fill="#47112c"/>
      <path id="Trazado_173780" data-name="Trazado 173780" d="M117.75,90.987c-.336,12.358-4.9,25.2-14.721,32.7-9.228,7.046-21.517,8.419-31.97,13.471a12.817,12.817,0,0,0-3.934,2.637,13.162,13.162,0,0,0-2.748,6.221,59.2,59.2,0,0,0-1.241,17.86c.328,3.965.791,8.654-2.237,11.235a9.649,9.649,0,0,1-3.881,1.779A30.993,30.993,0,0,1,31.362,172.1a16.163,16.163,0,0,1-5.206-5.7,19.044,19.044,0,0,1-1.586-6.919c-1.288-15.36,2.337-30.837,8.446-44.988S47.657,87.388,56.564,74.809C58.836,71.6,61.123,68.4,63.2,65.08c1.88-3,4.528-5.637,6.639-8.514C74.231,50.583,78,44.019,79.88,36.788c.331-1.28.661-3.535,2.224-3.657,1.346-.1,3.8,1.415,5.072,1.911a49.21,49.21,0,0,1,7.211,3.041A48.356,48.356,0,0,1,108.764,51.2c7.445,10.211,9.322,27.506,8.986,39.785" transform="translate(20.084 0.35)" fill="#ad6b4a"/>
      <path id="Trazado_173781" data-name="Trazado 173781" d="M39.126,120.88A45.291,45.291,0,0,0,49.86,87.113c-.579-5.788-2.278-11.4-3.342-17.116a42.175,42.175,0,0,1-.662-13.283,21.947,21.947,0,0,1,5.305-12.029c1.152-1.244,2.154-2.5,3.105-3.73a48.658,48.658,0,0,1,9.991,10.164C71.7,61.33,73.579,78.625,73.245,90.9c-.337,12.359-4.9,25.2-14.721,32.705-9.229,7.046-21.516,8.419-31.97,13.47a19.621,19.621,0,0,0-2.242,1.243,29.141,29.141,0,0,1,4.582-6.893c3.216-3.7,7.019-6.85,10.233-10.549" transform="translate(64.59 0.433)" fill="#e0ae89"/>
      <path id="Trazado_173782" data-name="Trazado 173782" d="M53.586,72.866a43.348,43.348,0,0,1-16.618-7.352c-4.143-2.891-8.347-6.507-10.691-11.072-1.8-3.509-1.842-8.181,1.268-11.048a1.194,1.194,0,0,1,.906-.413,1.3,1.3,0,0,1,.739.524c5.154,5.984,9.247,12.66,16.06,16.99a26.646,26.646,0,0,0,17.369,4.283,7.407,7.407,0,0,1,3.495.3,1.093,1.093,0,0,1,.5.411A6.368,6.368,0,0,1,68.226,69.3c.009,5.77-11.266,4.194-14.64,3.561" transform="translate(68.909 0.454)" fill="#235879"/>
      <path id="Trazado_173783" data-name="Trazado 173783" d="M3.525,3.153C4.909,1.45,6.8-.438,8.932.089A6.955,6.955,0,0,1,11.706,2a18.694,18.694,0,0,0,8.47,4.383,6.707,6.707,0,0,1,2.544.868,5.7,5.7,0,0,1,1.533,2.057l7.012,13.208c.566,1.064,1.082,2.51.216,3.348a2.492,2.492,0,0,1-1.513.555c-5.708.6-10.708-3.41-15.825-6.009a4.169,4.169,0,0,0-2.563-.628c-1.1.2-1.882,1.192-2.924,1.6a3.862,3.862,0,0,1-3.632-.709,9.656,9.656,0,0,1-2.376-3.018C1.222,15.145-.118,12.185.008,9.23.12,6.655,1.953,5.087,3.525,3.153" transform="translate(130.497 0)" fill="#935535"/>
      <path id="Trazado_173784" data-name="Trazado 173784" d="M45.533,5.494A14.63,14.63,0,0,1,53.219,6.8,10.729,10.729,0,0,1,55.745,8.9c3.012,3.067,6.127,6.257,8.018,10.173,2,4.148,1.295,8.47.957,12.928-.237,3.143-.409,6.462,1.006,9.276,1.354,2.692,3.762,4.693,4.462,7.74.77,3.361-.01,7.5-.749,10.825-.423,1.91-1.162,4.006-2.933,4.842-1.887.89-4.12-.03-6.191.225-2.538.313-4.519,2.331-6.936,3.164-4.295,1.482-8.869-.99-12.652-3.506-4.668-3.1-8.908-6.957-13.6-9.968-4.2-2.694-9.089-3.962-12.995-7.4C7.056,40.98,5.294,31.19,6.46,22.106,7.083,17.26,9.3,12.421,13.314,9.635c4.428-3.072,10.191-3.2,15.581-3.221,4.569-.017,9.129-.307,13.679-.7.97-.085,1.963-.172,2.959-.218" transform="translate(85.741 0.058)" fill="#ad6b4a"/>
      <path id="Trazado_173785" data-name="Trazado 173785" d="M13.337,45.925c4.137-1.419,9.064-.557,12.638-3.079,2.961-2.089,4.118-6.05,3.8-9.66-.372-4.16-2.3-8.235-2.966-12.437a4.929,4.929,0,0,1,.03-2.4,1.771,1.771,0,0,1,1.837-1.263c.739.139,1.2.865,1.537,1.536,1.971,3.888,2.975,8.18,4.015,12.413a17.8,17.8,0,0,0,2.193,5.824C38.233,39.545,43,41.9,46.506,40.992c.025.054.047.107.075.161,1.353,2.692,3.762,4.692,4.461,7.739.77,3.362-.01,7.5-.748,10.825-.424,1.91-1.163,4.006-2.933,4.842-1.887.891-4.121-.03-6.192.226-2.537.313-4.519,2.33-6.936,3.164-4.295,1.48-8.869-.991-12.651-3.507-4.669-3.1-8.909-6.958-13.6-9.968-.6-.387-1.222-.743-1.849-1.081a12.03,12.03,0,0,1,7.208-7.468" transform="translate(104.887 0.18)" fill="#f0c198"/>
      <path id="Trazado_173786" data-name="Trazado 173786" d="M70.406,3.863a15.205,15.205,0,0,1,3.713-.651A3.91,3.91,0,0,1,77.4,4.769a3.915,3.915,0,0,1-.067,3.825,15.258,15.258,0,0,1-2.479,3.132,31.359,31.359,0,0,0-7.219,13.705c-.409,1.719-.756,3.62-2.11,4.755a4.852,4.852,0,0,1-5.264.255,11.416,11.416,0,0,1-3.9-3.923,37.721,37.721,0,0,1-3.784-7.154c-1.294-3.25-2.131-6.878-1.154-10.236C54.166-.314,63.835,5.451,70.406,3.863" transform="translate(33.041 0.034)" fill="#935535"/>
      <path id="Trazado_173787" data-name="Trazado 173787" d="M35.17,35.758A3.056,3.056,0,1,0,38.226,32.7a3.056,3.056,0,0,0-3.056,3.056" transform="translate(85.615 0.346)" fill="#3c1a2b"/>
      <path id="Trazado_173788" data-name="Trazado 173788" d="M15.8,34.478c0,1.688.875,3.056,1.953,3.056s1.954-1.368,1.954-3.056-.875-3.056-1.954-3.056S15.8,32.79,15.8,34.478" transform="translate(126.758 0.332)" fill="#3c1a2b"/>
      <path id="Trazado_173789" data-name="Trazado 173789" d="M14.544,64.141a.251.251,0,0,0,.222-.132A19.89,19.89,0,0,0,17.086,53.5a.243.243,0,0,0-.268-.237.253.253,0,0,0-.237.268,19.361,19.361,0,0,1-2.26,10.239.252.252,0,0,0,.1.342.247.247,0,0,0,.12.03" transform="translate(130.877 0.563)" fill="#47112c"/>
      <path id="Trazado_173790" data-name="Trazado 173790" d="M21.662,46.626c.862.815.893,2.15.865,3.335a2.322,2.322,0,0,1-.244,1.2,2.3,2.3,0,0,1-1.965.76,2.088,2.088,0,0,0-1.01.205,2.284,2.284,0,0,0-.783,1.378,3.537,3.537,0,0,1-.788,1.466,1.6,1.6,0,0,1-1.529.472c-1.388-.413-1.426-2.925-2.871-3.017a2.654,2.654,0,0,0-.808.135,3.222,3.222,0,0,1-2.521-.249,2.766,2.766,0,0,1-.439-3.859c1.572-2.093,10.083-3.72,12.092-1.823" transform="translate(130.82 0.484)" fill="#f97a5a"/>
      <path id="Trazado_173791" data-name="Trazado 173791" d="M21.35,52.617a.252.252,0,0,0,.185-.424,6.329,6.329,0,0,0-1.586-1.321,2.723,2.723,0,0,0-2.119-.255.252.252,0,0,0-.161.319.249.249,0,0,0,.32.159,2.226,2.226,0,0,1,1.722.223,5.834,5.834,0,0,1,1.453,1.218.253.253,0,0,0,.185.081" transform="translate(122.994 0.534)" fill="#47112c"/>
      <path id="Trazado_173792" data-name="Trazado 173792" d="M10.345,52.183a.253.253,0,0,0,.219-.126,5.767,5.767,0,0,1,1.809-2.2.253.253,0,0,0-.261-.434A6.257,6.257,0,0,0,10.125,51.8a.255.255,0,0,0,.093.346.26.26,0,0,0,.126.033" transform="translate(139.745 0.522)" fill="#47112c"/>
      <path id="Trazado_173793" data-name="Trazado 173793" d="M10.748,56.5a.538.538,0,1,0,.538-.538.537.537,0,0,0-.538.538" transform="translate(139.753 0.592)" fill="#7a4024"/>
      <path id="Trazado_173794" data-name="Trazado 173794" d="M9.683,60.035a.538.538,0,1,0,.539-.538.538.538,0,0,0-.539.538" transform="translate(141.895 0.629)" fill="#7a4024"/>
      <path id="Trazado_173795" data-name="Trazado 173795" d="M19.67,57.564a.538.538,0,1,0,.538-.538.538.538,0,0,0-.538.538" transform="translate(121.815 0.603)" fill="#7a4024"/>
      <path id="Trazado_173796" data-name="Trazado 173796" d="M21.859,61.1a.538.538,0,1,0,.538-.539.537.537,0,0,0-.538.539" transform="translate(117.414 0.64)" fill="#7a4024"/>
      <path id="Trazado_173797" data-name="Trazado 173797" d="M23.639,58.65a.538.538,0,1,0,.538-.538.537.537,0,0,0-.538.538" transform="translate(113.835 0.614)" fill="#7a4024"/>
      <path id="Trazado_173798" data-name="Trazado 173798" d="M28.831,76.452a4.623,4.623,0,1,0,4.623-4.623,4.623,4.623,0,0,0-4.623,4.623" transform="translate(95.227 0.759)" fill="#f9a048"/>
      <path id="Trazado_173799" data-name="Trazado 173799" d="M73.893,110.611c-.5,19.163-2.725,38.337-1.363,57.459.271,3.8.992,9.817,3.083,13.109a23.032,23.032,0,0,0,2.844,2.933c.925,1,1.6,2.493.994,3.718-.72,1.459-2.706,1.637-4.327,1.508A37.579,37.579,0,0,1,70,188.57a7.887,7.887,0,0,1-3.631-1.558,8.2,8.2,0,0,1-1.893-3.042c-4.107-9.744-5.386-20.453-7.589-30.732q-3.632-16.946-7.835-33.762c-1.317-5.267-2.685-10.623-2.393-16.044.492-9.126,7.628-18.525,17.792-15.852,8.971,2.358,9.628,15.734,9.439,23.031" transform="translate(35.643 0.921)" fill="#ad6b4a"/>
      <path id="Trazado_173800" data-name="Trazado 173800" d="M53.193,188.395a.252.252,0,0,0,.245-.191,3.792,3.792,0,0,0-1.492-3.962.253.253,0,1,0-.289.414,3.327,3.327,0,0,1,1.292,3.425.252.252,0,0,0,.183.306.22.22,0,0,0,.062.008" transform="translate(56.803 1.947)" fill="#47112c"/>
      <path id="Trazado_173801" data-name="Trazado 173801" d="M48.933,188.175a.254.254,0,0,0,.248-.2,4.77,4.77,0,0,0-1.193-4.207.252.252,0,1,0-.367.347,4.263,4.263,0,0,1,1.065,3.757.253.253,0,0,0,.2.3.3.3,0,0,0,.052.005" transform="translate(65.107 1.942)" fill="#47112c"/>
      <path id="Trazado_173802" data-name="Trazado 173802" d="M52.826,181.683a.243.243,0,0,0,.054-.006l3.4-.734a.251.251,0,0,0,.193-.3.258.258,0,0,0-.3-.194l-3.4.735a.253.253,0,0,0,.054.5" transform="translate(52.832 1.908)" fill="#47112c"/>
      <path id="Trazado_173803" data-name="Trazado 173803" d="M52.341,129.949a.253.253,0,0,0,.253-.244l.983-26.628a.253.253,0,0,0-.245-.262.26.26,0,0,0-.261.244l-.983,26.628a.253.253,0,0,0,.244.262Z" transform="translate(56.224 1.087)" fill="#47112c"/>
      <path id="Trazado_173804" data-name="Trazado 173804" d="M27.039,127.539a.446.446,0,0,0,.387-.191.332.332,0,0,0-.039-.4.231.231,0,0,0-.022-.022l.016-.007a37.142,37.142,0,0,0,19.206-20.466.253.253,0,1,0-.472-.18,36.632,36.632,0,0,1-18.943,20.186c-.4.183-.594.423-.568.714a.392.392,0,0,0,.317.348.565.565,0,0,0,.118.013M27,127.278Z" transform="translate(88.953 1.122)" fill="#47112c"/>
      <path id="Trazado_173805" data-name="Trazado 173805" d="M110.355,138.9a35.946,35.946,0,0,1-4.295,38.038c6.16,1.348,12.934,3.1,16.428,8.349.771,1.159,1.25,2.922.158,3.785a3.154,3.154,0,0,1-1.729.5,105.789,105.789,0,0,1-33.673-2.622,6,6,0,0,1-2.889-1.3c-.963-.948-1.194-2.4-1.879-3.562-1.445-2.463-4.552-3.238-7.127-4.471-11.11-5.323-12.644-17.575-9.838-28.223a152.9,152.9,0,0,1,6.831-20.117c1.084-2.586,2.328-5.255,4.571-6.94,5.72-4.3,14.036-1.153,19.472,1.992a35.37,35.37,0,0,1,13.97,14.572" transform="translate(-25.815 1.271)" fill="#ad6b4a"/>
      <path id="Trazado_173806" data-name="Trazado 173806" d="M68.29,188.8h0a.253.253,0,0,0,.25-.256,4.316,4.316,0,0,0-1.664-3.315.253.253,0,1,0-.306.4,3.8,3.8,0,0,1,1.465,2.919.253.253,0,0,0,.253.25" transform="translate(26.722 1.958)" fill="#47112c"/>
      <path id="Trazado_173807" data-name="Trazado 173807" d="M72.46,189.175l.034,0a.253.253,0,0,0,.216-.285,4.2,4.2,0,0,0-2.236-3.123.253.253,0,1,0-.226.452,3.68,3.68,0,0,1,1.962,2.74.254.254,0,0,0,.251.218" transform="translate(18.876 1.964)" fill="#47112c"/>
      <path id="Trazado_173808" data-name="Trazado 173808" d="M83.313,178.555a25.779,25.779,0,0,0,8.609-1.475.253.253,0,0,0-.168-.477,25.345,25.345,0,0,1-9.135,1.438.245.245,0,0,0-.259.246.253.253,0,0,0,.246.26c.235.006.472.009.706.009" transform="translate(-12.882 1.867)" fill="#47112c"/>
      <path id="Trazado_173809" data-name="Trazado 173809" d="M122.3,165.084a.212.212,0,0,0,.05-.005.252.252,0,0,0,.2-.3,33.862,33.862,0,0,1,.514-15.471.253.253,0,0,0-.488-.132,34.387,34.387,0,0,0-.521,15.7.252.252,0,0,0,.248.2" transform="translate(-83.302 1.575)" fill="#47112c"/>
      <path id="Trazado_173810" data-name="Trazado 173810" d="M106.677,74.453c1.777-2.508,3.584-5.044,5.354-7.613.448,4.85,1.684,9.85.254,14.451-1.158,3.725-3.941,6.727-5.481,10.311-3.15,7.327-1.087,16.859-6.558,22.663-4.43,4.7-11.938,4.778-17.271,8.422-1.525,1.041-2.851,2.359-4.295,3.5a118.067,118.067,0,0,1,4.448-12.046c6.11-14.151,14.641-27.114,23.549-39.693" transform="translate(-30.027 0.707)" fill="#f0c198"/>
      <path id="Trazado_173811" data-name="Trazado 173811" d="M108.6,142.041c-1.4,2.265-3.794,4.563-6.348,3.819a4.63,4.63,0,0,1-2.924-3.284,12.472,12.472,0,0,1-.173-4.561c.342-3.665.95-7.455,3.031-10.492,2.209-3.224,7.825-6.485,10.135-1.994,2.288,4.449-1.4,12.742-3.721,16.512" transform="translate(-50.674 1.304)" fill="#f0c198"/>
      <path id="Trazado_173812" data-name="Trazado 173812" d="M39.942,27.535a7.374,7.374,0,0,0,6.237-3.656.252.252,0,0,0-.069-.351.25.25,0,0,0-.35.069c-2.184,3.236-5.154,4.2-8.828,2.854a.255.255,0,0,0-.323.151.252.252,0,0,0,.151.324,9.277,9.277,0,0,0,3.182.609" transform="translate(79.237 0.248)" fill="#47112c"/>
      <path id="Trazado_173813" data-name="Trazado 173813" d="M20.466,23.85a.249.249,0,0,0,.128-.035.253.253,0,0,0,.09-.346,7.723,7.723,0,0,0-1.781-2.29c-.656-.506-.985-.084-1.225.221a1.839,1.839,0,0,1-.6.552,5.086,5.086,0,0,1-1.975.253,8.486,8.486,0,0,0-1.216.065.253.253,0,0,0-.209.289.246.246,0,0,0,.29.209,8.366,8.366,0,0,1,1.14-.058,5.259,5.259,0,0,0,2.205-.31,2.335,2.335,0,0,0,.76-.687c.253-.321.264-.33.517-.134a7.228,7.228,0,0,1,1.654,2.147.254.254,0,0,0,.218.124" transform="translate(127.898 0.221)" fill="#47112c"/>
      <path id="Trazado_173814" data-name="Trazado 173814" d="M42.522,60.474a.256.256,0,0,0,.138-.04.252.252,0,0,0,.075-.349c-.569-.884-.264-1.681.092-2.6.588-1.532,1.32-3.438-1.974-6.27a.253.253,0,0,0-.33.383c3.026,2.6,2.418,4.179,1.832,5.7a3.087,3.087,0,0,0-.045,3.057.254.254,0,0,0,.212.116" transform="translate(78.24 0.541)" fill="#47112c"/>
      <path id="Trazado_173815" data-name="Trazado 173815" d="M22.669,21.04a.253.253,0,0,0,.069-.5,7.153,7.153,0,0,1-3.022-2.123,29.02,29.02,0,0,1-3-3.718c-.3-.436-.587-.884-.88-1.338-1.6-2.471-3.256-5.027-6.032-5.939a11.093,11.093,0,0,0-4.262-.317.253.253,0,1,0,.035.5,10.718,10.718,0,0,1,4.068.292c2.606.858,4.213,3.337,5.766,5.735.3.456.588.909.886,1.348a29.612,29.612,0,0,0,3.052,3.782A7.588,7.588,0,0,0,22.6,21.031a.273.273,0,0,0,.069.009" transform="translate(134.152 0.074)" fill="#47112c"/>
      <path id="Trazado_173816" data-name="Trazado 173816" d="M63.5,16.61a.253.253,0,0,0,.218-.124,23.4,23.4,0,0,0,1.79-4.268c.794-2.31,1.545-4.493,3.276-6.023a.253.253,0,0,0-.337-.379c-1.829,1.618-2.637,3.966-3.417,6.238a22.958,22.958,0,0,1-1.749,4.175.253.253,0,0,0,.09.346.249.249,0,0,0,.128.035" transform="translate(29.646 0.061)" fill="#47112c"/>
    </g>
    <g id="Grupo_172835" data-name="Grupo 172835" transform="translate(-1279.812 -11271.834)" clip-path="url(#clip-path-2)">
      <path id="Trazado_173817" data-name="Trazado 173817" d="M82.757,27.8c4.622-.089,8.575,3.416,11.067,7.309s4.046,8.358,6.805,12.066a22.584,22.584,0,0,0,6.763,6.032A50.032,50.032,0,0,1,91.784,51.4,28.66,28.66,0,0,1,80.131,45.46C74.3,40.179,71.2,28.022,82.757,27.8" fill="#907235"/>
      <path id="Trazado_173818" data-name="Trazado 173818" d="M90.984,40.162a.251.251,0,0,1-.221-.133,15.024,15.024,0,0,0-9.8-7.531.251.251,0,0,1-.189-.3.258.258,0,0,1,.3-.188,15.531,15.531,0,0,1,10.131,7.785.251.251,0,0,1-.1.338.247.247,0,0,1-.117.029" fill="#2a0f10"/>
      <path id="Trazado_173819" data-name="Trazado 173819" d="M223.253,71.116c6.04,8.664,9.061,19,12.856,28.86,1.663,4.321,3.612,8.746,7.16,11.72,1.418,1.189,4.245,2.664,4.776,4.58.584,2.109-.828,2.158-2.6,1.447-9.2-3.709-14.482-13.225-18.7-22.2s-8.614-18.688-17.166-23.711c-3.625-2.129-7.882-3.323-10.884-6.266-1.757-1.722-4.055-6.251-1.606-8.361,2.057-1.772,7.1-.092,9.313.647,6.892,2.3,12.738,7.387,16.849,13.284" fill="#f79e5b"/>
      <path id="Trazado_173820" data-name="Trazado 173820" d="M186.586,69c4.039,9.115,3.766,19.295,2.534,28.983-1.257,9.882-4.417,17.509-.255,27.317,1.862,4.388,4.718,8.471,5.343,13.2.47,3.563-.383,7.153-1.229,10.645q-1.914,7.9-3.829,15.793c-.645,2.663-.292,5.26-1.352,7.917a6.114,6.114,0,0,1-1.039,1.834,6.3,6.3,0,0,1-2.313,1.49,19.719,19.719,0,0,1-7.571,1.561,6.187,6.187,0,0,1-2.592-.42,2.641,2.641,0,0,1-1.6-1.961,3.341,3.341,0,0,1,1.19-2.618c1.758-1.767,4.251-2.807,5.6-4.9,1.572-2.451,1.646-6.231,1.865-9.053.816-10.507-1.732-18.678-9.7-26.014-3.815-3.514-8.133-6.555-11.282-10.676-4.723-6.18-7.891-15.4-9.619-22.91-1.936-8.418-3.042-17.4-1.5-25.974,1.072-5.986,3.862-11.825,8.571-15.673,4.4-3.594,12.485-6.082,17.908-3.264,4.928,2.561,8.757,9.943,10.878,14.731" fill="#e59158"/>
      <path id="Trazado_173821" data-name="Trazado 173821" d="M58.228,110.329A114.276,114.276,0,0,0,64.25,127.88c5.355,12.045,8.832,24.543,7.04,37.818a11.617,11.617,0,0,1-1.323,4.686c-1.853,2.965-6.281,4.185-6.91,7.625a2.478,2.478,0,0,0,.256,1.769c.589.923,1.848,1.085,2.943,1.138a23.993,23.993,0,0,0,8.41-.7c8.923-2.824,7.158-14.635,8.215-22.082a104.216,104.216,0,0,0,1.023-23.32c-.374-4.466-1.149-8.96-.548-13.4.946-6.97,5.345-13.186,4.859-20.261-.438-6.355-2.847-13.082-7.91-17.194-5.407-4.391-28.353-10.245-26.7,1.973a206.837,206.837,0,0,0,4.622,24.4" fill="#e59158"/>
      <path id="Trazado_173822" data-name="Trazado 173822" d="M55.061,91.374c.886,2.509,1.818,5,2.866,7.433,2.017,4.689,4.23,8.712,7.92,12.22a46.916,46.916,0,0,0,12.256,8.7l.274.127a45.929,45.929,0,0,0,15.412,3.726c36.332,2.964,69.063-23.58,105.439-25.941,4.966-.322,10.471-.382,14.113-3.773,3.811-3.548,4.12-9.459,3.423-14.619a30.325,30.325,0,0,0-3.991-12.2c-4.069-6.456-11.355-10.2-18.674-12.356-17.837-5.267-36.886-2.835-55.448-1.673-8.064.5-16.217.755-24.17-.675a75.055,75.055,0,0,1-21.764-7.9C82.434,38.982,72.933,31.684,66.249,22.151c-.765-1.091-1.662-2.318-2.987-2.461a4.36,4.36,0,0,0-1.915.367A54.445,54.445,0,0,0,34.705,41.14c-4.135,6.263-1.851,8.1,2.339,13.388A90.609,90.609,0,0,1,47.295,70.811c3.218,6.538,5.317,13.628,7.766,20.563" fill="#f79e5b"/>
      <path id="Trazado_173823" data-name="Trazado 173823" d="M13.685,7.065,10.268,12.7,5.781,20.09c-.69,1.138-1.4,2.531-.827,3.733a3.576,3.576,0,0,0,2.771,1.624,16.354,16.354,0,0,0,10.139-1.788,28.77,28.77,0,0,0,8.1-6.553,12.372,12.372,0,0,0,2.577-3.865c1.284-3.5-1.406-6.89-4.319-8.551-4.454-2.54-7.9-1.974-10.536,2.375" fill="#d25d2c"/>
      <path id="Trazado_173824" data-name="Trazado 173824" d="M42.506,1.52c-2.655.213-5.263.844-7.919,1.051-2.928.227-5.915-.061-8.774.609A13.611,13.611,0,0,0,16.2,11.952c-.626,1.874-.856,3.93-1.974,5.558-1.243,1.811-3.362,2.774-5.375,3.652L2.636,23.871a4.712,4.712,0,0,0-1.873,1.2,4.09,4.09,0,0,0-.719,2.282A15.463,15.463,0,0,0,6.239,40.82a4.46,4.46,0,0,1,1.145,1.02,5.493,5.493,0,0,1,.588,1.965c.627,2.849,3.087,5.017,5.809,6.067A25.266,25.266,0,0,0,22.4,51.1c9.9.206,20.394,1.513,29.255-3.633A32.95,32.95,0,0,0,63.6,35.514c2.844-4.933,5.4-10.627,4.878-16.4A20.036,20.036,0,0,0,60.1,4.871c-4.744-3.369-11.96-3.8-17.6-3.351" fill="#f79e5b"/>
      <path id="Trazado_173825" data-name="Trazado 173825" d="M10.1,31.623a.543.543,0,1,1-.766-.04.541.541,0,0,1,.766.04" fill="#ac3f11"/>
      <path id="Trazado_173826" data-name="Trazado 173826" d="M13.51,32.274a.543.543,0,1,1-.766-.04.541.541,0,0,1,.766.04" fill="#ac3f11"/>
      <path id="Trazado_173827" data-name="Trazado 173827" d="M13.849,29.736a.543.543,0,1,1-.766-.04.541.541,0,0,1,.766.04" fill="#ac3f11"/>
      <path id="Trazado_173828" data-name="Trazado 173828" d="M10.059,40.9a.248.248,0,0,1-.084-.015,7.047,7.047,0,0,1-3.731-3.534,20.535,20.535,0,0,1-1.572-4.877.25.25,0,0,1,.487-.113,20.173,20.173,0,0,0,1.529,4.76,6.555,6.555,0,0,0,3.455,3.294.25.25,0,0,1-.084.485" fill="#790d13"/>
      <path id="Trazado_173829" data-name="Trazado 173829" d="M22.714,42.49a37.534,37.534,0,0,1-6.274-.7l-7.329-1.25a.25.25,0,1,1,.084-.492l7.329,1.25c3.014.513,6.433,1.094,9.6.312a11.708,11.708,0,0,0,7.087-5.168.251.251,0,0,1,.426.264,12.216,12.216,0,0,1-7.392,5.389,14.594,14.594,0,0,1-3.528.4" fill="#790d13"/>
      <path id="Trazado_173830" data-name="Trazado 173830" d="M35.708,38.234a.248.248,0,0,1-.211-.116,3.246,3.246,0,0,0-3.134-1.441.25.25,0,0,1-.072-.494,3.764,3.764,0,0,1,3.628,1.667.25.25,0,0,1-.077.345.254.254,0,0,1-.134.039" fill="#790d13"/>
      <path id="Trazado_173831" data-name="Trazado 173831" d="M7.882,41.687a2.371,2.371,0,0,1-1.165-.3.25.25,0,1,1,.246-.435A2.046,2.046,0,0,0,9.54,40.38a.25.25,0,1,1,.407.289,2.547,2.547,0,0,1-2.065,1.018" fill="#790d13"/>
      <path id="Trazado_173832" data-name="Trazado 173832" d="M3.351,24.891a3,3,0,0,0-2.03.842A2.161,2.161,0,0,0,.9,26.921c-.151,1.82,1.091,3.429,2.264,4.83a2.31,2.31,0,0,0,1.423,1c.776.068,1.394-.648,1.715-1.358a5.722,5.722,0,0,1,1.1-2.04c.807-.727,2.161-.709,2.8-1.587a1.745,1.745,0,0,0,.317-.969c.108-3.3-5.345-2.145-7.165-1.907" fill="#86452b"/>
      <path id="Trazado_173833" data-name="Trazado 173833" d="M7,29.807a.242.242,0,0,1-.079-.013.25.25,0,0,1-.158-.316,4.785,4.785,0,0,1,1.468-2.16.25.25,0,1,1,.321.383,4.351,4.351,0,0,0-1.315,1.935A.249.249,0,0,1,7,29.807" fill="#790d13"/>
      <path id="Trazado_173834" data-name="Trazado 173834" d="M1.916,29.929a.248.248,0,0,1-.237-.172,5.271,5.271,0,0,1-.265-1.575.25.25,0,1,1,.5-.008A4.8,4.8,0,0,0,2.153,29.6a.249.249,0,0,1-.159.315.236.236,0,0,1-.078.013" fill="#790d13"/>
      <path id="Trazado_173835" data-name="Trazado 173835" d="M35.408,17.516a3.082,3.082,0,1,1-3.136-3.026,3.08,3.08,0,0,1,3.136,3.026" fill="#790d13"/>
      <path id="Trazado_173836" data-name="Trazado 173836" d="M18.373,17.5c-.416,1.5-1.283,2.585-1.936,2.427s-.847-1.5-.431-3,1.283-2.584,1.937-2.427.846,1.5.43,3" fill="#790d13"/>
      <path id="Trazado_173837" data-name="Trazado 173837" d="M50.009.206A9.861,9.861,0,0,0,49,.046a4.691,4.691,0,0,0-1.39.011c-1.684.333-2.647,2.278-2.473,3.985a9.742,9.742,0,0,0,2.2,4.585,39.515,39.515,0,0,1,6.4,14.027c.216.947.5,2.044,1.387,2.436a2.911,2.911,0,0,0,2.589-.577,28.688,28.688,0,0,0,7.313-6.545,16.691,16.691,0,0,0,3.554-7.192,9.172,9.172,0,0,0-1.811-7.62,3.692,3.692,0,0,0-1.31-1.026c-2.6-1.094-5.206.97-7.82.588C55.044,2.339,52.689.772,50.009.206" fill="#d25d2c"/>
      <path id="Trazado_173838" data-name="Trazado 173838" d="M39.386,13.05a.251.251,0,0,1-.141-.043,17.684,17.684,0,0,0-4.211-2.34,5.773,5.773,0,0,0-4.561.184.251.251,0,1,1-.24-.44,6.277,6.277,0,0,1,4.96-.218,18.111,18.111,0,0,1,4.334,2.4.25.25,0,0,1-.141.457" fill="#790d13"/>
      <path id="Trazado_173839" data-name="Trazado 173839" d="M18.334,12.353a.272.272,0,0,1-.049-.005.25.25,0,0,1-.2-.294.946.946,0,0,0-.312-.884.936.936,0,0,0-.924-.15.251.251,0,0,1-.182-.467,1.42,1.42,0,0,1,1.909,1.6.25.25,0,0,1-.245.2" fill="#790d13"/>
      <path id="Trazado_173840" data-name="Trazado 173840" d="M71.4,120.93c.855,2.021,1.771,4.014,2.717,5.98,7.918,16.463,14.764,30.278,12.253,48.892a11.634,11.634,0,0,1-1.324,4.686c-1.853,2.965-6.281,4.185-6.909,7.624a2.475,2.475,0,0,0,.255,1.77c.588.923,1.848,1.085,2.942,1.138a24,24,0,0,0,8.412-.7c8.921-2.824,7.157-14.635,8.213-22.083a104.145,104.145,0,0,0,1.024-23.319c-.374-4.466-1.15-8.96-.547-13.4.945-6.97,5.344-13.186,4.857-20.261-.437-6.355-2.847-13.082-7.909-17.194C89.052,88.92,80.1,88.779,71.968,89.556c-3.759.359-4.862.771-5.664,4.282s-.248,7.763.313,11.282A68.427,68.427,0,0,0,71.4,120.93" fill="#f79e5b"/>
      <path id="Trazado_173841" data-name="Trazado 173841" d="M216.575,74.2c4.039,9.115,3.766,19.295,2.534,28.984-1.257,9.881-4.417,17.508-.255,27.316,1.862,4.388,4.718,8.471,5.343,13.2.47,3.563-.383,7.153-1.229,10.646q-1.914,7.9-3.829,15.792c0,4.883-.493,10.256-5.885,11.773a19.287,19.287,0,0,1-7.141.269c-1.242-.125-2.659-.384-3.292-1.459a2.924,2.924,0,0,1,.45-3.154,13.978,13.978,0,0,1,2.543-2.214c5.968-4.765,6.315-13.005,5.31-20.009a29.162,29.162,0,0,0-9.5-17.375c-3.815-3.514-8.133-6.555-11.282-10.676-4.723-6.18-7.891-15.4-9.619-22.91-1.936-8.418-3.042-17.4-1.505-25.974,1.072-5.986,3.862-11.824,8.571-15.673,4.4-3.594,12.485-6.082,17.907-3.264,4.929,2.561,8.758,9.943,10.879,14.731" fill="#f79e5b"/>
      <path id="Trazado_173842" data-name="Trazado 173842" d="M42.809,50.512a.25.25,0,0,1-.088-.484l5.757-2.154a39.076,39.076,0,0,0,4.563-1.931,19.254,19.254,0,0,0,8.345-8.727.249.249,0,0,1,.451.213,19.751,19.751,0,0,1-8.561,8.955,39.482,39.482,0,0,1-4.622,1.959L42.9,50.5a.248.248,0,0,1-.088.016" fill="#790d13"/>
      <path id="Trazado_173843" data-name="Trazado 173843" d="M59.639,56.967C55.568,62.514,50.584,67.627,44.3,70.43c-.036,2.33,2.961,3.52,3.749,5.713a10.515,10.515,0,0,1,.341,2.548,17.232,17.232,0,0,0,1.737,5.294q4.75,10.431,9.935,20.657c.575,1.134,1.547,2.46,2.78,2.151a2.617,2.617,0,0,0,1.286-.979,26.56,26.56,0,0,0,2.907-4.631A118.885,118.885,0,0,0,80.219,36.8a5.87,5.87,0,0,0-.855-3.087,2.316,2.316,0,0,0-2.8-.733c-.635-1.864-1.844-6.177-3.918-4.047-1.516,1.557-1.967,6.7-2.712,8.752A77.092,77.092,0,0,1,59.639,56.967" fill="#907235"/>
      <path id="Trazado_173844" data-name="Trazado 173844" d="M62.277,85.349a.246.246,0,0,1-.148-.049.249.249,0,0,1-.053-.349c9.992-13.5,12.157-31.054,14.067-46.538a.254.254,0,0,1,.279-.217.248.248,0,0,1,.217.278c-1.917,15.545-4.091,33.164-14.161,46.773a.249.249,0,0,1-.2.1" fill="#2a0f10"/>
      <path id="Trazado_173845" data-name="Trazado 173845" d="M56.1,76.469a.246.246,0,0,1-.191-.088.249.249,0,0,1,.028-.352c3.906-3.336,6.327-8.218,8.463-12.525,2.784-5.614,5.662-11.419,7.475-17.533a.245.245,0,0,1,.311-.168.249.249,0,0,1,.168.311c-1.823,6.155-4.712,11.979-7.507,17.613-2.156,4.349-4.6,9.279-8.586,12.682a.248.248,0,0,1-.161.06" fill="#2a0f10"/>
      <path id="Trazado_173846" data-name="Trazado 173846" d="M68.655,113.737a.251.251,0,0,1-.241-.183l-1.676-5.983a.25.25,0,1,1,.482-.135L68.9,113.42a.251.251,0,0,1-.174.308.257.257,0,0,1-.067.009" fill="#790d13"/>
      <path id="Trazado_173847" data-name="Trazado 173847" d="M101.143,123.839a.257.257,0,0,1-.12-.03.252.252,0,0,1-.1-.34,106.86,106.86,0,0,0,6.272-13.646.25.25,0,0,1,.469.176,107.734,107.734,0,0,1-6.3,13.71.252.252,0,0,1-.22.13" fill="#790d13"/>
      <path id="Trazado_173848" data-name="Trazado 173848" d="M180.272,101.727a.251.251,0,0,1-.249-.228l-.747-8.265a.25.25,0,0,1,.226-.272.242.242,0,0,1,.272.227l.747,8.266a.25.25,0,0,1-.227.271h-.022" fill="#790d13"/>
      <path id="Trazado_173849" data-name="Trazado 173849" d="M173.73,177.212a.249.249,0,0,1-.25-.246,4.776,4.776,0,0,1,1.661-3.673.253.253,0,0,1,.354.028.251.251,0,0,1-.03.353,4.271,4.271,0,0,0-1.485,3.284.25.25,0,0,1-.246.254Z" fill="#790d13"/>
      <path id="Trazado_173850" data-name="Trazado 173850" d="M177.579,177.993a.25.25,0,0,1-.248-.223,3.959,3.959,0,0,1,1.29-3.346.25.25,0,1,1,.332.375,3.455,3.455,0,0,0-1.126,2.917.249.249,0,0,1-.221.275.123.123,0,0,1-.027,0" fill="#790d13"/>
      <path id="Trazado_173851" data-name="Trazado 173851" d="M203.786,181.923h-.013a.251.251,0,0,1-.237-.263,5.4,5.4,0,0,1,1.687-3.625.25.25,0,0,1,.342.366,4.88,4.88,0,0,0-1.529,3.285.252.252,0,0,1-.25.237" fill="#790d13"/>
      <path id="Trazado_173852" data-name="Trazado 173852" d="M208.544,182.568a.261.261,0,0,1-.082-.014.25.25,0,0,1-.154-.318,24.108,24.108,0,0,1,1.712-3.8.244.244,0,0,1,.339-.1.247.247,0,0,1,.1.339,23.67,23.67,0,0,0-1.675,3.725.249.249,0,0,1-.236.168" fill="#790d13"/>
      <path id="Trazado_173853" data-name="Trazado 173853" d="M205.4,137.106a.246.246,0,0,1-.147-.048.25.25,0,0,1-.055-.349,7.659,7.659,0,0,0,1.466-4.417.25.25,0,0,1,.25-.248h0a.249.249,0,0,1,.248.251A8.18,8.18,0,0,1,205.6,137a.249.249,0,0,1-.2.1" fill="#790d13"/>
      <path id="Trazado_173854" data-name="Trazado 173854" d="M174.383,130.478a.245.245,0,0,1-.149-.05.248.248,0,0,1-.051-.349,19.359,19.359,0,0,0,2.277-3.98.25.25,0,0,1,.461.195,19.75,19.75,0,0,1-2.338,4.083.249.249,0,0,1-.2.1" fill="#790d13"/>
      <path id="Trazado_173855" data-name="Trazado 173855" d="M80.075,190.975a.215.215,0,0,1-.043,0,.248.248,0,0,1-.2-.289,8.051,8.051,0,0,1,2.114-4.171.25.25,0,0,1,.36.348,7.55,7.55,0,0,0-1.982,3.909.25.25,0,0,1-.246.207" fill="#790d13"/>
      <path id="Trazado_173856" data-name="Trazado 173856" d="M83.9,191.156a.25.25,0,0,1-.231-.345,19.77,19.77,0,0,1,2.311-4.143.25.25,0,1,1,.4.295A19.279,19.279,0,0,0,84.133,191a.25.25,0,0,1-.231.155" fill="#790d13"/>
      <path id="Trazado_173857" data-name="Trazado 173857" d="M64.7,180.339l-.029,0a.249.249,0,0,1-.219-.277,6.806,6.806,0,0,1,1.395-3.386.251.251,0,1,1,.395.309,6.31,6.31,0,0,0-1.294,3.135.25.25,0,0,1-.248.221" fill="#790d13"/>
      <path id="Trazado_173858" data-name="Trazado 173858" d="M68.89,181.151h-.023a.25.25,0,0,1-.226-.272,10.358,10.358,0,0,1,1.436-4.353.252.252,0,0,1,.343-.085.249.249,0,0,1,.085.343,9.856,9.856,0,0,0-1.366,4.141.251.251,0,0,1-.249.227" fill="#790d13"/>
      <path id="Trazado_173859" data-name="Trazado 173859" d="M87.38,150.675a.25.25,0,0,1-.114-.473,8.913,8.913,0,0,0,3.721-3.645.25.25,0,1,1,.44.238,9.436,9.436,0,0,1-3.933,3.853.255.255,0,0,1-.114.027" fill="#790d13"/>
      <path id="Trazado_173860" data-name="Trazado 173860" d="M71.323,140.219a.25.25,0,0,1-.118-.47,6.3,6.3,0,0,0,2.987-3.6.25.25,0,0,1,.477.152,6.8,6.8,0,0,1-3.228,3.888.249.249,0,0,1-.118.03" fill="#790d13"/>
      <path id="Trazado_173861" data-name="Trazado 173861" d="M61.949,12.695a.25.25,0,0,1-.232-.157A43.912,43.912,0,0,0,57.556,4.57a.25.25,0,1,1,.418-.275,44.475,44.475,0,0,1,4.207,8.057.25.25,0,0,1-.139.325.256.256,0,0,1-.093.018" fill="#790d13"/>
    </g>
    <path id="Trazado_178017" data-name="Trazado 178017" d="M20,87a9,9,0,0,1-9-9V33.439l-11-4.7,11-4.7V9a9,9,0,0,1,9-9H83.375a9,9,0,0,1,9,9V78a9,9,0,0,1-9,9Z" transform="translate(-1475 -11289)" fill="#c4d1ff"/>
    <path id="Trazado_178018" data-name="Trazado 178018" d="M1.359,17,3.336,5.625,6.6,5.633a4.473,4.473,0,0,1,2.066.52,3.905,3.905,0,0,1,1.488,1.426,4.883,4.883,0,0,1,.688,2.094,6.911,6.911,0,0,1-.016,1.391l-.055.414a6.5,6.5,0,0,1-1.965,4.012A5.558,5.558,0,0,1,4.875,17ZM5.3,7.523l-1.32,7.594.953.008a3.127,3.127,0,0,0,2.535-1.156,5.976,5.976,0,0,0,1.1-3.492l.016-.25A3.151,3.151,0,0,0,8.086,8.25a1.879,1.879,0,0,0-1.539-.719ZM13.711,17H11.492l1.469-8.453H15.18ZM13.219,6.4a1.1,1.1,0,0,1,.344-.867A1.323,1.323,0,0,1,15.3,5.492a1.1,1.1,0,0,1,.383.828,1.132,1.132,0,0,1-.324.844,1.215,1.215,0,0,1-.887.375,1.235,1.235,0,0,1-.863-.3A1.091,1.091,0,0,1,13.219,6.4Zm6.555,1.984a2.4,2.4,0,0,1,1.906.945L22.508,5h2.211L22.641,17H20.672l.125-.906a2.736,2.736,0,0,1-2.2,1.07,2.433,2.433,0,0,1-1.383-.414,2.607,2.607,0,0,1-.918-1.168,4.7,4.7,0,0,1-.355-1.7,6.4,6.4,0,0,1,.023-.953l.047-.352A6.767,6.767,0,0,1,16.73,10.3a3.766,3.766,0,0,1,1.313-1.461A3.094,3.094,0,0,1,19.773,8.383Zm-1.6,4.547a6.327,6.327,0,0,0-.039,1q.078,1.375,1.109,1.4a1.885,1.885,0,0,0,1.617-.875l.6-3.359a1.248,1.248,0,0,0-1.219-.875,1.606,1.606,0,0,0-1.34.621A4.176,4.176,0,0,0,18.172,12.93Zm13.758.852,2.414-5.234H36.8l-4.945,9.727a4.231,4.231,0,0,1-1.246,1.641,2.723,2.723,0,0,1-1.652.523,5.035,5.035,0,0,1-1.062-.164l.164-1.719.3.016a1.651,1.651,0,0,0,1.578-.789l.484-.9L29.039,8.547H31.32Zm9.117-5.391a3.39,3.39,0,0,1,1.926.574A3.234,3.234,0,0,1,44.16,10.5a4.762,4.762,0,0,1,.27,2.176,5.143,5.143,0,0,1-1.4,3.262,3.96,3.96,0,0,1-3.02,1.215A3.38,3.38,0,0,1,38.1,16.59a3.222,3.222,0,0,1-1.187-1.527,4.657,4.657,0,0,1-.273-2.156,5.3,5.3,0,0,1,1.422-3.328A3.878,3.878,0,0,1,41.047,8.391ZM38.82,13.706a1.95,1.95,0,0,0,.352,1.182,1.168,1.168,0,0,0,.945.449,1.712,1.712,0,0,0,1.594-.932,4.647,4.647,0,0,0,.539-2.531,2.122,2.122,0,0,0-.363-1.2,1.149,1.149,0,0,0-.949-.464,1.715,1.715,0,0,0-1.574.924A4.6,4.6,0,0,0,38.82,13.706ZM50.3,16.125a2.919,2.919,0,0,1-2.328,1.031,2.172,2.172,0,0,1-1.844-.875,3.2,3.2,0,0,1-.484-2.266l.914-5.469h2.2l-.93,5.5a2.175,2.175,0,0,0-.008.485.8.8,0,0,0,.867.806,2.014,2.014,0,0,0,1.7-.79l1.055-6h2.219L52.188,17H50.133ZM7.781,37.156a3.677,3.677,0,0,1-1.965-.543,3.292,3.292,0,0,1-1.277-1.469,4.093,4.093,0,0,1-.328-2.059l.023-.312a5.465,5.465,0,0,1,.719-2.266A4.341,4.341,0,0,1,6.5,28.918a3.827,3.827,0,0,1,2.094-.527,2.924,2.924,0,0,1,2.473,1.2,4.117,4.117,0,0,1,.637,2.962l-.125.962H6.4a1.814,1.814,0,0,0,.4,1.313,1.521,1.521,0,0,0,1.172.508,2.7,2.7,0,0,0,2.109-.937l1.008,1.25A3.135,3.135,0,0,1,9.711,36.77,4.5,4.5,0,0,1,7.781,37.156Zm.7-6.945a1.565,1.565,0,0,0-1.082.383,3.363,3.363,0,0,0-.848,1.383H9.586l.047-.2a2.071,2.071,0,0,0,.008-.594,1.134,1.134,0,0,0-.383-.707A1.2,1.2,0,0,0,8.484,30.211ZM17.125,37a2.281,2.281,0,0,1-.086-.766,2.863,2.863,0,0,1-2.156.922,2.594,2.594,0,0,1-1.84-.723,2.186,2.186,0,0,1-.684-1.746,2.527,2.527,0,0,1,1.16-2.121,5.266,5.266,0,0,1,2.965-.738l1.031.016.109-.508a1.764,1.764,0,0,0,.023-.492.846.846,0,0,0-.277-.574.955.955,0,0,0-.629-.215,1.345,1.345,0,0,0-.875.254,1.231,1.231,0,0,0-.461.777l-2.211.008a2.457,2.457,0,0,1,1.113-1.965,4.312,4.312,0,0,1,2.613-.738,3.117,3.117,0,0,1,2.25.855,2.5,2.5,0,0,1,.68,2.121L19.2,35.414l-.039.5a2.412,2.412,0,0,0,.133.938L19.289,37Zm-1.7-1.555a2.017,2.017,0,0,0,1.664-.828l.273-1.461-.766-.008a2.139,2.139,0,0,0-1.758.742,1.292,1.292,0,0,0-.242.633.75.75,0,0,0,.176.668A.891.891,0,0,0,15.43,35.445ZM25.1,26.469l-.367,2.078h1.406L25.852,30.2H24.445l-.719,4.234a1.077,1.077,0,0,0,.063.609q.109.211.531.227.125.008.672-.039l-.156,1.727a3.706,3.706,0,0,1-1.266.18,1.985,1.985,0,0,1-1.617-.68,2.456,2.456,0,0,1-.437-1.8l.727-4.461h-1.2l.289-1.656h1.2l.359-2.078Zm8.313,2.07-.18.961a3.112,3.112,0,0,1,2.477-1.109,2.379,2.379,0,0,1,1.3.359,1.679,1.679,0,0,1,.7.93,3.255,3.255,0,0,1,2.625-1.289,2.126,2.126,0,0,1,1.754.8,3.271,3.271,0,0,1,.5,2.234l-.016.2L41.664,37H39.453l.9-5.4a3.908,3.908,0,0,0,.023-.54.837.837,0,0,0-.937-.845,1.86,1.86,0,0,0-1.555.97l-.023.18L36.875,37h-2.2l.9-5.383a3.9,3.9,0,0,0,.023-.539.836.836,0,0,0-.93-.852,1.867,1.867,0,0,0-1.508.789L32.1,37H29.9l1.461-8.453ZM47,33.781l2.414-5.234h2.453l-4.945,9.727a4.231,4.231,0,0,1-1.246,1.641,2.723,2.723,0,0,1-1.652.523,5.035,5.035,0,0,1-1.062-.164l.164-1.719.3.016a1.651,1.651,0,0,0,1.578-.789l.484-.9-1.383-8.336h2.281ZM8.137,57l1.18-6.8H8.1l.289-1.648,1.219-.008.109-.844a3.181,3.181,0,0,1,3.391-2.875,7.33,7.33,0,0,1,1.2.163l-.2,1.751a2.732,2.732,0,0,0-.648-.094,1.615,1.615,0,0,0-1,.3,1.355,1.355,0,0,0-.52.918l-.117.69h1.633L13.16,50.2H11.535L10.355,57Zm9.883-8.609a3.39,3.39,0,0,1,1.926.574A3.234,3.234,0,0,1,21.133,50.5a4.762,4.762,0,0,1,.27,2.176A5.143,5.143,0,0,1,20,55.941a3.96,3.96,0,0,1-3.02,1.215,3.38,3.38,0,0,1-1.906-.566,3.222,3.222,0,0,1-1.187-1.527,4.657,4.657,0,0,1-.273-2.156,5.3,5.3,0,0,1,1.422-3.328A3.878,3.878,0,0,1,18.02,48.391Zm-2.227,5.315a1.95,1.95,0,0,0,.352,1.182,1.168,1.168,0,0,0,.945.449,1.712,1.712,0,0,0,1.594-.932,4.647,4.647,0,0,0,.539-2.531,2.122,2.122,0,0,0-.363-1.2,1.149,1.149,0,0,0-.949-.464,1.715,1.715,0,0,0-1.574.924A4.6,4.6,0,0,0,15.793,53.706Zm11.078-5.315a3.39,3.39,0,0,1,1.926.574A3.234,3.234,0,0,1,29.984,50.5a4.762,4.762,0,0,1,.27,2.176,5.143,5.143,0,0,1-1.4,3.262,3.96,3.96,0,0,1-3.02,1.215,3.38,3.38,0,0,1-1.906-.566,3.222,3.222,0,0,1-1.187-1.527,4.657,4.657,0,0,1-.273-2.156,5.3,5.3,0,0,1,1.422-3.328A3.878,3.878,0,0,1,26.871,48.391Zm-2.227,5.315A1.95,1.95,0,0,0,25,54.887a1.168,1.168,0,0,0,.945.449,1.712,1.712,0,0,0,1.594-.932,4.647,4.647,0,0,0,.539-2.531,2.122,2.122,0,0,0-.363-1.2,1.149,1.149,0,0,0-.949-.464,1.715,1.715,0,0,0-1.574.924A4.6,4.6,0,0,0,24.645,53.706Zm10.438-5.323a2.4,2.4,0,0,1,1.906.945L37.816,45h2.211L37.949,57H35.98l.125-.906a2.736,2.736,0,0,1-2.2,1.07,2.433,2.433,0,0,1-1.383-.414,2.607,2.607,0,0,1-.918-1.168,4.7,4.7,0,0,1-.355-1.7,6.4,6.4,0,0,1,.023-.953l.047-.352a6.767,6.767,0,0,1,.723-2.281,3.766,3.766,0,0,1,1.313-1.461A3.1,3.1,0,0,1,35.082,48.383Zm-1.6,4.547a6.327,6.327,0,0,0-.039,1q.078,1.375,1.109,1.4a1.885,1.885,0,0,0,1.617-.875l.6-3.359a1.248,1.248,0,0,0-1.219-.875,1.606,1.606,0,0,0-1.34.621A4.176,4.176,0,0,0,33.48,52.93Zm8.711.586a4.545,4.545,0,0,1,.418-1.715,3.918,3.918,0,0,1,1.078-1.289,10.061,10.061,0,0,0,.98-.864,2,2,0,0,0,.586-1.583.8.8,0,0,0-.883-.784,1.25,1.25,0,0,0-.937.352,1.835,1.835,0,0,0-.508,1l-2.211.016A3.2,3.2,0,0,1,41.859,46.3a3.836,3.836,0,0,1,2.621-.836,3.254,3.254,0,0,1,2.3.844,2.6,2.6,0,0,1,.727,2.164A3.71,3.71,0,0,1,46,50.992l-1,.828a2.8,2.8,0,0,0-.875,1.688Zm-.727,2.438a1.161,1.161,0,0,1,.336-.883,1.238,1.238,0,0,1,.883-.375,1.191,1.191,0,0,1,.867.316,1.213,1.213,0,0,1,.055,1.715,1.215,1.215,0,0,1-.891.383,1.265,1.265,0,0,1-.879-.32A1.121,1.121,0,0,1,41.465,55.953Z" transform="translate(-1449 -11274)" fill="#12263f"/>
    <g id="Grupo_172838" data-name="Grupo 172838" transform="translate(-1467 -11103.017)" clip-path="url(#clip-path-3)">
      <path id="Trazado_173862" data-name="Trazado 173862" d="M59.671,22.339H1.447A1.447,1.447,0,0,1,0,20.892L9.838,2.571a1.447,1.447,0,0,1,1.448-1.447H49.668a1.447,1.447,0,0,1,1.447,1.447l10,18.321a1.447,1.447,0,0,1-1.447,1.447" fill="#e66450"/>
      <path id="Trazado_173863" data-name="Trazado 173863" d="M22.5,19.782H2.876a.5.5,0,0,1,0-1H22.5a.5.5,0,0,1,0,1" fill="#fff"/>
      <path id="Trazado_173864" data-name="Trazado 173864" d="M29.308,19.782H23.889a.5.5,0,0,1,0-1h5.419a.5.5,0,0,1,0,1" fill="#fff"/>
      <path id="Trazado_173865" data-name="Trazado 173865" d="M5.894,15.2a.494.494,0,0,1-.24-.062.5.5,0,0,1-.2-.678L9.76,6.6a6.369,6.369,0,0,1,5.586-3.309h2.707a.5.5,0,0,1,0,1H15.346a5.37,5.37,0,0,0-4.709,2.79L6.332,14.936a.5.5,0,0,1-.438.26" fill="#fff"/>
      <path id="Trazado_173866" data-name="Trazado 173866" d="M49.584,2.247H11.005a1.124,1.124,0,1,1,0-2.247H49.584a1.124,1.124,0,1,1,0,2.247" fill="#bf5343"/>
    </g>
    <path id="Trazado_178019" data-name="Trazado 178019" d="M20.35,87H20a9,9,0,0,1-9-9V9a9,9,0,0,1,9-9H97.376a9,9,0,0,1,9,9V78a9,9,0,0,1-9,9H29.818L25.084,98.083Z" transform="translate(-1224.625 -11116.917) rotate(180)" fill="#c4d1ff"/>
    <path id="Trazado_178020" data-name="Trazado 178020" d="M4.734,17.156a4.008,4.008,0,0,1-2-.535,3.612,3.612,0,0,1-1.367-1.477A5.468,5.468,0,0,1,.789,12.93,8.9,8.9,0,0,1,1.063,10.2,7.3,7.3,0,0,1,2.219,7.641,5.256,5.256,0,0,1,4.09,5.992a4.844,4.844,0,0,1,2.324-.523,3.966,3.966,0,0,1,2.008.543A3.587,3.587,0,0,1,9.773,7.5a5.532,5.532,0,0,1,.563,2.207,9.188,9.188,0,0,1-.3,2.828,7.177,7.177,0,0,1-1.164,2.516,5.216,5.216,0,0,1-1.848,1.594A4.83,4.83,0,0,1,4.734,17.156ZM7.977,11l.063-.742a3.626,3.626,0,0,0-.371-2.109A1.567,1.567,0,0,0,6.3,7.4a2.473,2.473,0,0,0-2.27,1.266,7.455,7.455,0,0,0-.949,3.672,3.762,3.762,0,0,0,.367,2.129,1.563,1.563,0,0,0,1.383.777,2.345,2.345,0,0,0,2.031-.957,5.79,5.79,0,0,0,1.055-2.863Zm6.2-1.516a2.946,2.946,0,0,1,2.289-1.094,2.143,2.143,0,0,1,1.848.9,3.548,3.548,0,0,1,.441,2.379L17.867,17h-2.2l.9-5.358a2.6,2.6,0,0,0,.016-.563.885.885,0,0,0-.984-.868,1.9,1.9,0,0,0-1.562.766L12.969,17h-2.2L12.844,5h2.211Zm12.836-.945-.187,1a3.042,3.042,0,0,1,2.461-1.148,2.028,2.028,0,0,1,1.766.875,3.526,3.526,0,0,1,.414,2.359L30.578,17h-2.2l.906-5.4a2.528,2.528,0,0,0,.016-.555.9.9,0,0,0-1-.82,1.9,1.9,0,0,0-1.555.8L25.688,17h-2.2l1.469-8.453Zm10.125-.148a3.39,3.39,0,0,1,1.926.574A3.234,3.234,0,0,1,40.254,10.5a4.762,4.762,0,0,1,.27,2.176,5.143,5.143,0,0,1-1.4,3.262,3.96,3.96,0,0,1-3.02,1.215A3.38,3.38,0,0,1,34.2,16.59a3.222,3.222,0,0,1-1.187-1.527,4.657,4.657,0,0,1-.273-2.156,5.3,5.3,0,0,1,1.422-3.328A3.878,3.878,0,0,1,37.141,8.391Zm-2.227,5.315a1.95,1.95,0,0,0,.352,1.182,1.168,1.168,0,0,0,.945.449A1.712,1.712,0,0,0,37.8,14.4a4.647,4.647,0,0,0,.539-2.531,2.122,2.122,0,0,0-.363-1.2,1.149,1.149,0,0,0-.949-.464,1.715,1.715,0,0,0-1.574.924A4.6,4.6,0,0,0,34.914,13.706Zm7.836.966a1.22,1.22,0,0,1,.895.324,1.111,1.111,0,0,1,.371.855,1.151,1.151,0,0,1-.344.879,1.323,1.323,0,0,1-1.766.051,1.149,1.149,0,0,1-.375-.852,1.161,1.161,0,0,1,.336-.883A1.238,1.238,0,0,1,42.75,14.672Zm3.586,0A1.22,1.22,0,0,1,47.23,15a1.111,1.111,0,0,1,.371.855,1.151,1.151,0,0,1-.344.879,1.323,1.323,0,0,1-1.766.051,1.149,1.149,0,0,1-.375-.852,1.161,1.161,0,0,1,.336-.883A1.238,1.238,0,0,1,46.336,14.672Zm3.516,0a1.22,1.22,0,0,1,.895.324,1.111,1.111,0,0,1,.371.855,1.151,1.151,0,0,1-.344.879,1.323,1.323,0,0,1-1.766.051,1.149,1.149,0,0,1-.375-.852,1.161,1.161,0,0,1,.336-.883A1.238,1.238,0,0,1,49.852,14.672ZM59.242,17H56.953L58.922,5.625h2.289ZM4.219,32.383a2.4,2.4,0,0,1,1.906.945L6.953,29H9.164L7.086,41H5.117l.125-.906a2.736,2.736,0,0,1-2.2,1.07,2.433,2.433,0,0,1-1.383-.414,2.607,2.607,0,0,1-.918-1.168,4.7,4.7,0,0,1-.355-1.7,6.4,6.4,0,0,1,.023-.953l.047-.352A6.767,6.767,0,0,1,1.176,34.3a3.766,3.766,0,0,1,1.313-1.461A3.1,3.1,0,0,1,4.219,32.383Zm-1.6,4.547a6.327,6.327,0,0,0-.039,1q.078,1.375,1.109,1.4A1.885,1.885,0,0,0,5.3,38.453l.6-3.359a1.248,1.248,0,0,0-1.219-.875,1.606,1.606,0,0,0-1.34.621A4.176,4.176,0,0,0,2.617,36.93ZM11.172,41H8.953l1.469-8.453h2.219ZM10.68,30.4a1.1,1.1,0,0,1,.344-.867,1.323,1.323,0,0,1,1.734-.039,1.1,1.1,0,0,1,.383.828,1.132,1.132,0,0,1-.324.844,1.215,1.215,0,0,1-.887.375,1.235,1.235,0,0,1-.863-.3A1.091,1.091,0,0,1,10.68,30.4Zm5.844,2.141-.187,1A3.042,3.042,0,0,1,18.8,32.391a2.028,2.028,0,0,1,1.766.875,3.526,3.526,0,0,1,.414,2.359L20.086,41h-2.2l.906-5.4a2.528,2.528,0,0,0,.016-.555.9.9,0,0,0-1-.82,1.9,1.9,0,0,0-1.555.8L15.2,41h-2.2l1.469-8.453Zm6.555.594-1.117-.656a6.183,6.183,0,0,0,1.008-2.031L23.227,29h1.758l-.18,1.156A4.806,4.806,0,0,1,23.078,33.133Zm5.906-2.664-.367,2.078h1.406L29.734,34.2H28.328l-.719,4.234a1.077,1.077,0,0,0,.063.609q.109.211.531.227.125.008.672-.039l-.156,1.727a3.706,3.706,0,0,1-1.266.18,1.985,1.985,0,0,1-1.617-.68,2.456,2.456,0,0,1-.437-1.8l.727-4.461h-1.2l.289-1.656h1.2l.359-2.078ZM37.8,41.156a3.677,3.677,0,0,1-1.965-.543,3.292,3.292,0,0,1-1.277-1.469,4.093,4.093,0,0,1-.328-2.059l.023-.312a5.465,5.465,0,0,1,.719-2.266,4.341,4.341,0,0,1,1.547-1.59,3.827,3.827,0,0,1,2.094-.527,2.924,2.924,0,0,1,2.473,1.2,4.117,4.117,0,0,1,.637,2.962l-.125.962h-5.18a1.814,1.814,0,0,0,.4,1.313,1.521,1.521,0,0,0,1.172.508,2.7,2.7,0,0,0,2.109-.937l1.008,1.25a3.135,3.135,0,0,1-1.375,1.121A4.5,4.5,0,0,1,37.8,41.156Zm.7-6.945a1.565,1.565,0,0,0-1.082.383,3.363,3.363,0,0,0-.848,1.383H39.6l.047-.2a2.071,2.071,0,0,0,.008-.594,1.134,1.134,0,0,0-.383-.707A1.2,1.2,0,0,0,38.5,34.211ZM47.141,41a2.281,2.281,0,0,1-.086-.766,2.863,2.863,0,0,1-2.156.922,2.594,2.594,0,0,1-1.84-.723,2.186,2.186,0,0,1-.684-1.746,2.527,2.527,0,0,1,1.16-2.121,5.266,5.266,0,0,1,2.965-.738l1.031.016.109-.508a1.764,1.764,0,0,0,.023-.492.846.846,0,0,0-.277-.574.955.955,0,0,0-.629-.215,1.345,1.345,0,0,0-.875.254,1.231,1.231,0,0,0-.461.777l-2.211.008a2.457,2.457,0,0,1,1.113-1.965,4.312,4.312,0,0,1,2.613-.738,3.117,3.117,0,0,1,2.25.855,2.5,2.5,0,0,1,.68,2.121l-.648,4.047-.039.5a2.412,2.412,0,0,0,.133.938L49.3,41Zm-1.7-1.555a2.017,2.017,0,0,0,1.664-.828l.273-1.461-.766-.008a2.139,2.139,0,0,0-1.758.742,1.292,1.292,0,0,0-.242.633.75.75,0,0,0,.176.668A.891.891,0,0,0,45.445,39.445Zm9.672-8.977-.367,2.078h1.406L55.867,34.2H54.461l-.719,4.234a1.077,1.077,0,0,0,.063.609q.109.211.531.227.125.008.672-.039l-.156,1.727a3.706,3.706,0,0,1-1.266.18,1.985,1.985,0,0,1-1.617-.68,2.456,2.456,0,0,1-.437-1.8l.727-4.461h-1.2l.289-1.656h1.2l.359-2.078ZM3.609,61.781l2.414-5.234H8.477L3.531,66.273a4.231,4.231,0,0,1-1.246,1.641,2.723,2.723,0,0,1-1.652.523A5.035,5.035,0,0,1-.43,68.273l.164-1.719.3.016a1.651,1.651,0,0,0,1.578-.789l.484-.9L.719,56.547H3Zm9.117-5.391a3.39,3.39,0,0,1,1.926.574A3.234,3.234,0,0,1,15.84,58.5a4.762,4.762,0,0,1,.27,2.176,5.143,5.143,0,0,1-1.4,3.262,3.96,3.96,0,0,1-3.02,1.215,3.38,3.38,0,0,1-1.906-.566,3.222,3.222,0,0,1-1.187-1.527,4.657,4.657,0,0,1-.273-2.156,5.3,5.3,0,0,1,1.422-3.328A3.878,3.878,0,0,1,12.727,56.391ZM10.5,61.706a1.95,1.95,0,0,0,.352,1.182,1.168,1.168,0,0,0,.945.449,1.712,1.712,0,0,0,1.594-.932,4.647,4.647,0,0,0,.539-2.531,2.122,2.122,0,0,0-.363-1.2,1.149,1.149,0,0,0-.949-.464,1.715,1.715,0,0,0-1.574.924A4.6,4.6,0,0,0,10.5,61.706Zm11.477,2.419a2.919,2.919,0,0,1-2.328,1.031,2.172,2.172,0,0,1-1.844-.875,3.2,3.2,0,0,1-.484-2.266l.914-5.469h2.2l-.93,5.5a2.175,2.175,0,0,0-.008.485.8.8,0,0,0,.867.806,2.014,2.014,0,0,0,1.7-.79l1.055-6h2.219L23.867,65H21.813Zm9.32-5.461a4.549,4.549,0,0,0-.742-.078,2.136,2.136,0,0,0-1.867.883L27.711,65h-2.2l1.469-8.453,2.07-.008-.2,1.031a2.325,2.325,0,0,1,1.969-1.2,3.214,3.214,0,0,1,.766.109ZM35.789,65l1.18-6.8H35.75l.289-1.648,1.219-.008.109-.844a3.181,3.181,0,0,1,3.391-2.875,7.33,7.33,0,0,1,1.2.163l-.2,1.751a2.732,2.732,0,0,0-.648-.094,1.615,1.615,0,0,0-1,.3,1.355,1.355,0,0,0-.52.918l-.117.69H41.1L40.813,58.2H39.188L38.008,65Zm9.883-8.609a3.39,3.39,0,0,1,1.926.574A3.234,3.234,0,0,1,48.785,58.5a4.762,4.762,0,0,1,.27,2.176,5.143,5.143,0,0,1-1.4,3.262,3.96,3.96,0,0,1-3.02,1.215,3.38,3.38,0,0,1-1.906-.566,3.222,3.222,0,0,1-1.187-1.527,4.657,4.657,0,0,1-.273-2.156,5.3,5.3,0,0,1,1.422-3.328A3.878,3.878,0,0,1,45.672,56.391Zm-2.227,5.315a1.95,1.95,0,0,0,.352,1.182,1.168,1.168,0,0,0,.945.449,1.712,1.712,0,0,0,1.594-.932,4.647,4.647,0,0,0,.539-2.531,2.122,2.122,0,0,0-.363-1.2,1.149,1.149,0,0,0-.949-.464,1.715,1.715,0,0,0-1.574.924A4.6,4.6,0,0,0,43.445,61.706Zm11.078-5.315a3.39,3.39,0,0,1,1.926.574A3.234,3.234,0,0,1,57.637,58.5a4.762,4.762,0,0,1,.27,2.176,5.143,5.143,0,0,1-1.4,3.262,3.96,3.96,0,0,1-3.02,1.215,3.38,3.38,0,0,1-1.906-.566,3.222,3.222,0,0,1-1.187-1.527,4.657,4.657,0,0,1-.273-2.156,5.3,5.3,0,0,1,1.422-3.328A3.878,3.878,0,0,1,54.523,56.391ZM52.3,61.706a1.95,1.95,0,0,0,.352,1.182,1.168,1.168,0,0,0,.945.449,1.712,1.712,0,0,0,1.594-.932,4.647,4.647,0,0,0,.539-2.531,2.122,2.122,0,0,0-.363-1.2,1.149,1.149,0,0,0-.949-.464,1.715,1.715,0,0,0-1.574.924A4.6,4.6,0,0,0,52.3,61.706Zm10.438-5.323a2.4,2.4,0,0,1,1.906.945L65.469,53H67.68L65.6,65H63.633l.125-.906a2.736,2.736,0,0,1-2.2,1.07,2.433,2.433,0,0,1-1.383-.414,2.607,2.607,0,0,1-.918-1.168,4.7,4.7,0,0,1-.355-1.7,6.4,6.4,0,0,1,.023-.953l.047-.352a6.767,6.767,0,0,1,.723-2.281A3.766,3.766,0,0,1,61,56.836,3.1,3.1,0,0,1,62.734,56.383Zm-1.6,4.547a6.327,6.327,0,0,0-.039,1q.078,1.375,1.109,1.4a1.885,1.885,0,0,0,1.617-.875l.6-3.359a1.248,1.248,0,0,0-1.219-.875,1.606,1.606,0,0,0-1.34.621A4.176,4.176,0,0,0,61.133,60.93Zm9.086.578H68.383l1.109-7.883h2.352Zm-2.562,2.469a1.152,1.152,0,0,1,.328-.871,1.288,1.288,0,0,1,1.742-.062,1.125,1.125,0,0,1,.383.848,1.165,1.165,0,0,1-.328.875A1.279,1.279,0,0,1,68,64.8,1.114,1.114,0,0,1,67.656,63.977Z" transform="translate(-1320 -11193.915)" fill="#12263f"/>
  </g>
</svg>
