<svg xmlns="http://www.w3.org/2000/svg" xmlns:xlink="http://www.w3.org/1999/xlink" width="88" height="88" viewBox="0 0 88 88">
  <defs>
    <clipPath id="clip-path">
      <rect id="Rectángulo_44459" data-name="Rectángulo 44459" width="64.302" height="64.3" fill="none"/>
    </clipPath>
  </defs>
  <g id="Grupo_171447" data-name="Grupo 171447" transform="translate(-197 -2041)">
    <path id="Trazado_173386" data-name="Trazado 173386" d="M44,0A44,44,0,1,1,0,44,44,44,0,0,1,44,0Z" transform="translate(197 2041)" fill="#fff7da"/>
    <g id="Grupo_173391" data-name="Grupo 173391" transform="translate(214.205 2052.35)">
      <g id="Grupo_173391-2" data-name="Grupo 173391" transform="translate(0 0)" clip-path="url(#clip-path)">
        <path id="Trazado_174665" data-name="Trazado 174665" d="M7.591,0H44.353a2.178,2.178,0,0,1,1.942,2.539q.006,9.814,0,19.629c0,.188,0,.376,0,.564.013.672.028.7.725.669A16.061,16.061,0,0,1,58.5,26.9c.706.59.793.971.459,1.672-.666.641-1.077.676-1.794.1a13.828,13.828,0,0,0-18.392.918,13.715,13.715,0,0,0-.82,18.794A13.489,13.489,0,0,0,45.5,52.9a14.039,14.039,0,0,0,5.6.042,12.8,12.8,0,0,0,5.96-2.753,13.828,13.828,0,0,0,2.979-18.259c-.113-.176-.241-.342-.336-.529a1.269,1.269,0,0,1,.168-1.611,1.14,1.14,0,0,1,1.669.41,16.221,16.221,0,0,1,2.429,5.176c.209.744.17,1.52.329,2.269v3.513a12.813,12.813,0,0,1-1.226,4.819c-2.839,5.769-7.412,9-13.882,9.432-.733.05-1.461-.007-2.192-.013-.669-.006-.689.01-.7.7-.006.418,0,.836,0,1.254a2.429,2.429,0,0,1-2.4,2.542c-.854.071-1.713.013-2.57.026-.735.011-.789.064-.8.78-.008.46.02.92-.016,1.379A2.227,2.227,0,0,1,38.139,64.3Q20.2,64.3,2.271,64.3C.759,64.3,0,63.5,0,61.929Q0,46.661,0,31.392,0,23.3,0,15.214c0-.865.14-1.075.849-1.323A1.154,1.154,0,0,1,2.125,15.05a9.506,9.506,0,0,1,.022,1.065q0,22.288,0,44.576c0,1.461,0,1.461,1.443,1.461H37.008c1.251,0,1.251,0,1.244-1.248,0-.955-.025-.979-.985-.98-3.971,0-7.941,0-11.912,0-1.028,0-1.367-.228-1.693-1.063.009-.732.241-.989,1.068-1.184,5.7-.022,11.4-.005,17.1-.009.5,0,1-.03,1.5-.027.459,0,.707-.2.691-.677,0-.083,0,.021,0-.063.1-1.942.1-1.942-1.746-2.665a14.254,14.254,0,0,1-2.174-1.115,3.1,3.1,0,0,0-1.778-.482q-12.547.017-25.094.007a5.777,5.777,0,0,1-1.126-.052,1.155,1.155,0,0,1-1.035-1.212c.032-.6.428-.95,1.144-1,.292-.022.585-.012.878-.012q11.323,0,22.647,0a1.486,1.486,0,0,0,.826-.112c-.557-.642-1.01-1.337-1.579-1.937-.247-.26-.629-.184-.96-.184q-3.952-.007-7.9,0H12.953a4.2,4.2,0,0,1-.938-.052,1.155,1.155,0,0,1-.941-1.166,1.121,1.121,0,0,1,1.008-1.031,6.332,6.332,0,0,1,.939-.029H32.406c.168,0,.335,0,.5,0,.707-.015.744-.067.511-.709-.557-1.528-.557-1.528-2.167-1.528H13.06a5.154,5.154,0,0,1-1-.045,1.127,1.127,0,0,1-1-1.11,1.141,1.141,0,0,1,1.079-1.1,7.386,7.386,0,0,1,.877-.021H31.209q.345,0,.69-.006c.387,0,.592-.153.514-.577a5.566,5.566,0,0,1-.054-.876c-.017-.724-.061-.776-.8-.777q-4.517-.009-9.033,0H12.862a4.2,4.2,0,0,1-.876-.045A1.127,1.127,0,0,1,11.065,38a1.085,1.085,0,0,1,.783-1.087,3.332,3.332,0,0,1,1.119-.1q9.284,0,18.569,0c1,0,1,0,1.238-.973.312-1.264.312-1.264-.983-1.264H12.971a5.313,5.313,0,0,1-.939-.036,1.114,1.114,0,0,1-.956-1.012,1.145,1.145,0,0,1,.81-1.141,3.537,3.537,0,0,1,1.121-.089c6.629,0,13.258-.013,19.887.015a1.514,1.514,0,0,0,1.636-.939,6.561,6.561,0,0,1,.6-.958c.146-.225.09-.346-.186-.354-.167,0-.335,0-.5,0H12.983a5.985,5.985,0,0,1-1-.037.987.987,0,0,1-.9-.9,1.1,1.1,0,0,1,.66-1.169,2.877,2.877,0,0,1,1.233-.168c7.675,0,15.349-.012,23.023.014a3.179,3.179,0,0,0,2.322-.835A13.052,13.052,0,0,1,42.4,24.533a7.208,7.208,0,0,1,.936-.359.87.87,0,0,0,.706-1.007c-.019-1.776-.007-3.553-.007-5.33q0-7.274,0-14.548c0-.23,0-.46-.013-.689a.466.466,0,0,0-.507-.507c-.4-.012-.793-.021-1.191-.016-2.363.021-4.726.008-7.089.009q-12.765,0-25.532,0c-.209,0-.418,0-.627,0-1.091.006-1.142.056-1.149,1.119,0,.1,0,.209,0,.313V56.213c0,1.421,0,1.422,1.409,1.422q5.677,0,11.354,0c.629,0,1.235.05,1.47.788.076.978-.318,1.448-1.308,1.483-1.212.042-2.425.012-3.637.013q-4.233,0-8.467,0c-2.108,0-3.105-1.007-3.105-3.13q-.005-24.459,0-48.918c0-1.273,0-1.274-1.257-1.274-.481,0-.962-.014-1.442.007-.653.029-.768.134-.78.785-.024,1.212.01,2.425-.015,3.637-.018.895-.289,1.225-1.1,1.42C.225,12.3.008,12.054,0,11.237,0,9.774,0,8.31,0,6.847a2.3,2.3,0,0,1,2.373-2.5C3.21,4.3,4.048,4.341,4.884,4.33c.7-.01.753-.063.765-.746.007-.4-.01-.795.008-1.192A2.284,2.284,0,0,1,7.591,0" transform="translate(0 0)"/>
        <path id="Trazado_174666" data-name="Trazado 174666" d="M28.1,59.935a1.148,1.148,0,0,0-1.23-.65c-4.077.013-8.154.008-12.231.007-.8,0-.847-.049-.847-.859q0-27.127-.005-54.254c0-.495.039-.838.689-.837q16.873.019,33.745.011a1.755,1.755,0,0,1,.187.019c.367.2.319.561.323.887.013,1.191.006,2.381.006,3.572q0,8.586,0,17.171a1.72,1.72,0,0,1-.2,1.147,16.146,16.146,0,0,0-4.817,3.1,1.091,1.091,0,0,1-.866.238q-12.043,0-24.087,0a3.611,3.611,0,0,0-.748.045.92.92,0,0,0,.085,1.815,5.634,5.634,0,0,0,.688.02H41.753a24.644,24.644,0,0,0-1.5,2.47c-.137.271-.414.14-.623.14q-8.876.012-17.752.006c-1.212,0-2.426-.014-3.638.008a.91.91,0,0,0-.969.931c-.006.566.368.914,1.015.941.167.007.335,0,.5,0h13.3c2.258,0,4.516.012,6.774-.01.472,0,.573.093.4.55a4.983,4.983,0,0,0-.35,1.455c-.028.6-.318.631-.8.629q-9.691-.019-19.382-.008a4.754,4.754,0,0,0-.626.013.909.909,0,0,0-.832.994.879.879,0,0,0,.892.869c.187.016.376.005.564.005,6.419,0,12.838.007,19.257-.013.528,0,.679.129.641.646a6.239,6.239,0,0,0,.084,1.373c.068.457,0,.637-.543.635-4.746-.024-9.492-.014-14.239-.014q-2.728,0-5.458,0c-.8,0-1.209.329-1.2.944s.42.936,1.22.937q10.005,0,20.009-.012c.479,0,.688.113.809.594.171.678.455,1.327.71,2.042h-21.3a5.074,5.074,0,0,0-.627.011.852.852,0,0,0-.809.812.879.879,0,0,0,.607.982,2.064,2.064,0,0,0,.8.076q10.915,0,21.828-.007a.908.908,0,0,1,.907.476,16.7,16.7,0,0,0,1.711,2.141H18.8a6.132,6.132,0,0,0-.689.018.848.848,0,0,0-.828.859.866.866,0,0,0,.776.973,3.548,3.548,0,0,0,.687.03q12.984,0,25.968-.006a1.961,1.961,0,0,1,1.224.353A18.631,18.631,0,0,0,48.4,55.555a.784.784,0,0,1,.322.767c.012.731.021,1.462,0,2.192-.021.666-.1.727-.785.727q-8.27,0-16.541,0a2.263,2.263,0,0,0-.684.036c-.436.163-.866.33-.869.906-.749.358-1.468.254-1.747-.252" transform="translate(-6.057 -1.468)" fill="#f9f6f7"/>
        <path id="Trazado_174667" data-name="Trazado 174667" d="M78.127,72.995a10.854,10.854,0,0,1-4.344.214A13.978,13.978,0,0,1,73.4,45.5a12.11,12.11,0,0,1,4.724.146,12.8,12.8,0,0,1,5.874,4.517,15.077,15.077,0,0,1,2.4,4.513,13.862,13.862,0,0,1,.643,3.267,14.86,14.86,0,0,1-3.185,10.737,15.091,15.091,0,0,1-4.073,3.583,9.855,9.855,0,0,1-1.653.734" transform="translate(-26.999 -19.923)" fill="#3c3fa7"/>
        <path id="Trazado_174668" data-name="Trazado 174668" d="M22.679,63.49c.26.391.661.221,1.01.248.244.018.492,0,.738,0,.252.827.464.987,1.345.987,4.244,0,8.488.009,12.732-.011.487,0,.661.114.611.612a9.2,9.2,0,0,0,0,1.378c.025.474-.145.72-.646.674-.1-.01-.209,0-.313,0H3.527c-.943,0-.943,0-.943-.939V20.4c0-1.007-.239-1.29-1.13-1.344a4.827,4.827,0,0,0,.126-1.735c.812-.2,1-.428,1-1.247,0-1.316.017-2.633-.007-3.949-.009-.522.2-.708.7-.7.939.022,1.881.017,2.821,0,.3-.006.422.086.39.388a4.818,4.818,0,0,0,0,.5V61.907c0,1.983.834,2.822,2.808,2.822q6.081,0,12.162,0c.934,0,1.231-.307,1.221-1.238" transform="translate(-0.639 -5.023)" fill="#e6e1e5"/>
        <path id="Trazado_174669" data-name="Trazado 174669" d="M91.2,73.236a22.751,22.751,0,0,0,3.41-2.181,14.528,14.528,0,0,0,5.106-8.58,14.676,14.676,0,0,0-2.813-12.032,14.114,14.114,0,0,0-4.843-4.072c-.294-.152-.578-.323-.867-.485a12.828,12.828,0,0,1,6.1,2.809,1.113,1.113,0,0,0,1.564.1l1.159,1.257a1.154,1.154,0,0,0,0,1.581A13.977,13.977,0,0,1,92.241,73.04a2.817,2.817,0,0,1-1.036.2" transform="translate(-40.077 -20.164)" fill="#6b8dfc"/>
        <path id="Trazado_174670" data-name="Trazado 174670" d="M75.668,26.154l0-22.05a1.188,1.188,0,0,0-.123-.727c.459-.007.919-.009,1.378-.022.369-.01.541.163.531.529,0,.126,0,.251,0,.377q0,10.351.008,20.7c0,.434-.067.69-.556.777a8.4,8.4,0,0,0-1.241.416" transform="translate(-33.199 -1.474)" fill="#efedef"/>
        <path id="Trazado_174671" data-name="Trazado 174671" d="M43.985,100.215c.221-.181.483-.1.725-.1q8.084-.008,16.167-.005c1.043,0,.941.108.913-.951a9.693,9.693,0,0,0-.115-2.67c.532.174,1.062.355,1.6.519a.391.391,0,0,1,.319.448q-.024,1.1,0,2.193c.008.441-.207.593-.617.58s-.836,0-1.253,0l-17.734-.013" transform="translate(-19.329 -42.402)" fill="#efedef"/>
        <path id="Trazado_174672" data-name="Trazado 174672" d="M36.9,14.925q-4.858,0-9.717,0a2.222,2.222,0,0,1-2.464-2.485c0-.92-.007-1.839,0-2.758a2.186,2.186,0,0,1,2.271-2.3q9.873-.009,19.747,0A2.194,2.194,0,0,1,49.02,9.615q.05,1.535,0,3.071a2.2,2.2,0,0,1-2.343,2.237q-4.891.01-9.78,0" transform="translate(-10.86 -3.241)"/>
        <path id="Trazado_174673" data-name="Trazado 174673" d="M34.788,35.861q-6.678,0-13.356,0a2.892,2.892,0,0,1-.684-.047.864.864,0,0,1-.726-1.011.854.854,0,0,1,.869-.817c.166-.013.334-.005.5-.005H48.23a4.6,4.6,0,0,1,.563.013.863.863,0,0,1,.8.832.883.883,0,0,1-.581.942,1.931,1.931,0,0,1-.8.094H34.788" transform="translate(-8.795 -14.931)"/>
        <path id="Trazado_174674" data-name="Trazado 174674" d="M34.83,27.825H21.347a1.688,1.688,0,0,1-.8-.1.888.888,0,0,1-.529-.971.864.864,0,0,1,.764-.792,3.576,3.576,0,0,1,.626-.017H48.186c.961,0,1.418.3,1.417.932s-.469.95-1.415.95H34.83" transform="translate(-8.793 -11.398)"/>
        <path id="Trazado_174675" data-name="Trazado 174675" d="M34.767,41.981H48.247c.9,0,1.355.323,1.356.938s-.464.944-1.354.944q-13.45,0-26.9,0a2.535,2.535,0,0,1-.682-.061.845.845,0,0,1-.653-.941.83.83,0,0,1,.71-.833,3.78,3.78,0,0,1,.748-.043q6.647,0,13.293,0" transform="translate(-8.795 -18.448)" fill="#010101"/>
        <path id="Trazado_174676" data-name="Trazado 174676" d="M71.715,61.356a2.933,2.933,0,0,1,2.191.914c.64.632,1.293,1.251,1.9,1.913.327.355.518.367.871.008q3.3-3.352,6.647-6.657a3.012,3.012,0,0,1,5.035,1.151,2.8,2.8,0,0,1-.648,3.021q-4.693,4.753-9.446,9.445a2.914,2.914,0,0,1-4.042.006q-2.423-2.32-4.745-4.744a2.851,2.851,0,0,1-.541-3.261,2.959,2.959,0,0,1,2.778-1.8" transform="translate(-30.171 -24.878)"/>
        <path id="Trazado_174677" data-name="Trazado 174677" d="M47.111,14.484c-1.316.009-2.631.025-3.947.026-4.764,0-9.528-.009-14.292.014-.621,0-.868-.151-.821-.8a17.6,17.6,0,0,0,0-2.255c-.034-.583.17-.75.749-.748,5.224.02,10.448.011,15.672.012.857,0,1.712.013,2.569.02a.6.6,0,0,1,.277.524c.033.925.035,1.852,0,2.778a.561.561,0,0,1-.206.433" transform="translate(-12.324 -4.71)" fill="#6b8dfc"/>
        <path id="Trazado_174678" data-name="Trazado 174678" d="M62,14.49a26.115,26.115,0,0,0-.07-3.734c1.855-.056,1.545-.153,1.572,1.46.009.542-.02,1.085.007,1.626.026.519-.183.733-.7.679-.269-.029-.541-.022-.811-.031" transform="translate(-27.216 -4.716)" fill="#3c3fa7"/>
        <path id="Trazado_174679" data-name="Trazado 174679" d="M88.138,61.146a1.348,1.348,0,0,1-.415.884q-4.545,4.539-9.087,9.08a1.139,1.139,0,0,1-1.81,0q-2.183-2.159-4.343-4.341a1.153,1.153,0,0,1-.1-1.723,1.174,1.174,0,0,1,1.723.09c.939.922,1.86,1.862,2.8,2.787a.991.991,0,0,0,1.661-.014q3.66-3.651,7.315-7.307a2.706,2.706,0,0,1,.57-.48,1.149,1.149,0,0,1,1.687,1.025" transform="translate(-31.66 -26.359)" fill="#f9f6f7"/>
      </g>
    </g>
  </g>
</svg>
