<svg xmlns="http://www.w3.org/2000/svg" xmlns:xlink="http://www.w3.org/1999/xlink" width="553.266" height="480.414" viewBox="0 0 553.266 480.414">
  <defs>
    <clipPath id="clip-path">
      <path id="Trazado_173385" data-name="Trazado 173385" d="M0,0H553.266V480.414H0Z" transform="translate(222 2569.539)" fill="#e8e8e8"/>
    </clipPath>
    <clipPath id="clip-path-2">
      <rect id="Rectángulo_44473" data-name="Rectángulo 44473" width="553.266" height="514.452" fill="none"/>
    </clipPath>
  </defs>
  <g id="Grupo_258" data-name="Grupo 258" transform="translate(-222 -2569.539)" clip-path="url(#clip-path)">
    <g id="Grupo_173397" data-name="Grupo 173397" transform="translate(222 2535.501)">
      <g id="Grupo_173394" data-name="Grupo 173394">
        <g id="Grupo_173393" data-name="Grupo 173393" clip-path="url(#clip-path-2)">
          <path id="Trazado_174680" data-name="Trazado 174680" d="M545.985,501.912H25.2A100.5,100.5,0,0,1,.007,433.728c.291-25.155,12.206-50.437,32.868-64.79,12.137-8.43,26.81-13.037,37.947-22.751C95.21,324.91,94.865,286.517,85,255.692s-27.211-59.632-30.69-91.809a116.454,116.454,0,0,1,9.1-58.335c6.435-14.9,16.272-28.88,30.274-37.088,16.136-9.459,36.383-10.235,54.342-5.006S181.9,79.42,195.937,91.778c17.192,15.131,33.173,33.565,55.246,39.667C276.7,138.5,303.766,127,325.434,111.8s40.729-34.427,64.491-46.09,55.02-13.931,74.633,3.844c11.914,10.8,17.449,27.146,18.935,43.157,4.976,53.645-29.935,105.51-22.927,158.928C464.257,299.787,479.3,325.1,495.7,348.27s34.638,45.408,46.272,71.3,16.363,56.782,4.01,82.341" transform="translate(0 12.54)" fill="#e9ecf0"/>
          <rect id="Rectángulo_44460" data-name="Rectángulo 44460" width="80.452" height="107.615" transform="translate(237.815 317.175)" fill="#004370"/>
          <path id="Trazado_174681" data-name="Trazado 174681" d="M212.308,417.318a5.6,5.6,0,1,1-5.6-5.6,5.6,5.6,0,0,1,5.6,5.6" transform="translate(44.566 91.237)" fill="#004370"/>
          <path id="Trazado_174682" data-name="Trazado 174682" d="M208.091,416.67a2.03,2.03,0,1,1-2.03-2.03,2.03,2.03,0,0,1,2.03,2.03" transform="translate(45.214 91.885)" fill="#00548a"/>
          <path id="Trazado_174683" data-name="Trazado 174683" d="M206.9,410.841a6.67,6.67,0,0,0-6.67,6.67h13.34a6.67,6.67,0,0,0-6.67-6.67" transform="translate(44.372 91.043)" fill="#002c47"/>
          <path id="Trazado_174684" data-name="Trazado 174684" d="M234.218,417.318a5.6,5.6,0,1,1-5.6-5.6,5.6,5.6,0,0,1,5.6,5.6" transform="translate(49.422 91.237)" fill="#004370"/>
          <path id="Trazado_174685" data-name="Trazado 174685" d="M230,416.67a2.03,2.03,0,1,1-2.03-2.03,2.031,2.031,0,0,1,2.03,2.03" transform="translate(50.069 91.885)" fill="#00548a"/>
          <path id="Trazado_174686" data-name="Trazado 174686" d="M228.814,410.841a6.67,6.67,0,0,0-6.67,6.67h13.34a6.67,6.67,0,0,0-6.67-6.67" transform="translate(49.227 91.043)" fill="#002c47"/>
          <path id="Trazado_174687" data-name="Trazado 174687" d="M256.128,417.318a5.6,5.6,0,1,1-5.6-5.6,5.6,5.6,0,0,1,5.6,5.6" transform="translate(54.277 91.237)" fill="#004370"/>
          <path id="Trazado_174688" data-name="Trazado 174688" d="M251.911,416.67a2.03,2.03,0,1,1-2.03-2.03,2.03,2.03,0,0,1,2.03,2.03" transform="translate(54.924 91.885)" fill="#00548a"/>
          <path id="Trazado_174689" data-name="Trazado 174689" d="M250.724,410.841a6.67,6.67,0,0,0-6.67,6.67h13.34a6.67,6.67,0,0,0-6.67-6.67" transform="translate(54.083 91.043)" fill="#002c47"/>
          <rect id="Rectángulo_44461" data-name="Rectángulo 44461" width="11.841" height="14.118" transform="translate(272.121 473.832)" fill="#002c47"/>
          <rect id="Rectángulo_44462" data-name="Rectángulo 44462" width="11.841" height="14.118" transform="translate(272.121 435.837)" fill="#002c47"/>
          <rect id="Rectángulo_44463" data-name="Rectángulo 44463" width="7.192" height="26.952" transform="translate(274.445 447.824)" fill="#002c47"/>
          <path id="Trazado_174690" data-name="Trazado 174690" d="M204.405,416.387v-7.841l.96-.476,24.111-11.961,2.477,5.844-25.359,9.015.959-1.449v6.868Z" transform="translate(45.296 87.778)" fill="#002c47"/>
          <path id="Trazado_174691" data-name="Trazado 174691" d="M252.651,416.387v-6.868l.96,1.449-25.36-9.015,2.479-5.844,24.111,11.961.96.476v7.841Z" transform="translate(50.581 87.778)" fill="#002c47"/>
          <path id="Trazado_174692" data-name="Trazado 174692" d="M231.771,398.271l-1.753,16.884h-3.549l-1.753-16.884Z" transform="translate(49.797 88.257)" fill="#002c47"/>
          <path id="Trazado_174693" data-name="Trazado 174693" d="M248.864,362.494H215.045a7.078,7.078,0,0,1-7.078-7.079V354h47.976v1.412a7.079,7.079,0,0,1-7.079,7.079" transform="translate(46.086 78.448)" fill="#004370"/>
          <path id="Trazado_174694" data-name="Trazado 174694" d="M279.464,342.249H193.585a6.236,6.236,0,0,0-6.236,6.236v8.124H285.7v-8.124a6.237,6.237,0,0,0-6.236-6.236" transform="translate(41.517 75.843)" fill="#002c47"/>
          <path id="Trazado_174695" data-name="Trazado 174695" d="M215.486,257.806A14.786,14.786,0,1,1,200.7,243.021a14.786,14.786,0,0,1,14.786,14.785" transform="translate(41.199 53.854)" fill="#004370"/>
          <path id="Trazado_174696" data-name="Trazado 174696" d="M276.434,257.806a14.786,14.786,0,1,1-14.786-14.785,14.786,14.786,0,0,1,14.786,14.785" transform="translate(54.705 53.854)" fill="#004370"/>
          <rect id="Rectángulo_44464" data-name="Rectángulo 44464" width="74.454" height="29.573" transform="translate(241.898 296.875)" fill="#004370"/>
          <rect id="Rectángulo_44465" data-name="Rectángulo 44465" width="7.09" height="26.573" transform="translate(473.269 449.008)" fill="#002c47"/>
          <path id="Trazado_174697" data-name="Trazado 174697" d="M360.6,364.1h35.149v-8.372H354.375v2.143A6.229,6.229,0,0,0,360.6,364.1" transform="translate(78.53 78.831)" fill="#002c47"/>
          <path id="Trazado_174698" data-name="Trazado 174698" d="M384.109,364.1h32.7a6.229,6.229,0,0,0,6.229-6.229v-2.143h-47.3a8.371,8.371,0,0,0,8.372,8.372" transform="translate(83.264 78.831)" fill="#004370"/>
          <path id="Trazado_174699" data-name="Trazado 174699" d="M407.4,417.573a5.521,5.521,0,1,0,5.52-5.52,5.52,5.52,0,0,0-5.52,5.52" transform="translate(90.281 91.311)" fill="#004370"/>
          <path id="Trazado_174700" data-name="Trazado 174700" d="M410.283,416.935a2,2,0,1,0,2-2,2,2,0,0,0-2,2" transform="translate(90.919 91.95)" fill="#00548a"/>
          <path id="Trazado_174701" data-name="Trazado 174701" d="M413.114,411.189a6.577,6.577,0,0,1,6.577,6.577H406.538a6.576,6.576,0,0,1,6.576-6.577" transform="translate(90.089 91.12)" fill="#002c47"/>
          <path id="Trazado_174702" data-name="Trazado 174702" d="M385.8,417.573a5.521,5.521,0,1,0,5.52-5.52,5.52,5.52,0,0,0-5.52,5.52" transform="translate(85.494 91.311)" fill="#004370"/>
          <path id="Trazado_174703" data-name="Trazado 174703" d="M388.681,416.935a2,2,0,1,0,2-2,2,2,0,0,0-2,2" transform="translate(86.132 91.95)" fill="#00548a"/>
          <path id="Trazado_174704" data-name="Trazado 174704" d="M391.512,411.189a6.577,6.577,0,0,1,6.577,6.577H384.935a6.577,6.577,0,0,1,6.577-6.577" transform="translate(85.302 91.12)" fill="#002c47"/>
          <path id="Trazado_174705" data-name="Trazado 174705" d="M364.2,417.573a5.52,5.52,0,1,0,5.519-5.52,5.519,5.519,0,0,0-5.519,5.52" transform="translate(80.707 91.311)" fill="#004370"/>
          <path id="Trazado_174706" data-name="Trazado 174706" d="M367.078,416.935a2,2,0,1,0,2-2,2,2,0,0,0-2,2" transform="translate(81.345 91.95)" fill="#00548a"/>
          <path id="Trazado_174707" data-name="Trazado 174707" d="M369.91,411.189a6.577,6.577,0,0,1,6.577,6.577H363.334a6.576,6.576,0,0,1,6.576-6.577" transform="translate(80.515 91.12)" fill="#002c47"/>
          <rect id="Rectángulo_44466" data-name="Rectángulo 44466" width="11.675" height="13.919" transform="translate(470.976 474.651)" fill="#002c47"/>
          <rect id="Rectángulo_44467" data-name="Rectángulo 44467" width="11.675" height="13.919" transform="translate(470.976 437.19)" fill="#004370"/>
          <path id="Trazado_174708" data-name="Trazado 174708" d="M415,416.664v-6.771l.959,1.449-25.011-8.868,2.477-5.844,23.764,11.813.96.478v7.744Z" transform="translate(86.634 87.894)" fill="#002c47"/>
          <path id="Trazado_174709" data-name="Trazado 174709" d="M367.428,416.664V408.92l.96-.478,23.763-11.813,2.479,5.844-25.012,8.868.96-1.449v6.771Z" transform="translate(81.423 87.894)" fill="#002c47"/>
          <path id="Trazado_174710" data-name="Trazado 174710" d="M394.486,398.8l-1.753,16.647h-3.549L387.432,398.8Z" transform="translate(85.855 88.374)" fill="#002c47"/>
          <path id="Trazado_174711" data-name="Trazado 174711" d="M314.795,358.6H433.086V343.815H323.257a8.461,8.461,0,0,0-8.462,8.462Z" transform="translate(69.759 76.19)" fill="#004370"/>
          <path id="Trazado_174712" data-name="Trazado 174712" d="M447.739,367.371l8.871-111.58a2.611,2.611,0,0,0-2.6-2.818h-61.3a2.611,2.611,0,0,0-2.6,2.4l-9.583,120.537a2.611,2.611,0,0,0,2.6,2.818h52.315a12.339,12.339,0,0,0,12.3-11.361" transform="translate(84.322 56.059)" fill="#002c47"/>
          <path id="Trazado_174713" data-name="Trazado 174713" d="M376.777,240.87h66.244v29.573H373.452Z" transform="translate(82.757 53.377)" fill="#004370"/>
          <path id="Trazado_174714" data-name="Trazado 174714" d="M364.554,255.656A14.786,14.786,0,1,0,379.34,240.87a14.786,14.786,0,0,0-14.786,14.786" transform="translate(80.786 53.377)" fill="#004370"/>
          <path id="Trazado_174715" data-name="Trazado 174715" d="M434.77,371.859l10-118.886H378.23l-10,118.886Z" transform="translate(81.6 56.059)" fill="#004370"/>
          <path id="Trazado_174716" data-name="Trazado 174716" d="M418.781,255.656a14.786,14.786,0,1,0,14.786-14.786,14.786,14.786,0,0,0-14.786,14.786" transform="translate(92.802 53.377)" fill="#002c47"/>
          <path id="Trazado_174717" data-name="Trazado 174717" d="M374.34,358.6h57.211a13.173,13.173,0,0,0,13.174-13.173v-1.614H382.8a8.462,8.462,0,0,0-8.462,8.462Z" transform="translate(82.954 76.19)" fill="#002c47"/>
          <rect id="Rectángulo_44468" data-name="Rectángulo 44468" width="7.09" height="26.573" transform="translate(85.996 449.008)" fill="#002c47"/>
          <path id="Trazado_174718" data-name="Trazado 174718" d="M110.518,366.255H75.369v-8.372h41.378v2.143a6.229,6.229,0,0,1-6.229,6.229" transform="translate(16.702 79.307)" fill="#002c47"/>
          <path id="Trazado_174719" data-name="Trazado 174719" d="M88.089,366.255h-32.7a6.229,6.229,0,0,1-6.229-6.229v-2.143h47.3a8.371,8.371,0,0,1-8.372,8.372" transform="translate(10.894 79.307)" fill="#004370"/>
          <path id="Trazado_174720" data-name="Trazado 174720" d="M58.218,417.573a5.521,5.521,0,1,1-5.52-5.52,5.52,5.52,0,0,1,5.52,5.52" transform="translate(10.454 91.311)" fill="#004370"/>
          <path id="Trazado_174721" data-name="Trazado 174721" d="M54.06,416.935a2,2,0,1,1-2-2,2,2,0,0,1,2,2" transform="translate(11.093 91.95)" fill="#00548a"/>
          <path id="Trazado_174722" data-name="Trazado 174722" d="M52.889,411.189a6.577,6.577,0,0,0-6.577,6.577H59.466a6.577,6.577,0,0,0-6.577-6.577" transform="translate(10.263 91.12)" fill="#002c47"/>
          <path id="Trazado_174723" data-name="Trazado 174723" d="M79.82,417.573a5.52,5.52,0,1,1-5.52-5.52,5.52,5.52,0,0,1,5.52,5.52" transform="translate(15.242 91.311)" fill="#004370"/>
          <path id="Trazado_174724" data-name="Trazado 174724" d="M75.662,416.935a2,2,0,1,1-2-2,2,2,0,0,1,2,2" transform="translate(15.88 91.95)" fill="#00548a"/>
          <path id="Trazado_174725" data-name="Trazado 174725" d="M74.491,411.189a6.577,6.577,0,0,0-6.577,6.577H81.067a6.576,6.576,0,0,0-6.576-6.577" transform="translate(15.05 91.12)" fill="#002c47"/>
          <path id="Trazado_174726" data-name="Trazado 174726" d="M101.422,417.573a5.52,5.52,0,1,1-5.52-5.52,5.52,5.52,0,0,1,5.52,5.52" transform="translate(20.029 91.311)" fill="#004370"/>
          <path id="Trazado_174727" data-name="Trazado 174727" d="M97.264,416.935a2,2,0,1,1-2-2,2,2,0,0,1,2,2" transform="translate(20.667 91.95)" fill="#00548a"/>
          <path id="Trazado_174728" data-name="Trazado 174728" d="M96.093,411.189a6.577,6.577,0,0,0-6.577,6.577h13.153a6.576,6.576,0,0,0-6.576-6.577" transform="translate(19.837 91.12)" fill="#002c47"/>
          <rect id="Rectángulo_44469" data-name="Rectángulo 44469" width="11.675" height="13.919" transform="translate(83.703 474.651)" fill="#002c47"/>
          <rect id="Rectángulo_44470" data-name="Rectángulo 44470" width="11.675" height="13.919" transform="translate(83.703 437.19)" fill="#004370"/>
          <path id="Trazado_174729" data-name="Trazado 174729" d="M50.407,416.664V408.92l.96-.478L75.13,396.63l2.479,5.844L52.6,411.341l.96-1.449v6.771Z" transform="translate(11.17 87.894)" fill="#002c47"/>
          <path id="Trazado_174730" data-name="Trazado 174730" d="M97.974,416.664v-6.771l.96,1.449-25.012-8.868L76.4,396.63l23.764,11.813.96.478v7.744Z" transform="translate(16.381 87.894)" fill="#002c47"/>
          <path id="Trazado_174731" data-name="Trazado 174731" d="M77.464,398.8l-1.753,16.647H72.163L70.411,398.8Z" transform="translate(15.603 88.374)" fill="#002c47"/>
          <path id="Trazado_174732" data-name="Trazado 174732" d="M170.28,360.751H51.989V345.965H161.818a8.462,8.462,0,0,1,8.462,8.462Z" transform="translate(11.521 76.666)" fill="#004370"/>
          <path id="Trazado_174733" data-name="Trazado 174733" d="M29.684,369.521l-8.871-111.58a2.612,2.612,0,0,1,2.6-2.818h61.3a2.611,2.611,0,0,1,2.6,2.4L96.9,378.064a2.61,2.61,0,0,1-2.6,2.818H41.984a12.34,12.34,0,0,1-12.3-11.361" transform="translate(4.61 56.536)" fill="#002c47"/>
          <path id="Trazado_174734" data-name="Trazado 174734" d="M99.46,243.02H33.216v29.573h69.569Z" transform="translate(7.361 53.854)" fill="#004370"/>
          <path id="Trazado_174735" data-name="Trazado 174735" d="M104.428,257.806a14.786,14.786,0,1,1-14.786-14.785,14.786,14.786,0,0,1,14.786,14.785" transform="translate(16.588 53.854)" fill="#004370"/>
          <path id="Trazado_174736" data-name="Trazado 174736" d="M42.73,374.01l-10-118.886H99.271l10,118.886Z" transform="translate(7.253 56.536)" fill="#004370"/>
          <path id="Trazado_174737" data-name="Trazado 174737" d="M50.2,257.806a14.786,14.786,0,1,1-14.786-14.785A14.786,14.786,0,0,1,50.2,257.806" transform="translate(4.571 53.854)" fill="#002c47"/>
          <path id="Trazado_174738" data-name="Trazado 174738" d="M102.045,360.751H44.833A13.173,13.173,0,0,1,31.66,347.579v-1.614H93.583a8.462,8.462,0,0,1,8.462,8.462Z" transform="translate(7.016 76.666)" fill="#002c47"/>
          <path id="Trazado_174739" data-name="Trazado 174739" d="M93.825,226a6.459,6.459,0,1,1-6.449-6.818A6.641,6.641,0,0,1,93.825,226" transform="translate(17.934 48.572)" fill="#1d89e4"/>
          <path id="Trazado_174740" data-name="Trazado 174740" d="M92.355,226a6.459,6.459,0,1,1-6.449-6.818A6.641,6.641,0,0,1,92.355,226" transform="translate(17.608 48.572)" fill="#42a5f6"/>
          <path id="Trazado_174741" data-name="Trazado 174741" d="M92.309,228.3a1.222,1.222,0,0,1-1.222-1.222v-10.1A16.4,16.4,0,0,0,74.707,200.6h-.288a16.246,16.246,0,0,0-9.651,3.143,1.222,1.222,0,1,1-1.441-1.973,18.682,18.682,0,0,1,11.092-3.614h.288a18.844,18.844,0,0,1,18.824,18.822v10.1a1.222,1.222,0,0,1-1.222,1.222" transform="translate(13.922 43.911)" fill="#42a5f6"/>
          <path id="Trazado_174742" data-name="Trazado 174742" d="M160.337,407.471l-6.858-25.221-18.092,5.07,9.513,25.156a8.124,8.124,0,0,0,15.437-5" transform="translate(30.002 84.707)" fill="#ba6c56"/>
          <path id="Trazado_174743" data-name="Trazado 174743" d="M150.1,334.432a10.72,10.72,0,0,0-6.972-7.312l-3.839-1.242a98.564,98.564,0,0,0-13.006-3.076c-4.359-.754-8.732-1.321-13.118-1.729s-8.787-.651-13.2-.706a95.51,95.51,0,0,0-13.313.667,13.27,13.27,0,0,0-2.113,25.845A95.3,95.3,0,0,0,97.564,349.7q6.549.995,13.141,1.449c4.394.31,8.8.462,13.224.426,2.007-.031,4.017-.092,6.03-.2l20.566,58.236,20.048-6.338Z" transform="translate(16.65 70.993)" fill="#1d89e4"/>
          <path id="Trazado_174744" data-name="Trazado 174744" d="M141.629,410.286c.038.127.079.264.132.4.259.821.579,1.693.892,2.579.233.621.467,1.242.7,1.874.348.887.7,1.784,1.054,2.657.757,1.9,1.512,3.682,2.13,5.121.862,2.022,1.462,3.363,1.462,3.363l45.778-13.825A2.982,2.982,0,0,0,192.749,409a22.384,22.384,0,0,0-13.9-5.5c-7.05-.216-11.77-1.884-15.22-3.921-.1-.073-.209-.121-.3-.2a23.235,23.235,0,0,1-2.8-1.97,1.846,1.846,0,0,1-.276-.227c-.432-.365-.827-.72-1.229-1.059-1.439-1.295-2.719-.149-3.763,1.744a11.43,11.43,0,0,1-11.29,5.8,5.314,5.314,0,0,0-3.311.294c-.412.32-.343,1.464.039,3.077.214.938.538,2.051.921,3.25" transform="translate(31.11 87.659)" fill="#0c1633"/>
          <path id="Trazado_174745" data-name="Trazado 174745" d="M145.423,420.475c.489,2.129.931,3.536.931,3.536l46.322-14a2.984,2.984,0,0,0-1.044-3.46Z" transform="translate(32.226 90.093)" fill="#d4d4d0"/>
          <path id="Trazado_174746" data-name="Trazado 174746" d="M154.8,401.446l1.92,1.36a.711.711,0,0,0,.992-.173l2.493-3.544a25.219,25.219,0,0,1-2.794-1.966c-.1-.071-.186-.158-.271-.232l-2.514,3.563a.7.7,0,0,0,.173.992" transform="translate(34.235 87.952)" fill="#d4d4d0"/>
          <path id="Trazado_174747" data-name="Trazado 174747" d="M141.571,408.256c.038.127.079.264.132.4l1.074-.186a.7.7,0,0,0,.583-.82l-.4-2.323a.7.7,0,0,0-.821-.583l-1.488.264c.214.938.538,2.051.921,3.249" transform="translate(31.168 89.689)" fill="#d4d4d0"/>
          <path id="Trazado_174748" data-name="Trazado 174748" d="M155.423,408.565a3.628,3.628,0,1,1-4.521-2.427,3.628,3.628,0,0,1,4.521,2.427" transform="translate(32.868 89.966)" fill="#d4d4d0"/>
          <path id="Trazado_174749" data-name="Trazado 174749" d="M135.387,393.4l22.546-7.365,1.522,4.759L136.7,397.323Z" transform="translate(30.002 85.546)" fill="#1870ba"/>
          <line id="Línea_658" data-name="Línea 658" x1="19.957" y1="54.51" transform="translate(148.885 421.134)" fill="none" stroke="#fff" stroke-linecap="round" stroke-linejoin="round" stroke-width="0.5" stroke-dasharray="2 2"/>
          <path id="Trazado_174750" data-name="Trazado 174750" d="M129.29,387.743l-18.9.6,4.621,28.764a8.123,8.123,0,0,0,16.125-1.834Z" transform="translate(24.463 85.924)" fill="#ba6c56"/>
          <path id="Trazado_174751" data-name="Trazado 174751" d="M91.38,221.8a12.229,12.229,0,0,0,3.87.779,4.143,4.143,0,0,0,3.429-1.658c.864-1.324.577-3.092-.012-4.559a13.066,13.066,0,0,0-2.337-3.8A4.658,4.658,0,0,0,99.7,208.7a3.746,3.746,0,0,0-.082-2.326,3.666,3.666,0,0,0-3-1.682,12.13,12.13,0,0,0-6.372.469A7.416,7.416,0,0,0,91.38,201a3.646,3.646,0,0,0-.893-2.5,4.018,4.018,0,0,0-2.512-.953,11.378,11.378,0,0,0-10.183,3.963,7.272,7.272,0,0,0,.518-2.234,2.483,2.483,0,0,0-.864-2.045,3.205,3.205,0,0,0-2.859-.165,12.5,12.5,0,0,0-7.554,7.884c-.464-1.415-1.726-2.769-3.2-2.586a3.694,3.694,0,0,0-2.16,1.351,10.981,10.981,0,0,0-2.055,10.293,8.752,8.752,0,0,0-2.137-3.1,2.9,2.9,0,0,0-1.966-.944,2.555,2.555,0,0,0-1.545.7,6.049,6.049,0,0,0-1.9,3.836,11.53,11.53,0,0,0,.424,4.329,21.4,21.4,0,0,0,7.019,10.944c6.026-3.417,13.126-4.007,19.923-5.347A100.238,100.238,0,0,0,91.38,221.8" transform="translate(11.525 43.615)" fill="#0c1633"/>
          <rect id="Rectángulo_44471" data-name="Rectángulo 44471" width="17.283" height="23.303" transform="translate(80.417 287.594)" fill="#ba6c56"/>
          <path id="Trazado_174752" data-name="Trazado 174752" d="M83,235.424v7.207c-3.936.164-12.966-.25-16.642-7.174l2.53-.033Z" transform="translate(14.704 52.17)" fill="#aa563c"/>
          <path id="Trazado_174753" data-name="Trazado 174753" d="M138.582,298.318,133.174,237a6.08,6.08,0,0,0-12.112,0l-3.307,37.493c-1.824-1.544-3.678-3.05-5.541-4.544-1.261-1.031-2.548-2.025-3.831-3.027a80.844,80.844,0,0,1-5.375,13.364c-1.959,3.962-3.752,7.972-5.511,12,1.423,1.046,2.843,2.1,4.29,3.109,1.973,1.418,3.974,2.8,5.987,4.162,4.031,2.723,8.1,5.392,12.342,7.848l2.2,1.275a10.863,10.863,0,0,0,16.268-10.353" transform="translate(21.605 51.289)" fill="#ba6c56"/>
          <path id="Trazado_174754" data-name="Trazado 174754" d="M101.194,325.924H53.879L52,261.71c-.17-5.779,2.982-10.921,7.739-12.535L76.758,243.4l18.414,5.883c4.839,1.545,8.074,6.732,7.9,12.584Z" transform="translate(11.521 53.937)" fill="#ba6c56"/>
          <path id="Trazado_174755" data-name="Trazado 174755" d="M138.011,339.691a11.354,11.354,0,0,0-8.726-10.276l-3.173-.741a141.675,141.675,0,0,0-15.822-2.582c-2.361-.263-4.724-.483-7.089-.673l-1.928-18.132H54.213l-3.049,28.665c-.6,5.64,1.445,10.8,4.7,12.932a13.127,13.127,0,0,0,5.744,2.855,137,137,0,0,0,15.832,2.328q7.931.746,15.882.95t15.919-.074q3.007-.132,6.015-.346l8,57.91,20.843-2.189Z" transform="translate(11.315 68.095)" fill="#42a5f6"/>
          <path id="Trazado_174756" data-name="Trazado 174756" d="M93.3,225.662a25.874,25.874,0,0,1-.183,2.932v7.256a10.2,10.2,0,0,1-.476,3.091,9.994,9.994,0,0,1-2.272,3.982,9.527,9.527,0,0,1-3.787,2.468,17.952,17.952,0,0,1-5.106.7c-1.454.061-2.92.086-4.373.061a21.28,21.28,0,0,1-4.043-.232,14.91,14.91,0,0,1-5.509-2.492,19.475,19.475,0,0,1-6.059-7.391,23.973,23.973,0,0,1-2.3-10.371c0-11.422,7.635-20.682,17.054-20.682S93.3,214.24,93.3,225.662" transform="translate(13.117 45.424)" fill="#ba6c56"/>
          <path id="Trazado_174757" data-name="Trazado 174757" d="M63.735,222.083a3.747,3.747,0,0,0-3.486-1.613,4.83,4.83,0,0,0-3.431,1.875,5.375,5.375,0,0,0-1.016,3.467,5.53,5.53,0,0,0,1.344,3.5,5.07,5.07,0,0,0,3.715,1.671,3.727,3.727,0,0,0,3.4-1.944Z" transform="translate(12.365 48.854)" fill="#ba6c56"/>
          <path id="Trazado_174758" data-name="Trazado 174758" d="M59.666,228.464a6.14,6.14,0,0,0-.42-6.476" transform="translate(13.129 49.193)" fill="none" stroke="#aa563c" stroke-linecap="round" stroke-linejoin="round" stroke-width="0.685"/>
          <path id="Trazado_174759" data-name="Trazado 174759" d="M60.372,224.3a4.587,4.587,0,0,0-2.464,2.41" transform="translate(12.832 49.704)" fill="none" stroke="#aa563c" stroke-linecap="round" stroke-linejoin="round" stroke-width="0.685"/>
          <path id="Trazado_174760" data-name="Trazado 174760" d="M111.912,408.768c0,.132,0,.276.011.419.011.861.066,1.788.11,2.727.044.662.089,1.324.133,2,.077.949.154,1.909.243,2.848.176,2.041.386,3.962.562,5.518.243,2.185.431,3.642.431,3.642l47.82-.033a2.982,2.982,0,0,0,.011-3.609,22.39,22.39,0,0,0-11.721-9.271c-6.687-2.24-10.727-5.2-13.441-8.144-.077-.1-.166-.177-.232-.276a23.4,23.4,0,0,1-2.107-2.692,1.732,1.732,0,0,1-.2-.3c-.309-.475-.585-.927-.872-1.369-1-1.655-2.56-.926-4.1.585a11.428,11.428,0,0,1-12.482,2.3,5.329,5.329,0,0,0-3.256-.673c-.486.188-.751,1.3-.85,2.959-.066.959-.077,2.118-.055,3.377" transform="translate(24.798 88.481)" fill="#0c1633"/>
          <path id="Trazado_174761" data-name="Trazado 174761" d="M112.8,418.1c-.147,2.179-.128,3.654-.128,3.654l48.389-.04a2.982,2.982,0,0,0,0-3.614Z" transform="translate(24.968 92.652)" fill="#d4d4d0"/>
          <path id="Trazado_174762" data-name="Trazado 174762" d="M126.728,404.863l1.446,1.856a.711.711,0,0,0,1,.121l3.411-2.675a25.282,25.282,0,0,1-2.108-2.688c-.073-.1-.133-.2-.193-.3l-3.434,2.686a.7.7,0,0,0-.121,1" transform="translate(28.048 88.901)" fill="#d4d4d0"/>
          <path id="Trazado_174763" data-name="Trazado 174763" d="M111.912,407.659c0,.132,0,.276.011.419l1.081.133a.7.7,0,0,0,.8-.618l.287-2.339a.7.7,0,0,0-.618-.8l-1.5-.176c-.066.959-.077,2.118-.055,3.377" transform="translate(24.798 89.59)" fill="#d4d4d0"/>
          <path id="Trazado_174764" data-name="Trazado 174764" d="M125.277,411.836a3.628,3.628,0,1,1-3.628-3.628,3.629,3.629,0,0,1,3.628,3.628" transform="translate(26.154 90.459)" fill="#d4d4d0"/>
          <path id="Trazado_174765" data-name="Trazado 174765" d="M130.763,248.736s.906-18.44,1.566-22.751.562-7.84.1-8.883-2.972,1.526-3.747,7.852c0,0,.483-7.832-1.223-11.285s-2.64,7.5-2.389,11.153c0,0-.685-9.581-2.85-12.951s-2.112,8.76-1.211,13.5c0,0-2.5-9.461-4.582-11.41s-.241,8.655,1.082,12.846.086,5.634-.649,5.111a38.666,38.666,0,0,1-4.47-4.293c-.726-.867-3.578-2.108-3.411-.417.1,1.014,1.881,3.467,2.99,4.9,2.959,3.827,7.229,10.878,7.859,14.447l.018.107a4.478,4.478,0,0,0,5.616,3.546Z" transform="translate(24.148 46.822)" fill="#ba6c56"/>
          <path id="Trazado_174766" data-name="Trazado 174766" d="M56.538,225.78c2.443,1.5,5.283,2.766,8.1,2.22,1.459-.283,2.953-1.252,3.166-2.722a3.809,3.809,0,0,0-1.562-3.247,1.129,1.129,0,0,0,.618.247,12.313,12.313,0,0,0,3.85.355,2.316,2.316,0,0,0,1.828-.757,2.075,2.075,0,0,0,.089-1.79,5.482,5.482,0,0,0-.69-1.417,5.416,5.416,0,0,0,3.4,1.082,2.559,2.559,0,0,0,1.143-.274,1.257,1.257,0,0,0,.663-.928,1.676,1.676,0,0,0-.137-.738,5.554,5.554,0,0,0-1.18-1.882,7.587,7.587,0,0,0,5.326,2.057,2.242,2.242,0,0,0,1.074-.342,1.9,1.9,0,0,0,.663-1.8,5.586,5.586,0,0,0-.721-1.873,8.066,8.066,0,0,0,4.026,3.909,3.874,3.874,0,0,0,1.753.365,1.934,1.934,0,0,0,1.523-.84,3.075,3.075,0,0,0,.329-1.4,6.312,6.312,0,0,0,1.143,2.708,2.766,2.766,0,0,0,2.8.921,1.4,1.4,0,0,0,.421-.215,1.825,1.825,0,0,0,.377-.442,5.6,5.6,0,0,0,.518-1.007,35.951,35.951,0,0,0-7.922-10.3,17.217,17.217,0,0,0-11.995-4.48A24.283,24.283,0,0,0,69.2,204.54a13.764,13.764,0,0,0-5.07,2.519,12.824,12.824,0,0,0-2.7,3.9,53.169,53.169,0,0,0-4.891,14.822" transform="translate(12.529 45.022)" fill="#0c1633"/>
          <path id="Trazado_174767" data-name="Trazado 174767" d="M103.346,321.43c0-16.674.7-36.571,1.029-52.06a46.947,46.947,0,0,0-.689-11.281c-.827-3.686-1.777-6.274-4.8-8.537-2.052-1.536-5.625-2.68-8.3-3.215-.023,4.026-1.99,6.886-5.573,8.725a13.435,13.435,0,0,1-11.664.031,16.584,16.584,0,0,1-8.038-8.65c-3.49.7-7.982,2.678-9.5,5.583s-.464,6.2-.845,9.455c-2.67,22.815-2.523,47.561-4.134,70.474a132.468,132.468,0,0,0,53.779.154Z" transform="translate(11.263 54.589)" fill="#5e4ecb"/>
          <path id="Trazado_174768" data-name="Trazado 174768" d="M104.6,317.1a132.393,132.393,0,0,1-53.776-.154c.072-.958.131-1.917.189-2.887a138.517,138.517,0,0,0,53.243.154Z" transform="translate(11.262 69.596)" fill="#4a3ea1"/>
          <path id="Trazado_174769" data-name="Trazado 174769" d="M104.569,299.929,59.36,291.54q2.393-4.563,4.79-9.123c.679-1.281,1.34-2.572,2-3.861-7.524-1.218-15.015-2.415-22.157-5.5-3.783,7.13-7.619,14.232-11.323,21.4l-.52,1a10.48,10.48,0,0,0,9.3,15.238l62.088.189a5.53,5.53,0,0,0,1.027-10.966" transform="translate(6.872 60.51)" fill="#ba6c56"/>
          <path id="Trazado_174770" data-name="Trazado 174770" d="M90.334,294.891a18.683,18.683,0,0,1,8.638,2.642c1.088.663,2.666,1.8,3.688,2.595,4.273,3.336,8.036,2.8,12.446,3.869a3,3,0,0,1,1.192.492,1.5,1.5,0,0,1,.579,1.266H87.847Z" transform="translate(19.467 65.348)" fill="#ba6c56"/>
          <path id="Trazado_174771" data-name="Trazado 174771" d="M68.4,246.423l-5.291,1.784a16.614,16.614,0,0,0-9.232,7.7L36.847,286.137l24.16,9.257L77.52,260.713l-9.3-10.7Z" transform="translate(8.165 54.608)" fill="#5e4ecb"/>
          <path id="Trazado_174772" data-name="Trazado 174772" d="M86.464,247.047l3.483,1.376A34.432,34.432,0,0,1,98,252.931l21.229,16.207-10.992,25.723L89.393,283.451l-4.978-33.318Z" transform="translate(18.706 54.746)" fill="#5e4ecb"/>
          <path id="Trazado_174773" data-name="Trazado 174773" d="M109.041,392.492l23.511-3.131.628,4.957-23.563,2.27Z" transform="translate(24.164 86.283)" fill="#1d89e4"/>
          <path id="Trazado_174774" data-name="Trazado 174774" d="M91.764,247.184c-.142,4.874-2.6,8.34-6.979,10.6a16.879,16.879,0,0,1-14.632.048,20.754,20.754,0,0,1-9.938-10.54,19.626,19.626,0,0,1,3.005-.851,16.673,16.673,0,0,0,8.044,8.659,13.483,13.483,0,0,0,11.663-.035c3.585-1.846,5.549-4.7,5.572-8.73a29.681,29.681,0,0,1,3.265.851" transform="translate(13.344 54.588)" fill="#4a3ea1"/>
          <path id="Trazado_174775" data-name="Trazado 174775" d="M37.513,276.352l25.481,10.475L60.95,290.06l-24.8-9.7Z" transform="translate(8.011 61.24)" fill="#4a3ea1"/>
          <path id="Trazado_174776" data-name="Trazado 174776" d="M101.148,290.589l12.786-27.06,3.153,1.935-11.6,27.584Z" transform="translate(22.415 58.398)" fill="#4a3ea1"/>
          <path id="Trazado_174777" data-name="Trazado 174777" d="M122.25,306.152h-2.481a.591.591,0,0,1,0-1.183H122l11.159-11.864a.592.592,0,1,1,.862.811l-11.335,12.05a.6.6,0,0,1-.431.186" transform="translate(26.41 64.911)" fill="#004370"/>
          <path id="Trazado_174778" data-name="Trazado 174778" d="M145.03,306.152h-2.481a.593.593,0,0,1-.431-.186l-11.335-12.05a.592.592,0,1,1,.861-.811L142.8,304.97h2.226a.591.591,0,0,1,0,1.183" transform="translate(28.946 64.911)" fill="#004370"/>
          <path id="Trazado_174779" data-name="Trazado 174779" d="M131.934,292.6h-1.057a.591.591,0,1,1,0-1.183h1.057a2.576,2.576,0,0,0,2.369-2.736V280.3a.591.591,0,1,1,1.183,0v8.376a3.753,3.753,0,0,1-3.551,3.919" transform="translate(28.872 61.984)" fill="#00548a"/>
          <path id="Trazado_174780" data-name="Trazado 174780" d="M134.068,271.8l-10.105,10.105-7.6-7.6a7.146,7.146,0,1,1,10.106-10.105Z" transform="translate(25.323 58.084)" fill="#00548a"/>
          <path id="Trazado_174781" data-name="Trazado 174781" d="M124.49,282.435l10.105-10.1,5.634,5.634a3.932,3.932,0,0,1,0,5.561l-4.544,4.544a3.934,3.934,0,0,1-5.561,0Z" transform="translate(27.587 60.349)" fill="#004370"/>
          <path id="Trazado_174782" data-name="Trazado 174782" d="M136.076,273.687l-10.228,10.228a.98.98,0,0,1-1.385,0l-2.844-2.844a.98.98,0,0,1,0-1.385l10.228-10.228a.98.98,0,0,1,1.385,0l2.844,2.844a.98.98,0,0,1,0,1.385" transform="translate(26.887 59.649)" fill="#002c47"/>
          <path id="Trazado_174783" data-name="Trazado 174783" d="M129.682,275.662a1.862,1.862,0,1,1-1.862-1.862,1.861,1.861,0,0,1,1.862,1.862" transform="translate(27.913 60.674)" fill="#004370"/>
          <path id="Trazado_174784" data-name="Trazado 174784" d="M131.607,293.676H130.55a3.753,3.753,0,0,1-3.55-3.919V275.431a.591.591,0,1,1,1.183,0v14.326a2.576,2.576,0,0,0,2.367,2.736h1.057a.591.591,0,1,1,0,1.183" transform="translate(28.143 60.905)" fill="#00548a"/>
          <path id="Trazado_174785" data-name="Trazado 174785" d="M131.244,299.182h0a1.493,1.493,0,0,1-1.493-1.494v-8.355a1.493,1.493,0,1,1,2.986,0v8.355a1.493,1.493,0,0,1-1.493,1.494" transform="translate(28.753 63.786)" fill="#002c47"/>
          <path id="Trazado_174786" data-name="Trazado 174786" d="M133.859,296.254h-4.646a.781.781,0,0,1-.782-.782v-3.262a.781.781,0,0,1,.782-.782h4.646a.782.782,0,0,1,.782.782v3.262a.782.782,0,0,1-.782.782" transform="translate(28.46 64.581)" fill="#002c47"/>
          <path id="Trazado_174787" data-name="Trazado 174787" d="M132.932,304.969h-.976V293.51a.592.592,0,0,0-1.184,0v11.459H129.8a.591.591,0,1,0,0,1.183h3.135a.591.591,0,0,0,0-1.183" transform="translate(28.632 64.911)" fill="#004370"/>
          <path id="Trazado_174788" data-name="Trazado 174788" d="M58.108,286.34q3.656-8.352,7.813-16.47" transform="translate(12.877 59.804)" fill="none" stroke="#4a3ea1" stroke-miterlimit="10" stroke-width="1"/>
          <path id="Trazado_174789" data-name="Trazado 174789" d="M61.093,277q.445,2.69.732,5.4" transform="translate(13.538 61.383)" fill="none" stroke="#4a3ea1" stroke-miterlimit="10" stroke-width="1"/>
          <path id="Trazado_174790" data-name="Trazado 174790" d="M94.309,281.968l-1.261-11.594" transform="translate(20.62 59.915)" fill="none" stroke="#4a3ea1" stroke-miterlimit="10" stroke-width="1"/>
          <line id="Línea_659" data-name="Línea 659" x1="0.035" y2="1.222" transform="translate(68.838 389.377)" fill="none" stroke="#fff" stroke-linecap="round" stroke-linejoin="round" stroke-width="0.5"/>
          <path id="Trazado_174791" data-name="Trazado 174791" d="M56.363,321.736,55.978,334.9a9.067,9.067,0,0,0,8.69,9.326l49.814,2.047a3.86,3.86,0,0,1,3.67,3.361l6.77,52.227" transform="translate(12.404 71.297)" fill="none" stroke="#fff" stroke-linecap="round" stroke-linejoin="round" stroke-width="0.5" stroke-dasharray="1.994 1.994"/>
          <line id="Línea_660" data-name="Línea 660" x2="0.156" y2="1.212" transform="translate(137.483 474.37)" fill="none" stroke="#fff" stroke-linecap="round" stroke-linejoin="round" stroke-width="0.5"/>
          <path id="Trazado_174792" data-name="Trazado 174792" d="M66.535,226a6.459,6.459,0,1,1-6.449-6.818A6.641,6.641,0,0,1,66.535,226" transform="translate(11.886 48.572)" fill="#1d89e4"/>
          <path id="Trazado_174793" data-name="Trazado 174793" d="M65.065,226a6.459,6.459,0,1,1-6.449-6.818A6.641,6.641,0,0,1,65.065,226" transform="translate(11.56 48.572)" fill="#42a5f6"/>
          <path id="Trazado_174794" data-name="Trazado 174794" d="M58.129,231.117a1.222,1.222,0,0,1-1.222-1.222V216.366a18.9,18.9,0,0,1,7.732-15.21,1.221,1.221,0,1,1,1.44,1.973,16.451,16.451,0,0,0-6.729,13.237v13.529a1.222,1.222,0,0,1-1.222,1.222" transform="translate(12.611 44.524)" fill="#42a5f6"/>
          <path id="Trazado_174795" data-name="Trazado 174795" d="M87.621,227.851V230.8a10.2,10.2,0,0,1-.476,3.091h-.122a3.048,3.048,0,0,1,0-6.1,3.209,3.209,0,0,1,.6.061" transform="translate(18.61 50.479)" fill="#ba6047"/>
          <path id="Trazado_174796" data-name="Trazado 174796" d="M74.27,230.836a3.044,3.044,0,1,1-3.044-3.044,3.045,3.045,0,0,1,3.044,3.044" transform="translate(15.109 50.479)" fill="#ba6047"/>
          <path id="Trazado_174797" data-name="Trazado 174797" d="M85.378,223.064a1.65,1.65,0,1,1-1.65-1.65,1.651,1.651,0,0,1,1.65,1.65" transform="translate(18.188 49.066)" fill="#0c1633"/>
          <path id="Trazado_174798" data-name="Trazado 174798" d="M79.927,233.859c0,1.374-.739,2.488-1.65,2.488s-1.65-1.114-1.65-2.488.739-2.487,1.65-2.487,1.65,1.113,1.65,2.487" transform="translate(16.98 51.272)" fill="#0c1633"/>
          <path id="Trazado_174799" data-name="Trazado 174799" d="M75.116,223.064a1.65,1.65,0,1,1-1.65-1.65,1.651,1.651,0,0,1,1.65,1.65" transform="translate(15.914 49.066)" fill="#0c1633"/>
          <path id="Trazado_174800" data-name="Trazado 174800" d="M79.081,223.467q.722,2.2,1.349,4.422a2.3,2.3,0,0,1,.118,1.143,1.505,1.505,0,0,1-.723.9,3.488,3.488,0,0,1-1.12.376,10.741,10.741,0,0,1-2.486.191" transform="translate(16.89 49.521)" fill="none" stroke="#0c1633" stroke-linecap="round" stroke-linejoin="round" stroke-width="1"/>
          <path id="Trazado_174801" data-name="Trazado 174801" d="M378.287,234.407a1.222,1.222,0,0,0,1.222-1.222v-10.1a16.4,16.4,0,0,1,16.38-16.38h.288a16.246,16.246,0,0,1,9.651,3.143,1.222,1.222,0,1,0,1.442-1.973,18.682,18.682,0,0,0-11.092-3.613h-.288a18.844,18.844,0,0,0-18.824,18.824v10.1a1.222,1.222,0,0,0,1.222,1.222" transform="translate(83.558 45.264)" fill="#42a5f6"/>
          <path id="Trazado_174802" data-name="Trazado 174802" d="M373.542,232.108a6.459,6.459,0,1,0,6.449-6.818,6.641,6.641,0,0,0-6.449,6.818" transform="translate(82.777 49.925)" fill="#1d89e4"/>
          <path id="Trazado_174803" data-name="Trazado 174803" d="M375.011,232.108a6.459,6.459,0,1,0,6.449-6.818,6.641,6.641,0,0,0-6.449,6.818" transform="translate(83.103 49.925)" fill="#42a5f6"/>
          <path id="Trazado_174804" data-name="Trazado 174804" d="M320.82,285.143a4.595,4.595,0,0,0-1.676,9l34.985,9.79,1.947-15.408Z" transform="translate(69.979 63.183)" fill="#ba6c56"/>
          <path id="Trazado_174805" data-name="Trazado 174805" d="M332.105,297.93s-15.976-1.871-19.775-1.925-6.818-.645-7.647-1.194,1.738-2.334,7.287-2.091c0,0-6.8-.711-9.522-2.673s6.821-1.19,9.928-.451c0,0-8.135-1.966-10.72-4.31s7.832-.556,11.779.9c0,0-7.771-3.508-9.146-5.577s7.473,1.037,10.883,2.777,4.83.883,4.486.177a33.7,33.7,0,0,0-3.047-4.458c-.64-.749-1.3-3.378.133-2.992.858.232,2.708,2.115,3.782,3.275,2.863,3.093,8.308,7.777,11.285,8.83l4.155,1.468Z" transform="translate(66.757 61.179)" fill="#ba6c56"/>
          <path id="Trazado_174806" data-name="Trazado 174806" d="M383.86,258.537,380.17,263a27.007,27.007,0,0,0-2.332,3.295c-3.828,6.373-16.938,28.158-17.193,28.158-.3,0-16.115-1.134-16.115-1.134l-2.714,15.88,21.726,5.773a10.368,10.368,0,0,0,10.965-3.809l15.206-20.319Z" transform="translate(75.747 57.292)" fill="#ff9ad6"/>
          <path id="Trazado_174807" data-name="Trazado 174807" d="M346.971,286.994l-2.36,17.529-3.5-.678,2.647-17.193Z" transform="translate(75.59 63.522)" fill="#cf7dad"/>
          <path id="Trazado_174808" data-name="Trazado 174808" d="M346.971,286.994l-2.36,17.529-3.5-.678,2.647-17.193Z" transform="translate(75.59 63.522)" fill="none" stroke="#cf7dad" stroke-linecap="round" stroke-linejoin="round" stroke-width="0.5"/>
          <path id="Trazado_174809" data-name="Trazado 174809" d="M308.678,413.185a6.733,6.733,0,0,0,12.744,4.262l14.3-35.035-17.9-3.883Z" transform="translate(68.354 83.882)" fill="#ba6c56"/>
          <path id="Trazado_174810" data-name="Trazado 174810" d="M348.163,418.482a6.734,6.734,0,0,0,13.427.555l4.076-37.958-18.4.778Z" transform="translate(76.955 84.448)" fill="#ba6c56"/>
          <path id="Trazado_174811" data-name="Trazado 174811" d="M376.593,219.513a15.549,15.549,0,0,0,2.071,10.259,26.349,26.349,0,0,0,3.574,4.423,11.536,11.536,0,0,0-.183-8.493c-1.167-2.625-2.8-5.121-5.462-6.19" transform="translate(83.417 48.644)" fill="#0c1633"/>
          <path id="Trazado_174812" data-name="Trazado 174812" d="M416.444,310.568c7.305-.834,14.623-3.549,19.332-9.195,3.965-4.754,3.791-11.854,1.56-17.629s-6.184-10.687-9.422-15.961-5.854-11.382-4.932-17.5c.891-5.911,4.962-11,5.7-16.937a15.916,15.916,0,0,0-7.642-15.363c-4.221-2.441-9.422-2.811-13.544-5.413-3.11-1.964-5.4-4.982-8.229-7.3a19.971,19.971,0,0,0-9.8-4.769c-10.49-1.41-17.906,9.184-16.862,18.844A10.449,10.449,0,0,0,376.7,226.8c3.932,2.761,8.3,4.66,13.1,4.423,2.36,15.161,9.869,29.58,15.27,43.942a336.5,336.5,0,0,1,11.378,35.407" transform="translate(82.548 44.402)" fill="#0c1633"/>
          <path id="Trazado_174813" data-name="Trazado 174813" d="M419.016,331.291A15.434,15.434,0,0,0,401.8,317.868c-9.659,1.194-19.327,2.27-28.992,3.407-9.669,1.059-19.334,2.182-29.008,3.187l-1.245.126a11.764,11.764,0,0,0-10.128,8.694l-19.979,70.376,18.987,5.1,22.1-58.7c7.1-.239,14.189-.457,21.283-.694,9.726-.247,19.45-.556,29.182-.746a15.69,15.69,0,0,0,1.593-.114,15.435,15.435,0,0,0,13.423-17.21" transform="translate(69.24 70.414)" fill="#e3b04e"/>
          <path id="Trazado_174814" data-name="Trazado 174814" d="M331.309,409.836c-.011.913-.056,1.881-.111,2.871-.033.606-.077,1.211-.121,1.828-.066.869-.143,1.748-.22,2.6-.165,1.87-.352,3.62-.518,5.039-.22,2-.384,3.333-.384,3.333l-43.666-.033a2.721,2.721,0,0,1-.011-3.3,20.5,20.5,0,0,1,10.7-8.461c6.106-2.046,9.791-4.741,12.266-7.437.077-.088.155-.165.22-.253a22.954,22.954,0,0,0,1.925-2.453c.066-.088.121-.187.176-.276.287-.429.54-.847.793-1.253,2.376-3.905,8.163,6.732,8.163,6.732s7.778-5.5,9.957-4.708c.7.264.891,2.662.826,5.776" transform="translate(63.319 88.901)" fill="#0c1633"/>
          <path id="Trazado_174815" data-name="Trazado 174815" d="M330.345,418.359c.133,1.99.117,3.336.117,3.336l-44.182-.037a2.724,2.724,0,0,1,0-3.3Z" transform="translate(63.319 92.709)" fill="#d4d4d0"/>
          <path id="Trazado_174816" data-name="Trazado 174816" d="M310.512,406.273l-1.321,1.694a.649.649,0,0,1-.913.11l-3.114-2.442a22.97,22.97,0,0,0,1.925-2.454c.066-.088.121-.187.176-.275l3.136,2.454a.639.639,0,0,1,.11.913" transform="translate(67.625 89.284)" fill="#d4d4d0"/>
          <path id="Trazado_174817" data-name="Trazado 174817" d="M327.844,410.615c-.034.6-.078,1.211-.122,1.826a16.92,16.92,0,0,1-5.445,2.178,16.273,16.273,0,0,1-4.07.352c-1.355-.044-2.631-.2-3.83-.253a9.612,9.612,0,0,0-3.257.342,8.133,8.133,0,0,0-2.739,1.5,9.21,9.21,0,0,0-3.158,5.226l-4.345-1.145a13.268,13.268,0,0,1,5.335-7.084,11.569,11.569,0,0,1,4.128-1.716,12.343,12.343,0,0,1,4.312-.033c1.342.2,2.573.484,3.75.638a14.048,14.048,0,0,0,3.532.055,15.425,15.425,0,0,0,5.909-1.881" transform="translate(66.675 90.993)" fill="#d4d4d0"/>
          <rect id="Rectángulo_44472" data-name="Rectángulo 44472" width="17.283" height="23.303" transform="translate(471.626 295.166)" fill="#ba6c56"/>
          <path id="Trazado_174818" data-name="Trazado 174818" d="M386.072,241.622v7.207c3.936.164,12.965-.25,16.641-7.174l-2.53-.033Z" transform="translate(85.554 53.544)" fill="#aa563c"/>
          <path id="Trazado_174819" data-name="Trazado 174819" d="M413.05,231.85a24,24,0,0,1-2.309,10.384,19.364,19.364,0,0,1-6.059,7.391,14.964,14.964,0,0,1-5.5,2.492,22.338,22.338,0,0,1-4.044.232c-1.466.024-2.92,0-4.373-.061a17.951,17.951,0,0,1-5.106-.7,9.387,9.387,0,0,1-3.787-2.48,10.572,10.572,0,0,1-2.749-7.061v-7.269a25.5,25.5,0,0,1-.2-2.932c0-11.41,7.635-20.67,17.066-20.67s17.054,9.26,17.054,20.67" transform="translate(83.972 46.798)" fill="#ba6c56"/>
          <path id="Trazado_174820" data-name="Trazado 174820" d="M403.849,228.281a3.747,3.747,0,0,1,3.486-1.613,4.834,4.834,0,0,1,3.431,1.875,5.374,5.374,0,0,1,1.016,3.467,5.53,5.53,0,0,1-1.344,3.5,5.072,5.072,0,0,1-3.715,1.671,3.727,3.727,0,0,1-3.4-1.944Z" transform="translate(89.377 50.228)" fill="#ba6c56"/>
          <path id="Trazado_174821" data-name="Trazado 174821" d="M406.591,234.662a6.14,6.14,0,0,1,.42-6.476" transform="translate(89.94 50.566)" fill="none" stroke="#aa563c" stroke-linecap="round" stroke-linejoin="round" stroke-width="0.685"/>
          <path id="Trazado_174822" data-name="Trazado 174822" d="M406.124,230.493a4.593,4.593,0,0,1,2.464,2.411" transform="translate(89.998 51.078)" fill="none" stroke="#aa563c" stroke-linecap="round" stroke-linejoin="round" stroke-width="0.685"/>
          <path id="Trazado_174823" data-name="Trazado 174823" d="M374.12,275.088c6.435-.486,12.888-.821,19.327-1.173,10.378-.566,20.748-1.321,31.117-2.108.285-6.306-2.231-11.972-6.608-13.934l-17.938-8.038-19.448,8.181c-4.906,2.064-7.558,8.747-6.611,15.862Z" transform="translate(82.828 55.364)" fill="#ba6c56"/>
          <path id="Trazado_174824" data-name="Trazado 174824" d="M429.911,333.679a15.569,15.569,0,0,0-.392-1.857,19.4,19.4,0,0,0-.6-3.629l-5.986-22.512H387.7l-5.023,18.89c-8.243,1.054-16.483,2.143-24.73,3.138l-1.318.158A12.025,12.025,0,0,0,346.1,340.091l.026,70.649,20.011-.57,4.6-57.12q8.447-.377,16.895-.751c9.161-.34,18.315-.743,27.48-1.026a15.914,15.914,0,0,0,1.688-.145,15.435,15.435,0,0,0,13.118-17.448" transform="translate(76.695 67.739)" fill="#f4c35c"/>
          <path id="Trazado_174825" data-name="Trazado 174825" d="M369.968,409.836c-.011.913-.055,1.881-.11,2.871-.033.606-.077,1.211-.121,1.828-.066.869-.143,1.748-.22,2.6-.165,1.87-.353,3.62-.518,5.039-.22,2-.385,3.333-.385,3.333l-43.665-.033a2.721,2.721,0,0,1-.011-3.3,20.491,20.491,0,0,1,10.7-8.461c6.106-2.046,9.791-4.741,12.266-7.437.077-.088.154-.165.22-.253a22.954,22.954,0,0,0,1.925-2.453c.066-.088.121-.187.176-.276.287-.429.54-.847.793-1.253,2.376-3.905,8.163,6.732,8.163,6.732s7.778-5.5,9.957-4.708c.7.264.891,2.662.825,5.776" transform="translate(71.886 88.901)" fill="#0c1633"/>
          <path id="Trazado_174826" data-name="Trazado 174826" d="M369,418.359c.133,1.99.117,3.336.117,3.336l-44.182-.037a2.724,2.724,0,0,1,0-3.3Z" transform="translate(71.886 92.709)" fill="#d4d4d0"/>
          <path id="Trazado_174827" data-name="Trazado 174827" d="M349.171,406.273l-1.321,1.694a.649.649,0,0,1-.913.11l-3.114-2.442a23.131,23.131,0,0,0,1.925-2.454c.066-.088.121-.187.176-.275l3.136,2.454a.639.639,0,0,1,.11.913" transform="translate(76.192 89.284)" fill="#d4d4d0"/>
          <path id="Trazado_174828" data-name="Trazado 174828" d="M366.5,410.615c-.033.6-.077,1.211-.121,1.826a16.916,16.916,0,0,1-5.446,2.178,16.264,16.264,0,0,1-4.07.352c-1.353-.044-2.63-.2-3.828-.253a9.605,9.605,0,0,0-3.257.342,8.139,8.139,0,0,0-2.74,1.5,9.215,9.215,0,0,0-3.157,5.226l-4.346-1.145a13.27,13.27,0,0,1,5.336-7.084A11.564,11.564,0,0,1,349,411.837a12.342,12.342,0,0,1,4.312-.033c1.343.2,2.574.484,3.752.638a14.049,14.049,0,0,0,3.532.055,15.413,15.413,0,0,0,5.908-1.881" transform="translate(75.242 90.993)" fill="#d4d4d0"/>
          <path id="Trazado_174829" data-name="Trazado 174829" d="M346.285,306.152h2.48a.591.591,0,0,0,0-1.183h-2.226l-11.159-11.864a.592.592,0,1,0-.862.811l11.335,12.05a.6.6,0,0,0,.432.186" transform="translate(74.094 64.911)" fill="#004370"/>
          <path id="Trazado_174830" data-name="Trazado 174830" d="M323.505,306.152h2.481a.594.594,0,0,0,.431-.186l11.335-12.05a.592.592,0,1,0-.861-.811L325.731,304.97h-2.226a.591.591,0,1,0,0,1.183" transform="translate(71.558 64.911)" fill="#004370"/>
          <path id="Trazado_174831" data-name="Trazado 174831" d="M334.822,292.6h1.057a.591.591,0,1,0,0-1.183h-1.057a2.576,2.576,0,0,1-2.369-2.736V280.3a.591.591,0,1,0-1.182,0v8.376a3.753,3.753,0,0,0,3.551,3.919" transform="translate(73.41 61.984)" fill="#00548a"/>
          <path id="Trazado_174832" data-name="Trazado 174832" d="M335.337,271.8l10.105,10.105,7.6-7.6a7.146,7.146,0,1,0-10.106-10.105Z" transform="translate(74.311 58.084)" fill="#00548a"/>
          <path id="Trazado_174833" data-name="Trazado 174833" d="M344.388,282.435l-10.105-10.1-5.634,5.634a3.932,3.932,0,0,0,0,5.561l4.544,4.544a3.934,3.934,0,0,0,5.561,0Z" transform="translate(72.574 60.349)" fill="#004370"/>
          <path id="Trazado_174834" data-name="Trazado 174834" d="M332.465,273.687l10.228,10.228a.98.98,0,0,0,1.385,0l2.844-2.844a.98.98,0,0,0,0-1.385l-10.228-10.228a.98.98,0,0,0-1.385,0l-2.844,2.844a.98.98,0,0,0,0,1.385" transform="translate(73.611 59.649)" fill="#002c47"/>
          <path id="Trazado_174835" data-name="Trazado 174835" d="M336.807,275.662a1.862,1.862,0,1,0,1.862-1.862,1.861,1.861,0,0,0-1.862,1.862" transform="translate(74.637 60.674)" fill="#004370"/>
          <path id="Trazado_174836" data-name="Trazado 174836" d="M335.15,293.676h1.057a3.753,3.753,0,0,0,3.55-3.919V275.431a.591.591,0,1,0-1.182,0v14.326a2.576,2.576,0,0,1-2.367,2.736H335.15a.591.591,0,0,0,0,1.183" transform="translate(74.139 60.905)" fill="#00548a"/>
          <path id="Trazado_174837" data-name="Trazado 174837" d="M335.112,299.182h0a1.494,1.494,0,0,0,1.494-1.494v-8.355a1.494,1.494,0,0,0-2.988,0v8.356a1.494,1.494,0,0,0,1.494,1.493" transform="translate(73.93 63.786)" fill="#002c47"/>
          <path id="Trazado_174838" data-name="Trazado 174838" d="M333.082,296.254h4.645a.782.782,0,0,0,.783-.782v-3.262a.782.782,0,0,0-.783-.782h-4.645a.782.782,0,0,0-.783.781v3.263a.782.782,0,0,0,.783.782" transform="translate(73.638 64.581)" fill="#002c47"/>
          <path id="Trazado_174839" data-name="Trazado 174839" d="M333.665,304.969h.976V293.51a.591.591,0,1,1,1.182,0v11.459h.976a.591.591,0,0,1,0,1.183h-3.135a.591.591,0,0,1,0-1.183" transform="translate(73.81 64.911)" fill="#004370"/>
          <path id="Trazado_174840" data-name="Trazado 174840" d="M376.235,224.195a21.683,21.683,0,0,0,25.126,1.955,44.535,44.535,0,0,0,3.98,8.323c1.764,2.58,5.346,6.874,8.218,8.107,5.932.211,7.438-7.576,3.235-16.774-2.185-4.78-3.5-10.188-7.92-13.038a23.832,23.832,0,0,0-6.382-2.749c-6.162-1.771-13.185-1.925-18.6,1.511-4.3,2.733-6.456,7.711-7.661,12.666" transform="translate(83.374 46.268)" fill="#0c1633"/>
          <path id="Trazado_174841" data-name="Trazado 174841" d="M312.2,386.566l21.249,5.768-1.38,4.635-20.755-6.558Z" transform="translate(68.987 85.663)" fill="#c99c45"/>
          <path id="Trazado_174842" data-name="Trazado 174842" d="M345.193,389.973l21.992-1.054.114,4.834-21.767.153Z" transform="translate(76.495 86.185)" fill="#e3b04e"/>
          <path id="Trazado_174843" data-name="Trazado 174843" d="M358.1,402.838c0-.842,3.814-41.988,4.886-53.533a3.57,3.57,0,0,1,3.268-3.229l44.753-3.662A11.249,11.249,0,0,0,421.083,328.8l-3.416-15.666" transform="translate(79.356 69.392)" fill="none" stroke="#fff" stroke-linecap="round" stroke-linejoin="round" stroke-width="0.5" stroke-dasharray="2 2"/>
          <path id="Trazado_174844" data-name="Trazado 174844" d="M387.9,254.388a29.412,29.412,0,0,0-7.488,3.365,11.228,11.228,0,0,0-4.6,5.156,50.127,50.127,0,0,0-1.582,5.006c-.856,2.767-2.86,4.94-3.891,7.647a20.862,20.862,0,0,0-.716,10.988,62.205,62.205,0,0,0,3.218,10.656c.7,1.915,2.468,3.159,3.333,5.009a23.8,23.8,0,0,1,1.483,4.916c1.018,4.528,2.817,13.408,1.57,20.1a42.505,42.505,0,0,0,8.376,1.174c11.244.274,22.751.417,33.412-3.168-.748-7.542.093-15.228,1.236-22.721q1.383-9.059,2.766-18.121c.837-5.483,1.674-11.091.646-16.542s-4.287-10.809-9.454-12.823c-2.072-.807-4.674-1.753-7.041-2.6l-6.077,7.793-11.416,6.9-1.874-1.516Z" transform="translate(81.82 55.939)" fill="#ff9ad6"/>
          <line id="Línea_661" data-name="Línea 661" y1="59.56" x2="23.213" transform="translate(398.639 414.69)" fill="none" stroke="#fff" stroke-linecap="round" stroke-linejoin="round" stroke-width="0.5" stroke-dasharray="2 2"/>
          <path id="Trazado_174845" data-name="Trazado 174845" d="M388.527,286.016l-36.417-7.669a5.078,5.078,0,0,0-2.874,9.706l37.532,14.482a135.993,135.993,0,0,0,1.759-16.519" transform="translate(76.671 61.658)" fill="#ba6c56"/>
          <path id="Trazado_174846" data-name="Trazado 174846" d="M358.837,291s-15.959-2.021-19.757-2.108-6.812-.708-7.635-1.264,1.759-2.319,7.3-2.023c0,0-6.792-.774-9.5-2.762s6.832-1.128,9.932-.358c0,0-8.116-2.041-10.679-4.41s7.838-.483,11.771,1.01c0,0-7.739-3.581-9.094-5.662s7.462,1.107,10.858,2.878,4.819.928,4.482.217a33.925,33.925,0,0,0-3.005-4.485c-.634-.755-1.266-3.39.16-2.99.855.239,2.691,2.14,3.753,3.311,2.834,3.119,8.235,7.852,11.2,8.934l4.141,1.506Z" transform="translate(72.708 59.611)" fill="#ba6c56"/>
          <path id="Trazado_174847" data-name="Trazado 174847" d="M411.9,253.17l5.011,1.983a14.5,14.5,0,0,1,9.131,12.525l.348,5.28L409.649,309.5a9.668,9.668,0,0,1-12,5.094l-29.4-10.346,4.009-15.828,21.049,3.657,11.2-32.485Z" transform="translate(81.604 56.103)" fill="#ff9ad6"/>
          <path id="Trazado_174848" data-name="Trazado 174848" d="M374.368,282.022l-4.183,17.185-3.412-1.041,4.434-16.821Z" transform="translate(81.277 62.347)" fill="#cf7dad"/>
          <path id="Trazado_174849" data-name="Trazado 174849" d="M374.368,282.022l-4.183,17.185-3.412-1.041,4.434-16.821Z" transform="translate(81.277 62.347)" fill="none" stroke="#cf7dad" stroke-linecap="round" stroke-linejoin="round" stroke-width="0.5"/>
          <path id="Trazado_174850" data-name="Trazado 174850" d="M379.2,286.251l11.682,2.03,6.2-17.967" transform="translate(84.031 59.902)" fill="none" stroke="#cf7dad" stroke-miterlimit="10" stroke-width="1"/>
          <path id="Trazado_174851" data-name="Trazado 174851" d="M380.465,304.75l14.382,5.155a9.692,9.692,0,0,0,12.08-5.09l13.82-30.2" transform="translate(84.311 60.855)" fill="none" stroke="#cf7dad" stroke-miterlimit="10" stroke-width="1"/>
          <path id="Trazado_174852" data-name="Trazado 174852" d="M404.566,251.995c-9.134,12.6-16.239,14.834-16.239,14.834-2.723-7.506-1.823-12.81-1.823-12.81l-3.237.953s.145,8.507,4.662,13.005a36.736,36.736,0,0,0,19.607-15.009Z" transform="translate(84.932 55.842)" fill="#fff"/>
          <path id="Trazado_174853" data-name="Trazado 174853" d="M404.566,251.995c-9.134,12.6-16.239,14.834-16.239,14.834-2.723-7.506-1.823-12.81-1.823-12.81l-3.237.953s.145,8.507,4.662,13.005a36.736,36.736,0,0,0,19.607-15.009Z" transform="translate(84.932 55.842)" fill="none" stroke="#fff" stroke-linecap="round" stroke-linejoin="round" stroke-width="0.5"/>
          <path id="Trazado_174854" data-name="Trazado 174854" d="M373.788,284.677a14.829,14.829,0,0,1-2.513-8.3c.141-3.631,2.028-6.931,3.865-10.066" transform="translate(82.273 59.016)" fill="none" stroke="#cf7dad" stroke-miterlimit="10" stroke-width="1"/>
          <path id="Trazado_174855" data-name="Trazado 174855" d="M408.652,237.221A1.222,1.222,0,0,0,409.874,236V222.47a18.9,18.9,0,0,0-7.731-15.21,1.221,1.221,0,0,0-1.44,1.973,16.451,16.451,0,0,1,6.729,13.237V236a1.222,1.222,0,0,0,1.222,1.222" transform="translate(88.685 45.877)" fill="#42a5f6"/>
          <path id="Trazado_174856" data-name="Trazado 174856" d="M381.937,237.43a3.031,3.031,0,0,1-2.248,2.932,10.042,10.042,0,0,1-.6-3.457v-2.5a3.036,3.036,0,0,1,2.846,3.03" transform="translate(84.007 51.943)" fill="#d97265"/>
          <path id="Trazado_174857" data-name="Trazado 174857" d="M398.986,237.434a3.044,3.044,0,1,1-3.044-3.044,3.045,3.045,0,0,1,3.044,3.044" transform="translate(87.067 51.941)" fill="#d97265"/>
          <path id="Trazado_174858" data-name="Trazado 174858" d="M380.551,231.713a3.13,3.13,0,0,1,2.431-1.253,3.919,3.919,0,0,1,2.606.949" transform="translate(84.331 51.07)" fill="none" stroke="#0c1633" stroke-linecap="round" stroke-linejoin="round" stroke-width="1"/>
          <path id="Trazado_174859" data-name="Trazado 174859" d="M395.5,231.713a3.132,3.132,0,0,0-2.432-1.253,3.918,3.918,0,0,0-2.6.949" transform="translate(86.526 51.07)" fill="none" stroke="#0c1633" stroke-linecap="round" stroke-linejoin="round" stroke-width="1"/>
          <path id="Trazado_174860" data-name="Trazado 174860" d="M388.008,231.319a5.722,5.722,0,0,1-.448,2.545,18.562,18.562,0,0,1-1.011,1.57,2.5,2.5,0,0,0-.441,1.77,3.18,3.18,0,0,0,1.222,1.617" transform="translate(85.554 51.261)" fill="none" stroke="#0c1633" stroke-linecap="round" stroke-linejoin="round" stroke-width="1"/>
          <path id="Trazado_174861" data-name="Trazado 174861" d="M386.175,240.69a7.779,7.779,0,0,0,5.84-1.064" transform="translate(85.577 53.101)" fill="none" stroke="#0c1633" stroke-linecap="round" stroke-linejoin="round" stroke-width="1"/>
          <path id="Trazado_174862" data-name="Trazado 174862" d="M387.911,232.261a5.195,5.195,0,1,1-5.194-5.194A5.195,5.195,0,0,1,387.911,232.261Z" transform="translate(83.659 50.318)" fill="none" stroke="#fff" stroke-miterlimit="10" stroke-width="0.75"/>
          <path id="Trazado_174863" data-name="Trazado 174863" d="M399.035,232.261a5.195,5.195,0,1,1-5.194-5.194A5.195,5.195,0,0,1,399.035,232.261Z" transform="translate(86.124 50.318)" fill="none" stroke="#fff" stroke-miterlimit="10" stroke-width="0.75"/>
          <line id="Línea_662" data-name="Línea 662" x2="3.219" transform="translate(471.551 282.155)" fill="none" stroke="#fff" stroke-miterlimit="10" stroke-width="0.75"/>
          <line id="Línea_663" data-name="Línea 663" x2="10.39" transform="translate(484.932 282.155)" fill="none" stroke="#fff" stroke-miterlimit="10" stroke-width="0.75"/>
          <path id="Trazado_174864" data-name="Trazado 174864" d="M400.832,232.108a6.459,6.459,0,1,0,6.449-6.818,6.641,6.641,0,0,0-6.449,6.818" transform="translate(88.825 49.925)" fill="#1d89e4"/>
          <path id="Trazado_174865" data-name="Trazado 174865" d="M402.3,232.108a6.459,6.459,0,1,0,6.449-6.818,6.641,6.641,0,0,0-6.449,6.818" transform="translate(89.15 49.925)" fill="#42a5f6"/>
          <path id="Trazado_174866" data-name="Trazado 174866" d="M540.682,310.966H11.313a3.592,3.592,0,0,1,0-7.183h529.37a3.592,3.592,0,0,1,0,7.183" transform="translate(1.711 67.319)" fill="#bed6e8"/>
          <path id="Trazado_174867" data-name="Trazado 174867" d="M325.392,252.9a.917.917,0,0,0,0-1.832.917.917,0,0,0,0,1.832" transform="translate(71.911 55.637)" fill="#004370"/>
          <path id="Trazado_174868" data-name="Trazado 174868" d="M70.772,163.481a1.857,1.857,0,0,1-.955-.269,19.8,19.8,0,0,1-3.408-2.524,15.131,15.131,0,0,1-2.448-2.931H37.305a9.687,9.687,0,1,1,0-19.375H65.62a9.682,9.682,0,0,1,5.22,17.839c.118.553.26,1.1.424,1.631a19.655,19.655,0,0,0,1.186,2.9,1.887,1.887,0,0,1-.424,2.229,1.842,1.842,0,0,1-1.253.5M37.305,139.6a8.466,8.466,0,0,0,0,16.931H64.647l.178.3a13.715,13.715,0,0,0,2.418,2.962,18.613,18.613,0,0,0,3.2,2.367.618.618,0,0,0,.757-.083.658.658,0,0,0,.153-.8,19.337,19.337,0,0,1-1.8-5.244l-.081-.428.375-.216A8.461,8.461,0,0,0,65.62,139.6Z" transform="translate(6.12 30.666)" fill="#004370"/>
          <path id="Trazado_174869" data-name="Trazado 174869" d="M37.017,146.754a2.433,2.433,0,1,1-2.433-2.433,2.434,2.434,0,0,1,2.433,2.433" transform="translate(7.124 31.982)" fill="#004370"/>
          <path id="Trazado_174870" data-name="Trazado 174870" d="M45.24,146.754a2.433,2.433,0,1,1-2.433-2.433,2.434,2.434,0,0,1,2.433,2.433" transform="translate(8.947 31.982)" fill="#004370"/>
          <path id="Trazado_174871" data-name="Trazado 174871" d="M53.462,146.754a2.433,2.433,0,1,1-2.433-2.433,2.434,2.434,0,0,1,2.433,2.433" transform="translate(10.769 31.982)" fill="#004370"/>
          <path id="Trazado_174872" data-name="Trazado 174872" d="M61.685,146.754a2.433,2.433,0,1,1-2.433-2.433,2.434,2.434,0,0,1,2.433,2.433" transform="translate(12.591 31.982)" fill="#004370"/>
          <path id="Trazado_174873" data-name="Trazado 174873" d="M376.379,156.011a1.84,1.84,0,0,1-1.253-.5,1.885,1.885,0,0,1-.421-2.229,19.657,19.657,0,0,0,1.185-2.9c.162-.528.305-1.074.425-1.63a9.681,9.681,0,0,1,5.22-17.84h28.312a9.688,9.688,0,1,1,0,19.376H383.191a15.124,15.124,0,0,1-2.448,2.929,19.92,19.92,0,0,1-3.407,2.525,1.876,1.876,0,0,1-.958.268m5.155-23.876a8.46,8.46,0,0,0-4.23,15.792l.375.217-.083.428a20.644,20.644,0,0,1-.539,2.171,20.872,20.872,0,0,1-1.256,3.074.656.656,0,0,0,.151.794.615.615,0,0,0,.759.083,18.622,18.622,0,0,0,3.2-2.367,13.824,13.824,0,0,0,2.418-2.962l.176-.3h27.342a8.466,8.466,0,1,0,0-16.933Z" transform="translate(82.401 29.01)" fill="#004370"/>
          <path id="Trazado_174874" data-name="Trazado 174874" d="M402.366,139.284a2.433,2.433,0,1,0,2.433-2.433,2.434,2.434,0,0,0-2.433,2.433" transform="translate(89.165 30.326)" fill="#004370"/>
          <path id="Trazado_174875" data-name="Trazado 174875" d="M394.144,139.284a2.433,2.433,0,1,0,2.433-2.433,2.434,2.434,0,0,0-2.433,2.433" transform="translate(87.343 30.326)" fill="#004370"/>
          <path id="Trazado_174876" data-name="Trazado 174876" d="M385.922,139.284a2.433,2.433,0,1,0,2.433-2.433,2.434,2.434,0,0,0-2.433,2.433" transform="translate(85.521 30.326)" fill="#004370"/>
          <path id="Trazado_174877" data-name="Trazado 174877" d="M377.7,139.284a2.433,2.433,0,1,0,2.433-2.433,2.434,2.434,0,0,0-2.433,2.433" transform="translate(83.699 30.326)" fill="#004370"/>
          <path id="Trazado_174878" data-name="Trazado 174878" d="M179.434,204.964a2.016,2.016,0,0,1-1.005-.272,1.991,1.991,0,0,1-1.005-1.741V185.58a2.01,2.01,0,0,1,3.015-1.741l15.044,8.686a2.01,2.01,0,0,1,0,3.482l-15.044,8.686a2.011,2.011,0,0,1-1,.272m0-20.176a.812.812,0,0,0-.4.109.775.775,0,0,0-.395.683v17.371a.789.789,0,0,0,1.183.683l15.044-8.686a.788.788,0,0,0,0-1.366L179.827,184.9a.769.769,0,0,0-.39-.109" transform="translate(39.317 40.679)" fill="#004370"/>
          <path id="Trazado_174879" data-name="Trazado 174879" d="M62.389,60.114A2.021,2.021,0,0,1,60.378,58.1V40.728a2.01,2.01,0,0,1,3.015-1.741l15.044,8.686a2.01,2.01,0,0,1,0,3.482L63.393,59.84a2,2,0,0,1-1,.274m0-20.177a.813.813,0,0,0-.4.109.774.774,0,0,0-.395.683V58.1a.789.789,0,0,0,1.183.683L77.826,50.1a.788.788,0,0,0,0-1.366L62.782,40.045a.768.768,0,0,0-.388-.109" transform="translate(13.38 8.579)" fill="#004370"/>
          <path id="Trazado_174880" data-name="Trazado 174880" d="M407.065,51.856a2.015,2.015,0,0,1-1-.272,1.99,1.99,0,0,1-1.005-1.742V32.47a2.01,2.01,0,0,1,3.015-1.741l15.044,8.686a2.01,2.01,0,0,1,0,3.482l-15.044,8.687a2.016,2.016,0,0,1-1.005.272m0-20.177a.808.808,0,0,0-.4.109.773.773,0,0,0-.395.683V49.841a.789.789,0,0,0,1.183.683L422.5,41.839a.788.788,0,0,0,0-1.366L407.46,31.787a.769.769,0,0,0-.39-.109" transform="translate(89.761 6.749)" fill="#004370"/>
          <path id="Trazado_174881" data-name="Trazado 174881" d="M290.425,209.593l-3.461-9.058a4.085,4.085,0,0,0-5.269-2.355l-7.8,2.978a4.087,4.087,0,0,0-2.355,5.269l2.967,7.763a4.107,4.107,0,0,0-1.5.268c-1.818.7-2.827,2.476-2.253,3.979s2.514,2.157,4.332,1.462,2.827-2.475,2.253-3.978a2.433,2.433,0,0,0-.39-.651l-3.637-9.52a2.186,2.186,0,0,1,1.261-2.821l7.8-2.979a2.187,2.187,0,0,1,2.821,1.261l2.938,7.689a4.146,4.146,0,0,0-1.27.266c-1.818.694-2.827,2.475-2.253,3.978s2.514,2.157,4.332,1.464,2.827-2.476,2.253-3.979a2.482,2.482,0,0,0-.767-1.035" transform="translate(59.964 43.857)" fill="#004370"/>
          <path id="Trazado_174882" data-name="Trazado 174882" d="M328.528,11.683l-3.461-9.058A4.085,4.085,0,0,0,319.8.27L312,3.248a4.087,4.087,0,0,0-2.355,5.269l2.967,7.763a4.107,4.107,0,0,0-1.5.268c-1.818.7-2.827,2.476-2.253,3.979s2.514,2.157,4.332,1.462,2.827-2.475,2.253-3.978a2.432,2.432,0,0,0-.39-.651l-3.638-9.52a2.188,2.188,0,0,1,1.262-2.821l7.8-2.979A2.187,2.187,0,0,1,323.3,3.3l2.938,7.689a4.146,4.146,0,0,0-1.27.266c-1.818.694-2.827,2.475-2.253,3.978s2.514,2.157,4.332,1.463,2.827-2.476,2.253-3.979a2.482,2.482,0,0,0-.767-1.035" transform="translate(68.408 0)" fill="#004370"/>
          <path id="Trazado_174883" data-name="Trazado 174883" d="M8.66,102.264l3.461-9.058a4.085,4.085,0,0,1,5.269-2.355l7.8,2.979A4.084,4.084,0,0,1,27.541,99.1l-2.966,7.763a4.108,4.108,0,0,1,1.5.268c1.818.7,2.827,2.476,2.253,3.979S25.815,113.265,24,112.57s-2.827-2.475-2.253-3.978a2.432,2.432,0,0,1,.39-.651l3.637-9.519A2.187,2.187,0,0,0,24.511,95.6l-7.8-2.979a2.187,2.187,0,0,0-2.821,1.262l-2.938,7.688a4.146,4.146,0,0,1,1.27.266c1.818.694,2.827,2.475,2.253,3.978s-2.514,2.157-4.332,1.463S7.319,104.8,7.893,103.3a2.49,2.49,0,0,1,.767-1.035" transform="translate(1.713 20.073)" fill="#004370"/>
          <path id="Trazado_174884" data-name="Trazado 174884" d="M29.509,20.984a1.833,1.833,0,0,0,0-3.665,1.833,1.833,0,0,0,0,3.665" transform="translate(6.147 3.838)" fill="#004370"/>
          <path id="Trazado_174885" data-name="Trazado 174885" d="M203.674,11.378a1.833,1.833,0,0,0,0-3.665,1.833,1.833,0,0,0,0,3.665" transform="translate(44.742 1.709)" fill="#004370"/>
          <path id="Trazado_174886" data-name="Trazado 174886" d="M195.321,157.56a1.833,1.833,0,0,0,0-3.665,1.833,1.833,0,0,0,0,3.665" transform="translate(42.891 34.103)" fill="#004370"/>
          <path id="Trazado_174887" data-name="Trazado 174887" d="M392.039,94.493a1.833,1.833,0,0,0,0-3.665,1.833,1.833,0,0,0,0,3.665" transform="translate(86.484 20.128)" fill="#004370"/>
          <path id="Trazado_174888" data-name="Trazado 174888" d="M447.588,212.273a1.833,1.833,0,0,0,0-3.665,1.833,1.833,0,0,0,0,3.665" transform="translate(98.794 46.228)" fill="#004370"/>
          <path id="Trazado_174889" data-name="Trazado 174889" d="M13.22,207.679a1.833,1.833,0,0,0,0-3.665,1.833,1.833,0,0,0,0,3.665" transform="translate(2.537 45.21)" fill="#004370"/>
          <path id="Trazado_174890" data-name="Trazado 174890" d="M73.6,118.1a.917.917,0,0,0,0-1.832.917.917,0,0,0,0,1.832" transform="translate(16.114 25.765)" fill="#004370"/>
          <path id="Trazado_174891" data-name="Trazado 174891" d="M119.339,18.443a.917.917,0,0,0,0-1.832.917.917,0,0,0,0,1.832" transform="translate(26.249 3.681)" fill="#004370"/>
          <path id="Trazado_174892" data-name="Trazado 174892" d="M267.62,10.74a.917.917,0,0,0,0-1.832.917.917,0,0,0,0,1.832" transform="translate(59.109 1.974)" fill="#004370"/>
          <path id="Trazado_174893" data-name="Trazado 174893" d="M325.873,146.023a.917.917,0,0,0,0-1.832.917.917,0,0,0,0,1.832" transform="translate(72.018 31.953)" fill="#004370"/>
          <path id="Trazado_174894" data-name="Trazado 174894" d="M443.342,93.065a.917.917,0,0,0,0-1.832.917.917,0,0,0,0,1.832" transform="translate(98.049 20.217)" fill="#004370"/>
          <path id="Trazado_174895" data-name="Trazado 174895" d="M392.311,6.407a.917.917,0,0,0,0-1.832.917.917,0,0,0,0,1.832" transform="translate(86.74 1.014)" fill="#004370"/>
          <path id="Trazado_174896" data-name="Trazado 174896" d="M156.89,221.126a.917.917,0,0,0,0-1.832.917.917,0,0,0,0,1.832" transform="translate(34.571 48.596)" fill="#004370"/>
          <path id="Trazado_174897" data-name="Trazado 174897" d="M342.977,170.287c20.659,0,37.405,13.725,37.405,30.656,0,8.282-4.015,15.793-10.529,21.31a36.1,36.1,0,0,0,6.983,9.531,1.919,1.919,0,0,1-1.316,3.318,37.032,37.032,0,0,1-18.984-5.589,44.626,44.626,0,0,1-13.56,2.086c-20.658,0-37.405-13.726-37.405-30.656s16.747-30.656,37.405-30.656" transform="translate(67.715 37.736)" fill="#fff"/>
          <path id="Trazado_174898" data-name="Trazado 174898" d="M347.966,185.27c-2.911-2-7.473-1.5-9.388,1.463-1.917-2.959-6.478-3.467-9.389-1.463-2.929,2.018-4.166,5.928-3.649,9.448a17.533,17.533,0,0,0,4.982,9.248,92.763,92.763,0,0,0,8.044,6.956v.02l.012-.01.011.01v-.02a92.773,92.773,0,0,0,8.044-6.956,17.526,17.526,0,0,0,4.983-9.248c.516-3.519-.72-7.43-3.65-9.448" transform="translate(72.115 40.79)" fill="#ff9ad6"/>
          <path id="Trazado_174899" data-name="Trazado 174899" d="M259.562,132.675c-20.659,0-37.405,13.725-37.405,30.656,0,8.282,4.015,15.793,10.529,21.31a36.1,36.1,0,0,1-6.983,9.531,1.919,1.919,0,0,0,1.316,3.318A37.028,37.028,0,0,0,246,191.9a44.631,44.631,0,0,0,13.56,2.087c20.658,0,37.4-13.726,37.4-30.656s-16.746-30.656-37.4-30.656" transform="translate(49.23 29.401)" fill="#fff"/>
          <path id="Trazado_174900" data-name="Trazado 174900" d="M280.014,149.562H233.9a2.5,2.5,0,1,1,0-5h46.114a2.5,2.5,0,0,1,0,5" transform="translate(51.278 32.035)" fill="#f4c35c"/>
          <path id="Trazado_174901" data-name="Trazado 174901" d="M270.715,156.951H233.9a2.5,2.5,0,1,1,0-5h36.815a2.5,2.5,0,0,1,0,5" transform="translate(51.278 33.672)" fill="#f4c35c"/>
          <path id="Trazado_174902" data-name="Trazado 174902" d="M256.9,164.34h-23a2.5,2.5,0,1,1,0-5h23a2.5,2.5,0,1,1,0,5" transform="translate(51.278 35.31)" fill="#f4c35c"/>
          <path id="Trazado_174903" data-name="Trazado 174903" d="M243.961,171.73H233.9a2.5,2.5,0,1,1,0-5h10.061a2.5,2.5,0,0,1,0,5" transform="translate(51.278 36.947)" fill="#f4c35c"/>
          <path id="Trazado_174904" data-name="Trazado 174904" d="M136.535,141.185c-20.659,0-37.405,13.725-37.405,30.656,0,8.282,4.015,15.793,10.529,21.31a36.1,36.1,0,0,1-6.983,9.531A1.919,1.919,0,0,0,103.992,206a37.032,37.032,0,0,0,18.984-5.589,44.631,44.631,0,0,0,13.56,2.085c20.658,0,37.4-13.725,37.4-30.655s-16.746-30.656-37.4-30.656" transform="translate(21.967 31.287)" fill="#fff"/>
          <path id="Trazado_174905" data-name="Trazado 174905" d="M128.9,168.827a16.063,16.063,0,0,1,2.381-2.661,14.045,14.045,0,0,0,1.6-1.692,2.383,2.383,0,0,0,.52-1.47,2.023,2.023,0,0,0-.911-1.729,3.966,3.966,0,0,0-2.36-.65,5.225,5.225,0,0,0-2.7.706,5.394,5.394,0,0,0-1.952,1.97l-5.542-2.976a10.5,10.5,0,0,1,4.315-4.054,14.446,14.446,0,0,1,6.732-1.449,12.407,12.407,0,0,1,7.122,1.84,5.89,5.89,0,0,1,2.7,5.151,6.583,6.583,0,0,1-.522,2.7,7.391,7.391,0,0,1-1.245,1.97,23.014,23.014,0,0,1-1.879,1.8,13.592,13.592,0,0,0-1.859,1.841,2.79,2.79,0,0,0-.595,1.766h-6.621a5.353,5.353,0,0,1,.818-3.067m-.52,11.753a3.68,3.68,0,0,1-1.191-2.771,3.577,3.577,0,0,1,1.172-2.753,4.3,4.3,0,0,1,3.031-1.079,4.378,4.378,0,0,1,3.052,1.079,3.552,3.552,0,0,1,1.19,2.753,3.683,3.683,0,0,1-1.19,2.771,4.247,4.247,0,0,1-3.052,1.134,4.186,4.186,0,0,1-3.011-1.134" transform="translate(26.578 34.309)" fill="#5e4ecb"/>
        </g>
      </g>
      <path id="Trazado_178016" data-name="Trazado 178016" d="M22-39.9H4.731V0h9.234V-11H22C32.661-11,39.33-16.53,39.33-25.422,39.33-34.371,32.661-39.9,22-39.9Zm-.513,21.375H13.965V-32.376h7.524c5.643,0,8.493,2.565,8.493,6.954C29.982-21.09,27.132-18.525,21.489-18.525ZM65.778.684c12.54,0,21.831-8.721,21.831-20.634S78.318-40.584,65.778-40.584c-12.6,0-21.831,8.778-21.831,20.634S53.181.684,65.778.684Zm0-7.866c-7.125,0-12.483-5.187-12.483-12.768s5.358-12.768,12.483-12.768S78.261-27.531,78.261-19.95,72.9-7.182,65.778-7.182ZM94.563,0h18.126c13.053,0,22-7.866,22-19.95s-8.949-19.95-22-19.95H94.563ZM103.8-7.581V-32.319h8.436c7.923,0,13.11,4.731,13.11,12.369s-5.187,12.369-13.11,12.369ZM160.74.684c6.954,0,12.711-2.508,16.473-7.125l-5.928-5.472a12.715,12.715,0,0,1-10.032,4.731c-7.467,0-12.768-5.244-12.768-12.768s5.3-12.768,12.768-12.768a12.837,12.837,0,0,1,10.032,4.674l5.928-5.472c-3.762-4.56-9.519-7.068-16.416-7.068-12.426,0-21.66,8.607-21.66,20.634S148.371.684,160.74.684ZM211.7,0h9.69L203.547-39.9h-9.12L176.643,0h9.462l3.534-8.55h18.525ZM192.6-15.561l6.327-15.276,6.327,15.276ZM238.659.684c11.4,0,16.929-5.7,16.929-12.369,0-14.649-23.2-9.576-23.2-16.929,0-2.508,2.109-4.56,7.581-4.56a22.535,22.535,0,0,1,11.058,3.135l2.85-7.011a26.765,26.765,0,0,0-13.851-3.534c-11.343,0-16.815,5.643-16.815,12.426,0,14.82,23.2,9.69,23.2,17.157,0,2.451-2.223,4.275-7.7,4.275a23.469,23.469,0,0,1-13.167-4.161l-3.135,6.954C225.948-1.2,232.332.684,238.659.684ZM269.04,0h9.234V-32.376h12.768V-39.9h-34.77v7.524H269.04Z" transform="translate(122.655 115.228)" fill="#004370"/>
      <g id="Grupo_173396" data-name="Grupo 173396">
        <g id="Grupo_173395" data-name="Grupo 173395" clip-path="url(#clip-path-2)">
          <line id="Línea_664" data-name="Línea 664" y1="3.672" transform="translate(176.69 62.048)" fill="none" stroke="#004370" stroke-miterlimit="10" stroke-width="1"/>
          <line id="Línea_665" data-name="Línea 665" y1="23.357" transform="translate(129.609 42.363)" fill="none" stroke="#004370" stroke-miterlimit="10" stroke-width="1"/>
          <line id="Línea_666" data-name="Línea 666" y1="15.454" transform="translate(135.494 50.265)" fill="none" stroke="#004370" stroke-miterlimit="10" stroke-width="1"/>
          <line id="Línea_667" data-name="Línea 667" y1="5.388" transform="translate(141.379 60.331)" fill="none" stroke="#004370" stroke-miterlimit="10" stroke-width="1"/>
          <line id="Línea_668" data-name="Línea 668" y1="9.963" transform="translate(147.264 55.757)" fill="none" stroke="#004370" stroke-miterlimit="10" stroke-width="1"/>
          <line id="Línea_669" data-name="Línea 669" y1="14.539" transform="translate(153.149 51.18)" fill="none" stroke="#004370" stroke-miterlimit="10" stroke-width="1"/>
          <line id="Línea_670" data-name="Línea 670" y1="19.344" transform="translate(159.034 46.376)" fill="none" stroke="#004370" stroke-miterlimit="10" stroke-width="1"/>
          <line id="Línea_671" data-name="Línea 671" y1="13.624" transform="translate(164.919 52.095)" fill="none" stroke="#004370" stroke-miterlimit="10" stroke-width="1"/>
          <line id="Línea_672" data-name="Línea 672" y1="8.82" transform="translate(170.805 56.9)" fill="none" stroke="#004370" stroke-miterlimit="10" stroke-width="1"/>
          <line id="Línea_673" data-name="Línea 673" y1="6.189" transform="translate(182.575 59.531)" fill="none" stroke="#004370" stroke-miterlimit="10" stroke-width="1"/>
          <line id="Línea_674" data-name="Línea 674" y1="10.307" transform="translate(188.46 55.413)" fill="none" stroke="#004370" stroke-miterlimit="10" stroke-width="1"/>
          <line id="Línea_675" data-name="Línea 675" y1="6.812" transform="translate(194.345 58.908)" fill="none" stroke="#004370" stroke-miterlimit="10" stroke-width="1"/>
          <line id="Línea_676" data-name="Línea 676" y1="11.108" transform="translate(200.23 54.612)" fill="none" stroke="#004370" stroke-miterlimit="10" stroke-width="1"/>
          <line id="Línea_677" data-name="Línea 677" y1="3.672" transform="translate(252.662 62.048)" fill="none" stroke="#004370" stroke-miterlimit="10" stroke-width="1"/>
          <line id="Línea_678" data-name="Línea 678" y1="23.357" transform="translate(205.581 42.363)" fill="none" stroke="#004370" stroke-miterlimit="10" stroke-width="1"/>
          <line id="Línea_679" data-name="Línea 679" y1="15.454" transform="translate(211.466 50.265)" fill="none" stroke="#004370" stroke-miterlimit="10" stroke-width="1"/>
          <line id="Línea_680" data-name="Línea 680" y1="5.388" transform="translate(217.351 60.331)" fill="none" stroke="#004370" stroke-miterlimit="10" stroke-width="1"/>
          <line id="Línea_681" data-name="Línea 681" y1="9.963" transform="translate(223.236 55.757)" fill="none" stroke="#004370" stroke-miterlimit="10" stroke-width="1"/>
          <line id="Línea_682" data-name="Línea 682" y1="14.539" transform="translate(229.121 51.18)" fill="none" stroke="#004370" stroke-miterlimit="10" stroke-width="1"/>
          <line id="Línea_683" data-name="Línea 683" y1="19.344" transform="translate(235.006 46.376)" fill="none" stroke="#004370" stroke-miterlimit="10" stroke-width="1"/>
          <line id="Línea_684" data-name="Línea 684" y1="13.624" transform="translate(240.892 52.095)" fill="none" stroke="#004370" stroke-miterlimit="10" stroke-width="1"/>
          <line id="Línea_685" data-name="Línea 685" y1="8.82" transform="translate(246.777 56.9)" fill="none" stroke="#004370" stroke-miterlimit="10" stroke-width="1"/>
          <line id="Línea_686" data-name="Línea 686" y1="6.189" transform="translate(258.547 59.531)" fill="none" stroke="#004370" stroke-miterlimit="10" stroke-width="1"/>
          <line id="Línea_687" data-name="Línea 687" y1="10.307" transform="translate(264.432 55.413)" fill="none" stroke="#004370" stroke-miterlimit="10" stroke-width="1"/>
          <line id="Línea_688" data-name="Línea 688" y1="6.812" transform="translate(270.317 58.908)" fill="none" stroke="#004370" stroke-miterlimit="10" stroke-width="1"/>
          <line id="Línea_689" data-name="Línea 689" y1="11.108" transform="translate(276.202 54.612)" fill="none" stroke="#004370" stroke-miterlimit="10" stroke-width="1"/>
          <line id="Línea_690" data-name="Línea 690" y1="3.672" transform="translate(375.715 62.048)" fill="none" stroke="#004370" stroke-miterlimit="10" stroke-width="1"/>
          <line id="Línea_691" data-name="Línea 691" y1="23.357" transform="translate(422.796 42.363)" fill="none" stroke="#004370" stroke-miterlimit="10" stroke-width="1"/>
          <line id="Línea_692" data-name="Línea 692" y1="15.454" transform="translate(416.911 50.265)" fill="none" stroke="#004370" stroke-miterlimit="10" stroke-width="1"/>
          <line id="Línea_693" data-name="Línea 693" y1="5.388" transform="translate(411.026 60.331)" fill="none" stroke="#004370" stroke-miterlimit="10" stroke-width="1"/>
          <line id="Línea_694" data-name="Línea 694" y1="9.963" transform="translate(405.141 55.757)" fill="none" stroke="#004370" stroke-miterlimit="10" stroke-width="1"/>
          <line id="Línea_695" data-name="Línea 695" y1="14.539" transform="translate(399.255 51.18)" fill="none" stroke="#004370" stroke-miterlimit="10" stroke-width="1"/>
          <line id="Línea_696" data-name="Línea 696" y1="19.344" transform="translate(393.37 46.376)" fill="none" stroke="#004370" stroke-miterlimit="10" stroke-width="1"/>
          <line id="Línea_697" data-name="Línea 697" y1="13.624" transform="translate(387.485 52.095)" fill="none" stroke="#004370" stroke-miterlimit="10" stroke-width="1"/>
          <line id="Línea_698" data-name="Línea 698" y1="8.82" transform="translate(381.6 56.9)" fill="none" stroke="#004370" stroke-miterlimit="10" stroke-width="1"/>
          <line id="Línea_699" data-name="Línea 699" y1="6.189" transform="translate(369.83 59.531)" fill="none" stroke="#004370" stroke-miterlimit="10" stroke-width="1"/>
          <line id="Línea_700" data-name="Línea 700" y1="10.307" transform="translate(363.945 55.413)" fill="none" stroke="#004370" stroke-miterlimit="10" stroke-width="1"/>
          <line id="Línea_701" data-name="Línea 701" y1="6.812" transform="translate(358.059 58.908)" fill="none" stroke="#004370" stroke-miterlimit="10" stroke-width="1"/>
          <line id="Línea_702" data-name="Línea 702" y1="11.108" transform="translate(352.174 54.612)" fill="none" stroke="#004370" stroke-miterlimit="10" stroke-width="1"/>
          <line id="Línea_703" data-name="Línea 703" y1="3.672" transform="translate(299.743 62.048)" fill="none" stroke="#004370" stroke-miterlimit="10" stroke-width="1"/>
          <line id="Línea_704" data-name="Línea 704" y1="23.357" transform="translate(346.824 42.363)" fill="none" stroke="#004370" stroke-miterlimit="10" stroke-width="1"/>
          <line id="Línea_705" data-name="Línea 705" y1="15.454" transform="translate(340.939 50.265)" fill="none" stroke="#004370" stroke-miterlimit="10" stroke-width="1"/>
          <line id="Línea_706" data-name="Línea 706" y1="5.388" transform="translate(335.054 60.331)" fill="none" stroke="#004370" stroke-miterlimit="10" stroke-width="1"/>
          <line id="Línea_707" data-name="Línea 707" y1="9.963" transform="translate(329.168 55.757)" fill="none" stroke="#004370" stroke-miterlimit="10" stroke-width="1"/>
          <line id="Línea_708" data-name="Línea 708" y1="14.539" transform="translate(323.283 51.18)" fill="none" stroke="#004370" stroke-miterlimit="10" stroke-width="1"/>
          <line id="Línea_709" data-name="Línea 709" y1="19.344" transform="translate(317.398 46.376)" fill="none" stroke="#004370" stroke-miterlimit="10" stroke-width="1"/>
          <line id="Línea_710" data-name="Línea 710" y1="13.624" transform="translate(311.513 52.095)" fill="none" stroke="#004370" stroke-miterlimit="10" stroke-width="1"/>
          <line id="Línea_711" data-name="Línea 711" y1="8.82" transform="translate(305.628 56.9)" fill="none" stroke="#004370" stroke-miterlimit="10" stroke-width="1"/>
          <line id="Línea_712" data-name="Línea 712" y1="6.189" transform="translate(293.858 59.531)" fill="none" stroke="#004370" stroke-miterlimit="10" stroke-width="1"/>
          <line id="Línea_713" data-name="Línea 713" y1="10.307" transform="translate(287.973 55.413)" fill="none" stroke="#004370" stroke-miterlimit="10" stroke-width="1"/>
          <line id="Línea_714" data-name="Línea 714" y1="6.812" transform="translate(282.087 58.908)" fill="none" stroke="#004370" stroke-miterlimit="10" stroke-width="1"/>
          <line id="Línea_715" data-name="Línea 715" y2="3.672" transform="translate(375.715 125.193)" fill="none" stroke="#004370" stroke-miterlimit="10" stroke-width="1"/>
          <line id="Línea_716" data-name="Línea 716" y2="23.357" transform="translate(422.796 125.193)" fill="none" stroke="#004370" stroke-miterlimit="10" stroke-width="1"/>
          <line id="Línea_717" data-name="Línea 717" y2="15.454" transform="translate(416.911 125.193)" fill="none" stroke="#004370" stroke-miterlimit="10" stroke-width="1"/>
          <line id="Línea_718" data-name="Línea 718" y2="5.388" transform="translate(411.026 125.193)" fill="none" stroke="#004370" stroke-miterlimit="10" stroke-width="1"/>
          <line id="Línea_719" data-name="Línea 719" y2="9.963" transform="translate(405.141 125.193)" fill="none" stroke="#004370" stroke-miterlimit="10" stroke-width="1"/>
          <line id="Línea_720" data-name="Línea 720" y2="14.54" transform="translate(399.255 125.193)" fill="none" stroke="#004370" stroke-miterlimit="10" stroke-width="1"/>
          <line id="Línea_721" data-name="Línea 721" y2="19.344" transform="translate(393.37 125.193)" fill="none" stroke="#004370" stroke-miterlimit="10" stroke-width="1"/>
          <line id="Línea_722" data-name="Línea 722" y2="13.625" transform="translate(387.485 125.193)" fill="none" stroke="#004370" stroke-miterlimit="10" stroke-width="1"/>
          <line id="Línea_723" data-name="Línea 723" y2="8.82" transform="translate(381.6 125.193)" fill="none" stroke="#004370" stroke-miterlimit="10" stroke-width="1"/>
          <line id="Línea_724" data-name="Línea 724" y2="6.189" transform="translate(369.83 125.193)" fill="none" stroke="#004370" stroke-miterlimit="10" stroke-width="1"/>
          <line id="Línea_725" data-name="Línea 725" y2="10.307" transform="translate(363.945 125.193)" fill="none" stroke="#004370" stroke-miterlimit="10" stroke-width="1"/>
          <line id="Línea_726" data-name="Línea 726" y2="6.812" transform="translate(358.059 125.193)" fill="none" stroke="#004370" stroke-miterlimit="10" stroke-width="1"/>
          <line id="Línea_727" data-name="Línea 727" y2="11.108" transform="translate(352.174 125.193)" fill="none" stroke="#004370" stroke-miterlimit="10" stroke-width="1"/>
          <line id="Línea_728" data-name="Línea 728" y2="3.672" transform="translate(299.743 125.193)" fill="none" stroke="#004370" stroke-miterlimit="10" stroke-width="1"/>
          <line id="Línea_729" data-name="Línea 729" y2="23.357" transform="translate(346.824 125.193)" fill="none" stroke="#004370" stroke-miterlimit="10" stroke-width="1"/>
          <line id="Línea_730" data-name="Línea 730" y2="15.454" transform="translate(340.939 125.193)" fill="none" stroke="#004370" stroke-miterlimit="10" stroke-width="1"/>
          <line id="Línea_731" data-name="Línea 731" y2="5.388" transform="translate(335.054 125.193)" fill="none" stroke="#004370" stroke-miterlimit="10" stroke-width="1"/>
          <line id="Línea_732" data-name="Línea 732" y2="9.963" transform="translate(329.168 125.193)" fill="none" stroke="#004370" stroke-miterlimit="10" stroke-width="1"/>
          <line id="Línea_733" data-name="Línea 733" y2="14.54" transform="translate(323.283 125.193)" fill="none" stroke="#004370" stroke-miterlimit="10" stroke-width="1"/>
          <line id="Línea_734" data-name="Línea 734" y2="19.344" transform="translate(317.398 125.193)" fill="none" stroke="#004370" stroke-miterlimit="10" stroke-width="1"/>
          <line id="Línea_735" data-name="Línea 735" y2="13.625" transform="translate(311.513 125.193)" fill="none" stroke="#004370" stroke-miterlimit="10" stroke-width="1"/>
          <line id="Línea_736" data-name="Línea 736" y2="8.82" transform="translate(305.628 125.193)" fill="none" stroke="#004370" stroke-miterlimit="10" stroke-width="1"/>
          <line id="Línea_737" data-name="Línea 737" y2="6.189" transform="translate(293.858 125.193)" fill="none" stroke="#004370" stroke-miterlimit="10" stroke-width="1"/>
          <line id="Línea_738" data-name="Línea 738" y2="10.307" transform="translate(287.973 125.193)" fill="none" stroke="#004370" stroke-miterlimit="10" stroke-width="1"/>
          <line id="Línea_739" data-name="Línea 739" y2="6.812" transform="translate(282.087 125.193)" fill="none" stroke="#004370" stroke-miterlimit="10" stroke-width="1"/>
          <line id="Línea_740" data-name="Línea 740" y2="11.108" transform="translate(276.202 125.193)" fill="none" stroke="#004370" stroke-miterlimit="10" stroke-width="1"/>
          <line id="Línea_741" data-name="Línea 741" y2="3.672" transform="translate(176.69 125.193)" fill="none" stroke="#004370" stroke-miterlimit="10" stroke-width="1"/>
          <line id="Línea_742" data-name="Línea 742" y2="23.357" transform="translate(129.609 125.193)" fill="none" stroke="#004370" stroke-miterlimit="10" stroke-width="1"/>
          <line id="Línea_743" data-name="Línea 743" y2="15.454" transform="translate(135.494 125.193)" fill="none" stroke="#004370" stroke-miterlimit="10" stroke-width="1"/>
          <line id="Línea_744" data-name="Línea 744" y2="5.388" transform="translate(141.379 125.193)" fill="none" stroke="#004370" stroke-miterlimit="10" stroke-width="1"/>
          <line id="Línea_745" data-name="Línea 745" y2="9.963" transform="translate(147.264 125.193)" fill="none" stroke="#004370" stroke-miterlimit="10" stroke-width="1"/>
          <line id="Línea_746" data-name="Línea 746" y2="14.54" transform="translate(153.149 125.193)" fill="none" stroke="#004370" stroke-miterlimit="10" stroke-width="1"/>
          <line id="Línea_747" data-name="Línea 747" y2="19.344" transform="translate(159.034 125.193)" fill="none" stroke="#004370" stroke-miterlimit="10" stroke-width="1"/>
          <line id="Línea_748" data-name="Línea 748" y2="13.625" transform="translate(164.919 125.193)" fill="none" stroke="#004370" stroke-miterlimit="10" stroke-width="1"/>
          <line id="Línea_749" data-name="Línea 749" y2="8.82" transform="translate(170.805 125.193)" fill="none" stroke="#004370" stroke-miterlimit="10" stroke-width="1"/>
          <line id="Línea_750" data-name="Línea 750" y2="6.189" transform="translate(182.575 125.193)" fill="none" stroke="#004370" stroke-miterlimit="10" stroke-width="1"/>
          <line id="Línea_751" data-name="Línea 751" y2="10.307" transform="translate(188.46 125.193)" fill="none" stroke="#004370" stroke-miterlimit="10" stroke-width="1"/>
          <line id="Línea_752" data-name="Línea 752" y2="6.812" transform="translate(194.345 125.193)" fill="none" stroke="#004370" stroke-miterlimit="10" stroke-width="1"/>
          <line id="Línea_753" data-name="Línea 753" y2="11.108" transform="translate(200.23 125.193)" fill="none" stroke="#004370" stroke-miterlimit="10" stroke-width="1"/>
          <line id="Línea_754" data-name="Línea 754" y2="3.672" transform="translate(252.662 125.193)" fill="none" stroke="#004370" stroke-miterlimit="10" stroke-width="1"/>
          <line id="Línea_755" data-name="Línea 755" y2="23.357" transform="translate(205.581 125.193)" fill="none" stroke="#004370" stroke-miterlimit="10" stroke-width="1"/>
          <line id="Línea_756" data-name="Línea 756" y2="15.454" transform="translate(211.466 125.193)" fill="none" stroke="#004370" stroke-miterlimit="10" stroke-width="1"/>
          <line id="Línea_757" data-name="Línea 757" y2="5.388" transform="translate(217.351 125.193)" fill="none" stroke="#004370" stroke-miterlimit="10" stroke-width="1"/>
          <line id="Línea_758" data-name="Línea 758" y2="9.963" transform="translate(223.236 125.193)" fill="none" stroke="#004370" stroke-miterlimit="10" stroke-width="1"/>
          <line id="Línea_759" data-name="Línea 759" y2="14.54" transform="translate(229.121 125.193)" fill="none" stroke="#004370" stroke-miterlimit="10" stroke-width="1"/>
          <line id="Línea_760" data-name="Línea 760" y2="19.344" transform="translate(235.006 125.193)" fill="none" stroke="#004370" stroke-miterlimit="10" stroke-width="1"/>
          <line id="Línea_761" data-name="Línea 761" y2="13.625" transform="translate(240.892 125.193)" fill="none" stroke="#004370" stroke-miterlimit="10" stroke-width="1"/>
          <line id="Línea_762" data-name="Línea 762" y2="8.82" transform="translate(246.777 125.193)" fill="none" stroke="#004370" stroke-miterlimit="10" stroke-width="1"/>
          <line id="Línea_763" data-name="Línea 763" y2="6.189" transform="translate(258.547 125.193)" fill="none" stroke="#004370" stroke-miterlimit="10" stroke-width="1"/>
          <line id="Línea_764" data-name="Línea 764" y2="10.307" transform="translate(264.432 125.193)" fill="none" stroke="#004370" stroke-miterlimit="10" stroke-width="1"/>
          <line id="Línea_765" data-name="Línea 765" y2="6.812" transform="translate(270.317 125.193)" fill="none" stroke="#004370" stroke-miterlimit="10" stroke-width="1"/>
        </g>
      </g>
    </g>
  </g>
</svg>
