<svg xmlns="http://www.w3.org/2000/svg" xmlns:xlink="http://www.w3.org/1999/xlink" width="400.466" height="192.851" viewBox="0 0 400.466 192.851">
  <defs>
    <clipPath id="clip-path">
      <path id="Trazado_161169" data-name="Trazado 161169" d="M166.466-7.376H558.648V181.432H166.466Z" transform="translate(-158.552 7.376)" fill="none"/>
    </clipPath>
  </defs>
  <g id="Grupo_172571" data-name="Grupo 172571" transform="translate(-541 -4520)">
    <path id="Trazado_156666" data-name="Trazado 156666" d="M0,0H400.1V192.851H0Z" transform="translate(541 4520)" fill="#8284d2"/>
    <g id="Grupo_167663" data-name="Grupo 167663" transform="translate(541.369 4520.279)">
      <g id="Grupo_165585" data-name="Grupo 165585" transform="translate(0 0)">
        <g id="Enmascarar_grupo_220" data-name="Enmascarar grupo 220" clip-path="url(#clip-path)">
          <path id="Trazado_150476" data-name="Trazado 150476" d="M240.387,253.79V194.438a.624.624,0,0,0-.624-.624H84.93a.623.623,0,0,0-.624.624V253.79Z" transform="translate(-349.857 -64.982)" fill="#d9a389"/>
          <path id="Trazado_150477" data-name="Trazado 150477" d="M259.426,263.447l12.31-42.592a1.062,1.062,0,0,0-1.02-1.357h-7.749a1.061,1.061,0,0,0-1.02.767l-12.481,43.182Z" transform="translate(-411.955 -74.639)" fill="#8498d9"/>
          <path id="Trazado_150478" data-name="Trazado 150478" d="M131.179,266.5h12.587l-19-38.294a1.062,1.062,0,0,0-.951-.59H113.6a1.062,1.062,0,0,0-.952,1.534Z" transform="translate(-360.469 -77.691)" fill="#ffeae0"/>
          <path id="Trazado_150479" data-name="Trazado 150479" d="M112.711,263.2h10.5L101.5,219.433a1.062,1.062,0,0,0-.952-.59H92.411a1.062,1.062,0,0,0-.951,1.534Z" transform="translate(-352.504 -74.393)" fill="#8498d9"/>
          <path id="Trazado_150480" data-name="Trazado 150480" d="M153.665,271.327h8.271l-15.089-30.407a.837.837,0,0,0-.749-.464h-6.4a.836.836,0,0,0-.749,1.208Z" transform="translate(-370.367 -82.519)" fill="#2b244a"/>
          <path id="Trazado_150481" data-name="Trazado 150481" d="M299.351,263.447l12.31-42.592a1.062,1.062,0,0,0-1.02-1.357H300.277a1.062,1.062,0,0,0-1.02.767l-12.48,43.182Z" transform="translate(-425.984 -74.639)" fill="#ffeae0"/>
          <path id="Trazado_150482" data-name="Trazado 150482" d="M278.749,260.034,292.7,211.779a1.062,1.062,0,0,0-1.02-1.357H280.565a1.062,1.062,0,0,0-1.02.767l-14.118,48.846Z" transform="translate(-417.956 -71.227)" fill="#2b244a"/>
          <path id="Trazado_150483" data-name="Trazado 150483" d="M91,255.613V200.254a.531.531,0,0,1,.531-.531H237.4a.532.532,0,0,1,.531.531v55.358h1.061V200.254a1.594,1.594,0,0,0-1.592-1.592H91.53a1.6,1.6,0,0,0-1.593,1.592v55.358Z" transform="translate(-351.974 -66.805)" fill="#2b244a"/>
          <path id="Trazado_150484" data-name="Trazado 150484" d="M230.4,155.548a31.734,31.734,0,0,0,6.376-8.932c2.1-4.24,3.705-9.735,3.069-15.145-.475-4.042-2.111-7.381-3.642-10.605a64.544,64.544,0,0,1-5-13.367,53.062,53.062,0,0,1-1.32-15.435h-8.345a53.062,53.062,0,0,1-1.32,15.435,64.546,64.546,0,0,1-5,13.367c-1.531,3.224-3.167,6.563-3.642,10.605-.636,5.41.965,10.9,3.069,15.145a31.735,31.735,0,0,0,6.376,8.932Z" transform="translate(-397.655 -26.725)" fill="#dec6bd"/>
          <path id="Trazado_150485" data-name="Trazado 150485" d="M218.745,138.2c3.352.047,6.341,1.981,9.686,2.116,3.259.132,6.044-2.062,9.265-2.116a.531.531,0,0,0,0-1.062c-3.227.054-6.032,2.247-9.265,2.117-3.338-.135-6.321-2.07-9.686-2.117a.531.531,0,0,0,0,1.062" transform="translate(-400.211 -43.673)" fill="#2b244a"/>
          <path id="Trazado_150486" data-name="Trazado 150486" d="M166.247,168.55h-30.91L126.1,127.514a1.89,1.89,0,0,1,1.844-2.305h27.035a1.88,1.88,0,0,1,1.844,1.476Zm-30.061-1.062h28.733l-9.128-40.571a.824.824,0,0,0-.808-.646H127.948a.828.828,0,0,0-.808,1.01Z" transform="translate(-365.554 -39.188)" fill="#2b244a"/>
          <path id="Trazado_150487" data-name="Trazado 150487" d="M162.761,166.563H143a.887.887,0,0,1-.866-.691l-7.265-31.852a.888.888,0,0,1,.866-1.086H155.5a.889.889,0,0,1,.866.691l7.265,31.852a.888.888,0,0,1-.866,1.086" transform="translate(-368.861 -42.092)" fill="#dec6bd"/>
          <path id="Trazado_150488" data-name="Trazado 150488" d="M120.186,180.031q4.07-11.3,8.141-22.606c.232-.644-.794-.922-1.024-.282q-4.071,11.3-8.141,22.606c-.232.644.794.921,1.024.282" transform="translate(-362.949 -51.058)" fill="#2b244a"/>
          <path id="Trazado_150489" data-name="Trazado 150489" d="M134.348,90.746H109.257l7.6-33.8a1.629,1.629,0,0,1,1.6-1.279h21.732a1.638,1.638,0,0,1,1.6,2Zm-23.726-1.093h22.852l7.251-32.227a.546.546,0,0,0-.533-.666H118.46a.544.544,0,0,0-.533.426Z" transform="translate(-359.238 -13.04)" fill="#2b244a"/>
          <path id="Trazado_150490" data-name="Trazado 150490" d="M118.883,88.662H133.99a1.092,1.092,0,0,0,1.066-.852L140.1,65.4a1.092,1.092,0,0,0-1.066-1.332H123.925a1.093,1.093,0,0,0-1.066.852L117.818,87.33a1.092,1.092,0,0,0,1.066,1.332" transform="translate(-362.446 -16.199)" fill="#d9a389"/>
          <path id="Trazado_150491" data-name="Trazado 150491" d="M161.205,100.308l-6.121-17c-.236-.656-1.292-.374-1.053.29l6.121,17c.237.656,1.292.374,1.053-.29" transform="translate(-376.059 -23.294)" fill="#2b244a"/>
          <path id="Trazado_150492" data-name="Trazado 150492" d="M119.418,115.223H.867A.867.867,0,0,1,0,114.356v-2.482a.867.867,0,0,1,.867-.867H119.418a.867.867,0,0,1,.867.867v2.482a.867.867,0,0,1-.867.867" transform="translate(-318.158 -33.847)" fill="#b06641"/>
          <path id="Trazado_150493" data-name="Trazado 150493" d="M81.25,85.188H71.15L63.445,43.863a1.289,1.289,0,0,1,1.267-1.524h7.479a1.288,1.288,0,0,1,1.266,1.052Z" transform="translate(-342.004 -8.029)" fill="#2b244a"/>
          <path id="Trazado_150494" data-name="Trazado 150494" d="M66.014,90.275h-10.1L49.783,57.391a1.288,1.288,0,0,1,1.266-1.524h7.479a1.288,1.288,0,0,1,1.266,1.052Z" transform="translate(-336.868 -13.115)" fill="#d9a389"/>
          <path id="Trazado_150495" data-name="Trazado 150495" d="M28.478,90.275h-10.1l-6.13-32.883a1.288,1.288,0,0,1,1.265-1.524h7.479a1.288,1.288,0,0,1,1.266,1.052Z" transform="translate(-322.754 -13.115)" fill="#d9a389"/>
          <path id="Trazado_150496" data-name="Trazado 150496" d="M51.922,87.868H46.043L39.167,50.99a1.288,1.288,0,0,1,1.267-1.524h3.258a1.289,1.289,0,0,1,1.267,1.051Z" transform="translate(-332.876 -10.709)" fill="#8498d9"/>
          <path id="Trazado_150497" data-name="Trazado 150497" d="M40.475,81.788H33.051L24.368,35.219a1.627,1.627,0,0,1,1.6-1.925h4.114a1.627,1.627,0,0,1,1.6,1.329Z" transform="translate(-327.31 -4.628)" fill="#2b244a"/>
          <path id="Trazado_150498" data-name="Trazado 150498" d="M17.218,105.672H13.577V97.323a.5.5,0,0,1,.5-.5h2.632a.505.505,0,0,1,.5.5Z" transform="translate(-323.263 -28.512)" fill="#b06641"/>
          <path id="Trazado_150499" data-name="Trazado 150499" d="M462,138.174H367.414a.867.867,0,0,1-.867-.867v-1.642a.866.866,0,0,1,.867-.867H462a.866.866,0,0,1,.867.867v1.642a.867.867,0,0,1-.867.867" transform="translate(-455.977 -42.793)" fill="#b06641"/>
          <path id="Trazado_150500" data-name="Trazado 150500" d="M415.475,71.1s10.541-9.121,11.372-28.575c0,0-13.219,7.29-16.135,28.575Z" transform="translate(-472.582 -8.098)" fill="#ccb16c"/>
          <path id="Trazado_150501" data-name="Trazado 150501" d="M395.845,61.084s-17.225-16.474-13.288-45.2c0,0,16.253,17.641,13.288,45.2" transform="translate(-461.776 1.916)" fill="#ccb16c"/>
          <path id="Trazado_150502" data-name="Trazado 150502" d="M403.269,55.11H401.66l-2.2-26.767C399.2,14.3,403.269,0,403.269,0s6.852,29.3,0,55.11" transform="translate(-468.347 7.89)" fill="#ccb16c"/>
          <path id="Trazado_150503" data-name="Trazado 150503" d="M414.053,44.71c5.144-12.3,4.3-28.433,4.3-28.433a57.056,57.056,0,0,0-9.735,15.74L405.572,61.23h3.207Z" transform="translate(-470.65 1.77)" fill="#ccb16c"/>
          <path id="Trazado_150504" data-name="Trazado 150504" d="M390.682,75.022l-8.51-13.029s-4.806-7.188-13.359-9.034c0,0,3.506,16.3,18.207,22.063Z" transform="translate(-456.829 -12.022)" fill="#ccb16c"/>
          <path id="Trazado_150505" data-name="Trazado 150505" d="M409.763,77.886a44.082,44.082,0,0,1,5.811-16.873.438.438,0,0,0-.756-.441,45.142,45.142,0,0,0-5.93,17.314c-.07.557.8.552.875,0" transform="translate(-471.895 -14.805)" fill="#2b244a"/>
          <path id="Trazado_150506" data-name="Trazado 150506" d="M405.555,53.209a42.178,42.178,0,0,1,2.851-11.98c.208-.523-.637-.75-.844-.232a42.941,42.941,0,0,0-2.882,12.212c-.049.561.827.558.875,0" transform="translate(-470.313 -7.414)" fill="#2b244a"/>
          <path id="Trazado_150507" data-name="Trazado 150507" d="M399.3,45.8a135.216,135.216,0,0,1,6.514,21.858c.115.551.958.318.844-.233a135.227,135.227,0,0,0-6.514-21.858c-.2-.518-1.05-.292-.844.233" transform="translate(-468.278 -9.132)" fill="#2b244a"/>
          <path id="Trazado_150508" data-name="Trazado 150508" d="M390.6,68.256a38.647,38.647,0,0,0,9.277,12.5c.419.374,1.04-.242.619-.618a38.027,38.027,0,0,1-9.141-12.328c-.236-.51-.991-.066-.755.442" transform="translate(-465.004 -17.522)" fill="#2b244a"/>
          <path id="Trazado_150509" data-name="Trazado 150509" d="M404.829,117.377s3.3-2.138,4.957-8.262,1.749-20.8,1.749-20.8H387.886s.1,14.677,1.75,20.8,4.956,8.262,4.956,8.262Z" transform="translate(-464 -25.316)" fill="#dec6bd"/>
          <path id="Trazado_150510" data-name="Trazado 150510" d="M388.565,94.643h22.452a.438.438,0,0,0,0-.875H388.565a.438.438,0,0,0,0,.875" transform="translate(-464.096 -27.366)" fill="#2b244a"/>
          <path id="Trazado_150511" data-name="Trazado 150511" d="M498.926,63.657a6.4,6.4,0,1,1-4.58-7.8,6.4,6.4,0,0,1,4.58,7.8" transform="translate(-501.017 -13.034)" fill="#ccb16c"/>
          <path id="Trazado_150512" data-name="Trazado 150512" d="M482.043,39.025a5.64,5.64,0,1,0,5.809-5.465,5.64,5.64,0,0,0-5.809,5.465" transform="translate(-499.401 -4.727)" fill="#ccb16c"/>
          <path id="Trazado_150513" data-name="Trazado 150513" d="M465.715,64.545A10.011,10.011,0,1,1,455.7,54.534a10.011,10.011,0,0,1,10.011,10.011" transform="translate(-485.734 -12.614)" fill="#ccb16c"/>
          <path id="Trazado_150514" data-name="Trazado 150514" d="M449.818,60.317a38.827,38.827,0,0,1,11.245,11.318,50.466,50.466,0,0,1,5.816,11.625,23.251,23.251,0,0,1,1.14,4.353c.075.555.919.319.843-.233a33.1,33.1,0,0,0-3.149-9.281,49.248,49.248,0,0,0-8.333-12.554,36.162,36.162,0,0,0-7.12-5.982c-.477-.3-.916.454-.442.755" transform="translate(-487.209 -14.478)" fill="#2b244a"/>
          <path id="Trazado_150515" data-name="Trazado 150515" d="M484.339,104.462a61.89,61.89,0,0,1-1.382,10.663c-1.653,6.123-4.96,8.267-4.96,8.267H467.762s-3.307-2.143-4.96-8.267a61.949,61.949,0,0,1-1.382-10.663Z" transform="translate(-491.648 -31.386)" fill="#dec6bd"/>
          <path id="Trazado_150516" data-name="Trazado 150516" d="M460.488,96.379a6.4,6.4,0,1,1-6.4-6.4,6.4,6.4,0,0,1,6.4,6.4" transform="translate(-486.488 -25.943)" fill="#ccb16c"/>
          <path id="Trazado_150517" data-name="Trazado 150517" d="M450.79,101.535c1.41-3.38,3.755-6.742,7.467-7.752a9.375,9.375,0,0,1,6.052.448,6.722,6.722,0,0,1,3.54,4.3.438.438,0,0,0,.844-.233,7.657,7.657,0,0,0-3.668-4.689,9.366,9.366,0,0,0-2.593-.832,9.926,9.926,0,0,0-8.206,2.2,16.329,16.329,0,0,0-4.279,6.327c-.217.519.63.746.844.233" transform="translate(-487.321 -26.933)" fill="#2b244a"/>
          <path id="Trazado_150518" data-name="Trazado 150518" d="M488.5,34.091c-4.926,9.792-8.108,20.809-8.147,31.828a39.889,39.889,0,0,0,.412,6.088c.084.555.927.319.844-.233a46.261,46.261,0,0,1-.041-11.784,72.045,72.045,0,0,1,3.536-15.615,78.682,78.682,0,0,1,4.151-9.841c.253-.5-.5-.945-.755-.442" transform="translate(-498.767 -4.845)" fill="#2b244a"/>
          <path id="Trazado_150519" data-name="Trazado 150519" d="M481.32,73.176a21.148,21.148,0,0,1,3.072-5.349,20.4,20.4,0,0,1,5.924-4.821,35.534,35.534,0,0,1,5.42-2.4c.526-.187.3-1.033-.233-.844-5.393,1.919-10.492,4.856-13.448,9.922a26.621,26.621,0,0,0-1.579,3.259c-.215.52.631.746.844.233" transform="translate(-498.8 -14.569)" fill="#2b244a"/>
          <path id="Trazado_150520" data-name="Trazado 150520" d="M501.29,86.29a10.789,10.789,0,1,1-13.224-7.61,10.789,10.789,0,0,1,13.224,7.61" transform="translate(-498.665 -21.552)" fill="#ccb16c"/>
          <path id="Trazado_150521" data-name="Trazado 150521" d="M478.621,94.54a10.458,10.458,0,0,1,3.4-3.129,13.064,13.064,0,0,1,4.774-1.749,13.576,13.576,0,0,1,9.178,1.882,17.4,17.4,0,0,1,3.971,3.319c.377.42.994-.2.619-.618a16.879,16.879,0,0,0-8.278-5.2,14.077,14.077,0,0,0-10.31,1.368,11.6,11.6,0,0,0-4.113,3.68c-.3.481.46.921.755.442" transform="translate(-497.806 -25.433)" fill="#2b244a"/>
          <path id="Trazado_150522" data-name="Trazado 150522" d="M377.33,130.526h-2.916v-6.585a.5.5,0,0,1,.5-.5h1.906a.5.5,0,0,1,.5.5Z" transform="translate(-458.934 -38.52)" fill="#b06641"/>
          <path id="Trazado_150523" data-name="Trazado 150523" d="M511.28,130.526h-2.916v-6.585a.5.5,0,0,1,.5-.5h1.906a.5.5,0,0,1,.5.5Z" transform="translate(-509.298 -38.52)" fill="#b06641"/>
          <path id="Trazado_150524" data-name="Trazado 150524" d="M852.586,255.414a6.841,6.841,0,0,1,6.407,4.29,22.217,22.217,0,0,1,1.254,5.906q.463,3.325.926,6.649.294,2.106.587,4.21h1.284q-.17-1.211-.338-2.423-.482-3.457-.964-6.915a46.348,46.348,0,0,0-1.035-6.426,8.8,8.8,0,0,0-4.729-5.9,8.886,8.886,0,0,0-3.391-.67.641.641,0,0,0,0,1.282" transform="translate(-638.49 -87.661)" fill="#2b244a"/>
          <path id="Trazado_150525" data-name="Trazado 150525" d="M697.017,276.469q.757-5.43,1.514-10.859c.46-3.3.806-7.215,3.916-9.183a7.088,7.088,0,0,1,3.745-1.013.641.641,0,0,0,0-1.282,7.993,7.993,0,0,0-6.266,2.862c-2.292,2.84-2.408,6.679-2.89,10.137q-.651,4.67-1.3,9.338Z" transform="translate(-579.748 -87.661)" fill="#2b244a"/>
          <path id="Trazado_150526" data-name="Trazado 150526" d="M1090.329,255.414a6.841,6.841,0,0,1,6.406,4.29,22.219,22.219,0,0,1,1.253,5.906q.464,3.325.927,6.649.292,2.106.586,4.21h1.283q-.168-1.211-.337-2.423-.482-3.457-.964-6.915a46.4,46.4,0,0,0-1.035-6.426,8.1,8.1,0,0,0-8.12-6.573.641.641,0,0,0,0,1.282" transform="translate(-727.879 -87.661)" fill="#2b244a"/>
          <path id="Trazado_150527" data-name="Trazado 150527" d="M934.76,276.469q.757-5.43,1.514-10.859c.46-3.3.806-7.215,3.916-9.183a7.089,7.089,0,0,1,3.745-1.013.641.641,0,0,0,0-1.282,7.993,7.993,0,0,0-6.266,2.862c-2.293,2.84-2.408,6.679-2.89,10.137q-.651,4.67-1.3,9.338Z" transform="translate(-669.137 -87.661)" fill="#2b244a"/>
          <path id="Trazado_150528" data-name="Trazado 150528" d="M960.639,252.6H677.112a3.186,3.186,0,1,1,0-6.372H960.639a3.186,3.186,0,1,1,0,6.372" transform="translate(-571.548 -84.691)" fill="#d9a389"/>
          <path id="Trazado_150529" data-name="Trazado 150529" d="M891.581,246.317a6.821,6.821,0,0,0,.093,6.03.641.641,0,1,0,1.106-.647,5.454,5.454,0,0,1-.093-4.736.658.658,0,0,0-.23-.876.646.646,0,0,0-.877.23" transform="translate(-653.138 -84.605)" fill="#2b244a"/>
          <path id="Trazado_150530" data-name="Trazado 150530" d="M1097.382,236.314c-1.224-1.816-1.543-5.423-1.543-5.423l-7.376,1.259-7.377-1.259s-.318,3.607-1.542,5.423c-.866,1.285-2.471,2.4-2.471,4.148h22.779c0-1.751-1.6-2.864-2.47-4.148" transform="translate(-723.128 -78.923)" fill="#2b244a"/>
          <path id="Trazado_150531" data-name="Trazado 150531" d="M1102.242,202.7c-1.673,10.221-8.929,17.542-16.207,16.351s-11.822-10.443-10.149-20.664,8.929-17.542,16.206-16.351,11.823,10.443,10.15,20.664" transform="translate(-722.551 -60.507)" fill="#2b244a"/>
          <path id="Trazado_150532" data-name="Trazado 150532" d="M1096.63,199.7c-.623,3.808-3.327,6.535-6.038,6.092s-4.4-3.891-3.781-7.7,3.326-6.535,6.038-6.092,4.4,3.891,3.781,7.7" transform="translate(-726.741 -64.284)" fill="#8c75b5"/>
          <path id="Trazado_150533" data-name="Trazado 150533" d="M1092.378,223.53a3.1,3.1,0,1,1-2.56-3.562,3.1,3.1,0,0,1,2.56,3.562" transform="translate(-726.565 -74.8)" fill="#8c75b5"/>
          <path id="Trazado_150534" data-name="Trazado 150534" d="M1082.427,236.489a11.889,11.889,0,0,0,7.883,3.186,12.276,12.276,0,0,0,8.054-3.07c.627-.537-.283-1.44-.907-.907a10.594,10.594,0,0,1-14.125-.116c-.608-.553-1.517.35-.905.906" transform="translate(-725.065 -80.622)" fill="#8c75b5"/>
          <path id="Trazado_150535" data-name="Trazado 150535" d="M949.015,236.314c-1.224-1.816-1.543-5.423-1.543-5.423L940.1,232.15l-7.377-1.259s-.318,3.607-1.542,5.423c-.866,1.285-2.471,2.4-2.471,4.148h22.78c0-1.751-1.606-2.864-2.471-4.148" transform="translate(-667.343 -78.923)" fill="#2b244a"/>
          <path id="Trazado_150536" data-name="Trazado 150536" d="M953.875,202.7c-1.673,10.221-8.929,17.542-16.207,16.351s-11.822-10.443-10.149-20.664,8.929-17.542,16.207-16.351,11.823,10.443,10.15,20.664" transform="translate(-666.767 -60.507)" fill="#2b244a"/>
          <path id="Trazado_150537" data-name="Trazado 150537" d="M948.263,199.7c-.623,3.808-3.327,6.535-6.038,6.092s-4.4-3.891-3.781-7.7,3.326-6.535,6.038-6.092,4.4,3.891,3.781,7.7" transform="translate(-670.956 -64.284)" fill="#8c75b5"/>
          <path id="Trazado_150538" data-name="Trazado 150538" d="M944.011,223.53a3.1,3.1,0,1,1-2.56-3.562,3.1,3.1,0,0,1,2.56,3.562" transform="translate(-670.781 -74.8)" fill="#8c75b5"/>
          <path id="Trazado_150539" data-name="Trazado 150539" d="M934.06,236.489a11.889,11.889,0,0,0,7.883,3.186,12.275,12.275,0,0,0,8.054-3.07c.628-.537-.282-1.44-.906-.907a10.594,10.594,0,0,1-14.125-.116c-.609-.553-1.518.35-.905.906" transform="translate(-669.28 -80.622)" fill="#8c75b5"/>
          <path id="Trazado_150540" data-name="Trazado 150540" d="M1014.674,33.046h-95.9a5.056,5.056,0,0,0-4.906,3.833l-20.7,83.061a5.056,5.056,0,0,0,4.906,6.278h95.9a5.055,5.055,0,0,0,4.905-3.833l20.7-83.061a5.055,5.055,0,0,0-4.906-6.278" transform="translate(-653.923 -4.535)" fill="#dec6bd"/>
          <path id="Trazado_150541" data-name="Trazado 150541" d="M1016.3,39.43l-18,73.361H896.129l18.915-75.908a5.041,5.041,0,0,1,4.9-3.837H1011.3a5.149,5.149,0,0,1,5,6.384" transform="translate(-655.095 -4.535)" fill="#2b244a"/>
          <path id="Trazado_150542" data-name="Trazado 150542" d="M1047.962,126.216a5.51,5.51,0,0,0,5.447-4.014c.087-.323.162-.65.243-.974q.7-2.817,1.4-5.634l5.36-21.506q3.312-13.287,6.624-26.573l5.32-21.341q.684-2.745,1.368-5.491c.569-2.281.9-4.92-1.242-6.525a6.725,6.725,0,0,0-4.02-1.1.593.593,0,0,0,0,1.184,4.881,4.881,0,0,1,3.828,1.349,4.052,4.052,0,0,1,.653,3.22c-.066.414-.178.823-.279,1.23l-1.2,4.8q-2.484,9.964-4.968,19.928l-6.436,25.82q-2.768,11.106-5.537,22.212l-1.7,6.811a13.135,13.135,0,0,1-1,3.372,4.43,4.43,0,0,1-3.868,2.049.593.593,0,0,0,0,1.184" transform="translate(-711.968 -4.538)" fill="#2b244a"/>
          <path id="Trazado_150543" data-name="Trazado 150543" d="M993.053,168.843H978.97l19.444,48.29H1012.5Z" transform="translate(-686.242 -55.593)" fill="#dec6bd"/>
          <path id="Trazado_150544" data-name="Trazado 150544" d="M985.535,183.436H998.3a.593.593,0,0,0,0-1.184H985.535a.593.593,0,0,0,0,1.184" transform="translate(-688.496 -60.634)" fill="#2b244a"/>
          <path id="Trazado_150545" data-name="Trazado 150545" d="M1006.11,241.6H974.06a2.89,2.89,0,0,0-2.89,2.89h34.94Z" transform="translate(-683.309 -82.949)" fill="#dec6bd"/>
          <path id="Trazado_150546" data-name="Trazado 150546" d="M542.327,286.395c-11.22-3.086-20.876-5.685-21.89-5.864a9.563,9.563,0,0,0-1.866,2.444c-.562,1.1-1.1,2.247-1.631,3.42Z" transform="translate(-512.523 -97.587)" fill="#ccb16c"/>
          <path id="Trazado_150547" data-name="Trazado 150547" d="M596.195,127.46l-21.105-11.208,17.72-32.417,17.306,10.422Z" transform="translate(-534.387 -23.631)" fill="#ffa58f"/>
          <path id="Trazado_150548" data-name="Trazado 150548" d="M588.411,107.949l19.561,9.6-1.148,6.293-21.578-10.231Z" transform="translate(-538.206 -32.697)" fill="#2b244a"/>
          <path id="Trazado_150549" data-name="Trazado 150549" d="M796.322,268.156c6.349,1.29,30.858,5.355,31.056,8.505s-2.507,6-19.451,4.147-11.6-12.652-11.6-12.652" transform="translate(-617.268 -92.934)" fill="#ffa58f"/>
          <path id="Trazado_150550" data-name="Trazado 150550" d="M796.992,281.582c-6.38-6.344-13.822-12.7-18.122-13.586-8.329-1.709-24.49,5.411-24.49,5.411l-5.272,8.175Z" transform="translate(-599.816 -92.775)" fill="#ffa58f"/>
          <path id="Trazado_150551" data-name="Trazado 150551" d="M803.064,289.259h1.947l-1.084-.944c-.619-.539-1.53.363-.906.906l.044.038" transform="translate(-620.008 -100.451)" fill="#2b244a"/>
          <path id="Trazado_150552" data-name="Trazado 150552" d="M812.828,277.705l7.187,6.912c.594.572,1.5-.333.906-.906l-7.187-6.912c-.595-.572-1.5.333-.906.906" transform="translate(-623.701 -96.115)" fill="#2b244a"/>
          <path id="Trazado_150553" data-name="Trazado 150553" d="M623.328,204.5c5.949,2.826,18.873,13.044,32.943,17.715h24.5a30.959,30.959,0,0,0,12.538-11.023c20.13-29.079,28.306-50.216,33.578-58.412,3.846-1.435,12.054-4.187,20.458-7.69,9.477-3.952,2.687-10.709,2.687-10.709s3.293-2.987,1.958-6.11c-.4-.935-1.838-2.085-4.539-1.833,2.1-.463,11.706-4.15,12.032-4.272,3.061-1.139,3.666-5.7-1.218-5.589-3.866.085-15.052,1.645-25.939,4.311,3.6-6.874,5.36-12.324,1.446-10.79-3.99,1.565-16.969,13.306-23.627,19.476-.129.105-.27.21-.389.316-.983.872-2.2,2.033-3.581,3.4l-.054.052h0C695.074,144.277,668.9,174.536,660.562,183c-9.4,9.54-19.151-8.073-25.871-17.97-4.261-6.274-13.783-19.621-13.783-19.621s-8.97,53.68,2.421,59.09" transform="translate(-550.352 -33.408)" fill="#ffa58f"/>
          <path id="Trazado_150554" data-name="Trazado 150554" d="M622.929,191.954l13.783-6.97-11.669-22.077Z" transform="translate(-552.374 -53.362)" fill="#2b244a"/>
          <path id="Trazado_150555" data-name="Trazado 150555" d="M574,224.578c1.661-22.963,5.421-75.981,5.421-85.135,0-11.747-8.757-24.134-24.989-23.28S526.5,139.229,518.551,159.4c-7.738,19.649-18.154,56.716-18.154,56.716s4.4,3.837,19.006,8.46Z" transform="translate(-506.303 -35.77)" fill="#2b244a"/>
          <path id="Trazado_150556" data-name="Trazado 150556" d="M540.5,233.19l7.971-2.572c.781-.252.447-1.49-.341-1.236l-7.971,2.572c-.782.252-.447,1.49.341,1.236" transform="translate(-521.084 -78.343)" fill="#8c75b5"/>
          <path id="Trazado_150557" data-name="Trazado 150557" d="M570.453,261.22H674.2c2.54-3.9,4.607-7.162,5.073-8.175-7.38-2.214-52.955-17.609-65.98-23a74.55,74.55,0,0,1-8.731-3.976,22.7,22.7,0,0,1-6.55-5.647,28.052,28.052,0,0,1-3.9-6.842,1.7,1.7,0,0,1-.341.168c-19.048,4.63-27.924,4.9-44.423,10.476,0,12.455,5.156,23.641,8.562,27.327a49.96,49.96,0,0,0,12.543,9.673" transform="translate(-524.708 -72.412)" fill="#ffa58f"/>
          <path id="Trazado_150558" data-name="Trazado 150558" d="M790.851,140.271a21.454,21.454,0,0,0,6.865-11.3c.189-.8-1.046-1.144-1.236-.341a20.29,20.29,0,0,1-6.535,10.733c-.626.538.283,1.441.906.906" transform="translate(-615.091 -40.302)" fill="#2b244a"/>
          <path id="Trazado_150559" data-name="Trazado 150559" d="M621.523,213.773c.335,5.463,4.7,9.2,9.162,11.688a147.025,147.025,0,0,0,16.078,7.444c10.534,4.286,21.363,7.792,32.119,11.469,5.262,1.8,10.52,3.609,15.787,5.393.783.265,1.119-.972.341-1.236q-13.833-4.685-27.647-9.427c-11.106-3.8-22.185-7.784-32.706-13.022-5.056-2.517-11.459-5.9-11.852-12.309-.05-.819-1.332-.825-1.282,0" transform="translate(-551.845 -72.255)" fill="#2b244a"/>
          <path id="Trazado_150560" data-name="Trazado 150560" d="M543.347,166.645q-1.419,16.439-2.877,32.874-.4,4.623-.8,9.247c-.071.822,1.211.817,1.281,0q1.42-16.438,2.877-32.874.4-4.623.8-9.247c.07-.822-1.211-.817-1.282,0" transform="translate(-521.067 -54.536)" fill="#8c75b5"/>
          <path id="Trazado_150561" data-name="Trazado 150561" d="M542.479,209.119c12.972-3.616,26.16-6.437,39.32-9.266q5.378-1.156,10.754-2.312c.806-.175.464-1.41-.341-1.236-13.163,2.85-26.357,5.577-39.437,8.8-3.558.877-7.107,1.794-10.638,2.778a.641.641,0,0,0,.341,1.236" transform="translate(-521.827 -65.913)" fill="#8c75b5"/>
          <path id="Trazado_150562" data-name="Trazado 150562" d="M589.274,75.15a47.19,47.19,0,0,0,21.84,8.794c9.468,1.28,12.347-6.1,11.844-9.309a206.474,206.474,0,0,0-6.289-24.575c-3.193-9.7-6.92-14.109-19.2-14.977S574.643,38.64,575.1,51.38,585.715,72.5,589.274,75.15" transform="translate(-534.387 -5.261)" fill="#ffa58f"/>
          <path id="Trazado_150563" data-name="Trazado 150563" d="M642.928,68.666s3.711,2.93,5.6,4.708c1.08,1.014.907,1.911.355,2.522a37.6,37.6,0,0,1-3.145,2.87l-4.736-3.094Z" transform="translate(-559.171 -17.928)" fill="#ffa58f"/>
          <path id="Trazado_150564" data-name="Trazado 150564" d="M640.4,70.527a1.568,1.568,0,0,0-1.466-.329,1.482,1.482,0,0,0-.891,1.395,5.133,5.133,0,0,0,.329,1.8,3.273,3.273,0,0,0,1.19,1.758c1.032.625,1.958-.183,2.078-1.206a4.542,4.542,0,0,0-1.241-3.422" transform="translate(-558.055 -18.479)" fill="#2b244a"/>
          <path id="Trazado_150565" data-name="Trazado 150565" d="M639.484,64.1c-.032,2.223-2.165,1.286-4.208,2.646-1.878,1.25-3.328,1.5-3.69.338-.437-1.4,1.031-3.7,3.97-4.657,2.752-.9,3.951.051,3.927,1.672" transform="translate(-555.601 -15.451)" fill="#2b244a"/>
          <path id="Trazado_150566" data-name="Trazado 150566" d="M822.75,148.432a29.865,29.865,0,0,0-8.9,4.352,3.879,3.879,0,0,0-1.568,3.887,4.04,4.04,0,0,0,2.406,2.89,9.644,9.644,0,0,0,4.241.66c.819-.052.825-1.334,0-1.281a7.977,7.977,0,0,1-3.982-.66,2.639,2.639,0,0,1-1.174-3.524,5.582,5.582,0,0,1,1.973-1.738A25.015,25.015,0,0,1,818,151.747a39.687,39.687,0,0,1,5.094-2.079c.776-.264.443-1.5-.341-1.236" transform="translate(-623.541 -47.906)" fill="#2b244a"/>
          <path id="Trazado_150567" data-name="Trazado 150567" d="M817.436,135.425a50.183,50.183,0,0,0-9.071,4.394c-1.347.795-2.991,1.645-3.786,3.049a3.916,3.916,0,0,0,1.033,4.844,7.972,7.972,0,0,0,5.245,1.237c.819-.051.825-1.333,0-1.281a7.754,7.754,0,0,1-4.119-.733,2.6,2.6,0,0,1-.6-4.029,14.257,14.257,0,0,1,3.316-2.238q2.035-1.176,4.151-2.2a36.345,36.345,0,0,1,4.174-1.8c.776-.265.442-1.5-.341-1.236" transform="translate(-620.505 -43.014)" fill="#2b244a"/>
          <path id="Trazado_150568" data-name="Trazado 150568" d="M609.385,26.848c-.152-2.086-1.506-4.593-6.96-5.037-9.611-.783-19.792,10.09-19.792,10.09-8.922,1.993-12.69,11.206-10.679,19.133,2.99,11.784,13.541,17.227,13.541,17.227l-.851,4.606c6.137-1.769,10.627-7.645,11.089-10.923s4-3.577,4-3.577,2.977-3.138.933-5.607c-1.67-2.017-2.117-4.042-1.473-5.708,2.749.061,6.894-.083,8.478-1.392a2.853,2.853,0,0,0,1.1-2.842c3.738-.555,4-.549,5.444-.71,4.226-4.69,1.809-11.73-4.833-15.261" transform="translate(-533.01 -0.296)" fill="#2b244a"/>
          <path id="Trazado_150569" data-name="Trazado 150569" d="M617.074,83.1a6.522,6.522,0,1,1-6.522-6.523,6.523,6.523,0,0,1,6.522,6.523" transform="translate(-545.268 -20.903)" fill="#ffa58f"/>
          <path id="Trazado_150570" data-name="Trazado 150570" d="M646.053,87.033c-2.653.4-5.215.769-5.574.846a10.819,10.819,0,0,0,6.36,2.689c-.19-1.04-.475-2.229-.786-3.534" transform="translate(-558.973 -24.834)" fill="#fff"/>
          <path id="Trazado_150571" data-name="Trazado 150571" d="M614.65,105.64a16.745,16.745,0,0,0,6.178,4,.647.647,0,0,0,.788-.448.655.655,0,0,0-.447-.788,15.29,15.29,0,0,1-5.613-3.673c-.576-.592-1.482.314-.906.906" transform="translate(-549.192 -31.416)" fill="#37374c"/>
          <path id="Trazado_150572" data-name="Trazado 150572" d="M610.353,86.342a3.239,3.239,0,0,1,2.595-4.653.659.659,0,0,0,.641-.641.646.646,0,0,0-.641-.641,4.513,4.513,0,0,0-3.7,6.581.647.647,0,0,0,.877.23.654.654,0,0,0,.23-.877" transform="translate(-547.045 -22.342)" fill="#37374c"/>
          <path id="Trazado_150573" data-name="Trazado 150573" d="M624.954,164.589c-.515,9.173-1.237,18.333-1.752,27.506-.046.824,1.236.821,1.282,0,.515-9.173,1.237-18.333,1.752-27.506.046-.824-1.236-.821-1.282,0" transform="translate(-552.476 -53.762)" fill="#8c75b5"/>
          <path id="Trazado_150574" data-name="Trazado 150574" d="M585.644,117.572a34.142,34.142,0,0,1,20.1,8.741c.609.554,1.518-.349.907-.906a35.565,35.565,0,0,0-21.007-9.117c-.823-.057-.819,1.224,0,1.282" transform="translate(-538.124 -35.833)" fill="#8c75b5"/>
          <path id="Trazado_150575" data-name="Trazado 150575" d="M575.218,70.98c1.507,1.5,3.125,3.041,5.246,3.586a5.478,5.478,0,0,0,5.459-1.531c1.392-1.421,2.61-4.034,4.89-4.082,1.155-.024,2.22.6,3.386.594a5.444,5.444,0,0,0,2.774-.845c2.091-1.295,3.026-3.582,3.844-5.792.287-.775-.952-1.109-1.236-.341-.842,2.277-1.945,4.967-4.576,5.593-1.338.319-2.477-.37-3.785-.477a4.531,4.531,0,0,0-3.161,1.07c-1.785,1.4-2.783,4.133-5.166,4.653-2.738.6-5.006-1.576-6.771-3.333a.641.641,0,0,0-.906.906" transform="translate(-534.364 -15.472)" fill="#8c75b5"/>
          <path id="Trazado_150576" data-name="Trazado 150576" d="M601.184,45.068a8.8,8.8,0,0,0,7.737,2.008,4.972,4.972,0,0,0,3.224-1.967c.823-1.355.376-2.955-.122-4.336l-.941.724a5.3,5.3,0,0,0,7.746-1.669.641.641,0,0,0-1.106-.647,4.022,4.022,0,0,1-5.993,1.209.647.647,0,0,0-.941.724c.4,1.1.958,2.568.079,3.58a4.612,4.612,0,0,1-2.8,1.244,7.471,7.471,0,0,1-5.981-1.775c-.617-.544-1.526.359-.906.906" transform="translate(-544.12 -6.724)" fill="#8c75b5"/>
          <path id="Trazado_150577" data-name="Trazado 150577" d="M614.83,78.768a7.756,7.756,0,1,1-7.756-7.756,7.756,7.756,0,0,1,7.756,7.756" transform="translate(-543.497 -18.81)" fill="#ffeae0"/>
          <path id="Trazado_150578" data-name="Trazado 150578" d="M592.8,33.842q4.1,15.765,9.759,31.067c.283.768,1.523.436,1.236-.34Q598.15,49.287,594.039,33.5a.641.641,0,0,0-1.236.341" transform="translate(-541.038 -4.535)" fill="#ffeae0"/>
          <path id="Trazado_150579" data-name="Trazado 150579" d="M597.264,30.377q4.193,16.107,9.973,31.75c.283.767,1.522.435,1.235-.341q-5.77-15.613-9.973-31.75a.641.641,0,0,0-1.236.341" transform="translate(-542.715 -3.232)" fill="#ffeae0"/>
          <path id="Trazado_150580" data-name="Trazado 150580" d="M610.766,75.435l-5.8,1.915-3.044-9.212a.516.516,0,0,1,.328-.652l4.815-1.591a.516.516,0,0,1,.652.328Z" transform="translate(-544.468 -16.876)" fill="#ffeae0"/>
          <path id="Trazado_150581" data-name="Trazado 150581" d="M604.3,73.015a8.42,8.42,0,0,1,1.908-.994,9,9,0,0,1,1.08-.311c.171-.037.342-.07.515-.1s.3-.04.5-.057a.657.657,0,0,0,.641-.64.646.646,0,0,0-.641-.641,9.619,9.619,0,0,0-4.648,1.636.657.657,0,0,0-.23.877.647.647,0,0,0,.877.23" transform="translate(-545.006 -18.531)" fill="#2b244a"/>
          <path id="Trazado_150582" data-name="Trazado 150582" d="M471.6,248.073c-7.12-15.479-13.385-28.942-17.429-36.145-13.669-24.348-20.5-33.318-30.115-33.318-6.835,0-9.611,2.99-14.1,15.8-2.241,6.4-3.77,28.835-4.668,53.659Z" transform="translate(-470.543 -59.266)" fill="#8498d9"/>
          <path id="Trazado_150583" data-name="Trazado 150583" d="M450.566,201.28c3.737,7.415,7.21,14.959,10.631,22.524,2.533,5.6,5.1,11.191,7.617,16.8h1.377c-1.931-4.288-3.886-8.564-5.816-12.853-3.39-7.532-6.791-15.06-10.409-22.486-7.136-14.648-15.172-28.96-25.464-41.649q-1.926-2.376-3.956-4.665c-.548-.618-1.452.291-.906.906,10.973,12.393,19.5,26.687,26.925,41.422" transform="translate(-477.38 -51.797)" fill="#2b244a"/>
          <path id="Trazado_150584" data-name="Trazado 150584" d="M681.581,68.424h50.863a3.639,3.639,0,0,0,3.628-3.628V52.962a3.638,3.638,0,0,0-3.628-3.628H681.581a3.639,3.639,0,0,0-3.629,3.628V64.8a3.639,3.639,0,0,0,3.629,3.628" transform="translate(-573.062 -10.659)" fill="#ffeae0"/>
          <path id="Trazado_150585" data-name="Trazado 150585" d="M677.952,67.986V78.095a1.281,1.281,0,0,0,1.74,1.2l10.068-3.855Z" transform="translate(-573.062 -17.672)" fill="#ffeae0"/>
          <path id="Trazado_150586" data-name="Trazado 150586" d="M742.262,62.734a1.183,1.183,0,0,1,0,2.366,1.183,1.183,0,0,1,0-2.366" transform="translate(-596.813 -15.697)" fill="#2b244a"/>
          <path id="Trazado_150587" data-name="Trazado 150587" d="M723.832,62.734a1.184,1.184,0,0,1,0,2.366,1.184,1.184,0,0,1,0-2.366" transform="translate(-589.883 -15.697)" fill="#2b244a"/>
          <path id="Trazado_150588" data-name="Trazado 150588" d="M705.4,62.734a1.184,1.184,0,0,1,0,2.366,1.184,1.184,0,0,1,0-2.366" transform="translate(-582.954 -15.697)" fill="#2b244a"/>
          <path id="Trazado_150589" data-name="Trazado 150589" d="M883.284,122.827h4.323s6.857,14.932,8.688,14.932c1.356,0,.336-14.932.336-14.932H999.2a1.828,1.828,0,0,0,1.816-2.041l-8.527-72.8a1.829,1.829,0,0,0-1.816-1.616H874.757a1.829,1.829,0,0,0-1.816,2.041l8.528,72.8a1.828,1.828,0,0,0,1.816,1.616" transform="translate(-646.371 -9.544)" fill="#ffc37a"/>
          <path id="Trazado_150590" data-name="Trazado 150590" d="M970.115,139.692H894.958s6.913-24.091,12.2-33.124a27.563,27.563,0,0,1,13.5-11.267c10.656-3.845,23.076-4.6,34.314-3.789,5.248.377,10.691,1.145,15.511,3.315,5.952,2.681,9.712,7.329,12.007,13.661,3.573,9.856,4.087,18.162,4.694,31.2Z" transform="translate(-654.654 -26.408)" fill="#ffeae0"/>
          <path id="Trazado_150591" data-name="Trazado 150591" d="M950.894,93.323a24.677,24.677,0,0,0-5.872,8.6c-.14.361.264.64.578.577,1.246-.251,2.46-.612,3.676-.977a11.242,11.242,0,0,1,1.807-.517c.438-.051.537.14.783.447q.253.314.5.63c1.384,1.741,2.736,3.525,4.278,5.131.419.437,1.083-.228.664-.663-1.708-1.779-3.186-3.771-4.726-5.693-.325-.406-.648-.826-1.218-.837a6.581,6.581,0,0,0-1.843.45c-1.383.409-2.757.84-4.173,1.125l.577.578a23.586,23.586,0,0,1,5.631-8.182c.431-.425-.233-1.089-.664-.664" transform="translate(-673.467 -27.147)" fill="#2b244a"/>
          <path id="Trazado_150592" data-name="Trazado 150592" d="M974.855,91.55a83.117,83.117,0,0,1,4.273,9.854l.577-.577c-1.655-.333-3.251-.872-4.874-1.328a2.29,2.29,0,0,0-1.813-.039,6.725,6.725,0,0,0-1.215.82c-2.455,2.037-5.152,3.746-7.531,5.884-.451.4.215,1.067.664.664,2.212-1.987,4.681-3.625,7.01-5.463a11.073,11.073,0,0,1,1.212-.906,2.038,2.038,0,0,1,.455-.251,3.438,3.438,0,0,1,1.37.312c1.485.431,2.955.907,4.472,1.213.316.064.717-.217.578-.578a85.071,85.071,0,0,0-4.368-10.079c-.288-.531-1.1-.057-.81.474" transform="translate(-680.66 -26.266)" fill="#2b244a"/>
          <path id="Trazado_150593" data-name="Trazado 150593" d="M964.529,95.548q-1.035,17.616-.9,35.276.034,4.962.164,9.922a.47.47,0,0,0,.938,0q-.462-17.64.25-35.287.2-4.957.487-9.91c.035-.6-.9-.6-.939,0" transform="translate(-680.47 -27.865)" fill="#2b244a"/>
          <path id="Trazado_150594" data-name="Trazado 150594" d="M940.862,39.082a7.655,7.655,0,0,0-4.387,1.954,6.766,6.766,0,0,0-2.094,3.826,4.414,4.414,0,0,0,.221,2.474c.7,1.627,2.56,2.619,4.312,3.5Z" transform="translate(-669.448 -6.805)" fill="#2b244a"/>
          <path id="Trazado_150595" data-name="Trazado 150595" d="M962.873,41.855c-1.528-8.287-8-9.779-15.528-7.37s-9.222,5.815-9.829,12.553a141.657,141.657,0,0,0-.417,16.8c.144,2.147,2.99,6.473,8.706,4.221A29.547,29.547,0,0,0,958,59.293c1.841-2.244,6.4-9.15,4.873-17.438" transform="translate(-670.465 -4.684)" fill="#e0785e"/>
          <path id="Trazado_150596" data-name="Trazado 150596" d="M955.094,75.77l-.112,6.108s3.554,14.574,6.2,14.573c1.9,0,8.723-15.855,8.723-15.855L967.62,62.787Z" transform="translate(-677.223 -15.717)" fill="#e0785e"/>
          <path id="Trazado_150597" data-name="Trazado 150597" d="M940.875,57.752c-.554,1.2-1.489.178-2.93.425-1.323.228-2.173.013-2.09-.706.1-.87,1.454-1.764,3.286-1.577,1.715.175,2.139.982,1.734,1.858" transform="translate(-670.029 -13.116)" fill="#2b244a"/>
          <path id="Trazado_150598" data-name="Trazado 150598" d="M947.414,57.905c.4,1.262,1.455.364,2.852.791,1.285.393,2.155.288,2.163-.437.01-.875-1.219-1.933-3.06-1.979-1.723-.043-2.245.7-1.955,1.624" transform="translate(-674.349 -13.27)" fill="#2b244a"/>
          <path id="Trazado_150599" data-name="Trazado 150599" d="M942.539,63.328a8.517,8.517,0,0,1-.411,1.652c-.19.53-.467,1.021-.67,1.546a2.138,2.138,0,0,0-.088,1.466,1.447,1.447,0,0,0,1,.972c.587.14.838-.766.25-.905a.6.6,0,0,1-.4-.587,2.445,2.445,0,0,1,.36-1.158,9.508,9.508,0,0,0,.869-2.736.486.486,0,0,0-.328-.578.473.473,0,0,0-.578.328" transform="translate(-672.07 -15.792)" fill="#2b244a"/>
          <path id="Trazado_150600" data-name="Trazado 150600" d="M964.39,43.522A8.934,8.934,0,0,0,964,37.855a4.973,4.973,0,0,0-1.49-1.837c-.362-.263-.793-.422-.9-.9a7.186,7.186,0,0,1,.012-1.34c-.039-1.511-.608-3.3-2.088-3.979a3.1,3.1,0,0,0-2.667.061,6.532,6.532,0,0,0-8.663.641c-2.278-1.432-5.218.2-6.793,2.012a29.236,29.236,0,0,0-1.98,3.223c-.028.018-.25.392-.276.417-1.2,1.176-1.342,1.733-.725,3.456.644,1.794,3,1.79,4.528,1.382.957-.257,1.748-.824,2.669-1.14.7-.24.861.259,1.214.726a2.972,2.972,0,0,0,.806.739c1.481.924,3.172.485,4.622-.252a2.824,2.824,0,0,1,2.022.671,2.48,2.48,0,0,1,.636,2.467c-.361,1.931-1.743,4.381-1.093,6.433a8.643,8.643,0,0,0,.412,2.773,5.7,5.7,0,0,0,4.608,2.963c.6,0,2.644-4.308,3.291-5.508a48.812,48.812,0,0,0,2.242-7.344" transform="translate(-670.866 -2.831)" fill="#2b244a"/>
          <path id="Trazado_150601" data-name="Trazado 150601" d="M972.577,64.332l.28,8.124s-5.71-.479-6.919-3.789,6.639-4.335,6.639-4.335" transform="translate(-681.295 -16.298)" fill="#2b244a"/>
          <path id="Trazado_150602" data-name="Trazado 150602" d="M959.6,61.7a4.367,4.367,0,1,0,5.9-1.821,4.367,4.367,0,0,0-5.9,1.821" transform="translate(-678.77 -14.432)" fill="#e0785e"/>
          <path id="Trazado_150603" data-name="Trazado 150603" d="M953.344,58.238s-2.92,10.177-5.662,12.82c-3.428,3.3-9.031,2.679-10.93.564a7.607,7.607,0,0,0,.095,5.665c1.322,2.689,5.375,3.36,9.3,1.93,5.429-1.977,6.8-7.3,7.919-11.1s2.75-10.419,2.75-10.419Z" transform="translate(-670.174 -13.805)" fill="#2b244a"/>
          <path id="Trazado_150604" data-name="Trazado 150604" d="M928.267,139.063q-.4,9.175-.538,18.358a.47.47,0,0,0,.939,0q.155-9.181.538-18.358c.026-.6-.913-.6-.939,0" transform="translate(-666.976 -44.226)" fill="#2b244a"/>
          <path id="Trazado_150605" data-name="Trazado 150605" d="M974.382,138.526c4.08.021,8.166-.045,12.243.161.6.031.6-.908,0-.938-4.077-.207-8.163-.141-12.243-.162a.47.47,0,0,0,0,.939" transform="translate(-684.347 -43.842)" fill="#2b244a"/>
          <path id="Trazado_150606" data-name="Trazado 150606" d="M973.9,138.067c.029,1.816.045,3.633.075,5.449.03,1.831.121,3.773,1.46,5.172a6.909,6.909,0,0,0,4.366,1.855,7.027,7.027,0,0,0,5.117-1.229c.473-.374-.2-1.035-.664-.664a6.276,6.276,0,0,1-4.621.937,5.452,5.452,0,0,1-3.871-1.968c-.982-1.4-.837-3.287-.86-4.918-.021-1.544-.038-3.089-.063-4.633a.47.47,0,0,0-.938,0" transform="translate(-684.337 -43.851)" fill="#2b244a"/>
          <path id="Trazado_150607" data-name="Trazado 150607" d="M992.3,138.328a22.584,22.584,0,0,1-.11,5.449c-.211,1.627-.52,3.783-1.779,4.972-.44.416.225,1.079.664.664,1.359-1.284,1.752-3.471,2-5.235a23.252,23.252,0,0,0,.163-5.849c-.068-.593-1.008-.6-.939,0" transform="translate(-690.489 -43.952)" fill="#2b244a"/>
          <path id="Trazado_150608" data-name="Trazado 150608" d="M950.175,63.581c.011-.009.087-.072.032-.029s.011-.007.021-.014c.043-.029.086-.057.13-.082s.092-.047.137-.071-.079.029-.017.007l.08-.03a2.363,2.363,0,0,1,.3-.076c.062-.013,0-.008-.022,0a.325.325,0,0,1,.085-.009c.052,0,.1-.006.155-.006s.092,0,.138,0l.086.007c.066,0-.087-.016-.022,0a2.609,2.609,0,0,1,.3.074l.08.029c.058.021.01,0-.017-.008a.476.476,0,0,1,.138.069c.045.025.089.052.131.081l.056.04c-.045-.036-.054-.042-.028-.021l.039.034a.469.469,0,1,0,.664-.664,2.414,2.414,0,0,0-3.129,0,.472.472,0,0,0,0,.664.482.482,0,0,0,.664,0" transform="translate(-675.115 -15.55)" fill="#2b244a"/>
          <path id="Trazado_150609" data-name="Trazado 150609" d="M937.745,63.113c.011-.009.087-.072.033-.029s.011-.007.021-.014a1.536,1.536,0,0,1,.13-.082c.045-.026.092-.047.137-.071s-.079.029-.018.007l.081-.03a2.35,2.35,0,0,1,.3-.076c.062-.013,0-.008-.022,0a.354.354,0,0,1,.086-.008c.052,0,.1-.006.155-.006s.092,0,.138,0l.086.007c.066,0-.087-.016-.023,0a2.594,2.594,0,0,1,.3.074l.081.029c.058.021.01,0-.017-.007a.459.459,0,0,1,.138.069c.045.025.089.052.131.081l.056.04q-.068-.053-.028-.021l.039.034a.47.47,0,1,0,.664-.664,2.414,2.414,0,0,0-3.129,0,.472.472,0,0,0,0,.664.481.481,0,0,0,.664,0" transform="translate(-670.442 -15.374)" fill="#2b244a"/>
          <path id="Trazado_150610" data-name="Trazado 150610" d="M946.81,74.573c-.825,3.3-4.965,3.241-6.019-.092Z" transform="translate(-671.887 -20.114)" fill="#fff"/>
          <path id="Trazado_150611" data-name="Trazado 150611" d="M1004.265,118.555a5.7,5.7,0,0,1-2.5,4.723c-.5.334-.031,1.147.474.811a6.673,6.673,0,0,0,2.961-5.534.47.47,0,0,0-.939,0" transform="translate(-694.734 -36.515)" fill="#8498d9"/>
          <path id="Trazado_150612" data-name="Trazado 150612" d="M997.363,104.189a5.7,5.7,0,0,1,1.169-5.213c.4-.452-.271-1.114-.67-.658a6.672,6.672,0,0,0-1.405,6.117.47.47,0,0,0,.906-.246" transform="translate(-692.729 -29.019)" fill="#8498d9"/>
          <path id="Trazado_150613" data-name="Trazado 150613" d="M941.686,138.916a5.7,5.7,0,0,1-2.668-4.628c-.015-.6-.953-.638-.938-.031a6.671,6.671,0,0,0,3.106,5.454.47.47,0,0,0,.5-.794" transform="translate(-670.868 -42.425)" fill="#8498d9"/>
          <path id="Trazado_150614" data-name="Trazado 150614" d="M914.314,150.741a5.7,5.7,0,0,1,3.56,3.982c.138.585,1.065.427.925-.162a6.672,6.672,0,0,0-4.16-4.7.47.47,0,0,0-.326.88" transform="translate(-661.82 -48.445)" fill="#8498d9"/>
          <path id="Trazado_150615" data-name="Trazado 150615" d="M1028.972,144.268a5.7,5.7,0,0,1-5-1.894c-.392-.456-1.142.11-.746.57a6.67,6.67,0,0,0,5.858,2.256.47.47,0,0,0-.116-.932" transform="translate(-702.842 -45.578)" fill="#8498d9"/>
          <path id="Trazado_150616" data-name="Trazado 150616" d="M981.428,122.584a5.7,5.7,0,0,1-5-1.894c-.393-.456-1.142.11-.746.57a6.671,6.671,0,0,0,5.857,2.255.47.47,0,0,0-.115-.932" transform="translate(-684.966 -37.425)" fill="#8498d9"/>
          <path id="Trazado_150617" data-name="Trazado 150617" d="M1023.678,120.241a5.7,5.7,0,0,1,4.921,2.079c.375.47,1.145-.069.766-.542a6.669,6.669,0,0,0-5.769-2.472.47.47,0,0,0,.081.935" transform="translate(-702.866 -36.958)" fill="#8498d9"/>
          <path id="Trazado_150618" data-name="Trazado 150618" d="M1002.583,159.508a5.7,5.7,0,0,0-4.921,2.078c-.376.471-1.146-.068-.767-.542a6.67,6.67,0,0,1,5.769-2.472.47.47,0,0,1-.081.935" transform="translate(-692.944 -51.721)" fill="#8498d9"/>
          <path id="Trazado_150619" data-name="Trazado 150619" d="M953.035,117.03a5.7,5.7,0,0,1,1.383,5.16c-.141.585.757.862.9.272a6.672,6.672,0,0,0-1.593-6.07.47.47,0,0,0-.688.638" transform="translate(-676.443 -35.816)" fill="#8498d9"/>
          <path id="Trazado_150620" data-name="Trazado 150620" d="M945.981,159.758a5.7,5.7,0,0,1,5.26.932c.47.375,1.1-.321.627-.7a6.67,6.67,0,0,0-6.174-1.128.47.47,0,0,0,.287.894" transform="translate(-673.613 -51.722)" fill="#8498d9"/>
          <path id="Trazado_150621" data-name="Trazado 150621" d="M927.377,116.133a5.7,5.7,0,0,1-4.689,2.558c-.6,0-.66.939-.053.937a6.67,6.67,0,0,0,5.525-2.977.47.47,0,0,0-.782-.519" transform="translate(-664.9 -35.697)" fill="#8498d9"/>
          <path id="Trazado_150622" data-name="Trazado 150622" d="M965.976,51.787a3,3,0,0,0,5.317.328l-.642.168a2.069,2.069,0,0,0,3.114-1.289c.1-.591-.809-.846-.906-.25a1.128,1.128,0,0,1-1.735.728.476.476,0,0,0-.642.168,2.125,2.125,0,0,1-1.984.983,2.163,2.163,0,0,1-1.711-1.311c-.245-.551-1.055-.074-.811.474" transform="translate(-681.339 -11.062)" fill="#8c75b5"/>
          <path id="Trazado_150623" data-name="Trazado 150623" d="M951.7,41.651a6.953,6.953,0,0,1,.96-2.493,5.075,5.075,0,0,1,.858-1.07c.4-.358.834-.231,1.321-.163,1.817.253,3.279-1.025,4.478-2.216a.47.47,0,0,0-.664-.664,8.363,8.363,0,0,1-2.132,1.682,2.744,2.744,0,0,1-1.236.3,6.434,6.434,0,0,0-1.577-.087c-.849.194-1.462,1.106-1.893,1.8A7.668,7.668,0,0,0,950.8,41.4c-.108.591.8.844.906.25" transform="translate(-675.647 -5.235)" fill="#8c75b5"/>
          <path id="Trazado_150624" data-name="Trazado 150624" d="M966.529,42a5.213,5.213,0,0,1,4.043-1.986.47.47,0,0,0,0-.939,6.106,6.106,0,0,0-4.707,2.261.485.485,0,0,0,0,.664.473.473,0,0,0,.664,0" transform="translate(-681.266 -6.801)" fill="#8c75b5"/>
          <path id="Trazado_150625" data-name="Trazado 150625" d="M1010.118,139.916q.453,8.858.531,17.731a.47.47,0,0,0,.939,0q-.078-8.87-.53-17.731c-.031-.6-.971-.6-.939,0" transform="translate(-697.953 -44.547)" fill="#2b244a"/>
          <path id="Trazado_150626" data-name="Trazado 150626" d="M1056.976,53.022a2.817,2.817,0,1,1-2.817-2.817,2.817,2.817,0,0,1,2.817,2.817" transform="translate(-713.454 -10.986)" fill="#fff"/>
          <path id="Trazado_150627" data-name="Trazado 150627" d="M1041.929,53.022a2.817,2.817,0,1,1-2.817-2.817,2.817,2.817,0,0,1,2.817,2.817" transform="translate(-707.796 -10.986)" fill="#fff"/>
          <path id="Trazado_150628" data-name="Trazado 150628" d="M888.48,88.231H853.154a3.639,3.639,0,0,0-3.628,3.628v6.73a3.639,3.639,0,0,0,3.628,3.629H888.48a3.639,3.639,0,0,0,3.628-3.629v-6.73a3.639,3.639,0,0,0-3.628-3.628" transform="translate(-637.573 -25.284)" fill="#ffeae0"/>
          <path id="Trazado_150629" data-name="Trazado 150629" d="M912.554,91.951V84.545a.939.939,0,0,0-1.275-.877L903.9,86.492Z" transform="translate(-658.018 -23.545)" fill="#ffeae0"/>
          <path id="Trazado_150630" data-name="Trazado 150630" d="M869.665,98.049a.867.867,0,0,0,0,1.733.867.867,0,0,0,0-1.733" transform="translate(-644.83 -28.975)" fill="#2b244a"/>
          <path id="Trazado_150631" data-name="Trazado 150631" d="M883.168,98.049a.867.867,0,0,0,0,1.733.867.867,0,0,0,0-1.733" transform="translate(-649.907 -28.975)" fill="#2b244a"/>
          <path id="Trazado_150632" data-name="Trazado 150632" d="M896.671,98.049a.867.867,0,0,0,0,1.733.867.867,0,0,0,0-1.733" transform="translate(-654.984 -28.975)" fill="#2b244a"/>
        </g>
      </g>
    </g>
  </g>
</svg>
