<svg xmlns="http://www.w3.org/2000/svg" xmlns:xlink="http://www.w3.org/1999/xlink" width="201" height="173" viewBox="0 0 201 173">
  <defs>
    <clipPath id="clip-path">
      <rect id="Rectángulo_44654" data-name="Rectángulo 44654" width="136.683" height="154.287" fill="none"/>
    </clipPath>
  </defs>
  <g id="Grupo_172704" data-name="Grupo 172704" transform="translate(-775 -452.394)">
    <rect id="Rectángulo_42860" data-name="Rectángulo 42860" width="201" height="173" transform="translate(775 452.394)" fill="none"/>
    <g id="Grupo_173542" data-name="Grupo 173542" transform="translate(807 461.394)">
      <g id="Grupo_173542-2" data-name="Grupo 173542" transform="translate(0 0)" clip-path="url(#clip-path)">
        <path id="Trazado_177488" data-name="Trazado 177488" d="M81.739,1.059,3.85,31.013a5.418,5.418,0,0,0-3.115,7l43.2,112.345a5.414,5.414,0,0,0,7,3.11l77.892-29.951a10.232,10.232,0,0,0,5.878-13.223L94.96,6.937A10.23,10.23,0,0,0,81.739,1.059" transform="translate(0.458 0.458)" fill="#753335"/>
        <path id="Trazado_177489" data-name="Trazado 177489" d="M18.641,11.6,3.849,17.287a5.417,5.417,0,0,0-3.112,7L43.94,136.63a5.412,5.412,0,0,0,7,3.11l14.792-5.687Z" transform="translate(0.459 14.185)" fill="#d98662"/>
        <path id="Trazado_177490" data-name="Trazado 177490" d="M56.683,21.059A22.292,22.292,0,0,0,54.5,19.77,22.691,22.691,0,0,0,37.115,18.3a4.684,4.684,0,0,0-.751.2,5.074,5.074,0,0,0-.709.318,22.687,22.687,0,0,0-12.5,12.167,23.615,23.615,0,0,0-.874,2.383,22.689,22.689,0,0,0,9.126,25.494,21.944,21.944,0,0,0,2.185,1.292,22.672,22.672,0,0,0,17.378,1.472,4.615,4.615,0,0,0,.751-.2,5.751,5.751,0,0,0,.7-.32,22.681,22.681,0,0,0,12.5-12.167,23.423,23.423,0,0,0,.871-2.381,22.692,22.692,0,0,0-9.119-25.5m5.967,10.9-9.741,3.481a49.348,49.348,0,0,0-4.057-8.285A34.771,34.771,0,0,0,54.68,23.08c.078-.067.149-.136.225-.2a20.163,20.163,0,0,1,7.745,9.086m-9.221,15.33a54.47,54.47,0,0,0-11.989,4.288,46.312,46.312,0,0,1-3.915-7.95l13.887-4.966a46.677,46.677,0,0,1,2.016,8.628M51.323,58.855c-.151.06-.3.116-.46.171s-.313.107-.469.158c-1.947.251-4.773-1.75-7.547-5.522a53.079,53.079,0,0,1,10.813-3.868c.242,4.677-.665,8.016-2.336,9.061m-14.65-17.6a46.064,46.064,0,0,1-2.016-8.628,51.307,51.307,0,0,0,6.118-1.792,53.433,53.433,0,0,0,5.869-2.494,45.989,45.989,0,0,1,3.917,7.95Zm.082-20.188c.158-.058.313-.118.467-.173s.311-.107.469-.158c1.952-.251,4.773,1.75,7.545,5.524a52.5,52.5,0,0,1-5.3,2.228,51.538,51.538,0,0,1-5.507,1.634c-.247-4.673.66-8.012,2.325-9.055m15.817.54a33.492,33.492,0,0,1-5.109,3.479,29.207,29.207,0,0,0-1.87-2.354,18.165,18.165,0,0,0-3.248-2.952A20.292,20.292,0,0,1,52.572,21.6M32.553,23.28a18.14,18.14,0,0,0-.64,4.342c-.038.96-.016,1.967.047,3.01a33.564,33.564,0,0,1-6.156.547,20.253,20.253,0,0,1,6.749-7.9M24.811,33.639c.1,0,.2.011.3.013a34.689,34.689,0,0,0,7.1-.54,49.392,49.392,0,0,0,2.116,8.981l-9.735,3.481a20.123,20.123,0,0,1,.222-11.936m.625,14.317,9.741-3.481a49.492,49.492,0,0,0,4.057,8.283A34.723,34.723,0,0,0,33.4,56.839l-.225.2a20.169,20.169,0,0,1-7.745-9.083M35.512,58.313a33.173,33.173,0,0,1,5.109-3.479c.611.845,1.234,1.636,1.867,2.356a18.266,18.266,0,0,0,3.25,2.952,20.333,20.333,0,0,1-10.226-1.83m20.016-1.676a18.3,18.3,0,0,0,.645-4.342c.036-.96.013-1.967-.049-3.008a33.178,33.178,0,0,1,6.156-.547,20.286,20.286,0,0,1-6.751,7.9m7.745-10.362c-.1,0-.2-.009-.3-.016a34.813,34.813,0,0,0-7.094.545,49.5,49.5,0,0,0-2.121-8.981L63.5,34.342a20.115,20.115,0,0,1-.222,11.933" transform="translate(26.044 21.052)" fill="#fff"/>
        <path id="Trazado_177491" data-name="Trazado 177491" d="M31.768,46.576a2.711,2.711,0,0,1,0,2.245,3.22,3.22,0,0,1-1.858,1.505l-.574.222.965,2.508-2.043.785L25.354,46.28l2.619-1a3.429,3.429,0,0,1,2.392-.2,2.411,2.411,0,0,1,1.4,1.505M28.7,48.883l.373-.145a1.089,1.089,0,0,0,.631-.54,1.006,1.006,0,0,0,0-.818q-.293-.764-1.143-.438l-.529.2Z" transform="translate(31.01 54.96)" fill="#fff"/>
        <path id="Trazado_177492" data-name="Trazado 177492" d="M35.01,51.1l-.916-1.274-2.459.945L31.8,52.34l-2.248.863L29.1,44.661l2.725-1.049,5.418,6.634Zm-1.985-2.785-.8-1.116q-.273-.37-.687-.965c-.278-.4-.469-.682-.578-.858.038.187.087.5.151.938s.167,1.312.309,2.619Z" transform="translate(35.592 53.34)" fill="#fff"/>
        <path id="Trazado_177493" data-name="Trazado 177493" d="M38.608,47.229a2.378,2.378,0,0,1,.122,1.387,2.5,2.5,0,0,1-.7,1.245,4.072,4.072,0,0,1-1.461.907,6.632,6.632,0,0,1-1.307.382,5.12,5.12,0,0,1-1.209.04l-.7-1.821a6.514,6.514,0,0,0,1.4,0,4.983,4.983,0,0,0,1.223-.276,1.2,1.2,0,0,0,.607-.416.516.516,0,0,0,.056-.489.481.481,0,0,0-.189-.238,1.061,1.061,0,0,0-.365-.129c-.158-.031-.554-.064-1.194-.1a5.242,5.242,0,0,1-1.361-.225,2.131,2.131,0,0,1-.825-.514,2.593,2.593,0,0,1-.551-.9,2.082,2.082,0,0,1,.133-1.921,3.59,3.59,0,0,1,1.865-1.389,6.265,6.265,0,0,1,2.6-.378l-.018,1.818a4.84,4.84,0,0,0-2.019.218,1.037,1.037,0,0,0-.527.362.452.452,0,0,0-.047.416.534.534,0,0,0,.382.309,9.411,9.411,0,0,0,1.5.162,3.679,3.679,0,0,1,1.721.422,2.186,2.186,0,0,1,.869,1.123" transform="translate(39.109 51.843)" fill="#fff"/>
        <path id="Trazado_177494" data-name="Trazado 177494" d="M41.359,46.171a2.4,2.4,0,0,1,.124,1.387,2.51,2.51,0,0,1-.7,1.243,4.045,4.045,0,0,1-1.461.909,6.631,6.631,0,0,1-1.307.382,5.115,5.115,0,0,1-1.209.04l-.7-1.821a6.514,6.514,0,0,0,1.4,0,4.983,4.983,0,0,0,1.223-.276,1.2,1.2,0,0,0,.607-.416.516.516,0,0,0,.056-.489.481.481,0,0,0-.189-.238,1.061,1.061,0,0,0-.365-.129c-.158-.031-.554-.064-1.194-.1a5.242,5.242,0,0,1-1.361-.225,2.13,2.13,0,0,1-.825-.514,2.593,2.593,0,0,1-.551-.9,2.087,2.087,0,0,1,.133-1.923A3.6,3.6,0,0,1,36.9,41.719a6.265,6.265,0,0,1,2.6-.378l-.018,1.818a4.84,4.84,0,0,0-2.019.218,1.037,1.037,0,0,0-.527.362.458.458,0,0,0-.047.416.539.539,0,0,0,.382.309,9.413,9.413,0,0,0,1.5.162,3.679,3.679,0,0,1,1.721.422,2.186,2.186,0,0,1,.869,1.123" transform="translate(42.473 50.549)" fill="#fff"/>
        <path id="Trazado_177495" data-name="Trazado 177495" d="M43.738,41.972a2.719,2.719,0,0,1,0,2.245,3.222,3.222,0,0,1-1.856,1.505l-.576.222.965,2.508-2.043.787-2.908-7.563,2.619-1a3.429,3.429,0,0,1,2.392-.2,2.411,2.411,0,0,1,1.4,1.505M40.67,44.279l.373-.142a1.1,1.1,0,0,0,.631-.54,1.011,1.011,0,0,0,0-.82c-.2-.509-.578-.656-1.143-.438l-.529.2Z" transform="translate(45.65 49.329)" fill="#fff"/>
        <path id="Trazado_177496" data-name="Trazado 177496" d="M48.443,41.816a4.361,4.361,0,0,1,.18,3.261,3.842,3.842,0,0,1-2.359,2.047,3.835,3.835,0,0,1-3.112.051,4.351,4.351,0,0,1-2.067-2.541,4.336,4.336,0,0,1-.165-3.248,3.854,3.854,0,0,1,2.361-2.05,3.84,3.84,0,0,1,3.117-.064,4.365,4.365,0,0,1,2.045,2.543m-5.2,2q.844,2.194,2.37,1.605a1.4,1.4,0,0,0,.945-.974,3.127,3.127,0,0,0-.262-1.805,3.176,3.176,0,0,0-1.025-1.527,1.391,1.391,0,0,0-1.343-.1q-1.537.59-.685,2.8" transform="translate(49.75 47.666)" fill="#fff"/>
        <path id="Trazado_177497" data-name="Trazado 177497" d="M48.025,43.094l1.058,2.752-2.043.785L44.132,39.07l2.477-.954q3.085-1.184,3.946,1.049a2.4,2.4,0,0,1-.5,2.525l3.47,2.448L51.2,45.03l-2.661-2.136Zm-.589-1.536.38-.147q1.07-.413.707-1.358-.3-.78-1.349-.378l-.4.156Z" transform="translate(53.976 46.117)" fill="#fff"/>
        <path id="Trazado_177498" data-name="Trazado 177498" d="M53.905,44.454l-2.043.785L49.6,39.35l-1.85.709-.642-1.67,5.733-2.205.64,1.672-1.841.707Z" transform="translate(57.615 44.255)" fill="#fff"/>
        <line id="Línea_1419" data-name="Línea 1419" x2="38.981" y2="101.37" transform="translate(19.099 25.782)" fill="none" stroke="#000" stroke-miterlimit="10" stroke-width="0.75"/>
        <path id="Trazado_177499" data-name="Trazado 177499" d="M128.83,123.513a10.232,10.232,0,0,0,5.878-13.221L94.962,6.935A10.231,10.231,0,0,0,81.741,1.059L3.85,31.011a5.419,5.419,0,0,0-3.112,7" transform="translate(0.459 0.458)" fill="none" stroke="#000" stroke-miterlimit="10" stroke-width="0.75"/>
      </g>
    </g>
  </g>
</svg>
