<svg xmlns="http://www.w3.org/2000/svg" xmlns:xlink="http://www.w3.org/1999/xlink" width="295" height="559.275" viewBox="0 0 295 559.275">
  <defs>
    <clipPath id="clip-path">
      <rect id="Rectángulo_44641" data-name="Rectángulo 44641" width="249.498" height="516.136" fill="none"/>
    </clipPath>
  </defs>
  <g id="Grupo_173537" data-name="Grupo 173537" transform="translate(-1125.326 -4370)">
    <g id="Grupo_172676" data-name="Grupo 172676" transform="translate(34.326 2704.252)">
      <path id="Trazado_177276" data-name="Trazado 177276" d="M0,0H295V559.275H0Z" transform="translate(1091 1665.748)" fill="none"/>
      <g id="Grupo_172620" data-name="Grupo 172620" transform="translate(1108.28 1665.748)">
        <g id="Grupo_157493" data-name="Grupo 157493" transform="translate(-0.001)">
          <path id="Trazado_114544" data-name="Trazado 114544" d="M198.605,552.231c35.813-16.292,72.953-38.275,87.377-75.039,16.007-40.8-.748-86.494-.345-130.351.32-34.744,11.517-68.3,20.327-101.893s15.281-69.294,6.191-102.816c-6.085-22.44-19.01-42.745-35.7-58.856C247.075,54.9,204.739,39.553,164.515,46.042S87.747,82.095,75.988,121.312c-16.66,55.563,15.884,114.875,8.967,172.49-2.706,22.544-11.368,43.863-17.242,65.79a270.917,270.917,0,0,0-9.2,71.579c.22,36.983,9.542,76.442,36.982,101.071C123.17,557.085,164.36,567.811,198.605,552.231Z" transform="translate(-58.504 -44.565)" fill="#ffdfe0"/>
        </g>
      </g>
    </g>
    <g id="Grupo_173536" data-name="Grupo 173536" transform="translate(1147.326 4411)">
      <g id="Grupo_173535" data-name="Grupo 173535" clip-path="url(#clip-path)">
        <path id="Trazado_177366" data-name="Trazado 177366" d="M29.075,20c1.465-3.648,6.74-5.655,6.74-5.655C34.864,12.634,27.534.631,29.234.017S43.8,16.627,43.8,16.627c2.667-4.448,10.554-9.225,7.658-2.938s-1.567,16.976-1.567,16.976,3.641,32.151,7.9,65.783c21.663,1.978,41.982,3.6,52.7,3.844a49.716,49.716,0,0,1,12.265,1.619c10.639,3.007,13.107,17.053,3.913,23.2-3.608,2.416-8.855,4.208-16.513,4.265a390.957,390.957,0,0,1-48.3-2.082c-6.7-.755-13.731-1.768-20.941-3.125A14.067,14.067,0,0,1,29.55,111.282c-.4-5.692-.642-11.58-.659-17.606-.066-20.1,2.341-41.668,9.435-62.4-6.153-3.1-10.559-8.019-9.251-11.278" transform="translate(67.11 0.001)" fill="#fa9778"/>
        <path id="Trazado_177367" data-name="Trazado 177367" d="M29.882,56.159,28.056,89.421S76.656,99.73,75.219,72.24c0,0,.81-20.109-45.338-16.081" transform="translate(125.562 40.901)" fill="#b4cbdd"/>
        <path id="Trazado_177368" data-name="Trazado 177368" d="M71.1,86.88C67.892,81.293,69.813,56.2,69.813,56.2S62.963,71.015,64.219,86.24Z" transform="translate(67.222 41.326)" fill="#450d20"/>
        <path id="Trazado_177369" data-name="Trazado 177369" d="M15.895,112.86c3.4-17.49,2.256-36.108,14.132-39.093,7.8-1.957,12.775-2.034,17.181-4.958.743-1.171,2.534-4.073,4.245-7.455a39.2,39.2,0,0,0,3.528-9.214l0-.012a8.535,8.535,0,0,0,.1-3.67L91.116,40.5c-.054.1-.094.186-.147.281-1.355,2.709-11.878,24-11.685,37.052a23.392,23.392,0,0,0,8.1,4.585,16.514,16.514,0,0,1,9.056,7.224c2.766,4.815,4.019,12.652-2.039,24.74C82.285,138.56,71.3,160.5,68.253,176.547L5.188,157.384s6.978-25.346,10.707-44.524" transform="translate(141.76 29.782)" fill="#fa9778"/>
        <path id="Trazado_177370" data-name="Trazado 177370" d="M14.472,57.122c16.09,7.2,30.635-10.21,31.173-10.861A20.628,20.628,0,0,1,31.1,51.2a34.24,34.24,0,0,1-13-3.236c-.031-.021-.064-.031-.1-.054a39.174,39.174,0,0,1-3.528,9.214" transform="translate(178.74 34.015)" fill="#450d20"/>
        <path id="Trazado_177371" data-name="Trazado 177371" d="M5.674,143.282c9.266,1.655,58.005,10.622,69.781,17.7a1.293,1.293,0,0,0,1.973-.92,124.387,124.387,0,0,1,4.985-22.33c.184-.6.385-1.187.6-1.789.116-.335.234-.67.368-.987.2-.585.418-1.154.652-1.723A61.309,61.309,0,0,1,87.3,126.2c6.573-11.993,16.51-30.525,14.719-43.505a14.687,14.687,0,0,0-6.808-10.236L83.316,64.954s-19.9,6.539-33.987-7.812c0,0-17.662,3.429-18.9,3.212-1.27-.217-8.178,5-11.305,28.218-2.711,20.272-12.093,46.6-14.436,52.987a1.29,1.29,0,0,0,.987,1.723" transform="translate(139.283 42.016)" fill="#b4cbdd"/>
        <path id="Trazado_177372" data-name="Trazado 177372" d="M42.9,69.291a16.975,16.975,0,0,1,11.13-10.335l-.378-1.629A18.436,18.436,0,0,0,41.326,68.718Z" transform="translate(123.759 42.151)" fill="#450d20"/>
        <path id="Trazado_177373" data-name="Trazado 177373" d="M47.262,106.222l.96-1.369c-.09-.064-9.237-6.563-13.027-15.328l-1.536.663c3.981,9.206,13.211,15.76,13.6,16.034" transform="translate(142.868 65.827)" fill="#450d20"/>
        <path id="Trazado_177374" data-name="Trazado 177374" d="M51.137,110.387l1.341-1c-.116-.154-11.672-15.633-13.492-21.794l-1.6.474c1.9,6.448,13.268,21.677,13.752,22.323" transform="translate(132.146 64.405)" fill="#450d20"/>
        <path id="Trazado_177375" data-name="Trazado 177375" d="M15.674,103.7l.252,1.655,7.125-1.02c.184-.6.385-1.187.6-1.789Z" transform="translate(198.646 75.404)" fill="#450d20"/>
        <path id="Trazado_177376" data-name="Trazado 177376" d="M15.086,99.586l4.968,5.018c.2-.587.418-1.154.652-1.723l-4.434-4.467Z" transform="translate(202.613 72.363)" fill="#450d20"/>
        <path id="Trazado_177377" data-name="Trazado 177377" d="M14.7,38.875c-6.122-3.1-10.493-8-9.188-11.246,1.465-3.648,6.738-5.655,6.738-5.655C11.3,20.26,3.975,8.257,5.676,7.643s14.568,16.61,14.568,16.61C22.91,19.805,30.8,15.028,27.9,21.315s-1.567,16.976-1.567,16.976L26.3,38.3c.2,1.72,3.75,33.005,7.889,65.7,21.663,1.978,41.982,3.6,52.7,3.844a49.717,49.717,0,0,1,12.265,1.619c10.639,3.007,13.107,17.053,3.913,23.2-3.608,2.417-8.855,4.21-16.513,4.265a390.532,390.532,0,0,1-48.3-2.081c-6.7-.755-13.731-1.768-20.941-3.127a14.065,14.065,0,0,1-11.359-12.89c-.4-5.692-.642-11.581-.659-17.606C5.219,81.141,7.623,59.59,14.7,38.875" transform="translate(131.6 5.608)" fill="#fa9778"/>
        <path id="Trazado_177378" data-name="Trazado 177378" d="M4.656,64.609V97.921s49.091,7.63,46.15-19.741c0,0-.293-20.122-46.15-13.572" transform="translate(190.486 46.542)" fill="#b4cbdd"/>
        <path id="Trazado_177379" data-name="Trazado 177379" d="M22.279,88.442c16.194,0,26.421-7.146,26.552-7.238l-.972-1.36c-.16.111-16.079,11.191-39.643,5.1L7.8,86.563a57.679,57.679,0,0,0,14.479,1.879" transform="translate(187.132 58.708)" fill="#450d20"/>
        <path id="Trazado_177380" data-name="Trazado 177380" d="M37.172,64.79v30.48L31.324,64.334Z" transform="translate(157.969 47.304)" fill="#450d20"/>
        <path id="Trazado_177381" data-name="Trazado 177381" d="M3.9,53.606C7.548,41.053,12.225,26.5,20.41,16.079,27.57,6.963,47.739,8.7,57.457,24.2c4.515,7.2,2.867,17.264-.182,25.984a4.907,4.907,0,0,1,.892-.083c2.893.147,4.979,2.993,5.015,5.766A7.612,7.612,0,0,1,60.4,61.64a9.586,9.586,0,0,1-5.221,2.212,12.269,12.269,0,0,1-3.691-.734,27.875,27.875,0,0,1-13.348,12.3,25.217,25.217,0,0,1-22.092-1.041c-5.357-2.924-12.706-9.159-13-15.732A15.692,15.692,0,0,1,3.9,53.606" transform="translate(181.05 7.747)" fill="#fa9778"/>
        <path id="Trazado_177382" data-name="Trazado 177382" d="M31.991,28.251c-.583,1.917-1.813,3.242-2.75,2.957s-1.223-2.07-.64-3.988,1.813-3.24,2.75-2.955,1.223,2.068.64,3.986" transform="translate(168.1 17.814)" fill="#450d20"/>
        <path id="Trazado_177383" data-name="Trazado 177383" d="M20.137,29.792c-.583,1.917-.3,3.7.64,3.986s2.169-1.038,2.75-2.955.3-3.7-.64-3.986-2.167,1.038-2.75,2.955" transform="translate(191.249 19.704)" fill="#450d20"/>
        <path id="Trazado_177384" data-name="Trazado 177384" d="M23.388,32.472a8.681,8.681,0,0,0,1.673,3.682,6.774,6.774,0,0,0,3.413,2.414,6.863,6.863,0,0,0,4.175-.156,12.994,12.994,0,0,0,1.858-.857c.555-.392,1.1-.788,1.612-1.215-.64.224-1.241.488-1.841.737-.633.161-1.23.416-1.853.524a7.319,7.319,0,0,1-3.642-.066A7.15,7.15,0,0,1,25.692,35.6a15.329,15.329,0,0,1-2.3-3.132" transform="translate(172.793 23.876)" fill="#450d20"/>
        <path id="Trazado_177385" data-name="Trazado 177385" d="M27.105,36.821a2.907,2.907,0,0,0,1.6,1.147,3.048,3.048,0,0,0,1.97-.062,9.633,9.633,0,0,1-1.848-.342,8.04,8.04,0,0,1-1.723-.743" transform="translate(171.787 27.074)" fill="#450d20"/>
        <path id="Trazado_177386" data-name="Trazado 177386" d="M16.182,21.488a4.209,4.209,0,0,1,2.922-.175,8.452,8.452,0,0,1,2.678,1.248,7.147,7.147,0,0,1,2.035,2.16,7.467,7.467,0,0,1,1.027,2.667.848.848,0,0,1-1.56.609l-.05-.083a10.432,10.432,0,0,0-1.27-1.839,6.2,6.2,0,0,0-1.617-1.321,7.574,7.574,0,0,0-1.945-.8,8.031,8.031,0,0,1-2.1-.774l-.2-.118a.887.887,0,0,1,.082-1.57" transform="translate(197.453 15.54)" fill="#450d20"/>
        <path id="Trazado_177387" data-name="Trazado 177387" d="M36.215,20.8a4.207,4.207,0,0,0-2.332-1.772,8.509,8.509,0,0,0-2.919-.453,7.156,7.156,0,0,0-2.893.663,7.5,7.5,0,0,0-2.337,1.645.849.849,0,0,0,.958,1.374l.088-.042a10.428,10.428,0,0,1,2.077-.821,6.1,6.1,0,0,1,2.081-.2A7.454,7.454,0,0,1,33,21.61a8.037,8.037,0,0,0,2.18.526l.229.014a.888.888,0,0,0,.807-1.352" transform="translate(168.945 13.654)" fill="#450d20"/>
        <path id="Trazado_177388" data-name="Trazado 177388" d="M31.525,23.879c-.7,1.216-1.314,2.449-1.945,3.661s-1.267,2.417-2,3.521c-.177.279-.363.552-.56.809a3.366,3.366,0,0,0-.635,1.031,2.36,2.36,0,0,0,.592,2.428,2.862,2.862,0,0,0,2.178.791,5.622,5.622,0,0,0,2.07-.515c-1.355.087-2.886.012-3.545-.9a1.4,1.4,0,0,1-.226-1.419,2.6,2.6,0,0,1,.488-.694c.231-.285.444-.578.642-.876a19.215,19.215,0,0,0,1.85-3.8,22.1,22.1,0,0,0,1.093-4.04" transform="translate(172.402 17.558)" fill="#450d20"/>
        <path id="Trazado_177389" data-name="Trazado 177389" d="M13.179,34.83a15.218,15.218,0,0,0-4.107,1.642A11.843,11.843,0,0,0,5.793,39.2l-.743-.914a13.735,13.735,0,0,1,3.51-1.369,5.257,5.257,0,0,1,2.025-.092,2.291,2.291,0,0,1,1.753,1.416,3.44,3.44,0,0,1-.991,3.773A5.006,5.006,0,0,1,7.95,43.4a5.4,5.4,0,0,0,2.87-1.867,2.705,2.705,0,0,0,.519-2.855c-.326-.821-1.418-.8-2.511-.555a15.359,15.359,0,0,0-3.2,1.213l-.031.016a.595.595,0,0,1-.71-.932,10.839,10.839,0,0,1,3.818-2.7,11.1,11.1,0,0,1,4.477-.9" transform="translate(228.116 25.609)" fill="#450d20"/>
        <path id="Trazado_177390" data-name="Trazado 177390" d="M46.341,58.4s-2.417-3.056-5.293-1.121a52.861,52.861,0,0,1-5.732,3.085A2.285,2.285,0,0,1,32.1,57.816l2.329-10.675A11.882,11.882,0,0,0,32.759,38.1c-3.165-4.848-8.9-12.071-15.788-13.66,0,0,.191,3.412,2.282,4.616,0,0-9.671-3.084-12.862-8.048,0,0-3.026,3.589-4.061,5.218,0,0-6.434-12.824,2.077-24.4,0,0,18.26,10.21,26.031,12.022C38,15.607,48.545,24.459,46.634,34.352c0,0,14.63,2.5-.293,24.049" transform="translate(196.448 1.34)" fill="#450d20"/>
        <path id="Trazado_177391" data-name="Trazado 177391" d="M42.615,374.548a2.165,2.165,0,0,1,2.18-.364c13.362,4.682,32.988-3.519,32.988-3.519l.4-.029c-.075-2.829-.939-36.094-1.44-76.927-.106-9.088-.189-23.255-.246-35.313a72.748,72.748,0,0,1,12.766-41.546c13.475-19.616,26.774-38.51,37.88-53.383,8.7-11.672,16.051-20.876,21.073-26.01,9.478-9.705,18.05-18.059,25.6-24.754,12.746,1.312,25.328,3.646,37.913,6.136l2.572,18.4L116.95,247.975,102.183,370.486c.718,5.74,1.732,15.468.809,17.978a4.209,4.209,0,0,1-4.828,2.662L43.54,379.576a2.114,2.114,0,0,1-1.465-1.1,3.025,3.025,0,0,1,.54-3.93" transform="translate(-36.998 82.869)" fill="#f28e6f"/>
        <path id="Trazado_177392" data-name="Trazado 177392" d="M107.015,271.314l4.92,1.171.066.016.352.083.234.05,52.9,12.68a5.2,5.2,0,0,0,6.407-5.086l-.017-1.288V276.9l-.1-17.462-.567-.016-24.638-1-3.111-.134-1.255,3.915s-3.63,7.259-19.368,2.943c-9.317-2.542-13.983-.116-16.223,2.292a7.024,7.024,0,0,0-.685.8,1.961,1.961,0,0,0,1.085,3.078" transform="translate(-105.535 189.913)" fill="#b4cbdd"/>
        <path id="Trazado_177393" data-name="Trazado 177393" d="M105.836,265.062l4.583,1.053L169.6,279.9l.97.217a5.126,5.126,0,0,0,1.053-1.472l-.4-.1-60.5-14.084-3.863-.9a7.574,7.574,0,0,0-.685.8,1.9,1.9,0,0,0-.335.7" transform="translate(-105.777 193.79)" fill="#450d20"/>
        <path id="Trazado_177394" data-name="Trazado 177394" d="M126.621,194.547,90.439,171.785l4.1-5.928Z" transform="translate(-34.06 121.953)" fill="#450d20"/>
        <path id="Trazado_177395" data-name="Trazado 177395" d="M105.649,259.678l24.62,1.007.5-4.123Z" transform="translate(-64.6 188.647)" fill="#450d20"/>
        <path id="Trazado_177396" data-name="Trazado 177396" d="M19.936,197.838c2.4-14.358,4.72-25.906,6.835-32.771,6.395-20.8,12.308-37.481,17.887-48.536l1.312.26c8.378,1.669,16.749,3.3,25.073,5.215,1.284.3,2.537.585,3.781.864l4.513,9.447L73.774,181.1,49.552,277.642l42.933,115.69c3.264,4.775,8.617,12.961,8.945,15.614a4.209,4.209,0,0,1-3.075,4.576L44.5,428.25a2.114,2.114,0,0,1-1.8-.305,3.025,3.025,0,0,1-1.319-3.741,2.167,2.167,0,0,1,1.772-1.322c14.021-1.952,27.721-18.226,27.721-18.226l.338-.206c-1.36-2.48-17.353-31.664-36.484-67.741-5.877-11.1-16.157-30.848-22.147-42.376a32.88,32.88,0,0,1-3.458-19.2c3.45-27.914,7.212-55.767,10.816-77.293" transform="translate(132.64 85.684)" fill="#fa9778"/>
        <path id="Trazado_177397" data-name="Trazado 177397" d="M7.963,313.339a1.923,1.923,0,0,0,.167,1.071,1.947,1.947,0,0,0,2.31,1.036l57.638-17.06a5.2,5.2,0,0,0,3.7-5.537,4.756,4.756,0,0,0-.451-1.605c-.068-.151-.151-.318-.234-.469L60.6,272.829l-1.22.635L37.451,284.955l-1.956,1.02.869,4.014s.184,3.078-3.4,6.407a7.088,7.088,0,0,1-.534.484c-2.259,1.924-5.8,3.882-11.39,5.336-9.669,2.542-12.362,7.193-12.963,10.438-.05.234-.085.469-.118.685" transform="translate(163.906 200.608)" fill="#b4cbdd"/>
        <path id="Trazado_177398" data-name="Trazado 177398" d="M7.979,305.536a1.923,1.923,0,0,0,.167,1.071l3.58-1.222h.017l58.307-19.753,1.739-.587a4.755,4.755,0,0,0-.451-1.605l-1.89.635L10.355,304.1l-2.258.753c-.05.234-.085.469-.118.685" transform="translate(163.89 208.411)" fill="#450d20"/>
        <path id="Trazado_177399" data-name="Trazado 177399" d="M35.308,188.948l-1.242,9.343,45.624-6.542Z" transform="translate(110.694 138.932)" fill="#450d20"/>
        <path id="Trazado_177400" data-name="Trazado 177400" d="M15.1,286.28,37.044,274.8l-1.4-3.774Z" transform="translate(186.249 199.28)" fill="#450d20"/>
        <path id="Trazado_177401" data-name="Trazado 177401" d="M21.679,201.162l1.088-1.3L82.612,128.4a.016.016,0,0,1,.017-.016.283.283,0,0,1,.066-.085,10.809,10.809,0,0,1,1.539-1.839l3.948-3.646,1.3-1.189,15.822-14.568,5.621,1.472,1.739.451,52.185,13.632,1.622.436,4.014,1.053,1.657.436,7.392,1.923s5.754,31.964-22.212,119.173c-.184.554-.352,1.105-.536,1.657-.5,1.537-1,3.094-1.522,4.666l-48.807-2.927.569-4.566.217-1.657,8.1-64.027s-1.22-.92-3.195-2.542L63.293,234.18l-1.086,1.27-4.149,4.935L18.467,204.992Z" transform="translate(37.423 78.721)" fill="#69ceff"/>
        <path id="Trazado_177402" data-name="Trazado 177402" d="M71.385,158.555l.4-1.624c-.115-.028-11.524-2.96-22.259-14.944L48.283,143.1c11.1,12.393,22.618,15.333,23.1,15.453" transform="translate(93.927 104.401)" fill="#450d20"/>
        <rect id="Rectángulo_44640" data-name="Rectángulo 44640" width="1.673" height="67.554" transform="translate(100.11 303.316) rotate(-138.901)" fill="#450d20"/>
        <path id="Trazado_177403" data-name="Trazado 177403" d="M23.009,231.39l1.59.5c17.9-56.885,19.637-102.681,19.77-114.572l-1.657-.436c-.016,3.613-.2,10.922-1.069,21.125-.05.552-.1,1.1-.151,1.671a438.8,438.8,0,0,1-18.483,91.71" transform="translate(165.202 85.943)" fill="#450d20"/>
        <path id="Trazado_177404" data-name="Trazado 177404" d="M57.285,122.193a9.019,9.019,0,0,0,4.651,1.288,10.416,10.416,0,0,0,1.89-.184c7.977-1.454,15.638-11.64,17.946-14.936l-1.739-.451c-2.577,3.563-9.6,12.477-16.51,13.749a7.5,7.5,0,0,1-4.933-.652Z" transform="translate(68.32 79.345)" fill="#450d20"/>
        <path id="Trazado_177405" data-name="Trazado 177405" d="M26,136.9a7.036,7.036,0,0,0,5.051,3.412,2.5,2.5,0,0,0,.351.068l.234-1.655a3.26,3.26,0,0,1-.434-.085,5.46,5.46,0,0,1-3.781-2.608c-3.144-5.2-.267-15.958.836-19.571l-1.622-.434C25.449,119.889,22.471,131.1,26,136.9" transform="translate(175.642 85.313)" fill="#450d20"/>
        <path id="Trazado_177406" data-name="Trazado 177406" d="M31.549,186.945l49.759,2.827c.184-.552.352-1.1.536-1.655L31.766,185.29Z" transform="translate(112.907 136.242)" fill="#450d20"/>
        <path id="Trazado_177407" data-name="Trazado 177407" d="M85.739,161.842l40.528,34.288,1.086-1.27L86.827,160.537Z" transform="translate(-26.637 118.041)" fill="#450d20"/>
      </g>
    </g>
    <g id="Grupo_173487" data-name="Grupo 173487" transform="translate(944.326 2705)">
      <rect id="Rectángulo_44603" data-name="Rectángulo 44603" width="158" height="44" rx="22" transform="translate(249 1942)" fill="#3c3fa7"/>
      <path id="Trazado_177689" data-name="Trazado 177689" d="M31.331,22.271a1.666,1.666,0,0,1,.081-.483,1.83,1.83,0,0,1,.227-.483A1.451,1.451,0,0,1,32,20.931a.792.792,0,0,1,.476-.154.976.976,0,0,1,.535.154,2.716,2.716,0,0,1,.461.374,5.43,5.43,0,0,1,.432.491,3.678,3.678,0,0,0,.461.491,2.582,2.582,0,0,0,.557.374,1.518,1.518,0,0,0,.688.154,1.45,1.45,0,0,0,1.15-.542,4.134,4.134,0,0,0,.747-1.436,11.128,11.128,0,0,0,.425-2.051q.139-1.157.2-2.388t.059-2.439v-3.1q0-.6-.007-1.392t-.044-1.692q-.037-.9-.11-1.78a5.961,5.961,0,0,0-.11-.754,1.088,1.088,0,0,0-.205-.454.687.687,0,0,0-.381-.227,2.717,2.717,0,0,0-.623-.059h-.293q-.161,0-.337.015-.615.029-1.143.051t-.908.022a.954.954,0,0,1-.564-.227,2.672,2.672,0,0,1-.542-.557,3.681,3.681,0,0,1-.4-.7,1.662,1.662,0,0,1-.161-.659.526.526,0,0,1,.088-.322.65.65,0,0,1,.234-.19.983.983,0,0,1,.315-.1,2.547,2.547,0,0,1,.33-.022q1.04,0,2.2-.081t2.351-.176q1.194-.1,2.388-.176t2.307-.081a2.846,2.846,0,0,1,.718.1,2.492,2.492,0,0,1,.659.271,1.653,1.653,0,0,1,.483.432.946.946,0,0,1,.19.579q0,.22-.015.5a2.057,2.057,0,0,1-.1.527,1.194,1.194,0,0,1-.234.425.526.526,0,0,1-.417.176,4.261,4.261,0,0,1-.791-.081,4.261,4.261,0,0,0-.791-.081,2.445,2.445,0,0,0-.806.11.961.961,0,0,0-.461.315,1.01,1.01,0,0,0-.19.483,2.375,2.375,0,0,0,.007.615q.117,1.069.22,2.234t.176,2.256q.073,1.091.11,2.051t.037,1.648a42.016,42.016,0,0,1-.242,4.709,13.15,13.15,0,0,1-.894,3.662,5.63,5.63,0,0,1-1.78,2.373,4.719,4.719,0,0,1-2.9.842,4.278,4.278,0,0,1-1.4-.256,5.58,5.58,0,0,1-1.362-.688,4.271,4.271,0,0,1-1.04-1.011A2.056,2.056,0,0,1,31.331,22.271ZM47.283,10.963a3.6,3.6,0,0,1,2.014.579,5.219,5.219,0,0,1,1.509,1.523,7.485,7.485,0,0,1,.952,2.131,8.99,8.99,0,0,1,.33,2.417,7.437,7.437,0,0,1-.469,2.7,6.739,6.739,0,0,1-1.238,2.08,5.531,5.531,0,0,1-1.772,1.34,4.752,4.752,0,0,1-2.058.476,3.39,3.39,0,0,1-1.89-.505,3.972,3.972,0,0,1-1.252-1.3,5.786,5.786,0,0,1-.688-1.765,8.957,8.957,0,0,1-.212-1.912,10.024,10.024,0,0,1,.168-1.8,11.223,11.223,0,0,1,.476-1.78,10.381,10.381,0,0,1,.74-1.619,6.978,6.978,0,0,1,.967-1.333,4.473,4.473,0,0,1,1.15-.9A2.665,2.665,0,0,1,47.283,10.963Zm.249,2.783a1,1,0,0,0-.725.461,4.895,4.895,0,0,0-.681,1.2,9.5,9.5,0,0,0-.505,1.67,8.958,8.958,0,0,0-.2,1.868q0,.146.015.571a4.378,4.378,0,0,0,.125.879,2.249,2.249,0,0,0,.366.806.845.845,0,0,0,.725.352,1.432,1.432,0,0,0,.923-.381,3.824,3.824,0,0,0,.813-.981,5.751,5.751,0,0,0,.579-1.362,5.474,5.474,0,0,0,.22-1.523q0-.249-.015-.615a7.153,7.153,0,0,0-.073-.762,6.225,6.225,0,0,0-.168-.784,3.039,3.039,0,0,0-.293-.7,1.571,1.571,0,0,0-.454-.505A1.1,1.1,0,0,0,47.532,13.746Zm5.537.483a2.366,2.366,0,0,1,.117-.667,3.058,3.058,0,0,1,.337-.74,2.278,2.278,0,0,1,.542-.6,1.281,1.281,0,0,1,1.34-.11.874.874,0,0,1,.344.4,1.96,1.96,0,0,1,.146.645q.029.381.029.85,0,.894.278.894.146,0,.293-.22l.615-.923a6.833,6.833,0,0,1,.82-1,4.693,4.693,0,0,1,1.077-.813,2.838,2.838,0,0,1,1.4-.337,2.087,2.087,0,0,1,1.274.359,2.236,2.236,0,0,1,.74,1.025,5.43,5.43,0,0,1,.315,1.6,15.051,15.051,0,0,1-.029,2.08q-.073.981-.088,2.5t.117,3.75a1.776,1.776,0,0,1-.022.417,1.4,1.4,0,0,1-.139.425,1.123,1.123,0,0,1-.264.337.605.605,0,0,1-.41.139,1.667,1.667,0,0,1-1.208-.417,2.621,2.621,0,0,1-.645-1,4.534,4.534,0,0,1-.264-1.187q-.051-.608-.051-.974,0-.645.051-1.157t.1-1q.051-.483.1-.959a9.677,9.677,0,0,0,.051-1.033A6.734,6.734,0,0,0,60,15.746a2,2,0,0,0-.1-.469.5.5,0,0,0-.146-.227.265.265,0,0,0-.154-.059,1,1,0,0,0-.579.337,7.547,7.547,0,0,0-.769.864q-.41.527-.835,1.165t-.776,1.223a3.393,3.393,0,0,0-.256.586q-.1.293-.125.425a4.825,4.825,0,0,0-.044.725v.945q0,.5-.022,1a5.027,5.027,0,0,1-.117.916,1.957,1.957,0,0,1-.271.667.569.569,0,0,1-.5.256h-.293a1.356,1.356,0,0,1-.439-.081,2.259,2.259,0,0,1-.439-.205,2.16,2.16,0,0,1-.374-.286,1.069,1.069,0,0,1-.242-.322,4.325,4.325,0,0,1-.242-.974q-.1-.623-.154-1.4T53.054,19.2q-.015-.864-.015-1.685,0-1.025.015-1.9T53.069,14.229Zm20.7,8a3.4,3.4,0,0,1,.044,1.025,2.047,2.047,0,0,1-.212.718,1.074,1.074,0,0,1-.388.417.96.96,0,0,1-.5.139.871.871,0,0,1-.608-.234,2.016,2.016,0,0,1-.432-.579,4.247,4.247,0,0,1-.293-.747q-.117-.4-.205-.747t-.154-.579q-.066-.234-.154-.234a.589.589,0,0,0-.388.212,5.634,5.634,0,0,0-.461.535q-.249.322-.549.7a5.324,5.324,0,0,1-.674.7,3.586,3.586,0,0,1-.828.535,2.322,2.322,0,0,1-1,.212,2.4,2.4,0,0,1-1.362-.41,3.667,3.667,0,0,1-1.055-1.1,5.673,5.673,0,0,1-.681-1.582,7.094,7.094,0,0,1-.242-1.86,9.246,9.246,0,0,1,.19-1.794,11.857,11.857,0,0,1,.549-1.9,10.556,10.556,0,0,1,.894-1.809,7.76,7.76,0,0,1,1.23-1.531,5.7,5.7,0,0,1,1.545-1.062,4.319,4.319,0,0,1,1.846-.4,3.329,3.329,0,0,1,1.406.271,2.878,2.878,0,0,1,.989.74,3.7,3.7,0,0,1,.645,1.1A7.54,7.54,0,0,1,73.3,14.31a12.262,12.262,0,0,1,.176,1.5q.044.776.044,1.538t.022,1.479q.022.732.051,1.384t.081,1.172Q73.723,21.905,73.767,22.228Zm-7.222-2.314A2.026,2.026,0,0,0,66.787,21q.242.381.447.381a1.325,1.325,0,0,0,.791-.293,4.258,4.258,0,0,0,.776-.769,7.67,7.67,0,0,0,.71-1.069,11.634,11.634,0,0,0,.579-1.194,9.61,9.61,0,0,0,.4-1.135,3.52,3.52,0,0,0,.146-.9q0-.015-.007-.161t-.037-.359q-.029-.212-.088-.461a1.932,1.932,0,0,0-.176-.469,1.125,1.125,0,0,0-.293-.359.663.663,0,0,0-.425-.139,1.185,1.185,0,0,0-.754.308,3.7,3.7,0,0,0-.71.813,8.53,8.53,0,0,0-.63,1.135,11.444,11.444,0,0,0-.505,1.282,11.562,11.562,0,0,0-.337,1.26A5.334,5.334,0,0,0,66.545,19.913ZM73.137,9.7a.764.764,0,0,1,.146-.454,1.706,1.706,0,0,1,.4-.388,3.817,3.817,0,0,1,.6-.344q.344-.161.74-.322a1.25,1.25,0,0,0,.425-.271.871.871,0,0,0,.176-.535q.029-.557.088-1.179t.139-1.223q.081-.6.2-1.143a8.065,8.065,0,0,1,.264-.959,2.3,2.3,0,0,1,.337-.659.531.531,0,0,1,.41-.242,1.583,1.583,0,0,1,.439.073,1.811,1.811,0,0,1,.483.227,1.49,1.49,0,0,1,.41.41,1.354,1.354,0,0,1,.22.608q.015.117.022.483t.007.857q0,.491-.022,1.062t-.066,1.113q-.015.161-.022.278a.557.557,0,0,0,.015.19.176.176,0,0,0,.1.11.556.556,0,0,0,.234.037,3.819,3.819,0,0,0,.549-.044,2.043,2.043,0,0,0,.557-.161,1.24,1.24,0,0,0,.432-.322.823.823,0,0,0,.19-.513q.044-1.128.1-2.095t.139-1.714q.081-.747.168-1.223a1.473,1.473,0,0,1,.19-.593,1.219,1.219,0,0,1,.381-.227A1.727,1.727,0,0,1,82.307.4a1.126,1.126,0,0,1,.923.374,2.114,2.114,0,0,1,.425.9,5.085,5.085,0,0,1,.117,1.106v.974q0,.4-.007.886t-.022,1.047a7.564,7.564,0,0,0,.007.762.75.75,0,0,0,.227.505,1.314,1.314,0,0,0,.674.286,7.924,7.924,0,0,0,1.362.088h.645q.527,0,1.238.029a8.777,8.777,0,0,1,1.34.154,3.566,3.566,0,0,1,1.069.374.763.763,0,0,1,.439.688.9.9,0,0,1-.2.564,1.533,1.533,0,0,1-.623.439,4.563,4.563,0,0,1-1.106.286,11.165,11.165,0,0,1-1.633.1q-.205,0-.813.022t-1.414.022a3.218,3.218,0,0,0-.557.044.757.757,0,0,0-.425.227,1.3,1.3,0,0,0-.278.571,4.821,4.821,0,0,0-.117,1.077q-.029,1-.015,1.809t.044,1.326q.044.586.249.586t.425-.483q.22-.454.535-1.113a8.138,8.138,0,0,1,.762-1.274,4.634,4.634,0,0,1,1.047-1.047A2.321,2.321,0,0,1,88.02,11.3a2.451,2.451,0,0,1,1.223.293,2.67,2.67,0,0,1,.864.769,3.253,3.253,0,0,1,.505,1.084,4.811,4.811,0,0,1,.161,1.238q0,1.2-.051,2.3t-.117,2.183q-.066,1.084-.117,2.19t-.051,2.307q0,.454-.264.564a1.677,1.677,0,0,1-.645.11,2.1,2.1,0,0,1-1.2-.278,1.4,1.4,0,0,1-.542-.769,3.713,3.713,0,0,1-.132-1.143q.015-.652.015-1.4,0-.542.022-1.172t.051-1.26q.029-.63.051-1.216t.015-1.033a6.152,6.152,0,0,0-.044-.71q-.037-.264-.139-.264a1,1,0,0,0-.593.337,6.413,6.413,0,0,0-.776.916,14.763,14.763,0,0,0-.864,1.37q-.447.791-.864,1.692t-.784,1.868a18.965,18.965,0,0,0-.615,1.919,2.044,2.044,0,0,1-.4.747.935.935,0,0,1-.762.337,1.268,1.268,0,0,1-.9-.308,1.944,1.944,0,0,1-.5-.769,3.8,3.8,0,0,1-.212-1q-.044-.535-.044-.974,0-.308.022-1.238t.044-2.263q.022-1.333.044-2.959t.022-3.311a1.33,1.33,0,0,0-.081-.447,1.411,1.411,0,0,0-.234-.417,1.155,1.155,0,0,0-.388-.308,1.232,1.232,0,0,0-.557-.117h-.146q-.6.059-.645.82-.1,1.6-.154,3.164t-.037,3q.015,1.436.11,2.688a21.082,21.082,0,0,0,.271,2.2q.132.63.286,1.128a8.422,8.422,0,0,1,.227.879,1.312,1.312,0,0,1-.015.652.847.847,0,0,1-.439.461,1.273,1.273,0,0,1-.571.146,1.251,1.251,0,0,1-.725-.227,2.9,2.9,0,0,1-.586-.535,4.056,4.056,0,0,1-.425-.608q-.168-.3-.227-.432a6.174,6.174,0,0,1-.388-1.428q-.154-.9-.242-2.014t-.125-2.344q-.037-1.23-.037-2.424t.029-2.256q.029-1.062.073-1.809a2.192,2.192,0,0,0,.015-.41q-.015-.073-.322-.073h-.352a2.035,2.035,0,0,1-1.187-.308A.9.9,0,0,1,73.137,9.7Zm28.7,12.524a3.4,3.4,0,0,1,.044,1.025,2.047,2.047,0,0,1-.212.718,1.074,1.074,0,0,1-.388.417.96.96,0,0,1-.5.139.871.871,0,0,1-.608-.234,2.016,2.016,0,0,1-.432-.579,4.247,4.247,0,0,1-.293-.747q-.117-.4-.205-.747t-.154-.579q-.066-.234-.154-.234a.589.589,0,0,0-.388.212,5.634,5.634,0,0,0-.461.535q-.249.322-.549.7a5.324,5.324,0,0,1-.674.7,3.586,3.586,0,0,1-.828.535,2.322,2.322,0,0,1-1,.212,2.4,2.4,0,0,1-1.362-.41,3.667,3.667,0,0,1-1.055-1.1,5.673,5.673,0,0,1-.681-1.582,7.094,7.094,0,0,1-.242-1.86,9.246,9.246,0,0,1,.19-1.794,11.857,11.857,0,0,1,.549-1.9,10.556,10.556,0,0,1,.894-1.809,7.76,7.76,0,0,1,1.23-1.531,5.7,5.7,0,0,1,1.545-1.062,4.319,4.319,0,0,1,1.846-.4,3.329,3.329,0,0,1,1.406.271,2.878,2.878,0,0,1,.989.74,3.7,3.7,0,0,1,.645,1.1,7.54,7.54,0,0,1,.374,1.355,12.262,12.262,0,0,1,.176,1.5q.044.776.044,1.538t.022,1.479q.022.732.051,1.384t.081,1.172Q101.79,21.905,101.833,22.228Zm-7.222-2.314A2.026,2.026,0,0,0,94.854,21q.242.381.447.381a1.325,1.325,0,0,0,.791-.293,4.258,4.258,0,0,0,.776-.769,7.67,7.67,0,0,0,.71-1.069,11.634,11.634,0,0,0,.579-1.194,9.61,9.61,0,0,0,.4-1.135,3.52,3.52,0,0,0,.146-.9q0-.015-.007-.161t-.037-.359q-.029-.212-.088-.461a1.932,1.932,0,0,0-.176-.469,1.125,1.125,0,0,0-.293-.359.663.663,0,0,0-.425-.139,1.185,1.185,0,0,0-.754.308,3.7,3.7,0,0,0-.71.813,8.53,8.53,0,0,0-.63,1.135,11.444,11.444,0,0,0-.505,1.282,11.562,11.562,0,0,0-.337,1.26A5.334,5.334,0,0,0,94.612,19.913Zm8.262-5.684a2.366,2.366,0,0,1,.117-.667,3.058,3.058,0,0,1,.337-.74,2.278,2.278,0,0,1,.542-.6,1.281,1.281,0,0,1,1.34-.11.874.874,0,0,1,.344.4,1.96,1.96,0,0,1,.146.645q.029.381.029.85,0,.894.278.894.146,0,.293-.22l.615-.923a6.833,6.833,0,0,1,.82-1,4.693,4.693,0,0,1,1.077-.813,2.838,2.838,0,0,1,1.4-.337,2.087,2.087,0,0,1,1.274.359,2.236,2.236,0,0,1,.74,1.025,5.43,5.43,0,0,1,.315,1.6,15.051,15.051,0,0,1-.029,2.08q-.073.981-.088,2.5t.117,3.75a1.776,1.776,0,0,1-.022.417,1.4,1.4,0,0,1-.139.425,1.123,1.123,0,0,1-.264.337.605.605,0,0,1-.41.139,1.667,1.667,0,0,1-1.208-.417,2.621,2.621,0,0,1-.645-1,4.534,4.534,0,0,1-.264-1.187q-.051-.608-.051-.974,0-.645.051-1.157t.1-1q.051-.483.1-.959a9.677,9.677,0,0,0,.051-1.033,6.734,6.734,0,0,0-.037-.784,2,2,0,0,0-.1-.469.5.5,0,0,0-.146-.227.265.265,0,0,0-.154-.059,1,1,0,0,0-.579.337,7.547,7.547,0,0,0-.769.864q-.41.527-.835,1.165t-.776,1.223a3.393,3.393,0,0,0-.256.586q-.1.293-.125.425a4.825,4.825,0,0,0-.044.725v.945q0,.5-.022,1a5.027,5.027,0,0,1-.117.916,1.957,1.957,0,0,1-.271.667.569.569,0,0,1-.5.256h-.293a1.356,1.356,0,0,1-.439-.081,2.259,2.259,0,0,1-.439-.205,2.16,2.16,0,0,1-.374-.286,1.069,1.069,0,0,1-.242-.322,4.325,4.325,0,0,1-.242-.974q-.1-.623-.154-1.4t-.073-1.641q-.015-.864-.015-1.685,0-1.025.015-1.9T102.874,14.229Z" transform="translate(255 1948)" fill="#ffd947"/>
    </g>
  </g>
</svg>
