<svg id="Grupo_173599" data-name="Grupo 173599" xmlns="http://www.w3.org/2000/svg" xmlns:xlink="http://www.w3.org/1999/xlink" width="97.59" height="121.171" viewBox="0 0 97.59 121.171">
  <defs>
    <clipPath id="clip-path">
      <rect id="Rectángulo_44674" data-name="Rectángulo 44674" width="97.59" height="121.171" fill="none"/>
    </clipPath>
  </defs>
  <g id="Grupo_173591" data-name="Grupo 173591" clip-path="url(#clip-path)">
    <path id="Trazado_177736" data-name="Trazado 177736" d="M37.435,157.285h0l.02.086h0l-.02-.085" transform="translate(-18.292 -76.854)"/>
    <path id="Trazado_177737" data-name="Trazado 177737" d="M96.845,38.277a6.2,6.2,0,0,1-.873-3.611,26.217,26.217,0,0,0-5.014-16.3C81.393,5.495,68.477-.314,52.444.013A22.134,22.134,0,0,0,40.827,3.535c-9.075,5.645-14.46,14.18-18.176,23.944a8.4,8.4,0,0,1-1.117,2.54c-3.89,4.8-5.5,10.062-3.076,16.072a3.041,3.041,0,0,1-.169,1.973C17.1,53.22,16.093,58.4,16.7,63.729c.168,1.461-.775,1.652-1.686,2.1A25.535,25.535,0,0,0,.6,83.815C-3.141,99.77,11.114,116.7,28,116.2a4.411,4.411,0,0,1,3.117.624c4.424,3.26,9.5,4.415,15.509,4.269,4.415.451,9.119-1.061,13.618-2.777,9.309-3.552,15.7-10.326,19.306-19.572,2.167-5.549,2.324-11.169-.952-16.447-.766-1.233-.255-1.974.32-2.957,3.912-6.691,7.573-13.509,10-20.909A2.84,2.84,0,0,1,91.141,56.4c1.959-.593,3.961-1.509,4.469-3.873.66-3.074,1.335-6.152,1.8-9.258a7.248,7.248,0,0,0-.567-4.992M70.931,5.511a.113.113,0,0,1,.094-.032c.135,0,.374.068.538.084h0a41.773,41.773,0,0,1,13.917,9.463,36.782,36.782,0,0,1,2.575,3.022A28.142,28.142,0,0,1,93.829,33.3c.176,2.3-.754,2.427-2.436,1.63-4.019-1.9-7.987-3.942-12.42-4.757-1.132-.208-.861-1.033-.874-1.773-.045-2.55.042-5.114-.2-7.646A25.052,25.052,0,0,0,71.233,5.928c-.172-.1-.5-.137-.3-.417M48.609,2.78C62.446-1.372,74.995,7.6,75.945,22.023a33.031,33.031,0,0,1,.02,6.375c-.112.879.127,2.224-1.017,2.319-1.38.115-1.233-1.388-1.464-2.284a29.8,29.8,0,0,0-6.4-12.579c-5.651-6.43-17.6-7.9-25.463-4.1-6.88,3.328-11.6,8.755-15.3,15.243-.4.7-.493,1.657-1.443,1.975-.089-.165-.265-.344-.229-.444C29.019,16.583,35.694,6.654,48.609,2.78m24.709,49.6a1.469,1.469,0,0,1,.3,1.791,69.27,69.27,0,0,1-6.651,13.393c-.567.883-1.051.992-2.047.652a28.322,28.322,0,0,0-18.274.183,3.025,3.025,0,0,1-3.046-.432,19.132,19.132,0,0,0-8.043-3.692c-2.791-.442-3.363-1.993-3.365-4.3q0-1.021,0-2.041l-.074,0c.073-1.1.209-2.2.2-3.305-.01-2.5.325-4.677,3.509-4.921a1.847,1.847,0,0,0,1.246-.813c2.116-3.656,4.654-7.1,5.734-11.284a6.525,6.525,0,0,1,.263-1.477C47.008,29.062,51.87,22.761,58.867,18.5c3.348-2.04,6.8-2.522,9.434,2.655a39.979,39.979,0,0,1,2.712,6.3c.679,2.2,1,4.1-.371,6.431C68.163,38.1,69.953,48.8,73.318,52.379M28.336,28.029c-.2-.836.682-2.471,2.457-.973A8.9,8.9,0,0,0,32.205,28.1a2.725,2.725,0,0,0,2.313.248l-.029-.03.03.006a3.74,3.74,0,0,0-1.852-1.12A6.941,6.941,0,0,1,32,26.917c-1.942-.979-2.268-1.905-.746-3.75.806-.977,1.294-.733,1.75-.36.091.075.181.154.272.231a1.993,1.993,0,0,0,.423.29.923.923,0,0,0,.152.056l.381-.413c-.281-.707-1.724-.965-1.041-1.96a7.065,7.065,0,0,1,2.661-2.567c.462-.2.6.483.9,1.051a2.023,2.023,0,0,0,.209.32.94.94,0,0,0,.6.358c0-.009,0-.017,0-.027l.031,0c-.11-.529-.259-1.06-.331-1.568a4.033,4.033,0,0,1-.042-.5,2.46,2.46,0,0,1,.049-.558,2.326,2.326,0,0,1,1.569-1.635c1.166-.506,2.027-1.352,2.336.7.064.421.574.774.879,1.159l.679-.4c-.079-.111-.164-.227-.251-.344-.131-.176-.265-.357-.39-.542a4.45,4.45,0,0,1-.329-.56,2.257,2.257,0,0,1-.144-.377,1.178,1.178,0,0,1,.205-1.1c.876-1.113,2.514-1.354,3.906-1.681.773-.182.688.778.971,1.248.455.755.323,1.977,1.584,2.109.01-.014.014-.025.024-.04l.022,0c-.076-.3-.155-.6-.227-.9-.238-.995-1.7-2.184-.149-2.934,1.21-.586,3.053-1.01,3.265,1.452a.563.563,0,0,0,.126.322.374.374,0,0,0,.181.116.41.41,0,0,0,.117.014l.021,0a.624.624,0,0,0,.211-.06c.005-.018.007-.034.012-.053.012,0,.02.007.032.009a2.932,2.932,0,0,1,.03-1.9.821.821,0,0,1,.434-.368,1.434,1.434,0,0,1,.463-.084,4.608,4.608,0,0,1,1.4.237c1.454.431,3.066.322,4.579.833a1.875,1.875,0,0,1,1.29,2.562,1.469,1.469,0,0,1-2.445.57c-.349-.331-.73-.661-.747.082-.034,1.489-.436,1.936-1,1.927a1.7,1.7,0,0,1-.51-.1,13.674,13.674,0,0,1-1.45-.694c0,.01,0,.018,0,.028l-.014,0a3.293,3.293,0,0,1,.176,1.5,1.722,1.722,0,0,1-.109.388,1.49,1.49,0,0,1-.219.365,2.644,2.644,0,0,1-1.877.792l0,.029c-.018,0-.03,0-.048,0-.34,1.617-1.54,2.523-2.7,3.473a7.907,7.907,0,0,0-1.85,1.937c-.277.457-1.121-.444-1.711-.7-.821-.358-1.4-1.22-2.41-1.185l.03.04-.021,0c.246,1.416,1.739,1.428,2.548,2.214.342.332.954.49.519,1.152-.345.526-.7.921-1.43.534-.788-.418-1.623-.747-2.726-1.246.122,1.106.857,1.064,1.216,1.387.516.464,1.944.346,1.149,1.648-.556.912-1.109,1.94-2.565,1.29-.7-.314-1.444-.913-2.316-.371.016.017.033.032.049.049L39.6,30.4a.457.457,0,0,0,.053.205c.732.968,2.811.231,2.788,1.818-.014,1.021-1.647,1.616-1.491,3.075.064.6-.758.581-1.223.388-3.935-1.635-8.244-2.057-12.153-3.8-1.282-.571-.957-1.612-.368-1.887,1.115-.521,1.464-.76,1.133-2.169m-3.772,1.262.346.348-.384.64c-.1-.118-.314-.263-.293-.35a2.807,2.807,0,0,1,.331-.638m-3.143,4.233c.348-.66.558-1.858,2.011-1.091,4.688,2.475,9.88,3.585,14.875,5.219,1.671.547,2.274,1.114,1.186,2.755-1.265,1.91-2.324,3.959-3.614,5.851a5.1,5.1,0,0,1-4.823,2.126,52.109,52.109,0,0,1-9.821-2.938,3,3,0,0,1-1.9-3.054,21.755,21.755,0,0,1,2.083-8.868M20.3,48.744c.207-.777.458-1.181,1.382-.942.954.246,1.249.648.9,1.612-.362,1.013-.588,2.076-.966,3.457.516-.368.758-.455.856-.625.664-1.148.378-3.417,1.626-3.453,1.936-.056,3.908.937,5.852,1.529.811.246.515.948.476,1.51A48.026,48.026,0,0,0,30.3,61.75c.179,1.309-.511,1.325-1.464,1.345-1.932.04-3.874-.262-5.794.332-1.381.426-1.238-.7-1.271-1.515-.1-2.511.063-5.017.118-7.545a18.238,18.238,0,0,0-.934,7.562c.042,1.087.248,2.136-1.285,2.155-1.484.018-.862-1.229-.929-1.886A37.335,37.335,0,0,1,20.3,48.744M6.8,76.457c1.76-4.414,5.132-6.888,9.167-8.675,9.042-4.006,17.8-3.366,26.649,2.034a38.842,38.842,0,0,0-7.814,5.142c-.377.345-.821.841-1.312.493-2.7-1.913-5.806-.9-8.565-.777-4.256.194-7.37,3.056-8.993,6.991a13.535,13.535,0,0,0,.731,12.774c1.741,3.064,3.558,5.352,6.587,6.841.794.39.613,1.156.7,1.788a25.191,25.191,0,0,0,2.217,8.015,23.251,23.251,0,0,1-12.747-5.638C5.437,98.381,2.842,86.392,6.8,76.457M29.92,78.723a11.184,11.184,0,0,0-4.526-.344q-.353.045-.7.111a15.527,15.527,0,0,0-4.75,1.826c-.24.128-.442.524-.751.167l-.008.011-.02.02q.035.146.068.294l-.346-.018.278-.275-.02-.085h0a.556.556,0,0,0,.048.053l.422-.577c2.925-3.319,6.6-4.133,10.759-3.12.513.125,1.861-.176,1.4,1.171-.28.823-.954,1.022-1.855.766m.013,1.473c-1.767,2.8-3.668,5.5-4.759,8.654q-.206.6-.367,1.2-.142.528-.253,1.06a67.044,67.044,0,0,0-.864,7.538h0c-3.37-.426-6.1-5.04-6.685-9.171,0-.006,0-.012,0-.018a11.243,11.243,0,0,1-.114-1.709v0c0-.159.009-.316.019-.471a7.311,7.311,0,0,1,.205-1.326C18.223,81.6,24.856,78,29.934,80.2M7.944,104.427C2.48,97.431.632,87.846,3.786,81.5c.121,4.042-.08,7.739.782,11.374a25.761,25.761,0,0,0,4.644,10.1,27,27,0,0,0,8.439,6.855c3.188,1.781,7.075,1.676,10.811,3.781-6.431,1.372-15.7-3.014-20.517-9.186M76.9,96.036a15.647,15.647,0,0,1-2.262,6.714,33.279,33.279,0,0,1-14.576,13.5c-5.126,2.6-10.557,3.107-16.192,2.7-4.276-.311-8.576-1.169-11.344-4.412-3.4-3.977-4.556-9.061-4.251-14.363.034-.591.057-1.183.05-1.775,0-.153-.135-.3-.478-1.02-1.2,3.991-.287,7.479-.157,11.01-1.413-1.838-1.645-4.031-1.809-6.19C24.793,87.9,31.594,77.949,43.8,71.7A24.758,24.758,0,0,1,63.13,69.87c.58.191,1.583.166,1.455,1.037-.139.948-1.028.952-1.84.775C49.625,68.826,31.633,82.66,28.336,94.638c-.147.536-1.151,1.3-.079,1.657.907.306.866-.849,1.1-1.4,4.5-10.585,12.355-17.528,23.129-21.252a19.568,19.568,0,0,1,9.083-.866c.381.051.943-.083,1.071.449.151.627-.423.771-.821,1.075-1.328,1.017-2.717-.015-4.1.206a32.234,32.234,0,0,0-14.156,6.1A43.67,43.67,0,0,0,34.349,89.4c-1.38,1.83-2.39,3.775-2.1,6.228a3.742,3.742,0,0,0,2.2,3.185,3.337,3.337,0,0,0,3.819-.571c1.045-.987,1.94-2.135,2.887-3.224,5.392-6.2,11.711-10.879,20.065-12.186,8.546-1.337,16.141,5.05,15.683,13.2m1.962-4.008a33.567,33.567,0,0,0-1.737-3.975c-3.3-5.4-8.4-7.512-14.481-7.416-7.718.122-13.72,4.07-19.115,9.113-2.3,2.145-4.147,4.753-6.728,6.61-.452.326-1.007.808-1.529.221-.122-.137.269-.73.424-1.113l-.449-.44a.894.894,0,0,1-.644.257.252.252,0,0,1-.135-.082.844.844,0,0,1-.109-.593,6.193,6.193,0,0,1,1.488-3.462C41.513,84.115,48.1,78.429,57.339,76.713a4.953,4.953,0,0,1,1.751-.25c3.508.722,5.359-1.235,7.125-3.885,3.778-5.665,7.362-11.4,9.465-17.939a3,3,0,0,1,4.457-1.112c.657.628-.02,1.089-.16,1.577a71.87,71.87,0,0,1-9.362,19.388c-.958,1.469-.978,2.132.849,2.43a9.372,9.372,0,0,1,1.441.464c2.284.77,3.945,1.871,2.5,4.613l.012,0c0,.019,0,.038,0,.057l.342-.028-.337.4,0,.1a1.2,1.2,0,0,1-.129.1c-.323.71.48.816.8,1.132,2.53,2.529,3.067,3.969,2.764,8.255m7.784-33.614a115.576,115.576,0,0,1-9.013,18.831c-.6,1.047-.989,1.252-2.081.559a40.463,40.463,0,0,0-4.587-2.18A95.8,95.8,0,0,0,79.084,60.31a40.005,40.005,0,0,0,1.486-4.062c.385-1.331-.008-3.169,2.534-2.257,3.429,1.23,4.33,2.171,3.54,4.422m8.408-12.658c-.375,2.5-1.321,4.91-1.848,7.395-.22,1.038-.849,1.127-1.6,1.258a7.119,7.119,0,0,1-4.637-1.05A23.47,23.47,0,0,0,75.915,50.8a2.579,2.579,0,0,1-2.735-2.066,38.276,38.276,0,0,1-1.351-8.732c-.132-6.739,2.857-9.077,8.878-7.493a51.76,51.76,0,0,1,12.693,5.8c2.867,1.669,2.046,4.821,1.653,7.441" transform="translate(0 0)"/>
    <line id="Línea_1420" data-name="Línea 1420" transform="translate(19.163 80.515)"/>
    <path id="Trazado_177738" data-name="Trazado 177738" d="M85.838,148.465c-8.354,1.307-14.674,5.988-20.066,12.186-.947,1.089-1.841,2.237-2.887,3.223a3.338,3.338,0,0,1-3.819.572,3.741,3.741,0,0,1-2.2-3.185c-.285-2.454.725-4.4,2.1-6.228a43.657,43.657,0,0,1,9.211-8.786,32.228,32.228,0,0,1,14.156-6.1c1.386-.221,2.775.811,4.1-.206.4-.3.973-.448.821-1.075-.129-.532-.69-.4-1.071-.449a19.583,19.583,0,0,0-9.083.866C66.332,143,58.477,149.945,53.977,160.529c-.232.546-.192,1.7-1.1,1.4-1.072-.362-.069-1.121.079-1.658,3.3-11.978,21.289-25.812,34.409-22.956.812.177,1.7.172,1.84-.775.128-.871-.874-.845-1.455-1.037a24.756,24.756,0,0,0-19.327,1.833c-12.209,6.246-19.01,16.2-17.922,30.493.164,2.159.4,4.351,1.809,6.19-.13-3.531-1.039-7.02.157-11.01.343.715.477.867.478,1.02.007.591-.016,1.184-.05,1.774-.305,5.3.855,10.386,4.25,14.364,2.769,3.242,7.068,4.1,11.344,4.411,5.635.41,11.066-.1,16.192-2.7a33.28,33.28,0,0,0,14.575-13.5,15.659,15.659,0,0,0,2.262-6.714c.458-8.151-7.137-14.538-15.683-13.2M55.688,173.4a59.76,59.76,0,0,0,6.048,8c-3.37-.855-5.642-3.929-6.048-8m42.968-7.364c-2.653,5.8-7.157,9.9-12.791,13.005a28.063,28.063,0,0,1-13.974,3.723c-6.426-.042-9.31-3.05-9.25-11.868.206-5.285,4.61-10.6,10.107-15.148,4.64-3.836,9.94-6.191,16.188-5.721,8.676.653,13.338,8.1,9.72,16.009" transform="translate(-24.621 -65.629)" fill="#fff"/>
    <path id="Trazado_177739" data-name="Trazado 177739" d="M18.178,167.745a23.248,23.248,0,0,0,12.747,5.637,25.173,25.173,0,0,1-2.217-8.014c-.088-.632.093-1.4-.7-1.788-3.03-1.489-4.847-3.777-6.587-6.841a13.535,13.535,0,0,1-.731-12.774c1.623-3.935,4.738-6.8,8.993-6.991,2.759-.126,5.867-1.136,8.565.776.491.348.935-.147,1.312-.492a38.841,38.841,0,0,1,7.814-5.142c-8.85-5.4-17.607-6.04-26.649-2.034-4.035,1.788-7.408,4.262-9.168,8.675-3.962,9.935-1.367,21.924,6.621,28.987m-3.715-29.561a1.587,1.587,0,0,1-.157-.343.047.047,0,0,1,.013-.035c.031-.039.1-.088.148-.131a1.467,1.467,0,0,1,.153.342c.009.043-.1.111-.158.167m.341-.566c2.466-7.634,17.648-11.114,26.242-5.8-5.1-.936-9.59-1.521-14.143-.725a20.632,20.632,0,0,0-12.1,6.525m1.887,25.941.018-.116.2.092Zm.733.668c.061-.023.173.087.289.209.07.073.141.15.2.206a16.411,16.411,0,0,0,1.648,1.211c1.709,1.108,3.573,1.953,5.354,2.959a9.488,9.488,0,0,1-7.556-3.817c-.167-.276-.407-.59.061-.767" transform="translate(-4.753 -62.301)" fill="#fcfcfc"/>
    <path id="Trazado_177740" data-name="Trazado 177740" d="M49.865,28.684c3.7-6.488,8.421-11.915,15.3-15.243,7.862-3.8,19.812-2.333,25.463,4.1a29.8,29.8,0,0,1,6.4,12.579c.23.9.084,2.4,1.464,2.284,1.144-.095.905-1.441,1.017-2.319a32.99,32.99,0,0,0-.02-6.375c-.95-14.422-13.5-23.4-27.336-19.244-12.915,3.875-19.589,13.8-23.962,25.75-.037.1.14.28.229.445.95-.318,1.044-1.277,1.443-1.975M91.646,10.349c.123.233.214.477-.087.624-.043.021-.21-.21-.32-.324C87.89,8.547,84.55,6.426,80.7,5.293c4.326.246,8.269,1.3,10.947,5.056" transform="translate(-23.546 -1.684)" fill="#fff"/>
    <path id="Trazado_177741" data-name="Trazado 177741" d="M162.03,68.927a51.711,51.711,0,0,0-12.692-5.8c-6.021-1.585-9.01.754-8.878,7.493a38.308,38.308,0,0,0,1.351,8.732,2.579,2.579,0,0,0,2.735,2.066,23.47,23.47,0,0,1,11.048,2.555,7.118,7.118,0,0,0,4.637,1.05c.756-.131,1.384-.22,1.6-1.258.527-2.485,1.473-4.895,1.849-7.395.393-2.62,1.213-5.773-1.654-7.441m-14.517-4.019c1.311,3.124,1.275,8.211,0,10.977Zm4.018,15.483c-2.239-1-4.611-.791-7.617-1.086,5.834-1.772,10.067.685,14.323,2.941a16.324,16.324,0,0,1-6.707-1.856" transform="translate(-68.631 -30.613)" fill="#fcfcfc"/>
    <path id="Trazado_177742" data-name="Trazado 177742" d="M108.127,133.232a.559.559,0,0,1-.395.139.391.391,0,0,1-.186-.063,3.2,3.2,0,0,1-.482-.55c-.247-.129-.7-.208-.377-.6.294-.359.517.05.741.221l.808.209c1.441-2.741-.22-3.842-2.5-4.613a9.318,9.318,0,0,0-1.441-.464c-1.827-.3-1.807-.961-.849-2.429A71.873,71.873,0,0,0,112.8,105.7c.139-.487.816-.948.16-1.576a3,3,0,0,0-4.457,1.112c-2.1,6.539-5.687,12.274-9.465,17.939-1.767,2.649-3.617,4.607-7.125,3.885a4.953,4.953,0,0,0-1.751.25c-9.242,1.716-15.826,7.4-21.493,14.434a6.193,6.193,0,0,0-1.488,3.462.842.842,0,0,0,.109.593.249.249,0,0,0,.135.082.894.894,0,0,0,.644-.257l.666-.865.945-1.108.385-.56h0l1.228-1.4.492-.53.512-.51.52-.505c.175-.223.272-.672.677-.379.372.269.106.535-.128.759l-.525.534-.474.493-.46.479-1.374,1.453-.482.544-.88,1.233-.653.8c-.155.383-.546.976-.424,1.113.522.587,1.077.1,1.529-.221,2.581-1.858,4.433-4.465,6.728-6.611,5.394-5.043,11.4-8.991,19.115-9.113,6.082-.1,11.179,2.014,14.481,7.416a33.569,33.569,0,0,1,1.737,3.975c.3-4.286-.235-5.727-2.764-8.255-.315-.316-1.118-.422-.8-1.132m-24.37-.059c-.892.48-1.778.97-2.649,1.483q-.654.385-1.3.79t-1.269.835q-.627.431-1.235.891L75.14,138.88c-.071.073-.133.138-.188.192-.384.381-.427.306-.614-.277h-.007a5.661,5.661,0,0,1,.475-.766,3.866,3.866,0,0,1,2.111-1.481,26.926,26.926,0,0,1,10.87-5.516c-1.339.723-2.691,1.421-4.03,2.142m5.189-2.476a15.737,15.737,0,0,1,10.1-1.1,71.239,71.239,0,0,0-10.1,1.1m12.879-6.284a.329.329,0,0,1-.132-.054c-.541-.351-.055-.76.319-1.039l.4-.628h0a1.566,1.566,0,0,1,.321-.781.725.725,0,0,1,.264-.163l1.021-1.539.4-.62h0c.166-.178.131-.664.356-.722a.217.217,0,0,1,.114,0,.635.635,0,0,1,.179.084c.348.223.107.733-.3.974l-.311.666h0l-.758,1.133-.282.422-.668.873-.423.607h0c-.134.275-.212.821-.492.784m4.82,7.6c-1.653.071-2.6-.648-4.023-1.477a4.96,4.96,0,0,1,4.023,1.477" transform="translate(-32.826 -50.591)" fill="#fff"/>
    <path id="Trazado_177743" data-name="Trazado 177743" d="M67.537,186.256a.252.252,0,0,1-.135-.082.252.252,0,0,0,.135.082" transform="translate(-32.935 -90.971)" fill="#fff"/>
    <path id="Trazado_177744" data-name="Trazado 177744" d="M139.629,10.883a3.624,3.624,0,0,1-.33.363,25.055,25.055,0,0,1,6.669,14.829c.239,2.532.152,5.1.2,7.646.013.74-.258,1.565.873,1.773,4.434.815,8.4,2.852,12.42,4.757,1.682.8,2.612.665,2.436-1.631a28.137,28.137,0,0,0-5.774-15.254,36.6,36.6,0,0,0-2.574-3.023,41.756,41.756,0,0,0-13.918-9.461h0m19.827,27.244c-1.377-2.827-1.632-5.951-2.2-8.974,1.734,2.758,2.887,5.644,2.2,8.974" transform="translate(-68.066 -5.318)" fill="#fcfcfc"/>
    <path id="Trazado_177745" data-name="Trazado 177745" d="M139.944,10.881h0a41.75,41.75,0,0,1,13.917,9.462,41.773,41.773,0,0,0-13.917-9.463h0" transform="translate(-68.381 -5.316)" fill="#fcfcfc"/>
    <path id="Trazado_177746" data-name="Trazado 177746" d="M39.705,76.2a52.163,52.163,0,0,0,9.822,2.938,5.1,5.1,0,0,0,4.823-2.126c1.29-1.892,2.349-3.941,3.614-5.851,1.087-1.64.484-2.208-1.186-2.755-5-1.634-10.187-2.744-14.875-5.22-1.453-.767-1.663.432-2.011,1.092a21.751,21.751,0,0,0-2.083,8.867,3,3,0,0,0,1.9,3.054m3.361-10.371q-1.013,4.177-2.026,8.353c-1.1-3.172.444-5.77,2.026-8.353" transform="translate(-18.47 -30.754)" fill="#fcfcfc"/>
    <path id="Trazado_177747" data-name="Trazado 177747" d="M150.912,105.35c-2.542-.912-2.15.926-2.534,2.257a39.97,39.97,0,0,1-1.486,4.062,95.843,95.843,0,0,1-8.122,15.314,40.455,40.455,0,0,1,4.587,2.179c1.092.693,1.485.487,2.081-.559a115.576,115.576,0,0,0,9.013-18.831c.789-2.251-.111-3.192-3.54-4.422" transform="translate(-67.808 -51.358)" fill="#fcfcfc"/>
    <path id="Trazado_177748" data-name="Trazado 177748" d="M37.446,109.7c1.533-.019,1.327-1.069,1.285-2.155a18.238,18.238,0,0,1,.934-7.562c-.054,2.529-.22,5.035-.118,7.545.033.815-.11,1.942,1.271,1.515,1.921-.594,3.862-.291,5.794-.332.953-.019,1.643-.036,1.464-1.345a48.062,48.062,0,0,1,.137-9.918c.039-.562.334-1.263-.476-1.51-1.944-.592-3.917-1.585-5.852-1.529-1.247.036-.962,2.305-1.626,3.453-.1.17-.341.257-.857.625.379-1.382.6-2.444.966-3.457.345-.964.05-1.365-.9-1.612-.925-.239-1.175.165-1.382.942a37.319,37.319,0,0,0-1.565,13.453c.067.658-.555,1.9.929,1.886" transform="translate(-17.78 -45.612)" fill="#fff"/>
    <path id="Trazado_177749" data-name="Trazado 177749" d="M33.245,161.943a7.355,7.355,0,0,0-.205,1.326c-.01.155-.017.312-.019.471v0a11.183,11.183,0,0,0,.113,1.71l0,.017c.586,4.131,3.314,8.742,6.685,9.172a67.768,67.768,0,0,1,.867-7.538q.113-.532.253-1.06.162-.6.367-1.2c1.091-3.157,2.993-5.858,4.759-8.654-5.077-2.2-11.711,1.407-12.823,5.752" transform="translate(-16.135 -75.995)" fill="#fcfcfc"/>
    <path id="Trazado_177750" data-name="Trazado 177750" d="M33.135,173.307a11.242,11.242,0,0,1-.114-1.709,11.242,11.242,0,0,0,.114,1.709" transform="translate(-16.135 -83.849)" fill="#fcfcfc"/>
    <path id="Trazado_177751" data-name="Trazado 177751" d="M33.248,174.976c.586,4.132,3.315,8.745,6.685,9.172-3.371-.43-6.1-5.041-6.685-9.172" transform="translate(-16.246 -85.499)" fill="#fcfcfc"/>
    <path id="Trazado_177752" data-name="Trazado 177752" d="M33.246,174.959c0-.006,0-.012,0-.017s0,.012,0,.017" transform="translate(-16.244 -85.483)" fill="#fcfcfc"/>
    <path id="Trazado_177753" data-name="Trazado 177753" d="M73.694,32.254c-.01.181-.019.362-.029.543l.539-.031c-.01.182-.021.363-.031.545a1.84,1.84,0,0,1,.687-.1.951.951,0,0,1,.185.032.753.753,0,0,1,.392.26,1.511,1.511,0,0,1,.266.832,2.21,2.21,0,0,1,1.575.193,2.844,2.844,0,0,1,.368.234,4.074,4.074,0,0,1,.343.286c.111.1.218.21.325.322s.21.227.313.344l.127.143,0-.008c1.015-.035,1.589.827,2.41,1.185.591.258,1.435,1.159,1.712.7a7.888,7.888,0,0,1,1.85-1.937c1.158-.95,2.359-1.855,2.7-3.473a.877.877,0,0,1-.234.007.3.3,0,0,1-.277-.271.834.834,0,0,1,.011-.25.866.866,0,0,1-.256.016.313.313,0,0,1-.188-.085.5.5,0,0,1-.069-.44c-.04.005-.08.011-.116.012-.32.013-.476-.138-.4-.52a1.172,1.172,0,0,1-.12.019.573.573,0,0,1-.134,0,.28.28,0,0,1-.238-.173.694.694,0,0,1-.018-.357c-.4.063-.572-.106-.507-.51a.852.852,0,0,1-.117.014.527.527,0,0,1-.125-.011.3.3,0,0,1-.224-.185.794.794,0,0,1-.043-.341l-.079-.026a1.722,1.722,0,0,1-.44-.194c-.226-.156-.292-.39-.005-.8-1.261-.131-1.129-1.354-1.584-2.109-.283-.469-.2-1.43-.971-1.248-1.391.328-3.029.568-3.905,1.681a1.179,1.179,0,0,0-.206,1.1,2.26,2.26,0,0,0,.144.377,4.394,4.394,0,0,0,.329.56c.124.184.259.365.389.541.087.117.172.232.252.344l1.312.985.85.654a1.625,1.625,0,0,1,.157.058.785.785,0,0,1,.368.279.285.285,0,0,1-.023.321A.514.514,0,0,1,80.7,32a.283.283,0,0,1-.125.01c-.207-.027-.4-.261-.583-.433l-.87-.648-1.509-1.049c-.3-.385-.815-.738-.878-1.159-.31-2.048-1.171-1.2-2.336-.7a2.329,2.329,0,0,0-1.57,1.635,2.526,2.526,0,0,0-.049.558,4.033,4.033,0,0,0,.043.5c.072.509.221,1.039.331,1.568l.543-.032" transform="translate(-35.561 -12.142)" fill="#fff"/>
    <path id="Trazado_177754" data-name="Trazado 177754" d="M72.862,36.326c.072.509.221,1.039.331,1.568-.11-.529-.259-1.06-.331-1.568" transform="translate(-35.603 -17.75)" fill="#fff"/>
    <path id="Trazado_177755" data-name="Trazado 177755" d="M83.065,33.23c.087.117.172.232.252.344-.079-.111-.165-.227-.252-.344" transform="translate(-40.588 -16.237)" fill="#fff"/>
    <path id="Trazado_177756" data-name="Trazado 177756" d="M96.138,42.94c1.158-.95,2.359-1.855,2.7-3.473h0c-.34,1.618-1.54,2.523-2.7,3.473" transform="translate(-46.976 -19.285)" fill="#fff"/>
    <path id="Trazado_177757" data-name="Trazado 177757" d="M63.466,45.913h0l.269.05c.481.089.963.176,1.438.282.229.052.456.107.68.171a5.675,5.675,0,0,1,2.686,1.528c.873-.542,1.613.057,2.316.371,1.456.649,2.009-.378,2.565-1.29.8-1.3-.633-1.184-1.15-1.648-.359-.323-1.093-.281-1.215-1.387,1.1.5,1.938.828,2.726,1.246.728.387,1.085-.009,1.43-.534.435-.662-.177-.82-.519-1.152-.809-.786-2.3-.8-2.548-2.214-1.393.239-2.225-.649-3.064-1.526a1.382,1.382,0,0,1-1.543-1.025.9.9,0,0,1-.258.005.3.3,0,0,1-.276-.263.793.793,0,0,1,.01-.246.543.543,0,0,1-.352-.026.284.284,0,0,1-.128-.144.59.59,0,0,1-.039-.232c0-.037,0-.077.007-.118a.944.944,0,0,1-.6-.358,2.01,2.01,0,0,1-.209-.32c-.307-.569-.442-1.251-.9-1.051A7.064,7.064,0,0,0,62.134,38.6c-.683.995.76,1.253,1.041,1.96l.924.636c.246.134.688.208.4.609-.263.368-.528-.033-.784-.137l-.921-.695a.877.877,0,0,1-.152-.055,1.971,1.971,0,0,1-.423-.29c-.091-.076-.181-.156-.272-.231-.455-.374-.943-.618-1.749.359-1.523,1.845-1.2,2.772.746,3.751a6.813,6.813,0,0,0,.671.284,3.738,3.738,0,0,1,1.852,1.121M68.632,43.1c-1.3.685-1.3.685-2.377-.879l2.377.879M65.246,41.84l.182.182-.182.329c-.016-.017-.038-.034-.059-.052a.578.578,0,0,1-.087-.08.046.046,0,0,1-.013-.036,1.588,1.588,0,0,1,.16-.343" transform="translate(-28.946 -17.591)" fill="#fff"/>
    <path id="Trazado_177758" data-name="Trazado 177758" d="M84.492,46.4l-.03-.04,0,.009.028.032" transform="translate(-41.271 -22.651)" fill="#fff"/>
    <path id="Trazado_177759" data-name="Trazado 177759" d="M11.36,180.859a25.76,25.76,0,0,1-4.644-10.1c-.862-3.634-.661-7.332-.782-11.374-3.153,6.342-1.306,15.927,4.158,22.923,4.821,6.172,14.086,10.559,20.517,9.186-3.736-2.1-7.622-2-10.811-3.78a27,27,0,0,1-8.439-6.855" transform="translate(-2.148 -77.881)" fill="#fff"/>
    <path id="Trazado_177760" data-name="Trazado 177760" d="M52.7,55.47c-.589.275-.914,1.316.368,1.887,3.909,1.741,8.218,2.163,12.153,3.8.465.193,1.288.214,1.223-.389-.156-1.458,1.476-2.054,1.491-3.075.022-1.588-2.056-.85-2.788-1.818a.45.45,0,0,1-.053-.205c-1.854-.286-3.719-.545-5.078-2.051a2.724,2.724,0,0,1-2.313-.248,8.906,8.906,0,0,1-1.412-1.042c-1.774-1.5-2.653.137-2.457.972.331,1.409-.018,1.648-1.133,2.169m5.96.925c-.349-.235-.055-.1.141.128.065.074-.015.518-.362.39a8.255,8.255,0,0,1-1-.523c.138-.195.252-.431,1.225,0m-1.915-.65h0l0,0,.236.174a1.463,1.463,0,0,0-.134.1c-.134.1-.27.219-.4.21-.2-.014-.389-.216-.583-.337.171-.121.185-.492.873-.147M55.24,55.24a.046.046,0,0,1,.036.013c.008.007.017.017.027.026s.01.009.016.016c.03.034.061.077.09.1h0l0,0a1.444,1.444,0,0,1-.344.158c-.043.009-.111-.1-.168-.16a1.59,1.59,0,0,1,.343-.16" transform="translate(-25.499 -25.272)" fill="#fff"/>
    <path id="Trazado_177761" data-name="Trazado 177761" d="M65.291,55.2h0a2.724,2.724,0,0,1-2.313-.248,2.724,2.724,0,0,0,2.313.248" transform="translate(-30.773 -26.849)" fill="#fff"/>
    <path id="Trazado_177762" data-name="Trazado 177762" d="M101.394,25.165a1.618,1.618,0,0,1,.263.076,1.085,1.085,0,0,1,.417.287,1.166,1.166,0,0,1,.23.413,2.613,2.613,0,0,1,.1.754,1.278,1.278,0,0,1,.855.539,1.559,1.559,0,0,1,.17.994,13.631,13.631,0,0,0,1.45.694,1.7,1.7,0,0,0,.509.1c.566.009.968-.438,1-1.927.017-.743.4-.413.747-.082a1.469,1.469,0,0,0,2.445-.57,1.876,1.876,0,0,0-1.29-2.562c-1.513-.511-3.124-.4-4.579-.833a4.606,4.606,0,0,0-1.4-.237,1.431,1.431,0,0,0-.462.084.823.823,0,0,0-.435.368,2.936,2.936,0,0,0-.03,1.9" transform="translate(-49.479 -11.149)" fill="#fff"/>
    <path id="Trazado_177763" data-name="Trazado 177763" d="M105.511,33.4a13.734,13.734,0,0,0,1.45.694A13.734,13.734,0,0,1,105.511,33.4Z" transform="translate(-51.556 -16.321)" fill="#fff"/>
    <path id="Trazado_177764" data-name="Trazado 177764" d="M108.856,34.862a1.7,1.7,0,0,1-.509-.1,1.7,1.7,0,0,0,.509.1" transform="translate(-52.942 -16.984)" fill="#fff"/>
    <path id="Trazado_177765" data-name="Trazado 177765" d="M94,28.32l.522-.031c-.008.176-.016.352-.024.529.626-.282.722-.033.53.5.546-.205.714-.032.51.513.535-.194.755-.073.512.51.573-.229.762-.073.5.531l.533-.023-.032.544a2.644,2.644,0,0,0,1.877-.792,1.449,1.449,0,0,0,.154-.231,1.483,1.483,0,0,0,.065-.134,1.722,1.722,0,0,0,.109-.388,3.284,3.284,0,0,0-.176-1.5c-.962-.1-1.381-.567-1.042-1.54-.93-.108-1.279-.606-1.026-1.506a.627.627,0,0,1-.211.06l-.021,0a.405.405,0,0,1-.117-.014.374.374,0,0,1-.181-.116.563.563,0,0,1-.126-.322c-.212-2.462-2.055-2.038-3.265-1.452-1.549.75-.089,1.939.149,2.934.072.3.151.6.227.9.659.1.973.376.528,1.024" transform="translate(-45.148 -11.245)" fill="#fff"/>
    <path id="Trazado_177766" data-name="Trazado 177766" d="M101.512,38.652a2.644,2.644,0,0,0,1.877-.792A2.644,2.644,0,0,1,101.512,38.652Z" transform="translate(-49.602 -18.5)" fill="#fff"/>
    <path id="Trazado_177767" data-name="Trazado 177767" d="M50.517,150.94c.459-1.346-.889-1.045-1.4-1.171-4.155-1.013-7.835-.2-10.759,3.12l.328.41a15.537,15.537,0,0,1,4.75-1.826q.35-.066.7-.111a11.176,11.176,0,0,1,4.526.345c.9.256,1.574.057,1.855-.767" transform="translate(-18.742 -72.983)" fill="#fff"/>
    <path id="Trazado_177768" data-name="Trazado 177768" d="M47.68,58.268l.384-.64-.346-.348a2.817,2.817,0,0,0-.331.638c-.022.087.188.232.293.35" transform="translate(-23.154 -27.989)" fill="#fff"/>
    <path id="Trazado_177769" data-name="Trazado 177769" d="M147.837,160.416l-.342.028,0,.377.337-.406" transform="translate(-72.071 -78.385)" fill="#fff"/>
    <path id="Trazado_177770" data-name="Trazado 177770" d="M36.93,157.726l.346.018c-.022-.1-.045-.2-.068-.293l-.278.275" transform="translate(-18.045 -76.936)" fill="#fff"/>
    <path id="Trazado_177771" data-name="Trazado 177771" d="M37.435,157.283h0Z" transform="translate(-18.292 -76.854)" fill="#fff"/>
    <path id="Trazado_177772" data-name="Trazado 177772" d="M37.542,157.745l-.068-.294h0c.023.1.046.195.068.293" transform="translate(-18.311 -76.936)" fill="#fff"/>
    <path id="Trazado_177773" data-name="Trazado 177773" d="M37.474,157.431h0l.02-.02-.02.02" transform="translate(-18.311 -76.916)" fill="#fff"/>
    <path id="Trazado_177774" data-name="Trazado 177774" d="M37.435,157.284h0" transform="translate(-18.292 -76.854)" fill="#fff"/>
    <path id="Trazado_177775" data-name="Trazado 177775" d="M37.475,157.349l-.04-.064h0l.02.085.02-.02" transform="translate(-18.292 -76.855)" fill="#fff"/>
    <path id="Trazado_177776" data-name="Trazado 177776" d="M37.53,157.389Z" transform="translate(-18.338 -76.906)" fill="#fff"/>
    <path id="Trazado_177777" data-name="Trazado 177777" d="M38.282,156.671l-.329-.41-.422.577c.308.357.511-.039.751-.167" transform="translate(-18.339 -76.354)" fill="#fff"/>
    <path id="Trazado_177778" data-name="Trazado 177778" d="M37.436,157.285h0c.017.023.032.034.048.052a.634.634,0,0,1-.048-.053" transform="translate(-18.292 -76.855)" fill="#fff"/>
    <path id="Trazado_177779" data-name="Trazado 177779" d="M37.514,157.4l.008-.011Z" transform="translate(-18.331 -76.906)" fill="#fff"/>
    <path id="Trazado_177780" data-name="Trazado 177780" d="M37.477,157.35l.008-.011a.609.609,0,0,1-.047-.052Z" transform="translate(-18.293 -76.856)" fill="#fff"/>
    <line id="Línea_1421" data-name="Línea 1421" transform="translate(19.143 80.429)" fill="#fff"/>
    <path id="Trazado_177781" data-name="Trazado 177781" d="M37.476,157.35l-.039-.063h0l.04.064" transform="translate(-18.292 -76.855)" fill="#fff"/>
    <path id="Trazado_177782" data-name="Trazado 177782" d="M37.436,157.285h0" transform="translate(-18.292 -76.854)" fill="#fff"/>
    <path id="Trazado_177783" data-name="Trazado 177783" d="M138.951,11.163a3.637,3.637,0,0,0,.33-.363c-.165-.018-.4-.088-.538-.086a.116.116,0,0,0-.094.032c-.2.28.13.32.3.417" transform="translate(-67.718 -5.235)" fill="#fcfcfc"/>
    <path id="Trazado_177784" data-name="Trazado 177784" d="M139.43,10.8c-.165-.017-.4-.087-.539-.085.136,0,.374.068.538.086h0" transform="translate(-67.867 -5.235)" fill="#fcfcfc"/>
    <path id="Trazado_177785" data-name="Trazado 177785" d="M138.708,10.747a.112.112,0,0,1,.094-.032.112.112,0,0,0-.094.032" transform="translate(-67.777 -5.236)" fill="#fcfcfc"/>
    <path id="Trazado_177786" data-name="Trazado 177786" d="M139.629,10.882a3.635,3.635,0,0,1-.33.363,3.635,3.635,0,0,0,.33-.363h0" transform="translate(-68.066 -5.317)" fill="#fcfcfc"/>
    <path id="Trazado_177787" data-name="Trazado 177787" d="M139.944,10.881h0" transform="translate(-68.381 -5.316)" fill="#fcfcfc"/>
    <path id="Trazado_177788" data-name="Trazado 177788" d="M81.8,221.08h0l.005,0,0,0" transform="translate(-39.971 -108.027)"/>
    <path id="Trazado_177789" data-name="Trazado 177789" d="M100.644,164.982c-6.248-.47-11.548,1.885-16.188,5.721-5.5,4.545-9.9,9.863-10.107,15.148-.061,8.818,2.823,11.826,9.249,11.868A28.063,28.063,0,0,0,97.572,194c5.634-3.1,10.139-7.2,12.791-13.005,3.618-7.912-1.044-15.356-9.72-16.009m-24.3,22.3c1.464-11.361,14.2-19.4,22.091-20.157,7.047-.678,10.915,4.522,7.783,10.879-4.724,9.591-12.983,14.182-23.012,15.437a29.78,29.78,0,0,1-3.145-.417c-3.162-.792-4.132-2.524-3.717-5.741m32.827-8.747c-2.782,6.9-7.83,11.583-14.534,14.595a37,37,0,0,1-10.847,3,5.825,5.825,0,0,1-5.621-2.477l-.005,0-.288.025.266-.035.02.008-.018-.008.023.01a9.4,9.4,0,0,0,3.271.9l.072.009c.174.015.349.022.524.029.054,0,.107.008.162.009.128,0,.257,0,.386,0,.1,0,.2,0,.3,0,.229-.008.459-.021.689-.041q.4-.034.791-.092c8.8-1.257,16.1-5.158,21.25-12.576a14.332,14.332,0,0,0,2.724-10.33c1.93,2.14,1.811,4.566.833,6.989" transform="translate(-36.329 -80.587)"/>
    <path id="Trazado_177790" data-name="Trazado 177790" d="M66.8,218.748a59.754,59.754,0,0,1-6.048-8c.406,4.075,2.678,7.149,6.048,8" transform="translate(-29.686 -102.977)"/>
    <path id="Trazado_177791" data-name="Trazado 177791" d="M45.9,133.5c-8.595-5.314-23.776-1.834-26.242,5.8a20.634,20.634,0,0,1,12.1-6.525c4.554-.8,9.039-.211,14.143.725" transform="translate(-9.604 -63.985)"/>
    <path id="Trazado_177792" data-name="Trazado 177792" d="M32.215,204.3c-1.781-1.005-3.645-1.851-5.353-2.959a16.344,16.344,0,0,1-1.649-1.212l-.554.353a9.488,9.488,0,0,0,7.556,3.817" transform="translate(-12.049 -97.79)"/>
    <path id="Trazado_177793" data-name="Trazado 177793" d="M25.742,200.13a16.284,16.284,0,0,0,1.649,1.211,16.284,16.284,0,0,1-1.649-1.211" transform="translate(-12.578 -97.79)"/>
    <path id="Trazado_177794" data-name="Trazado 177794" d="M23.346,197.9l.215-.024-.2-.092Z" transform="translate(-11.407 -96.646)"/>
    <path id="Trazado_177795" data-name="Trazado 177795" d="M24.807,199.527c-.116-.122-.228-.232-.289-.209-.468.177-.229.491-.061.767l.553-.353c-.063-.055-.134-.132-.2-.205" transform="translate(-11.847 -97.392)"/>
    <path id="Trazado_177796" data-name="Trazado 177796" d="M25.548,199.934h0c-.063-.055-.134-.132-.2-.205.07.073.141.15.2.205" transform="translate(-12.384 -97.594)"/>
    <path id="Trazado_177797" data-name="Trazado 177797" d="M18.695,147.53a.047.047,0,0,0-.013.035,1.6,1.6,0,0,0,.157.343c.056-.056.166-.124.158-.168a1.369,1.369,0,0,0-.154-.34,1.936,1.936,0,0,0-.147.129" transform="translate(-9.128 -72.025)"/>
    <path id="Trazado_177798" data-name="Trazado 177798" d="M18.708,147.528a1.929,1.929,0,0,1,.147-.129,1.37,1.37,0,0,1,.154.34,1.487,1.487,0,0,0-.153-.342c-.044.043-.118.093-.148.132" transform="translate(-9.141 -72.023)"/>
    <path id="Trazado_177799" data-name="Trazado 177799" d="M122.711,12.113c-2.679-3.761-6.622-4.81-10.947-5.056,3.852,1.133,7.191,3.255,10.54,5.357a1.673,1.673,0,0,1,.407-.3" transform="translate(-54.612 -3.448)"/>
    <path id="Trazado_177800" data-name="Trazado 177800" d="M132.7,17.57c.3-.147.211-.392.087-.624a1.661,1.661,0,0,0-.407.3c.109.114.276.345.319.324" transform="translate(-64.683 -8.28)"/>
    <path id="Trazado_177801" data-name="Trazado 177801" d="M147.221,94.642c3,.295,5.378.084,7.617,1.086a16.314,16.314,0,0,0,6.706,1.856c-4.256-2.256-8.489-4.713-14.323-2.941" transform="translate(-71.937 -45.949)"/>
    <path id="Trazado_177802" data-name="Trazado 177802" d="M154.258,67.068V78.045c1.275-2.766,1.311-7.853,0-10.977" transform="translate(-75.376 -32.772)"/>
    <path id="Trazado_177803" data-name="Trazado 177803" d="M86.612,163.446q.608-.461,1.235-.891t1.269-.835q.642-.4,1.3-.79c.871-.513,1.758-1,2.649-1.483,1.338-.72,2.69-1.419,4.03-2.142a26.926,26.926,0,0,0-10.87,5.516l.39.625" transform="translate(-42.131 -76.865)"/>
    <path id="Trazado_177804" data-name="Trazado 177804" d="M109.746,155.269a71.241,71.241,0,0,1,10.1-1.1,15.737,15.737,0,0,0-10.1,1.1" transform="translate(-53.626 -75.163)"/>
    <path id="Trazado_177805" data-name="Trazado 177805" d="M136.49,156.315c1.427.829,2.371,1.548,4.023,1.477a4.961,4.961,0,0,0-4.023-1.477" transform="translate(-66.694 -76.369)"/>
    <path id="Trazado_177806" data-name="Trazado 177806" d="M83.119,168.334a3.949,3.949,0,0,0-1.471,1.24,5.524,5.524,0,0,0-.466.753l0,.007c.263.035.53.063.8.091l2.168-1.707-.39-.624a3.92,3.92,0,0,0-.641.241" transform="translate(-39.668 -82.136)"/>
    <path id="Trazado_177807" data-name="Trazado 177807" d="M84.969,168.334a3.919,3.919,0,0,1,.641-.241,3.919,3.919,0,0,0-.641.241" transform="translate(-41.519 -82.136)"/>
    <path id="Trazado_177808" data-name="Trazado 177808" d="M81.175,171.749l0-.007a5.521,5.521,0,0,1,.466-.753,5.676,5.676,0,0,0-.476.766h.008l0-.007h.007" transform="translate(-39.659 -83.551)"/>
    <path id="Trazado_177809" data-name="Trazado 177809" d="M137.912,137.662l.758-1.133-.434-.386-1.021,1.539.415.4.282-.421" transform="translate(-67.047 -66.524)"/>
    <path id="Trazado_177810" data-name="Trazado 177810" d="M139.335,136.9h0l-.758,1.133.758-1.133h0" transform="translate(-67.713 -66.893)"/>
    <path id="Trazado_177811" data-name="Trazado 177811" d="M71.544,182.349l-.37-.376-.945,1.108.435.5.88-1.233" transform="translate(-34.316 -88.918)"/>
    <path id="Trazado_177812" data-name="Trazado 177812" d="M73.3,179.931l1.374-1.453-.614-.341-1.228,1.4.468.392" transform="translate(-35.587 -87.044)"/>
    <path id="Trazado_177813" data-name="Trazado 177813" d="M75.119,178.8h0l-1.374,1.453,1.374-1.453" transform="translate(-36.034 -87.369)"/>
    <path id="Trazado_177814" data-name="Trazado 177814" d="M74.058,178.137l-1.228,1.4,1.228-1.4" transform="translate(-35.587 -87.044)"/>
    <path id="Trazado_177815" data-name="Trazado 177815" d="M139.994,134.233h0q.174.168.345.34c.41-.241.65-.751.3-.974a.647.647,0,0,0-.179-.085.228.228,0,0,0-.114,0c-.224.058-.19.544-.355.723" transform="translate(-68.406 -65.235)"/>
    <path id="Trazado_177816" data-name="Trazado 177816" d="M139.992,134.24h0c.165-.179.13-.665.355-.723-.225.058-.19.544-.356.722h0" transform="translate(-68.404 -65.241)"/>
    <path id="Trazado_177817" data-name="Trazado 177817" d="M140.688,133.512a.228.228,0,0,1,.114,0,.228.228,0,0,0-.114,0" transform="translate(-68.745 -65.236)"/>
    <path id="Trazado_177818" data-name="Trazado 177818" d="M136.4,140.427l.667-.873-.415-.4a.733.733,0,0,0-.264.163,1.562,1.562,0,0,0-.32.781l.332.331" transform="translate(-66.489 -67.994)"/>
    <path id="Trazado_177819" data-name="Trazado 177819" d="M136.392,139.47a1.573,1.573,0,0,0-.321.781h0a1.567,1.567,0,0,1,.32-.781" transform="translate(-66.489 -68.15)"/>
    <path id="Trazado_177820" data-name="Trazado 177820" d="M135.065,142.535h0l-.3-.309c-.374.279-.86.688-.32,1.039a.333.333,0,0,0,.133.054c.279.037.357-.509.49-.784" transform="translate(-65.575 -69.496)"/>
    <path id="Trazado_177821" data-name="Trazado 177821" d="M135.423,142.831h0c-.133.275-.211.822-.49.784.279.038.357-.509.491-.783Z" transform="translate(-65.932 -69.792)"/>
    <path id="Trazado_177822" data-name="Trazado 177822" d="M145.176,160.321a3.223,3.223,0,0,0,.482.55.4.4,0,0,0,.186.063.554.554,0,0,0,.394-.139,1.472,1.472,0,0,1,.071-.136l.057-.068,0-.377-.043,0c.012-.022.019-.041.031-.063l-.809-.209-.364.376" transform="translate(-70.938 -78.155)"/>
    <path id="Trazado_177823" data-name="Trazado 177823" d="M147.255,161.511h0a1.2,1.2,0,0,0,.129-.1,1.2,1.2,0,0,1-.129.1" transform="translate(-71.954 -78.87)"/>
    <path id="Trazado_177824" data-name="Trazado 177824" d="M145.889,159.945l.808.209Z" transform="translate(-71.286 -78.155)"/>
    <path id="Trazado_177825" data-name="Trazado 177825" d="M146.483,161.747a.559.559,0,0,0,.395-.139.559.559,0,0,1-.395.139" transform="translate(-71.577 -78.967)"/>
    <path id="Trazado_177826" data-name="Trazado 177826" d="M146.305,161.819a.39.39,0,0,1-.186-.064.39.39,0,0,0,.186.064" transform="translate(-71.399 -79.039)"/>
    <path id="Trazado_177827" data-name="Trazado 177827" d="M147.359,161.361l-.033-.02a1.4,1.4,0,0,0-.071.137,1.2,1.2,0,0,0,.128-.1l-.025-.015" transform="translate(-71.954 -78.837)"/>
    <path id="Trazado_177828" data-name="Trazado 177828" d="M147.452,160.357l-.012,0c-.012.021-.019.041-.031.063Z" transform="translate(-72.029 -78.354)"/>
    <path id="Trazado_177829" data-name="Trazado 177829" d="M147.453,160.417c0-.019,0-.038,0-.057l-.043.06.043,0" transform="translate(-72.03 -78.357)"/>
    <path id="Trazado_177830" data-name="Trazado 177830" d="M147.426,161.3l.025.015h0l0-.1-.057.068Z" transform="translate(-72.021 -78.772)"/>
    <path id="Trazado_177831" data-name="Trazado 177831" d="M147.483,161.395l-.026-.015Z" transform="translate(-72.052 -78.856)"/>
    <path id="Trazado_177832" data-name="Trazado 177832" d="M69.593,184.139l-.666.865.449.441.652-.8-.435-.5" transform="translate(-33.68 -89.977)"/>
    <path id="Trazado_177833" data-name="Trazado 177833" d="M72.447,181.814l.483-.544-.468-.393-.385.56.37.376" transform="translate(-35.219 -88.383)"/>
    <path id="Trazado_177834" data-name="Trazado 177834" d="M72.077,181.973l.37.376Z" transform="translate(-35.219 -88.918)"/>
    <path id="Trazado_177835" data-name="Trazado 177835" d="M72.83,180.878h0l.468.392-.468-.392" transform="translate(-35.587 -88.383)"/>
    <path id="Trazado_177836" data-name="Trazado 177836" d="M76.3,177.491l-.581-.392-.492.531.614.341.459-.479" transform="translate(-36.76 -86.537)"/>
    <path id="Trazado_177837" data-name="Trazado 177837" d="M76.432,178.345l.46-.479h0l-.459.479" transform="translate(-37.347 -86.911)"/>
    <path id="Trazado_177838" data-name="Trazado 177838" d="M77.248,176.511l-.543-.408-.512.509.582.392.474-.493" transform="translate(-37.23 -86.05)"/>
    <path id="Trazado_177839" data-name="Trazado 177839" d="M77.33,177.394l.474-.493h0l-.474.493" transform="translate(-37.786 -86.44)"/>
    <path id="Trazado_177840" data-name="Trazado 177840" d="M76.774,177.491l-.581-.392Z" transform="translate(-37.23 -86.537)"/>
    <path id="Trazado_177841" data-name="Trazado 177841" d="M78.263,175.494l-.549-.38-.52.505.544.409.525-.534" transform="translate(-37.72 -85.567)"/>
    <path id="Trazado_177842" data-name="Trazado 177842" d="M78.257,176.391l.525-.533h0l-.525.534" transform="translate(-38.239 -85.93)"/>
    <path id="Trazado_177843" data-name="Trazado 177843" d="M77.738,176.511l-.544-.408Z" transform="translate(-37.72 -86.05)"/>
    <path id="Trazado_177844" data-name="Trazado 177844" d="M78.888,174.281c-.4-.293-.5.155-.677.379l.549.379c.234-.223.5-.489.128-.759" transform="translate(-38.217 -85.113)"/>
    <path id="Trazado_177845" data-name="Trazado 177845" d="M78.76,175.494l-.549-.379Z" transform="translate(-38.217 -85.567)"/>
    <path id="Trazado_177846" data-name="Trazado 177846" d="M81.8,172.765c.055-.055.117-.119.188-.192l-.8-.084c.181.582.226.656.607.276" transform="translate(-39.673 -84.284)"/>
    <path id="Trazado_177847" data-name="Trazado 177847" d="M81.184,172.489h-.007c.187.583.231.658.615.277-.382.379-.426.306-.607-.276" transform="translate(-39.666 -84.283)"/>
    <path id="Trazado_177848" data-name="Trazado 177848" d="M81.189,172.482l.8.084c-.267-.028-.535-.057-.8-.091l0,.007" transform="translate(-39.671 -84.277)"/>
    <path id="Trazado_177849" data-name="Trazado 177849" d="M81.18,172.474h-.007l0,.007h.007l0-.007" transform="translate(-39.664 -84.276)"/>
    <path id="Trazado_177850" data-name="Trazado 177850" d="M144.334,159.376c-.319.39.129.469.376.6l.365-.376c-.223-.171-.447-.58-.741-.221" transform="translate(-70.473 -77.806)"/>
    <path id="Trazado_177851" data-name="Trazado 177851" d="M136.025,141.329l-.332-.331-.4.628.3.308.424-.606" transform="translate(-66.11 -68.896)"/>
    <path id="Trazado_177852" data-name="Trazado 177852" d="M135.892,142.251q.211-.3.423-.606l-.424.606h0" transform="translate(-66.401 -69.213)"/>
    <path id="Trazado_177853" data-name="Trazado 177853" d="M135.692,141l-.4.628.4-.628" transform="translate(-66.11 -68.896)"/>
    <path id="Trazado_177854" data-name="Trazado 177854" d="M135.6,142.535l-.3-.309Z" transform="translate(-66.11 -69.496)"/>
    <path id="Trazado_177855" data-name="Trazado 177855" d="M135.891,142.83h0Z" transform="translate(-66.401 -69.792)"/>
    <path id="Trazado_177856" data-name="Trazado 177856" d="M139.956,135.269q-.17-.172-.345-.34l-.4.62.435.386.311-.666" transform="translate(-68.023 -65.931)"/>
    <path id="Trazado_177857" data-name="Trazado 177857" d="M139.61,134.929l-.4.621.4-.62h0" transform="translate(-68.023 -65.931)"/>
    <path id="Trazado_177858" data-name="Trazado 177858" d="M140.06,136.26l.311-.666-.311.666h0" transform="translate(-68.438 -66.256)"/>
    <path id="Trazado_177859" data-name="Trazado 177859" d="M139.645,136.529l-.434-.386.434.386" transform="translate(-68.023 -66.524)"/>
    <path id="Trazado_177860" data-name="Trazado 177860" d="M140.059,136.9h0" transform="translate(-68.438 -66.892)"/>
    <path id="Trazado_177861" data-name="Trazado 177861" d="M139.993,134.93q.175.168.345.34-.171-.173-.345-.34" transform="translate(-68.405 -65.931)"/>
    <path id="Trazado_177862" data-name="Trazado 177862" d="M139.993,134.929h0" transform="translate(-68.405 -65.931)"/>
    <path id="Trazado_177863" data-name="Trazado 177863" d="M174.416,46.61c.567,3.023.823,6.147,2.2,8.974.687-3.329-.465-6.216-2.2-8.974" transform="translate(-85.226 -22.775)"/>
    <path id="Trazado_177864" data-name="Trazado 177864" d="M45.81,68.59c-1.581,2.582-3.123,5.181-2.026,8.353Q44.8,72.766,45.81,68.59" transform="translate(-21.214 -33.515)"/>
    <path id="Trazado_177865" data-name="Trazado 177865" d="M81.419,44.716c-.1-.116-.208-.231-.314-.343s-.214-.22-.324-.323a4.271,4.271,0,0,0-.343-.286,2.937,2.937,0,0,0-.368-.234,2.213,2.213,0,0,0-1.575-.193c0,.011,0,.019,0,.03h-.01c.838.876,1.671,1.764,3.064,1.525,0-.011-.006-.021-.007-.033l-.127-.144" transform="translate(-38.352 -21.145)"/>
    <path id="Trazado_177866" data-name="Trazado 177866" d="M80.075,43.531a2.207,2.207,0,0,0-1.575-.193,2.207,2.207,0,0,1,1.575.193" transform="translate(-38.358 -21.145)"/>
    <path id="Trazado_177867" data-name="Trazado 177867" d="M84.474,46.407l.021,0-.028-.032c0,.012.005.022.007.034" transform="translate(-41.273 -22.659)"/>
    <path id="Trazado_177868" data-name="Trazado 177868" d="M76.991,42.326h0l.029-.005a1.515,1.515,0,0,0-.266-.833.755.755,0,0,0-.392-.26.958.958,0,0,0-.185-.032,1.847,1.847,0,0,0-.687.1l0,.027c-.007,0-.011,0-.018,0a1.382,1.382,0,0,0,1.544,1.026Z" transform="translate(-36.877 -20.128)"/>
    <path id="Trazado_177869" data-name="Trazado 177869" d="M76.2,41.2a1.847,1.847,0,0,0-.687.1,1.847,1.847,0,0,1,.687-.1" transform="translate(-36.896 -20.128)"/>
    <path id="Trazado_177870" data-name="Trazado 177870" d="M75.487,41.448h0Z" transform="translate(-36.877 -20.253)"/>
    <path id="Trazado_177871" data-name="Trazado 177871" d="M78.444,43.4l.029-.005Z" transform="translate(-38.33 -21.206)"/>
    <path id="Trazado_177872" data-name="Trazado 177872" d="M78.444,43.4l.013.009.02.015c0-.011,0-.019,0-.029Z" transform="translate(-38.33 -21.206)"/>
    <path id="Trazado_177873" data-name="Trazado 177873" d="M78.457,43.418l-.013-.009.023.024h.01Z" transform="translate(-38.33 -21.211)"/>
    <path id="Trazado_177874" data-name="Trazado 177874" d="M78.444,43.409Z" transform="translate(-38.33 -21.211)"/>
    <path id="Trazado_177875" data-name="Trazado 177875" d="M78.444,43.409l.013.009-.013-.009" transform="translate(-38.33 -21.211)"/>
    <path id="Trazado_177876" data-name="Trazado 177876" d="M84.22,34.887,82.909,33.9l-.679.4,1.509,1.049.481-.463" transform="translate(-40.18 -16.566)"/>
    <path id="Trazado_177877" data-name="Trazado 177877" d="M83.739,35.733,82.23,34.684Z" transform="translate(-40.18 -16.948)"/>
    <path id="Trazado_177878" data-name="Trazado 177878" d="M87.464,38a.292.292,0,0,0,.125-.01.511.511,0,0,0,.254-.221.285.285,0,0,0,.024-.321.78.78,0,0,0-.368-.279,1.622,1.622,0,0,0-.156-.059l-.462.458c.178.171.376.405.583.433" transform="translate(-42.453 -18.132)"/>
    <path id="Trazado_177879" data-name="Trazado 177879" d="M87.785,37.108h0a1.5,1.5,0,0,1,.156.059,1.5,1.5,0,0,0-.156-.059" transform="translate(-42.895 -18.132)"/>
    <path id="Trazado_177880" data-name="Trazado 177880" d="M94.236,32.223a1.721,1.721,0,0,0,.44.193l.079.026c0-.009,0-.017,0-.026l.05,0c.445-.648.13-.921-.528-1.024l.011.043c-.021,0-.038-.006-.058-.008-.287.409-.22.644.005.8" transform="translate(-45.951 -15.337)"/>
    <path id="Trazado_177881" data-name="Trazado 177881" d="M95.285,33.4l.079.026-.079-.026" transform="translate(-46.559 -16.32)"/>
    <path id="Trazado_177882" data-name="Trazado 177882" d="M94.438,31.38c-.011.014-.015.026-.025.039.02,0,.037.006.058.008Z" transform="translate(-46.133 -15.333)"/>
    <path id="Trazado_177883" data-name="Trazado 177883" d="M94.483,31.384l-.022,0,.033.048-.011-.043" transform="translate(-46.157 -15.333)"/>
    <path id="Trazado_177884" data-name="Trazado 177884" d="M86.051,36.941l.462-.458-.85-.654-.481.463.87.648" transform="translate(-41.622 -17.507)"/>
    <path id="Trazado_177885" data-name="Trazado 177885" d="M74.948,40.884h0l.026-.007q.016-.272.031-.544l-.539.03,0,.033-.033,0a.793.793,0,0,0-.01.246.3.3,0,0,0,.276.263.9.9,0,0,0,.258-.005C74.953,40.9,74.95,40.891,74.948,40.884Z" transform="translate(-36.362 -19.708)"/>
    <path id="Trazado_177886" data-name="Trazado 177886" d="M75.456,41.4l.026-.007Z" transform="translate(-36.87 -20.228)"/>
    <path id="Trazado_177887" data-name="Trazado 177887" d="M75.468,41.413l.012.01,0-.026-.026.006.012.01" transform="translate(-36.87 -20.228)"/>
    <path id="Trazado_177888" data-name="Trazado 177888" d="M75.468,41.419l-.012-.01c0,.008.005.013.007.02h.017l-.012-.01" transform="translate(-36.87 -20.234)"/>
    <path id="Trazado_177889" data-name="Trazado 177889" d="M75.456,41.41Z" transform="translate(-36.87 -20.234)"/>
    <path id="Trazado_177890" data-name="Trazado 177890" d="M75.456,41.41l.012.01Z" transform="translate(-36.87 -20.234)"/>
    <path id="Trazado_177891" data-name="Trazado 177891" d="M73.47,39.741a.284.284,0,0,0,.128.144.545.545,0,0,0,.352.026c0-.014,0-.021,0-.036l.033,0c.01-.181.019-.362.029-.543l-.543.032.008.038c-.015,0-.027-.007-.041-.009,0,.041-.007.081-.007.118a.583.583,0,0,0,.039.232" transform="translate(-35.881 -19.218)"/>
    <path id="Trazado_177892" data-name="Trazado 177892" d="M73.517,39.431h0l-.008-.038.008.038" transform="translate(-35.919 -19.249)"/>
    <path id="Trazado_177893" data-name="Trazado 177893" d="M73.479,39.393h0l-.031,0h0l.031,0" transform="translate(-35.889 -19.249)"/>
    <path id="Trazado_177894" data-name="Trazado 177894" d="M73.525,39.467Z" transform="translate(-35.927 -19.285)"/>
    <path id="Trazado_177895" data-name="Trazado 177895" d="M73.509,39.362l.543-.032Z" transform="translate(-35.919 -19.218)"/>
    <path id="Trazado_177896" data-name="Trazado 177896" d="M73.479,39.393l-.031,0,.02.018.019.018-.008-.038" transform="translate(-35.889 -19.249)"/>
    <path id="Trazado_177897" data-name="Trazado 177897" d="M73.509,39.393Z" transform="translate(-35.919 -19.249)"/>
    <path id="Trazado_177898" data-name="Trazado 177898" d="M73.466,39.414l-.019-.018h0c0,.01,0,.018,0,.028.014,0,.027.007.041.009Z" transform="translate(-35.888 -19.25)"/>
    <path id="Trazado_177899" data-name="Trazado 177899" d="M73.486,39.458c-.015,0-.027-.007-.041-.009.014,0,.026.008.041.009" transform="translate(-35.888 -19.276)"/>
    <path id="Trazado_177900" data-name="Trazado 177900" d="M73.449,39.4l.019.018Z" transform="translate(-35.89 -19.25)"/>
    <path id="Trazado_177901" data-name="Trazado 177901" d="M73.487,39.432l.019.018-.019-.018" transform="translate(-35.908 -19.268)"/>
    <path id="Trazado_177902" data-name="Trazado 177902" d="M73.525,39.467Z" transform="translate(-35.927 -19.285)"/>
    <path id="Trazado_177903" data-name="Trazado 177903" d="M74.482,40.391l-.033,0h0Z" transform="translate(-36.378 -19.736)"/>
    <path id="Trazado_177904" data-name="Trazado 177904" d="M74.465,40.409l.016.015,0-.033-.033,0,.015.016" transform="translate(-36.379 -19.737)"/>
    <path id="Trazado_177905" data-name="Trazado 177905" d="M74.463,40.411l-.016-.016c0,.014,0,.022,0,.036l.033,0-.016-.015" transform="translate(-36.377 -19.738)"/>
    <path id="Trazado_177906" data-name="Trazado 177906" d="M74.45,40.4h0l.015.016L74.45,40.4" transform="translate(-36.379 -19.738)"/>
    <path id="Trazado_177907" data-name="Trazado 177907" d="M74.5,40.441l-.016-.015.016.015" transform="translate(-36.393 -19.754)"/>
    <path id="Trazado_177908" data-name="Trazado 177908" d="M100.971,38.889l.032-.544-.533.023c-.005.013-.008.022-.014.036s-.022,0-.035,0a.837.837,0,0,0-.011.25.3.3,0,0,0,.277.27.88.88,0,0,0,.235-.007c0-.009,0-.016.007-.025l.042-.005" transform="translate(-49.061 -18.737)"/>
    <path id="Trazado_177909" data-name="Trazado 177909" d="M101.422,39.414c0,.009,0,.016-.007.025,0-.009.005-.016.007-.025l.041.023c-.018,0-.03,0-.048,0,.018,0,.029,0,.048,0l-.041-.024.042-.005-.042.005" transform="translate(-49.555 -19.257)"/>
    <path id="Trazado_177910" data-name="Trazado 177910" d="M101.423,39.42c0,.009,0,.016-.007.025.017,0,.029,0,.048,0Z" transform="translate(-49.555 -19.262)"/>
    <path id="Trazado_177911" data-name="Trazado 177911" d="M101.47,39.438l0-.029-.042.005.041.024" transform="translate(-49.562 -19.257)"/>
    <path id="Trazado_177912" data-name="Trazado 177912" d="M99.98,37.787c.259-.6.07-.759-.5-.531-.008.019-.012.035-.021.056l-.037,0a.5.5,0,0,0,.069.44.316.316,0,0,0,.188.085.884.884,0,0,0,.256-.016c0-.014,0-.022,0-.036l.048,0" transform="translate(-48.571 -18.156)"/>
    <path id="Trazado_177913" data-name="Trazado 177913" d="M100.455,38.427l.017.017c-.014,0-.022,0-.035,0,.013,0,.021,0,.035,0l-.017-.017" transform="translate(-49.077 -18.777)"/>
    <path id="Trazado_177914" data-name="Trazado 177914" d="M100.455,38.411l-.017-.017c0,.014,0,.022,0,.036.013,0,.021,0,.035,0Z" transform="translate(-49.077 -18.761)"/>
    <path id="Trazado_177915" data-name="Trazado 177915" d="M100.457,38.409l.017.017c.006-.013.008-.023.014-.036l-.048,0Z" transform="translate(-49.078 -18.759)"/>
    <path id="Trazado_177916" data-name="Trazado 177916" d="M98.926,36.8c.02-.009.037-.013.056-.021.243-.583.023-.7-.512-.51-.007.019-.011.035-.019.056-.016,0-.029,0-.043.007-.075.381.08.532.4.52.036,0,.076-.007.116-.012,0-.015,0-.024,0-.039" transform="translate(-48.076 -17.682)"/>
    <path id="Trazado_177917" data-name="Trazado 177917" d="M99.208,37.48c.036,0,.076-.007.116-.012-.04.006-.08.011-.116.012" transform="translate(-48.476 -18.308)"/>
    <path id="Trazado_177918" data-name="Trazado 177918" d="M99.454,37.427l.017.017-.037,0,.037,0-.017-.017" transform="translate(-48.587 -18.288)"/>
    <path id="Trazado_177919" data-name="Trazado 177919" d="M99.435,37.432l.037,0-.018-.018-.017-.017c0,.015,0,.024,0,.039" transform="translate(-48.587 -18.271)"/>
    <path id="Trazado_177920" data-name="Trazado 177920" d="M99.456,37.39l.017.017c.009-.02.013-.036.021-.056-.019.008-.036.012-.056.021Z" transform="translate(-48.589 -18.251)"/>
    <path id="Trazado_177921" data-name="Trazado 177921" d="M97.988,35.784c.2-.546.036-.718-.51-.513-.007.02-.012.037-.02.058-.016,0-.027,0-.043,0a.7.7,0,0,0,.019.357.279.279,0,0,0,.238.173.579.579,0,0,0,.134,0,1.039,1.039,0,0,0,.119-.019c0-.015,0-.028.007-.043.02-.008.036-.012.056-.019" transform="translate(-47.594 -17.194)"/>
    <path id="Trazado_177922" data-name="Trazado 177922" d="M97.464,36.168a.28.28,0,0,0,.238.173.28.28,0,0,1-.238-.173" transform="translate(-47.624 -17.673)"/>
    <path id="Trazado_177923" data-name="Trazado 177923" d="M98.451,36.426l.018.018c-.016,0-.029,0-.043.007.015,0,.028,0,.043-.007l-.018-.018" transform="translate(-48.094 -17.799)"/>
    <path id="Trazado_177924" data-name="Trazado 177924" d="M98.451,36.408l-.019-.018c0,.016,0,.029-.007.043.015,0,.028,0,.043-.007Z" transform="translate(-48.094 -17.781)"/>
    <path id="Trazado_177925" data-name="Trazado 177925" d="M98.457,36.391l.018.018c.008-.02.012-.036.019-.055l-.056.018Z" transform="translate(-48.1 -17.764)"/>
    <path id="Trazado_177926" data-name="Trazado 177926" d="M96.992,34.756c.192-.537.1-.786-.53-.5,0,.017,0,.034,0,.051l-.037,0c-.065.4.105.573.507.51,0-.014,0-.026,0-.041.021-.008.038-.012.058-.02" transform="translate(-47.109 -16.679)"/>
    <path id="Trazado_177927" data-name="Trazado 177927" d="M97.432,35.39c0,.014,0,.027,0,.04.016,0,.026,0,.043,0Z" transform="translate(-47.606 -17.293)"/>
    <path id="Trazado_177928" data-name="Trazado 177928" d="M97.474,35.409c.008-.021.012-.038.019-.058l-.058.02Z" transform="translate(-47.611 -17.274)"/>
    <path id="Trazado_177929" data-name="Trazado 177929" d="M95.987,33.859c.008-.176.016-.352.024-.529l-.523.031c-.009.014-.013.025-.024.038l-.027-.009a.786.786,0,0,0,.043.341.3.3,0,0,0,.223.185.532.532,0,0,0,.125.011.852.852,0,0,0,.117-.014c0-.015,0-.024,0-.039l.037-.015" transform="translate(-46.633 -16.286)"/>
    <path id="Trazado_177930" data-name="Trazado 177930" d="M95.456,33.439l.01.013-.027-.009.027.009-.01-.013" transform="translate(-46.635 -16.339)"/>
    <path id="Trazado_177931" data-name="Trazado 177931" d="M95.456,33.418,95.44,33.4c0,.009,0,.017,0,.026l.027.009Z" transform="translate(-46.635 -16.319)"/>
    <path id="Trazado_177932" data-name="Trazado 177932" d="M95.467,33.429c.01-.014.014-.025.024-.038l-.05,0,.016.022.01.013" transform="translate(-46.635 -16.316)"/>
    <path id="Trazado_177933" data-name="Trazado 177933" d="M96.437,34.393l.035.035-.037,0,.037,0-.035-.035" transform="translate(-47.121 -16.806)"/>
    <path id="Trazado_177934" data-name="Trazado 177934" d="M96.437,34.393c0,.016,0,.025,0,.04l.037,0Z" transform="translate(-47.121 -16.806)"/>
    <path id="Trazado_177935" data-name="Trazado 177935" d="M96.474,34.414c0-.017,0-.034,0-.051l-.037.015.035.035" transform="translate(-47.123 -16.791)"/>
    <path id="Trazado_177936" data-name="Trazado 177936" d="M69.211,55.718c-.474-.106-.957-.192-1.438-.282l-.269-.05c0,.007.011.011.016.018h0l-.018.006c1.36,1.505,3.225,1.764,5.078,2.051,0-.014,0-.028-.006-.041l0,0a5.676,5.676,0,0,0-2.686-1.528c-.224-.064-.452-.12-.681-.171" transform="translate(-32.984 -27.063)"/>
    <path id="Trazado_177937" data-name="Trazado 177937" d="M67.774,55.436l-.269-.05.269.05" transform="translate(-32.985 -27.063)"/>
    <path id="Trazado_177938" data-name="Trazado 177938" d="M67.492,55.4l-.046-.024.046.025h0" transform="translate(-32.956 -27.058)"/>
    <path id="Trazado_177939" data-name="Trazado 177939" d="M67.52,55.422h0l-.018.005.018-.005" transform="translate(-32.984 -27.081)"/>
    <path id="Trazado_177940" data-name="Trazado 177940" d="M67.5,55.385h0c.005.007.011.011.016.018h0l-.016-.018" transform="translate(-32.985 -27.063)"/>
    <line id="Línea_1422" data-name="Línea 1422" transform="translate(34.52 28.322)"/>
    <path id="Trazado_177941" data-name="Trazado 177941" d="M67.5,55.385Z" transform="translate(-32.985 -27.063)"/>
    <path id="Trazado_177942" data-name="Trazado 177942" d="M67.5,55.385Z" transform="translate(-32.985 -27.063)"/>
    <path id="Trazado_177943" data-name="Trazado 177943" d="M67.476,55.38h0l-.03-.006.046.024c0-.007-.011-.012-.016-.018" transform="translate(-32.956 -27.058)"/>
    <path id="Trazado_177944" data-name="Trazado 177944" d="M67.5,55.385Z" transform="translate(-32.985 -27.063)"/>
    <path id="Trazado_177945" data-name="Trazado 177945" d="M67.5,55.385Z" transform="translate(-32.985 -27.063)"/>
    <path id="Trazado_177946" data-name="Trazado 177946" d="M67.476,55.38l-.03-.006.03.006" transform="translate(-32.956 -27.058)"/>
    <path id="Trazado_177947" data-name="Trazado 177947" d="M77.473,59.409c-.016-.017-.033-.032-.049-.049l0,0Z" transform="translate(-37.831 -29.005)"/>
    <path id="Trazado_177948" data-name="Trazado 177948" d="M67.537,55.422Z" transform="translate(-33.001 -27.081)"/>
    <path id="Trazado_177949" data-name="Trazado 177949" d="M77.426,59.4l.047.007-.053-.048c0,.013,0,.027.006.041" transform="translate(-37.83 -29.007)"/>
    <path id="Trazado_177950" data-name="Trazado 177950" d="M67.493,55.4l-.047-.025c.009.011.019.019.029.03l.018-.006" transform="translate(-32.956 -27.058)"/>
    <path id="Trazado_177951" data-name="Trazado 177951" d="M75.335,49.04l-2.377-.879c1.076,1.563,1.076,1.563,2.377.879" transform="translate(-35.65 -23.533)"/>
    <path id="Trazado_177952" data-name="Trazado 177952" d="M67.112,46.027l.383-.471-.924-.636-.38.413.921.694" transform="translate(-32.343 -21.949)"/>
    <path id="Trazado_177953" data-name="Trazado 177953" d="M66.191,45.727l.921.695h0l-.921-.694" transform="translate(-32.343 -22.344)"/>
    <path id="Trazado_177954" data-name="Trazado 177954" d="M70.773,47.879c.021.018.043.035.059.052l.182-.329-.182-.182a1.587,1.587,0,0,0-.16.343.048.048,0,0,0,.013.036.6.6,0,0,0,.087.08" transform="translate(-34.533 -23.171)"/>
    <path id="Trazado_177955" data-name="Trazado 177955" d="M68.777,46.773c.287-.4-.154-.475-.4-.609l-.383.471c.256.1.52.505.784.137" transform="translate(-33.224 -22.557)"/>
    <path id="Trazado_177956" data-name="Trazado 177956" d="M67.993,46.634l.383-.471Z" transform="translate(-33.224 -22.557)"/>
    <path id="Trazado_177957" data-name="Trazado 177957" d="M63.822,60.756c-.2-.224-.49-.363-.141-.128-.973-.436-1.088-.2-1.225,0a8.255,8.255,0,0,0,1,.523c.347.127.427-.317.362-.39" transform="translate(-30.518 -29.504)"/>
    <path id="Trazado_177958" data-name="Trazado 177958" d="M60.378,59.729a1.643,1.643,0,0,1,.134-.1l-.236-.175,0,0c-.688-.346-.7.026-.873.147.194.121.382.323.583.338.126.009.262-.106.4-.211" transform="translate(-29.024 -28.982)"/>
    <path id="Trazado_177959" data-name="Trazado 177959" d="M61.07,59.563h0" transform="translate(-29.821 -29.09)"/>
    <path id="Trazado_177960" data-name="Trazado 177960" d="M61.351,59.772l-.236-.175Z" transform="translate(-29.863 -29.121)"/>
    <path id="Trazado_177961" data-name="Trazado 177961" d="M57.656,58.923a1.359,1.359,0,0,0,.343-.16c-.029-.03-.06-.072-.089-.105-.006-.007-.01-.01-.016-.016a.25.25,0,0,0-.027-.026.046.046,0,0,0-.036-.013,1.588,1.588,0,0,0-.343.16c.057.057.125.169.168.16" transform="translate(-28.091 -28.635)"/>
    <path id="Trazado_177962" data-name="Trazado 177962" d="M58.282,58.681l.016.015-.016-.015" transform="translate(-28.479 -28.674)"/>
    <path id="Trazado_177963" data-name="Trazado 177963" d="M58.16,58.6a.046.046,0,0,1,.036.013.046.046,0,0,0-.036-.013" transform="translate(-28.419 -28.635)"/>
    <path id="Trazado_177964" data-name="Trazado 177964" d="M58.162,58.919l0,0a1.35,1.35,0,0,1-.342.16,1.457,1.457,0,0,0,.344-.158" transform="translate(-28.252 -28.789)"/>
    <path id="Trazado_177965" data-name="Trazado 177965" d="M104.362,31.923h0l.028.014a1.557,1.557,0,0,0-.17-.994,1.277,1.277,0,0,0-.855-.539c0,.008,0,.016,0,.025s-.022,0-.034-.006c-.34.972.079,1.438,1.042,1.54C104.369,31.949,104.366,31.936,104.362,31.923Z" transform="translate(-50.434 -14.856)"/>
    <path id="Trazado_177966" data-name="Trazado 177966" d="M105.458,33.374h0l.028.014-.028-.014" transform="translate(-51.53 -16.308)"/>
    <path id="Trazado_177967" data-name="Trazado 177967" d="M105.458,33.375Z" transform="translate(-51.53 -16.308)"/>
    <path id="Trazado_177968" data-name="Trazado 177968" d="M105.458,33.375l.026.041c0-.01,0-.018,0-.028l-.027-.014" transform="translate(-51.53 -16.308)"/>
    <path id="Trazado_177969" data-name="Trazado 177969" d="M105.458,33.374c0,.013.007.027.011.04h0C105.465,33.4,105.463,33.388,105.458,33.374Z" transform="translate(-51.53 -16.308)"/>
    <path id="Trazado_177970" data-name="Trazado 177970" d="M105.469,33.414l.014,0-.026-.042c0,.014.007.026.011.039" transform="translate(-51.53 -16.308)"/>
    <path id="Trazado_177971" data-name="Trazado 177971" d="M102.386,28.96c0-.009,0-.017.008-.027l.025.007a2.6,2.6,0,0,0-.1-.754,1.164,1.164,0,0,0-.229-.413,1.089,1.089,0,0,0-.417-.287,1.624,1.624,0,0,0-.264-.076c0,.008,0,.015,0,.024-.017.009-.032.013-.049.02-.253.9.1,1.4,1.026,1.506" transform="translate(-49.489 -13.393)"/>
    <path id="Trazado_177972" data-name="Trazado 177972" d="M101.514,27.44h0l-.018-.016.018.016" transform="translate(-49.594 -13.4)"/>
    <path id="Trazado_177973" data-name="Trazado 177973" d="M101.461,27.392h0l.018.016Z" transform="translate(-49.577 -13.385)"/>
    <path id="Trazado_177974" data-name="Trazado 177974" d="M101.528,27.434l0-.024h0C101.525,27.418,101.526,27.425,101.528,27.434Z" transform="translate(-49.608 -13.393)"/>
    <path id="Trazado_177975" data-name="Trazado 177975" d="M101.5,27.425l0-.024-.032-.009.018.016Z" transform="translate(-49.577 -13.385)"/>
    <path id="Trazado_177976" data-name="Trazado 177976" d="M101.532,27.456Z" transform="translate(-49.612 -13.416)"/>
    <path id="Trazado_177977" data-name="Trazado 177977" d="M101.485,27.425l-.018-.016-.018-.016c-.006.019-.007.035-.012.053.016-.008.032-.011.049-.02" transform="translate(-49.565 -13.385)"/>
    <path id="Trazado_177978" data-name="Trazado 177978" d="M103.458,30.389h0l.009.011Z" transform="translate(-50.553 -14.849)"/>
    <path id="Trazado_177979" data-name="Trazado 177979" d="M103.484,30.421c0-.009,0-.016,0-.025l-.025-.007.009.011.017.021" transform="translate(-50.553 -14.849)"/>
    <path id="Trazado_177980" data-name="Trazado 177980" d="M103.46,30.4l-.009-.011c0,.009,0,.017-.008.027.012,0,.021,0,.034.006l-.017-.021" transform="translate(-50.546 -14.849)"/>
    <path id="Trazado_177981" data-name="Trazado 177981" d="M85.017,195.478c10.029-1.254,18.288-5.845,23.012-15.437,3.131-6.357-.737-11.557-7.784-10.879-7.892.759-20.627,8.8-22.091,20.157-.414,3.218.556,4.949,3.717,5.741a29.647,29.647,0,0,0,3.145.418M107.5,174.752c-1.473-1.129-2.312-2.3-4.126-2.787,2.56-.623,3.473.021,4.126,2.787" transform="translate(-38.145 -82.63)" fill="#fcfcfc"/>
    <path id="Trazado_177982" data-name="Trazado 177982" d="M109.256,188.194c-5.147,7.418-12.448,11.319-21.25,12.577q-.4.056-.791.091c-.23.02-.46.034-.689.042-.1,0-.2,0-.3,0-.129,0-.258.005-.386,0-.054,0-.108-.007-.162-.009-.175-.007-.35-.014-.524-.029l-.072-.008a9.428,9.428,0,0,1-3.268-.894,5.824,5.824,0,0,0,5.621,2.477,37,37,0,0,0,10.847-2.995c6.7-3.012,11.752-7.7,14.534-14.6.978-2.423,1.1-4.849-.833-6.989a14.331,14.331,0,0,1-2.724,10.329" transform="translate(-39.976 -86.911)" fill="#fff"/>
    <path id="Trazado_177983" data-name="Trazado 177983" d="M88.343,222.851c.174.015.349.022.524.029-.175-.007-.35-.014-.524-.029" transform="translate(-43.167 -108.893)" fill="#fff"/>
    <path id="Trazado_177984" data-name="Trazado 177984" d="M90.07,222.92c-.129,0-.258.005-.386,0,.128,0,.257,0,.386,0" transform="translate(-43.823 -108.926)" fill="#fff"/>
    <path id="Trazado_177985" data-name="Trazado 177985" d="M81.807,221.081l0,0a9.421,9.421,0,0,0,3.269.894,9.4,9.4,0,0,1-3.27-.9" transform="translate(-39.974 -108.028)" fill="#fff"/>
    <path id="Trazado_177986" data-name="Trazado 177986" d="M91.03,222.877q.344-.012.688-.042-.344.03-.688.042" transform="translate(-44.48 -108.885)" fill="#fff"/>
    <path id="Trazado_177987" data-name="Trazado 177987" d="M88.2,222.834l.072.009-.072-.009" transform="translate(-43.098 -108.884)" fill="#fff"/>
    <path id="Trazado_177988" data-name="Trazado 177988" d="M90.439,222.919c.1,0,.2,0,.3,0-.1,0-.2,0-.3,0" transform="translate(-44.192 -108.925)" fill="#fff"/>
    <path id="Trazado_177989" data-name="Trazado 177989" d="M89.53,222.916c-.054,0-.108-.007-.162-.009.054,0,.107.007.162.009" transform="translate(-43.668 -108.92)" fill="#fff"/>
    <path id="Trazado_177990" data-name="Trazado 177990" d="M81.761,221.061l.019.008,0,0Z" transform="translate(-39.951 -108.018)" fill="#fff"/>
    <line id="Línea_1423" data-name="Línea 1423" transform="translate(41.833 113.053)" fill="#fff"/>
    <path id="Trazado_177991" data-name="Trazado 177991" d="M81.238,221.1l.287-.025-.022-.01-.265.034" transform="translate(-39.696 -108.019)" fill="#fff"/>
    <path id="Trazado_177992" data-name="Trazado 177992" d="M81.524,221.07l-.02-.008-.266.035.265-.035.022.01h0l0,0" transform="translate(-39.696 -108.018)" fill="#fff"/>
    <path id="Trazado_177993" data-name="Trazado 177993" d="M81.8,221.078l0,0Z" transform="translate(-39.969 -108.025)" fill="#fff"/>
    <path id="Trazado_177994" data-name="Trazado 177994" d="M127.551,174.491c1.813.488,2.652,1.658,4.126,2.787-.654-2.766-1.566-3.41-4.126-2.787" transform="translate(-62.326 -85.156)"/>
  </g>
</svg>
