<svg xmlns="http://www.w3.org/2000/svg" xmlns:xlink="http://www.w3.org/1999/xlink" width="1320" height="506.835" viewBox="0 0 1320 506.835">
  <defs>
    <clipPath id="clip-path">
      <path id="Rectangle_652" data-name="Rectangle 652" d="M1299.213,0H20.787C9.307,0,0,8.4,0,18.772V488.063c0,10.367,9.307,18.772,20.787,18.772H1299.213c11.48,0,20.787-8.4,20.787-18.772V18.772C1320,8.4,1310.693,0,1299.213,0Z" transform="translate(144.333 70)" fill="#ffd947"/>
    </clipPath>
  </defs>
  <g id="Grupo_165661" data-name="Grupo 165661" transform="translate(-510 -3608)">
    <path id="Rectangle_652-2" data-name="Rectangle 652" d="M1299.213,0H20.787C9.307,0,0,8.4,0,18.772V488.063c0,10.367,9.307,18.772,20.787,18.772H1299.213c11.48,0,20.787-8.4,20.787-18.772V18.772C1320,8.4,1310.693,0,1299.213,0Z" transform="translate(510 3608)" fill="#fcf2ca"/>
    <g id="Enmascarar_grupo_108" data-name="Enmascarar grupo 108" transform="translate(365.667 3538)" clip-path="url(#clip-path)">
      <g id="Grupo_165646" data-name="Grupo 165646" transform="translate(97.728 -1397.084)">
        <path id="Trazado_150526" data-name="Trazado 150526" d="M73.524,1697.663a61.009,61.009,0,0,0,35.713-48.433c1.952-18.021-4.153-37.323,3.366-53.816,8.961-19.659,33.661-26.761,55.251-25.96s43.044,7.137,64.5,4.645c28.9-3.356,55.118-24.007,65.148-51.322,6.547-17.828,6-37.952-.7-55.693H43.6v234.965A59.839,59.839,0,0,0,73.524,1697.663Z" fill="#fde893" opacity="0.787"/>
        <path id="Trazado_150527" data-name="Trazado 150527" d="M97.583,1726.888c22.746-16.924,35.872-45.981,33.534-74.236-1.251-15.123-6.39-31.356.753-44.745,5.848-10.961,18.692-16.624,31.076-17.62s24.706,1.845,36.977,3.792c28.9,4.584,59.019,4.152,86.813-5s53.109-27.58,67.251-53.2c11.456-20.753,14.768-46.315,7.925-68.8h-65.1c6.693,17.741,7.243,37.865.7,55.693-10.03,27.315-36.244,47.966-65.148,51.322-21.46,2.492-42.914-3.843-64.5-4.645s-46.29,6.3-55.251,25.96c-7.519,16.493-1.414,35.8-3.366,53.816a61.009,61.009,0,0,1-35.713,48.433,59.839,59.839,0,0,1-29.919,4.386v41.158A85.365,85.365,0,0,0,97.583,1726.888Z" fill="#fcdc69"/>
        <path id="Trazado_150528" data-name="Trazado 150528" d="M1041.51,1936.14c-22.788,17.621-41.469,40.489-65.961,55.654-33.64,20.83-74.727,25.061-114.252,26.864s-80.074,1.879-117.076,15.892c-29.572,11.2-56.827,33.771-67.941,62.534h75.914c16.916-26.329,42.463-47.2,72.244-56.951,59.454-19.462,128.594,2.72,184.606-25.142,39.678-19.737,66.491-62.067,108.972-74.688,30.736-9.131,64.558-.5,92.076,15.959a222.085,222.085,0,0,1,33.513,25.055v-61.773C1180.479,1886.971,1098.059,1892.411,1041.51,1936.14Z" transform="translate(123.992 -120)" fill="#f5cc3a"/>
        <path id="Trazado_150529" data-name="Trazado 150529" d="M1118.016,1940.3c-42.481,12.621-69.294,54.951-108.972,74.688-56.012,27.862-125.152,5.68-184.606,25.142-29.781,9.749-55.328,30.622-72.244,56.951H1243.6V1981.317a222.085,222.085,0,0,0-33.513-25.055C1182.574,1939.805,1148.752,1931.172,1118.016,1940.3Z" transform="translate(123.992 -120)" fill="#ffe272" opacity="0.614"/>
        <g id="Grupo_165640" data-name="Grupo 165640" transform="matrix(-0.485, 0.875, -0.875, -0.485, 525.046, 1359.601)">
          <g id="Grupo_165636" data-name="Grupo 165636" transform="translate(142.989 194.851)" style="mix-blend-mode: overlay;isolation: isolate">
            <path id="Trazado_150530" data-name="Trazado 150530" d="M486.285,376.232c-25.158,25.743-51.156,50.54-77.651,74.9,11.456-25.9,23.805-51.386,34.682-77.557,12.328-29.669,26.662-70.111,11.117-101.232-35.424-70.936-124.969-1.332-157.923,34.374-3.509,3.807-6.861,7.78-10.255,11.707,11.775-28.834,22.375-58.461,19.576-89.614-3.848-42.833-43.115-53.109-76.92-33.2-36.3,21.367-65.459,58.341-89.8,91.922-20.678,28.521,26.636,55.673,47.151,27.56a370.886,370.886,0,0,1,36.859-43.115q-2.937,5.381-5.937,10.741c-13.226,23.628-26.291,47.35-37.068,72.22-20.636,47.616-51.156,113.539-25.195,163.625,13.086,25.241,43.768,27.805,66.868,17.534,31.053-13.806,52.561-44.285,73.3-70.08,21.644-26.933,40.708-55.532,60.743-83.635,8.37-11.743,16.735-23.654,26.322-34.452.219-.251.449-.48.668-.726l-.24.757c-5.321,16.542-12.161,32.416-19.09,48.332-12.887,29.612-29.513,60.78-34.233,93-4.172,28.489,7.362,60.42,41.627,58.352,32.212-1.942,58.028-32.969,79.562-53.689,26.077-25.1,51.689-50.686,77.306-76.252C554.5,391,512.712,349.2,486.285,376.232Z" transform="translate(-128.709 -180.607)" fill="#3c384f"/>
            <path id="Trazado_150531" data-name="Trazado 150531" d="M372.087,557.187c-12.642,0-23.372-4.438-31.178-12.939-10.851-11.817-15.54-31.064-12.548-51.485,3.9-26.625,15.513-52.128,26.74-76.784,2.689-5.906,5.352-11.754,7.869-17.54,2.386-5.488,4.9-11.253,7.389-17.216q-2.287,3.188-4.527,6.339l-1.483,2.083c-5.206,7.3-10.344,14.631-15.477,21.962-14.417,20.573-29.325,41.851-45.449,61.913-2.355,2.929-4.72,5.921-7.112,8.945-18.49,23.382-39.444,49.882-68.132,62.634-25.576,11.357-59.072,8.177-73.62-19.9-26.145-50.436,2.083-115.336,22.7-162.722l2.339-5.389c6.062-14,12.861-27.664,20.072-41.267q-2.507,3.266-4.919,6.579c-12.683,17.378-34.9,17.117-49.052,6.819-11.707-8.516-18.276-24.349-6.548-40.525,25.988-35.846,55.047-71.97,91.384-93.358,20.166-11.869,42.238-13.8,59.057-5.154,14.809,7.608,23.941,22.662,25.711,42.394,2.078,23.142-2.919,45.292-10.161,66.424,26.813-26.2,76.4-63.349,116.187-57.72,18.276,2.6,32.421,13.686,42.045,32.959,15.832,31.7,3.342,71.155-10.965,105.571-6.809,16.386-14.3,32.729-21.539,48.54l-2.564,5.592c21.55-20.208,40.828-39.032,58.519-57.13v.005c8.746-8.955,19.858-12.245,31.257-9.284a38.474,38.474,0,0,1,26.62,26.427c3.123,11.514-.068,22.761-8.992,31.664l-2.914,2.9c-24.255,24.208-49.334,49.24-74.461,73.411-3.1,2.982-6.276,6.172-9.556,9.462-19.508,19.555-43.783,43.9-73.312,45.679C374.327,557.156,373.2,557.187,372.087,557.187Zm14.981-210.751a4.929,4.929,0,0,1,2.527.674,5.08,5.08,0,0,1,2.465,5.927l-.245.762c-5.577,17.346-12.85,34.061-19.268,48.807-2.543,5.843-5.232,11.743-7.942,17.7-10.924,24-22.223,48.812-25.91,73.975-2.5,17.085,1.295,33.528,9.905,42.906,6.386,6.955,15.2,10.1,26.234,9.477,25.565-1.546,47.339-23.372,66.55-42.635,3.331-3.337,6.564-6.579,9.707-9.608,25.059-24.108,50.107-49.1,74.33-73.281l2.908-2.9c7.9-7.874,7.775-16.057,6.292-21.534a28.109,28.109,0,0,0-19.169-19.054c-5.4-1.41-13.451-1.42-21.158,6.47v.005c-22.855,23.377-48.321,47.94-77.86,75.087a5.222,5.222,0,0,1-8.308-5.958c4.329-9.791,8.788-19.519,13.247-29.246,7.2-15.728,14.652-31.988,21.388-48.2,13.4-32.238,25.221-68.962,11.268-96.893-8.109-16.25-19.289-25.174-34.176-27.283-37.089-5.253-89.248,34.7-115.236,62.869-2.773,3-5.441,6.109-8.114,9.221l-2.021,2.355a5.222,5.222,0,0,1-8.788-5.384c11.211-27.466,21.931-56.822,19.205-87.181-1.462-16.265-8.407-28.035-20.082-34.035-13.618-7-31.93-5.175-48.989,4.861-34.682,20.422-62.9,55.558-88.225,90.491-8,11.039-3.06,20.646,4.235,25.952,9.879,7.18,25.314,8.026,34.473-4.532a378.147,378.147,0,0,1,37.377-43.726,5.224,5.224,0,0,1,8.287,6.188q-2.953,5.4-5.968,10.788c-13.388,23.926-26.286,47.418-36.828,71.745l-2.345,5.4c-19.78,45.465-46.859,107.733-23.007,153.751,11.587,22.354,39.011,24.536,60.112,15.164,26.333-11.7,45.574-36.035,64.179-59.568,2.407-3.039,4.793-6.057,7.169-9.007,15.905-19.8,30.708-40.927,45.031-61.365q7.723-11.028,15.524-22.03l1.483-2.078c7.859-11.033,15.983-22.437,25.189-32.813l.465-.506A5.7,5.7,0,0,1,387.068,346.436ZM490.56,380.466h0Z" transform="translate(-132.979 -184.841)" fill="#3c384f"/>
            <path id="Trazado_150532" data-name="Trazado 150532" d="M160.229,225.421c-19.237,38.661-30.092,83.985-13.19,125.539,2.5,6.146,12.6,3.457,10.067-2.778-15.863-39.016-5.953-81.129,12.14-117.492C172.234,224.7,163.227,219.4,160.229,225.421Z" transform="translate(-108.991 -24.736)" fill="#3c384f"/>
            <path id="Trazado_150533" data-name="Trazado 150533" d="M158.8,267.243c-.089-.01-.172-.036-.256-.052-.146-.282-.277-.59-.324-.674l-.026-.031c-.01-.042.005-.01-.01-.073-.674-2.334-1.154-4.694-1.666-7.07q-1.77-8.263-3.546-16.526a5.258,5.258,0,0,0-6.423-3.645,5.344,5.344,0,0,0-3.65,6.423q2.005,9.344,4.015,18.693c1.112,5.185,2.893,11.989,9.107,13.028,2.684.449,5.754-.7,6.423-3.65C163.017,271.143,161.68,267.723,158.8,267.243Z" transform="translate(-91.701 43.655)" fill="#3c384f"/>
            <path id="Trazado_150534" data-name="Trazado 150534" d="M202.244,202.259c-5.927-3.164-11.206,5.848-5.269,9.018,8.2,4.376,10.7,13.284,11.023,22.035a151.018,151.018,0,0,1-2.355,29.936,198.677,198.677,0,0,1-18.124,56.091c-2.982,6,6.021,11.294,9.018,5.269a208.975,208.975,0,0,0,20.27-66.059C219.266,239.73,222.211,212.917,202.244,202.259Z" transform="translate(94.745 -114.106)" fill="#3c384f"/>
          </g>
          <g id="Grupo_165639" data-name="Grupo 165639" transform="translate(130.608 182.47)">
            <g id="Grupo_165638" data-name="Grupo 165638">
              <g id="Grupo_165637" data-name="Grupo 165637">
                <path id="Trazado_150535" data-name="Trazado 150535" d="M483.918,373.863c-25.158,25.743-51.156,50.54-77.656,74.894,11.456-25.894,23.811-51.386,34.687-77.552,12.328-29.669,26.657-70.111,11.117-101.232-35.424-70.936-124.97-1.337-157.923,34.374-3.514,3.8-6.861,7.775-10.255,11.707,11.77-28.834,22.37-58.461,19.576-89.614-3.848-42.833-43.115-53.109-76.92-33.21-36.306,21.372-65.459,58.347-89.807,91.927-20.678,28.521,26.641,55.673,47.157,27.56a371.356,371.356,0,0,1,36.854-43.12q-2.937,5.381-5.932,10.746c-13.226,23.628-26.291,47.35-37.068,72.215-20.641,47.621-51.156,113.539-25.194,163.63,13.085,25.241,43.763,27.805,66.868,17.534,31.053-13.806,52.561-44.285,73.3-70.08,21.644-26.933,40.7-55.532,60.738-83.635,8.376-11.743,16.741-23.654,26.322-34.458.219-.245.454-.475.674-.726l-.24.762c-5.321,16.542-12.166,32.416-19.09,48.332-12.892,29.607-29.513,60.775-34.233,93-4.177,28.489,7.363,60.42,41.627,58.352,32.207-1.943,58.023-32.969,79.557-53.689,26.082-25.1,51.694-50.692,77.312-76.257C552.128,388.635,510.339,346.83,483.918,373.863Z" transform="translate(-126.342 -178.237)" fill="#6b8dfc"/>
                <path id="Trazado_150536" data-name="Trazado 150536" d="M369.711,554.811c-12.642,0-23.367-4.433-31.173-12.934C327.687,530.06,323,510.814,325.99,490.386c3.9-26.62,15.508-52.122,26.74-76.784,2.684-5.906,5.347-11.749,7.869-17.534,2.386-5.488,4.9-11.253,7.389-17.216-1.525,2.12-3.034,4.24-4.527,6.339l-1.483,2.078c-5.206,7.3-10.344,14.636-15.482,21.962-14.412,20.578-29.32,41.857-45.444,61.913q-3.532,4.4-7.112,8.95c-18.49,23.377-39.444,49.877-68.132,62.634-25.581,11.357-59.072,8.172-73.62-19.9-26.145-50.431,2.083-115.33,22.693-162.722l2.344-5.384c6.062-14,12.861-27.664,20.067-41.267q-2.5,3.266-4.919,6.574c-12.678,17.383-34.891,17.122-49.047,6.825-11.707-8.516-18.276-24.349-6.548-40.525,25.988-35.846,55.047-71.97,91.379-93.363,20.171-11.864,42.238-13.79,59.062-5.149,14.809,7.608,23.936,22.657,25.711,42.389,2.078,23.142-2.919,45.3-10.167,66.425,26.818-26.192,76.4-63.344,116.187-57.715,18.276,2.6,32.426,13.686,42.05,32.959,15.827,31.7,3.337,71.15-10.965,105.571-6.809,16.38-14.3,32.729-21.539,48.535l-2.564,5.592c21.55-20.2,40.828-39.026,58.519-57.125h0c8.746-8.955,19.858-12.239,31.257-9.279a38.457,38.457,0,0,1,26.615,26.427c3.128,11.514-.063,22.756-8.986,31.659l-2.914,2.908c-24.255,24.207-49.334,49.235-74.461,73.411-3.1,2.982-6.276,6.172-9.561,9.462-19.5,19.555-43.778,43.9-73.307,45.679C371.951,554.78,370.828,554.811,369.711,554.811Zm14.981-210.75a4.921,4.921,0,0,1,2.527.679,5.074,5.074,0,0,1,2.47,5.927l-.245.762c-5.577,17.341-12.85,34.061-19.268,48.807-2.543,5.838-5.232,11.738-7.942,17.7-10.929,24-22.229,48.812-25.915,73.97-2.5,17.085,1.295,33.528,9.911,42.911,6.381,6.95,15.2,10.1,26.234,9.477,25.565-1.546,47.339-23.372,66.545-42.635,3.331-3.342,6.569-6.584,9.712-9.608,25.059-24.108,50.107-49.1,74.33-73.28l2.908-2.909c7.89-7.869,7.775-16.051,6.287-21.534a28.092,28.092,0,0,0-19.169-19.049c-5.4-1.41-13.446-1.42-21.153,6.47h0c-22.855,23.377-48.321,47.94-77.86,75.092a5.222,5.222,0,0,1-8.308-5.958c4.329-9.791,8.788-19.519,13.242-29.252,7.206-15.722,14.652-31.983,21.393-48.2,13.4-32.238,25.221-68.962,11.268-96.9-8.114-16.245-19.294-25.168-34.176-27.283C380.394,244,328.23,283.959,302.242,312.12c-2.767,3-5.436,6.115-8.109,9.221l-2.026,2.36a5.223,5.223,0,0,1-8.788-5.389c11.216-27.461,21.936-56.822,19.21-87.175-1.462-16.271-8.407-28.04-20.082-34.04-13.623-6.992-31.93-5.169-48.989,4.867-34.687,20.417-62.9,55.558-88.225,90.491-8,11.039-3.06,20.641,4.235,25.946,9.879,7.185,25.315,8.031,34.473-4.527a377.208,377.208,0,0,1,37.376-43.726,5.22,5.22,0,0,1,8.282,6.182q-2.953,5.412-5.963,10.793c-13.393,23.926-26.286,47.418-36.833,71.745l-2.344,5.4c-19.774,45.465-46.854,107.733-23,153.746,11.587,22.359,39.011,24.542,60.111,15.169,26.333-11.7,45.574-36.04,64.179-59.568q3.611-4.566,7.164-9.013c15.91-19.79,30.714-40.922,45.037-61.359q7.723-11.028,15.524-22.035l1.483-2.073c7.859-11.033,15.983-22.443,25.184-32.813l.47-.507A5.694,5.694,0,0,1,384.691,344.06ZM488.184,378.1h0Z" transform="translate(-130.608 -182.47)"/>
              </g>
              <path id="Trazado_150537" data-name="Trazado 150537" d="M157.861,223.051c-19.242,38.661-30.092,83.98-13.2,125.539,2.5,6.141,12.605,3.457,10.073-2.778-15.869-39.021-5.958-81.129,12.14-117.492C169.86,222.32,160.858,217.025,157.861,223.051Z" transform="translate(-106.623 -22.366)"/>
              <path id="Trazado_150538" data-name="Trazado 150538" d="M156.426,264.872c-.089-.01-.172-.036-.256-.052-.146-.287-.282-.59-.329-.674l-.021-.031c-.01-.042.005-.016-.01-.078-.674-2.329-1.159-4.694-1.666-7.065q-1.778-8.263-3.545-16.526a5.261,5.261,0,0,0-6.428-3.645,5.343,5.343,0,0,0-3.645,6.423l4.01,18.688c1.117,5.19,2.9,11.994,9.112,13.033,2.684.444,5.754-.7,6.423-3.65C160.646,268.772,159.3,265.352,156.426,264.872Z" transform="translate(-89.33 46.027)"/>
              <path id="Trazado_150539" data-name="Trazado 150539" d="M199.874,199.888c-5.927-3.164-11.211,5.848-5.269,9.018,8.2,4.376,10.694,13.284,11.023,22.03a151.069,151.069,0,0,1-2.355,29.941,198.678,198.678,0,0,1-18.124,56.091c-2.987,6,6.021,11.294,9.018,5.269a209.191,209.191,0,0,0,20.27-66.059C216.9,237.354,219.842,210.54,199.874,199.888Z" transform="translate(97.115 -111.735)"/>
            </g>
          </g>
        </g>
        <g id="Grupo_165645" data-name="Grupo 165645" transform="matrix(0.988, 0.156, -0.156, 0.988, -73.658, 1699.953)">
          <g id="Grupo_165641" data-name="Grupo 165641" transform="translate(135.092 186.953)" style="mix-blend-mode: overlay;isolation: isolate">
            <path id="Trazado_150540" data-name="Trazado 150540" d="M261.563,254.787c-9.11,9.322-18.525,18.3-28.119,27.122,4.149-9.379,8.62-18.608,12.559-28.085,4.464-10.744,9.655-25.389,4.026-36.658-12.828-25.687-45.254-.482-57.187,12.448-1.271,1.378-2.485,2.817-3.714,4.239,4.264-10.441,8.1-21.17,7.089-32.451-1.394-15.511-15.613-19.232-27.854-12.024-13.145,7.737-23.7,21.127-32.519,33.287-7.488,10.328,9.645,20.16,17.074,9.98a134.3,134.3,0,0,1,13.348-15.613q-1.064,1.949-2.15,3.889a289.835,289.835,0,0,0-13.423,26.152c-7.473,17.243-18.525,41.115-9.123,59.252,4.738,9.14,15.849,10.069,24.214,6.35,11.245-5,19.033-16.036,26.542-25.377,7.838-9.753,14.741-20.109,22-30.286a147.383,147.383,0,0,1,9.532-12.476c.079-.091.163-.174.242-.263l-.087.274c-1.927,5.99-4.4,11.738-6.913,17.5-4.667,10.723-10.687,22.01-12.4,33.676-1.511,10.317,2.666,21.879,15.074,21.13,11.665-.7,21.013-11.939,28.811-19.442,9.443-9.087,18.718-18.355,27.994-27.612C286.266,260.136,271.133,245,261.563,254.787Z" transform="translate(-132.078 -183.947)" fill="#3c384f"/>
            <path id="Trazado_150541" data-name="Trazado 150541" d="M219.565,319.674a14.823,14.823,0,0,1-11.29-4.685c-3.929-4.279-5.627-11.249-4.544-18.644,1.412-9.642,5.618-18.876,9.683-27.805.974-2.139,1.938-4.256,2.849-6.351.864-1.987,1.774-4.075,2.676-6.234q-.828,1.154-1.639,2.3l-.537.754q-2.828,3.965-5.6,7.953c-5.221,7.45-10.619,15.155-16.458,22.42-.853,1.061-1.709,2.144-2.575,3.239-6.7,8.467-14.284,18.063-24.672,22.681-9.261,4.113-21.391,2.961-26.659-7.206-9.468-18.264.754-41.765,8.22-58.925l.847-1.951c2.2-5.069,4.657-10.018,7.268-14.943q-.908,1.183-1.781,2.382c-4.593,6.293-12.637,6.2-17.763,2.469-4.239-3.084-6.618-8.817-2.371-14.675,9.411-12.981,19.933-26.062,33.092-33.807,7.3-4.3,15.3-5,21.386-1.866,5.362,2.755,8.67,8.206,9.311,15.352.753,8.38-1.057,16.4-3.68,24.054,9.71-9.486,27.667-22.94,42.073-20.9,6.618.94,11.74,4.956,15.225,11.935,5.733,11.477,1.21,25.767-3.971,38.229-2.466,5.934-5.177,11.852-7.8,17.577l-.928,2.025c7.8-7.318,14.785-14.134,21.191-20.688v0A11.361,11.361,0,0,1,272.431,251a13.932,13.932,0,0,1,9.64,9.57,11.464,11.464,0,0,1-3.256,11.466l-1.055,1.051c-8.783,8.766-17.865,17.831-26.964,26.584-1.121,1.08-2.273,2.235-3.46,3.426-7.064,7.081-15.855,15.9-26.548,16.541C220.376,319.663,219.967,319.674,219.565,319.674Zm5.425-76.317a1.785,1.785,0,0,1,.915.244,1.839,1.839,0,0,1,.892,2.146l-.089.276c-2.019,6.281-4.653,12.334-6.977,17.674-.921,2.116-1.895,4.253-2.876,6.408-3.956,8.69-8.047,17.676-9.382,26.788-.906,6.187.469,12.141,3.587,15.537,2.313,2.519,5.5,3.659,9.5,3.432,9.258-.56,17.143-8.463,24.1-15.439,1.206-1.208,2.377-2.383,3.515-3.479,9.074-8.73,18.145-17.782,26.916-26.536l1.053-1.051a7.69,7.69,0,0,0,2.279-7.8,10.179,10.179,0,0,0-6.941-6.9A7.576,7.576,0,0,0,263.818,257v0c-8.276,8.465-17.5,17.36-28.195,27.19a1.891,1.891,0,0,1-3.008-2.157c1.568-3.545,3.182-7.068,4.8-10.591,2.607-5.7,5.306-11.583,7.745-17.455,4.854-11.674,9.133-24.973,4.08-35.087-2.937-5.884-6.985-9.116-12.376-9.88-13.431-1.9-32.319,12.567-41.729,22.766-1,1.085-1.97,2.212-2.938,3.339l-.732.853a1.891,1.891,0,0,1-3.182-1.949c4.06-9.946,7.942-20.576,6.955-31.57-.529-5.89-3.044-10.152-7.272-12.325-4.931-2.534-11.563-1.874-17.74,1.76-12.559,7.4-22.777,20.119-31.948,32.769-2.9,4-1.108,7.476,1.534,9.4,3.577,2.6,9.167,2.906,12.483-1.641a136.935,136.935,0,0,1,13.535-15.834,1.892,1.892,0,0,1,3,2.241q-1.069,1.957-2.161,3.906a289.275,289.275,0,0,0-13.336,25.98l-.849,1.955c-7.163,16.464-16.969,39.012-8.331,55.676,4.2,8.095,14.127,8.885,21.768,5.491,9.536-4.237,16.5-13.049,23.241-21.571.872-1.1,1.736-2.193,2.6-3.262,5.76-7.168,11.12-14.82,16.307-22.221q2.8-3.993,5.622-7.977l.537-.753a140.678,140.678,0,0,1,9.121-11.882l.168-.183A2.064,2.064,0,0,1,224.99,243.358Zm37.477,12.323h0Z" transform="translate(-132.979 -184.841)" fill="#3c384f"/>
            <path id="Trazado_150542" data-name="Trazado 150542" d="M146.472,223.727c-6.966,14-10.9,30.413-4.776,45.46.9,2.226,4.563,1.252,3.646-1.006-5.744-14.128-2.156-29.378,4.4-42.546C150.819,223.464,147.557,221.545,146.472,223.727Z" transform="translate(-127.917 -151.055)" fill="#3c384f"/>
            <path id="Trazado_150543" data-name="Trazado 150543" d="M148.566,249.205c-.032,0-.062-.013-.093-.019-.053-.1-.1-.214-.117-.244l-.009-.011c0-.015,0,0,0-.026-.244-.845-.418-1.7-.6-2.56q-.641-2.992-1.284-5.985a1.9,1.9,0,0,0-2.326-1.32,1.935,1.935,0,0,0-1.322,2.326q.726,3.384,1.454,6.769c.4,1.878,1.048,4.341,3.3,4.718a1.937,1.937,0,0,0,2.326-1.322A1.912,1.912,0,0,0,148.566,249.205Z" transform="translate(-124.269 -136.623)" fill="#3c384f"/>
            <path id="Trazado_150544" data-name="Trazado 150544" d="M192.47,201.836c-2.146-1.146-4.058,2.118-1.908,3.265,2.969,1.585,3.874,4.81,3.992,7.979a54.689,54.689,0,0,1-.853,10.84,71.946,71.946,0,0,1-6.563,20.312c-1.08,2.173,2.18,4.09,3.266,1.908a75.673,75.673,0,0,0,7.34-23.921C198.634,215.4,199.7,205.7,192.47,201.836Z" transform="translate(-84.925 -169.914)" fill="#3c384f"/>
          </g>
          <g id="Grupo_165644" data-name="Grupo 165644" transform="translate(130.608 182.47)">
            <g id="Grupo_165643" data-name="Grupo 165643">
              <g id="Grupo_165642" data-name="Grupo 165642">
                <path id="Trazado_150545" data-name="Trazado 150545" d="M259.193,252.416c-9.11,9.322-18.525,18.3-28.121,27.121,4.149-9.377,8.622-18.608,12.561-28.083,4.464-10.744,9.653-25.389,4.026-36.658-12.828-25.687-45.254-.484-57.187,12.447-1.273,1.377-2.485,2.815-3.714,4.239,4.262-10.441,8.1-21.17,7.089-32.451-1.394-15.511-15.613-19.232-27.854-12.026-13.147,7.739-23.7,21.128-32.521,33.288-7.488,10.328,9.647,20.16,17.076,9.98a134.473,134.473,0,0,1,13.346-15.615q-1.064,1.949-2.148,3.891A290.055,290.055,0,0,0,148.323,244.7c-7.475,17.245-18.525,41.115-9.123,59.254,4.738,9.14,15.847,10.069,24.214,6.35,11.245-5,19.033-16.036,26.542-25.377,7.838-9.753,14.739-20.109,21.994-30.286a148.529,148.529,0,0,1,9.532-12.478c.079-.089.165-.172.244-.263l-.087.276c-1.927,5.99-4.406,11.738-6.913,17.5-4.668,10.721-10.687,22.008-12.4,33.676-1.513,10.317,2.666,21.879,15.074,21.13,11.663-.7,21.011-11.939,28.809-19.442,9.445-9.087,18.719-18.356,28-27.614C283.893,257.766,268.761,242.627,259.193,252.416Z" transform="translate(-129.708 -181.577)" fill="#cbd7fd"/>
                <path id="Trazado_150546" data-name="Trazado 150546" d="M217.192,317.3a14.817,14.817,0,0,1-11.288-4.684c-3.929-4.279-5.627-11.249-4.544-18.646,1.411-9.64,5.616-18.875,9.683-27.805.972-2.139,1.936-4.254,2.85-6.349.864-1.987,1.774-4.075,2.676-6.234-.552.768-1.1,1.535-1.639,2.3l-.537.753c-1.885,2.643-3.746,5.3-5.606,7.953-5.219,7.452-10.617,15.157-16.456,22.42q-1.279,1.594-2.575,3.241c-6.7,8.465-14.284,18.061-24.672,22.681-9.263,4.113-21.391,2.959-26.659-7.208-9.468-18.262.754-41.763,8.218-58.925l.849-1.95c2.2-5.069,4.657-10.018,7.267-14.943q-.9,1.183-1.781,2.381c-4.591,6.295-12.635,6.2-17.761,2.471-4.239-3.084-6.618-8.817-2.371-14.675,9.411-12.981,19.933-26.062,33.09-33.808,7.3-4.3,15.3-4.994,21.387-1.864,5.362,2.755,8.668,8.2,9.311,15.35.753,8.38-1.057,16.4-3.681,24.054,9.711-9.485,27.667-22.938,42.073-20.9,6.618.94,11.742,4.956,15.227,11.935,5.731,11.478,1.208,25.765-3.971,38.229-2.466,5.932-5.177,11.852-7.8,17.576l-.928,2.025c7.8-7.316,14.785-14.132,21.191-20.686h0a11.361,11.361,0,0,1,11.319-3.36,13.926,13.926,0,0,1,9.638,9.57,11.456,11.456,0,0,1-3.254,11.464l-1.055,1.053c-8.783,8.766-17.865,17.829-26.964,26.584-1.121,1.08-2.273,2.235-3.462,3.426-7.062,7.081-15.853,15.9-26.546,16.541C218,317.29,217.6,317.3,217.192,317.3Zm5.425-76.317a1.782,1.782,0,0,1,.915.246,1.837,1.837,0,0,1,.894,2.146l-.089.276c-2.019,6.28-4.653,12.334-6.977,17.674-.921,2.114-1.895,4.251-2.876,6.408-3.958,8.69-8.049,17.676-9.384,26.786-.906,6.187.469,12.141,3.589,15.539,2.311,2.517,5.5,3.659,9.5,3.432,9.258-.56,17.143-8.463,24.1-15.439,1.206-1.21,2.379-2.384,3.517-3.479,9.074-8.73,18.145-17.782,26.916-26.536l1.053-1.053a7.687,7.687,0,0,0,2.277-7.8,10.173,10.173,0,0,0-6.941-6.9,7.574,7.574,0,0,0-7.66,2.343h0c-8.276,8.465-17.5,17.36-28.195,27.192a1.891,1.891,0,0,1-3.008-2.158c1.568-3.545,3.182-7.068,4.8-10.593,2.609-5.693,5.306-11.582,7.747-17.453,4.852-11.674,9.133-24.973,4.08-35.089-2.938-5.882-6.987-9.114-12.376-9.88-13.431-1.9-32.32,12.569-41.731,22.766-1,1.087-1.968,2.214-2.936,3.339l-.734.855a1.891,1.891,0,0,1-3.182-1.951c4.062-9.944,7.943-20.576,6.956-31.568-.529-5.892-3.044-10.154-7.272-12.327-4.933-2.532-11.563-1.872-17.74,1.762-12.561,7.393-22.777,20.119-31.948,32.769-2.9,4-1.108,7.475,1.534,9.4,3.577,2.6,9.167,2.908,12.483-1.639a136.59,136.59,0,0,1,13.535-15.834,1.89,1.89,0,0,1,3,2.239q-1.069,1.96-2.159,3.908a289.3,289.3,0,0,0-13.338,25.98l-.849,1.955c-7.161,16.464-16.967,39.012-8.329,55.674,4.2,8.1,14.127,8.887,21.768,5.493,9.536-4.237,16.5-13.051,23.241-21.571q1.308-1.654,2.594-3.264c5.761-7.166,11.122-14.819,16.309-22.219q2.8-3.993,5.622-7.979l.537-.751a140.74,140.74,0,0,1,9.12-11.882l.17-.183A2.062,2.062,0,0,1,222.617,240.985Zm37.477,12.325h0Z" transform="translate(-130.608 -182.47)"/>
              </g>
              <path id="Trazado_150547" data-name="Trazado 150547" d="M144.1,221.356c-6.968,14-10.9,30.411-4.778,45.46.906,2.224,4.565,1.252,3.647-1.006-5.746-14.13-2.157-29.378,4.4-42.546C148.446,221.092,145.186,219.174,144.1,221.356Z" transform="translate(-125.547 -148.684)" fill="#fc5f65"/>
              <path id="Trazado_150548" data-name="Trazado 150548" d="M146.195,246.834c-.032,0-.062-.013-.093-.019-.053-.1-.1-.214-.119-.244l-.008-.011c0-.015,0-.006,0-.028-.244-.843-.42-1.7-.6-2.558q-.644-2.992-1.284-5.985a1.905,1.905,0,0,0-2.328-1.32,1.935,1.935,0,0,0-1.32,2.326l1.452,6.767c.4,1.879,1.049,4.343,3.3,4.72a1.939,1.939,0,0,0,2.326-1.322A1.914,1.914,0,0,0,146.195,246.834Z" transform="translate(-121.898 -134.252)" fill="#fc5f65"/>
              <path id="Trazado_150549" data-name="Trazado 150549" d="M190.1,199.465c-2.146-1.146-4.06,2.118-1.908,3.265,2.969,1.585,3.872,4.81,3.992,7.978a54.705,54.705,0,0,1-.853,10.842,71.945,71.945,0,0,1-6.563,20.312c-1.082,2.173,2.18,4.09,3.266,1.908a75.755,75.755,0,0,0,7.34-23.921C196.264,213.032,197.33,203.322,190.1,199.465Z" transform="translate(-82.554 -167.543)"/>
            </g>
          </g>
        </g>
      </g>
    </g>
  </g>
</svg>
