<svg id="Grupo_173596" data-name="Grupo 173596" xmlns="http://www.w3.org/2000/svg" xmlns:xlink="http://www.w3.org/1999/xlink" width="111.187" height="77.886" viewBox="0 0 111.187 77.886">
  <defs>
    <clipPath id="clip-path">
      <rect id="Rectángulo_44675" data-name="Rectángulo 44675" width="111.187" height="77.885" fill="none"/>
    </clipPath>
  </defs>
  <g id="Grupo_173593" data-name="Grupo 173593" transform="translate(0 0)" clip-path="url(#clip-path)">
    <path id="Trazado_177995" data-name="Trazado 177995" d="M97.424,28.224h-.006c-.013.019-.027.035-.039.054l-.078-.041.08.043c-.017.028-.036.057-.054.086v0l.056-.087c.014-.02.028-.038.041-.058" transform="translate(-34.376 -9.971)"/>
    <path id="Trazado_177996" data-name="Trazado 177996" d="M103.154,3.482A70.332,70.332,0,0,0,73.168.438c-1.132.12-2.237.984-3.327.932-3.618-.174-7.127.568-10.68.936-5.489.569-10.7,2.4-15.973,3.807-5.349,1.43-10.768,3.468-13.389,9.15-.761,1.648-1.78.665-2.683.444a20.493,20.493,0,0,0-17.659,3.37c-5.215,3.79-8.033,9.242-9.011,15.4-1.626,10.24,1.079,19.005,10.1,25.075,8.883,5.976,18.5,6.016,27.77-.062.314,1.035.591,1.844.8,2.67C40.883,69.036,44.74,73.871,51.9,75.7c13.589,3.464,27.008,2.681,40.33-1.385,8.235-2.513,13.744-7.468,15.438-16.3a257.075,257.075,0,0,0,3.31-28.07,145.113,145.113,0,0,0,0-15.143c-.147-5.9-2.154-9.425-7.823-11.32m-67.931,9.64a35.666,35.666,0,0,1,8.992-4.454,136.323,136.323,0,0,1,36.34-5.685A79.94,79.94,0,0,1,98.991,4.9a17.691,17.691,0,0,1,8.93,5.2c.768.821.149,1.856-.473,2.5-.521.534-.7,1.982-2.162.967C95.974,7.092,85.326,7.77,74.8,8.115c-4.951.162-9.811,1.749-14.661,2.126-6.022.468-11.434,2.381-16.946,4.293a17.538,17.538,0,0,0-7.758,5.029c-.428.5-.8,1.11-1.544.881-.82-.252-.977-1.053-1.115-1.782a5.137,5.137,0,0,1,2.445-5.54m27.8,5.612-.3.027q.117-.183.232-.367c-.008-.043-.017-.085-.026-.128.039-.006.078-.008.117-.014a3.872,3.872,0,0,1,3.931-1.766,7.118,7.118,0,0,1,1.11.234c6.647,1.936,6.644,1.947,13.245.061-.765,1-5.653,4.616-6.563,4.668a3.41,3.41,0,0,1-2.69-.487,11.9,11.9,0,0,0-9.025-2.711c-.014.02-.028.038-.042.058l-.056.088c.023.113.046.225.069.338m6.935-3.849c-2.368-1.218-5.466-.973-8.244,1.1-3,2.247-6.336,3.867-10.684,3.325-3.689-.46-8.1-1.079-10.857,3.058-.693,1.039-1.9.505-2.573-.107-.866-.787.255-1.315.675-1.774a14.291,14.291,0,0,1,5.4-3.286c11.822-4.836,24.226-6.447,36.259-6.6,6.979.136,13.353.092,19.4,2.438,1.515.588,4.068,1.242,3.649,2.843s-2.828.394-4.349.319c-2.463-.122-4.7-1.444-6.907-2.215a11.6,11.6,0,0,0-9.223.647c-4.27,1.988-8.062,2.547-12.545.242M49.85,22.019c-1.252,1.3-2.632.9-4.407.2.29-.385.368-.579.511-.664a4.288,4.288,0,0,1,3.978-.336,1.016,1.016,0,0,1-.082.8m58.369,9.717A138.841,138.841,0,0,1,104.4,59.492a14.631,14.631,0,0,1-8.758,10.456c-4.8,2.093-9.641,4.566-14.873,4.821-9.692.472-19.455,1.133-28.97-1.98-5.433-1.778-8.734-5.242-9.975-10.771-.306-1.363-.664-2.716-1.059-4.056-.318-1.077-.091-2.551-1.586-2.9-1.34-.31-1.76,1.03-2.5,1.727-6.623,6.239-15.082,5.866-24.328.521-7.519-4.348-9.909-21.147-1.876-26.882l.62-.255c-.03.247-.06.493-.089.74h0A21.34,21.34,0,0,0,9.637,41.685q.1.789.261,1.584c1.9,9.469,12.349,15.137,21.2,11.461,4.7-1.953,6.291-4.711,5.345-9.627-.792-4.118-1.687-8.219-2.648-12.3C31.97,25.069,25.741,22.24,19.325,23.92c-6.64,1.739-11.235,5.055-13.607,9.9a19.628,19.628,0,0,0-1.868,8.4q-.016.953.038,1.95l.076.635c.077.645.16,1.334.263,2.2a3.5,3.5,0,0,1-1.148-2.823C.48,33.025,6.541,21.2,16.308,18.236c4.57-1.387,8.92-.137,13.306.874a.859.859,0,0,1,.5.338c4.5,7.479,12.417,7.288,19.417,7.748a129.185,129.185,0,0,0,51.432-7.257,44.665,44.665,0,0,0,7.424-3.837,127.383,127.383,0,0,1-.169,15.635M12,38.7c-.02-5.6,3.922-11.254,8.653-12.41a8.434,8.434,0,0,1,10.205,6.076c1.1,4.359,2.063,8.755,2.938,13.164.667,3.364-.713,5.527-4,6.747C21.049,55.529,12.033,48.651,12,38.7" transform="translate(0 0)"/>
    <path id="Trazado_177997" data-name="Trazado 177997" d="M102.318,28.735a129.183,129.183,0,0,1-51.432,7.257c-7-.459-14.919-.269-19.417-7.748a.859.859,0,0,0-.5-.338c-4.386-1.011-8.736-2.261-13.305-.874C7.894,30,1.834,41.822,4.433,52.97l.808-.009q-.054-1-.038-1.95a19.618,19.618,0,0,1,1.868-8.4c2.371-4.841,6.966-8.157,13.607-9.9,6.415-1.68,12.644,1.149,14.467,8.882.962,4.082,1.855,8.183,2.648,12.3.946,4.916-.645,7.674-5.345,9.627-8.849,3.677-19.3-1.992-21.2-11.461q-.159-.8-.261-1.584a21.37,21.37,0,0,1,1.372-10.769h0l-.53-.485C3.8,44.963,6.189,61.762,13.708,66.109c9.246,5.346,17.706,5.719,24.328-.521.74-.7,1.16-2.038,2.5-1.727,1.5.347,1.269,1.82,1.586,2.9.4,1.34.753,2.693,1.059,4.056,1.242,5.529,4.542,8.992,9.975,10.771,9.515,3.113,19.279,2.452,28.971,1.98C87.36,83.311,92.2,80.837,97,78.745a14.631,14.631,0,0,0,8.758-10.456,138.841,138.841,0,0,0,3.814-27.756,127.252,127.252,0,0,0,.169-15.635,44.665,44.665,0,0,1-7.424,3.837M45.764,69.314c3.341,3.366,4.813,7.408,9,9.058-4.568.886-7.859-2.319-9-9.058M42.59,39.024c11.721,2.57,23.439.26,35.156.011-11.708,3.136-23.426,4.137-35.156-.011M82.029,80.542c.728-1.592,2.3-1.625,3.5-1.841,11.757-2.111,17.337-9.774,19.146-20.946.325-2.006.8-3.988,1.361-6.755,3.558,16.124-6.774,28.416-24.008,29.542" transform="translate(-1.353 -8.796)" fill="#fcfcfc"/>
    <path id="Trazado_177998" data-name="Trazado 177998" d="M16.174,47.805h0A21.37,21.37,0,0,0,14.8,58.575a21.337,21.337,0,0,1,1.374-10.768h0" transform="translate(-5.165 -16.889)" fill="#fcfcfc"/>
    <path id="Trazado_177999" data-name="Trazado 177999" d="M51.74,22.076c.743.229,1.116-.383,1.544-.881a17.537,17.537,0,0,1,7.758-5.028c5.512-1.912,10.923-3.826,16.946-4.293,4.85-.377,9.71-1.963,14.661-2.126,10.524-.345,21.172-1.023,30.483,5.443,1.463,1.015,1.642-.433,2.162-.967.623-.64,1.242-1.675.473-2.5a17.692,17.692,0,0,0-8.929-5.2A79.949,79.949,0,0,0,98.4,4.616,136.323,136.323,0,0,0,62.061,10.3a35.707,35.707,0,0,0-8.992,4.453,5.139,5.139,0,0,0-2.445,5.54c.138.728.295,1.529,1.115,1.782" transform="translate(-17.847 -1.631)" fill="#fff"/>
    <path id="Trazado_178000" data-name="Trazado 178000" d="M112.088,19.8c2.211.771,4.444,2.093,6.907,2.215,1.521.075,3.929,1.284,4.349-.319s-2.134-2.255-3.649-2.843c-6.045-2.346-12.419-2.3-19.4-2.438-12.034.149-24.438,1.76-36.259,6.6a14.306,14.306,0,0,0-5.4,3.286c-.419.459-1.54.988-.675,1.774.675.612,1.881,1.145,2.573.107,2.761-4.136,7.167-3.518,10.858-3.058,4.348.542,7.68-1.077,10.684-3.325,2.778-2.078,5.876-2.323,8.244-1.1,4.482,2.306,8.275,1.746,12.545-.242a11.6,11.6,0,0,1,9.223-.647" transform="translate(-20.364 -5.798)" fill="#fff"/>
    <path id="Trazado_178001" data-name="Trazado 178001" d="M97.492,27.238a11.893,11.893,0,0,1,9.025,2.71,3.411,3.411,0,0,0,2.69.488c.909-.053,5.8-3.673,6.563-4.669-6.6,1.887-6.6,1.875-13.245-.06a6.972,6.972,0,0,0-1.11-.234,3.859,3.859,0,0,0-3.924,1.765" transform="translate(-34.443 -8.985)" fill="#fff"/>
    <path id="Trazado_178002" data-name="Trazado 178002" d="M101.412,25.473a3.87,3.87,0,0,0-3.931,1.766h.007a3.859,3.859,0,0,1,3.924-1.765" transform="translate(-34.44 -8.985)" fill="#fff"/>
    <path id="Trazado_178003" data-name="Trazado 178003" d="M97.417,28.225c-.039.005-.078.008-.117.014l.078.041c.013-.019.027-.036.039-.054" transform="translate(-34.376 -9.972)" fill="#fff"/>
    <path id="Trazado_178004" data-name="Trazado 178004" d="M70.78,32.963c-.143.084-.221.279-.511.664,1.775.7,3.155,1.1,4.407-.2a1.015,1.015,0,0,0,.082-.8,4.287,4.287,0,0,0-3.978.336" transform="translate(-24.826 -11.407)" fill="#fff"/>
    <path id="Trazado_178005" data-name="Trazado 178005" d="M5.907,71.124c-.1-.864-.186-1.553-.263-2.2l-.076-.635-.808.01a3.5,3.5,0,0,0,1.148,2.823" transform="translate(-1.68 -24.127)" fill="#fff"/>
    <path id="Trazado_178006" data-name="Trazado 178006" d="M97.284,28.787c-.023-.113-.046-.225-.069-.338l-.232.364.3-.027" transform="translate(-34.264 -10.051)" fill="#fff"/>
    <path id="Trazado_178007" data-name="Trazado 178007" d="M96.982,28.81l.232-.364v0c-.076.123-.154.245-.232.367" transform="translate(-34.263 -10.049)" fill="#fff"/>
    <path id="Trazado_178008" data-name="Trazado 178008" d="M97.3,28.245c.008.043.017.085.026.128.018-.028.037-.057.054-.086l-.08-.042" transform="translate(-34.376 -9.979)" fill="#fff"/>
    <path id="Trazado_178009" data-name="Trazado 178009" d="M16.823,46.66l-.621.255.53.484c.031-.247.061-.493.091-.74" transform="translate(-5.724 -16.485)" fill="#fcfcfc"/>
    <path id="Trazado_178010" data-name="Trazado 178010" d="M17.023,47.4c.028-.247.059-.494.089-.741q-.045.371-.09.74h0" transform="translate(-6.014 -16.485)" fill="#fcfcfc"/>
    <path id="Trazado_178011" data-name="Trazado 178011" d="M16.733,47.539l-.53-.484.53.485Z" transform="translate(-5.724 -16.624)" fill="#fcfcfc"/>
    <path id="Trazado_178012" data-name="Trazado 178012" d="M17.022,47.8h0Z" transform="translate(-6.014 -16.889)" fill="#fcfcfc"/>
    <path id="Trazado_178013" data-name="Trazado 178013" d="M147.4,72.015c-1.809,11.172-7.389,18.835-19.146,20.946-1.2.216-2.774.25-3.5,1.841,17.235-1.126,27.566-13.418,24.008-29.542-.563,2.767-1.036,4.749-1.361,6.755" transform="translate(-44.073 -23.056)"/>
    <path id="Trazado_178014" data-name="Trazado 178014" d="M63.764,46.742c11.731,4.148,23.449,3.147,35.156.01-11.717.25-23.435,2.56-35.156-.01" transform="translate(-22.527 -16.514)"/>
    <path id="Trazado_178015" data-name="Trazado 178015" d="M68.672,93.579c1.137,6.739,4.429,9.944,9,9.058-4.184-1.65-5.655-5.692-9-9.058" transform="translate(-24.261 -33.061)"/>
  </g>
</svg>
