<svg xmlns="http://www.w3.org/2000/svg" xmlns:xlink="http://www.w3.org/1999/xlink" width="1328" height="473" viewBox="0 0 1328 473">
  <defs>
    <clipPath id="clip-path">
      <rect id="Rect치ngulo_38294" data-name="Rect치ngulo 38294" width="1328" height="473" fill="#ffdfe0"/>
    </clipPath>
  </defs>
  <g id="Grupo_171384" data-name="Grupo 171384" transform="translate(-136 -400)">
    <rect id="Rect치ngulo_38798" data-name="Rect치ngulo 38798" width="1328" height="473" transform="translate(136 400)" fill="#a6bbff"/>
    <g id="Grupo_161191" data-name="Grupo 161191" transform="translate(136 400)">
      <g id="Enmascarar_grupo_164" data-name="Enmascarar grupo 164" transform="translate(0 0)" clip-path="url(#clip-path)">
        <g id="Grupo_169449" data-name="Grupo 169449" transform="matrix(0.259, -0.966, 0.966, 0.259, 1198.277, 524.52)">
          <g id="Grupo_162315" data-name="Grupo 162315" transform="translate(5.355 4.943)" style="mix-blend-mode: overlay;isolation: isolate">
            <path id="Trazado_143614" data-name="Trazado 143614" d="M155.044,75.7c-11.37,10.766-23.1,21.154-35.05,31.368,5.314-10.7,11.018-21.238,16.078-32.042,5.735-12.249,12.461-28.921,5.887-41.495-14.98-28.662-55.238.656-70.15,15.57-1.588,1.59-3.108,3.247-4.646,4.885,5.483-11.9,10.454-24.116,9.515-36.826C75.389-.318,58.127-4.143,42.99,4.32,26.736,13.4,13.49,28.8,2.405,42.764-7.011,54.623,13.646,65.27,22.987,53.579A166.349,166.349,0,0,1,39.7,35.6q-1.35,2.228-2.728,4.448A337.723,337.723,0,0,0,19.887,69.929C10.306,89.595-3.82,116.84,7.177,137.068c5.543,10.194,19.083,10.948,29.395,6.527,13.861-5.943,23.663-18.61,33.078-29.356C79.477,103.02,88.18,91.144,97.308,79.462a180.084,180.084,0,0,1,11.968-14.338c.1-.1.2-.2.3-.3l-.113.312a214.455,214.455,0,0,1-8.9,19.943c-5.982,12.23-13.632,25.133-16.028,38.35-2.118,11.688,2.675,24.631,17.843,23.457,14.26-1.1,25.971-14.037,35.691-22.714,11.77-10.51,23.339-21.219,34.91-31.917C185.061,81.081,166.987,64.391,155.044,75.7Z" transform="translate(2.336 2.141)" fill="#3c384f"/>
            <path id="Trazado_143615" data-name="Trazado 143615" d="M103.306,151.227c-5.589.121-10.29-1.59-13.66-4.991-4.684-4.727-6.572-12.551-5.053-20.929,1.98-10.923,7.359-21.461,12.559-31.65,1.246-2.44,2.479-4.857,3.647-7.247,1.108-2.267,2.274-4.648,3.432-7.11q-1.042,1.325-2.062,2.635l-.676.866c-2.372,3.034-4.714,6.081-7.053,9.128-6.571,8.55-13.367,17.392-20.688,25.749-1.069,1.22-2.144,2.466-3.23,3.725-8.4,9.737-17.918,20.773-30.723,26.262-11.416,4.889-26.2,3.91-32.357-7.429-11.075-20.369,2.029-47.174,11.6-66.746l1.086-2.226C22.94,65.485,26.077,59.833,29.4,54.2q-1.14,1.359-2.238,2.737C21.384,64.166,11.566,64.272,5.406,60.2.312,56.829-2.44,50.419,2.9,43.693,14.734,28.788,27.928,13.74,44.2,4.646,53.228-.4,63-1.4,70.358,1.972c6.474,2.968,10.367,9.035,10.96,17.086.7,9.442-1.725,18.546-5.13,27.255C88.294,35.345,110.575,19.679,128.109,21.6c8.055.885,14.2,5.284,18.272,13.071,6.7,12.806.794,29.059-5.862,43.267-3.168,6.765-6.635,13.519-9.989,20.052l-1.187,2.311c9.721-8.469,18.425-16.35,26.421-23.919v0a15.085,15.085,0,0,1,13.908-4.1,15.447,15.447,0,0,1,11.515,10.549c1.27,4.677-.249,9.306-4.279,13.032l-1.316,1.215c-10.956,10.13-22.284,20.605-33.625,30.729-1.4,1.249-2.834,2.584-4.316,3.96-8.812,8.182-19.779,18.368-32.851,19.38C104.3,151.193,103.8,151.216,103.306,151.227Zm8.647-86.308a2.249,2.249,0,0,1,1.111.251,1.935,1.935,0,0,1,1.033,2.4l-.116.314a217.109,217.109,0,0,1-8.987,20.139c-1.18,2.413-2.426,4.851-3.681,7.311-5.06,9.917-10.294,20.17-12.165,30.493-1.27,7.009.251,13.7,3.967,17.447,2.757,2.782,6.623,3.985,11.507,3.623,11.317-.877,21.154-10.01,29.832-18.07,1.5-1.4,2.965-2.753,4.384-4.021,11.31-10.1,22.624-20.557,33.566-30.674l1.314-1.215c3.566-3.3,3.592-6.639,2.989-8.865a11.283,11.283,0,0,0-8.292-7.606A10.055,10.055,0,0,0,159,79.294v0c-10.329,9.777-21.824,20.064-35.144,31.447a2.469,2.469,0,0,1-2.91.225,1.98,1.98,0,0,1-.705-2.581c2.008-4.044,4.073-8.064,6.138-12.084,3.335-6.5,6.785-13.219,9.919-19.912,6.236-13.309,11.813-28.437,5.912-39.722-3.429-6.566-8.286-10.107-14.847-10.826-16.347-1.792-39.791,15.045-51.551,26.81C74.553,53.9,73.344,55.2,72.132,56.5l-.916.982a2.48,2.48,0,0,1-2.965.489,1.984,1.984,0,0,1-.869-2.606C72.6,44.029,77.624,31.924,76.71,19.538,76.22,12.9,73.263,8.157,68.159,5.816c-5.954-2.73-14.067-1.809-21.705,2.458C30.924,16.956,18.111,31.593,6.579,46.118,2.936,50.708,5.028,54.588,8.2,56.687c4.3,2.84,11.115,3.038,15.285-2.184A169.6,169.6,0,0,1,40.431,36.267,2.47,2.47,0,0,1,43.453,36a1.989,1.989,0,0,1,.582,2.721q-1.357,2.238-2.742,4.468A337.07,337.07,0,0,0,24.322,72.872L23.233,75.1C14.052,93.88,1.482,119.6,11.585,138.183c4.908,9.028,17.012,9.657,26.43,5.622,11.754-5.037,20.5-15.17,28.946-24.971,1.093-1.266,2.177-2.522,3.256-3.751,7.222-8.246,13.97-17.028,20.5-25.521q3.52-4.583,7.075-9.156l.676-.864a171.97,171.97,0,0,1,11.452-13.657l.21-.212A2.743,2.743,0,0,1,111.953,64.919Zm45.429,12.919h0Z" fill="#3c384f"/>
            <path id="Trazado_143616" data-name="Trazado 143616" d="M10.333,1.125C1.457,17.116-3.778,35.751,3.3,52.578c1.044,2.489,5.537,1.292,4.478-1.232-6.639-15.8-1.853-33.112,6.5-48.153C15.647.713,11.716-1.367,10.333,1.125Z" transform="translate(11.563 81.723)" fill="#3c384f"/>
            <path id="Trazado_143617" data-name="Trazado 143617" d="M6.872,11.457c-.039,0-.076-.013-.113-.019-.062-.114-.117-.239-.137-.272l-.011-.013c0-.017,0,0,0-.03-.275-.948-.465-1.908-.669-2.875q-.7-3.361-1.409-6.723A2.248,2.248,0,0,0,1.726.1,2.277,2.277,0,0,0,.05,2.759q.8,3.8,1.6,7.6c.442,2.109,1.164,4.874,3.9,5.239a2.509,2.509,0,0,0,2.875-1.554A2.045,2.045,0,0,0,6.872,11.457Z" transform="translate(20.976 116.299)" fill="#3c384f"/>
            <path id="Trazado_143618" data-name="Trazado 143618" d="M7.924.248c-2.59-1.237-5.01,2.5-2.416,3.737,3.582,1.71,4.6,5.328,4.662,8.9A57.94,57.94,0,0,1,8.842,25.15,80.333,80.333,0,0,1,.29,48.257c-1.376,2.482,2.553,4.56,3.936,2.067a84.187,84.187,0,0,0,9.6-27.2C15.09,15.4,16.65,4.413,7.924.248Z" transform="translate(123.701 34.233)" fill="#3c384f"/>
          </g>
          <g id="Grupo_162318" data-name="Grupo 162318" transform="translate(0 0)">
            <g id="Grupo_162317" data-name="Grupo 162317">
              <g id="Grupo_162316" data-name="Grupo 162316">
                <path id="Trazado_143619" data-name="Trazado 143619" d="M155.046,75.7c-11.37,10.766-23.1,21.154-35.052,31.366,5.314-10.7,11.02-21.238,16.08-32.04,5.735-12.249,12.458-28.92,5.887-41.495-14.98-28.662-55.238.654-70.15,15.57-1.59,1.588-3.108,3.245-4.646,4.885,5.48-11.9,10.451-24.116,9.515-36.826C75.391-.318,58.129-4.142,42.992,4.318,26.736,13.4,13.492,28.8,2.4,42.765-7.011,54.624,13.648,65.271,22.989,53.579A166.558,166.558,0,0,1,39.7,35.6q-1.35,2.228-2.726,4.45A337.994,337.994,0,0,0,19.889,69.927C10.306,89.6-3.818,116.839,7.179,137.069c5.543,10.194,19.081,10.948,29.395,6.527,13.861-5.943,23.663-18.61,33.078-29.356,9.828-11.219,18.528-23.095,27.656-34.777a181.507,181.507,0,0,1,11.968-14.341c.1-.1.205-.2.3-.3l-.114.314a215.086,215.086,0,0,1-8.9,19.943c-5.984,12.228-13.632,25.131-16.028,38.35-2.12,11.688,2.675,24.632,17.843,23.457,14.258-1.1,25.969-14.037,35.689-22.715,11.772-10.51,23.341-21.221,34.913-31.92C185.061,81.082,166.987,64.391,155.046,75.7Z" transform="translate(2.333 2.141)" fill="#3c3fa7"/>
                <path id="Trazado_143620" data-name="Trazado 143620" d="M103.3,151.225c-5.589.121-10.288-1.588-13.658-4.989-4.684-4.727-6.572-12.551-5.053-20.931,1.978-10.921,7.357-21.459,12.559-31.65,1.243-2.44,2.477-4.855,3.647-7.244,1.108-2.267,2.273-4.648,3.432-7.11-.694.881-1.382,1.763-2.062,2.635l-.676.864c-2.372,3.035-4.714,6.083-7.056,9.128-6.569,8.552-13.364,17.394-20.686,25.749q-1.6,1.834-3.23,3.727c-8.4,9.735-17.918,20.771-30.723,26.262-11.419,4.889-26.2,3.908-32.357-7.431C-3.633,119.869,9.47,93.064,19.037,73.49l1.088-2.224c2.815-5.782,5.952-11.434,9.268-17.064q-1.136,1.359-2.238,2.735c-5.772,7.229-15.59,7.335-21.75,3.261C.312,56.829-2.44,50.419,2.9,43.693,14.734,28.788,27.928,13.74,44.2,4.644,53.228-.4,63-1.4,70.358,1.972c6.474,2.968,10.365,9.033,10.96,17.084.7,9.442-1.726,18.548-5.133,27.255C88.294,35.345,110.572,19.679,128.107,21.6c8.055.886,14.2,5.284,18.274,13.071,6.693,12.806.792,29.057-5.862,43.268-3.168,6.762-6.635,13.518-9.989,20.05l-1.187,2.311c9.721-8.467,18.425-16.348,26.42-23.917h0a15.084,15.084,0,0,1,13.908-4.094,15.44,15.44,0,0,1,11.513,10.549c1.272,4.677-.246,9.3-4.277,13.03l-1.316,1.217c-10.956,10.13-22.284,20.6-33.625,30.729-1.4,1.249-2.834,2.584-4.318,3.96-8.81,8.182-19.776,18.368-32.848,19.38C104.294,151.191,103.8,151.214,103.3,151.225Zm8.647-86.308a2.245,2.245,0,0,1,1.111.253,1.933,1.933,0,0,1,1.035,2.4l-.116.314a217.368,217.368,0,0,1-8.987,20.139c-1.18,2.411-2.426,4.849-3.681,7.311-5.062,9.917-10.3,20.17-12.168,30.491-1.27,7.009.251,13.7,3.97,17.449,2.754,2.78,6.623,3.985,11.507,3.623,11.317-.877,21.154-10.01,29.83-18.07,1.5-1.4,2.967-2.755,4.386-4.021,11.31-10.1,22.624-20.557,33.566-30.674l1.314-1.217c3.564-3.293,3.592-6.637,2.986-8.864a11.276,11.276,0,0,0-8.292-7.6A10.051,10.051,0,0,0,159,79.294h0c-10.329,9.777-21.824,20.064-35.144,31.449a2.47,2.47,0,0,1-2.91.225,1.977,1.977,0,0,1-.705-2.582c2.008-4.044,4.073-8.064,6.135-12.087,3.337-6.5,6.785-13.217,9.921-19.91,6.233-13.309,11.813-28.437,5.912-39.724-3.431-6.564-8.288-10.1-14.847-10.826C111.012,24.05,87.566,40.887,75.806,52.65,74.553,53.9,73.344,55.2,72.132,56.5l-.918.984a2.476,2.476,0,0,1-2.963.489,1.986,1.986,0,0,1-.871-2.608C72.6,44.029,77.624,31.922,76.71,19.538,76.22,12.9,73.263,8.155,68.159,5.814,62.2,3.086,54.091,4.007,46.453,8.274,30.921,16.954,18.111,31.593,6.579,46.118,2.934,50.708,5.028,54.586,8.2,56.685c4.3,2.843,11.115,3.04,15.285-2.182A169.183,169.183,0,0,1,40.431,36.267a2.467,2.467,0,0,1,3.02-.27,1.984,1.984,0,0,1,.582,2.719q-1.357,2.241-2.74,4.47A337.1,337.1,0,0,0,24.319,72.872L23.231,75.1C14.052,93.88,1.482,119.6,11.585,138.181c4.908,9.03,17.011,9.659,26.43,5.624,11.754-5.037,20.5-15.172,28.946-24.971q1.64-1.9,3.254-3.754c7.224-8.244,13.972-17.026,20.5-25.519,2.347-3.055,4.7-6.113,7.075-9.158l.676-.862a172.055,172.055,0,0,1,11.449-13.657l.213-.212A2.74,2.74,0,0,1,111.951,64.917Zm45.429,12.921h0Z"/>
              </g>
              <path id="Trazado_143621" data-name="Trazado 143621" d="M10.334,1.126C1.456,17.117-3.777,35.749,3.295,52.578c1.047,2.487,5.54,1.292,4.48-1.232-6.641-15.8-1.855-33.112,6.5-48.153C15.646.712,11.717-1.367,10.334,1.126Z" transform="translate(11.561 81.723)"/>
              <path id="Trazado_143622" data-name="Trazado 143622" d="M6.872,11.457c-.039,0-.076-.013-.113-.019-.062-.116-.119-.239-.139-.272l-.009-.013c0-.017,0-.006,0-.032-.275-.946-.467-1.908-.669-2.872Q5.232,4.887,4.53,1.526A2.249,2.249,0,0,0,1.723.1,2.277,2.277,0,0,0,.05,2.758l1.594,7.6c.444,2.111,1.166,4.876,3.9,5.241a2.511,2.511,0,0,0,2.875-1.554A2.047,2.047,0,0,0,6.872,11.457Z" transform="translate(20.976 116.299)"/>
              <path id="Trazado_143623" data-name="Trazado 143623" d="M7.925.248c-2.59-1.237-5.013,2.5-2.416,3.737,3.582,1.71,4.6,5.328,4.662,8.9A57.956,57.956,0,0,1,8.842,25.15,80.331,80.331,0,0,1,.291,48.257c-1.378,2.482,2.553,4.56,3.936,2.067a84.275,84.275,0,0,0,9.6-27.2C15.091,15.4,16.651,4.411,7.925.248Z" transform="translate(123.7 34.233)"/>
            </g>
          </g>
        </g>
        <g id="Grupo_169450" data-name="Grupo 169450" transform="translate(-149.466 36.928) rotate(-50)">
          <g id="Grupo_162315-2" data-name="Grupo 162315" transform="translate(8.141 8.009)" style="mix-blend-mode: overlay;isolation: isolate">
            <path id="Trazado_143614-2" data-name="Trazado 143614" d="M240.122,122.184c-18.088,18.2-36.726,35.78-55.692,53.081,8.667-17.888,17.936-35.523,26.213-53.577,9.381-20.467,20.469-48.291,10.719-68.9-22.217-46.965-85.931,2.89-109.684,28.071-2.53,2.684-4.956,5.477-7.41,8.24,8.975-19.885,17.166-40.271,16.186-61.284C119.106-1.071,92.405-6.839,68.546,7.667c-25.621,15.572-46.8,41.5-64.567,64.978-15.09,19.943,16.634,36.9,31.6,17.234A287.592,287.592,0,0,1,62.245,59.561q-2.184,3.733-4.41,7.454c-9.816,16.4-19.523,32.865-27.692,50.035C14.5,149.924-8.5,195.5,7.845,228.627c8.236,16.7,29.266,17.5,45.469,9.846,21.782-10.292,37.5-31.586,52.55-49.685,15.707-18.9,29.69-38.844,44.325-58.484,6.115-8.207,12.231-16.527,19.154-24.131.158-.176.324-.339.482-.512l-.188.52c-4.162,11.364-9.35,22.322-14.6,33.311-9.764,20.445-22.147,42.058-26.372,64.02-3.735,19.421,3.232,40.695,26.866,38.255,22.219-2.293,40.92-24.089,56.363-38.774,18.7-17.787,37.1-35.9,55.5-53.986C286.6,130.118,259.122,103.075,240.122,122.184Z" transform="translate(3.637 3.549)" fill="#3c384f"/>
            <path id="Trazado_143615-2" data-name="Trazado 143615" d="M156.9,249.01c-8.7.384-15.944-2.3-21.056-7.817-7.106-7.673-9.748-20.566-7.07-34.487,3.491-18.15,12.254-35.774,20.725-52.812,2.029-4.081,4.039-8.123,5.946-12.117,1.808-3.789,3.711-7.769,5.605-11.883q-1.67,2.228-3.307,4.431l-1.083,1.456q-5.7,7.653-11.314,15.343C134.8,165.493,123.9,180.356,112.2,194.432c-1.709,2.055-3.427,4.153-5.164,6.274-13.429,16.4-28.649,34.979-48.771,44.485-17.939,8.467-40.886,7.33-50.042-11.243-16.455-33.364,4.933-78.173,20.553-110.89l1.773-3.72c4.6-9.665,9.687-19.126,15.061-28.556q-1.823,2.288-3.583,4.6C32.772,107.54,17.5,108.037,8.073,101.493.278,96.08-3.761,85.558,4.8,74.246c18.966-25.065,40.052-50.411,65.7-66C84.731-.4,99.973-2.376,111.281,2.966c9.956,4.7,15.782,14.621,16.4,27.931.727,15.61-3.382,30.762-9.006,45.293,19.241-18.555,54.483-45.221,81.681-42.616,12.494,1.2,21.888,8.285,27.924,21.045,9.93,20.985.14,48.088-10.747,71.829-5.181,11.3-10.828,22.6-16.291,33.527l-1.933,3.865c15.438-14.339,29.272-27.673,41.991-40.466v0c6.288-6.33,14.032-8.9,21.784-7.236A23.249,23.249,0,0,1,280.6,133.232c1.8,7.7-.737,15.417-7.147,21.717L271.357,157c-17.42,17.13-35.433,34.844-53.452,51.976-2.221,2.113-4.5,4.37-6.861,6.7-14.014,13.835-31.452,31.058-51.82,33.16C158.439,248.921,157.662,248.976,156.9,249.01Zm16.7-143.182a3.231,3.231,0,0,1,1.718.38,3.16,3.16,0,0,1,1.516,3.939l-.192.524c-4.363,11.917-9.874,23.457-14.736,33.638-1.927,4.034-3.956,8.112-6,12.226-8.243,16.584-16.769,33.731-20.069,50.885-2.239,11.647-.127,22.667,5.512,28.757,4.182,4.517,10.15,6.381,17.759,5.622,17.634-1.822,33.276-17.265,47.076-30.893,2.393-2.361,4.715-4.655,6.969-6.8,17.97-17.087,35.96-34.776,53.358-51.884l2.089-2.054c5.67-5.572,5.836-11.11,4.982-14.775a16.979,16.979,0,0,0-12.609-12.322c-3.675-.791-9.21-.554-14.752,5.023v0c-16.432,16.525-34.7,33.933-55.841,53.214a3.693,3.693,0,0,1-4.535.468,3.312,3.312,0,0,1-1-4.251c3.275-6.762,6.638-13.485,10-20.209,5.431-10.87,11.05-22.108,16.176-33.292,10.2-22.24,19.443-47.469,10.692-65.961-5.085-10.759-12.506-16.463-22.683-17.44-25.356-2.432-62.45,26.21-81.183,46.074-2,2.114-3.928,4.3-5.862,6.491l-1.462,1.656a3.76,3.76,0,0,1-4.63.906,3.287,3.287,0,0,1-1.253-4.286c8.546-18.941,16.811-39.147,15.857-59.625-.512-10.971-4.933-18.731-12.783-22.44C98.56,5.076,85.907,6.866,73.867,14.181,49.388,29.063,28.91,53.715,10.428,78.141,4.59,85.86,7.7,92.217,12.554,95.588a17.276,17.276,0,0,0,23.853-4.116,293.221,293.221,0,0,1,27.04-30.747,3.7,3.7,0,0,1,4.71-.547,3.354,3.354,0,0,1,.8,4.486q-2.2,3.75-4.433,7.487C54.59,88.761,45,105.062,37.013,121.858l-1.777,3.728C20.25,156.976-.269,199.968,14.744,230.409c7.293,14.787,26.092,15.433,40.893,8.445,18.47-8.724,32.446-25.787,45.959-42.289,1.748-2.131,3.481-4.248,5.205-6.318,11.542-13.889,22.367-28.649,32.841-42.925q5.647-7.7,11.348-15.391l1.083-1.452c5.741-7.711,11.676-15.68,18.324-22.986l.335-.357A4.334,4.334,0,0,1,173.6,105.828Zm70.164,19.905h0Z" fill="#3c384f"/>
            <path id="Trazado_143616-2" data-name="Trazado 143616" d="M17.4,1.925C2.994,28.691-5.849,59.716,4.517,87.345c1.531,4.086,8.563,1.959,7.01-2.187C1.8,59.216,9.894,30.4,23.444,5.219,25.681,1.069,19.645-2.247,17.4,1.925Z" transform="translate(15.463 136.531)" fill="#3c384f"/>
            <path id="Trazado_143617-2" data-name="Trazado 143617" d="M10.343,18.823c-.061,0-.117-.019-.174-.028-.092-.186-.172-.391-.2-.446l-.017-.02c-.006-.028,0-.007,0-.049-.393-1.56-.651-3.144-.931-4.738Q8.046,8,7.075,2.457A3.31,3.31,0,0,0,2.767.184,3.973,3.973,0,0,0,.062,4.644q1.1,6.267,2.2,12.538c.608,3.478,1.626,8.031,5.869,8.547a4.054,4.054,0,0,0,4.529-2.667C13.127,21.336,12.311,19.061,10.343,18.823Z" transform="translate(30.086 193.792)" fill="#3c384f"/>
            <path id="Trazado_143618-2" data-name="Trazado 143618" d="M14.178.377c-3.981-1.963-7.886,4.3-3.9,6.267,5.507,2.715,6.957,8.672,6.914,14.589a103.363,103.363,0,0,1-2.528,20.345A144.338,144.338,0,0,1,.495,80.115c-2.233,4.154,3.8,7.466,6.044,3.295A151.274,151.274,0,0,0,22.488,38.056C24.751,25.237,27.591,6.989,14.178.377Z" transform="translate(191.162 54.411)" fill="#3c384f"/>
          </g>
          <g id="Grupo_162318-2" data-name="Grupo 162318" transform="translate(0 0)">
            <g id="Grupo_162317-2" data-name="Grupo 162317">
              <g id="Grupo_162316-2" data-name="Grupo 162316">
                <path id="Trazado_143619-2" data-name="Trazado 143619" d="M240.125,122.185c-18.088,18.2-36.726,35.78-55.7,53.077,8.667-17.884,17.94-35.523,26.216-53.573,9.382-20.467,20.466-48.291,10.72-68.9C199.149,5.828,135.435,55.68,111.681,80.865c-2.533,2.681-4.956,5.474-7.41,8.24,8.972-19.884,17.163-40.271,16.186-61.284C119.11-1.07,92.408-6.838,68.549,7.664c-25.625,15.576-46.8,41.5-64.571,64.981-15.09,19.943,16.638,36.9,31.6,17.234A287.959,287.959,0,0,1,62.244,59.558q-2.184,3.733-4.407,7.458c-9.816,16.4-19.523,32.865-27.692,50.032C14.5,149.925-8.492,195.493,7.848,228.628c8.236,16.7,29.262,17.5,45.469,9.846,21.782-10.292,37.5-31.586,52.55-49.685,15.707-18.9,29.686-38.844,44.322-58.484,6.118-8.207,12.234-16.527,19.154-24.135.158-.173.327-.336.485-.512l-.188.524c-4.162,11.364-9.353,22.322-14.6,33.311-9.767,20.442-22.147,42.054-26.372,64.02-3.738,19.421,3.232,40.695,26.866,38.255,22.215-2.293,40.916-24.089,56.359-38.774,18.7-17.787,37.1-35.9,55.5-53.99C286.6,130.119,259.122,103.076,240.125,122.185Z" transform="translate(3.633 3.548)" fill="#3c3fa7"/>
                <path id="Trazado_143620-2" data-name="Trazado 143620" d="M156.894,249.007c-8.7.384-15.94-2.293-21.053-7.813-7.106-7.673-9.748-20.566-7.07-34.491,3.488-18.146,12.25-35.77,20.725-52.812,2.026-4.081,4.035-8.119,5.945-12.114,1.808-3.789,3.711-7.769,5.605-11.883-1.113,1.482-2.216,2.964-3.307,4.43l-1.083,1.452c-3.8,5.1-7.56,10.226-11.317,15.343C134.8,165.494,123.9,180.356,112.2,194.428q-2.564,3.088-5.164,6.277C93.606,217.1,78.386,235.681,58.264,245.191c-17.943,8.468-40.886,7.327-50.042-11.246-16.456-33.36,4.933-78.169,20.549-110.89l1.776-3.717c4.6-9.665,9.687-19.126,15.057-28.556q-1.818,2.288-3.583,4.6c-9.249,12.157-24.522,12.654-33.948,6.11C.278,96.08-3.761,85.558,4.8,74.246c18.966-25.065,40.052-50.411,65.7-66C84.731-.4,99.969-2.376,111.281,2.966c9.957,4.7,15.779,14.618,16.4,27.927.727,15.61-3.383,30.766-9.01,45.294,19.244-18.552,54.483-45.217,81.68-42.612,12.494,1.2,21.892,8.285,27.928,21.045,9.926,20.985.136,48.084-10.747,71.829-5.181,11.3-10.828,22.6-16.29,33.523l-1.933,3.865c15.438-14.336,29.271-27.669,41.991-40.463h0c6.289-6.33,14.032-8.892,21.784-7.232a23.239,23.239,0,0,1,17.507,17.09c1.8,7.7-.734,15.413-7.143,21.713L271.357,157c-17.42,17.13-35.433,34.841-53.452,51.976-2.221,2.113-4.505,4.37-6.864,6.7-14.01,13.835-31.449,31.058-51.816,33.16C158.436,248.918,157.662,248.973,156.894,249.007Zm16.7-143.182a3.225,3.225,0,0,1,1.718.383,3.157,3.157,0,0,1,1.519,3.939l-.192.524c-4.363,11.913-9.874,23.457-14.736,33.638-1.927,4.031-3.956,8.108-6,12.226-8.247,16.584-16.773,33.732-20.072,50.881-2.239,11.647-.127,22.667,5.516,28.76,4.179,4.513,10.15,6.382,17.76,5.622,17.634-1.822,33.276-17.265,47.072-30.893,2.393-2.364,4.719-4.659,6.973-6.8,17.97-17.087,35.96-34.776,53.358-51.884l2.089-2.058c5.667-5.569,5.836-11.106,4.978-14.774a16.969,16.969,0,0,0-12.609-12.319c-3.671-.791-9.207-.554-14.748,5.023h0c-16.432,16.525-34.7,33.933-55.841,53.218a3.693,3.693,0,0,1-4.535.468,3.308,3.308,0,0,1-1-4.251c3.275-6.762,6.638-13.485,10-20.212,5.434-10.866,11.05-22.1,16.18-33.289,10.2-22.24,19.443-47.469,10.692-65.965C216.624,47.306,209.2,41.6,199.031,40.621c-25.356-2.428-62.454,26.214-81.187,46.074-1.995,2.117-3.925,4.306-5.858,6.491l-1.465,1.66a3.755,3.755,0,0,1-4.626.906,3.291,3.291,0,0,1-1.256-4.289c8.549-18.938,16.815-39.147,15.861-59.621-.512-10.975-4.932-18.735-12.782-22.444-9.16-4.322-21.809-2.532-33.849,4.782C49.385,29.06,28.91,53.715,10.428,78.142,4.586,85.86,7.7,92.213,12.554,95.585a17.271,17.271,0,0,0,23.853-4.112A292.491,292.491,0,0,1,63.446,60.726a3.7,3.7,0,0,1,4.707-.546,3.347,3.347,0,0,1,.8,4.482q-2.2,3.755-4.43,7.49C54.586,88.762,45,105.063,37.01,121.858l-1.777,3.728c-14.983,31.39-35.5,74.382-20.489,104.82,7.293,14.791,26.092,15.437,40.893,8.449,18.47-8.724,32.446-25.79,45.959-42.289q2.623-3.2,5.2-6.321c11.546-13.885,22.371-28.646,32.844-42.922q5.648-7.7,11.348-15.394l1.083-1.449c5.741-7.711,11.677-15.684,18.321-22.986l.339-.357A4.33,4.33,0,0,1,173.595,105.824Zm70.164,19.909.036,0Z"/>
              </g>
              <path id="Trazado_143621-2" data-name="Trazado 143621" d="M17.4,1.926C2.992,28.692-5.847,59.713,4.516,87.345c1.534,4.083,8.567,1.959,7.014-2.187C1.8,59.213,9.892,30.4,23.446,5.22,25.68,1.067,19.647-2.246,17.4,1.926Z" transform="translate(15.461 136.53)"/>
              <path id="Trazado_143622-2" data-name="Trazado 143622" d="M10.343,18.823c-.061,0-.117-.019-.174-.028-.092-.19-.176-.391-.206-.446l-.013-.021c-.006-.028,0-.011,0-.053-.393-1.557-.655-3.144-.931-4.734Q8.04,8,7.075,2.457A3.312,3.312,0,0,0,2.764.184a3.972,3.972,0,0,0-2.7,4.46L2.253,17.178c.611,3.481,1.63,8.035,5.873,8.55a4.057,4.057,0,0,0,4.529-2.667C13.127,21.336,12.307,19.061,10.343,18.823Z" transform="translate(30.086 193.792)"/>
              <path id="Trazado_143623-2" data-name="Trazado 143623" d="M14.179.377c-3.981-1.963-7.89,4.3-3.9,6.267,5.507,2.715,6.954,8.672,6.915,14.585a103.393,103.393,0,0,1-2.529,20.348A144.339,144.339,0,0,1,.5,80.115c-2.237,4.154,3.8,7.466,6.044,3.294A151.432,151.432,0,0,0,22.489,38.056C24.752,25.233,27.592,6.985,14.179.377Z" transform="translate(191.161 54.411)"/>
            </g>
          </g>
        </g>
      </g>
    </g>
  </g>
</svg>
