<svg xmlns="http://www.w3.org/2000/svg" xmlns:xlink="http://www.w3.org/1999/xlink" width="1328" height="666" viewBox="0 0 1328 666">
  <defs>
    <clipPath id="clip-path">
      <rect id="Rect치ngulo_41289" data-name="Rect치ngulo 41289" width="1328" height="666" transform="translate(0 -73)" fill="#6b8dfc"/>
    </clipPath>
  </defs>
  <g id="Grupo_166707" data-name="Grupo 166707" transform="translate(-180 -5177)">
    <path id="Trazado_170518" data-name="Trazado 170518" d="M0,0H1328V665.667H0Z" transform="translate(180 5177.333)" fill="#e1e8ff"/>
    <g id="Enmascarar_grupo_167" data-name="Enmascarar grupo 167" transform="translate(180 5250)" clip-path="url(#clip-path)">
      <g id="Grupo_166176" data-name="Grupo 166176" transform="translate(865.689 182)">
        <path id="Uni칩n_28" data-name="Uni칩n 28" d="M239.738,591.116c-41.544-2.827-75.7-41.484-103.143-72.537-4.613-5.224-9.087-10.291-13.444-15.025C87.8,465.17,52.515,425.419,18.392,386.978l-4.1-4.61c-12.555-14.138-17.043-32-12.65-50.282,4.79-19.934,19.842-36.791,37.452-41.965,16.037-4.7,31.67.522,43.975,14.743v-.008c24.89,28.74,52.012,58.632,82.331,90.722l-3.607-8.881c-10.189-25.108-20.724-51.061-30.3-77.082-9.622-26.123-18.659-54.077-23.014-81.478-4.81-30.261-4.04-59.894,7.587-86.167C129.6,111.363,149.5,93.751,175.215,89.63c55.972-8.938,125.74,50.058,163.464,91.659-10.189-33.557-17.22-68.732-14.3-105.482,2.49-31.335,15.339-55.24,36.173-67.322,23.662-13.723,54.716-10.663,83.087,8.184C494.767,50.633,535.649,108,572.212,164.921c16.5,25.688,7.259,50.829-9.212,64.353-19.916,16.352-51.168,16.766-69.012-10.829q-3.394-5.262-6.92-10.448c10.146,21.6,19.711,43.3,28.239,65.531l3.292,8.557c29,75.249,68.718,178.309,31.935,258.4-20.467,44.585-67.595,49.635-103.577,31.6-40.361-20.249-69.842-62.33-95.855-99.462-3.365-4.8-6.693-9.552-10.006-14.2-22.685-31.858-43.659-65.648-63.942-98.317q-10.832-17.463-21.775-34.876l-2.087-3.309q-3.151-5-6.369-10.066c3.5,9.469,7.038,18.623,10.4,27.338,3.541,9.187,7.287,18.475,11.071,27.853,15.794,39.154,32.133,79.652,37.62,121.933,4.209,32.43-2.387,62.994-17.653,81.758-10.983,13.5-26.08,20.547-43.865,20.547C242.926,591.283,241.339,591.233,239.738,591.116Z" transform="translate(0 19.661)" fill="#7b9aff" stroke="rgba(0,0,0,0)" stroke-miterlimit="10" stroke-width="1"/>
        <path id="Trazado_115699" data-name="Trazado 115699" d="M202.056,485.811c35.395,40.879,71.972,80.257,109.255,118.931-16.118-41.12-33.5-81.6-48.8-123.151-17.345-47.115-37.5-111.335-15.641-160.755,49.838-112.646,175.821-2.123,222.184,54.586,4.944,6.036,9.653,12.347,14.428,18.59-16.559-45.788-31.472-92.836-27.542-142.306,5.414-68.019,60.659-84.337,108.219-52.737,51.079,33.939,92.094,92.654,126.35,145.979,29.091,45.291-37.481,88.408-66.345,43.765a576.97,576.97,0,0,0-51.851-68.474q4.132,8.545,8.345,17.065c18.608,37.521,36.989,75.191,52.152,114.677,29.04,75.622,71.972,180.3,35.446,259.844-18.41,40.083-61.57,44.155-94.078,27.844-43.689-21.924-73.948-70.324-103.121-111.286-30.45-42.77-57.265-88.184-85.453-132.812-11.783-18.649-23.553-37.562-37.033-54.718-.309-.39-.639-.755-.948-1.153l.338,1.211c7.486,26.269,17.117,51.476,26.858,76.75,18.138,47.015,41.522,96.51,48.163,147.679,5.877,45.241-10.359,95.946-58.565,92.662-45.312-3.085-81.633-52.355-111.929-85.258-36.7-39.851-72.729-80.5-108.77-121.1C106.091,509.269,164.884,442.884,202.056,485.811Z" transform="translate(-106.821 -175.16)" fill="#a6bbff"/>
        <path id="Trazado_115700" data-name="Trazado 115700" d="M375.1,773.744c17.786,0,32.875-7.04,43.858-20.539,15.266-18.765,21.863-49.329,17.653-81.767-5.48-42.272-21.819-82.77-37.621-121.933-3.776-9.378-7.523-18.657-11.071-27.844-3.357-8.715-6.891-17.869-10.4-27.338,2.145,3.367,4.268,6.733,6.369,10.066l2.086,3.3c7.324,11.592,14.553,23.242,21.782,34.876,20.276,32.679,41.25,66.468,63.935,98.317,3.313,4.66,6.641,9.411,10.006,14.212,26.013,37.123,55.495,79.2,95.855,99.462,35.99,18.035,83.109,12.977,103.576-31.609,36.783-80.084-2.931-183.144-31.927-258.4l-3.3-8.549c-8.529-22.231-18.094-43.931-28.232-65.531q3.515,5.186,6.92,10.439c17.837,27.6,49.088,27.189,69,10.838,16.47-13.524,25.712-38.665,9.213-64.354C666.255,290.466,625.372,233.1,574.256,199.131c-28.379-18.839-59.425-21.9-83.095-8.176-20.834,12.081-33.676,35.979-36.173,67.314-2.924,36.75,4.106,71.932,14.3,105.482C431.56,322.158,361.8,263.161,305.827,272.1c-25.712,4.121-45.621,21.733-59.16,52.338-22.267,50.332-4.694,112.986,15.427,167.646,9.58,26.011,20.114,51.973,30.3,77.073l3.607,8.881c-30.318-32.081-57.441-61.974-82.331-90.714h0C201.369,473.1,185.736,467.889,169.7,472.59c-17.609,5.174-32.662,22.032-37.445,41.965-4.4,18.283.088,36.136,12.643,50.274l4.1,4.619c34.124,38.441,69.408,78.184,104.759,116.576,4.356,4.735,8.831,9.8,13.451,15.025,27.439,31.053,61.592,69.71,103.136,72.538C371.952,773.695,373.531,773.744,375.1,773.744Zm-21.077-334.67a6.33,6.33,0,0,0-3.555,1.078A8.5,8.5,0,0,0,347,449.563l.346,1.211c7.846,27.537,18.079,54.088,27.108,77.5,3.578,9.27,7.361,18.64,11.174,28.1C401,594.49,416.9,633.893,422.084,673.843c3.519,27.131-1.822,53.242-13.943,68.143-8.977,11.036-21.385,16.045-36.908,15.05-35.968-2.454-66.6-37.115-93.622-67.7-4.687-5.307-9.242-10.456-13.664-15.257-35.255-38.284-70.5-77.977-104.576-116.369l-4.092-4.619c-11.1-12.5-10.939-25.49-8.845-34.2,3.4-14.146,14.487-26.592,26.969-30.249,7.6-2.239,18.917-2.255,29.76,10.274h0c32.155,37.123,67.983,76.128,109.542,119.246a6.709,6.709,0,0,0,9.249.63,8.933,8.933,0,0,0,2.439-10.091c-6.09-15.547-12.364-31-18.63-46.451-10.138-24.967-20.614-50.788-30.1-76.534-18.851-51.194-35.483-109.511-15.853-153.873,11.416-25.8,27.145-39.967,48.082-43.325,52.181-8.333,125.571,55.116,162.134,99.835,3.894,4.768,7.648,9.71,11.409,14.644l2.85,3.748a6.749,6.749,0,0,0,9.4,1.65,8.873,8.873,0,0,0,2.968-10.207c-15.78-43.607-30.862-90.233-27.027-138.434,2.057-25.838,11.828-44.528,28.254-54.055,19.167-11.1,44.923-8.209,68.924,7.728,48.8,32.421,88.494,88.226,124.124,143.7,11.262,17.529,4.3,32.778-5.958,41.2-13.9,11.41-35.615,12.753-48.5-7.189A586.093,586.093,0,0,0,583.88,321.7a6.727,6.727,0,0,0-9.594-.8,8.987,8.987,0,0,0-2.057,10.614q4.154,8.595,8.389,17.139c18.844,37.993,36.982,75.3,51.821,113.931l3.3,8.574c27.821,72.2,65.919,171.079,32.361,244.147-16.3,35.506-54.884,38.972-84.571,24.088-37.048-18.582-64.119-57.231-90.294-94.594-3.387-4.834-6.744-9.619-10.079-14.312-22.384-31.427-43.211-64.984-63.362-97.439q-10.866-17.512-21.841-34.992l-2.087-3.292c-11.056-17.521-22.487-35.638-35.431-52.106l-.661-.8A7.6,7.6,0,0,0,354.027,439.074Zm-145.6,54.047h0Z" transform="translate(-113.187 -182.469)" fill="#3c3fa7"/>
        <path id="Trazado_115701" data-name="Trazado 115701" d="M149.817,224.613c27.071,61.394,42.337,133.359,18.564,199.355-3.519,9.751-17.734,5.489-14.171-4.411,22.326-61.965,8.382-128.831-17.08-186.576C132.935,223.452,145.6,215.044,149.817,224.613Z" transform="translate(376.407 94.074)" fill="#3c3fa7"/>
        <path id="Trazado_115702" data-name="Trazado 115702" d="M145.7,281.5c.125-.017.242-.058.36-.083.206-.456.4-.937.463-1.07l.029-.05c.015-.066-.007-.025.015-.124.948-3.7,1.631-7.454,2.344-11.219q2.5-13.122,4.988-26.244c.808-4.245,5.414-7.115,9.043-5.788,3.96,1.443,5.995,5.647,5.128,10.2L162.425,276.8c-1.572,8.242-4.077,19.047-12.819,20.7-3.776.705-8.1-1.119-9.036-5.8C139.761,287.693,141.65,282.261,145.7,281.5Z" transform="translate(358.216 212.205)" fill="#3c3fa7"/>
        <path id="Trazado_115703" data-name="Trazado 115703" d="M207.513,200.278c8.338-5.025,15.773,9.287,7.413,14.32-11.534,6.949-15.045,21.095-15.508,34.984-.529,15.78,1.043,32.007,3.313,47.546a344.946,344.946,0,0,0,25.5,89.072c4.2,9.527-8.47,17.935-12.687,8.367a364.113,364.113,0,0,1-28.519-104.9C183.564,259.773,179.42,217.194,207.513,200.278Z" transform="translate(-27.038 -60.291)" fill="#3c3fa7"/>
      </g>
    </g>
  </g>
</svg>
