<svg xmlns="http://www.w3.org/2000/svg" xmlns:xlink="http://www.w3.org/1999/xlink" width="503" height="194" viewBox="0 0 503 194">
  <defs>
    <clipPath id="clip-path">
      <rect id="AdobeStock_295954097" width="503" height="194" transform="translate(917 404)" fill="#a6bbff"/>
    </clipPath>
    <linearGradient id="linear-gradient" x1="-0.02" y1="1.39" x2="-0.018" y2="1.39" gradientUnits="objectBoundingBox">
      <stop offset="0" stop-color="#d5e0e6"/>
      <stop offset="0.005" stop-color="#d5e0e6"/>
      <stop offset="0.527" stop-color="#76a4c8"/>
      <stop offset="0.621" stop-color="#6c96bb"/>
      <stop offset="0.797" stop-color="#53739a"/>
      <stop offset="1" stop-color="#32436e"/>
    </linearGradient>
    <clipPath id="clip-path-2">
      <rect id="Rectángulo_44168" data-name="Rectángulo 44168" width="396.397" height="9.3" fill="none"/>
    </clipPath>
    <clipPath id="clip-path-3">
      <rect id="Rectángulo_44170" data-name="Rectángulo 44170" width="424.793" height="76.997" fill="none"/>
    </clipPath>
    <clipPath id="clip-path-4">
      <rect id="Rectángulo_44172" data-name="Rectángulo 44172" width="9.057" height="5.951" fill="none"/>
    </clipPath>
    <clipPath id="clip-path-5">
      <rect id="Rectángulo_44174" data-name="Rectángulo 44174" width="7.995" height="8.912" fill="none"/>
    </clipPath>
    <clipPath id="clip-path-6">
      <rect id="Rectángulo_44175" data-name="Rectángulo 44175" width="15.866" height="13.544" fill="none"/>
    </clipPath>
    <clipPath id="clip-path-7">
      <rect id="Rectángulo_44176" data-name="Rectángulo 44176" width="1.241" height="4.031" fill="none"/>
    </clipPath>
    <clipPath id="clip-path-9">
      <rect id="Rectángulo_44178" data-name="Rectángulo 44178" width="16.211" height="16.959" fill="none"/>
    </clipPath>
    <clipPath id="clip-path-10">
      <rect id="Rectángulo_44179" data-name="Rectángulo 44179" width="3.975" height="9.749" fill="none"/>
    </clipPath>
    <clipPath id="clip-path-11">
      <rect id="Rectángulo_44180" data-name="Rectángulo 44180" width="19.16" height="13.383" fill="none"/>
    </clipPath>
    <clipPath id="clip-path-12">
      <rect id="Rectángulo_44181" data-name="Rectángulo 44181" width="26.256" height="34.819" fill="none"/>
    </clipPath>
    <clipPath id="clip-path-13">
      <rect id="Rectángulo_44182" data-name="Rectángulo 44182" width="7.553" height="5.846" fill="none"/>
    </clipPath>
    <clipPath id="clip-path-14">
      <rect id="Rectángulo_44183" data-name="Rectángulo 44183" width="25.067" height="28.85" fill="none"/>
    </clipPath>
    <clipPath id="clip-path-16">
      <rect id="Rectángulo_44185" data-name="Rectángulo 44185" width="263.581" height="46.323" fill="none"/>
    </clipPath>
    <clipPath id="clip-path-17">
      <rect id="Rectángulo_44200" data-name="Rectángulo 44200" width="48.867" height="35.686" fill="none"/>
    </clipPath>
    <clipPath id="clip-path-18">
      <rect id="Rectángulo_44201" data-name="Rectángulo 44201" width="12.177" height="12.329" fill="none"/>
    </clipPath>
    <clipPath id="clip-path-19">
      <rect id="Rectángulo_44202" data-name="Rectángulo 44202" width="19.799" height="5.816" fill="none"/>
    </clipPath>
    <clipPath id="clip-path-20">
      <rect id="Rectángulo_44203" data-name="Rectángulo 44203" width="110.306" height="12.567" fill="none"/>
    </clipPath>
  </defs>
  <g id="Enmascarar_grupo_245" data-name="Enmascarar grupo 245" transform="translate(-917 -404)" clip-path="url(#clip-path)">
    <g id="Grupo_172827" data-name="Grupo 172827" transform="translate(7963.91 13038.724)">
      <rect id="Rectángulo_44161" data-name="Rectángulo 44161" width="525.126" height="179.438" transform="translate(-7056.9 -12634.724)" fill="url(#linear-gradient)"/>
      <g id="Grupo_172733" data-name="Grupo 172733" transform="translate(-7061.886 -12633.259)" opacity="0.2">
        <g id="Grupo_172732" data-name="Grupo 172732">
          <g id="Grupo_172731" data-name="Grupo 172731" clip-path="url(#clip-path-2)">
            <path id="Trazado_173406" data-name="Trazado 173406" d="M7.546,117.419l396.4-4.485-396.4-4.815Z" transform="translate(-7.546 -108.119)" fill="#fffad7"/>
          </g>
        </g>
      </g>
      <path id="Trazado_173408" data-name="Trazado 173408" d="M716.315,152.954s-15.821,25.478,0,35.412c0,0,16.016-6.231,0-35.412" transform="translate(-7279.835 -12754.82)" fill="#477aa0"/>
      <path id="Trazado_173409" data-name="Trazado 173409" d="M717.755,152.954s-2.037,4.889-2.738,7.34h-.932s2.322-5.578,3.67-7.34" transform="translate(-7281.275 -12754.82)" fill="#fffad7"/>
      <path id="Trazado_173410" data-name="Trazado 173410" d="M14.667,231.393s52.279-19.014,85.887-7.791,53.561,26.027,53.561,26.027,25-19.437,43.134-15.953,40.391,10.48,40.391,10.48S278.4,202.99,310.6,205.6s121.829,35.359,121.829,35.359L260.192,308.576l-150.3-5.135L14.667,274.968Z" transform="translate(-7071.566 -12770.571)" fill="#7cc2ce"/>
      <g id="Grupo_172739" data-name="Grupo 172739" transform="translate(-7067.169 -12536.134)" opacity="0.2" style="mix-blend-mode: multiply;isolation: isolate">
        <g id="Grupo_172738" data-name="Grupo 172738">
          <g id="Grupo_172737" data-name="Grupo 172737" clip-path="url(#clip-path-3)">
            <path id="Trazado_173411" data-name="Trazado 173411" d="M10.269,265.041s70.017,46.548,132.1,21.134c0,0,43.9,18.75,88.8-3.431,0,0,94.172,17.348,164.3-35.907l29.324,8.419-29.324,29.157L201.318,323.833,32.675,315.608,0,286.175Z" transform="translate(0 -246.836)" fill="#8ab9c7"/>
          </g>
        </g>
      </g>
      <path id="Trazado_173412" data-name="Trazado 173412" d="M17.792,292.088s5.144-4.849,4.566,0c0,0,4.711-4.7,2.523.948A2.027,2.027,0,0,1,27.769,295s2.713-2.353,1.575.71c0,0,1.925-1.307,2.013.746,0,0,3.525-1.272,3.207,1.354,0,0,2.482-1.663,2.482,1.138,0,0,2.276-1.75,1.838.7,0,0,5.452-3.223,2.551.8,0,0,2.963-1.5,2.438,1.043,0,0,3.588-1.864,2.538,1.256l-.642,2.42Z" transform="translate(-7072.503 -12795.892)" fill="#307699"/>
      <path id="Trazado_173413" data-name="Trazado 173413" d="M56.907,308.336s4.663-5.314,4.545-.431c0,0,4.246-5.127,2.6.706a2.026,2.026,0,0,1,3.06,1.685s2.479-2.6,1.636.558c0,0,1.793-1.484,2.075.553,0,0,3.39-1.6,3.32,1.045,0,0,2.314-1.89,2.579.9,0,0,2.1-1.958,1.9.524,0,0,5.124-3.724,2.615.55,0,0,2.808-1.769,2.525.808,0,0,3.4-2.194,2.645,1.01l-.41,2.47Z" transform="translate(-7084.231 -12800.655)" fill="#307699"/>
      <path id="Trazado_173414" data-name="Trazado 173414" d="M639.646,226.325s-5.161-2.915-.869-3.605c0,0-3.148-6.157,2.135-2.216,0,0,.008-3.286,2.577-.692,0,0-.757-7.252,3.745-2.369,0,0,.968-4.249,3.579-.639,0,0,.443-6.188,3.852-1.692,0,0,.848-3.993,3.667-.618l1.453,1.889Z" transform="translate(-7258.184 -12772.866)" fill="#2c8999"/>
      <path id="Trazado_173415" data-name="Trazado 173415" d="M582.462,252.778s-7.636-1.37-.745-3.633c0,0-4.863-4.279,2.21-2.142,0,0,.12-3.283,2.6-.6,0,0-.508-7.274,3.824-2.239,0,0,1.113-4.213,3.6-.515,0,0,.655-6.169,3.909-1.559,0,0,.983-3.962,3.686-.492l1.387,1.937Z" transform="translate(-7240.723 -12780.972)" fill="#2c8999"/>
      <path id="Trazado_173416" data-name="Trazado 173416" d="M612.261,240.285s-5.058-3.091-.745-3.633c0,0-2.935-6.261,2.21-2.142,0,0,.12-3.282,2.6-.6,0,0-.508-7.274,3.825-2.239,0,0,1.113-4.213,3.6-.515,0,0,.655-6.169,3.908-1.559,0,0,.984-3.962,3.686-.492l1.387,1.937Z" transform="translate(-7250 -12777.227)" fill="#2c8999"/>
      <path id="Trazado_173417" data-name="Trazado 173417" d="M669.017,212.623s-5.161-2.915-.87-3.605c0,0-3.148-6.157,2.135-2.217,0,0,.008-3.285,2.577-.692,0,0-.758-7.252,3.745-2.369,0,0,.968-4.249,3.579-.639,0,0,.442-6.187,3.852-1.692,0,0,.847-3.993,3.667-.618l1.454,1.888Z" transform="translate(-7266.99 -12768.758)" fill="#2c8999"/>
      <path id="Trazado_173418" data-name="Trazado 173418" d="M696.144,196.979s-5.161-2.915-.87-3.605c0,0-3.148-6.157,2.136-2.217,0,0,.007-3.285,2.577-.692,0,0-.758-7.252,3.745-2.369,0,0,.968-4.249,3.579-.639,0,0,.443-6.187,3.852-1.692,0,0,.847-3.993,3.667-.618l1.454,1.888Z" transform="translate(-7275.124 -12764.066)" fill="#2c8999"/>
      <path id="Trazado_173419" data-name="Trazado 173419" d="M723.792,180.259s-5.161-2.916-.87-3.605c0,0-3.148-6.157,2.135-2.217,0,0,.008-3.285,2.577-.692,0,0-.758-7.252,3.745-2.369,0,0,.968-4.249,3.579-.639,0,0,.442-6.187,3.852-1.692,0,0,.847-3.993,3.667-.618l1.453,1.888Z" transform="translate(-7283.414 -12759.054)" fill="#2c8999"/>
      <path id="Trazado_173420" data-name="Trazado 173420" d="M119.656,319.223s-14.225-7.9,0-29.713c0,0,14.657,20.5,0,29.713" transform="translate(-7101.15 -12795.765)" fill="#4e77a3"/>
      <path id="Trazado_173421" data-name="Trazado 173421" d="M748.425,93.131s-28.357,52.3,0,72.692c0,0,28.707-12.79,0-72.692" transform="translate(-7287.792 -12736.884)" fill="#466f9b"/>
      <path id="Trazado_173422" data-name="Trazado 173422" d="M748.833,125.479a58.207,58.207,0,0,0,12.983-.909q-1.093-3.869-2.618-8.137c-1.9,3.294-5.3,7.737-10.365,9.046" transform="translate(-7291.693 -12743.871)" fill="#3a668e"/>
      <path id="Trazado_173423" data-name="Trazado 173423" d="M751.773,148.628c-4.777.768-11.95-1.175-15.465-2.276-.225,1.881-.375,3.77-.437,5.653,6.262.116,15.9-3.377,15.9-3.377" transform="translate(-7287.807 -12752.842)" fill="#3a668e"/>
      <path id="Trazado_173424" data-name="Trazado 173424" d="M78.532,316.709s-10.349-5.749,0-21.617c0,0,10.664,14.911,0,21.617" transform="translate(-7089.336 -12797.438)" fill="#4e77a3"/>
      <path id="Trazado_173425" data-name="Trazado 173425" d="M16.7,284.084s-11.494-6.385,0-24.009c0,0,11.843,16.562,0,24.009" transform="translate(-7070.645 -12786.939)" fill="#4e77a3"/>
      <path id="Trazado_173426" data-name="Trazado 173426" d="M34.99,297.79s-8-4.446,0-16.716c0,0,8.246,11.531,0,16.716" transform="translate(-7076.593 -12793.235)" fill="#4e77a3"/>
      <path id="Trazado_173427" data-name="Trazado 173427" d="M748.8,93.924c-.126-.266-.244-.526-.373-.793,0,0-28.357,52.3,0,72.692,0,0,.171-.076.469-.242-25.8-19.068-3.468-65.088-.1-71.656" transform="translate(-7287.792 -12736.884)" fill="#fffad7"/>
      <path id="Trazado_173428" data-name="Trazado 173428" d="M36.365,281.074c-.123.189-.231.37-.347.555,1.059,1.581,7.122,11.266.33,16.151l.017.01c8.246-5.185,0-16.716,0-16.716" transform="translate(-7077.968 -12793.235)" fill="#fffad7"/>
      <path id="Trazado_173429" data-name="Trazado 173429" d="M92.926,308.013s-20.755-11.53,0-43.352c0,0,21.385,29.9,0,43.352" transform="translate(-7092.265 -12788.314)" fill="#4e77a3"/>
      <path id="Trazado_173430" data-name="Trazado 173430" d="M14.667,321.5v-71.8s103.884,68.847,316.475,7.654c122.762-35.337,208.65-100.777,208.65-100.777V321.5Z" transform="translate(-7071.566 -12755.905)" fill="#efedef"/>
      <path id="Trazado_173431" data-name="Trazado 173431" d="M331.142,257.347c-212.591,61.193-316.475-7.654-316.475-7.654v2.946s38.633,38.466,127.668,40.57c93.657,2.214,110.9-11.175,188.866-33.616,43.5-12.522,107.382-24.39,139.744-40.659,58.966-29.642,68.847-59.658,68.847-59.658V156.57S453.9,222.011,331.142,257.347" transform="translate(-7071.566 -12755.905)" fill="#ddd8dd"/>
      <path id="Trazado_173432" data-name="Trazado 173432" d="M541.761,303.124s107.464-26.963,174.3-74.35l.06,1.016s-59.5,50.969-202.18,82.571c-.547.121-1.1.238-1.645.356Z" transform="translate(-7220.772 -12777.554)" fill="#b4c7d8"/>
      <path id="Trazado_173433" data-name="Trazado 173433" d="M592.566,344.116s22.692-12.216,40.5-11.519,35.958,6.827,35.958,6.827-31.542,11.325-48.762,10.627-27.692-5.935-27.692-5.935" transform="translate(-7244.839 -12808.675)" fill="#ccc4ce"/>
      <path id="Trazado_173434" data-name="Trazado 173434" d="M542.137,297.62s107.464-26.963,174.3-74.35l.06,1.016S660.95,271.9,514.317,306.857c-.545.13,27.82-9.237,27.82-9.237" transform="translate(-7221.375 -12775.903)" fill="#b4c7d8"/>
      <path id="Trazado_173435" data-name="Trazado 173435" d="M627.018,382.375s49.261-.469,85.708-11.992c0,0-17.879-.285-26.742,3.769,0,0-.349-7.618-12.394.764,0,0-11.923-6.752-15.474,1.928,0,0-5.23-.629-31.1,5.531" transform="translate(-7255.169 -12820.013)" fill="#ccc4ce"/>
      <path id="Trazado_173436" data-name="Trazado 173436" d="M654.3,276.932c-2.84-4.174-8.541-1.25-10.729.1a.325.325,0,0,0-.06-.134.307.307,0,0,0-.074-.048c4.516-4.893,8-14.365-6.36-10.2-13.606,3.95-19.942,18.238-20.306,17.93s1.1-4.287.039-5.064c-4.535-3.322-15.762,7.448-19.589,24.785l46.273-12.992s14.365-9.15,10.807-14.379" transform="translate(-7246.235 -12788.602)" fill="#ccc4ce"/>
      <path id="Trazado_173437" data-name="Trazado 173437" d="M663.416,282.079c2.188-1.351,7.889-4.275,10.729-.1a3.191,3.191,0,0,1,.51,1.3,3.331,3.331,0,0,0-.51-2.458c-2.4-3.53-6.617-2.42-10.729.1,0,0-.013,1.113,0,1.162" transform="translate(-7266.081 -12792.486)" fill="#fffad7"/>
      <path id="Trazado_173438" data-name="Trazado 173438" d="M616.808,286.375a1.056,1.056,0,0,1,.356.716c.085-.835.044-1.584-.356-1.878-4.535-3.322-15.762,7.448-19.589,24.785l.294-.083c4.076-16.6,14.869-26.781,19.294-23.54" transform="translate(-7246.235 -12794.296)" fill="#fffad7"/>
      <path id="Trazado_173439" data-name="Trazado 173439" d="M625.114,285.744c.365.308,6.7-13.98,20.307-17.928,7.2-2.091,9.916-.746,10.259,1.73.355-3.168-1.992-5.293-10.259-2.893-13.1,3.8-19.457,17.179-20.239,17.9-.115.622-.184,1.1-.068,1.193" transform="translate(-7254.581 -12788.602)" fill="#fffad7"/>
      <path id="Trazado_173440" data-name="Trazado 173440" d="M597,193.455s3.107-1.595,3.32-1.135-3.012,1.792-3.012,1.792Z" transform="translate(-7246.168 -12766.599)" fill="#131d28"/>
      <path id="Trazado_173441" data-name="Trazado 173441" d="M594.965,193.229c.886,2.031,2.107,3.487,3.126,3.014.84-.367.8-2.311-.085-4.341s-2.286-3.38-3.126-3.014c-1.242.571-.8,2.311.085,4.341m2.364-1.032c.717,1.643.83,3.178.251,3.431s-1.628-.874-2.345-2.516-.83-3.178-.251-3.431,1.629.874,2.346,2.516" transform="translate(-7245.303 -12765.577)" fill="#ce4670"/>
      <path id="Trazado_173442" data-name="Trazado 173442" d="M595.911,192.7c.242-.105.683.368.984,1.056s.347,1.332.1,1.438-.683-.366-.984-1.054-.347-1.334-.105-1.44" transform="translate(-7245.796 -12766.735)" fill="#e24c7b"/>
      <path id="Trazado_173443" data-name="Trazado 173443" d="M594.789,193.344c.886,2.031,2.264,3.39,3.076,3.035s.753-2.288-.134-4.319-2.264-3.389-3.076-3.035-.752,2.289.134,4.319m2.365-1.032c.717,1.643.83,3.178.251,3.431s-1.629-.874-2.346-2.516-.83-3.179-.251-3.431,1.629.874,2.346,2.516" transform="translate(-7245.294 -12765.619)" fill="#e24c7b"/>
      <path id="Trazado_173444" data-name="Trazado 173444" d="M595.359,192.086l-.977-1.58.371-.619.653.057.29,2.119Z" transform="translate(-7245.384 -12765.895)" fill="#e24c7b"/>
      <path id="Trazado_173445" data-name="Trazado 173445" d="M597.155,196.083l.495,1.79.706.149.4-.518L597.4,195.85Z" transform="translate(-7246.215 -12767.683)" fill="#e24c7b"/>
      <path id="Trazado_173446" data-name="Trazado 173446" d="M596.168,193.456c.146-.064.41.22.59.633s.209.8.063.863-.409-.22-.59-.633-.209-.8-.063-.863" transform="translate(-7245.892 -12766.962)" fill="#ce4670"/>
      <path id="Trazado_173447" data-name="Trazado 173447" d="M595.542,195.57l.47-.614-.269-.615-.705.041Z" transform="translate(-7245.581 -12767.23)" fill="#e24c7b"/>
      <path id="Trazado_173448" data-name="Trazado 173448" d="M597.9,192.776l-.837.741.269.615,1.073-.169Z" transform="translate(-7246.188 -12766.761)" fill="#e24c7b"/>
      <path id="Trazado_173449" data-name="Trazado 173449" d="M500.385,185.742s34.968,2.13,35.247-3.347c.348-6.822-33.525-6.425-33.525-6.425Z" transform="translate(-7217.201 -12761.721)" fill="#ea5c88"/>
      <path id="Trazado_173450" data-name="Trazado 173450" d="M535.417,181.475c-.534,1.577-4.686,4.735-7.757,9.407-2.789,4.243-10.26,18.793-10.26,18.793l1.547,2.194s19.595-17.748,21.787-27.82Z" transform="translate(-7222.303 -12763.372)" fill="#ea5c88"/>
      <path id="Trazado_173451" data-name="Trazado 173451" d="M563.841,194.856l-76.972,33.626-.486-1.113,76.972-33.626a1.007,1.007,0,0,1,.486,1.113" transform="translate(-7213.002 -12767.051)" fill="#131d28"/>
      <path id="Trazado_173452" data-name="Trazado 173452" d="M513.586,220.805l2.462,3.539-2.532,2.1s-.109,2.434-1.077,3.344c-1.457,1.368-4.8,3.361-5.919,2.03-2.409-2.865,4.589-8.289,4.589-8.289Z" transform="translate(-7218.89 -12775.164)" fill="#464a6f"/>
      <path id="Trazado_173453" data-name="Trazado 173453" d="M490.8,237.267a.4.4,0,0,1,.521.2l.73,1.661a.4.4,0,0,1-.2.521L483.77,243.2a3.292,3.292,0,0,1-1.047-2.385Z" transform="translate(-7211.905 -12780.091)" fill="#e24c7b"/>
      <g id="Grupo_172742" data-name="Grupo 172742" transform="translate(-6728.875 -12542.842)" opacity="0.3" style="mix-blend-mode: multiply;isolation: isolate">
        <g id="Grupo_172741" data-name="Grupo 172741">
          <g id="Grupo_172740" data-name="Grupo 172740" clip-path="url(#clip-path-4)">
            <path id="Trazado_173454" data-name="Trazado 173454" d="M492.184,239.137l-.73-1.661a.389.389,0,0,0-.279-.221l.472,1.075a.394.394,0,0,1-.2.521l-8.081,3.548c-.075-.075-.139-.148-.2-.22a3.435,3.435,0,0,0,.741,1.026l8.081-3.548a.4.4,0,0,0,.2-.521" transform="translate(-483.161 -237.256)" fill="#e24c7b"/>
          </g>
        </g>
      </g>
      <path id="Trazado_173455" data-name="Trazado 173455" d="M567.365,320.99l-.15.2.663-.251Z" transform="translate(-7237.239 -12805.188)" fill="#a3aab4"/>
      <path id="Trazado_173456" data-name="Trazado 173456" d="M562.375,324.082a.387.387,0,0,0-.022.219l.331-.306Z" transform="translate(-7235.778 -12806.104)" fill="#a3aab4"/>
      <path id="Trazado_173457" data-name="Trazado 173457" d="M572.592,315.007a10.965,10.965,0,0,1,4.235,4.666l-16.14,4.459s-.12-1.9,2.528-3.67,6.954-2.192,5.135-3.665Z" transform="translate(-7235.281 -12803.41)" fill="#131d28"/>
      <path id="Trazado_173458" data-name="Trazado 173458" d="M577.767,317.2c.988.107,1.606.133,1.96.137a11.055,11.055,0,0,0-2.736-2.331l-1.635.69a3.807,3.807,0,0,0,2.411,1.5" transform="translate(-7239.68 -12803.409)" fill="#b4bcc9"/>
      <path id="Trazado_173459" data-name="Trazado 173459" d="M521.836,270.531s-1.566.984.41,2.11c2.212,1.262,8.7,1.528,12.976,4.1,5.133,3.087,13.506,15.024,22.63,24.652-.175.438-4.6,2.647-4.6,2.647s-17.347-14.046-31.885-20.927l-10.857-6.388Z" transform="translate(-7220.236 -12790.074)" fill="#464a6f"/>
      <path id="Trazado_173460" data-name="Trazado 173460" d="M541.093,219.628,527,223.588l1.626,6.06c-24.9,22.167-21.378,29.417-21.378,29.417,1.7,3.12,6.145,4.249,6.145,4.249l7.168-7.892c9.377-5.914,23.732-14.886,26.114-22.322,0,0,3.282-6.36-5.585-13.473" transform="translate(-7219.208 -12774.813)" fill="#464a6f"/>
      <path id="Trazado_173461" data-name="Trazado 173461" d="M609.654,303.066,503.561,331.141c-5.835,1.423-8.155-.043-8.574.541s3.11,3.794,8.461,2.538c5.755-.858,106.5-30.071,106.5-30.071Z" transform="translate(-7215.572 -12799.829)" fill="#131d28"/>
      <path id="Trazado_173462" data-name="Trazado 173462" d="M503.79,331.1a19.859,19.859,0,0,1-8.038.441,8.942,8.942,0,0,0,7.9,1.562c5.589-.832,100.811-28.421,106.254-30l-.011-.039Z" transform="translate(-7215.812 -12799.829)" fill="#9faed0"/>
      <path id="Trazado_173463" data-name="Trazado 173463" d="M554.611,326.506s-2.83-2.464,4.083-1.768l16.139-4.459s4.5-7.409,2.771.143Z" transform="translate(-7233.288 -12804.016)" fill="#131d28"/>
      <path id="Trazado_173464" data-name="Trazado 173464" d="M562.389,323.637a5.877,5.877,0,0,1,2.048.482l1.758-.863s-1.472-1-2.509-.683a2.574,2.574,0,0,0-1.3,1.064" transform="translate(-7235.792 -12805.66)" fill="#b4bcc9"/>
      <path id="Trazado_173465" data-name="Trazado 173465" d="M567.429,320.64a6.465,6.465,0,0,1,2.019-.872,4.247,4.247,0,0,1,1.8,1.141l-1.882.62a3.563,3.563,0,0,0-1.932-.889" transform="translate(-7237.303 -12804.837)" fill="#b4bcc9"/>
      <path id="Trazado_173466" data-name="Trazado 173466" d="M576.628,321.1l-15.892,4.391a2.045,2.045,0,0,0-.048.471l16.139-4.459c-.062-.139-.131-.27-.2-.4" transform="translate(-7235.281 -12805.235)" fill="#b4bcc9"/>
      <path id="Trazado_173467" data-name="Trazado 173467" d="M571.917,320.965l-.145.2.657-.267Z" transform="translate(-7238.605 -12805.176)" fill="#b0b7c1"/>
      <path id="Trazado_173468" data-name="Trazado 173468" d="M567.007,324.185a.386.386,0,0,0-.017.22l.324-.314Z" transform="translate(-7237.168 -12806.133)" fill="#b0b7c1"/>
      <path id="Trazado_173469" data-name="Trazado 173469" d="M577.088,314.734a10.965,10.965,0,0,1,4.349,4.559l-16.023,4.861s-.169-1.9,2.436-3.732,6.9-2.364,5.042-3.793Z" transform="translate(-7236.698 -12803.328)" fill="#202a35"/>
      <path id="Trazado_173470" data-name="Trazado 173470" d="M493.562,246.166c-1.679.1-3.733,1.734-5.805,1.855-2.536.151-3.572-1.933-2.278-3.388-.139.008-.287-.123-.426-.115a2.12,2.12,0,0,0-1.045,2.061c.153,2.587,3.616,4.572,6.564,4.4,2.1-.125,5.182-1.6,5.078-3.357-.041-.682-.654-1.538-2.088-1.453m-3.21,4.05c-2.34.139-4.9-.825-5.755-3.061a3.619,3.619,0,0,0,3.4,1.365c2.019-.136,4.787-1.8,5.895-1.566a.8.8,0,0,1,.538,1.174c-.336.883-1.673,1.946-4.078,2.088" transform="translate(-7212.289 -12782.274)" fill="#202a35"/>
      <path id="Trazado_173471" data-name="Trazado 173471" d="M598.906,193.342s3.107-1.595,3.32-1.135S599.214,194,599.214,194Z" transform="translate(-7246.741 -12766.565)" fill="#202a35"/>
      <path id="Trazado_173472" data-name="Trazado 173472" d="M596.875,193.117c.886,2.03,2.108,3.487,3.126,3.014.839-.367.8-2.311-.085-4.342s-2.286-3.379-3.126-3.013c-1.242.571-.8,2.311.085,4.341m2.365-1.033c.717,1.643.83,3.178.251,3.432s-1.629-.875-2.346-2.516-.83-3.179-.251-3.431,1.629.874,2.346,2.516" transform="translate(-7245.876 -12765.544)" fill="#db537d"/>
      <path id="Trazado_173473" data-name="Trazado 173473" d="M597.821,192.593c.242-.106.683.367.984,1.055s.347,1.333.105,1.439-.683-.366-.984-1.055-.347-1.333-.1-1.439" transform="translate(-7246.369 -12766.701)" fill="#ef5988"/>
      <path id="Trazado_173474" data-name="Trazado 173474" d="M596.7,193.231c.886,2.031,2.264,3.39,3.076,3.035s.753-2.288-.134-4.319-2.264-3.39-3.076-3.035-.752,2.288.134,4.319m2.365-1.032c.717,1.643.83,3.178.251,3.431s-1.629-.875-2.346-2.516-.83-3.178-.251-3.431,1.629.874,2.346,2.516" transform="translate(-7245.867 -12765.586)" fill="#ef5988"/>
      <path id="Trazado_173475" data-name="Trazado 173475" d="M597.269,191.973l-.977-1.58.371-.619.653.058.291,2.119Z" transform="translate(-7245.957 -12765.86)" fill="#ef5988"/>
      <path id="Trazado_173476" data-name="Trazado 173476" d="M599.065,195.97l.5,1.79.706.149.4-.518-1.356-1.654Z" transform="translate(-7246.788 -12767.648)" fill="#ef5988"/>
      <path id="Trazado_173477" data-name="Trazado 173477" d="M598.078,193.343c.146-.064.41.22.59.633s.209.8.063.863-.409-.22-.59-.633-.209-.8-.063-.863" transform="translate(-7246.465 -12766.928)" fill="#db537d"/>
      <path id="Trazado_173478" data-name="Trazado 173478" d="M597.452,195.457l.47-.614-.269-.615-.705.041Z" transform="translate(-7246.154 -12767.196)" fill="#ef5988"/>
      <path id="Trazado_173479" data-name="Trazado 173479" d="M599.809,192.663l-.837.742.269.615,1.073-.169Z" transform="translate(-7246.76 -12766.728)" fill="#ef5988"/>
      <path id="Trazado_173480" data-name="Trazado 173480" d="M486.194,178.519c-1.1-.02-8.911-7.83-8.9-16.222,1-1.643,3.887-3.716,8.259-3.508,1.988.095,2.368,1.16,4.019,4.074,2.312,4.079,2.971,6.428,1.9,9-1.374,3.308-4.181,6.674-5.281,6.654" transform="translate(-7210.278 -12756.565)" fill="#f9b74b"/>
      <path id="Trazado_173481" data-name="Trazado 173481" d="M474.873,169.276l2.815.458-.291-.839s5.344-2.925,7.278-2.311c2.582.82,4.807,8.677,4.807,8.677l.237-1.151-2.259-9.946L480.2,165.3Z" transform="translate(-7209.552 -12758.182)" fill="#202a35"/>
      <path id="Trazado_173482" data-name="Trazado 173482" d="M478.746,170.731c.046.124.1.242.146.364,1.183-.617,5.3-2.658,6.945-2.134,2.092.664,3.95,5.949,4.58,7.929.088-.116.179-.226.264-.347l-.118-.282s-2.226-7.857-4.807-8.676c-1.935-.614-7.278,2.311-7.278,2.311l.291.839Z" transform="translate(-7210.632 -12759.182)" fill="#f4a422"/>
      <path id="Trazado_173483" data-name="Trazado 173483" d="M474.136,164.541s7.813-4.856,10.26-3.48,4.159,6.236,4.856,9.435l5.909-10.352s-1.238-6.182-3.682-8.912c-1.838-2.053-5.8-3.769-10.731-2.323-3.308.97-12,4.792-6.613,15.632" transform="translate(-7208.814 -12753.447)" fill="#53577c"/>
      <g id="Grupo_172745" data-name="Grupo 172745" transform="translate(-6721.859 -12596.975)" opacity="0.3" style="mix-blend-mode: multiply;isolation: isolate">
        <g id="Grupo_172744" data-name="Grupo 172744">
          <g id="Grupo_172743" data-name="Grupo 172743" clip-path="url(#clip-path-5)">
            <path id="Rectángulo_44173" data-name="Rectángulo 44173" d="M3.347,0h0A3.347,3.347,0,0,1,6.695,3.347V5.373A3.347,3.347,0,0,1,3.348,8.72h0A3.346,3.346,0,0,1,0,5.374V3.347A3.347,3.347,0,0,1,3.347,0Z" transform="matrix(0.896, -0.443, 0.443, 0.896, -0.936, 2.032)" fill="#53577c"/>
          </g>
        </g>
      </g>
      <g id="Grupo_172748" data-name="Grupo 172748" transform="translate(-6735.632 -12604.176)" opacity="0.3" style="mix-blend-mode: multiply;isolation: isolate">
        <g id="Grupo_172747" data-name="Grupo 172747">
          <g id="Grupo_172746" data-name="Grupo 172746" clip-path="url(#clip-path-6)">
            <path id="Trazado_173484" data-name="Trazado 173484" d="M489.377,149.821c-.113-.056-.23-.111-.347-.163-.335,3.158-4.325,7.506-10.143,10.681a31.744,31.744,0,0,1-5.376,2.331c.061.175.125.352.195.531a31.581,31.581,0,0,0,5.507-2.374c6.019-3.285,10.081-7.826,10.164-11.006" transform="translate(-473.511 -149.657)" fill="#53577c"/>
          </g>
        </g>
      </g>
      <g id="Grupo_172751" data-name="Grupo 172751" transform="translate(-6733.474 -12599.385)" opacity="0.3" style="mix-blend-mode: multiply;isolation: isolate">
        <g id="Grupo_172750" data-name="Grupo 172750">
          <g id="Grupo_172749" data-name="Grupo 172749" clip-path="url(#clip-path-7)">
            <path id="Trazado_173485" data-name="Trazado 173485" d="M477.54,158.6c-.291,1.112-.674,1.975-.853,1.928s-.091-.987.2-2.1.674-1.975.854-1.928.09.987-.2,2.1" transform="translate(-476.593 -156.499)" fill="#53577c"/>
          </g>
        </g>
      </g>
      <g id="Grupo_172754" data-name="Grupo 172754" transform="translate(-6735.79 -12599.247)" opacity="0.3" style="mix-blend-mode: multiply;isolation: isolate">
        <g id="Grupo_172753" data-name="Grupo 172753">
          <g id="Grupo_172752" data-name="Grupo 172752" clip-path="url(#clip-path-7)">
            <path id="Trazado_173486" data-name="Trazado 173486" d="M474.232,158.8c-.292,1.112-.674,1.975-.854,1.928s-.091-.987.2-2.1.674-1.975.854-1.928.09.987-.2,2.1" transform="translate(-473.285 -156.695)" fill="#53577c"/>
          </g>
        </g>
      </g>
      <path id="Trazado_173487" data-name="Trazado 173487" d="M481.843,178.634a3.068,3.068,0,0,1,.022,1.338s-.678.318-.773.517c-.14.293,1.322,1.03,2.456.421Z" transform="translate(-7211.414 -12762.521)" fill="#f9b74b"/>
      <path id="Trazado_173488" data-name="Trazado 173488" d="M582.226,316.908c.99.083,1.608.093,1.963.088a11.046,11.046,0,0,0-2.793-2.262l-1.617.73a3.807,3.807,0,0,0,2.447,1.444" transform="translate(-7241.006 -12803.328)" fill="#c1c9d6"/>
      <path id="Trazado_173489" data-name="Trazado 173489" d="M496.76,183.977s-5.531-3.1-5.663-5.325c1.209-2.333,3.8-4.431,9.378-16.6,7.316-1.55,14.675,15.145,14.675,15.145Z" transform="translate(-7214.416 -12757.519)" fill="#db537d"/>
      <g id="Grupo_172757" data-name="Grupo 172757" transform="translate(-6716.365 -12595.564)" opacity="0.3" style="mix-blend-mode: multiply;isolation: isolate">
        <g id="Grupo_172756" data-name="Grupo 172756">
          <g id="Grupo_172755" data-name="Grupo 172755" clip-path="url(#clip-path-9)">
            <path id="Trazado_173490" data-name="Trazado 173490" d="M501.029,173.024s7.663,4.86,12.453,5.889l3.732-1.374c.139-1-.248-2.543-1.372-4.8-2.743-4.825-7.574-11.7-12.388-10.684,7.276,5.828-2.425,10.968-2.425,10.968" transform="translate(-501.029 -161.954)" fill="#db537d"/>
          </g>
        </g>
      </g>
      <path id="Trazado_173491" data-name="Trazado 173491" d="M525.209,271.543s-1.541,1.023.462,2.1c2.243,1.206,8.74,1.311,13.074,3.773,5.208,2.958,13.877,14.683,23.237,24.08-.163.442-4.533,2.761-4.533,2.761s-17.691-13.608-32.4-20.124l-11.013-6.117Z" transform="translate(-7221.295 -12790.378)" fill="#53577c"/>
      <g id="Grupo_172760" data-name="Grupo 172760" transform="translate(-6721.395 -12583.291)" opacity="0.3" style="mix-blend-mode: multiply;isolation: isolate">
        <g id="Grupo_172759" data-name="Grupo 172759">
          <g id="Grupo_172758" data-name="Grupo 172758" clip-path="url(#clip-path-10)">
            <path id="Trazado_173492" data-name="Trazado 173492" d="M493.845,186.635a26.188,26.188,0,0,0,3.739,2.6l.235-.087-.57-9.663a18.571,18.571,0,0,0-3.4,7.152" transform="translate(-493.845 -179.484)" fill="#db537d"/>
          </g>
        </g>
      </g>
      <path id="Trazado_173493" data-name="Trazado 173493" d="M543.532,219.934l-13.987,4.31,1.776,6.017c-24.344,22.781-20.637,29.941-20.637,29.941,1.774,3.077,6.248,4.095,6.248,4.095l6.969-8.067c9.228-6.145,23.354-15.472,25.551-22.965,0,0,3.122-6.44-5.92-13.33" transform="translate(-7220.229 -12774.903)" fill="#53577c"/>
      <g id="Grupo_172763" data-name="Grupo 172763" transform="translate(-6692.1 -12554.97)" opacity="0.2" style="mix-blend-mode: multiply;isolation: isolate">
        <g id="Grupo_172762" data-name="Grupo 172762">
          <g id="Grupo_172761" data-name="Grupo 172761" clip-path="url(#clip-path-11)">
            <path id="Trazado_173494" data-name="Trazado 173494" d="M551.088,219.934l-13.987,4.31,1.776,6.017q-1.686,1.577-3.194,3.056c3.708-.527,14.907-2.666,19.161-9.694,0,0-.174-.242-.5-.687a21.886,21.886,0,0,0-3.253-3" transform="translate(-535.685 -219.934)" fill="#53577c"/>
          </g>
        </g>
      </g>
      <g id="Grupo_172766" data-name="Grupo 172766" transform="translate(-6696.515 -12553.369)" opacity="0.2" style="mix-blend-mode: multiply;isolation: isolate">
        <g id="Grupo_172765" data-name="Grupo 172765">
          <g id="Grupo_172764" data-name="Grupo 172764" clip-path="url(#clip-path-12)">
            <path id="Trazado_173495" data-name="Trazado 173495" d="M549.89,237.744c-2.262,3-13.41,12.135-18.474,16.964A22.493,22.493,0,0,0,529.379,257c.016.149.37-.209.37-.209,9.227-6.145,23.173-15.352,25.369-22.845,0,0,2.646-5.475-4.027-11.729l-1.193,1.544c5.412,6.53,2.974,10.029-.008,13.98" transform="translate(-529.379 -222.22)" fill="#53577c"/>
          </g>
        </g>
      </g>
      <path id="Trazado_173496" data-name="Trazado 173496" d="M525.97,218.306s11.531-3.4,15.833-9.635c0,0-26.6-36.951-40.885-32.472-6.564,2.058-4.307,16.618,4.389,23.831,19.939,13.367,20.663,18.276,20.663,18.276" transform="translate(-7216.222 -12761.678)" fill="#ef5988"/>
      <path id="Trazado_173497" data-name="Trazado 173497" d="M510.224,180.138c2.378,3.663,2.271,7.955-.24,9.585s-6.476-.016-8.855-3.679-2.271-7.955.241-9.586,6.476.016,8.854,3.679" transform="translate(-7216.91 -12761.679)" fill="#f76995"/>
      <path id="Trazado_173498" data-name="Trazado 173498" d="M502.3,185.629s34.968,2.13,35.247-3.347c.348-6.822-33.525-6.425-33.525-6.425Z" transform="translate(-7217.773 -12761.687)" fill="#f76995"/>
      <g id="Grupo_172769" data-name="Grupo 172769" transform="translate(-6729.571 -12588.387)" opacity="0.5">
        <g id="Grupo_172768" data-name="Grupo 172768">
          <g id="Grupo_172767" data-name="Grupo 172767" clip-path="url(#clip-path-13)">
            <path id="Trazado_173499" data-name="Trazado 173499" d="M482.168,176.707a7.159,7.159,0,0,1,.073,1c0,.14,3.671.715,4.782,0,.9-.58.745-2.168.745-2.168l.4-.36a1.828,1.828,0,0,0,.055-1.042l1.5-1.044-.448-.879Z" transform="translate(-482.168 -172.206)" fill="#f4a422"/>
          </g>
        </g>
      </g>
      <g id="Grupo_172772" data-name="Grupo 172772" transform="translate(-6710.205 -12572.222)" opacity="0.3" style="mix-blend-mode: multiply;isolation: isolate">
        <g id="Grupo_172771" data-name="Grupo 172771">
          <g id="Grupo_172770" data-name="Grupo 172770" clip-path="url(#clip-path-14)">
            <path id="Trazado_173500" data-name="Trazado 173500" d="M524.172,213.2a134.223,134.223,0,0,0,10.722-11.9c-1.762-1.977-3.666-4.017-5.653-6-.3.408-.6.824-.881,1.258-1.786,2.717-5.491,9.66-7.925,14.3a52.711,52.711,0,0,0-10.608-4.507l.008.009c19.225,13,19.944,17.79,19.944,17.79s1.7-.5,4.029-1.47a36.623,36.623,0,0,0-9.636-9.476" transform="translate(-509.827 -195.294)" fill="#ef5988"/>
          </g>
        </g>
      </g>
      <path id="Trazado_173501" data-name="Trazado 173501" d="M486.457,169.735l.7-.431s1.991,2.532,1.992,4.536l-.761.524Z" transform="translate(-7213.024 -12759.724)" fill="#646493"/>
      <path id="Trazado_173502" data-name="Trazado 173502" d="M537.327,181.363c-.534,1.577-4.686,4.734-7.757,9.406-2.789,4.243-10.26,18.793-10.26,18.793l1.547,2.194s19.595-17.747,21.787-27.82Z" transform="translate(-7222.875 -12763.339)" fill="#f76995"/>
      <path id="Trazado_173503" data-name="Trazado 173503" d="M497.812,157.344s-3.383,4.744-10.942,9.011c0,0,.653,1.555,1.386,3.7,0,0,7.782-5.316,10.517-10.016a3.743,3.743,0,0,0-.961-2.7" transform="translate(-7213.148 -12756.137)" fill="#646493"/>
      <path id="Trazado_173504" data-name="Trazado 173504" d="M480.97,175.914s.088.641-.4.724c-.265.055-1.807-2-2.393-4.373a45.867,45.867,0,0,0,5.79-2.7s2.756,3.927,1.9,5.919-4.895.432-4.895.432" transform="translate(-7210.541 -12759.801)" fill="#acbbdd"/>
      <path id="Trazado_173505" data-name="Trazado 173505" d="M480.971,175.65c-.4.175-.125.606-.39.683s-1.355-1.905-1.935-3.536a36.031,36.031,0,0,0,5.1-2.256s2.228,3.175,1.538,4.785-3.915.148-4.313.323" transform="translate(-7210.683 -12760.094)" fill="#202a35"/>
      <path id="Trazado_173506" data-name="Trazado 173506" d="M546.993,226.708s-7.918-10.934-7.035-11.371,13.13,7.007,13.13,7.007a26.24,26.24,0,0,1-6.094,4.363" transform="translate(-7229.045 -12773.52)" fill="#f76995"/>
      <path id="Trazado_173507" data-name="Trazado 173507" d="M565.751,194.743l-76.972,33.627-.486-1.113,76.972-33.627a1.007,1.007,0,0,1,.486,1.113" transform="translate(-7213.575 -12767.017)" fill="#202a35"/>
      <path id="Trazado_173508" data-name="Trazado 173508" d="M515.5,220.692l2.463,3.539-2.533,2.1s-.109,2.434-1.077,3.344c-1.457,1.368-4.8,3.361-5.919,2.03-2.409-2.865,4.589-8.289,4.589-8.289Z" transform="translate(-7219.462 -12775.131)" fill="#53577c"/>
      <path id="Trazado_173509" data-name="Trazado 173509" d="M492.714,237.154a.4.4,0,0,1,.521.2l.73,1.661a.4.4,0,0,1-.2.521l-8.081,3.548a3.292,3.292,0,0,1-1.047-2.385Z" transform="translate(-7212.478 -12780.057)" fill="#ef5988"/>
      <g id="Grupo_172775" data-name="Grupo 172775" transform="translate(-6727.538 -12542.92)" opacity="0.3" style="mix-blend-mode: multiply;isolation: isolate">
        <g id="Grupo_172774" data-name="Grupo 172774">
          <g id="Grupo_172773" data-name="Grupo 172773" clip-path="url(#clip-path-4)">
            <path id="Trazado_173510" data-name="Trazado 173510" d="M494.1,239.025l-.73-1.661a.388.388,0,0,0-.279-.221l.472,1.075a.4.4,0,0,1-.2.521l-8.081,3.548c-.075-.075-.139-.148-.2-.22a3.4,3.4,0,0,0,.739,1.026l8.081-3.548a.4.4,0,0,0,.2-.521" transform="translate(-485.071 -237.143)" fill="#ef5988"/>
          </g>
        </g>
      </g>
      <path id="Trazado_173511" data-name="Trazado 173511" d="M614.051,300.776l-105.36,30.711c-5.8,1.568-8.153.16-8.557.755s3.2,3.715,8.521,2.325c5.732-1,105.718-32.715,105.718-32.715Z" transform="translate(-7217.116 -12799.143)" fill="#202a35"/>
      <path id="Trazado_173512" data-name="Trazado 173512" d="M509,331.36a21.1,21.1,0,0,1-8.1.728,8.945,8.945,0,0,0,7.934,1.365c5.568-.972,100.071-30.925,105.473-32.638l-.011-.038Z" transform="translate(-7217.353 -12799.144)" fill="#acbbdd"/>
      <path id="Trazado_173513" data-name="Trazado 173513" d="M559.394,326.554s-2.891-2.392,4.037-1.869l16.023-4.86s4.314-7.519,2.773.074Z" transform="translate(-7234.714 -12803.858)" fill="#202a35"/>
      <path id="Trazado_173514" data-name="Trazado 173514" d="M567.019,323.725a5.872,5.872,0,0,1,2.059.431l1.736-.907s-1.5-.96-2.525-.62a2.57,2.57,0,0,0-1.271,1.1" transform="translate(-7237.18 -12805.673)" fill="#c1c9d6"/>
      <path id="Trazado_173515" data-name="Trazado 173515" d="M571.979,320.6a6.455,6.455,0,0,1,2-.922,4.24,4.24,0,0,1,1.824,1.1l-1.866.666a3.562,3.562,0,0,0-1.954-.84" transform="translate(-7238.667 -12804.81)" fill="#c1c9d6"/>
      <path id="Trazado_173516" data-name="Trazado 173516" d="M581.229,320.678l-15.778,4.786a2.061,2.061,0,0,0-.036.472l16.023-4.86c-.067-.137-.138-.267-.209-.4" transform="translate(-7236.698 -12805.109)" fill="#c1c9d6"/>
      <path id="Trazado_173517" data-name="Trazado 173517" d="M686.3,326.715s11.521-7.522,16.059-7.338,14.314,3.667,14.314,3.667-15.012,6.872-19.55,6.582-10.822-2.912-10.822-2.912" transform="translate(-7272.945 -12804.72)" fill="#ccc4ce"/>
      <path id="Trazado_173518" data-name="Trazado 173518" d="M655.391,317.057s6.038-5.181,17.8-.777c0,0-1.4,6.016-17.8.777" transform="translate(-7263.677 -12803.26)" fill="#ccc4ce"/>
      <path id="Trazado_173519" data-name="Trazado 173519" d="M713.167,343.283s20.3-11.911,36.059-13.482v13.482s-18.554,4.2-36.059,0" transform="translate(-7281 -12807.846)" fill="#ccc4ce"/>
      <path id="Trazado_173520" data-name="Trazado 173520" d="M26.645,338.872s13.964-6.4,21.3-4.947S84.6,345.156,84.6,345.156s-22.692,6.695-32.816,5.267-25.136-11.551-25.136-11.551" transform="translate(-7075.158 -12809.018)" fill="#ccc4ce"/>
      <path id="Trazado_173521" data-name="Trazado 173521" d="M19,316.756s7.913-2.793,11.753-2.444,11.056,5.12,11.056,5.12-7.215,4.538-13.034,5S19,316.756,19,316.756" transform="translate(-7072.865 -12803.192)" fill="#ccc4ce"/>
      <path id="Trazado_173522" data-name="Trazado 173522" d="M51.576,326.878s5.12-1.28,8.5,0c0,0-5.7,3.025-8.5,0" transform="translate(-7082.633 -12806.799)" fill="#ccc4ce"/>
      <path id="Trazado_173523" data-name="Trazado 173523" d="M105.259,342.87a12.1,12.1,0,0,1,6.1-1.629,17.87,17.87,0,0,1,5.771,1.629s-5.12,2.327-8.263,2.095-3.607-2.095-3.607-2.095" transform="translate(-7098.729 -12811.269)" fill="#ccc4ce"/>
      <path id="Trazado_173524" data-name="Trazado 173524" d="M111.243,352.817s6.284-4.306,11.172-4.422,11.521,4.422,11.521,4.422a72.782,72.782,0,0,1-16.292,2.209s-4.073,0-6.4-2.209" transform="translate(-7100.523 -12813.42)" fill="#ccc4ce"/>
      <path id="Trazado_173525" data-name="Trazado 173525" d="M19.764,347.026s3.753-1.285,6.372.842a12.86,12.86,0,0,1-4.8,1.166,1.527,1.527,0,0,1-1.571-2.007" transform="translate(-7073.077 -12812.895)" fill="#ccc4ce"/>
      <path id="Trazado_173526" data-name="Trazado 173526" d="M735.822,316.334s2.925-2.481,5.019-2.292,3.883.41,3.883.41-3.832,2.264-5.344,2.354a13.507,13.507,0,0,1-3.558-.472" transform="translate(-7287.792 -12803.117)" fill="#ccc4ce"/>
      <path id="Trazado_173527" data-name="Trazado 173527" d="M687.8,353.1a8.44,8.44,0,0,1,4.434-1c2.182.262,3.6.419,3.6.419a7.9,7.9,0,0,1-3.6,1.35,11.853,11.853,0,0,1-4.434-.768" transform="translate(-7273.394 -12814.521)" fill="#ccc4ce"/>
      <path id="Trazado_173528" data-name="Trazado 173528" d="M626.8,274.8c-.378.773-1.1,1.185-1.61.921s-.62-1.1-.242-1.877,1.1-1.185,1.61-.921.62,1.1.242,1.876" transform="translate(-7254.482 -12790.767)" fill="#ccc4ce"/>
      <path id="Trazado_173529" data-name="Trazado 173529" d="M675.051,274.085c-.68.4-1.444.333-1.708-.139s.075-1.178.755-1.573,1.445-.334,1.708.139-.075,1.177-.755,1.573" transform="translate(-7269.032 -12790.548)" fill="#ccc4ce"/>
      <path id="Trazado_173530" data-name="Trazado 173530" d="M683.45,261.128c-.582.526-1.337.624-1.685.218s-.16-1.159.422-1.685,1.337-.624,1.685-.219.16,1.16-.422,1.686" transform="translate(-7271.532 -12786.675)" fill="#ccc4ce"/>
      <path id="Trazado_173531" data-name="Trazado 173531" d="M612.8,282.025c-.592,1.21-1.721,1.856-2.522,1.443s-.971-1.729-.379-2.94,1.721-1.856,2.522-1.443.97,1.729.379,2.94" transform="translate(-7249.931 -12792.601)" fill="#ccc4ce"/>
      <path id="Trazado_173532" data-name="Trazado 173532" d="M655.766,255.886c-.445.691-1.176,1-1.633.69s-.468-1.121-.024-1.811,1.175-1,1.633-.69.468,1.121.024,1.812" transform="translate(-7263.194 -12785.104)" fill="#ccc4ce"/>
      <path id="Trazado_173533" data-name="Trazado 173533" d="M633.128,262.314c-.221.452-.642.692-.941.538s-.363-.646-.141-1.1.642-.692.941-.538.362.646.141,1.1" transform="translate(-7256.638 -12787.268)" fill="#ccc4ce"/>
      <path id="Trazado_173534" data-name="Trazado 173534" d="M692.156,256.142c-.356.314-.815.368-1.024.12s-.089-.7.268-1.019.814-.368,1.023-.12.089.705-.267,1.019" transform="translate(-7274.362 -12785.407)" fill="#ccc4ce"/>
      <path id="Trazado_173535" data-name="Trazado 173535" d="M672.129,246.94c-.29.256-.662.3-.832.1s-.072-.573.218-.828.662-.3.832-.1.072.573-.218.828" transform="translate(-7268.421 -12782.714)" fill="#ccc4ce"/>
      <path id="Trazado_173536" data-name="Trazado 173536" d="M672.484,260.231c-.309.273-.707.32-.888.1s-.078-.611.232-.884.707-.32.888-.1.077.611-.232.884" transform="translate(-7268.509 -12786.681)" fill="#ccc4ce"/>
      <path id="Trazado_173537" data-name="Trazado 173537" d="M688.1,277.855c-.414.088-.8-.075-.856-.363s.23-.592.644-.679.8.075.856.363-.229.592-.643.679" transform="translate(-7273.224 -12791.951)" fill="#ccc4ce"/>
      <path id="Trazado_173538" data-name="Trazado 173538" d="M641.047,268.588c-.26.31-.637.415-.842.234s-.162-.579.1-.889.637-.415.842-.234.162.579-.1.889" transform="translate(-7259.084 -12789.198)" fill="#ccc4ce"/>
      <path id="Trazado_173539" data-name="Trazado 173539" d="M602.128,295.42c-.133.542-.532.907-.891.812s-.541-.608-.408-1.15.532-.907.891-.813.541.61.408,1.151" transform="translate(-7247.304 -12797.188)" fill="#ccc4ce"/>
      <g id="Grupo_172778" data-name="Grupo 172778" transform="translate(-7031.068 -12556.766)" opacity="0.2">
        <g id="Grupo_172777" data-name="Grupo 172777">
          <g id="Grupo_172776" data-name="Grupo 172776" clip-path="url(#clip-path-16)">
            <path id="Trazado_173540" data-name="Trazado 173540" d="M382.835,244.094c-1.556,3.66-4.116,6.075-5.718,5.395s-1.638-4.2-.081-7.861,4.116-6.075,5.718-5.395,1.638,4.2.081,7.861" transform="translate(-148.806 -222.991)" fill="#467c9b"/>
            <path id="Trazado_173541" data-name="Trazado 173541" d="M242.075,262.9c-1.745,1.083-3.611,1.234-4.168.336s.405-2.5,2.15-3.587,3.611-1.234,4.168-.335-.405,2.5-2.15,3.586" transform="translate(-107.386 -229.769)" fill="#467c9b"/>
            <path id="Trazado_173542" data-name="Trazado 173542" d="M224.9,269.465c-2.824,1.753-5.564,2.446-6.122,1.548s1.28-3.046,4.1-4.8,5.564-2.446,6.121-1.548-1.28,3.046-4.1,4.8" transform="translate(-101.669 -231.432)" fill="#467c9b"/>
            <path id="Trazado_173543" data-name="Trazado 173543" d="M68.852,239.321c-3.313.252-6.065-.4-6.145-1.451s2.541-2.112,5.854-2.364,6.065.4,6.145,1.451-2.541,2.112-5.855,2.364" transform="translate(-54.902 -222.791)" fill="#467c9b"/>
            <path id="Trazado_173544" data-name="Trazado 173544" d="M91.519,237.093c-1.709.13-3.146-.425-3.207-1.239s1.274-1.581,2.983-1.711,3.146.425,3.207,1.24-1.273,1.58-2.983,1.711" transform="translate(-62.579 -222.393)" fill="#467c9b"/>
            <path id="Trazado_173545" data-name="Trazado 173545" d="M86.85,244.139c-2.392.182-4.41-.723-4.509-2.021s1.76-2.5,4.151-2.679,4.41.723,4.509,2.02-1.76,2.5-4.151,2.68" transform="translate(-60.788 -223.979)" fill="#467c9b"/>
            <path id="Trazado_173546" data-name="Trazado 173546" d="M71.739,254.833c-3.256,1.785-6.68,1.8-7.649.033s.886-4.646,4.141-6.431,6.68-1.8,7.649-.032-.885,4.646-4.141,6.43" transform="translate(-55.24 -226.279)" fill="#467c9b"/>
            <path id="Trazado_173547" data-name="Trazado 173547" d="M103.236,245.238c-2,2.009-4.508,2.757-5.6,1.671s-.351-3.6,1.65-5.6,4.508-2.758,5.6-1.671.351,3.6-1.65,5.6" transform="translate(-65.225 -223.895)" fill="#467c9b"/>
            <path id="Trazado_173548" data-name="Trazado 173548" d="M113.291,247.8a1.982,1.982,0,1,1,3.015-.774,2.233,2.233,0,0,1-3.015.774" transform="translate(-69.593 -225.358)" fill="#467c9b"/>
            <path id="Trazado_173549" data-name="Trazado 173549" d="M111.274,237.409c-2.827-.8-4.886-2.271-4.6-3.295s2.814-1.211,5.641-.415,4.886,2.271,4.6,3.295-2.815,1.211-5.642.415" transform="translate(-68.078 -222.117)" fill="#467c9b"/>
            <path id="Trazado_173550" data-name="Trazado 173550" d="M56.072,247.528c-2.391.182-4.41-.723-4.509-2.021s1.76-2.5,4.151-2.68,4.41.723,4.509,2.021-1.76,2.5-4.151,2.68" transform="translate(-51.56 -224.996)" fill="#467c9b"/>
            <path id="Trazado_173551" data-name="Trazado 173551" d="M255.762,267.542c-1.347,2.663-3.2,4.434-4.146,3.957s-.615-3.022.732-5.685,3.2-4.435,4.146-3.957.615,3.022-.732,5.685" transform="translate(-111.382 -230.685)" fill="#467c9b"/>
            <path id="Trazado_173552" data-name="Trazado 173552" d="M422.943,230.1c.917,1.224,1.013,2.7.216,3.3s-2.187.088-3.1-1.136-1.012-2.7-.216-3.3,2.187-.088,3.1,1.136" transform="translate(-161.821 -220.771)" fill="#467c9b"/>
            <path id="Trazado_173553" data-name="Trazado 173553" d="M382.611,231.926c-1.263.861-2.743.893-3.3.07s.008-2.189,1.271-3.05,2.743-.893,3.3-.07-.008,2.189-1.271,3.05" transform="translate(-149.765 -220.64)" fill="#467c9b"/>
            <path id="Trazado_173554" data-name="Trazado 173554" d="M254.294,256.6c-1.045.713-2.269.739-2.733.057s.007-1.81,1.052-2.523,2.269-.739,2.733-.058-.007,1.811-1.052,2.523" transform="translate(-111.473 -228.226)" fill="#467c9b"/>
            <path id="Trazado_173555" data-name="Trazado 173555" d="M266.582,256.91c-1.225-.314-2.053-1.217-1.848-2.015s1.364-1.19,2.589-.875,2.053,1.216,1.848,2.014-1.365,1.19-2.59.876" transform="translate(-115.468 -228.325)" fill="#467c9b"/>
            <path id="Trazado_173556" data-name="Trazado 173556" d="M240.894,272.892c-.983-.252-1.646-.975-1.482-1.616s1.094-.954,2.077-.7,1.646.976,1.482,1.616-1.094.954-2.077.7" transform="translate(-107.877 -233.295)" fill="#467c9b"/>
            <path id="Trazado_173557" data-name="Trazado 173557" d="M248.325,281.676c-1.579-.4-2.644-1.566-2.38-2.594s1.756-1.533,3.335-1.128,2.642,1.567,2.379,2.594-1.756,1.533-3.334,1.128" transform="translate(-109.831 -235.493)" fill="#467c9b"/>
            <path id="Trazado_173558" data-name="Trazado 173558" d="M265.275,266.3c-1.473-1.542-1.853-3.57-.849-4.529s3.013-.487,4.486,1.055,1.853,3.57.849,4.529-3.013.487-4.486-1.055" transform="translate(-115.216 -230.533)" fill="#467c9b"/>
            <path id="Trazado_173559" data-name="Trazado 173559" d="M401.807,250c-.287,5.456-2.612,9.768-5.194,9.632s-4.442-4.669-4.155-10.124,2.612-9.768,5.194-9.632,4.442,4.668,4.155,10.124" transform="translate(-153.764 -224.117)" fill="#467c9b"/>
            <path id="Trazado_173560" data-name="Trazado 173560" d="M397,230.1c-.537,2.041-1.991,3.428-3.247,3.1s-1.839-2.253-1.3-4.295,1.991-3.428,3.247-3.1,1.839,2.254,1.3,4.295" transform="translate(-153.712 -219.883)" fill="#467c9b"/>
            <path id="Trazado_173561" data-name="Trazado 173561" d="M409.832,234.529c-2,.673-3.958.22-4.372-1.012s.872-2.774,2.873-3.447,3.958-.219,4.372,1.012-.872,2.775-2.873,3.447" transform="translate(-157.648 -221.084)" fill="#467c9b"/>
            <path id="Trazado_173562" data-name="Trazado 173562" d="M419.144,222.416c-2.832.952-5.463.725-5.877-.506s1.547-3,4.378-3.952,5.462-.725,5.876.506-1.546,3-4.377,3.952" transform="translate(-159.995 -217.369)" fill="#467c9b"/>
            <path id="Trazado_173563" data-name="Trazado 173563" d="M406.131,221.629c-1.28.43-2.532.141-2.8-.647s.558-1.774,1.838-2.2,2.532-.14,2.8.647-.558,1.775-1.838,2.2" transform="translate(-157.019 -217.731)" fill="#467c9b"/>
          </g>
        </g>
      </g>
      <path id="Trazado_173564" data-name="Trazado 173564" d="M125.925,315.725c7.642-10.075-3.9-26.214-3.9-26.214-.272.417-.53.827-.781,1.234.518.737,10.481,15.136,4.678,24.981" transform="translate(-7103.523 -12795.766)" fill="#fffad7"/>
      <path id="Trazado_173565" data-name="Trazado 173565" d="M96.546,264.66c-.265.406-.518.807-.77,1.206,1.859,2.711,17.1,25.912,4.153,39.569,15.52-14.337-3.383-40.776-3.383-40.776" transform="translate(-7095.886 -12788.313)" fill="#fffad7"/>
      <path id="Trazado_173566" data-name="Trazado 173566" d="M80.5,295.092s-.011,2.526,1.759,2.913a21.967,21.967,0,0,0-1.759-2.913" transform="translate(-7091.306 -12797.438)" fill="#fffad7"/>
      <path id="Trazado_173567" data-name="Trazado 173567" d="M18.051,260.584s8.3,11.623,4.037,19.773c4.91-8.166-3.745-20.282-3.745-20.282-.467.716-.882,1.405-1.276,2.084.308-.515.634-1.04.984-1.575" transform="translate(-7072.286 -12786.939)" fill="#fffad7"/>
      <path id="Trazado_173568" data-name="Trazado 173568" d="M685.527,204.557s14.607,17.036,75.016,8.119c0,0-35.884-18.447-65.419-13.692-1.886,1.193-5.607,2.906-9.6,5.573" transform="translate(-7272.712 -12768.388)" fill="#366484" opacity="0.127"/>
      <path id="Trazado_173569" data-name="Trazado 173569" d="M710.549,188.973s17.749,3.1,35.5-1.032c0,0-11.96-6.523-22.233-7.268-4.772,2.848-8.235,4.907-13.264,8.3" transform="translate(-7280.215 -12763.132)" fill="#366484" opacity="0.089"/>
      <path id="Trazado_173570" data-name="Trazado 173570" d="M738.267,169.377s7.019,3.177,18.484,4.191V156.354Z" transform="translate(-7288.525 -12755.84)" fill="#366484"/>
      <path id="Trazado_173571" data-name="Trazado 173571" d="M665.4,234.287s2.815,8.674,32.4,4.911c0,0-13.128-10.428-29.057-8.531Z" transform="translate(-7266.676 -12778.053)" fill="#366484" opacity="0.262"/>
      <path id="Trazado_173572" data-name="Trazado 173572" d="M641.667,231.835s2.159,1.454,12.081.215a14.121,14.121,0,0,0-9.57-2.969Z" transform="translate(-7259.562 -12777.637)" fill="#366484" opacity="0.146"/>
      <path id="Trazado_173650" data-name="Trazado 173650" d="M640.541,226.066s7.877-4.8.7-16.255c0,0-7,10.186-.7,16.255" transform="translate(-7258.436 -12771.868)" fill="#477aa0"/>
      <path id="Trazado_173651" data-name="Trazado 173651" d="M662.689,223.212s-14.225-7.9,0-29.713c0,0,14.657,20.5,0,29.713" transform="translate(-7263.969 -12766.978)" fill="#466f9b"/>
      <path id="Trazado_173652" data-name="Trazado 173652" d="M641.664,210.546c.134.214.252.421.376.629-.244-.445-.5-.9-.8-1.365,0,0-5.884,8.569-1.993,14.671-3.016-6.031,2.414-13.936,2.414-13.936" transform="translate(-7258.438 -12771.868)" fill="#fffad7"/>
      <path id="Trazado_173653" data-name="Trazado 173653" d="M665.631,202.96a14.422,14.422,0,0,1-5.533-.676q-.454.967-.826,1.89a13.021,13.021,0,0,0,6.36-1.214" transform="translate(-7264.84 -12769.611)" fill="#3a668e"/>
      <path id="Trazado_173654" data-name="Trazado 173654" d="M672.033,214.7c-.086-.689-.2-1.374-.35-2.051a12.506,12.506,0,0,1-5.345,1.907,19.545,19.545,0,0,0,5.7.144" transform="translate(-7266.959 -12772.72)" fill="#3a668e"/>
      <path id="Trazado_173655" data-name="Trazado 173655" d="M656.56,221.457a14.811,14.811,0,0,0,1.462,4.842,18.106,18.106,0,0,0,8.065-2.362,17.117,17.117,0,0,1-9.526-2.481" transform="translate(-7264.027 -12775.36)" fill="#3a668e"/>
      <path id="Trazado_173656" data-name="Trazado 173656" d="M663.348,194.49c-.405-.634-.66-.99-.66-.99-10.41,15.961-5.584,24.473-2.246,27.891-3.2-3.86-6.616-12.209,2.906-26.9" transform="translate(-7263.969 -12766.979)" fill="#fffad7"/>
      <path id="Trazado_173657" data-name="Trazado 173657" d="M404.306,381.836h43.721s-6.982-3.723-11.637-1.862c0,0-2.327-6.4-7.448-.522,0,0-7.3-6.9-12.726-.049,0,0-4.2-.826-11.911,2.432" transform="translate(-7188.393 -12821.808)" fill="#ccc4ce"/>
      <path id="Trazado_173658" data-name="Trazado 173658" d="M53.9,377.8s20.609,5.818,38.35,6.052c0,0-7.457-3.844-14.241-3.026,0,0-1.939-6.241-6.06-3.025,0,0-3.153-2.208-6.876,1.456,0,0-2.328-2.852-11.172-1.456" transform="translate(-7083.331 -12821.961)" fill="#ccc4ce"/>
      <path id="Trazado_173659" data-name="Trazado 173659" d="M109.677,362.158l8.309,1,9.536,1.1,12.371,1.353c4.531.508,9.448.967,14.643,1.521l3.948.414,4.044.452c2.729.282,5.515.6,8.354.857,5.673.59,11.553,1.014,17.535,1.29,2.991.147,6.009.207,9.037.29,3.03.016,6.071.05,9.111.038,3.042-.046,6.082-.035,9.108-.13,3.027-.053,6.042-.086,9.03-.2l4.464-.121,4.417-.176,4.363-.182,4.3-.253,4.225-.246,4.141-.288c2.733-.179,5.4-.387,8-.607l3.845-.313,3.724-.367c2.442-.237,4.807-.431,7.065-.723,2.259-.274,4.43-.509,6.487-.781,2.052-.305,4.006-.548,5.84-.8,3.67-.491,6.841-1.1,9.477-1.472l8.234-1.479.048.2s-2.938.8-8.116,2.095l-4.317.944c-1.574.331-3.27.729-5.1,1.048-1.827.335-3.77.716-5.826,1.068s-4.23.643-6.492.99c-2.261.364-4.629.634-7.077.949-1.224.157-2.469.309-3.736.447l-3.861.37-3.967.38-4.074.282-4.163.281c-1.4.085-2.82.124-4.248.189l-4.32.178-4.384.106q-4.412.127-8.919.125c-3,.023-6.025-.036-9.061-.076s-6.08-.2-9.125-.293l-35.745-1.64c-5.7-.275-11.222-.57-16.441-1.017s-10.138-1.016-14.673-1.582-8.683-1.161-12.352-1.739-6.86-1.12-9.48-1.614-4.676-.9-6.074-1.194l-2.14-.472Z" transform="translate(-7100.043 -12817.547)" fill="#ddd8dd"/>
      <path id="Trazado_173660" data-name="Trazado 173660" d="M468.1,312.49l-1.855.775c-1.214.5-3.007,1.193-5.292,2.07-1.138.452-2.413.909-3.8,1.408s-2.886,1.049-4.5,1.6c-3.228,1.092-6.867,2.339-10.876,3.573l-6.256,1.918c-2.17.632-4.424,1.257-6.739,1.9l-3.527.947-3.64.875-7.512,1.789-7.787,1.753c-2.633.582-5.269,1.29-7.957,1.876q-4.021.92-8.083,1.911l-4.06,1.008-4.087.931-8.163,1.888c-1.358.314-2.721.585-4.082.849l-4.067.8-8.039,1.535c-2.659.464-5.3.868-7.884,1.295s-5.139.814-7.635,1.2c-2.5.352-4.959.611-7.348.886-4.779.547-9.295,1.089-13.491,1.314-4.188.293-8.025.576-11.429.761-3.411.091-6.383.155-8.831.181l-5.679.057-2.008,0-.006-.21,2-.193,5.652-.494,8.776-.7c3.378-.407,7.191-.794,11.349-1.229,4.164-.372,8.643-1.077,13.4-1.662l7.309-.935c2.487-.376,5.026-.767,7.614-1.127,2.586-.376,5.22-.729,7.878-1.14l8.043-1.36c5.426-.844,10.909-1.872,16.407-2.843,5.5-.938,10.956-2.149,16.32-3.348,5.352-1.245,10.575-2.664,15.607-4.1l14.464-4.289c2.3-.671,4.54-1.321,6.714-1.923l6.264-1.828c4.031-1.125,7.691-2.271,10.964-3.2l8.443-2.511,7.357-2.209Z" transform="translate(-7155.159 -12802.596)" fill="#ddd8dd"/>
      <path id="Trazado_173661" data-name="Trazado 173661" d="M682.77,105.61s-28.357,52.3,0,72.692c0,0,28.707-12.79,0-72.692" transform="translate(-7268.107 -12740.626)" fill="#466f9b"/>
      <path id="Trazado_173662" data-name="Trazado 173662" d="M688.6,138.591c-5.047-.51-9.912-2.83-13.116-4.6-.8,2.528-1.562,5.2-2.215,7.96,6.353.034,15.331-3.357,15.331-3.357" transform="translate(-7269.038 -12749.134)" fill="#3a668e"/>
      <path id="Trazado_173663" data-name="Trazado 173663" d="M701.669,166.979c-.022-1.93-.148-3.987-.391-6.173a18.554,18.554,0,0,1-10.611,4.993s6.679,1.834,11,1.18" transform="translate(-7274.254 -12757.175)" fill="#3a668e"/>
      <path id="Trazado_173664" data-name="Trazado 173664" d="M671.929,184.965a32.722,32.722,0,0,0,2.273,6.323,24.669,24.669,0,0,0,12.772-4.621,21.96,21.96,0,0,1-15.045-1.7" transform="translate(-7268.635 -12764.419)" fill="#3a668e"/>
      <path id="Trazado_173665" data-name="Trazado 173665" d="M683.269,106.671c-.167-.355-.327-.7-.5-1.061,0,0-28.357,52.3,0,72.692,0,0,.228-.1.619-.328-25.293-18.878-3.907-63.854-.12-71.3" transform="translate(-7268.107 -12740.626)" fill="#fffad7"/>
      <path id="Trazado_173666" data-name="Trazado 173666" d="M699.566,378.691s-4.76-6.153-22.693-10.538c0,0,13.949,0,22.021,4.572,0,0-11.288-10.785-18.547-14.566,0,0,19.545,7.55,24.385,13.344,0,0-3.35-16.753-5.956-22.709,0,0,8.384,11.913,11.079,18.986,0,0-.089-10.424,0-14.147,0,0,3.984,11.169,5.76,14.519a143.022,143.022,0,0,1,3.637-24.571s.522,19.359,2.123,27.921c0,0,1.647-8.837,7.952-20.427,0,0-2.257,11.864-2.629,17.076,0,0,8.563-14.519,15.264-21.592,0,0-7.213,17.5-9.748,22.709,0,0,8.26-5.179,13.472-8.919l-3.724,20.832Z" transform="translate(-7270.118 -12811.978)" fill="#366484"/>
      <g id="Grupo_172814" data-name="Grupo 172814" transform="translate(-6593.245 -12467.976)" opacity="0.1">
        <g id="Grupo_172813" data-name="Grupo 172813">
          <g id="Grupo_172812" data-name="Grupo 172812" clip-path="url(#clip-path-17)">
            <path id="Trazado_173667" data-name="Trazado 173667" d="M725.74,360.769c0-.66-.036-1.313-.09-1.961a67.548,67.548,0,0,0-4.277,12.875c-1.442-7.712-2.008-24.178-2.106-27.372l-.121-.131a144.012,144.012,0,0,0-3.532,24.152c-1.776-3.351-5.76-14.519-5.76-14.519-.09,3.723,0,14.147,0,14.147-2.7-7.073-11.079-18.986-11.079-18.986,2.606,5.956,5.956,22.709,5.956,22.709-4.84-5.794-24.385-13.344-24.385-13.344,7.259,3.781,18.547,14.566,18.547,14.566-8.071-4.572-22.021-4.572-22.021-4.572,17.933,4.385,22.693,10.538,22.693,10.538l16.953,1a24.869,24.869,0,0,0,9.221-19.1" transform="translate(-676.873 -344.181)" fill="#fffad7"/>
          </g>
        </g>
      </g>
      <path id="Trazado_173668" data-name="Trazado 173668" d="M198.757,328.533s-123.165,1.322-184.09-35.856v.772S63,330.618,198.757,328.533" transform="translate(-7071.566 -12796.714)" fill="#b6aeb7"/>
      <path id="Trazado_173669" data-name="Trazado 173669" d="M283.76,311.337s.54,4.194,1.783,4.23-.064-2.05-.064-2.05,1.591,3.865,2.925,4.053,3.031-1.494,1.624-3.882a11.465,11.465,0,0,0-4.006-3.765Z" transform="translate(-7152.25 -12801.885)" fill="#202a35"/>
      <path id="Trazado_173670" data-name="Trazado 173670" d="M201.4,226.533s-3.987-1.409-3.76-2.633,1.99.494,1.99.494-3.444-2.368-3.347-3.712,2.1-2.649,4.137-.771a11.462,11.462,0,0,1,2.838,4.709Z" transform="translate(-7126.021 -12774.615)" fill="#202a35"/>
      <path id="Trazado_173671" data-name="Trazado 173671" d="M250.131,333.288c-1.779-.592-.87,3.733-1.058,5.843l7.716.216a3.258,3.258,0,0,0-2.782-2.923c-2.57-.337-3.875-3.136-3.875-3.136" transform="translate(-7141.828 -12808.875)" fill="#7b8f9e"/>
      <path id="Trazado_173672" data-name="Trazado 173672" d="M199.242,327.52s1.222-.655.551,2.106a56.579,56.579,0,0,0-1.035,6.007l-8.8-.62c-1.052-3.338,1.5-3.311,3.575-3.441Z" transform="translate(-7124.052 -12807.142)" fill="#7b8f9e"/>
      <path id="Trazado_173673" data-name="Trazado 173673" d="M204.723,298.2s15.494-.174,18.732-.692c1.823-.293,1.666-5.72.064-8.971a5.925,5.925,0,0,0-5.032-3.2c-3.284-.338-18.623,5.286-18.623,5.286Z" transform="translate(-7127.094 -12794.508)" fill="#1f5272"/>
      <path id="Trazado_173674" data-name="Trazado 173674" d="M244.211,304.1s-7.588-2.817-10.94-5.215l-.67-8.966s10.074-.161,11.857,1.269,6.09,8.078,6.09,8.078Z" transform="translate(-7136.91 -12795.884)" fill="#1f5272"/>
      <path id="Trazado_173675" data-name="Trazado 173675" d="M156.1,331.982s7.637,2.939,13.064,3.518,51.347,4,68.48,3.458a57.9,57.9,0,0,0,10.071-1.556s-2,3.663-14.364,3.583c-6.056-.04-17.419-.774-31.486-1.937-16.262-1.345-24.257-.083-29.635-.758-6.8-.853-15.943-3.833-16.13-6.309" transform="translate(-7113.973 -12808.499)" fill="#202a35"/>
      <path id="Trazado_173676" data-name="Trazado 173676" d="M195.368,318.333l5.427.1a141.473,141.473,0,0,0,2.308-15.516c.4-5.293.4-9.6-3.222-10.193-3.449-.568-4.244,3.741-4.679,8.848a118.14,118.14,0,0,0,.166,16.759" transform="translate(-7125.624 -12796.714)" fill="#1f5272"/>
      <path id="Trazado_173677" data-name="Trazado 173677" d="M239.166,294.653a8.286,8.286,0,0,1,6.159-2.606,7.928,7.928,0,0,0-.866-.863c-1.783-1.43-11.858-1.269-11.858-1.269l.67,8.966a25.9,25.9,0,0,0,3.274,1.9,8.3,8.3,0,0,1,2.621-6.129" transform="translate(-7136.91 -12795.884)" fill="#1b4360"/>
      <path id="Trazado_173678" data-name="Trazado 173678" d="M223.722,288.532a5.926,5.926,0,0,0-5.032-3.2,13.444,13.444,0,0,0-3.657.527c17.232,10.694-11.936,9.484-11.936,9.484.165,2.74-.809,12.212-2.553,20.85l1.925.037a141.364,141.364,0,0,0,2.308-15.517c.066-.871.12-1.713.15-2.518h0s15.494-.174,18.732-.692c1.823-.292,1.665-5.72.063-8.971" transform="translate(-7127.299 -12794.507)" fill="#1b4360"/>
      <path id="Trazado_173679" data-name="Trazado 173679" d="M249.988,324.693l4.475-.137s5.651-22.415-1.2-23.71c-3.7-.235-4.138,4.154-4.251,9.42Z" transform="translate(-7141.83 -12799.161)" fill="#1f5272"/>
      <path id="Trazado_173680" data-name="Trazado 173680" d="M241.126,278.6c-5.154.183-5.989,1.432-9.713.991s-5.425-3.793-9.926-4.981l12.1-26.682s9.837,3.627,18.963,17.617c0,0-10.4,6.154-11.427,13.055" transform="translate(-7133.578 -12783.296)" fill="#ffb229"/>
      <path id="Trazado_173681" data-name="Trazado 173681" d="M254.936,325.124l1.3-.04s4.425-17.556.691-22.491c1.923,6.44-1.61,20.985-2,22.531" transform="translate(-7143.607 -12799.688)" fill="#1b4360"/>
      <path id="Trazado_173682" data-name="Trazado 173682" d="M230.717,302.637a11.008,11.008,0,0,1,4.459,1.289l-2.54-2.147Z" transform="translate(-7136.346 -12799.443)" fill="#1b4360"/>
      <path id="Trazado_173683" data-name="Trazado 173683" d="M247.792,250.32a19.821,19.821,0,0,0-2.209,1.042A13.969,13.969,0,0,0,247.62,262.2Z" transform="translate(-7140.701 -12784.015)" fill="#ffa617"/>
      <path id="Trazado_173684" data-name="Trazado 173684" d="M251.452,282.534a4.253,4.253,0,0,1,4.45-.456c2.319,1.253,9.287,8.195,18.022,18.558l2.733-1.709c-1.106-2.329-10.908-21.42-15.119-25.842,0,0-9.055,4.987-10.086,9.449" transform="translate(-7142.563 -12790.84)" fill="#ffa617"/>
      <path id="Trazado_173685" data-name="Trazado 173685" d="M228.129,241.491s-9.746-5.025-11.548-6.152-11-8.872-11-8.872l-2.306,2.549s6.93,9.776,10.354,12.21,9.4,7.177,9.3,11.727c0,0,7.577-9.2,5.2-11.462" transform="translate(-7128.117 -12776.862)" fill="#ffb229"/>
      <path id="Trazado_173686" data-name="Trazado 173686" d="M194.987,331.772c-.1-.167-1.037-3.329.207-3.487s4.436-.358,4.695.205-.874,3.7-1.029,4.188a12.521,12.521,0,0,0-3.873-.906" transform="translate(-7125.503 -12807.34)" fill="#9aacb7"/>
      <path id="Trazado_173687" data-name="Trazado 173687" d="M239.736,268.192l-4.891-3.938.4-.79,4.891,3.938Z" transform="translate(-7137.583 -12787.955)" fill="#ffa617"/>
      <path id="Trazado_173688" data-name="Trazado 173688" d="M246.083,281.267c1.293-2.69,10.348-9.919,10.348-9.919l-2.291-3.287a24.337,24.337,0,0,1-9.765-.769c-8.073,9.687-9.652,16.05-9.956,17.937a5.911,5.911,0,0,0,.872.165,11.953,11.953,0,0,0,4.471-.294,26.548,26.548,0,0,1,5.242-.7,5.153,5.153,0,0,1,.432-1.67,11.274,11.274,0,0,1,.647-1.466" transform="translate(-7137.455 -12789.104)" fill="#ffa617"/>
      <g id="Grupo_172817" data-name="Grupo 172817" transform="translate(-6894.618 -12527.907)" opacity="0.2" style="mix-blend-mode: multiply;isolation: isolate">
        <g id="Grupo_172816" data-name="Grupo 172816">
          <g id="Grupo_172815" data-name="Grupo 172815" clip-path="url(#clip-path-18)">
            <path id="Trazado_173689" data-name="Trazado 173689" d="M250.685,270.655c4.068,1.273,6.966-2.488,7.936-3.992-.348-.491-.7-.97-1.043-1.433L246.5,258.585s-.858,10.491,4.186,12.07" transform="translate(-246.443 -258.585)" fill="#ffa617"/>
          </g>
        </g>
      </g>
      <path id="Trazado_173690" data-name="Trazado 173690" d="M240.233,267.812a11.543,11.543,0,0,1,4.436-4.551l.155.279a11.44,11.44,0,0,0-4.3,4.4Z" transform="translate(-7139.199 -12787.895)" fill="#ffdc97"/>
      <path id="Trazado_173691" data-name="Trazado 173691" d="M249.638,273.893a15.786,15.786,0,0,1,2.3-5.33l.262.183a15.411,15.411,0,0,0-2.243,5.206Z" transform="translate(-7142.019 -12789.484)" fill="#ffdc97"/>
      <path id="Trazado_173692" data-name="Trazado 173692" d="M247.821,262.2s-4.4-8.284.172-11.884c0,0,6.825.477,10.626,11.318,0,0-1.176,4.5-10.8.566" transform="translate(-7140.902 -12784.015)" fill="#ffca45"/>
      <path id="Trazado_173693" data-name="Trazado 173693" d="M263.977,257.972c-1.335,1.642-6.312,4.148-8.7,3.8-4.286-.63-6.836-8.25-2.448-13.647a7.7,7.7,0,0,1,10.064-1.529c3.491,2.378,3.537,8.356,1.08,11.379" transform="translate(-7142.292 -12782.528)" fill="#202a35"/>
      <path id="Trazado_173694" data-name="Trazado 173694" d="M259.057,250.588a7.076,7.076,0,0,0,3.705,5.477,7.472,7.472,0,0,1-2.654-4.83,7.3,7.3,0,0,1,1.544-5.857,7.955,7.955,0,0,0-1.6.092,7.558,7.558,0,0,0-1,5.118" transform="translate(-7144.816 -12782.53)" fill="#36424c"/>
      <path id="Trazado_173695" data-name="Trazado 173695" d="M251.418,262.479s1.191,1.6,4.267-1.768a8.453,8.453,0,0,0,5.846,3.877s-4.053,2.487-6.435,1.69a5.807,5.807,0,0,1-3.679-3.8" transform="translate(-7142.552 -12787.13)" fill="#7b8f9e"/>
      <path id="Trazado_173696" data-name="Trazado 173696" d="M257.946,257.886a3.208,3.208,0,0,1,1.457-.765c.579-.051,1.219,1.127,3.576,2.538a7.261,7.261,0,0,0,3.165,1.135s.72.237-.466,1.356a6.371,6.371,0,0,1-3.094,1.937c-1.293-.06-.994-.658-1.439-.871-.337-.162-.958.025-1.474-.119a3.6,3.6,0,0,1-2.869-3.089,2.714,2.714,0,0,1,1.145-2.122" transform="translate(-7144.166 -12786.053)" fill="#a7bac6"/>
      <path id="Trazado_173697" data-name="Trazado 173697" d="M258.542,258.777a2.585,2.585,0,0,1,1.222-.574c.494-.024,1.212,1.008,3.27,2.222a6.333,6.333,0,0,0,2.633.961s.622.214-.358,1.082A5,5,0,0,1,262.83,264c-1.107-.088-.87-.563-1.257-.749-.293-.141-.952-.067-1.4-.2a3.274,3.274,0,0,1-2.548-2.588,1.987,1.987,0,0,1,.914-1.682" transform="translate(-7144.414 -12786.378)" fill="#202a35"/>
      <path id="Trazado_173698" data-name="Trazado 173698" d="M258.9,256.984l-.592-.692-1.827,1.459.524.994Z" transform="translate(-7144.071 -12785.805)" fill="#a7bac6"/>
      <path id="Trazado_173699" data-name="Trazado 173699" d="M257.536,253.646a14.494,14.494,0,0,1-1.335-6.871,2.042,2.042,0,0,0-1.448,1.1s-.375,4.249,1.344,6.913Z" transform="translate(-7143.542 -12782.952)" fill="#a7bac6"/>
      <path id="Trazado_173700" data-name="Trazado 173700" d="M254.75,256.28a14.027,14.027,0,0,0-3.2,4.964,6.784,6.784,0,0,1-.616-1.8,16.8,16.8,0,0,1,3.323-5.2Z" transform="translate(-7142.406 -12785.19)" fill="#a7bac6"/>
      <path id="Trazado_173701" data-name="Trazado 173701" d="M251.127,336.778c-.11-.458-.84-3.013.3-3.154s4.167-.351,4.38.292-.786,2.676-.786,2.676a7.75,7.75,0,0,0-3.9.186" transform="translate(-7142.366 -12808.947)" fill="#9aacb7"/>
      <path id="Trazado_173702" data-name="Trazado 173702" d="M206.772,227.534l-2.493,2.78c.24.33.535.73.871,1.182l2.726-3.04c-.422-.351-.8-.664-1.1-.921" transform="translate(-7128.418 -12777.183)" fill="#ffdc97"/>
      <path id="Trazado_173703" data-name="Trazado 173703" d="M209.414,229.884l-2.9,3.239c.28.37.577.759.888,1.162l3.124-3.484-1.108-.917" transform="translate(-7129.087 -12777.888)" fill="#ffdc97"/>
      <path id="Trazado_173704" data-name="Trazado 173704" d="M282.519,303.389l-3.665,2.5q.469.539.948,1.093l3.385-2.308c-.208-.4-.431-.832-.667-1.284" transform="translate(-7150.778 -12799.926)" fill="#ffdc97"/>
      <path id="Trazado_173705" data-name="Trazado 173705" d="M284.432,306.671l-3.164,2.157q.464.543.938,1.1l2.882-1.965c-.183-.364-.4-.8-.655-1.293" transform="translate(-7151.502 -12800.91)" fill="#ffdc97"/>
      <path id="Trazado_173706" data-name="Trazado 173706" d="M239.678,269.659l.562.216-.431,1.57a.885.885,0,0,1-.952-.478Z" transform="translate(-7138.786 -12789.813)" fill="#ffdc97"/>
      <path id="Trazado_173707" data-name="Trazado 173707" d="M249.245,275.978l.591.115-.151,1.622a.884.884,0,0,1-1.02-.3Z" transform="translate(-7141.727 -12791.707)" fill="#ffdc97"/>
      <path id="Trazado_173708" data-name="Trazado 173708" d="M234.2,285.138a45.678,45.678,0,0,1,10-18.006l.225.225a45.346,45.346,0,0,0-9.915,17.868Z" transform="translate(-7137.39 -12789.056)" fill="#ffdc97"/>
      <g id="Grupo_172820" data-name="Grupo 172820" transform="translate(-6912.092 -12509.432)" opacity="0.3" style="mix-blend-mode: multiply;isolation: isolate">
        <g id="Grupo_172819" data-name="Grupo 172819">
          <g id="Grupo_172818" data-name="Grupo 172818" clip-path="url(#clip-path-19)">
            <path id="Trazado_173709" data-name="Trazado 173709" d="M231.615,289.917c-3.687-.435-5.392-3.726-9.793-4.944l-.336.741c4.5,1.187,6.2,4.541,9.927,4.982s4.559-.809,9.713-.991c.039-.26.095-.52.158-.777-5.114.188-5.956,1.428-9.67.989" transform="translate(-221.486 -284.973)" fill="#ffa617"/>
          </g>
        </g>
      </g>
      <path id="Trazado_173710" data-name="Trazado 173710" d="M190,338.02l8.8.62.065-.533-9.008-.629Z" transform="translate(-7124.094 -12810.147)" fill="#9aacb7"/>
      <path id="Trazado_173711" data-name="Trazado 173711" d="M249.068,341.365l7.756.217-.151-.634-7.553-.262Z" transform="translate(-7141.848 -12811.109)" fill="#9aacb7"/>
      <g id="Grupo_172823" data-name="Grupo 172823" transform="translate(-6994.936 -12601.637)" opacity="0.4">
        <g id="Grupo_172822" data-name="Grupo 172822">
          <g id="Grupo_172821" data-name="Grupo 172821" clip-path="url(#clip-path-20)">
            <path id="Trazado_173712" data-name="Trazado 173712" d="M121.773,160.7s-18.608,1.166-18.608,2.505c0,3.065,111.415,4.134,110.3-.48,0,0-9.6-.919-42.656-1.907,0,0,3.83-7.868-8.879-.892,0,0-3.61-14.392-26.776-.815,0,0-16.156-6.1-13.379,1.588" transform="translate(-103.165 -153.282)" fill="#fff"/>
          </g>
        </g>
      </g>
    </g>
  </g>
</svg>
