<svg id="Grupo_166179" data-name="Grupo 166179" xmlns="http://www.w3.org/2000/svg" xmlns:xlink="http://www.w3.org/1999/xlink" width="215.263" height="471.052" viewBox="0 0 215.263 471.052">
  <defs>
    <clipPath id="clip-path">
      <rect id="Rectángulo_44204" data-name="Rectángulo 44204" width="182.723" height="471.052" fill="none"/>
    </clipPath>
  </defs>
  <g id="Grupo_157493" data-name="Grupo 157493" transform="translate(0 0)">
    <path id="Trazado_114544" data-name="Trazado 114544" d="M156.894,466.879c-29.875-13.553-60.858-31.84-72.89-62.423-13.353-33.941.624-71.952.288-108.436-.267-28.9-9.608-56.814-16.957-84.762s-12.748-57.644-5.164-85.53C67.247,107.06,78.029,90.17,91.949,76.768c24.512-23.6,59.828-36.372,93.384-30.974s64.04,29.992,73.85,62.616c13.9,46.221-13.251,95.562-7.48,143.49,2.257,18.754,9.483,36.489,14.383,54.729a224.774,224.774,0,0,1,7.678,59.544c-.183,30.766-7.96,63.59-30.851,84.078C219.822,470.917,185.461,479.84,156.894,466.879Z" transform="translate(-58.504 -37.629)" fill="#ffe891"/>
    <g id="Grupo_172832" data-name="Grupo 172832" transform="translate(3.263)">
      <g id="Grupo_172832-2" data-name="Grupo 172832" clip-path="url(#clip-path)">
        <path id="Trazado_173713" data-name="Trazado 173713" d="M78.108,34.326c-22.839,3.511-32.981,3.139-46.276,20.013S20.445,93.3,20.9,107.692s-2.1,76.5-3.127,88.529-1.79,21.489,7.158,26.347,35.238,6.648,69.52,7.67,53.2-3.045,62.15-17.374,5.624-37.1,3.579-61.637-1.279-56.72-3.836-71.818S145.093,24.028,78.108,34.326" transform="translate(6.641 12.63)" fill="#f26453"/>
        <path id="Trazado_173714" data-name="Trazado 173714" d="M144.794,285.07c-.108,6.6-.736,16.045-1.642,26.677-2.961,35.1-8.866,83-8.866,83l-7.44,1.566-5.339,1.119c-10.769-31.8-10.937-65.395-9.54-86.164.843-12.548,2.253-20.449,2.253-20.449s-3.267-13.7-7.44-30.818c-5.369-21.951-12.21-49.517-15.554-60.9,0-.015-.015-.046-.015-.061-.967-3.267-1.657-5.185-1.918-5.246-1.918-.384-8.437,26.462-12.272,57.525-.291,2.409-.691,5.307-1.166,8.621-1.794,12.441-4.74,30.665-7.915,49.808-6.949,41.68-15.079,87.684-15.079,87.684H37.138c-11.69-32.8-11.889-63.738-8.975-80.075.046-.291.108-.567.154-.843A170.432,170.432,0,0,1,37.138,286.6s-1.488-9-2.9-20.172c-1.366-10.83-2.654-23.685-2.47-32.367.276-12.932,1.381-33.074,4.572-50.116.076-.4.153-.8.214-1.181.538-2.715,1.12-5.369,1.781-7.854.706-2.808,1.5-5.446,2.377-7.869,0,0,5.523-1.012,13.423-2.072.352-.046.706-.092,1.058-.122,9.312-1.227,21.6-2.454,32.062-2.209,2.531.061,5.17.139,7.839.23h.092c8.023.261,16.445.645,23.409.982.293,0,.584.015.875.031,5.645.276,10.248.521,12.748.66,0,0,.076.552.214,1.579.43,3.038,1.442,10.248,2.7,19.774.046.46.107.935.183,1.41v.015c2.793,21.323,6.75,53.292,8.545,76.548.66,8.575,1.028,15.969.936,21.2" transform="translate(10.284 62.878)" fill="#d07528"/>
        <path id="Trazado_173715" data-name="Trazado 173715" d="M132.429,166.123l-37.245-3.252h-.093c-2.669-.093-5.307-.169-7.839-.23-10.461-.245-22.749.982-32.06,2.209-.354.031-.706.076-1.058.122-7.9,1.058-13.423,2.072-13.423,2.072-.875,2.424-1.672,5.061-2.378,7.869-.66,2.485-1.242,5.124-1.779,7.839-.061.383-.139.8-.215,1.2-3.191,17.042-4.295,37.184-4.572,50.115-.183,8.683,1.105,21.538,2.47,32.368,1.412,11.167,2.9,20.172,2.9,20.172a170.524,170.524,0,0,0-8.821,29.914c-.046.276-.107.552-.153.843-2.915,16.338-2.715,47.279,8.973,80.075h2.793C30.924,359.47,41.417,284.1,41.417,284.1c-2.011-20.357,3.3-74.307,11.827-111.354,20.111-2.73,52.417-6.49,79.185-6.627" transform="translate(10.284 62.878)" fill="#b36133"/>
        <path id="Trazado_173716" data-name="Trazado 173716" d="M108.824,386.14l-5.339,1.119c-10.768-31.8-10.937-65.395-9.54-86.164.843-12.548,2.255-20.448,2.255-20.448s-3.268-13.7-7.441-30.819c-5.368-21.951-12.21-49.517-15.554-60.9,6.964,18.669,28.717,75.857,31.6,91.6,2.668,14.557,3.727,81.287,4.019,105.617" transform="translate(28.307 73.055)" fill="#b36133"/>
        <path id="Trazado_173717" data-name="Trazado 173717" d="M64.462,47.947c-24.048,2.4-27.6,16.108-31.566,31.447s6.154,60.523,5.566,62.092-2.378,50.913,1.966,55.261,69.068,5.429,83.6,4.858,18.4-6.372,17.636-11.751S136.56,77.042,126.588,62.877s-21.22-19.021-62.126-14.93" transform="translate(12.362 18)" fill="#1d3927"/>
        <path id="Trazado_173718" data-name="Trazado 173718" d="M78.172,57.979c-8.948.384-14.883-7.216-14.883-7.216a104.917,104.917,0,0,0,1.658,11.755c.122.62.23,1.136.313,1.47.512,2.045,4.048,8.821,11.356,9.076s11.655-2.812,13.444-9.2l1.413-14.825s-4.353,8.561-13.3,8.944" transform="translate(24.473 18.961)" fill="#a5882f"/>
        <path id="Trazado_173719" data-name="Trazado 173719" d="M33.5,147.424q3.118-1.5,6.333-3.439Z" transform="translate(12.955 55.677)" fill="#a5882f"/>
        <path id="Trazado_173720" data-name="Trazado 173720" d="M40.171,143.984q-3.212,1.949-6.333,3.439c-1.846,4.741-1.952,11.235,2.5,15.993a8.948,8.948,0,0,0,4.383,2.038c11.167,2.665,36.779-.5,36.779-.5Z" transform="translate(12.621 55.676)" fill="#f8b348"/>
        <path id="Trazado_173721" data-name="Trazado 173721" d="M173.471,115.837c-4.372-10.708-14.911-26.462-22.826-35.114a47.874,47.874,0,0,0-3.773-3.744c-3.881-3.389-11.751-7.516-18.747-10.845-7.27-3.453-13.591-6.028-13.591-6.028-1.718,6.106-5.752,9.173-12.487,9.219-.245,0-.506,0-.767-.015H101.1c-7.316-.262-10.845-7.04-11.367-9.081-.076-.338-.184-.843-.306-1.473-2.624.552-7.226,1.611-12.472,2.9-8.667,2.134-19.114,4.864-25.25,6.964-.721.247-1.38.477-1.979.707-8.7,3.3-15.079,12.394-24.284,26.386S6.587,137.926,3.7,150.091s-6.642,21.476,0,29.145c6.029,6.95,22.75,10.754,42.753,1.15l6.336-3.451,37.323,20.972s-25.6,3.174-36.771.506H53.3C50.75,204.043,51,207.2,51,207.2s26.6-4.862,46.541-4.4c.445.015.906.015,1.366.031.261.015.506.015.767.015,16.306.445,36.4,1.5,42.829,1.857,1.319.061,2.07.107,2.07.107l-1.242-6.411c-13.576,1.043-25.848-.753-32.184-12.472l12.978-8.054,7.164.09a55.786,55.786,0,0,0,13.284,5.923c7.7,1.932,17.78,2.041,27.613-5.154,19.942-14.573,6.4-50.36,1.288-62.893M47.422,154.753l-10.738,2s8.438-15.339,10.738-22.506Z" transform="translate(0 22.72)" fill="#489e99"/>
        <path id="Trazado_173722" data-name="Trazado 173722" d="M107.966,150.647a55.94,55.94,0,0,1-13.294-5.925,42.148,42.148,0,0,0,13.294,5.925" transform="translate(36.608 55.962)" fill="#a5882f"/>
        <path id="Trazado_173723" data-name="Trazado 173723" d="M39.01,331.953c-2.3,0-17.257,10.738-17.257,10.738h32.6l.383-10.738Z" transform="translate(8.412 128.361)" fill="#89453c"/>
        <path id="Trazado_173724" data-name="Trazado 173724" d="M95.041,332.7,96.97,343.44h32.2s-6.128-7.219-21.348-13.423Z" transform="translate(36.751 127.612)" fill="#89453c"/>
        <path id="Trazado_173725" data-name="Trazado 173725" d="M105.387,33.439c-1.45-.223-2.766,1.046-3.618,2.147-.58,2.291-1.048,3.989-1.048,3.989s-.383-9.141-4.985-14.126S81.93,18.8,73.109,22.254,60.325,39.575,60.325,39.575a4.026,4.026,0,0,1-.148-.519c-.9-2.879-3.284-5.487-6.179-3.317-3.069,2.3.575,18.026,8.245,16.108,0,0,4.218,16.873,19.175,17.449S99.635,48.011,99.635,48.011s3.451.767,6.9-4.027,1.342-10.162-1.151-10.546" transform="translate(20.46 7.9)" fill="#f9b88c"/>
        <path id="Trazado_173726" data-name="Trazado 173726" d="M123.037,151.788s-2.3.885-9.456-1.116a42.147,42.147,0,0,1-13.294-5.925l-7.161-.093-12.975,8.057a22.825,22.825,0,0,0,4.859,6.215c5.017,4.512,11.687,6.217,19.127,6.466a74.978,74.978,0,0,0,8.205-.208c13.588-1.041,12.49-10.465,10.7-13.4" transform="translate(30.993 55.935)" fill="#f8b348"/>
        <path id="Trazado_173727" data-name="Trazado 173727" d="M58.152,33.862a4.026,4.026,0,0,0,.148.519c-.044-.173-.094-.347-.148-.519" transform="translate(22.486 13.094)" fill="#f26453"/>
        <path id="Trazado_173728" data-name="Trazado 173728" d="M78.021,1.9C75.177-.783,67.955-.965,63.992,3.58s0,10.848,1.285,11.885a34.551,34.551,0,0,1,12.881-4.037C79.714,8.858,80.349,4.1,78.021,1.9" transform="translate(24.081 0)" fill="#89453c"/>
        <path id="Trazado_173729" data-name="Trazado 173729" d="M88.863,9.222a22.614,22.614,0,0,0-8.843-.955A34.466,34.466,0,0,0,67.154,12.3q-1.9.984-3.73,2.112c-7.8,4.809-5.753,11.173-5.626,12.834.641-2.3,4.145-9.076,14.089-11.76a32.433,32.433,0,0,1,22.857,2.429c3.637,1.932,6.153,6.681,7.118,9.331.985-9.5-4.178-15.212-13-18.024" transform="translate(22.22 3.163)" fill="#89453c"/>
        <path id="Trazado_173730" data-name="Trazado 173730" d="M102.137,26.4c-.071-.255-.176-.566-.3-.9-.964-2.65-3.481-7.4-7.118-9.331a32.429,32.429,0,0,0-22.855-2.429c-9.945,2.685-13.449,9.46-14.089,11.762-.6,2.154-.089,13.447.62,16.547.054.172.1.345.147.517,0,0,3.963-13.87,12.784-17.321s18.024-1.789,22.627,3.2,4.985,14.125,4.985,14.125.469-1.7,1.048-3.989c1.084-4.285,2.564-10.682,2.148-12.181" transform="translate(22.24 4.901)" fill="#f26453"/>
        <path id="Trazado_173731" data-name="Trazado 173731" d="M36.822,81.482c-1.015.767,2.819,97.692,2.819,97.692l36.3,11.021L65.583,98.867Z" transform="translate(14.172 31.508)" fill="#c3dad2"/>
        <path id="Trazado_173732" data-name="Trazado 173732" d="M86.551,79.617l35.076,14-2.04,92.909L90.651,169.8Z" transform="translate(33.468 30.787)" fill="#c3dad2"/>
        <path id="Trazado_173733" data-name="Trazado 173733" d="M117.692,130.3l-18.282.57H99.38s.7,1.279-.575,8.95a30.539,30.539,0,0,1-2.857,9.346,8.4,8.4,0,0,1-.722,1.17c12.911,6.809,21.983,7.134,21.983,7.134Z" transform="translate(36.822 50.384)" fill="#489e99"/>
        <path id="Trazado_173734" data-name="Trazado 173734" d="M75.418,233.259c-1.794,12.441-4.74,30.665-7.915,49.808a126.748,126.748,0,0,1-29.868,7.226,71.335,71.335,0,0,1-9.909.383c.046-.291.107-.567.153-.843A170.571,170.571,0,0,1,36.7,259.919s-1.488-9-2.9-20.172c2.18-1.1,4.372-2.1,6.551-2.961,13.53-5.445,26.708-6.534,35.068-3.528" transform="translate(10.721 89.562)" fill="#89453c"/>
        <path id="Trazado_173735" data-name="Trazado 173735" d="M122.434,258.133c-.108,6.6-.736,16.045-1.642,26.677a38.4,38.4,0,0,1-18.561,2.316,58.571,58.571,0,0,1-12.624-2.791c.843-12.548,2.253-20.449,2.253-20.449s-3.267-13.7-7.44-30.818a53.765,53.765,0,0,1,7.148-.736,82.364,82.364,0,0,1,29.929,4.6c.66,8.575,1.028,15.969.936,21.2" transform="translate(32.644 89.816)" fill="#89453c"/>
        <path id="Trazado_173736" data-name="Trazado 173736" d="M59.834,41.355a.381.381,0,0,1-.336-.2,24.437,24.437,0,0,0-3.958-5.086.383.383,0,0,1,.532-.552,24.694,24.694,0,0,1,4.1,5.268.381.381,0,0,1-.151.52.371.371,0,0,1-.184.049" transform="translate(21.431 13.693)" fill="#cc6e24"/>
        <path id="Trazado_173737" data-name="Trazado 173737" d="M78.564,49.591a.381.381,0,0,1-.233-.079l-4.02-3.067a.384.384,0,0,1,.466-.61l3.349,2.557c-.2-3.024-.932-13.32-1.654-16.452a.383.383,0,1,1,.747-.172c.86,3.727,1.693,16.858,1.728,17.415a.382.382,0,0,1-.2.362.375.375,0,0,1-.18.046" transform="translate(28.677 12.169)" fill="#cc6e24"/>
        <path id="Trazado_173738" data-name="Trazado 173738" d="M75.367,51.325c-.072,0-.143,0-.211,0a6.6,6.6,0,0,1-4.862-2.576.383.383,0,0,1,.08-.537.387.387,0,0,1,.537.08,5.8,5.8,0,0,0,4.274,2.266A5.862,5.862,0,0,0,79.8,48.266a.383.383,0,1,1,.581.5,6.53,6.53,0,0,1-5.01,2.558" transform="translate(27.153 18.612)" fill="#f25e4c"/>
        <path id="Trazado_173739" data-name="Trazado 173739" d="M87.819,39.4a.38.38,0,0,1-.381-.363c-.007-.085-.079-2.081,1.97-5.1a.387.387,0,0,1,.534-.1.383.383,0,0,1,.1.532C88.152,37.151,88.2,38.983,88.2,39a.383.383,0,0,1-.366.4h-.017" transform="translate(33.81 13.06)" fill="#cc6e24"/>
        <path id="Trazado_173740" data-name="Trazado 173740" d="M83.057,35.724c0,1.509-.537,2.733-1.2,2.733s-1.2-1.224-1.2-2.733.537-2.732,1.2-2.732,1.2,1.223,1.2,2.732" transform="translate(31.19 12.757)" fill="#1d3927"/>
        <path id="Trazado_173741" data-name="Trazado 173741" d="M69.452,36.423c0,1.414-.494,2.56-1.1,2.56s-1.1-1.145-1.1-2.56.494-2.56,1.1-2.56,1.1,1.145,1.1,2.56" transform="translate(26.003 13.094)" fill="#1d3927"/>
        <path id="Trazado_173742" data-name="Trazado 173742" d="M62.438,14.426a.379.379,0,0,1-.337-.2.385.385,0,0,1,.154-.52c.444-.24,10.784-5.8,17.805-5.8.11,0,.218,0,.326.006a.383.383,0,0,1-.01.765h-.011c-.1,0-.2,0-.3,0-6.829,0-17.336,5.655-17.442,5.712a.383.383,0,0,1-.183.047" transform="translate(23.996 3.055)" fill="#1d3927"/>
        <path id="Trazado_173743" data-name="Trazado 173743" d="M69.1,12.027a.383.383,0,0,1-.241-.682c.376-.639-1-5.623-1.774-6.393a.383.383,0,0,1,.542-.542c.747.747,2.174,5.2,2.038,6.782a.973.973,0,0,1-.344.765.388.388,0,0,1-.222.069m-.222-.7Z" transform="translate(25.896 1.662)" fill="#1d3927"/>
        <path id="Trazado_173744" data-name="Trazado 173744" d="M71.221,11.584a.383.383,0,0,1-.3-.621c1.026-1.294.732-6.24.532-8.036a.384.384,0,0,1,.34-.424.391.391,0,0,1,.422.338c.078.693.713,6.824-.692,8.6a.385.385,0,0,1-.3.146" transform="translate(27.392 0.967)" fill="#1d3927"/>
        <path id="Trazado_173745" data-name="Trazado 173745" d="M74.24,88.012c.061,7.915.107,15.4-.322,21.262-.783,10.307-1.55,70.7-1.811,90.628-.031,3.9-.061,6.244-.061,6.382a.384.384,0,0,1-.767-.015c0-.137.031-2.485.061-6.382.261-19.957,1.028-80.336,1.811-90.66.428-5.828.383-13.3.322-21.215-.046-7.348-.108-14.9.245-21.645.261.015.521.015.767.015-.352,6.734-.291,14.281-.245,21.63" transform="translate(27.562 25.663)" fill="#1d3927"/>
        <path id="Trazado_173746" data-name="Trazado 173746" d="M90.818,154.939c-4.864-.162-15.812.641-15.812.641L64.988,161.8s9.818.724,19.322.494,26.419-.833,25.73-.861c-.008,0-.029-.006-.04-.007-7.44-.25-14.108-1.954-19.127-6.466l-.055-.019" transform="translate(25.13 59.904)" fill="#1d3927"/>
        <path id="Trazado_173747" data-name="Trazado 173747" d="M19.966,131.615a.383.383,0,0,1-.055-.763c.191-.028,19.153-2.818,25.06-3.146a.387.387,0,0,1,.4.361.382.382,0,0,1-.362.4c-5.873.329-24.8,3.113-24.989,3.141a.392.392,0,0,1-.057,0" transform="translate(7.572 49.382)" fill="#1d3927"/>
        <path id="Trazado_173748" data-name="Trazado 173748" d="M37.824,61.067A.377.377,0,0,1,37.614,61c-.679-.444-4.855-4.485-5.328-4.944a.383.383,0,1,1,.532-.552c1.84,1.785,4.747,4.548,5.214,4.853a.383.383,0,0,1-.209.7" transform="translate(12.439 21.423)" fill="#1d3927"/>
        <path id="Trazado_173749" data-name="Trazado 173749" d="M44.733,53.627a.383.383,0,0,1-.347-.22c-.229-.485-3.429-4.243-5.393-6.5a.383.383,0,1,1,.578-.5c.86.987,5.165,5.949,5.508,6.675a.384.384,0,0,1-.347.546" transform="translate(15.042 17.893)" fill="#1d3927"/>
        <path id="Trazado_173750" data-name="Trazado 173750" d="M50.33,50.905a.384.384,0,0,1-.384-.383V43.331a.384.384,0,0,1,.768,0v7.191a.384.384,0,0,1-.384.383" transform="translate(19.313 16.607)" fill="#1d3927"/>
        <path id="Trazado_173751" data-name="Trazado 173751" d="M93,54.342a.393.393,0,0,1-.19-.05.383.383,0,0,1-.143-.523c.492-.864,4.833-8.466,5.751-9.253a.384.384,0,1,1,.5.582c-.62.53-3.679,5.7-5.586,9.049a.381.381,0,0,1-.333.194" transform="translate(35.812 17.178)" fill="#1d3927"/>
        <path id="Trazado_173752" data-name="Trazado 173752" d="M96.7,56.359a.383.383,0,0,1-.2-.71c.08-.05,8.165-5.038,9.64-6.86a.384.384,0,1,1,.6.483c-1.559,1.923-9.5,6.822-9.834,7.03a.382.382,0,0,1-.2.057" transform="translate(37.244 18.811)" fill="#1d3927"/>
        <path id="Trazado_173753" data-name="Trazado 173753" d="M102.9,67.086a.383.383,0,0,1-.166-.729c1.828-.879,6.77-3.382,7.671-4.383a.383.383,0,0,1,.57.513c-1.187,1.319-7.634,4.429-7.908,4.561a.38.38,0,0,1-.166.039" transform="translate(39.64 23.915)" fill="#1d3927"/>
        <path id="Trazado_173754" data-name="Trazado 173754" d="M47.1,250.6a15.156,15.156,0,0,1-5.555-1.058.383.383,0,1,1,.28-.713,14.167,14.167,0,0,0,10.433.011.383.383,0,1,1,.329.692A13.762,13.762,0,0,1,47.1,250.6" transform="translate(15.968 96.207)" fill="#1d3927"/>
        <path id="Trazado_173755" data-name="Trazado 173755" d="M103.656,251.16a10.766,10.766,0,0,1-5.615-1.647.383.383,0,0,1,.4-.657,9.181,9.181,0,0,0,8.137,1,.382.382,0,0,1,.509.186.387.387,0,0,1-.186.51,8.205,8.205,0,0,1-3.241.6" transform="translate(37.839 96.208)" fill="#1d3927"/>
        <path id="Trazado_173756" data-name="Trazado 173756" d="M52.475,164.225c-5.339,6.827-13.178,14.129-18.853,19.1.078-.4.154-.8.215-1.181,5.415-4.785,12.518-11.475,17.58-17.794.352-.047.706-.093,1.058-.123" transform="translate(13.001 63.503)" fill="#1d3927"/>
        <path id="Trazado_173757" data-name="Trazado 173757" d="M109.66,186.961c-4.955-5.875-13.1-16.03-16.721-23.456.291,0,.584.017.874.032,3.483,6.933,10.784,16.184,15.663,22.012.047.46.108.936.184,1.412" transform="translate(35.938 63.225)" fill="#1d3927"/>
        <path id="Trazado_173758" data-name="Trazado 173758" d="M62.436,31.324c-.767-1.279,2.812-2.94,6.9-2.557s4.091,2.045,3.836,2.557-3.451,0-6.008,0Z" transform="translate(24.103 11.102)" fill="#89453c"/>
        <path id="Trazado_173759" data-name="Trazado 173759" d="M77.6,31.552c-1,.18.894-3.024,4.985-2.839s5.114,2.3,4.858,2.839-7.542-.412-9.843,0" transform="translate(29.904 11.1)" fill="#89453c"/>
        <path id="Trazado_173760" data-name="Trazado 173760" d="M62.15,78.211A212.277,212.277,0,0,1,56.9,101.743L50.89,98.108l-.628-.369-2.593-1.579-.86-.506L43.62,93.72s-5.232-22.105-6.336-25.909c1.84-.63,4.064-1.32,6.519-2.026.829-.23,1.672-.476,2.547-.721,2.086-.582,4.279-1.18,6.488-1.749.261-.076.521-.137.767-.2,3.023-.8,6.075-1.564,8.929-2.27a71.583,71.583,0,0,1-.384,17.365" transform="translate(14.417 23.528)" fill="#89453c"/>
        <path id="Trazado_173761" data-name="Trazado 173761" d="M114.594,97.718l-7.487-2.991-.706-.276-3.958-1.581-.858-.352-4.2-1.672S93.271,72.837,92.4,64.077c2.194,1.044,4.494,2.163,6.7,3.329.261.137.506.261.752.4a79.582,79.582,0,0,1,9.266,5.538c.261.169.506.352.736.537.459.354.889.706,1.288,1.043a47.4,47.4,0,0,1,3.773,3.744c.844,8.052-.322,19.052-.322,19.052" transform="translate(35.728 24.778)" fill="#89453c"/>
        <path id="Trazado_173762" data-name="Trazado 173762" d="M51.02,62.682c-.276,8.836-.767,17.75-1.365,24.622-.369,4.157-.782,7.592-1.212,9.8l.63.369c1.657-7.194,2.407-24.989,2.715-34.99-.245.061-.508.122-.768.2m-8.252,2.593,1.764-.843c-.874.245-1.718.491-2.546.72C42.062,66.779,43,85.417,44.992,95l.86.521c-.476-2.194-1.014-5.491-1.566-10.446-.874-7.717-1.442-16.307-1.518-19.8" transform="translate(16.235 24.162)" fill="#d07528"/>
        <path id="Trazado_173763" data-name="Trazado 173763" d="M107.26,72.413a184.721,184.721,0,0,1-2.717,21.108l.706.277c1.366-5.845,2.332-15.923,2.747-20.847-.23-.184-.476-.369-.736-.538m-9.266-5.537c-.245-.139-.491-.261-.752-.4A110.165,110.165,0,0,0,99.728,91.59l.858.352a110.855,110.855,0,0,1-2.592-25.066" transform="translate(37.586 25.706)" fill="#d07528"/>
        <path id="Trazado_173764" data-name="Trazado 173764" d="M97.779,79.617,57.515,99.588l10.363,91.327,34-21.112Z" transform="translate(22.24 30.787)" fill="#fafbfb"/>
        <path id="Trazado_173765" data-name="Trazado 173765" d="M113.2,134.544h.031l-.031-.128c-6.712-.767-25.7-5.178-25.7-5.178s-6.71-8.821-8.245-8.437,2.493,7.861,3.26,9.012a91.076,91.076,0,0,0-10.163-4.027c-3.067-.767-8.054-2.876-8.628-1.725s5.176,4.6,5.176,4.6-8.821-.767-9.4.384,8.438,3.836,8.438,3.836-6.9-.767-7.287.383,6.136,2.877,6.136,2.877-4.794.191-4.985,1.341,9.588,3.26,16.3,3.453,7.158-.768,7.158-.768l24.5,12.672a30.606,30.606,0,0,0,2.857-9.348c1.279-7.67.575-8.948.575-8.948" transform="translate(23.001 46.708)" fill="#f9b88c"/>
        <path id="Trazado_173766" data-name="Trazado 173766" d="M95.333,150.983a.378.378,0,0,1-.208-.061.382.382,0,0,1-.114-.531c4.827-7.442,4.1-19.113,4.093-19.231a.384.384,0,0,1,.358-.409c.177-.011,17.714-1.1,20.728-1.141h.006a.383.383,0,0,1,.006.767c-2.75.039-17.725.957-20.312,1.118.1,2.136.287,12.343-4.235,19.314a.381.381,0,0,1-.322.175" transform="translate(36.715 50.118)" fill="#1d3927"/>
        <path id="Trazado_173767" data-name="Trazado 173767" d="M40.351,235.345c-.753,17.3-.093,22.979-1.442,38.472-.538,6.045-.953,11.046-1.273,15.034a71.343,71.343,0,0,1-9.909.383c.046-.291.107-.567.153-.843A170.592,170.592,0,0,1,36.7,258.478s-1.487-9.005-2.9-20.172c2.178-1.1,4.372-2.1,6.552-2.961" transform="translate(10.722 91.004)" fill="#544233"/>
        <path id="Trazado_173768" data-name="Trazado 173768" d="M89.606,284.317c.843-12.548,2.255-20.448,2.255-20.448s-3.267-13.7-7.44-30.819a53.971,53.971,0,0,1,7.148-.736,153.247,153.247,0,0,1,8.9,31.432c.951,6.121,1.473,15.8,1.764,23.363a58.606,58.606,0,0,1-12.624-2.791" transform="translate(32.644 89.832)" fill="#544233"/>
        <path id="Trazado_173769" data-name="Trazado 173769" d="M61.828,38.787C58,42.507,62.851,51.051,66.749,48.8s-1.279-13.552-4.921-10.012" transform="translate(23.368 14.735)" fill="#ff9d7b"/>
        <path id="Trazado_173770" data-name="Trazado 173770" d="M84.893,39.479c-4.363-1.805-6.189,8.665-2.9,10.633s7.764-8.62,2.9-10.633" transform="translate(31.054 15.185)" fill="#ff9d7b"/>
      </g>
    </g>
  </g>
</svg>
