<svg xmlns="http://www.w3.org/2000/svg" xmlns:xlink="http://www.w3.org/1999/xlink" width="144" height="138" viewBox="0 0 144 138">
  <defs>
    <clipPath id="clip-path">
      <rect id="Rect치ngulo_44595" data-name="Rect치ngulo 44595" width="78.646" height="107.42" fill="none"/>
    </clipPath>
  </defs>
  <g id="Grupo_173451" data-name="Grupo 173451" transform="translate(-698 -4457)">
    <g id="Grupo_165391" data-name="Grupo 165391" transform="translate(161 3169)">
      <rect id="Rect치ngulo_40797" data-name="Rect치ngulo 40797" width="144" height="138" transform="translate(537 1288)" fill="#ffe891"/>
    </g>
    <g id="Grupo_173448" data-name="Grupo 173448" transform="translate(731 4472)">
      <g id="Grupo_173447" data-name="Grupo 173447" clip-path="url(#clip-path)">
        <path id="Trazado_176831" data-name="Trazado 176831" d="M63.017,94.171c.649,1.147.584,1.645-.354,2.559a34.937,34.937,0,0,1-4.988,4.1,1.113,1.113,0,0,0-.593,1.175c.093,1.071,0,2.158.08,3.231A2.142,2.142,0,0,1,56.1,107.42H22.547a2.131,2.131,0,0,1-1.061-2.195c.067-.868-.076-1.759.051-2.615a1.951,1.951,0,0,0-1-2.115C12.005,94.347,6.969,85.873,4.308,75.852a48.012,48.012,0,0,1-1.433-8.978,1.832,1.832,0,0,0-.526-1.183A8.818,8.818,0,0,1,3.761,52.468a2.367,2.367,0,0,0,.885-1.428,39.239,39.239,0,0,1,8.028-14.179A2.509,2.509,0,0,0,13.383,35c-.053-1.745-.041-3.494,0-5.24a1.032,1.032,0,0,0-.742-1.171c-1.648-.65-3.267-1.373-4.943-2.087a1.458,1.458,0,0,0,.9,2.041,5.613,5.613,0,0,1,3.008,6.489,5.863,5.863,0,0,1-5.6,4.385A5.778,5.778,0,0,1,3.474,28.449c.38-.191,1.108-.129.963-.856-.2-.982.545-2.106-.641-2.951A6.231,6.231,0,0,1,4.778,13.88c2.653-1.225,5.365-2.323,8.052-3.477a1.592,1.592,0,0,1,2.193.564,1.437,1.437,0,0,1-.276,2.226,6.424,6.424,0,0,1-1.4.711q-3.183,1.351-6.357,2.724a3.867,3.867,0,0,0-1.812,1.2A2.818,2.818,0,0,0,6.4,22.187C8.8,23.3,11.265,24.3,13.7,25.351q11.118,4.777,22.253,9.518a7.93,7.93,0,0,0,5.811.365c5.05-2.041,10.021-4.265,15.032-6.4q7.035-2.991,14.058-6.013c.514-.22,1.027-.442,1.527-.691a2.838,2.838,0,0,0,.01-5.161c-2.788-1.291-5.637-2.441-8.458-3.655Q53.98,9.032,44.012,4.776a21.3,21.3,0,0,0-3.248-1.168,7.094,7.094,0,0,0-4.306.433q-7.544,3.2-15.076,6.419a7.635,7.635,0,0,1-1.671.585,1.426,1.426,0,0,1-1.761-1.16,1.733,1.733,0,0,1,1.062-2.122c5.416-2.3,10.815-4.631,16.235-6.917a10.475,10.475,0,0,1,8.445.089Q58.633,7.292,73.546,13.711A5.993,5.993,0,0,1,77.462,19.6a6.01,6.01,0,0,1-3.915,5.787c-2.455,1.074-4.912,2.146-7.4,3.141a1.219,1.219,0,0,0-.885,1.391c.048,1.746.043,3.494,0,5.24a2.144,2.144,0,0,0,.607,1.583,37.687,37.687,0,0,1,8.247,14.86,1.289,1.289,0,0,0,.638.753,8.854,8.854,0,0,1,1.585,13.286,2.146,2.146,0,0,0-.575,1.377,47.3,47.3,0,0,1-8.232,23.929c-.8,1.16-1.186,1.3-2.447.911a1.609,1.609,0,0,1-.484-2.636A43.491,43.491,0,0,0,69.751,79.3a50.16,50.16,0,0,0,2.369-9.864c.04-.271.142-.669-.2-.717a1.827,1.827,0,0,0-1.726.508,2.76,2.76,0,0,0-.391.966,32.122,32.122,0,0,1-7.627,12.263,30.746,30.746,0,0,1-9.317,6.493.487.487,0,0,0-.343.349,5.726,5.726,0,0,1,1.663,3.438c.229,1.058,1.057,1.873,1.482,2.875.822,1.941.862,1.949,2.487.591.856-.716,1.675-1.478,2.529-2.2a1.493,1.493,0,0,1,2.34.166" transform="translate(0 0)"/>
        <path id="Trazado_176832" data-name="Trazado 176832" d="M42.868,36.36a7.339,7.339,0,0,1-5.795-.236Q23.9,30.5,10.742,24.848c-1.12-.481-2.241-.964-3.363-1.441a3.15,3.15,0,0,1,0-5.893c2.53-1.083,5.068-2.154,7.592-3.251,1.251-.543,1.5-1.126,1.079-2.386a11.174,11.174,0,0,0,2.927-1.082c.872,1.084,1.274,1.2,2.605.63q7.484-3.187,14.961-6.389c.284-.12.584-.2.877-.3.254.355.044.673-.1.978-2.823,6.018-2.675,12.164-.8,18.383a33.723,33.723,0,0,0,5.655,10.91c.307.4.755.753.69,1.353" transform="translate(-1.027 -0.91)" fill="#676fb1"/>
        <path id="Trazado_176833" data-name="Trazado 176833" d="M75.373,110.4a1.737,1.737,0,0,0-2.513.263,31.054,31.054,0,0,1-4.163,3.5,22.669,22.669,0,0,0-2.415-4.876,1.831,1.831,0,0,1-.139-.8,4.671,4.671,0,0,0-1.841-3.161,33.021,33.021,0,0,0,7.27-4.365A31.254,31.254,0,0,0,81.9,86.265c.34-1.019.759-1.612,1.866-1.607a5.807,5.807,0,0,0,1.045-.2,19.267,19.267,0,0,1-.475,3.794,43.292,43.292,0,0,1-7.052,17.183c-.8,1.153-.758,1.667.161,2.658a12.851,12.851,0,0,0-2.07,2.31" transform="translate(-12.357 -16.229)" fill="#feb29c"/>
        <path id="Trazado_176834" data-name="Trazado 176834" d="M23.414,70.984a46.583,46.583,0,0,0,8.82-3.743,37.454,37.454,0,0,0,10.939-9.47c.445-.574.655-.694,1.175-.039A37.712,37.712,0,0,0,68.205,71.807a22.24,22.24,0,0,0,3.433.368c.862.015.931.381.863,1.08a27.847,27.847,0,0,1-3.154,10.77c-4.9,8.964-12.424,14.11-22.585,15.349a2.758,2.758,0,0,1-.416-.009,9.2,9.2,0,0,1-5.384-.807A30.725,30.725,0,0,1,27.65,86.641c-.559-.927-.518-1.026.368-1.524a12.06,12.06,0,0,0,2.521-.956,3.914,3.914,0,0,0,1.42-5.929c-.209-.312-.5-.59-.474-1.014a6.694,6.694,0,0,0,.427-3.687,1.207,1.207,0,0,0-1.24-1.29c-.795,0-1.162.547-1.26,1.284-.069.52-.017,1.046-.042,1.569-.018.377.023.78-.327,1.059a42.482,42.482,0,0,0-5.068.231A.609.609,0,0,1,23.647,76a18.136,18.136,0,0,1-.5-4.34,1.2,1.2,0,0,1,.265-.671" transform="translate(-4.448 -11.009)" fill="#fedcce"/>
        <path id="Trazado_176835" data-name="Trazado 176835" d="M49.884,36.2a34.278,34.278,0,0,1-7.7-16.8,22.946,22.946,0,0,1,2-14.146,6.3,6.3,0,0,0,.252-.682,7.387,7.387,0,0,1,6.368.129q8.746,3.741,17.49,7.486,6.054,2.592,12.105,5.19a3.147,3.147,0,0,1-.033,5.853c-.192.084-.385.166-.577.248q-11,4.71-22.009,9.416c-2.625,1.119-5.2,2.356-7.9,3.3" transform="translate(-8.043 -0.752)" fill="#8187ca"/>
        <path id="Trazado_176836" data-name="Trazado 176836" d="M80.676,60.018c-2.971.063-3.164.288-2.732,3.147a32.294,32.294,0,0,1,.275,3.442c.023.515-.061.742-.678.691A34.753,34.753,0,0,1,52.8,54.476c-.085-.1-.149-.222-.265-.4,1.8-.246,3.548-.447,5.279-.728a47.126,47.126,0,0,0,14.773-5.02c.641-.343,1.014-.368,1.532.255a37.5,37.5,0,0,1,6.554,11.431" transform="translate(-10.096 -9.242)" fill="#feb29c"/>
        <path id="Trazado_176837" data-name="Trazado 176837" d="M20.389,40.336a17.442,17.442,0,0,0-.011-1.78c-.1-.959.288-.944,1-.633,4.126,1.79,8.262,3.555,12.395,5.328,1.506.646,3.02,1.272,4.515,1.945a11.6,11.6,0,0,0,9.824.007c5.593-2.435,11.213-4.811,16.822-7.211,1.074-.459,1.078-.455,1.082.663s-.051,2.239.019,3.352a1.36,1.36,0,0,1-.88,1.454,47.067,47.067,0,0,1-16.786,5.179A46.74,46.74,0,0,1,22.83,44.285c-1.771-.833-3.15-1.686-2.441-3.949" transform="translate(-3.882 -7.246)" fill="#676fb1"/>
        <path id="Trazado_176838" data-name="Trazado 176838" d="M26.115,88.565c-.455.21-.692.424-.344.988A30.893,30.893,0,0,0,39.836,101.87a11.543,11.543,0,0,0,4.576.753,23.735,23.735,0,0,1-8.919-.528,28.715,28.715,0,0,1-22.123-23.5c-.139-.823-.169-1.664-.277-2.493-.059-.453.105-.613.554-.634a48.351,48.351,0,0,0,7.833-1.225,19.981,19.981,0,0,0,.652,5.291c0,.539-.486.631-.8.851-2.855,1.968-2.747,5.247.238,7.028a5.888,5.888,0,0,0,3.07.872c.5,0,1.054-.152,1.482.282" transform="translate(-2.514 -14.267)" fill="#fecabd"/>
        <path id="Trazado_176839" data-name="Trazado 176839" d="M23.751,114.236C13.886,106.684,9.089,96.556,7.556,84.49c.792.128,1.452.28,2.119.331.57.044.532.5.634.823a31.859,31.859,0,0,0,11.369,15.932,32.766,32.766,0,0,0,6.471,3.744,4.612,4.612,0,0,0-1.861,3.653,1.12,1.12,0,0,1-.25.561,19.708,19.708,0,0,0-2.287,4.7" transform="translate(-1.452 -16.236)" fill="#fe8e71"/>
        <path id="Trazado_176840" data-name="Trazado 176840" d="M21.13,65.705a31.213,31.213,0,0,1-8.074,1.576c-.536.052-.568-.2-.541-.607a28.609,28.609,0,0,1,.62-4.137c.4-1.853-.159-2.532-2.053-2.531H10.033a30.738,30.738,0,0,1,2.81-6.165,35.186,35.186,0,0,1,3.881-5.454c.258-.3.452-.577.935-.3A57.805,57.805,0,0,0,26.165,51.8c.169.384-.065.673-.244.963a30.69,30.69,0,0,0-4.4,11.769,2.2,2.2,0,0,1-.393,1.175" transform="translate(-1.928 -9.219)" fill="#fe8e71"/>
        <path id="Trazado_176841" data-name="Trazado 176841" d="M23.77,66.615a27.449,27.449,0,0,1,2.445-9.126,38.246,38.246,0,0,1,2.591-4.781,65.332,65.332,0,0,0,8.358,1.806c1.168.136,2.338.263,3.578.4a3.111,3.111,0,0,1-.778,1.1A34.788,34.788,0,0,1,24.282,66.531a3.038,3.038,0,0,1-.512.084" transform="translate(-4.568 -10.129)" fill="#feb29c"/>
        <path id="Trazado_176842" data-name="Trazado 176842" d="M36.6,112.888c.605-.08.549.407.669.678a14.061,14.061,0,0,0,7.542,7.486,2.727,2.727,0,0,0,2.312.01,14.076,14.076,0,0,0,7.513-7.379c.132-.293.069-.928.626-.776.713.195,1.575.226,1.953,1.045a1.062,1.062,0,0,1-.389,1.3c-1.726,1.529-3.442,3.069-5.185,4.577-.86.744-1.713,1.444-1.533,2.772a.978.978,0,0,1-.41.927c-1.157.714-2.337,1.391-3.517,2.067a.457.457,0,0,1-.385.008c-1.182-.674-2.371-1.335-3.519-2.063a1.268,1.268,0,0,1-.45-1.232,2.218,2.218,0,0,0-.945-1.978c-1.771-1.53-3.521-3.084-5.269-4.641-.508-.454-1.211-.864-.881-1.719s1.268-.751,1.868-1.084" transform="translate(-6.659 -21.691)" fill="#676eb1"/>
        <path id="Trazado_176843" data-name="Trazado 176843" d="M55.862,127.133a5.078,5.078,0,0,0,1.451-2.873,1.192,1.192,0,0,1,.393-.815c1.683-1.465,3.353-2.944,5.1-4.483a14.787,14.787,0,0,1,1.934,7.73c0,.4-.217.443-.532.443-2.709,0-5.42,0-8.347,0" transform="translate(-10.735 -22.86)" fill="#8187ca"/>
        <path id="Trazado_176844" data-name="Trazado 176844" d="M3.912,72.623a5.786,5.786,0,0,1,3.9-5.515c.586-.184.787-.166.671.576a31.586,31.586,0,0,0,0,9.8c.12.766-.107.741-.679.556a5.791,5.791,0,0,1-3.891-5.416" transform="translate(-0.752 -12.877)" fill="#fecabd"/>
        <path id="Trazado_176845" data-name="Trazado 176845" d="M87.972,67.159a5.394,5.394,0,0,1,4.367,5.3A5.771,5.771,0,0,1,88.333,78.1c-.24.061-.7.329-.6-.295a48.3,48.3,0,0,0,.239-10.645" transform="translate(-16.856 -12.906)" fill="#fecabd"/>
        <path id="Trazado_176846" data-name="Trazado 176846" d="M35.335,127.133c-1.4.012-2.791.008-4.186.046-.5.014-.654-.165-.654-.66a15.355,15.355,0,0,1,1.614-6.963c.24-.477.408-.532.809-.154,1.066,1,2.167,1.963,3.255,2.941a28.377,28.377,0,0,0-.555,3.92,1.253,1.253,0,0,1-.284.87" transform="translate(-5.86 -22.897)" fill="#676eb1"/>
        <path id="Trazado_176847" data-name="Trazado 176847" d="M41.82,112.9a32.2,32.2,0,0,0,11.084-.025A10.745,10.745,0,0,1,47.6,118a.7.7,0,0,1-.607-.047A10.89,10.89,0,0,1,41.82,112.9" transform="translate(-8.036 -21.691)" fill="#fecabd"/>
        <path id="Trazado_176848" data-name="Trazado 176848" d="M4.227,41.047a2.548,2.548,0,0,1,2.541-2.619,2.6,2.6,0,0,1,2.672,2.62,2.682,2.682,0,0,1-2.621,2.6,2.621,2.621,0,0,1-2.592-2.6" transform="translate(-0.812 -7.384)" fill="#fecd70"/>
        <path id="Trazado_176849" data-name="Trazado 176849" d="M36.484,127.891a19.975,19.975,0,0,1,.4-4.2c.05-.294.074-.553.439-.586.932.721,1.864,1.392,1.955,2.769a3.764,3.764,0,0,0,1.2,2.021Z" transform="translate(-7.009 -23.656)" fill="#8187ca"/>
        <path id="Trazado_176850" data-name="Trazado 176850" d="M65.929,80.447c2.869-.736,5.921.134,7.3,2.081A4.149,4.149,0,0,1,72.1,88.563a7.507,7.507,0,0,1-8,.069c-2.53-1.682-2.892-4.269-.925-6.6.089-.106.162-.225.242-.338a2.674,2.674,0,0,0,2.518-1.251" transform="translate(-11.897 -15.409)" fill="#fe8d9d"/>
        <path id="Trazado_176851" data-name="Trazado 176851" d="M27.515,89.712A7.994,7.994,0,0,1,22.6,88.68c-2.956-1.99-2.988-5.418-.023-7.379.317-.209.637-.415.956-.622a9.229,9.229,0,0,1,5-.228,2.673,2.673,0,0,0,2.518,1.25c1.74,2.212,1.948,3.7.807,5.463a5.99,5.99,0,0,1-4.338,2.547" transform="translate(-3.914 -15.413)" fill="#fe8d9d"/>
        <path id="Trazado_176852" data-name="Trazado 176852" d="M47.446,82.95a6.189,6.189,0,0,1-4.381-1.906,1.57,1.57,0,0,1-.178-2.316,1.552,1.552,0,0,1,2.318.027c1.608,1.388,2.954,1.4,4.527.025a1.573,1.573,0,1,1,2.19,2.242,6.139,6.139,0,0,1-4.477,1.927" transform="translate(-8.159 -15.032)"/>
        <path id="Trazado_176853" data-name="Trazado 176853" d="M32.988,80.765c-1.428.46-2,.179-2.518-1.25.011-.836.006-1.671.04-2.506a1.584,1.584,0,0,1,1.617-1.671A1.511,1.511,0,0,1,33.628,77c-.073,1.272.49,2.673-.64,3.769" transform="translate(-5.855 -14.477)" fill="#010000"/>
        <path id="Trazado_176854" data-name="Trazado 176854" d="M66.116,79.515c-.529,1.433-1.09,1.712-2.519,1.251A6.339,6.339,0,0,1,63.12,76.2a1.556,1.556,0,0,1,2.941.6c.062.9.04,1.81.055,2.714" transform="translate(-12.084 -14.477)" fill="#010000"/>
      </g>
    </g>
  </g>
</svg>
