<svg xmlns="http://www.w3.org/2000/svg" xmlns:xlink="http://www.w3.org/1999/xlink" width="144" height="138" viewBox="0 0 144 138">
  <defs>
    <clipPath id="clip-path">
      <rect id="Rectángulo_44597" data-name="Rectángulo 44597" width="71.581" height="75.806" fill="none"/>
    </clipPath>
    <clipPath id="clip-path-2">
      <rect id="Rectángulo_44595" data-name="Rectángulo 44595" width="78.646" height="107.42" fill="none"/>
    </clipPath>
  </defs>
  <g id="Grupo_173452" data-name="Grupo 173452" transform="translate(1651 7243)">
    <g id="Grupo_165391" data-name="Grupo 165391" transform="translate(-2188 -8531)">
      <rect id="Rectángulo_40797" data-name="Rectángulo 40797" width="144" height="138" transform="translate(537 1288)" fill="#ffe891"/>
    </g>
    <g id="Grupo_173462" data-name="Grupo 173462" transform="translate(-1587 -7211.903)">
      <g id="Grupo_173461" data-name="Grupo 173461" transform="translate(0 0)" clip-path="url(#clip-path)">
        <path id="Trazado_176872" data-name="Trazado 176872" d="M1.037,55.515q.007-.866.013-1.733a3.146,3.146,0,0,0,.418-1.843q-.032-2.653,0-5.308a3.065,3.065,0,0,0-.413-1.764q-.007-.883-.015-1.766a3.273,3.273,0,0,0,.415-1.928q-.016-3.869,0-7.737c.005-1.23.159-1.383,1.407-1.383q30.426-.007,60.852,0c1.306,0,1.453.141,1.454,1.419q.011,9.229,0,18.457c0,.393.118.91-.276,1.113s-.726-.228-1.033-.459a19.062,19.062,0,0,0-21.234-1.233,3.317,3.317,0,0,1-1,.5c-1.2.093-2.406.027-3.61.052-1.335.028-1.709.4-1.711,1.742,0,1.177-.024,2.355.015,3.532a21.523,21.523,0,0,1-1.162,2.293,18.823,18.823,0,0,0,1.588,19.361c.245.368.764.732.545,1.173s-.823.275-1.266.276c-9.862.007-19.725-.034-29.587.033a4.829,4.829,0,0,1-4.973-4.971q.009-7.9,0-15.8c0-.7-.017-1.4,0-2.1a3.074,3.074,0,0,0-.426-1.923" transform="translate(-0.375 -11.604)" fill="#71c9f4"/>
        <path id="Trazado_176873" data-name="Trazado 176873" d="M.661,43.911c.649.153.682.632.681,1.184-.01,6.178.04,12.357-.027,18.535a4.693,4.693,0,0,0,4.824,4.862c10.019-.068,20.039-.026,30.059-.027.207,0,.413-.02.642-.031-5.226-7.446-5.785-15.056-1.041-22.9a4.6,4.6,0,0,1,1.4-2.108,12.43,12.43,0,0,1,3.956-3.343A21.259,21.259,0,0,1,47.792,37.3a19.1,19.1,0,0,1,16.34,3.869c.084.066.17.13.26.2.26-.147.133-.387.133-.571.008-6.421,0-12.841.019-19.261,0-.6-.114-.822-.781-.821q-30.826.029-61.652,0c-.658,0-.795.2-.788.815.029,2.955,0,5.91.022,8.865,0,.542-.094.958-.68,1.107-.526-.161-.651-.531-.649-1.053.013-6.45,0-12.9.015-19.349A5.747,5.747,0,0,1,5.785,5.364c2.284-.016,4.569-.034,6.853.013.725.015.948-.165.928-.913A4.08,4.08,0,0,1,15.965.5a4.227,4.227,0,0,1,4.564.378,5.21,5.21,0,0,1,1.588,2.087,1.706,1.706,0,0,1,.405,1.422c-.011.55.227.784.772.757a2.419,2.419,0,0,1,1.257.193c6.147.008,12.294,0,18.44.04.672,0,.577-.351.575-.751a4.268,4.268,0,0,1,2.71-4.26,4.347,4.347,0,0,1,5.492,1.879c.131.232.247.474.369.711a1.887,1.887,0,0,1,.382,1.435c-.015.552.235.775.774.754a2.758,2.758,0,0,1,1.414.2c1.55.006,3.1.071,4.649.005A6.047,6.047,0,0,1,65.3,8.622a3.2,3.2,0,0,1,.761,2.467c.011,3.278,0,6.555,0,9.833,0,6.8.01,13.594-.013,20.391a3.032,3.032,0,0,0,.743,2.126,19.382,19.382,0,0,1,4.691,10.933A19.617,19.617,0,0,1,45.76,74.78a19.143,19.143,0,0,1-7.009-4.151,1.845,1.845,0,0,0-1.308-.511c-1.263.008-2.526,0-3.788,0q-13.259,0-26.517.006A19.568,19.568,0,0,1,4.573,69.9a1.522,1.522,0,0,1-1.125-.551A6.259,6.259,0,0,1,0,63.224C.074,57.164.027,51.1.016,45.042c0-.526.052-.968.645-1.131" transform="translate(0 0)"/>
        <path id="Trazado_176874" data-name="Trazado 176874" d="M.7,52.143a.839.839,0,0,1,.655.96q-.023,3.506,0,7.013c0,.491-.128.843-.657.942a.752.752,0,0,1-.643-.866q.016-3.584,0-7.166A.816.816,0,0,1,.7,52.143" transform="translate(-0.017 -18.88)" fill="#3a2e5f"/>
        <path id="Trazado_176875" data-name="Trazado 176875" d="M33.17,45.3c0-1.021-.008-2.042,0-3.063.01-.929.436-1.424,1.36-1.439q3.143-.05,6.287,0A1.281,1.281,0,0,1,42.2,42.232q.014,3.063,0,6.125c-.005,1.01-.462,1.458-1.491,1.463q-3.022.013-6.045,0c-1.064-.005-1.486-.45-1.492-1.539-.006-.994,0-1.988,0-2.982" transform="translate(-12.009 -14.763)" fill="#d4fafd"/>
        <path id="Trazado_176876" data-name="Trazado 176876" d="M64.955,45.328c0,1.021.009,2.043,0,3.064a1.262,1.262,0,0,1-1.441,1.428q-3.064.016-6.128,0c-1.014-.005-1.454-.462-1.458-1.495q-.011-3.024,0-6.048a1.3,1.3,0,0,1,1.484-1.486q3.023-.031,6.047,0c1.061.01,1.491.481,1.5,1.553.006.995,0,1.989,0,2.984" transform="translate(-20.247 -14.764)" fill="#d4fafd"/>
        <path id="Trazado_176877" data-name="Trazado 176877" d="M87.711,45.359c0,.993.007,1.987,0,2.98-.01,1.043-.434,1.483-1.447,1.486q-3.021.011-6.041,0c-1.108,0-1.541-.449-1.543-1.575q-.008-2.9,0-5.8c0-1.137.533-1.657,1.689-1.661q2.819-.009,5.638,0c1.285,0,1.7.415,1.706,1.668,0,.967,0,1.934,0,2.9" transform="translate(-28.486 -14.768)" fill="#d4fafd"/>
        <path id="Trazado_176878" data-name="Trazado 176878" d="M14.865,49.821c-1.047,0-2.094.011-3.141,0a1.2,1.2,0,0,1-1.3-1.3q-.029-3.182,0-6.363A1.225,1.225,0,0,1,11.77,40.8c2.094-.033,4.188-.027,6.282,0a1.353,1.353,0,0,1,1.385,1.385q.034,3.182,0,6.363a1.223,1.223,0,0,1-1.349,1.274c-1.074.018-2.148,0-3.222,0" transform="translate(-3.768 -14.764)" fill="#d4fafd"/>
        <path id="Trazado_176879" data-name="Trazado 176879" d="M10.414,67.25c0-.994-.008-1.988,0-2.982.01-.951.413-1.452,1.326-1.468,2.121-.038,4.244-.031,6.366,0a1.339,1.339,0,0,1,1.329,1.355q.036,3.223,0,6.446a1.177,1.177,0,0,1-1.243,1.211q-3.3.033-6.608,0a1.155,1.155,0,0,1-1.166-1.257c-.015-1.1,0-2.2,0-3.3" transform="translate(-3.769 -22.729)" fill="#d4fafd"/>
        <path id="Trazado_176880" data-name="Trazado 176880" d="M37.619,71.821c-1.047,0-2.094.011-3.141,0a1.2,1.2,0,0,1-1.3-1.3q-.027-3.182,0-6.363A1.257,1.257,0,0,1,34.545,62.8q3.14-.045,6.282,0a1.368,1.368,0,0,1,1.37,1.467q.011,3.061,0,6.122a1.265,1.265,0,0,1-1.437,1.434c-1.047.014-2.094,0-3.141,0" transform="translate(-12.007 -22.729)" fill="#d4fafd"/>
        <path id="Trazado_176881" data-name="Trazado 176881" d="M37.618,93.82c-1.047,0-2.094.011-3.141,0a1.2,1.2,0,0,1-1.3-1.3q-.026-3.182,0-6.363A1.257,1.257,0,0,1,34.546,84.8q3.14-.045,6.282,0a1.35,1.35,0,0,1,1.365,1.4q.029,3.141,0,6.283a1.226,1.226,0,0,1-1.354,1.337c-1.074.011-2.148,0-3.222,0" transform="translate(-12.007 -30.695)" fill="#d4fafd"/>
        <path id="Trazado_176882" data-name="Trazado 176882" d="M14.895,93.82c-1.047,0-2.094.01-3.141,0a1.2,1.2,0,0,1-1.337-1.336q-.015-3.1,0-6.2c0-.97.45-1.47,1.407-1.483,2.068-.028,4.135-.024,6.2,0A1.358,1.358,0,0,1,19.44,86.23q.029,3.14,0,6.282a1.221,1.221,0,0,1-1.323,1.3c-1.074.022-2.148.005-3.222.006" transform="translate(-3.769 -30.695)" fill="#d4fafd"/>
        <path id="Trazado_176883" data-name="Trazado 176883" d="M61.379,62.816a21.553,21.553,0,0,0-5.355,5.451,19.017,19.017,0,0,1-.071-4.445c.039-.7.72-1.019,1.426-1.024,1.333-.009,2.667.01,4,.018" transform="translate(-20.224 -22.737)" fill="#d4fafd"/>
        <path id="Trazado_176884" data-name="Trazado 176884" d="M33.651,23.2q-15.316,0-30.632.018c-.776,0-.993-.186-.976-.971.055-2.417.015-4.836.022-7.254A4.474,4.474,0,0,1,6.594,10.44c2.338-.006,4.676.016,7.013-.014.576-.008.733.179.716.734-.036,1.208-.024,2.418,0,3.627a4.267,4.267,0,0,0,4.288,4.219,4.311,4.311,0,0,0,4.414-4.192c.029-1.262.023-2.526,0-3.789-.009-.461.149-.6.6-.595q10.036.017,20.072,0c.5,0,.651.147.638.64-.031,1.181-.015,2.364-.008,3.546a4.355,4.355,0,1,0,8.71.045c.014-1.209.02-2.418,0-3.627-.009-.452.137-.607.6-.6,2.5.018,5-.023,7.5.02A4.46,4.46,0,0,1,65.278,14.8c.021,2.552-.014,5.105.02,7.658.008.614-.18.762-.774.758-4.729-.023-9.458-.013-14.187-.013H33.651" transform="translate(-0.74 -3.775)" fill="#178aeb"/>
        <path id="Trazado_176885" data-name="Trazado 176885" d="M87.909,71.685a16.179,16.179,0,0,1,1.342,7.268,17.948,17.948,0,0,1-4.435,11.33,17.938,17.938,0,0,1-24.936,2.226,17.7,17.7,0,0,1-6.7-15.219,17.2,17.2,0,0,1,.988-4.865c.085-.246.152-.524.427-.655A12.434,12.434,0,0,1,56.878,68.1,18.231,18.231,0,0,1,68.719,61.7c7.045-.836,12.848,1.612,17.369,7.082a28.543,28.543,0,0,1,1.821,2.906" transform="translate(-19.246 -22.281)" fill="#ba608a"/>
        <path id="Trazado_176886" data-name="Trazado 176886" d="M23.305,8.43c0-1.1-.017-2.2,0-3.305a3.053,3.053,0,0,1,6.1-.026q.055,3.3,0,6.61a3.054,3.054,0,0,1-6.107-.054c-.016-1.074,0-2.149,0-3.224" transform="translate(-8.436 -0.767)" fill="#d4fafd"/>
        <path id="Trazado_176887" data-name="Trazado 176887" d="M76.461,8.431c0,1.1.02,2.2-.005,3.3a3.052,3.052,0,0,1-6.1.052c-.045-2.229-.037-4.46,0-6.689a3.053,3.053,0,0,1,6.1.029c.022,1.1,0,2.2,0,3.3" transform="translate(-25.463 -0.767)" fill="#d4fafd"/>
        <path id="Trazado_176888" data-name="Trazado 176888" d="M88.715,71.056c-.38-.089-.423-.463-.582-.722a18.4,18.4,0,0,0-13.666-9.061A18.62,18.62,0,0,0,55.78,70.53c-.121.207-.255.408-.383.612a1.321,1.321,0,0,1,.233-.836,18.023,18.023,0,0,1,33.086.75" transform="translate(-20.052 -21.652)" fill="#fefefe"/>
        <path id="Trazado_176889" data-name="Trazado 176889" d="M41.64,43.964c-.077.145-.161.341-.276.517-.9,1.4-1.8,2.795-2.716,4.183-.47.714-.771.741-1.4.158-.552-.51-1.092-1.032-1.643-1.544-.335-.311-.647-.662-.253-1.091.376-.408.757-.189,1.12.117.46.388.833,1.194,1.368,1.081.414-.087.68-.894,1-1.386.515-.785,1.023-1.573,1.534-2.361a.685.685,0,0,1,.822-.344c.29.087.413.318.443.671" transform="translate(-12.733 -15.663)" fill="#3a2f5f"/>
        <path id="Trazado_176890" data-name="Trazado 176890" d="M58.474,45.953c.522.1.8.572,1.169.908.776.707.764.719,1.315-.131.642-.989,1.293-1.972,1.927-2.967.259-.406.584-.7,1.046-.4s.285.736.033,1.123c-.905,1.393-1.8,2.792-2.714,4.18-.455.692-.757.736-1.345.2-.635-.577-1.252-1.175-1.872-1.77a.627.627,0,0,1-.176-.795.658.658,0,0,1,.619-.345" transform="translate(-20.92 -15.655)" fill="#3a2f5f"/>
        <path id="Trazado_176891" data-name="Trazado 176891" d="M87.431,43.873a.866.866,0,0,1-.22.588c-.919,1.417-1.847,2.827-2.756,4.25-.375.586-.786.682-1.3.19q-.9-.86-1.812-1.716c-.332-.313-.51-.675-.129-1.039.326-.311.691-.2,1,.087.059.054.114.113.173.168,1.255,1.169,1.255,1.168,2.175-.244.556-.854,1.116-1.7,1.671-2.558a.655.655,0,0,1,.834-.29.525.525,0,0,1,.364.564" transform="translate(-29.327 -15.663)" fill="#3a2f5f"/>
        <path id="Trazado_176892" data-name="Trazado 176892" d="M15.19,49.219a.9.9,0,0,1-.57-.269c-.625-.588-1.248-1.179-1.876-1.764-.337-.314-.5-.679-.136-1.042.32-.321.687-.21,1,.076.079.073.157.147.235.22,1.2,1.125,1.2,1.125,2.123-.29.526-.809,1.06-1.613,1.574-2.429.246-.391.573-.635,1-.383.485.289.348.7.082,1.109q-1.392,2.116-2.765,4.245a.96.96,0,0,1-.667.527" transform="translate(-4.491 -15.655)" fill="#3a2f5f"/>
        <path id="Trazado_176893" data-name="Trazado 176893" d="M15.207,71.225a8.594,8.594,0,0,1-2.771-2.6.549.549,0,0,1,.26-.551.661.661,0,0,1,.821.07,10.353,10.353,0,0,1,1.054.992c.4.464.6.3.864-.128.663-1.071,1.368-2.115,2.048-3.176.264-.412.577-.8,1.092-.472.53.341.26.779,0,1.183Q17.226,68.6,15.9,70.659c-.177.272-.351.546-.689.566" transform="translate(-4.502 -23.622)" fill="#3a2f5f"/>
        <path id="Trazado_176894" data-name="Trazado 176894" d="M41.605,65.681a.981.981,0,0,1-.211.769c-.918,1.419-1.834,2.839-2.766,4.248-.45.68-.751.711-1.345.165s-1.17-1.107-1.76-1.655c-.335-.311-.521-.672-.152-1.039s.737-.2,1.063.114.682.61.988.947.473.265.7-.1c.723-1.16,1.484-2.3,2.228-3.445a.714.714,0,0,1,.8-.4.571.571,0,0,1,.454.393" transform="translate(-12.734 -23.632)" fill="#3a2f5f"/>
        <path id="Trazado_176895" data-name="Trazado 176895" d="M41.629,87.882a1.058,1.058,0,0,1-.25.6c-.9,1.4-1.8,2.793-2.718,4.183-.479.729-.769.764-1.4.186-.593-.545-1.171-1.107-1.759-1.656-.309-.288-.479-.625-.167-.98.337-.385.715-.26,1.056.043.06.054.117.111.176.165,1.261,1.153,1.26,1.153,2.177-.262.54-.832,1.085-1.662,1.625-2.495a.691.691,0,0,1,.813-.366.6.6,0,0,1,.444.584" transform="translate(-12.735 -31.598)" fill="#3a2f5f"/>
        <path id="Trazado_176896" data-name="Trazado 176896" d="M18.88,87.958c-.087.166-.173.36-.287.537-.9,1.4-1.8,2.793-2.715,4.18-.474.72-.764.748-1.4.163-.571-.528-1.132-1.067-1.7-1.6-.324-.3-.555-.653-.2-1.038.38-.415.764-.2,1.115.117.431.4.936,1.134,1.3,1.075.563-.091.757-.94,1.118-1.459.521-.747,1-1.525,1.494-2.289a.69.69,0,0,1,.822-.346c.293.087.394.336.452.656" transform="translate(-4.489 -31.598)" fill="#3a2f5f"/>
        <path id="Trazado_176897" data-name="Trazado 176897" d="M72.478,94.307a14.014,14.014,0,0,1-11.89-7.585,14.274,14.274,0,0,1,1.483-15.8A13.912,13.912,0,0,1,73.8,65.607a14.321,14.321,0,0,1,10.107,23.9A14.674,14.674,0,0,1,75.28,94.22a10.439,10.439,0,0,1-1.2.086,5.256,5.256,0,0,1-1.6,0" transform="translate(-21.314 -23.751)" fill="#3a2e5f"/>
        <path id="Trazado_176898" data-name="Trazado 176898" d="M80.2,110.6h1.6a2.129,2.129,0,0,1-1.6,0" transform="translate(-29.04 -40.046)" fill="#a85883"/>
        <path id="Trazado_176899" data-name="Trazado 176899" d="M74.02,93.79a13.12,13.12,0,1,1,13.1-13.136A13.122,13.122,0,0,1,74.02,93.79" transform="translate(-22.054 -24.458)" fill="#fdd6e4"/>
        <path id="Trazado_176900" data-name="Trazado 176900" d="M77.825,78.565c0,1.638-.019,3.277.009,4.915.012.72-.253,1.014-.991,1-2.094-.029-4.189-.015-6.284-.007-.471,0-.924-.069-.914-.639.01-.547.455-.656.927-.656,1.745,0,3.492-.029,5.237.017.625.017.747-.181.741-.765-.031-2.793-.013-5.586-.013-8.38,0-.188,0-.376,0-.564-.008-.444.2-.757.645-.758s.646.315.646.757q0,2.538,0,5.076" transform="translate(-25.216 -26.335)" fill="#3a2e5f"/>
      </g>
    </g>
    <g id="Grupo_173449" data-name="Grupo 173449" transform="translate(-1640 -7227.71)">
      <g id="Grupo_173447" data-name="Grupo 173447" clip-path="url(#clip-path-2)">
        <path id="Trazado_176831" data-name="Trazado 176831" d="M63.017,94.171c.649,1.147.584,1.645-.354,2.559a34.937,34.937,0,0,1-4.988,4.1,1.113,1.113,0,0,0-.593,1.175c.093,1.071,0,2.158.08,3.231A2.142,2.142,0,0,1,56.1,107.42H22.547a2.131,2.131,0,0,1-1.061-2.195c.067-.868-.076-1.759.051-2.615a1.951,1.951,0,0,0-1-2.115C12.005,94.347,6.969,85.873,4.308,75.852a48.012,48.012,0,0,1-1.433-8.978,1.832,1.832,0,0,0-.526-1.183A8.818,8.818,0,0,1,3.761,52.468a2.367,2.367,0,0,0,.885-1.428,39.239,39.239,0,0,1,8.028-14.179A2.509,2.509,0,0,0,13.383,35c-.053-1.745-.041-3.494,0-5.24a1.032,1.032,0,0,0-.742-1.171c-1.648-.65-3.267-1.373-4.943-2.087a1.458,1.458,0,0,0,.9,2.041,5.613,5.613,0,0,1,3.008,6.489,5.863,5.863,0,0,1-5.6,4.385A5.778,5.778,0,0,1,3.474,28.449c.38-.191,1.108-.129.963-.856-.2-.982.545-2.106-.641-2.951A6.231,6.231,0,0,1,4.778,13.88c2.653-1.225,5.365-2.323,8.052-3.477a1.592,1.592,0,0,1,2.193.564,1.437,1.437,0,0,1-.276,2.226,6.424,6.424,0,0,1-1.4.711q-3.183,1.351-6.357,2.724a3.867,3.867,0,0,0-1.812,1.2A2.818,2.818,0,0,0,6.4,22.187C8.8,23.3,11.265,24.3,13.7,25.351q11.118,4.777,22.253,9.518a7.93,7.93,0,0,0,5.811.365c5.05-2.041,10.021-4.265,15.032-6.4q7.035-2.991,14.058-6.013c.514-.22,1.027-.442,1.527-.691a2.838,2.838,0,0,0,.01-5.161c-2.788-1.291-5.637-2.441-8.458-3.655Q53.98,9.032,44.012,4.776a21.3,21.3,0,0,0-3.248-1.168,7.094,7.094,0,0,0-4.306.433q-7.544,3.2-15.076,6.419a7.635,7.635,0,0,1-1.671.585,1.426,1.426,0,0,1-1.761-1.16,1.733,1.733,0,0,1,1.062-2.122c5.416-2.3,10.815-4.631,16.235-6.917a10.475,10.475,0,0,1,8.445.089Q58.633,7.292,73.546,13.711A5.993,5.993,0,0,1,77.462,19.6a6.01,6.01,0,0,1-3.915,5.787c-2.455,1.074-4.912,2.146-7.4,3.141a1.219,1.219,0,0,0-.885,1.391c.048,1.746.043,3.494,0,5.24a2.144,2.144,0,0,0,.607,1.583,37.687,37.687,0,0,1,8.247,14.86,1.289,1.289,0,0,0,.638.753,8.854,8.854,0,0,1,1.585,13.286,2.146,2.146,0,0,0-.575,1.377,47.3,47.3,0,0,1-8.232,23.929c-.8,1.16-1.186,1.3-2.447.911a1.609,1.609,0,0,1-.484-2.636A43.491,43.491,0,0,0,69.751,79.3a50.16,50.16,0,0,0,2.369-9.864c.04-.271.142-.669-.2-.717a1.827,1.827,0,0,0-1.726.508,2.76,2.76,0,0,0-.391.966,32.122,32.122,0,0,1-7.627,12.263,30.746,30.746,0,0,1-9.317,6.493.487.487,0,0,0-.343.349,5.726,5.726,0,0,1,1.663,3.438c.229,1.058,1.057,1.873,1.482,2.875.822,1.941.862,1.949,2.487.591.856-.716,1.675-1.478,2.529-2.2a1.493,1.493,0,0,1,2.34.166" transform="translate(0 0)"/>
        <path id="Trazado_176832" data-name="Trazado 176832" d="M42.868,36.36a7.339,7.339,0,0,1-5.795-.236Q23.9,30.5,10.742,24.848c-1.12-.481-2.241-.964-3.363-1.441a3.15,3.15,0,0,1,0-5.893c2.53-1.083,5.068-2.154,7.592-3.251,1.251-.543,1.5-1.126,1.079-2.386a11.174,11.174,0,0,0,2.927-1.082c.872,1.084,1.274,1.2,2.605.63q7.484-3.187,14.961-6.389c.284-.12.584-.2.877-.3.254.355.044.673-.1.978-2.823,6.018-2.675,12.164-.8,18.383a33.723,33.723,0,0,0,5.655,10.91c.307.4.755.753.69,1.353" transform="translate(-1.027 -0.91)" fill="#676fb1"/>
        <path id="Trazado_176833" data-name="Trazado 176833" d="M75.373,110.4a1.737,1.737,0,0,0-2.513.263,31.054,31.054,0,0,1-4.163,3.5,22.669,22.669,0,0,0-2.415-4.876,1.831,1.831,0,0,1-.139-.8,4.671,4.671,0,0,0-1.841-3.161,33.021,33.021,0,0,0,7.27-4.365A31.254,31.254,0,0,0,81.9,86.265c.34-1.019.759-1.612,1.866-1.607a5.807,5.807,0,0,0,1.045-.2,19.267,19.267,0,0,1-.475,3.794,43.292,43.292,0,0,1-7.052,17.183c-.8,1.153-.758,1.667.161,2.658a12.851,12.851,0,0,0-2.07,2.31" transform="translate(-12.357 -16.229)" fill="#feb29c"/>
        <path id="Trazado_176834" data-name="Trazado 176834" d="M23.414,70.984a46.583,46.583,0,0,0,8.82-3.743,37.454,37.454,0,0,0,10.939-9.47c.445-.574.655-.694,1.175-.039A37.712,37.712,0,0,0,68.205,71.807a22.24,22.24,0,0,0,3.433.368c.862.015.931.381.863,1.08a27.847,27.847,0,0,1-3.154,10.77c-4.9,8.964-12.424,14.11-22.585,15.349a2.758,2.758,0,0,1-.416-.009,9.2,9.2,0,0,1-5.384-.807A30.725,30.725,0,0,1,27.65,86.641c-.559-.927-.518-1.026.368-1.524a12.06,12.06,0,0,0,2.521-.956,3.914,3.914,0,0,0,1.42-5.929c-.209-.312-.5-.59-.474-1.014a6.694,6.694,0,0,0,.427-3.687,1.207,1.207,0,0,0-1.24-1.29c-.795,0-1.162.547-1.26,1.284-.069.52-.017,1.046-.042,1.569-.018.377.023.78-.327,1.059a42.482,42.482,0,0,0-5.068.231A.609.609,0,0,1,23.647,76a18.136,18.136,0,0,1-.5-4.34,1.2,1.2,0,0,1,.265-.671" transform="translate(-4.448 -11.009)" fill="#fedcce"/>
        <path id="Trazado_176835" data-name="Trazado 176835" d="M49.884,36.2a34.278,34.278,0,0,1-7.7-16.8,22.946,22.946,0,0,1,2-14.146,6.3,6.3,0,0,0,.252-.682,7.387,7.387,0,0,1,6.368.129q8.746,3.741,17.49,7.486,6.054,2.592,12.105,5.19a3.147,3.147,0,0,1-.033,5.853c-.192.084-.385.166-.577.248q-11,4.71-22.009,9.416c-2.625,1.119-5.2,2.356-7.9,3.3" transform="translate(-8.043 -0.752)" fill="#8187ca"/>
        <path id="Trazado_176836" data-name="Trazado 176836" d="M80.676,60.018c-2.971.063-3.164.288-2.732,3.147a32.294,32.294,0,0,1,.275,3.442c.023.515-.061.742-.678.691A34.753,34.753,0,0,1,52.8,54.476c-.085-.1-.149-.222-.265-.4,1.8-.246,3.548-.447,5.279-.728a47.126,47.126,0,0,0,14.773-5.02c.641-.343,1.014-.368,1.532.255a37.5,37.5,0,0,1,6.554,11.431" transform="translate(-10.096 -9.242)" fill="#feb29c"/>
        <path id="Trazado_176837" data-name="Trazado 176837" d="M20.389,40.336a17.442,17.442,0,0,0-.011-1.78c-.1-.959.288-.944,1-.633,4.126,1.79,8.262,3.555,12.395,5.328,1.506.646,3.02,1.272,4.515,1.945a11.6,11.6,0,0,0,9.824.007c5.593-2.435,11.213-4.811,16.822-7.211,1.074-.459,1.078-.455,1.082.663s-.051,2.239.019,3.352a1.36,1.36,0,0,1-.88,1.454,47.067,47.067,0,0,1-16.786,5.179A46.74,46.74,0,0,1,22.83,44.285c-1.771-.833-3.15-1.686-2.441-3.949" transform="translate(-3.882 -7.246)" fill="#676fb1"/>
        <path id="Trazado_176838" data-name="Trazado 176838" d="M26.115,88.565c-.455.21-.692.424-.344.988A30.893,30.893,0,0,0,39.836,101.87a11.543,11.543,0,0,0,4.576.753,23.735,23.735,0,0,1-8.919-.528,28.715,28.715,0,0,1-22.123-23.5c-.139-.823-.169-1.664-.277-2.493-.059-.453.105-.613.554-.634a48.351,48.351,0,0,0,7.833-1.225,19.981,19.981,0,0,0,.652,5.291c0,.539-.486.631-.8.851-2.855,1.968-2.747,5.247.238,7.028a5.888,5.888,0,0,0,3.07.872c.5,0,1.054-.152,1.482.282" transform="translate(-2.514 -14.267)" fill="#fecabd"/>
        <path id="Trazado_176839" data-name="Trazado 176839" d="M23.751,114.236C13.886,106.684,9.089,96.556,7.556,84.49c.792.128,1.452.28,2.119.331.57.044.532.5.634.823a31.859,31.859,0,0,0,11.369,15.932,32.766,32.766,0,0,0,6.471,3.744,4.612,4.612,0,0,0-1.861,3.653,1.12,1.12,0,0,1-.25.561,19.708,19.708,0,0,0-2.287,4.7" transform="translate(-1.452 -16.236)" fill="#fe8e71"/>
        <path id="Trazado_176840" data-name="Trazado 176840" d="M21.13,65.705a31.213,31.213,0,0,1-8.074,1.576c-.536.052-.568-.2-.541-.607a28.609,28.609,0,0,1,.62-4.137c.4-1.853-.159-2.532-2.053-2.531H10.033a30.738,30.738,0,0,1,2.81-6.165,35.186,35.186,0,0,1,3.881-5.454c.258-.3.452-.577.935-.3A57.805,57.805,0,0,0,26.165,51.8c.169.384-.065.673-.244.963a30.69,30.69,0,0,0-4.4,11.769,2.2,2.2,0,0,1-.393,1.175" transform="translate(-1.928 -9.219)" fill="#fe8e71"/>
        <path id="Trazado_176841" data-name="Trazado 176841" d="M23.77,66.615a27.449,27.449,0,0,1,2.445-9.126,38.246,38.246,0,0,1,2.591-4.781,65.332,65.332,0,0,0,8.358,1.806c1.168.136,2.338.263,3.578.4a3.111,3.111,0,0,1-.778,1.1A34.788,34.788,0,0,1,24.282,66.531a3.038,3.038,0,0,1-.512.084" transform="translate(-4.568 -10.129)" fill="#feb29c"/>
        <path id="Trazado_176842" data-name="Trazado 176842" d="M36.6,112.888c.605-.08.549.407.669.678a14.061,14.061,0,0,0,7.542,7.486,2.727,2.727,0,0,0,2.312.01,14.076,14.076,0,0,0,7.513-7.379c.132-.293.069-.928.626-.776.713.195,1.575.226,1.953,1.045a1.062,1.062,0,0,1-.389,1.3c-1.726,1.529-3.442,3.069-5.185,4.577-.86.744-1.713,1.444-1.533,2.772a.978.978,0,0,1-.41.927c-1.157.714-2.337,1.391-3.517,2.067a.457.457,0,0,1-.385.008c-1.182-.674-2.371-1.335-3.519-2.063a1.268,1.268,0,0,1-.45-1.232,2.218,2.218,0,0,0-.945-1.978c-1.771-1.53-3.521-3.084-5.269-4.641-.508-.454-1.211-.864-.881-1.719s1.268-.751,1.868-1.084" transform="translate(-6.659 -21.691)" fill="#676eb1"/>
        <path id="Trazado_176843" data-name="Trazado 176843" d="M55.862,127.133a5.078,5.078,0,0,0,1.451-2.873,1.192,1.192,0,0,1,.393-.815c1.683-1.465,3.353-2.944,5.1-4.483a14.787,14.787,0,0,1,1.934,7.73c0,.4-.217.443-.532.443-2.709,0-5.42,0-8.347,0" transform="translate(-10.735 -22.86)" fill="#8187ca"/>
        <path id="Trazado_176844" data-name="Trazado 176844" d="M3.912,72.623a5.786,5.786,0,0,1,3.9-5.515c.586-.184.787-.166.671.576a31.586,31.586,0,0,0,0,9.8c.12.766-.107.741-.679.556a5.791,5.791,0,0,1-3.891-5.416" transform="translate(-0.752 -12.877)" fill="#fecabd"/>
        <path id="Trazado_176845" data-name="Trazado 176845" d="M87.972,67.159a5.394,5.394,0,0,1,4.367,5.3A5.771,5.771,0,0,1,88.333,78.1c-.24.061-.7.329-.6-.295a48.3,48.3,0,0,0,.239-10.645" transform="translate(-16.856 -12.906)" fill="#fecabd"/>
        <path id="Trazado_176846" data-name="Trazado 176846" d="M35.335,127.133c-1.4.012-2.791.008-4.186.046-.5.014-.654-.165-.654-.66a15.355,15.355,0,0,1,1.614-6.963c.24-.477.408-.532.809-.154,1.066,1,2.167,1.963,3.255,2.941a28.377,28.377,0,0,0-.555,3.92,1.253,1.253,0,0,1-.284.87" transform="translate(-5.86 -22.897)" fill="#676eb1"/>
        <path id="Trazado_176847" data-name="Trazado 176847" d="M41.82,112.9a32.2,32.2,0,0,0,11.084-.025A10.745,10.745,0,0,1,47.6,118a.7.7,0,0,1-.607-.047A10.89,10.89,0,0,1,41.82,112.9" transform="translate(-8.036 -21.691)" fill="#fecabd"/>
        <path id="Trazado_176848" data-name="Trazado 176848" d="M4.227,41.047a2.548,2.548,0,0,1,2.541-2.619,2.6,2.6,0,0,1,2.672,2.62,2.682,2.682,0,0,1-2.621,2.6,2.621,2.621,0,0,1-2.592-2.6" transform="translate(-0.812 -7.384)" fill="#fecd70"/>
        <path id="Trazado_176849" data-name="Trazado 176849" d="M36.484,127.891a19.975,19.975,0,0,1,.4-4.2c.05-.294.074-.553.439-.586.932.721,1.864,1.392,1.955,2.769a3.764,3.764,0,0,0,1.2,2.021Z" transform="translate(-7.009 -23.656)" fill="#8187ca"/>
        <path id="Trazado_176850" data-name="Trazado 176850" d="M65.929,80.447c2.869-.736,5.921.134,7.3,2.081A4.149,4.149,0,0,1,72.1,88.563a7.507,7.507,0,0,1-8,.069c-2.53-1.682-2.892-4.269-.925-6.6.089-.106.162-.225.242-.338a2.674,2.674,0,0,0,2.518-1.251" transform="translate(-11.897 -15.409)" fill="#fe8d9d"/>
        <path id="Trazado_176851" data-name="Trazado 176851" d="M27.515,89.712A7.994,7.994,0,0,1,22.6,88.68c-2.956-1.99-2.988-5.418-.023-7.379.317-.209.637-.415.956-.622a9.229,9.229,0,0,1,5-.228,2.673,2.673,0,0,0,2.518,1.25c1.74,2.212,1.948,3.7.807,5.463a5.99,5.99,0,0,1-4.338,2.547" transform="translate(-3.914 -15.413)" fill="#fe8d9d"/>
        <path id="Trazado_176852" data-name="Trazado 176852" d="M47.446,82.95a6.189,6.189,0,0,1-4.381-1.906,1.57,1.57,0,0,1-.178-2.316,1.552,1.552,0,0,1,2.318.027c1.608,1.388,2.954,1.4,4.527.025a1.573,1.573,0,1,1,2.19,2.242,6.139,6.139,0,0,1-4.477,1.927" transform="translate(-8.159 -15.032)"/>
        <path id="Trazado_176853" data-name="Trazado 176853" d="M32.988,80.765c-1.428.46-2,.179-2.518-1.25.011-.836.006-1.671.04-2.506a1.584,1.584,0,0,1,1.617-1.671A1.511,1.511,0,0,1,33.628,77c-.073,1.272.49,2.673-.64,3.769" transform="translate(-5.855 -14.477)" fill="#010000"/>
        <path id="Trazado_176854" data-name="Trazado 176854" d="M66.116,79.515c-.529,1.433-1.09,1.712-2.519,1.251A6.339,6.339,0,0,1,63.12,76.2a1.556,1.556,0,0,1,2.941.6c.062.9.04,1.81.055,2.714" transform="translate(-12.084 -14.477)" fill="#010000"/>
      </g>
    </g>
  </g>
</svg>
