<svg xmlns="http://www.w3.org/2000/svg" xmlns:xlink="http://www.w3.org/1999/xlink" width="144" height="138" viewBox="0 0 144 138">
  <defs>
    <clipPath id="clip-path">
      <rect id="Rectángulo_44599" data-name="Rectángulo 44599" width="77.725" height="77.727" fill="none"/>
    </clipPath>
    <clipPath id="clip-path-2">
      <rect id="Rectángulo_44598" data-name="Rectángulo 44598" width="120.536" height="96.642" fill="none"/>
    </clipPath>
  </defs>
  <g id="Grupo_173473" data-name="Grupo 173473" transform="translate(1651 7085)">
    <rect id="Rectángulo_40797" data-name="Rectángulo 40797" width="144" height="138" transform="translate(-1651 -7085)" fill="#ffe891"/>
    <g id="Grupo_173472" data-name="Grupo 173472" transform="translate(0.065 2.016)">
      <g id="Grupo_173470" data-name="Grupo 173470" transform="translate(-1595.66 -7075.016)">
        <g id="Grupo_173467" data-name="Grupo 173467" transform="translate(0 0)" clip-path="url(#clip-path)">
          <path id="Trazado_176923" data-name="Trazado 176923" d="M39.312,0a3.2,3.2,0,0,1,1.164,1.238c.8,1.375,1.613,2.739,2.44,4.1a6.56,6.56,0,0,0,9.173,2.474c1.482-.81,2.948-1.653,4.427-2.469,1.417-.781,2.508-.127,2.537,1.5.034,1.9.028,3.795.13,5.688a6.425,6.425,0,0,0,5.973,6c1.917.105,3.841.1,5.762.135,1.575.031,2.223,1.127,1.466,2.51-.8,1.459-1.622,2.907-2.428,4.364a6.573,6.573,0,0,0,2.523,9.331c1.407.842,2.823,1.669,4.228,2.517,1.367.825,1.356,2.136-.022,2.964-1.406.845-2.82,1.673-4.228,2.516a6.578,6.578,0,0,0-2.49,9.339c.808,1.456,1.63,2.9,2.429,4.363a1.541,1.541,0,0,1-1.427,2.485c-1.921.041-3.845.031-5.763.132a6.425,6.425,0,0,0-6.023,6.028c-.1,1.893-.094,3.791-.129,5.688-.029,1.614-1.133,2.252-2.559,1.464-1.457-.8-2.9-1.63-4.362-2.431A6.547,6.547,0,0,0,42.9,72.4c-.877,1.445-1.729,2.906-2.607,4.35a1.544,1.544,0,0,1-2.867.015c-.891-1.466-1.756-2.948-2.649-4.414A6.557,6.557,0,0,0,25.6,69.92c-1.478.819-2.948,1.653-4.429,2.467-1.38.758-2.479.106-2.508-1.469-.036-1.9-.028-3.795-.129-5.688a6.415,6.415,0,0,0-6.079-6.051c-1.893-.1-3.792-.089-5.688-.127-1.527-.031-2.186-1.133-1.457-2.465.823-1.5,1.68-2.991,2.5-4.5a6.563,6.563,0,0,0-2.474-9.174c-1.358-.827-2.72-1.645-4.1-2.441A3.186,3.186,0,0,1,0,39.312V38.4a1.841,1.841,0,0,1,1.058-1.288C2.412,36.323,3.747,35.5,5.1,34.7a6.532,6.532,0,0,0,3.43-5.159,5.951,5.951,0,0,0-.642-3.3c-.654-1.313-1.411-2.571-2.116-3.857-.243-.444-.492-.884-.7-1.343A1.7,1.7,0,0,1,6.619,18.48c.833-.044,1.67-.042,2.5,0a32.834,32.834,0,0,0,3.783-.195,6.323,6.323,0,0,0,5.433-5.828c.088-1.92.095-3.838.141-5.757A1.7,1.7,0,0,1,21.106,5.1c1.43.7,2.812,1.5,4.186,2.3a6.58,6.58,0,0,0,6.228.622A6.293,6.293,0,0,0,34.367,5.6c.961-1.488,1.842-3.024,2.746-4.546A1.858,1.858,0,0,1,38.4,0Z" transform="translate(0 0)"/>
          <path id="Trazado_176924" data-name="Trazado 176924" d="M71.272,58.709c-1.176,0-2.212-.064-3.238.011a9.629,9.629,0,0,0-9.31,9.766c-.024.857,0,1.717,0,2.641a5.2,5.2,0,0,1-1.459-.706,11.642,11.642,0,0,0-4.928-1.82,9.449,9.449,0,0,0-8.859,4.054c-.565.772-1.018,1.626-1.516,2.446-.444.729-.434.727-.9-.03a25.9,25.9,0,0,0-1.922-2.994,9.63,9.63,0,0,0-11.862-2.47c-.918.476-1.815.993-2.724,1.488-.038.02-.1,0-.29,0,0-1.084.074-2.171-.012-3.245a9.6,9.6,0,0,0-9.733-9.168c-.859-.022-1.717,0-2.737,0,.464-.845.852-1.587,1.272-2.31a9.576,9.576,0,0,0,1.4-4.973,9.514,9.514,0,0,0-4.473-8.225,23.3,23.3,0,0,0-2.148-1.279c-.667-.346-.491-.534.029-.841A18.056,18.056,0,0,0,11.609,38.5a9.641,9.641,0,0,0,1.87-11.054c-.5-1.016-1.069-2-1.7-3.159.917,0,1.73.008,2.543,0a9.923,9.923,0,0,0,5.08-1.29,9.634,9.634,0,0,0,4.907-8.6c.019-.832,0-1.666,0-2.673.9.5,1.674.94,2.454,1.37a9.644,9.644,0,0,0,11.237-1.032A10.907,10.907,0,0,0,40.118,9.5,11.5,11.5,0,0,1,41.536,7.3a15.807,15.807,0,0,1,1.4,2.223,9.821,9.821,0,0,0,2.964,3.2,9.494,9.494,0,0,0,9.991.56c.918-.458,1.8-.979,2.826-1.537,0,.964-.015,1.794,0,2.624a9.712,9.712,0,0,0,9.961,9.913c.807.015,1.615,0,2.588,0L69.9,26.739a9.7,9.7,0,0,0,3.418,13.219c.648.393,1.29.8,1.952,1.164.444.245.592.4.028.706-.82.445-1.619.936-2.4,1.453a9.6,9.6,0,0,0-3.291,12.375c.492.985,1.05,1.938,1.657,3.053" transform="translate(-2.662 -2.626)" fill="#fe8649"/>
          <path id="Trazado_176925" data-name="Trazado 176925" d="M22.228,46.81A24.617,24.617,0,1,1,46.919,71.464,24.59,24.59,0,0,1,22.228,46.81" transform="translate(-7.994 -7.993)"/>
          <path id="Trazado_176926" data-name="Trazado 176926" d="M48.611,26.993A21.567,21.567,0,1,1,26.995,48.416,21.575,21.575,0,0,1,48.611,26.993" transform="translate(-9.709 -9.708)" fill="#fec265"/>
          <path id="Trazado_176927" data-name="Trazado 176927" d="M86.172,54.108a14.525,14.525,0,0,1-.168,2.5,1.577,1.577,0,0,1-1.673,1.583,1.517,1.517,0,0,1-1.352-1.9A15.83,15.83,0,0,0,80.52,45.38c-.178-.275-.384-.533-.559-.81a1.521,1.521,0,1,1,2.487-1.75,18.516,18.516,0,0,1,3.418,7.833,16.4,16.4,0,0,1,.306,3.455" transform="translate(-28.651 -15.156)"/>
          <path id="Trazado_176928" data-name="Trazado 176928" d="M74.744,39.607a1.487,1.487,0,0,1-1.513-1.472A1.535,1.535,0,0,1,74.75,36.57a1.552,1.552,0,0,1,1.52,1.494,1.5,1.5,0,0,1-1.525,1.543" transform="translate(-26.338 -13.152)" fill="#010100"/>
        </g>
      </g>
      <g id="Grupo_173471" data-name="Grupo 173471" transform="translate(-1640.065 -7057.718)">
        <g id="Grupo_173463" data-name="Grupo 173463" clip-path="url(#clip-path-2)">
          <path id="Trazado_176901" data-name="Trazado 176901" d="M120.536,86.346a2.764,2.764,0,0,1-1.855,1.19c-1.1.235-1.57-.459-1.882-1.324a4.441,4.441,0,0,1-.127-1.516c0-2.429.024-4.859-.009-7.288a6.725,6.725,0,0,0-3.321-5.978,16.973,16.973,0,0,0-10.929-2.863,13.584,13.584,0,0,0-4.59,1.387,18.736,18.736,0,0,1-13.611,1.191,36.053,36.053,0,0,1-3.8-1.555,13.7,13.7,0,0,0-11.4.192,18.9,18.9,0,0,1-17.523-.057c-2.443-1.229-5.056-1.26-7.7-1.149a18.061,18.061,0,0,0-5.336,1.756A17.617,17.617,0,0,1,23.3,70.2c-5.958-2.852-11.407-1.9-16.646,1.662A6.145,6.145,0,0,0,3.9,77.066c-.07,3.921-.134,7.847.009,11.764a12.555,12.555,0,0,0,12.554,12q16.3.011,32.593-.011,27.357-.008,54.714,0c5.249,0,9.03-2.425,11.545-6.956a5.936,5.936,0,0,1,.674-1.1,1.642,1.642,0,0,1,2.372-.327c1.114.944,1.277,1.485.653,2.735-2.988,5.985-7.807,9.423-14.515,9.511-12.785.165-25.575.057-38.362.059q-24.713,0-49.425-.006A16.377,16.377,0,0,1,.372,91.7,15.185,15.185,0,0,1,0,88.315c.011-3.647-.022-7.3.011-10.943a10.463,10.463,0,0,1,5.825-9.623c3.841-2.133,7.828-3.557,12.321-3.077a18,18,0,0,1,6.174,1.763c4.938,2.46,9.754,2.011,14.516-.508a1.022,1.022,0,0,0,.541-.692,20.885,20.885,0,0,1,3.567-6.825.707.707,0,0,0,.026-1.006c-4.712-6.991-6.045-14.837-5.745-23.069a6.766,6.766,0,1,1,13.508.77,27.44,27.44,0,0,0,1.962,12.071,15.882,15.882,0,0,0,.892,1.78c1.085,1.855,1.432,1.966,3.461,1.381.783-.226.375-.79.332-1.149a24.87,24.87,0,0,1,.76-9.551A24.093,24.093,0,0,1,82.8,22.2a28.468,28.468,0,0,1,25.857,22.413,24.53,24.53,0,0,1-3.6,19.1c-.151.227-.285.465-.421.7-.013.023.018.07.058.206,3.553-.024,6.7,1.391,9.8,3.02a10.57,10.57,0,0,1,5.857,7.623c.019.1.127.173.193.258Z" transform="translate(0 -8.126)"/>
          <path id="Trazado_176902" data-name="Trazado 176902" d="M68.377,94.842a13.8,13.8,0,0,1,8.115,1.282,18.218,18.218,0,0,0,16.734.022,13.813,13.813,0,0,1,12.473-.027,18.463,18.463,0,0,0,16.848,0,13.955,13.955,0,0,1,12.582.078q1.323.63,2.614,1.329a6.941,6.941,0,0,1,3.858,6.507c.009,2.55.046,5.1-.016,7.648a2.128,2.128,0,0,0,1.694,2.438,33.123,33.123,0,0,1-.314,4.894,1.856,1.856,0,0,0-2.489,1.112c-2.552,5.213-6.756,7.68-12.538,7.671q-26.6-.039-53.2-.011c-.391,0-.782-.03-1.173-.047a2.544,2.544,0,0,1-1.183-1.258,41.215,41.215,0,0,1-4.1-11.47,62.535,62.535,0,0,1-1.151-15.782,23.89,23.89,0,0,1,.423-3.379c.088-.5.248-.908.815-1" transform="translate(-24.598 -34.704)" fill="#a2ddfd"/>
          <path id="Trazado_176903" data-name="Trazado 176903" d="M8.363,59.72a9.176,9.176,0,0,1,9.2-8.939c9.306.065,15.164,5.642,17.031,14.3a3.444,3.444,0,0,1-1.21,3.592,3.339,3.339,0,0,1-3.736.567,12.108,12.108,0,0,0-6.669-.774,54.222,54.222,0,0,1-5.5.439A9.043,9.043,0,0,1,8.363,59.72" transform="translate(-3.066 -18.62)"/>
          <path id="Trazado_176904" data-name="Trazado 176904" d="M18.6,10.179c-1.7-.483-2.115-1.131-1.742-2.824a8.642,8.642,0,0,1,6.172-6.9,8.783,8.783,0,0,1,9.215,2.269c6.665,6.618,6.742,15.005,1.821,22.345-1.489,2.221-5.026,2.084-6.036-.358-1.324-3.2-3.831-5.17-6.356-7.212-1.294-1.046-1.433-1.512-.865-2.894a1.594,1.594,0,0,1,2.567-.533c2.806,2.013,5.569,4.1,7.263,7.239.158.294.194.793.609.778.372-.014.479-.473.645-.773a12.662,12.662,0,0,0-2.2-15.753,5.368,5.368,0,0,0-5.517-1.457A5.043,5.043,0,0,0,20.6,8.25c-.322,1.515-.738,1.89-2,1.928" transform="translate(-6.135 0)"/>
          <path id="Trazado_176905" data-name="Trazado 176905" d="M19.682,12.23a2.279,2.279,0,0,0,1.73-2.091,5.09,5.09,0,0,1,3.618-4.232A5.509,5.509,0,0,1,30.71,7.136c5.181,4.713,5.825,12.163,1.469,17.97a13.684,13.684,0,0,0-3.193-4.877,54.392,54.392,0,0,0-4.3-3.647c-1.072-.861-1.68-.821-2.8.075-.97-1.359-2.139-2.619-2.209-4.428" transform="translate(-7.217 -2.051)" fill="#7acdf9"/>
          <path id="Trazado_176906" data-name="Trazado 176906" d="M45.828,94.863c-.568.3-.415.868-.5,1.351a50.379,50.379,0,0,0-.232,11.913,51.837,51.837,0,0,0,2.151,11.341,29.714,29.714,0,0,0,3.769,8.288c-3.411.016-6.821.043-10.233.046q-10.825.011-21.65,0c-8.063-.012-13.547-5.528-13.55-13.611q0-5.06,0-10.119A7.082,7.082,0,0,1,9.52,97.481c3.27-1.825,6.649-3.152,10.506-2.683a13.628,13.628,0,0,1,4.5,1.264,18.194,18.194,0,0,0,17.155-.025,11.215,11.215,0,0,1,4.149-1.174" transform="translate(-2.049 -34.726)" fill="#7acdf9"/>
          <path id="Trazado_176907" data-name="Trazado 176907" d="M112.776,35.785c6.4,4.464,12.539,9.245,17.732,15.119a129.555,129.555,0,0,1,10.913,14.1,1.466,1.466,0,0,1-.021,1.836c-1.816,3.184-4.907,4.4-8.131,5.436-.144-1.2.21-2.444-.317-3.628a3.992,3.992,0,0,1-.589-1.735,2.214,2.214,0,0,1,.572-1.007,4.15,4.15,0,0,0-5.885-5.763,1.582,1.582,0,0,0-.579,2.058c.4.719,1.115.885,2.037.434.6-.294,1.173-.712,1.82-.1.629.593.557,1.182-.267,2.117-.531.357-1.06.1-1.578-.026a3.742,3.742,0,0,0-4.129,1.175A4.081,4.081,0,0,0,124,70.225c.231.538.566,1.027.765,1.577.081.225.25.573-.27.518a8.477,8.477,0,0,1-1.315-.448,19.744,19.744,0,0,0-11.749-2.156c-.583.075-.7-.419-.893-.771a25.731,25.731,0,0,1-3.042-10.415,34.011,34.011,0,0,1-.22-3.868,5.137,5.137,0,0,1,.391-2.061c.229-.358.627-.431.983-.576a3.828,3.828,0,0,0,2.423-4.889,3.054,3.054,0,0,1-.259-1.244,1.406,1.406,0,0,1,.7-.758,1.3,1.3,0,0,1,1.53.136,1.147,1.147,0,0,1,.329,1.378c-.08.22-.208.42-.291.638-.289.759-.325,1.488.482,1.945a1.431,1.431,0,0,0,1.95-.536,3.863,3.863,0,0,0,.6-4.172,3.974,3.974,0,0,0-3.377-2.535c-.783-.094-1.551.151-2.331.072-.467-.215-.464-.621-.333-1a26.3,26.3,0,0,1,2.144-4.956c.118-.2.277-.389.564-.317" transform="translate(-39.331 -13.116)" fill="#fed3bd"/>
          <path id="Trazado_176908" data-name="Trazado 176908" d="M119.036,28.627a21.683,21.683,0,0,1,14.157.683A24.644,24.644,0,0,1,149.106,52.5a19.114,19.114,0,0,1-1.251,6.661c-1.983-2.866-4.042-5.519-6.077-8.192-6.435-8.457-14.429-15.2-23.095-21.225a.787.787,0,0,1-.14-.177c-.176-.492.252-.669.493-.944" transform="translate(-43.452 -10.174)" fill="#8daee1"/>
          <path id="Trazado_176909" data-name="Trazado 176909" d="M91.321,85.106a13.763,13.763,0,0,1-11.476.142c-3.609-1.641-7.25-2.71-11.406-2.164a16.971,16.971,0,0,1,4.97-6.868,17.294,17.294,0,0,1,9.1-4.036c.459-.06.865-.178,1.076.505a28.2,28.2,0,0,0,7.583,12.107,1.425,1.425,0,0,1,.156.313" transform="translate(-25.095 -26.45)" fill="#fed3bd"/>
          <path id="Trazado_176910" data-name="Trazado 176910" d="M74.8,57.236a22.211,22.211,0,0,0-4.943,3.092c-.6.518-.709-.042-.913-.361a29.253,29.253,0,0,1-3.922-10.22,40.856,40.856,0,0,1-.712-9.462c.076-2.179,1.441-3.665,3.334-3.6,1.935.069,3.2,1.57,3.139,3.766a30.3,30.3,0,0,0,2.684,14.378c.389.806.868,1.57,1.332,2.4" transform="translate(-23.572 -13.452)" fill="#febe9d"/>
          <path id="Trazado_176911" data-name="Trazado 176911" d="M103.719,57.833a27.733,27.733,0,0,0,2.949,16.249,2.137,2.137,0,0,0,.632.965c-1.41.686-2.474.33-3.594-.8-6.466-6.5-9.025-14.149-7.042-23.193a5.056,5.056,0,0,1,.293-.749c.579.169.437.674.462,1.065a6.274,6.274,0,0,0,5,5.991c.445.111.947.087,1.3.468" transform="translate(-35.204 -18.447)" fill="#febe9d"/>
          <path id="Trazado_176912" data-name="Trazado 176912" d="M104.268,55.99a6.57,6.57,0,0,1-6.6-6.623c-.006-.308.064-.632-.164-.9a4.789,4.789,0,0,1,.635-1.65,5.092,5.092,0,0,1,6.059-.949,2.017,2.017,0,0,1,1.08.864c-.264,1.614.772,2.231,2.046,2.666,1.579,3.221.291,6-3.058,6.593" transform="translate(-35.754 -16.604)" fill="#eca0aa"/>
          <path id="Trazado_176913" data-name="Trazado 176913" d="M141.78,83.291c.225.976.839,1.8.989,2.829a5.5,5.5,0,0,1-.279,2.583,12.849,12.849,0,0,1-8.779.042c.11-.782-.526-1.269-.763-1.916a4.969,4.969,0,0,1-.47-2.808c.616-2.8,2.644-3.992,5.48-3.239.4.106.778.391,1.222.151a.689.689,0,0,1,.158.531c.063,1.274.483,1.681,1.773,1.727.227.008.462-.056.668.1" transform="translate(-48.553 -29.54)" fill="#eca0aa"/>
          <path id="Trazado_176914" data-name="Trazado 176914" d="M105.534,42.21c-2.362-1.706-4.385-1.64-6.688.216-.281.226-.292-.022-.336-.2a19.25,19.25,0,0,1,7.546-9.258.768.768,0,0,1,1.034-.016c.81.6,1.65,1.156,2.477,1.73a27.724,27.724,0,0,0-2.507,5.52.47.47,0,0,0,.18.615c-.31.782-1.033,1.057-1.706,1.395" transform="translate(-36.122 -12.012)" fill="#febe9d"/>
          <path id="Trazado_176915" data-name="Trazado 176915" d="M118.7,29.138c0,.4-.364.611-.493.944-.25-.146-.73-.271-.593-.552.17-.348.668-.4,1.086-.391" transform="translate(-43.119 -10.684)" fill="#658cc6"/>
          <path id="Trazado_176916" data-name="Trazado 176916" d="M143,122a19.35,19.35,0,0,1,7.58,1.825c1.529.732,1.759,2.347.488,3.139a2.327,2.327,0,0,1-2.344-.082,13.151,13.151,0,0,0-6-1.314,14.577,14.577,0,0,0-6.1,1.383c-1.692.8-2.927.01-2.822-1.7a1.438,1.438,0,0,1,.876-1.282A19.723,19.723,0,0,1,143,122" transform="translate(-49.061 -44.735)" fill="#7acdf9"/>
          <path id="Trazado_176917" data-name="Trazado 176917" d="M90.016,120.506a16.9,16.9,0,0,1-7.783-1.673,1.943,1.943,0,0,1-1.056-2.613c.408-.9,1.383-1.141,2.517-.618a14.37,14.37,0,0,0,12.439.057c1.25-.561,2.2-.381,2.63.547a1.986,1.986,0,0,1-1.13,2.692,21.21,21.21,0,0,1-4.449,1.388,13.861,13.861,0,0,1-3.167.22" transform="translate(-29.7 -42.289)" fill="#7acdf9"/>
          <path id="Trazado_176918" data-name="Trazado 176918" d="M33.057,68.03c-3.376-1.671-6.916-1.184-10.45-.826-.934.1-1.871.189-2.808.208a5.506,5.506,0,0,1-5.863-5.4,5.618,5.618,0,0,1,5.574-5.649c6.974-.054,12.023,3.716,13.625,11.366.014.067-.035.146-.077.3" transform="translate(-5.109 -20.666)" fill="#a2ddfd"/>
          <path id="Trazado_176919" data-name="Trazado 176919" d="M38.154,119.418a16.221,16.221,0,0,1,7.421,1.6c1.253.551,1.762,1.5,1.353,2.454-.471,1.1-1.553,1.386-2.873.78a14.54,14.54,0,0,0-12.348.023c-1.288.557-2.227.269-2.669-.764-.411-.962,0-1.81,1.253-2.409a16.273,16.273,0,0,1,7.864-1.687" transform="translate(-10.591 -43.782)" fill="#a2ddfd"/>
          <path id="Trazado_176920" data-name="Trazado 176920" d="M143.36,80.278a1.875,1.875,0,0,1-2.232-.244,1.83,1.83,0,0,1-.367-2.115c.478-.5.934-1.056.333-1.721-.561-.623-1.1-.21-1.649.143a1.7,1.7,0,0,1-2.388-.4,1.8,1.8,0,0,1,.318-2.426,4.5,4.5,0,0,1,6.675,5.963c-.208.281-.459.53-.689.794" transform="translate(-50.133 -26.527)" fill="#010000"/>
          <path id="Trazado_176921" data-name="Trazado 176921" d="M109.53,46.739a6.716,6.716,0,0,1,1.706-1.395c3.17-.795,5.592.453,6.221,3.246a4.2,4.2,0,0,1-1.29,4.17,1.619,1.619,0,0,1-2.252.073,1.639,1.639,0,0,1-.483-2.113c.29-.645,1.087-1.241.205-1.926-.8-.623-1.346.169-1.947.54-1.919-.016-2.586-.816-2.16-2.6" transform="translate(-40.117 -16.541)"/>
          <path id="Trazado_176922" data-name="Trazado 176922" d="M124.684,70.961a5.582,5.582,0,0,1-5.407-5.54c0-1.261.653-2.073,1.7-2.1.994-.03,1.707.7,1.83,1.887.16,1.529.656,2.036,2.181,2.232q2.005.257,1.879,1.909c-.08,1.051-.906,1.662-2.182,1.616" transform="translate(-43.737 -23.217)"/>
        </g>
      </g>
    </g>
  </g>
</svg>
