<svg xmlns="http://www.w3.org/2000/svg" xmlns:xlink="http://www.w3.org/1999/xlink" width="144" height="138" viewBox="0 0 144 138">
  <defs>
    <clipPath id="clip-path">
      <rect id="Rectángulo_44596" data-name="Rectángulo 44596" width="68.585" height="68.645" fill="none"/>
    </clipPath>
    <clipPath id="clip-path-2">
      <rect id="Rectángulo_44595" data-name="Rectángulo 44595" width="78.646" height="107.42" fill="none"/>
    </clipPath>
  </defs>
  <g id="Grupo_173460" data-name="Grupo 173460" transform="translate(1651 7243)">
    <g id="Grupo_165391" data-name="Grupo 165391" transform="translate(-2188 -8531)">
      <rect id="Rectángulo_40797" data-name="Rectángulo 40797" width="144" height="138" transform="translate(537 1288)" fill="#ffe891"/>
    </g>
    <g id="Grupo_173458" data-name="Grupo 173458" transform="translate(-1590.371 -7220.485)" clip-path="url(#clip-path)">
      <path id="Trazado_176855" data-name="Trazado 176855" d="M10.823,57.914c-.753.44-1.084.409-1.639-.194A33.542,33.542,0,0,1,.227,38.336,33.983,33.983,0,0,1,19.3,3.485,34.268,34.268,0,0,1,67.653,26.368a31.454,31.454,0,0,1,.809,5.149c.008.105-.017.228.124.274v5.226a34.211,34.211,0,0,1-.607,4.684A34.027,34.027,0,0,1,60.772,56.4a34.8,34.8,0,0,1-8.9,7.616,33.7,33.7,0,0,1-12.733,4.458c-.766.106-1.547.042-2.313.175H31.731a14.387,14.387,0,0,0-2.6-.391,34.418,34.418,0,0,1-16.64-7.417c-.554-.45-.6-.836-.236-1.521a.948.948,0,0,1,1.478-.254c.663.453,1.272.978,1.93,1.442A31.913,31.913,0,0,0,30.5,66.209,31.421,31.421,0,0,0,49.165,62.8,31.815,31.815,0,0,0,61.492,51.38a23.834,23.834,0,0,0,1.992-3.708A29.891,29.891,0,0,0,66.228,37.5,31.53,31.53,0,0,0,61.586,17.46a31.916,31.916,0,0,0-13.639-12.2A31.451,31.451,0,0,0,36.739,2.336,31.449,31.449,0,0,0,19.515,5.818,31.875,31.875,0,0,0,6.464,18.273,31.248,31.248,0,0,0,2.469,29.851a32.2,32.2,0,0,0,.987,13.516,35.181,35.181,0,0,0,1.592,4.262,29.648,29.648,0,0,0,4.008,6.609c.565.717,1.17,1.4,1.783,2.078.55.608.529,1.11-.016,1.6" transform="translate(0 0)"/>
      <path id="Trazado_176856" data-name="Trazado 176856" d="M65.061,61.674a25.481,25.481,0,0,1-3.475,5.92A31.489,31.489,0,0,1,42,79.928a31.791,31.791,0,0,1-26.28-6.311q-.267-.2-.529-.412a1.024,1.024,0,0,0-1.494.047l-1.431-1.4a1.188,1.188,0,0,0-.245-1.661,31.6,31.6,0,0,1-5.456-8.023c-.075-.158-.126-.328-.189-.492.326-.046.411.221.526.423A33.317,33.317,0,0,0,23.72,76.677a33.02,33.02,0,0,0,8.7,2.088,33.086,33.086,0,0,0,23.169-6.479,33.891,33.891,0,0,0,8.887-10.07c.137-.234.2-.574.59-.542" transform="translate(-1.44 -13.936)" fill="#e5485d"/>
      <path id="Trazado_176857" data-name="Trazado 176857" d="M64.195,48.31a6.307,6.307,0,0,0-1.012,1.55,31.758,31.758,0,0,1-6.074,7.321A32.41,32.41,0,0,1,43.59,64.548a37.28,37.28,0,0,1-6.28,1.075,32.209,32.209,0,0,1-9.853-.726,33.085,33.085,0,0,1-18.3-11.354,33.506,33.506,0,0,1-3.414-5.006,1.117,1.117,0,0,0-.235-.228,29.193,29.193,0,0,1-2.658-9.065A30.952,30.952,0,0,1,4.3,24.469C7.9,14.457,14.721,7.566,24.835,4.254a30.948,30.948,0,0,1,27.6,3.607A31.226,31.226,0,0,1,66.624,29.25a31.531,31.531,0,0,1-2.242,18.708c-.053.121-.125.235-.188.351" transform="translate(-0.574 -0.571)" fill="#fe5876"/>
      <path id="Trazado_176858" data-name="Trazado 176858" d="M56.087,16.925c.392.534.986.9,1.279,1.519a3.158,3.158,0,0,0,.89,2.267A26.167,26.167,0,0,1,63.224,33.6a26.481,26.481,0,0,1-2.25,13.95,2.245,2.245,0,0,1-.288.526c-.694.762-1.169,1.68-1.783,2.5a27.694,27.694,0,0,1-18.2,11.081,29.647,29.647,0,0,1-3.321.322c-.26.014-.665.152-.73-.337a2.345,2.345,0,0,0,.646-1.9c-.025-.49,0-.981-.005-1.471a2.555,2.555,0,0,0-.067-.664c-.118-.436-.307-.81-.838-.8-.494.009-.679.36-.792.772a2.752,2.752,0,0,0-.077.729c0,.535.012,1.07,0,1.605a2.2,2.2,0,0,0,.622,1.707c.012.492-.385.365-.622.357a28.027,28.027,0,0,1-3.328-.31A27.928,27.928,0,0,1,13.237,49.625,10.375,10.375,0,0,0,12.151,48.1a20.815,20.815,0,0,1-1.972-5.387,25.139,25.139,0,0,1-.747-6.562,27.263,27.263,0,0,1,2.337-10.577A26.982,26.982,0,0,1,33.03,9.754,26.629,26.629,0,0,1,48.912,12.6a24.776,24.776,0,0,1,5.276,3.64,2.045,2.045,0,0,0,1.9.683" transform="translate(-2.13 -2.152)" fill="#e3edf8"/>
      <path id="Trazado_176859" data-name="Trazado 176859" d="M55.541,16.395a1.165,1.165,0,0,1-1.615-.19,25.878,25.878,0,0,0-14.14-6.728A26.112,26.112,0,0,0,18.6,15.527,25.945,25.945,0,0,0,9.392,31.945a25.638,25.638,0,0,0,2.344,15.541,33.281,33.281,0,0,0,5.641,7.6,26.6,26.6,0,0,0,14.989,7.239A26.578,26.578,0,0,0,58.45,49.995c.519-.831,1.042-1.661,1.533-2.51a24.5,24.5,0,0,0,2.434-8.215,26.383,26.383,0,0,0-3.052-16.155,24.645,24.645,0,0,0-2.435-3.675,1.153,1.153,0,0,1-.112-1.526c.753-.484,1.149-.425,1.705.29A27.939,27.939,0,0,1,64.56,33.874,28.667,28.667,0,0,1,47.151,62.451a27,27,0,0,1-14.724,2.066C21.151,62.918,13.269,56.778,9,46.27a28.481,28.481,0,0,1,6.738-30.9,27.819,27.819,0,0,1,16.037-7.9,28.334,28.334,0,0,1,23.453,7.2c.708.627.753.928.31,1.731" transform="translate(-1.583 -1.622)"/>
      <path id="Trazado_176860" data-name="Trazado 176860" d="M29.262,34.368a1.032,1.032,0,0,1-1.492-.142c-1.847-1.652-3.708-3.287-5.546-4.949a3.022,3.022,0,1,1,4.032-4.495q5.709,5.068,11.4,10.154a1.88,1.88,0,0,0,2.422-.057c1.834-1.86,3.649-3.738,5.506-5.576a3,3,0,0,1,5.05,1.36,2.95,2.95,0,0,1-.82,2.949c-1.979,2-3.934,4.023-5.937,6-.6.593-.43,1.419-.8,2.072-.1.176.212.307.358.43q5,4.2,10,8.395a6.9,6.9,0,0,1,.553.487,1,1,0,0,1-1.31,1.5c-.217-.155-.415-.338-.62-.51q-4.948-4.155-9.89-8.318a.653.653,0,0,0-.906-.093,4.408,4.408,0,0,1-6.518-2.759,1.543,1.543,0,0,0-.5-.831c-1.027-.893-2.04-1.8-3.055-2.711-.676-.605-.728-.879-.341-1.683a.963.963,0,0,1,1.439-.214c.678.438,1.181,1.084,1.834,1.553.276.194.438.721.81.56s.581-.645.833-1.006c.085-.122-.009-.255-.1-.36-.145-.168-.313-.314-.471-.471q-2.831-2.5-5.643-5.02c-1.425-1.283-2.886-2.523-4.282-3.838a4.154,4.154,0,0,0-.56-.475.849.849,0,0,0-1.159.055.837.837,0,0,0,.054,1.207c.471.472.978.911,1.485,1.347,1.385,1.193,2.729,2.431,4.107,3.632.778.678.773,1.306.067,1.806" transform="translate(-4.77 -5.405)"/>
      <path id="Trazado_176861" data-name="Trazado 176861" d="M61.365,59.253a24.716,24.716,0,0,1-5.487,7.675,26.557,26.557,0,0,1-15.861,7.443A26.911,26.911,0,0,1,13.162,59.446a.867.867,0,0,1-.044-.192,20.7,20.7,0,0,1,1.736,2.424,28.329,28.329,0,0,0,5.528,5.639,27.342,27.342,0,0,0,11.027,5.11,32.829,32.829,0,0,0,4.93.625c.212.013.45.072.634-.115a.348.348,0,0,1,.538,0,1.555,1.555,0,0,0,1.1.108,30.545,30.545,0,0,0,7.608-1.476,28.059,28.059,0,0,0,9.118-5.259,30.909,30.909,0,0,0,5.685-6.663c.1-.147.155-.326.342-.393" transform="translate(-2.964 -13.39)" fill="#d4dff1"/>
      <path id="Trazado_176862" data-name="Trazado 176862" d="M34.654,37.679c-.536-.461-1.084-.908-1.6-1.387a1.14,1.14,0,0,0-1.608-.108c-.558-.372-.917-1-1.589-1.224.528-.7.515-1.058-.154-1.658-1.74-1.563-3.495-3.108-5.249-4.656-.372-.329-.773-.645-.723-1.2a1,1,0,0,1,1.711-.621c.943.781,1.841,1.616,2.755,2.431q3.716,3.311,7.43,6.626a3.748,3.748,0,0,1,.268.3,2.306,2.306,0,0,1-1.237,1.505" transform="translate(-5.361 -5.997)" fill="#405b6c"/>
      <path id="Trazado_176863" data-name="Trazado 176863" d="M44.257,75.438h-.538a1.072,1.072,0,0,1-.738-1.122c-.01-.961-.018-1.921,0-2.881.015-.7.392-1.1.987-1.111.623-.01,1.008.4,1.022,1.145.019.937-.005,1.876.008,2.814a1.185,1.185,0,0,1-.744,1.156" transform="translate(-9.711 -15.892)" fill="#020202"/>
      <path id="Trazado_176864" data-name="Trazado 176864" d="M44.989,14.4c0,.511.026,1.024-.007,1.533a1,1,0,0,1-1.99-.011q-.049-1.565,0-3.132a.929.929,0,0,1,.966-.979.978.978,0,0,1,1.031.99A1.275,1.275,0,0,1,45,12.93q0,.734,0,1.467h-.007" transform="translate(-9.71 -2.668)" fill="#020202"/>
      <path id="Trazado_176865" data-name="Trazado 176865" d="M14.343,43.057c.489,0,.979-.025,1.466.006a.975.975,0,0,1,1.022,1,.963.963,0,0,1-1.018,1q-1.533.049-3.067,0a.966.966,0,0,1-1.022-1,1,1,0,0,1,1.019-1.009,1.276,1.276,0,0,1,.133-.005h1.467v0" transform="translate(-2.65 -9.728)" fill="#020202"/>
      <path id="Trazado_176866" data-name="Trazado 176866" d="M72.795,43.057c.511,0,1.024-.025,1.533.006a.977.977,0,0,1,1.025,1,.967.967,0,0,1-1.017,1c-1.021.033-2.045.033-3.066,0a.963.963,0,0,1-1.024-1,.974.974,0,0,1,1.016-1.005c.509-.033,1.022-.007,1.533-.007" transform="translate(-15.875 -9.728)" fill="#020202"/>
      <path id="Trazado_176867" data-name="Trazado 176867" d="M48.775,37.217c1.483-1.509,2.962-3.023,4.453-4.523a1.037,1.037,0,0,1,1.44-.084,1.018,1.018,0,0,1,.005,1.445c-1.546,1.571-3.115,3.12-4.676,4.677a3.064,3.064,0,0,1-1.223-1.515" transform="translate(-11.022 -7.312)" fill="#405b6b"/>
      <path id="Trazado_176868" data-name="Trazado 176868" d="M41.19,43.79a2.4,2.4,0,1,1,4.789,0,3.249,3.249,0,0,1-4.789,0" transform="translate(-9.308 -9.319)" fill="#fe5875"/>
      <path id="Trazado_176869" data-name="Trazado 176869" d="M41.191,44.536a6.178,6.178,0,0,0,1.779.824,3.428,3.428,0,0,0,2.662-.632,3.146,3.146,0,0,1,.348-.191,2.4,2.4,0,0,1-4.789,0" transform="translate(-9.309 -10.064)" fill="#e5485d"/>
      <path id="Trazado_176870" data-name="Trazado 176870" d="M37.846,40.492l1.237-1.505c.151.128.295.265.455.38.39.279.372.546,0,.826a1.4,1.4,0,0,0-.225.243c-.692.874-.692.875-1.471.056" transform="translate(-8.553 -8.81)" fill="#2d4355"/>
      <path id="Trazado_176871" data-name="Trazado 176871" d="M48.58,38.636A14.1,14.1,0,0,1,49.8,40.151c-.655.77-.655.77-1.3.074l-.046-.048c-.745-.789-.745-.789.123-1.54" transform="translate(-10.828 -8.731)" fill="#2d4355"/>
    </g>
    <g id="Grupo_173449" data-name="Grupo 173449" transform="translate(-1634.724 -7228)">
      <g id="Grupo_173447" data-name="Grupo 173447" clip-path="url(#clip-path-2)">
        <path id="Trazado_176831" data-name="Trazado 176831" d="M63.017,94.171c.649,1.147.584,1.645-.354,2.559a34.937,34.937,0,0,1-4.988,4.1,1.113,1.113,0,0,0-.593,1.175c.093,1.071,0,2.158.08,3.231A2.142,2.142,0,0,1,56.1,107.42H22.547a2.131,2.131,0,0,1-1.061-2.195c.067-.868-.076-1.759.051-2.615a1.951,1.951,0,0,0-1-2.115C12.005,94.347,6.969,85.873,4.308,75.852a48.012,48.012,0,0,1-1.433-8.978,1.832,1.832,0,0,0-.526-1.183A8.818,8.818,0,0,1,3.761,52.468a2.367,2.367,0,0,0,.885-1.428,39.239,39.239,0,0,1,8.028-14.179A2.509,2.509,0,0,0,13.383,35c-.053-1.745-.041-3.494,0-5.24a1.032,1.032,0,0,0-.742-1.171c-1.648-.65-3.267-1.373-4.943-2.087a1.458,1.458,0,0,0,.9,2.041,5.613,5.613,0,0,1,3.008,6.489,5.863,5.863,0,0,1-5.6,4.385A5.778,5.778,0,0,1,3.474,28.449c.38-.191,1.108-.129.963-.856-.2-.982.545-2.106-.641-2.951A6.231,6.231,0,0,1,4.778,13.88c2.653-1.225,5.365-2.323,8.052-3.477a1.592,1.592,0,0,1,2.193.564,1.437,1.437,0,0,1-.276,2.226,6.424,6.424,0,0,1-1.4.711q-3.183,1.351-6.357,2.724a3.867,3.867,0,0,0-1.812,1.2A2.818,2.818,0,0,0,6.4,22.187C8.8,23.3,11.265,24.3,13.7,25.351q11.118,4.777,22.253,9.518a7.93,7.93,0,0,0,5.811.365c5.05-2.041,10.021-4.265,15.032-6.4q7.035-2.991,14.058-6.013c.514-.22,1.027-.442,1.527-.691a2.838,2.838,0,0,0,.01-5.161c-2.788-1.291-5.637-2.441-8.458-3.655Q53.98,9.032,44.012,4.776a21.3,21.3,0,0,0-3.248-1.168,7.094,7.094,0,0,0-4.306.433q-7.544,3.2-15.076,6.419a7.635,7.635,0,0,1-1.671.585,1.426,1.426,0,0,1-1.761-1.16,1.733,1.733,0,0,1,1.062-2.122c5.416-2.3,10.815-4.631,16.235-6.917a10.475,10.475,0,0,1,8.445.089Q58.633,7.292,73.546,13.711A5.993,5.993,0,0,1,77.462,19.6a6.01,6.01,0,0,1-3.915,5.787c-2.455,1.074-4.912,2.146-7.4,3.141a1.219,1.219,0,0,0-.885,1.391c.048,1.746.043,3.494,0,5.24a2.144,2.144,0,0,0,.607,1.583,37.687,37.687,0,0,1,8.247,14.86,1.289,1.289,0,0,0,.638.753,8.854,8.854,0,0,1,1.585,13.286,2.146,2.146,0,0,0-.575,1.377,47.3,47.3,0,0,1-8.232,23.929c-.8,1.16-1.186,1.3-2.447.911a1.609,1.609,0,0,1-.484-2.636A43.491,43.491,0,0,0,69.751,79.3a50.16,50.16,0,0,0,2.369-9.864c.04-.271.142-.669-.2-.717a1.827,1.827,0,0,0-1.726.508,2.76,2.76,0,0,0-.391.966,32.122,32.122,0,0,1-7.627,12.263,30.746,30.746,0,0,1-9.317,6.493.487.487,0,0,0-.343.349,5.726,5.726,0,0,1,1.663,3.438c.229,1.058,1.057,1.873,1.482,2.875.822,1.941.862,1.949,2.487.591.856-.716,1.675-1.478,2.529-2.2a1.493,1.493,0,0,1,2.34.166" transform="translate(0 0)"/>
        <path id="Trazado_176832" data-name="Trazado 176832" d="M42.868,36.36a7.339,7.339,0,0,1-5.795-.236Q23.9,30.5,10.742,24.848c-1.12-.481-2.241-.964-3.363-1.441a3.15,3.15,0,0,1,0-5.893c2.53-1.083,5.068-2.154,7.592-3.251,1.251-.543,1.5-1.126,1.079-2.386a11.174,11.174,0,0,0,2.927-1.082c.872,1.084,1.274,1.2,2.605.63q7.484-3.187,14.961-6.389c.284-.12.584-.2.877-.3.254.355.044.673-.1.978-2.823,6.018-2.675,12.164-.8,18.383a33.723,33.723,0,0,0,5.655,10.91c.307.4.755.753.69,1.353" transform="translate(-1.027 -0.91)" fill="#676fb1"/>
        <path id="Trazado_176833" data-name="Trazado 176833" d="M75.373,110.4a1.737,1.737,0,0,0-2.513.263,31.054,31.054,0,0,1-4.163,3.5,22.669,22.669,0,0,0-2.415-4.876,1.831,1.831,0,0,1-.139-.8,4.671,4.671,0,0,0-1.841-3.161,33.021,33.021,0,0,0,7.27-4.365A31.254,31.254,0,0,0,81.9,86.265c.34-1.019.759-1.612,1.866-1.607a5.807,5.807,0,0,0,1.045-.2,19.267,19.267,0,0,1-.475,3.794,43.292,43.292,0,0,1-7.052,17.183c-.8,1.153-.758,1.667.161,2.658a12.851,12.851,0,0,0-2.07,2.31" transform="translate(-12.357 -16.229)" fill="#feb29c"/>
        <path id="Trazado_176834" data-name="Trazado 176834" d="M23.414,70.984a46.583,46.583,0,0,0,8.82-3.743,37.454,37.454,0,0,0,10.939-9.47c.445-.574.655-.694,1.175-.039A37.712,37.712,0,0,0,68.205,71.807a22.24,22.24,0,0,0,3.433.368c.862.015.931.381.863,1.08a27.847,27.847,0,0,1-3.154,10.77c-4.9,8.964-12.424,14.11-22.585,15.349a2.758,2.758,0,0,1-.416-.009,9.2,9.2,0,0,1-5.384-.807A30.725,30.725,0,0,1,27.65,86.641c-.559-.927-.518-1.026.368-1.524a12.06,12.06,0,0,0,2.521-.956,3.914,3.914,0,0,0,1.42-5.929c-.209-.312-.5-.59-.474-1.014a6.694,6.694,0,0,0,.427-3.687,1.207,1.207,0,0,0-1.24-1.29c-.795,0-1.162.547-1.26,1.284-.069.52-.017,1.046-.042,1.569-.018.377.023.78-.327,1.059a42.482,42.482,0,0,0-5.068.231A.609.609,0,0,1,23.647,76a18.136,18.136,0,0,1-.5-4.34,1.2,1.2,0,0,1,.265-.671" transform="translate(-4.448 -11.009)" fill="#fedcce"/>
        <path id="Trazado_176835" data-name="Trazado 176835" d="M49.884,36.2a34.278,34.278,0,0,1-7.7-16.8,22.946,22.946,0,0,1,2-14.146,6.3,6.3,0,0,0,.252-.682,7.387,7.387,0,0,1,6.368.129q8.746,3.741,17.49,7.486,6.054,2.592,12.105,5.19a3.147,3.147,0,0,1-.033,5.853c-.192.084-.385.166-.577.248q-11,4.71-22.009,9.416c-2.625,1.119-5.2,2.356-7.9,3.3" transform="translate(-8.043 -0.752)" fill="#8187ca"/>
        <path id="Trazado_176836" data-name="Trazado 176836" d="M80.676,60.018c-2.971.063-3.164.288-2.732,3.147a32.294,32.294,0,0,1,.275,3.442c.023.515-.061.742-.678.691A34.753,34.753,0,0,1,52.8,54.476c-.085-.1-.149-.222-.265-.4,1.8-.246,3.548-.447,5.279-.728a47.126,47.126,0,0,0,14.773-5.02c.641-.343,1.014-.368,1.532.255a37.5,37.5,0,0,1,6.554,11.431" transform="translate(-10.096 -9.242)" fill="#feb29c"/>
        <path id="Trazado_176837" data-name="Trazado 176837" d="M20.389,40.336a17.442,17.442,0,0,0-.011-1.78c-.1-.959.288-.944,1-.633,4.126,1.79,8.262,3.555,12.395,5.328,1.506.646,3.02,1.272,4.515,1.945a11.6,11.6,0,0,0,9.824.007c5.593-2.435,11.213-4.811,16.822-7.211,1.074-.459,1.078-.455,1.082.663s-.051,2.239.019,3.352a1.36,1.36,0,0,1-.88,1.454,47.067,47.067,0,0,1-16.786,5.179A46.74,46.74,0,0,1,22.83,44.285c-1.771-.833-3.15-1.686-2.441-3.949" transform="translate(-3.882 -7.246)" fill="#676fb1"/>
        <path id="Trazado_176838" data-name="Trazado 176838" d="M26.115,88.565c-.455.21-.692.424-.344.988A30.893,30.893,0,0,0,39.836,101.87a11.543,11.543,0,0,0,4.576.753,23.735,23.735,0,0,1-8.919-.528,28.715,28.715,0,0,1-22.123-23.5c-.139-.823-.169-1.664-.277-2.493-.059-.453.105-.613.554-.634a48.351,48.351,0,0,0,7.833-1.225,19.981,19.981,0,0,0,.652,5.291c0,.539-.486.631-.8.851-2.855,1.968-2.747,5.247.238,7.028a5.888,5.888,0,0,0,3.07.872c.5,0,1.054-.152,1.482.282" transform="translate(-2.514 -14.267)" fill="#fecabd"/>
        <path id="Trazado_176839" data-name="Trazado 176839" d="M23.751,114.236C13.886,106.684,9.089,96.556,7.556,84.49c.792.128,1.452.28,2.119.331.57.044.532.5.634.823a31.859,31.859,0,0,0,11.369,15.932,32.766,32.766,0,0,0,6.471,3.744,4.612,4.612,0,0,0-1.861,3.653,1.12,1.12,0,0,1-.25.561,19.708,19.708,0,0,0-2.287,4.7" transform="translate(-1.452 -16.236)" fill="#fe8e71"/>
        <path id="Trazado_176840" data-name="Trazado 176840" d="M21.13,65.705a31.213,31.213,0,0,1-8.074,1.576c-.536.052-.568-.2-.541-.607a28.609,28.609,0,0,1,.62-4.137c.4-1.853-.159-2.532-2.053-2.531H10.033a30.738,30.738,0,0,1,2.81-6.165,35.186,35.186,0,0,1,3.881-5.454c.258-.3.452-.577.935-.3A57.805,57.805,0,0,0,26.165,51.8c.169.384-.065.673-.244.963a30.69,30.69,0,0,0-4.4,11.769,2.2,2.2,0,0,1-.393,1.175" transform="translate(-1.928 -9.219)" fill="#fe8e71"/>
        <path id="Trazado_176841" data-name="Trazado 176841" d="M23.77,66.615a27.449,27.449,0,0,1,2.445-9.126,38.246,38.246,0,0,1,2.591-4.781,65.332,65.332,0,0,0,8.358,1.806c1.168.136,2.338.263,3.578.4a3.111,3.111,0,0,1-.778,1.1A34.788,34.788,0,0,1,24.282,66.531a3.038,3.038,0,0,1-.512.084" transform="translate(-4.568 -10.129)" fill="#feb29c"/>
        <path id="Trazado_176842" data-name="Trazado 176842" d="M36.6,112.888c.605-.08.549.407.669.678a14.061,14.061,0,0,0,7.542,7.486,2.727,2.727,0,0,0,2.312.01,14.076,14.076,0,0,0,7.513-7.379c.132-.293.069-.928.626-.776.713.195,1.575.226,1.953,1.045a1.062,1.062,0,0,1-.389,1.3c-1.726,1.529-3.442,3.069-5.185,4.577-.86.744-1.713,1.444-1.533,2.772a.978.978,0,0,1-.41.927c-1.157.714-2.337,1.391-3.517,2.067a.457.457,0,0,1-.385.008c-1.182-.674-2.371-1.335-3.519-2.063a1.268,1.268,0,0,1-.45-1.232,2.218,2.218,0,0,0-.945-1.978c-1.771-1.53-3.521-3.084-5.269-4.641-.508-.454-1.211-.864-.881-1.719s1.268-.751,1.868-1.084" transform="translate(-6.659 -21.691)" fill="#676eb1"/>
        <path id="Trazado_176843" data-name="Trazado 176843" d="M55.862,127.133a5.078,5.078,0,0,0,1.451-2.873,1.192,1.192,0,0,1,.393-.815c1.683-1.465,3.353-2.944,5.1-4.483a14.787,14.787,0,0,1,1.934,7.73c0,.4-.217.443-.532.443-2.709,0-5.42,0-8.347,0" transform="translate(-10.735 -22.86)" fill="#8187ca"/>
        <path id="Trazado_176844" data-name="Trazado 176844" d="M3.912,72.623a5.786,5.786,0,0,1,3.9-5.515c.586-.184.787-.166.671.576a31.586,31.586,0,0,0,0,9.8c.12.766-.107.741-.679.556a5.791,5.791,0,0,1-3.891-5.416" transform="translate(-0.752 -12.877)" fill="#fecabd"/>
        <path id="Trazado_176845" data-name="Trazado 176845" d="M87.972,67.159a5.394,5.394,0,0,1,4.367,5.3A5.771,5.771,0,0,1,88.333,78.1c-.24.061-.7.329-.6-.295a48.3,48.3,0,0,0,.239-10.645" transform="translate(-16.856 -12.906)" fill="#fecabd"/>
        <path id="Trazado_176846" data-name="Trazado 176846" d="M35.335,127.133c-1.4.012-2.791.008-4.186.046-.5.014-.654-.165-.654-.66a15.355,15.355,0,0,1,1.614-6.963c.24-.477.408-.532.809-.154,1.066,1,2.167,1.963,3.255,2.941a28.377,28.377,0,0,0-.555,3.92,1.253,1.253,0,0,1-.284.87" transform="translate(-5.86 -22.897)" fill="#676eb1"/>
        <path id="Trazado_176847" data-name="Trazado 176847" d="M41.82,112.9a32.2,32.2,0,0,0,11.084-.025A10.745,10.745,0,0,1,47.6,118a.7.7,0,0,1-.607-.047A10.89,10.89,0,0,1,41.82,112.9" transform="translate(-8.036 -21.691)" fill="#fecabd"/>
        <path id="Trazado_176848" data-name="Trazado 176848" d="M4.227,41.047a2.548,2.548,0,0,1,2.541-2.619,2.6,2.6,0,0,1,2.672,2.62,2.682,2.682,0,0,1-2.621,2.6,2.621,2.621,0,0,1-2.592-2.6" transform="translate(-0.812 -7.384)" fill="#fecd70"/>
        <path id="Trazado_176849" data-name="Trazado 176849" d="M36.484,127.891a19.975,19.975,0,0,1,.4-4.2c.05-.294.074-.553.439-.586.932.721,1.864,1.392,1.955,2.769a3.764,3.764,0,0,0,1.2,2.021Z" transform="translate(-7.009 -23.656)" fill="#8187ca"/>
        <path id="Trazado_176850" data-name="Trazado 176850" d="M65.929,80.447c2.869-.736,5.921.134,7.3,2.081A4.149,4.149,0,0,1,72.1,88.563a7.507,7.507,0,0,1-8,.069c-2.53-1.682-2.892-4.269-.925-6.6.089-.106.162-.225.242-.338a2.674,2.674,0,0,0,2.518-1.251" transform="translate(-11.897 -15.409)" fill="#fe8d9d"/>
        <path id="Trazado_176851" data-name="Trazado 176851" d="M27.515,89.712A7.994,7.994,0,0,1,22.6,88.68c-2.956-1.99-2.988-5.418-.023-7.379.317-.209.637-.415.956-.622a9.229,9.229,0,0,1,5-.228,2.673,2.673,0,0,0,2.518,1.25c1.74,2.212,1.948,3.7.807,5.463a5.99,5.99,0,0,1-4.338,2.547" transform="translate(-3.914 -15.413)" fill="#fe8d9d"/>
        <path id="Trazado_176852" data-name="Trazado 176852" d="M47.446,82.95a6.189,6.189,0,0,1-4.381-1.906,1.57,1.57,0,0,1-.178-2.316,1.552,1.552,0,0,1,2.318.027c1.608,1.388,2.954,1.4,4.527.025a1.573,1.573,0,1,1,2.19,2.242,6.139,6.139,0,0,1-4.477,1.927" transform="translate(-8.159 -15.032)"/>
        <path id="Trazado_176853" data-name="Trazado 176853" d="M32.988,80.765c-1.428.46-2,.179-2.518-1.25.011-.836.006-1.671.04-2.506a1.584,1.584,0,0,1,1.617-1.671A1.511,1.511,0,0,1,33.628,77c-.073,1.272.49,2.673-.64,3.769" transform="translate(-5.855 -14.477)" fill="#010000"/>
        <path id="Trazado_176854" data-name="Trazado 176854" d="M66.116,79.515c-.529,1.433-1.09,1.712-2.519,1.251A6.339,6.339,0,0,1,63.12,76.2a1.556,1.556,0,0,1,2.941.6c.062.9.04,1.81.055,2.714" transform="translate(-12.084 -14.477)" fill="#010000"/>
      </g>
    </g>
  </g>
</svg>
