<svg xmlns="http://www.w3.org/2000/svg" xmlns:xlink="http://www.w3.org/1999/xlink" width="295" height="557" viewBox="0 0 295 557">
  <defs>
    <clipPath id="clip-path">
      <rect id="Rectángulo_44602" data-name="Rectángulo 44602" width="204.776" height="533.078" fill="none"/>
    </clipPath>
  </defs>
  <g id="Grupo_172621" data-name="Grupo 172621" transform="translate(-210 -1707)">
    <rect id="Rectángulo_44125" data-name="Rectángulo 44125" width="295" height="557" transform="translate(210 1707)" fill="none"/>
    <g id="Grupo_172619" data-name="Grupo 172619" transform="translate(223 1712.748)">
      <g id="Grupo_157493" data-name="Grupo 157493" transform="translate(0 0)">
        <path id="Trazado_114544" data-name="Trazado 114544" d="M175.625,548.687c-35.563-16.178-72.444-38.008-86.767-74.515-15.9-40.516.743-85.89.343-129.441-.318-34.5-11.437-67.82-20.185-101.182s-15.174-68.81-6.148-102.1C68.911,119.167,81.746,99,98.316,83.005c29.178-28.173,71.218-43.418,111.162-36.974s76.231,35.8,87.909,74.745c16.544,55.175-15.773,114.073-8.9,171.286,2.687,22.387,11.289,43.557,17.121,65.331a269.025,269.025,0,0,1,9.14,71.079c-.218,36.725-9.475,75.908-36.724,100.365C250.534,553.507,209.631,564.157,175.625,548.687Z" transform="translate(-51.776 -44.565)" fill="#c4d1fd"/>
        <g id="Grupo_173486" data-name="Grupo 173486" transform="translate(28.559 17.338)">
          <g id="Grupo_173485" data-name="Grupo 173485" clip-path="url(#clip-path)">
            <path id="Trazado_176997" data-name="Trazado 176997" d="M77.183,398.558H33s-.213-.672-.59-2.324c-.459-1.93-1.129-5.171-1.963-10.227-1.228-7.527-2.815-19.08-4.55-36.276-3.895-39.093.556-59.169,1.1-68.988,0,0,3.387,6.383,11.864,11.815a41.838,41.838,0,0,0,5.857,3.174,76.639,76.639,0,0,0,24.823,6.283l-13.091,81,1.457.244a26.092,26.092,0,0,1,19.275,15.3" transform="translate(11.652 134.52)" fill="#89453c"/>
            <path id="Trazado_176998" data-name="Trazado 176998" d="M139.832,393.437H95.373s-.408-3.174-1.064-8.378c-.278-2.095-.572-4.516-.916-7.183-3.371-26.427-9.9-77.561-10.293-80.981a46.915,46.915,0,0,0,11.9,1.08,73,73,0,0,0,11.552-1.08c14.465-2.455,19.374-5.465,19.374-5.465L120.2,377.073c8.181,2.455,19.636,16.364,19.636,16.364" transform="translate(39.818 139.641)" fill="#89453c"/>
            <path id="Trazado_176999" data-name="Trazado 176999" d="M149.9,293.369c-4.909-26.453-3.546-37.362-2.728-49.361s1.546-40.618-1.908-66.817c0,0-3.273,3.272-12,5.454s-35.18,5.182-63.9,2.182S24.174,169.01,24.174,169.01c-.818,5.182.544,78.542,5.181,100.087s4.909,25.362,4.909,25.362-7.637,23.727-7.091,39.817c0,0,4.909,9.273,17.726,15a76.332,76.332,0,0,0,24.817,6.273s13.091-73.634,15.271-88.906,8.183-47.179,8.183-47.179l13.364,91.632s-.274,17.454,1.09,28.091,3.818,16.362,3.818,16.362,9,2.455,23.454,0,19.364-5.454,19.364-5.454.544-30.272-4.364-56.726" transform="translate(11.476 80.982)" fill="#1d3927"/>
            <path id="Trazado_177000" data-name="Trazado 177000" d="M183.382,205.864c-3.88,3.223-11.912,5.778-20.1,3.324s-10.372-10.9-10.372-10.9c-.05.1-.083.2-.133.294a45.6,45.6,0,0,1-4.466,7.462l-.034.049c10.1,18.441,8.459,38.011,8.459,38.011s-3.27,3.272-12.009,5.449c-4.73,1.177-14.678,2.618-27.375,3.189-.263.016-.54.016-.819.034a247.736,247.736,0,0,1-35.7-1.047,103.084,103.084,0,0,1-38.158-11.438,55.9,55.9,0,0,1-7.022-4.368c.821-13.909,9-36.557,9-36.557-5.186.558-18.818-3.27-29.453-12.2-.933-.785-1.816-1.6-2.683-2.423A40.861,40.861,0,0,1,1.308,167.133,30.237,30.237,0,0,1,.2,154.927c1-8.658,7.069-21.616,13.451-36.475,2.275-5.285,4.582-10.783,6.724-16.444,8.183-21.534,16.1-28.638,24.825-35.442a27.209,27.209,0,0,1,3.992-2.586c8.526-4.664,19.192-5.875,19.192-5.875s-6.822-6.267-5.072-12.273,3.306-14.2,17.525-16.462c.28.754.541,1.424.771,1.932a5.5,5.5,0,0,0,5.121,3.485s.327,1.392.982,3.4c1.179,3.682,3.4,9.44,6.578,12.747,4.909,5.121,11.453,9.622,15.348,9.425,3.389-.18,9.555-3.943,14.892-9.1a29.34,29.34,0,0,1,1.257,6.022h.034c.083.033.293.1.621.213a73.351,73.351,0,0,1,13.941,6.988,41.034,41.034,0,0,1,5.269,3.812c6.251,5.252,10.848,12.453,14.09,23.89,4.09,14.465,14.725,49.646,18.537,67.367,1.065,4.909,1.932,10.669,2.618,16.411-.243.376-.488.771-.7,1.179-5.891,11.455-5.1,19.634-3.469,23.514a9.417,9.417,0,0,0,1.506,2.537,7.7,7.7,0,0,0,5.155,2.665" transform="translate(0 14.074)" fill="#d07528"/>
            <path id="Trazado_177001" data-name="Trazado 177001" d="M144.8,144.717a8.945,8.945,0,0,0,1.228-3.682c0-1.636-3.683,0-3.683,0s4.091-2.25,2.66-5.318-4.3-1.228-4.3-1.228,1.432-1.636-2.25-6.545c-3.43-4.575-10.9-3.046-14.426,2.094a11.192,11.192,0,0,0-.71,1.177c-5.89,11.453-5.113,19.636-3.476,23.523a7.756,7.756,0,0,0,6.675,5.2,25.332,25.332,0,0,0,5.8.12c8.181-.614,11.659-2.864,13.909-6.545s2.66-10.841-1.432-8.8" transform="translate(56.862 60.002)" fill="#f9b88c"/>
            <path id="Trazado_177002" data-name="Trazado 177002" d="M111.182,16.136c-1.024-4.091-2.66-10.431-14.522-14.726s-25.771,2.046-31.5,7.977S57.793,30.87,57.793,30.87c3.677,3.074,5.878,10.424,5.878,10.424s2.921-16.158,4.557-18.816c1.842-2.864,8.8-10.227,9.613-10.023s10.023,4.7,15.954,7.773,11.863,1.84,13.909,2.25c3.886-1.228,4.5-2.25,3.478-6.341" transform="translate(27.692 0)" fill="#f8b348"/>
            <path id="Trazado_177003" data-name="Trazado 177003" d="M111.645,30.511a72.085,72.085,0,0,1-4.288,17.083c-1.685,4.516-3.8,8.755-6.137,11.357l-.047.049c-.72.785-1.475,1.571-2.241,2.307-5.337,5.153-11.5,8.916-14.892,9.1-3.895.2-10.438-4.3-15.348-9.425-4.909-5.1-7.56-16.149-7.56-16.149a5.507,5.507,0,0,1-5.121-3.486c-.229-.507-.491-1.177-.769-1.93-1.636-4.566-3.452-12.518.769-13.4a4.986,4.986,0,0,1,3.877.818c3.682,3.077,5.875,10.424,5.875,10.424S68.691,21.1,70.326,18.435c1.834-2.847,8.8-10.211,9.623-10.014s10.012,4.713,15.938,7.771,11.879,1.85,13.909,2.242c2.06.426,2.256,6.152,1.849,12.076" transform="translate(25.593 4.033)" fill="#f9b88c"/>
            <path id="Trazado_177004" data-name="Trazado 177004" d="M81.2,25.118c1.636-1.432-2.864-7.159-7.569-7.977s-6.544-.614-6.136,1.228,3.97,2.658,7,3.886S81.2,25.118,81.2,25.118" transform="translate(32.313 7.994)" fill="#f8b348"/>
            <path id="Trazado_177005" data-name="Trazado 177005" d="M85.651,25.658c-1.84-.818.614-4.5,4.909-4.091a7.109,7.109,0,0,1,5.782,4.091Z" transform="translate(40.744 10.319)" fill="#f8b348"/>
            <path id="Trazado_177006" data-name="Trazado 177006" d="M63.083,106.886c-1.784,26.8-12.959,24.953-14.6,22.712-1.636-2.259-1.031-19.849-2.864-36.211-1.7-15.12-4.974-27.981-12.37-38.715A45.423,45.423,0,0,1,41.615,51.2c.278-.083.54-.164.8-.229A62.8,62.8,0,0,1,52.447,48.8l6.267,3.272s6.137,28.014,4.369,54.816" transform="translate(15.933 23.382)" fill="#89453c"/>
            <path id="Trazado_177007" data-name="Trazado 177007" d="M112.088,125.773c-5.3.621-8.575-6.971-13.255-29.453C94.155,73.8,84.484,50.077,84.484,50.077l.851-1.833a58.314,58.314,0,0,1,9.311,4.173c.359.18.735.393,1.129.6,1.275.7,2.651,1.522,4.122,2.423a41.075,41.075,0,0,1,5.269,3.812c1.916,6.1,5.025,16.675,7.953,29.765,4.7,20.945,4.3,36.13-1.031,36.751" transform="translate(40.481 23.116)" fill="#89453c"/>
            <path id="Trazado_177008" data-name="Trazado 177008" d="M44.613,104.087s-1.636,17.4-3.273,24.448l3.273,3.574s8.838-22.943,8.816-30.085Z" transform="translate(19.808 48.886)" fill="#89453c"/>
            <path id="Trazado_177009" data-name="Trazado 177009" d="M100.733,100.7s7.258,38.326,6.236,51.009l3.476-6.749-2.9-46.709Z" transform="translate(48.267 47.078)" fill="#89453c"/>
            <path id="Trazado_177010" data-name="Trazado 177010" d="M98.026,54.642c-1.392,1.392-3.5,3.452-5.973,5.711-4.5,4.106-7.167,6.971-12.256,6.152S60.767,54.021,60.145,52.172c-.621-1.833.41-10.162-.851-16.837,1.179,3.68,3.4,9.44,6.578,12.746C70.781,53.2,77.326,57.7,81.221,57.506c3.387-.18,9.555-3.943,14.891-9.1a29.31,29.31,0,0,1,1.259,6.022H97.4c.083.033.3.1.623.213" transform="translate(28.411 16.931)" fill="#b36133"/>
            <path id="Trazado_177011" data-name="Trazado 177011" d="M48.764,156.165l-4.532-1.423c-5.187.556-18.818-3.273-29.454-12.207-.932-.785-1.816-1.6-2.683-2.421A40.844,40.844,0,0,1,.885,122.507c8.575,12.076,24.545,22.989,46,25.771,0,0-.459,6.365,1.881,7.887" transform="translate(0.424 58.7)" fill="#b36133"/>
            <path id="Trazado_177012" data-name="Trazado 177012" d="M33.254,95.813c4.189,10.023,0,28.431,0,28.431s2.176,1.279,6.848,3.886,12.613,12.409,12.613,12.409A29.748,29.748,0,0,0,40.1,122.608a41.365,41.365,0,0,0-.819-13.258,44.57,44.57,0,0,0-6.029-13.537" transform="translate(15.934 45.91)" fill="#b36133"/>
            <path id="Trazado_177013" data-name="Trazado 177013" d="M41.024,147.655c-4.124,8.869-8.248,28.946-9.9,37.569a55.681,55.681,0,0,1-7.019-4.368c.818-13.909,9-36.556,9-36.556l4.532,1.424Z" transform="translate(11.55 69.142)" fill="#b36133"/>
            <path id="Trazado_177014" data-name="Trazado 177014" d="M133.89,153.487c-3.88,3.223-11.912,5.778-20.1,3.324s-10.372-10.9-10.372-10.9c-.05.1-.083.2-.133.294l1.081-7.526c3.747,6.332,18.964,12.271,22.859,9.6l1.506,2.537a.705.705,0,0,0,.065.13c1.587,2.651,5.09,2.535,5.09,2.535" transform="translate(49.492 66.45)" fill="#b36133"/>
            <path id="Trazado_177015" data-name="Trazado 177015" d="M35.179,395.007l-2.766,1.228c-.457-1.932-1.129-5.171-1.963-10.227-1.228-7.527-2.815-19.08-4.548-36.278-3.895-39.091.556-59.169,1.1-68.986,0,0,3.387,6.381,11.863,11.814-7.9,32.317-3.682,102.449-3.682,102.449" transform="translate(11.653 134.521)" fill="#544233"/>
            <path id="Trazado_177016" data-name="Trazado 177016" d="M98.645,383.8l-4.335-.507c-.278-2.095-.574-4.516-.917-7.183-3.371-26.427-9.9-77.561-10.292-80.981A46.909,46.909,0,0,0,95,296.2c.345,40.351,3.649,87.591,3.649,87.591" transform="translate(39.819 141.411)" fill="#544233"/>
            <path id="Trazado_177017" data-name="Trazado 177017" d="M83.609,46.029a.409.409,0,0,1-.285-.117L78.107,40.8a.409.409,0,1,1,.572-.584l4.65,4.559c1.336-8.369,2.93-18.028,3.225-18.421a.413.413,0,0,1,.572-.081.409.409,0,0,1,.114.524c-.284.785-2.083,11.7-3.228,18.89a.409.409,0,0,1-.277.324.416.416,0,0,1-.127.021" transform="translate(37.367 12.549)" fill="#cc6e24"/>
            <path id="Trazado_177018" data-name="Trazado 177018" d="M59.958,32.579a.412.412,0,0,1-.4-.327,19.393,19.393,0,0,0-2.992-6.789.409.409,0,1,1,.652-.494,19.939,19.939,0,0,1,3.143,7.119.409.409,0,0,1-.319.482.394.394,0,0,1-.083.009" transform="translate(27.064 11.886)" fill="#cc6e24"/>
            <path id="Trazado_177019" data-name="Trazado 177019" d="M79.737,45.33a10.177,10.177,0,0,1-7.1-2.636.424.424,0,0,1-.059-.589.391.391,0,0,1,.562-.056l.028.022c1.155.988,4.226,3.609,10.719,1.837a.409.409,0,0,1,.214.79,16.578,16.578,0,0,1-4.365.632" transform="translate(34.732 20.103)" fill="#f25e4c"/>
            <path id="Trazado_177020" data-name="Trazado 177020" d="M72.9,31.45c1.507.711,4.881-5.526,2.938-6.344S71.392,30.739,72.9,31.45" transform="translate(34.708 11.995)" fill="#1d3927"/>
            <path id="Trazado_177021" data-name="Trazado 177021" d="M86.6,33.606c1.182.7,4.193-4.4,2.557-5.112s-4.3,4.091-2.557,5.112" transform="translate(41.225 13.619)" fill="#1d3927"/>
            <path id="Trazado_177022" data-name="Trazado 177022" d="M33.387,124.786a.416.416,0,0,1-.139-.024.41.41,0,0,1-.246-.525c3.155-8.742,1.386-25.9.037-28.076a.409.409,0,1,1,.7-.43c1.433,2.312,3.338,19.64.037,28.784a.409.409,0,0,1-.385.271" transform="translate(15.801 45.777)" fill="#f8b348"/>
            <path id="Trazado_177023" data-name="Trazado 177023" d="M56.792,132.531a.408.408,0,0,1-.322-.157c-9.746-12.4-22.011-19.46-31.249-17.984a.414.414,0,0,1-.469-.34.41.41,0,0,1,.34-.469c9.517-1.521,22.093,5.653,32.022,18.288a.41.41,0,0,1-.07.574.416.416,0,0,1-.253.087" transform="translate(11.857 54.327)" fill="#f8b348"/>
            <path id="Trazado_177024" data-name="Trazado 177024" d="M34.421,146.727c-3.952,0-9.742-1.232-18.092-6.042a.409.409,0,1,1,.408-.709c13.98,8.054,20.531,5.878,23.329,4.948a.409.409,0,1,1,.257.777,17.337,17.337,0,0,1-5.9,1.027" transform="translate(7.726 67.044)" fill="#f8b348"/>
            <path id="Trazado_177025" data-name="Trazado 177025" d="M50.409,124.017a.4.4,0,0,1-.41.359h-.033a.406.406,0,0,1-.376-.441c2.225-22.286-4.6-57.059-10.685-73.437.278-.083.54-.164.8-.229,6.087,16.527,12.928,51.38,10.7,73.748" transform="translate(18.642 24.087)" fill="#1d3927"/>
            <path id="Trazado_177026" data-name="Trazado 177026" d="M108.191,117.189a.411.411,0,0,1-.343.475h-.067a.421.421,0,0,1-.408-.343c-2.586-16.167-10.62-53.671-16.019-66.254.359.179.737.392,1.129.6,5.482,13.647,13.123,49.286,15.709,65.518" transform="translate(43.773 24.469)" fill="#1d3927"/>
            <path id="Trazado_177027" data-name="Trazado 177027" d="M77.964,187.937c-1.455,3.682-.556,5.579.917,8.7a40.009,40.009,0,0,1,2.651,6.84c1.979,7.217,3.878,25.74,2.225,36.441-.262.018-.54.018-.818.033,1.636-10.472-.262-29.256-2.192-36.244a38.189,38.189,0,0,0-2.6-6.708c-1.473-3.109-2.537-5.352-.933-9.36l.148-.376c2.34-5.891,6.251-15.725,6.856-38.127.556-21.091-6.431-40.449-9.8-49.76q-.444-1.2-.787-2.208c-2.994-8.443-3.96-20.454-3.321-25.02a40.939,40.939,0,0,1,1.735-6.462,37.52,37.52,0,0,0,2.16-9.163.416.416,0,0,1,.425-.393.406.406,0,0,1,.393.426,37.332,37.332,0,0,1-2.21,9.393,41.549,41.549,0,0,0-1.7,6.316c-.621,4.483.343,16.314,3.29,24.626.228.67.507,1.407.785,2.208,3.387,9.36,10.406,28.815,9.85,50.055-.6,22.548-4.565,32.481-6.921,38.4Z" transform="translate(33.598 26.896)" fill="#f8b348"/>
            <path id="Trazado_177028" data-name="Trazado 177028" d="M105.361,143.009a.411.411,0,0,1-.41-.4c-.2-6.951,3.6-11.915,10.239-18.139a.409.409,0,0,1,.559.6c-6.467,6.066-10.172,10.876-9.978,17.518a.41.41,0,0,1-.4.422Z" transform="translate(50.285 59.59)" fill="#f8b348"/>
            <path id="Trazado_177029" data-name="Trazado 177029" d="M104.15,146.761a.409.409,0,0,1-.367-.59c2.661-5.392,7.788-9.841,14.438-12.533a.409.409,0,0,1,.306.759c-6.464,2.617-11.438,6.925-14.011,12.136a.41.41,0,0,1-.367.228" transform="translate(49.708 64.019)" fill="#f8b348"/>
            <path id="Trazado_177030" data-name="Trazado 177030" d="M136.623,151.66a.409.409,0,1,0-.441-.689c-5.174,3.307-9.947,3.5-11.353,2.868-.235-.105-.3-.2-.3-.229-.175-1.1-.248-3.118,1.208-4.338a.4.4,0,0,0,.138-.3,47.045,47.045,0,0,0,8.881-3.673.409.409,0,1,0-.4-.713c-5.062,2.834-11.694,4.673-12.679,4.288.152-1.127,3.2-5.143,5.761-7.254a68.446,68.446,0,0,0,9.177-4.648.409.409,0,1,0-.42-.7c-4.957,2.948-10.657,5.676-11.619,5.122-.021-.012-.041-.024-.041-.111,0-2.42.617-5.575,7.992-12.4a.41.41,0,0,0-.556-.6c-7.616,7.053-8.254,10.41-8.254,13a.9.9,0,0,0,.456.822,1.368,1.368,0,0,0,.677.142,4.5,4.5,0,0,0,.814-.1c-2.2,2.173-4.81,5.491-4.81,6.812a.681.681,0,0,0,.354.595,1.8,1.8,0,0,0,.87.163,11.427,11.427,0,0,0,2.494-.383,5.9,5.9,0,0,0-.849,4.4,1.16,1.16,0,0,0,.777.848,4.709,4.709,0,0,0,1.54.336,2.759,2.759,0,0,0-.118,2.535c.587,1.1,2.065,1.658,4.409,1.658a25.267,25.267,0,0,0,4.3-.439.409.409,0,0,0-.143-.806c-5.9,1.041-7.448-.052-7.842-.8a2.194,2.194,0,0,1,.34-2.139,19.562,19.562,0,0,0,9.643-3.272" transform="translate(57.907 61.414)" fill="#1d3927"/>
            <path id="Trazado_177031" data-name="Trazado 177031" d="M51.042,270.372c-2.741,0-10.779-.972-13.518-5.705a.409.409,0,1,1,.709-.408c2.852,4.929,12.613,5.5,13.428,5.27a.413.413,0,0,1,.509.271.4.4,0,0,1-.256.507,3.674,3.674,0,0,1-.871.065" transform="translate(17.953 126.523)" fill="#1d3927"/>
            <path id="Trazado_177032" data-name="Trazado 177032" d="M93.006,263.866a.41.41,0,0,1-.1-.808,56.231,56.231,0,0,0,11.623-4.853.409.409,0,1,1,.4.713,57.19,57.19,0,0,1-11.83,4.936.366.366,0,0,1-.1.012" transform="translate(44.368 123.697)" fill="#1d3927"/>
            <path id="Trazado_177033" data-name="Trazado 177033" d="M69.281,222.589a.354.354,0,0,1-.095-.012.407.407,0,0,1-.3-.491c.053-.228,5.38-22.744,7-31.63a.409.409,0,1,1,.8.146c-1.62,8.908-6.952,31.445-7.005,31.672a.408.408,0,0,1-.4.315" transform="translate(33.001 91.097)" fill="#1d3927"/>
            <path id="Trazado_177034" data-name="Trazado 177034" d="M83.459,77.347a.409.409,0,0,1-.361-.216c-.024-.043-2.319-4.3-4.254-5.727a12.785,12.785,0,0,0-3.1-1.439,15.859,15.859,0,0,1-5.312-2.81,17.468,17.468,0,0,1-3.617-5.433,7.309,7.309,0,0,0-1.379-2.263c-.214-.08-.581-.2-1.077-.359a90.725,90.725,0,0,1-11.045-4.29,20.783,20.783,0,0,1-9.953-9.2l-.17-.274a.407.407,0,0,1,.132-.564.411.411,0,0,1,.564.132l.169.277a20.129,20.129,0,0,0,9.607,8.891A90.074,90.074,0,0,0,64.607,58.32c.512.166.89.288,1.112.373.62.231,1.1,1.2,1.824,2.664A16.859,16.859,0,0,0,70.97,66.54,15.159,15.159,0,0,0,76.023,69.2a13.35,13.35,0,0,1,3.307,1.549c2.083,1.537,4.39,5.818,4.488,6a.408.408,0,0,1-.167.553.4.4,0,0,1-.192.049" transform="translate(20.664 21.423)" fill="#f8b348"/>
            <path id="Trazado_177035" data-name="Trazado 177035" d="M80.422,67.21c-2.617,0-5.581-2.16-7.779-3.763-.507-.37-.979-.713-1.4-1C68.65,60.7,60.169,54.8,59.873,52.354c-.272-2.25-.831-16.275-.855-16.871a.41.41,0,0,1,.393-.425.388.388,0,0,1,.425.393c.006.145.581,14.587.849,16.8.189,1.568,5.67,5.909,11.015,9.517.429.288.907.638,1.424,1.013,2.228,1.623,5.27,3.849,7.692,3.585l.247-.028c2.986-.321,4.633-.5,8.076-3.639,3.6-3.279,8.684-8.175,8.734-8.224a.412.412,0,0,1,.578.01.406.406,0,0,1-.01.578c-.052.049-5.149,4.952-8.749,8.239-3.64,3.321-5.486,3.52-8.542,3.85l-.248.027a4.321,4.321,0,0,1-.481.025" transform="translate(28.279 16.798)" fill="#f8b348"/>
            <path id="Trazado_177036" data-name="Trazado 177036" d="M73.028,35.022c0,3.624-2.5,6.562-5.584,6.562s-5.585-2.938-5.585-6.562,2.5-6.562,5.585-6.562,5.584,2.938,5.584,6.562" transform="translate(29.64 13.637)" fill="#ff9d7b"/>
            <path id="Trazado_177037" data-name="Trazado 177037" d="M92.553,34.987c-1.685,4.516-3.8,8.754-6.136,11.355l-.05.049c-2.241-1.7-2.748-5.186-1.046-8.116,1.6-2.813,4.695-4.14,7.232-3.288" transform="translate(40.397 16.642)" fill="#ff9d7b"/>
            <path id="Trazado_177038" data-name="Trazado 177038" d="M52.818,77.428S86.682,79.8,108.714,67l3.066,8.816S81.576,87.193,54,85.418Z" transform="translate(25.308 32.102)" fill="#89453c"/>
            <path id="Trazado_177039" data-name="Trazado 177039" d="M132.1,138.68l-1.08,7.527a45.638,45.638,0,0,1-4.467,7.461l-.033.049s-10.637,4.6-40.908,3.568c-30.272-1.015-40.189-9.228-40.189-9.228l6.054-4.369c5.3,2.143,14.907,6.038,38.847,5.22,23.922-.818,36.506-4.909,41.774-10.227" transform="translate(21.764 66.45)" fill="#89453c"/>
            <path id="Trazado_177040" data-name="Trazado 177040" d="M58.374,143.244a2.546,2.546,0,0,0-.294-.148,26.449,26.449,0,0,1,2.324,2.062c1.242,1.244,2.356,2.733,1.652,3.584a3.691,3.691,0,0,1-2.192,1.293,3.441,3.441,0,0,1-1.08.065,1.32,1.32,0,0,1,.065.753c-.148,1.342-1.881,2.7-2.979,3.452-.54.361-.916.572-.916.572a1.165,1.165,0,0,1,.1.278c.1,1.376-4.467,2.586-8.541,2.586-4.369,0-13.369-.818-13.909-5.727,0,0-2.733-8.459,3.272-15.283,5.989-6.807,15.266-11.716,17.442-10.637,2.194,1.1,12.551,14.728,10.375,16.92-1.734,1.719-4.319.72-5.318.229" transform="translate(15.325 60.348)" fill="#f9b88c"/>
            <path id="Trazado_177041" data-name="Trazado 177041" d="M55.044,142.037c-5.22-2.275-10.554-7.036-11.814-8.95a.4.4,0,0,1,.132-.556.384.384,0,0,1,.556.114c1,1.538,4.713,4.958,8.8,7.331a26.2,26.2,0,0,1,2.324,2.062" transform="translate(20.685 63.468)" fill="#1d3927"/>
            <path id="Trazado_177042" data-name="Trazado 177042" d="M54.432,144.13a1.32,1.32,0,0,1,.065.753c-5.711-.18-11.9-4.68-13.27-5.744a.409.409,0,0,1,.49-.655c1.424,1.1,8.132,5.989,13.795,5.581a3.441,3.441,0,0,1-1.08.065" transform="translate(19.677 66.318)" fill="#1d3927"/>
            <path id="Trazado_177043" data-name="Trazado 177043" d="M51.929,147.068a1.144,1.144,0,0,1,.1.278c-5.482-.049-11.191-2.421-13.582-4.369a.417.417,0,0,1-.049-.589.408.408,0,0,1,.572-.049c2.356,1.914,8.378,4.335,13.876,4.156-.54.359-.916.572-.916.572" transform="translate(18.35 68.158)" fill="#1d3927"/>
          </g>
        </g>
      </g>
    </g>
    <g id="Grupo_173487" data-name="Grupo 173487" transform="translate(30 -13)">
      <rect id="Rectángulo_44603" data-name="Rectángulo 44603" width="158" height="44" rx="22" transform="translate(249 1942)" fill="#3c3fa7"/>
      <path id="Trazado_177684" data-name="Trazado 177684" d="M30.107,21.729a1.505,1.505,0,0,1,.1-.564.46.46,0,0,1,.483-.256,1.041,1.041,0,0,1,.7.242q.286.242.637.527a4.291,4.291,0,0,0,.857.527,3.176,3.176,0,0,0,1.355.242,4.216,4.216,0,0,0,1.787-.359,4.584,4.584,0,0,0,1.311-.886,3.882,3.882,0,0,0,.813-1.128,2.618,2.618,0,0,0,.278-1.084,2.1,2.1,0,0,0-.564-1.377,11.179,11.179,0,0,0-1.414-1.355q-.85-.7-1.831-1.465a14.426,14.426,0,0,1-1.831-1.714,9.068,9.068,0,0,1-1.414-2.1,5.909,5.909,0,0,1-.564-2.622,6.091,6.091,0,0,1,.623-2.776,7.076,7.076,0,0,1,1.6-2.117,7.235,7.235,0,0,1,2.19-1.355,6.463,6.463,0,0,1,2.38-.476A2.98,2.98,0,0,1,38.86,1.9a3.585,3.585,0,0,1,1.772,1.765,2.833,2.833,0,0,1,.271,1.2,3.723,3.723,0,0,1-.059.564,4.107,4.107,0,0,1-.183.71,2.07,2.07,0,0,1-.33.608.618.618,0,0,1-.5.256.759.759,0,0,1-.388-.117,1.258,1.258,0,0,1-.352-.315,1.9,1.9,0,0,1-.256-.447,1.371,1.371,0,0,1-.1-.527,2.031,2.031,0,0,0-.022-.264,1.421,1.421,0,0,0-.081-.315.764.764,0,0,0-.176-.271.416.416,0,0,0-.308-.117,2.8,2.8,0,0,0-.7.117,5.641,5.641,0,0,0-.916.344,6.937,6.937,0,0,0-.974.564,4.769,4.769,0,0,0-.879.776,3.989,3.989,0,0,0-.637.981A2.773,2.773,0,0,0,33.8,8.59a2.883,2.883,0,0,0,.315,1.333,5.061,5.061,0,0,0,.842,1.172,11.289,11.289,0,0,0,1.194,1.084L37.5,13.248q.688.542,1.355,1.121a9.492,9.492,0,0,1,1.194,1.238,5.787,5.787,0,0,1,.842,1.428,4.423,4.423,0,0,1,.315,1.692,5.237,5.237,0,0,1-.3,1.758,6.27,6.27,0,0,1-.828,1.582A7.7,7.7,0,0,1,38.86,23.4a8.661,8.661,0,0,1-1.479,1.033,7.6,7.6,0,0,1-1.619.667,6,6,0,0,1-1.626.234,4.7,4.7,0,0,1-1.589-.264,3.837,3.837,0,0,1-1.282-.747,3.5,3.5,0,0,1-.85-1.143A3.387,3.387,0,0,1,30.107,21.729Zm20.977-6.812a4.742,4.742,0,0,1-.234,1.509,5.431,5.431,0,0,1-.623,1.289,5.54,5.54,0,0,1-.886,1.04,7.407,7.407,0,0,1-1,.776,5.419,5.419,0,0,1-.989.505,2.763,2.763,0,0,1-.85.2.7.7,0,0,0-.513.168.516.516,0,0,0-.132.344.9.9,0,0,0,.088.381,2.842,2.842,0,0,0,.161.308,1.721,1.721,0,0,0,.608.557,2.586,2.586,0,0,0,1.223.22,6.969,6.969,0,0,0,.989-.088,5.582,5.582,0,0,0,1.289-.374,7.078,7.078,0,0,0,2.937-2.322.583.583,0,0,1,.22-.176.613.613,0,0,1,.835.256,2.619,2.619,0,0,1-.044,2.329,3.758,3.758,0,0,1-.8.967,6.45,6.45,0,0,1-1.172.813,8.87,8.87,0,0,1-1.421.623,10.334,10.334,0,0,1-1.553.4,9.077,9.077,0,0,1-1.56.139,6.147,6.147,0,0,1-2.322-.417,4.646,4.646,0,0,1-1.743-1.208A5.412,5.412,0,0,1,42.5,21.217a8.181,8.181,0,0,1-.381-2.593,11.437,11.437,0,0,1,.146-1.809,11.106,11.106,0,0,1,.439-1.787,8.991,8.991,0,0,1,.732-1.633,6,6,0,0,1,1.033-1.333,4.589,4.589,0,0,1,1.34-.9,4.02,4.02,0,0,1,1.641-.33,3.471,3.471,0,0,1,1.736.4,3.338,3.338,0,0,1,1.113,1,4.031,4.031,0,0,1,.6,1.326A5.6,5.6,0,0,1,51.084,14.918Zm-5.771,2.476q0,.059.007.161a.486.486,0,0,0,.059.2.44.44,0,0,0,.154.161.542.542,0,0,0,.293.066,1.623,1.623,0,0,0,.945-.374,4.589,4.589,0,0,0,.923-.923,5.849,5.849,0,0,0,.7-1.179,2.838,2.838,0,0,0,.278-1.128,1.929,1.929,0,0,0-.044-.388,1.768,1.768,0,0,0-.139-.41.918.918,0,0,0-.264-.33.68.68,0,0,0-.432-.132,1.241,1.241,0,0,0-.806.417,4.61,4.61,0,0,0-.806,1.055,7.505,7.505,0,0,0-.615,1.392A4.522,4.522,0,0,0,45.313,17.394ZM54.438.211a.791.791,0,0,1,.454.139,1.626,1.626,0,0,1,.366.344,3.73,3.73,0,0,1,.293.432q.132.227.22.417a1.951,1.951,0,0,1,.168.593q.051.359.073.754t.022.776v.645q0,1.655-.059,3.3t-.059,3.311q0,.366-.007.894t.015,1a4.395,4.395,0,0,0,.1.806q.081.337.256.337t.41-.352q.337-.483.674-.879a4.36,4.36,0,0,1,.71-.674,2.97,2.97,0,0,1,.828-.432,3.186,3.186,0,0,1,1.025-.154,3.532,3.532,0,0,1,1.875.491,4.486,4.486,0,0,1,1.348,1.26,5.673,5.673,0,0,1,.813,1.707,6.625,6.625,0,0,1,.271,1.846,5.781,5.781,0,0,1-.359,2.014,7.689,7.689,0,0,1-.967,1.824,9.43,9.43,0,0,1-1.406,1.56,9.937,9.937,0,0,1-1.685,1.216,8.745,8.745,0,0,1-1.809.784,6.089,6.089,0,0,1-1.758.278q-.234,0-.645-.029a6,6,0,0,1-.872-.132,5.177,5.177,0,0,1-.908-.293,2.09,2.09,0,0,1-.74-.513,2.862,2.862,0,0,1-.366-.527,3.114,3.114,0,0,1-.286-.667,1.109,1.109,0,0,1-.029-.586.419.419,0,0,1,.4-.3.55.55,0,0,0,.41-.344,2.558,2.558,0,0,0,.088-1.208q-.249-2.944-.322-5.881t-.073-5.75V7.154q0-.718.037-1.611T53.076,3.7a14.473,14.473,0,0,1,.256-1.721A4.83,4.83,0,0,1,53.772.709.781.781,0,0,1,54.438.211Zm5.112,14.751a1.267,1.267,0,0,0-.835.359,4.33,4.33,0,0,0-.776.93,9,9,0,0,0-.674,1.282,13.647,13.647,0,0,0-.527,1.428,13.481,13.481,0,0,0-.344,1.355,5.682,5.682,0,0,0-.125,1.047.158.158,0,0,0,.037.081q.037.051.183.051a1.645,1.645,0,0,0,.483-.1,6.4,6.4,0,0,0,1.355-.652,7.326,7.326,0,0,0,1.34-1.062,5.943,5.943,0,0,0,1.025-1.37,3.2,3.2,0,0,0,.41-1.545,1.942,1.942,0,0,0-.168-.857,1.669,1.669,0,0,0-.41-.549,1.647,1.647,0,0,0-.505-.3A1.4,1.4,0,0,0,59.551,14.962Zm15.6,7.266a3.4,3.4,0,0,1,.044,1.025,2.047,2.047,0,0,1-.212.718,1.074,1.074,0,0,1-.388.417.96.96,0,0,1-.5.139.871.871,0,0,1-.608-.234,2.016,2.016,0,0,1-.432-.579,4.247,4.247,0,0,1-.293-.747q-.117-.4-.205-.747t-.154-.579q-.066-.234-.154-.234a.589.589,0,0,0-.388.212,5.634,5.634,0,0,0-.461.535q-.249.322-.549.7a5.324,5.324,0,0,1-.674.7,3.586,3.586,0,0,1-.828.535,2.322,2.322,0,0,1-1,.212,2.4,2.4,0,0,1-1.362-.41,3.667,3.667,0,0,1-1.055-1.1,5.673,5.673,0,0,1-.681-1.582,7.094,7.094,0,0,1-.242-1.86,9.246,9.246,0,0,1,.19-1.794,11.857,11.857,0,0,1,.549-1.9,10.556,10.556,0,0,1,.894-1.809,7.76,7.76,0,0,1,1.23-1.531,5.7,5.7,0,0,1,1.545-1.062,4.319,4.319,0,0,1,1.846-.4,3.329,3.329,0,0,1,1.406.271,2.878,2.878,0,0,1,.989.74,3.7,3.7,0,0,1,.645,1.1,7.54,7.54,0,0,1,.374,1.355,12.262,12.262,0,0,1,.176,1.5q.044.776.044,1.538t.022,1.479q.022.732.051,1.384t.081,1.172Q75.107,21.905,75.151,22.228ZM67.93,19.913A2.026,2.026,0,0,0,68.171,21q.242.381.447.381a1.325,1.325,0,0,0,.791-.293,4.258,4.258,0,0,0,.776-.769,7.67,7.67,0,0,0,.71-1.069,11.634,11.634,0,0,0,.579-1.194,9.61,9.61,0,0,0,.4-1.135,3.52,3.52,0,0,0,.146-.9q0-.015-.007-.161t-.037-.359q-.029-.212-.088-.461a1.932,1.932,0,0,0-.176-.469,1.125,1.125,0,0,0-.293-.359.663.663,0,0,0-.425-.139,1.185,1.185,0,0,0-.754.308,3.7,3.7,0,0,0-.71.813,8.53,8.53,0,0,0-.63,1.135,11.444,11.444,0,0,0-.505,1.282,11.562,11.562,0,0,0-.337,1.26A5.334,5.334,0,0,0,67.93,19.913Zm8.057,2.036a1.424,1.424,0,0,1,.249-.857.7.7,0,0,1,.557-.344.635.635,0,0,1,.417.168q.2.168.461.366a3.3,3.3,0,0,0,.645.366,2.358,2.358,0,0,0,.952.168q.088,0,.315-.022a1.314,1.314,0,0,0,.461-.139,1.163,1.163,0,0,0,.41-.352,1.108,1.108,0,0,0,.176-.674,1.378,1.378,0,0,0-.3-.916,3.127,3.127,0,0,0-.762-.645q-.461-.286-1-.549a5.536,5.536,0,0,1-1-.63A3.266,3.266,0,0,1,76.8,17a2.767,2.767,0,0,1-.344-1.333,4.207,4.207,0,0,1,.286-1.582,4.321,4.321,0,0,1,.886-1.421,4.45,4.45,0,0,1,1.443-1.018A4.617,4.617,0,0,1,81,11.256a4.718,4.718,0,0,1,.776.066,2.523,2.523,0,0,1,.718.227,1.4,1.4,0,0,1,.527.454,1.3,1.3,0,0,1,.205.762,2.843,2.843,0,0,1-.037.417,1.891,1.891,0,0,1-.139.476,1.158,1.158,0,0,1-.278.4.646.646,0,0,1-.454.161.881.881,0,0,1-.337-.066q-.161-.066-.322-.146t-.33-.146a1.017,1.017,0,0,0-.374-.066,1.586,1.586,0,0,0-.579.125,2.111,2.111,0,0,0-.579.344,2.007,2.007,0,0,0-.439.513,1.178,1.178,0,0,0-.176.615,1.112,1.112,0,0,0,.315.769,5.064,5.064,0,0,0,.784.681q.469.337,1.011.71A6.71,6.71,0,0,1,82.3,18.4a4.391,4.391,0,0,1,.784,1.121,3.352,3.352,0,0,1,.315,1.5,3.069,3.069,0,0,1-.417,1.67,3.251,3.251,0,0,1-1.047,1.047,4.236,4.236,0,0,1-1.362.542,6.6,6.6,0,0,1-1.348.154,3.986,3.986,0,0,1-1.494-.249,3.111,3.111,0,0,1-1-.623,2.352,2.352,0,0,1-.564-.806A2.163,2.163,0,0,1,75.986,21.949ZM88.071,6.817q-.015.176-.029.286a.364.364,0,0,0,.015.183.178.178,0,0,0,.117.1.957.957,0,0,0,.278.029h.154a1.638,1.638,0,0,0,.2-.015q.5-.029.974-.051t.974-.022q.527,0,1.238.029a8.777,8.777,0,0,1,1.34.154,3.566,3.566,0,0,1,1.069.374.763.763,0,0,1,.439.688.9.9,0,0,1-.2.564,1.533,1.533,0,0,1-.623.439,4.563,4.563,0,0,1-1.106.286,11.165,11.165,0,0,1-1.633.1q-.322,0-.688.029l-.725.059q-.359.029-.7.066t-.608.051a.6.6,0,0,0-.469.242,1.176,1.176,0,0,0-.176.579q-.1,1.6-.154,3.164t-.037,3q.015,1.436.11,2.688a21.082,21.082,0,0,0,.271,2.2q.132.63.286,1.128a8.422,8.422,0,0,1,.227.879,1.312,1.312,0,0,1-.015.652.847.847,0,0,1-.439.461,1.273,1.273,0,0,1-.571.146,1.251,1.251,0,0,1-.725-.227,2.9,2.9,0,0,1-.586-.535,4.056,4.056,0,0,1-.425-.608q-.168-.3-.227-.432a6.174,6.174,0,0,1-.388-1.428q-.154-.9-.242-2.014t-.125-2.344q-.037-1.23-.037-2.424t.029-2.256q.029-1.062.073-1.809a2.192,2.192,0,0,0,.015-.41q-.015-.073-.322-.073h-.352a2.035,2.035,0,0,1-1.187-.308.9.9,0,0,1-.439-.747.764.764,0,0,1,.146-.454,1.706,1.706,0,0,1,.4-.388,3.817,3.817,0,0,1,.6-.344q.344-.161.74-.322a1.25,1.25,0,0,0,.425-.271.871.871,0,0,0,.176-.535q.029-.557.088-1.179t.139-1.223q.081-.6.2-1.143a8.065,8.065,0,0,1,.264-.959,2.3,2.3,0,0,1,.337-.659.531.531,0,0,1,.41-.242,1.583,1.583,0,0,1,.439.073,1.811,1.811,0,0,1,.483.227,1.49,1.49,0,0,1,.41.41,1.354,1.354,0,0,1,.22.608q.015.117.022.483t.007.857q0,.491-.022,1.062T88.071,6.817Zm1.758,12.993q0-.513-.022-1.362t-.015-1.816q.007-.967.073-1.956a14.651,14.651,0,0,1,.22-1.787,4.327,4.327,0,0,1,.439-1.3.843.843,0,0,1,.74-.505,1.867,1.867,0,0,1,.872.168,1.076,1.076,0,0,1,.447.769,6.652,6.652,0,0,1,.1.74q.037.447.037,1.077,0,.337.015,1.143t.022,1.831q.007,1.025.015,2.146t-.007,2.117q-.015,1-.059,1.729a5,5,0,0,1-.117.967.472.472,0,0,1-.234.271,1.734,1.734,0,0,1-.359.146,1.924,1.924,0,0,1-.352.066q-.168.015-.227.015a.88.88,0,0,1-.688-.344,2.8,2.8,0,0,1-.491-.952,7.766,7.766,0,0,1-.3-1.421A13.892,13.892,0,0,1,89.829,19.811Zm.293-14.546a2.816,2.816,0,0,1,.11-.8,1.908,1.908,0,0,1,.33-.652,1.48,1.48,0,0,1,.557-.432,1.851,1.851,0,0,1,.776-.154,2.154,2.154,0,0,1,.608.088,1.4,1.4,0,0,1,.535.293,1.529,1.529,0,0,1,.381.527,1.948,1.948,0,0,1,.146.806,2.24,2.24,0,0,1-.161.879,1.74,1.74,0,0,1-.439.63,1.86,1.86,0,0,1-.637.374,2.241,2.241,0,0,1-.74.125,1.5,1.5,0,0,1-.74-.161,1.28,1.28,0,0,1-.447-.4,1.476,1.476,0,0,1-.22-.542A3.021,3.021,0,0,1,90.122,5.265Zm14.063,16.963a3.4,3.4,0,0,1,.044,1.025,2.047,2.047,0,0,1-.212.718,1.074,1.074,0,0,1-.388.417.96.96,0,0,1-.5.139.871.871,0,0,1-.608-.234,2.016,2.016,0,0,1-.432-.579,4.247,4.247,0,0,1-.293-.747q-.117-.4-.205-.747t-.154-.579q-.066-.234-.154-.234a.589.589,0,0,0-.388.212,5.634,5.634,0,0,0-.461.535q-.249.322-.549.7a5.324,5.324,0,0,1-.674.7,3.586,3.586,0,0,1-.828.535,2.322,2.322,0,0,1-1,.212,2.4,2.4,0,0,1-1.362-.41,3.667,3.667,0,0,1-1.055-1.1A5.673,5.673,0,0,1,94.29,21.2a7.094,7.094,0,0,1-.242-1.86,9.246,9.246,0,0,1,.19-1.794,11.857,11.857,0,0,1,.549-1.9,10.556,10.556,0,0,1,.894-1.809,7.76,7.76,0,0,1,1.23-1.531,5.7,5.7,0,0,1,1.545-1.062,4.319,4.319,0,0,1,1.846-.4,3.329,3.329,0,0,1,1.406.271,2.878,2.878,0,0,1,.989.74,3.7,3.7,0,0,1,.645,1.1,7.54,7.54,0,0,1,.374,1.355,12.262,12.262,0,0,1,.176,1.5q.044.776.044,1.538t.022,1.479q.022.732.051,1.384t.081,1.172Q104.141,21.905,104.185,22.228Zm-7.222-2.314A2.026,2.026,0,0,0,97.2,21q.242.381.447.381a1.325,1.325,0,0,0,.791-.293,4.258,4.258,0,0,0,.776-.769,7.67,7.67,0,0,0,.71-1.069,11.634,11.634,0,0,0,.579-1.194,9.61,9.61,0,0,0,.4-1.135,3.52,3.52,0,0,0,.146-.9q0-.015-.007-.161t-.037-.359q-.029-.212-.088-.461a1.932,1.932,0,0,0-.176-.469,1.125,1.125,0,0,0-.293-.359.663.663,0,0,0-.425-.139,1.185,1.185,0,0,0-.754.308,3.7,3.7,0,0,0-.71.813,8.53,8.53,0,0,0-.63,1.135,11.444,11.444,0,0,0-.505,1.282,11.562,11.562,0,0,0-.337,1.26A5.334,5.334,0,0,0,96.963,19.913Zm8.262-5.684a2.366,2.366,0,0,1,.117-.667,3.058,3.058,0,0,1,.337-.74,2.278,2.278,0,0,1,.542-.6,1.281,1.281,0,0,1,1.34-.11.874.874,0,0,1,.344.4,1.96,1.96,0,0,1,.146.645q.029.381.029.85,0,.894.278.894.146,0,.293-.22l.615-.923a6.833,6.833,0,0,1,.82-1,4.693,4.693,0,0,1,1.077-.813,2.838,2.838,0,0,1,1.4-.337,2.087,2.087,0,0,1,1.274.359,2.236,2.236,0,0,1,.74,1.025,5.43,5.43,0,0,1,.315,1.6,15.051,15.051,0,0,1-.029,2.08q-.073.981-.088,2.5t.117,3.75a1.776,1.776,0,0,1-.022.417,1.4,1.4,0,0,1-.139.425,1.123,1.123,0,0,1-.264.337.605.605,0,0,1-.41.139,1.667,1.667,0,0,1-1.208-.417,2.621,2.621,0,0,1-.645-1,4.534,4.534,0,0,1-.264-1.187q-.051-.608-.051-.974,0-.645.051-1.157t.1-1q.051-.483.1-.959a9.677,9.677,0,0,0,.051-1.033,6.734,6.734,0,0,0-.037-.784,2,2,0,0,0-.1-.469.5.5,0,0,0-.146-.227.265.265,0,0,0-.154-.059,1,1,0,0,0-.579.337,7.547,7.547,0,0,0-.769.864q-.41.527-.835,1.165T108.8,18.58a3.393,3.393,0,0,0-.256.586q-.1.293-.125.425a4.825,4.825,0,0,0-.044.725v.945q0,.5-.022,1a5.027,5.027,0,0,1-.117.916,1.957,1.957,0,0,1-.271.667.569.569,0,0,1-.5.256h-.293a1.356,1.356,0,0,1-.439-.081,2.259,2.259,0,0,1-.439-.205,2.16,2.16,0,0,1-.374-.286,1.069,1.069,0,0,1-.242-.322,4.325,4.325,0,0,1-.242-.974q-.1-.623-.154-1.4T105.21,19.2q-.015-.864-.015-1.685,0-1.025.015-1.9T105.225,14.229Z" transform="translate(255 1948)" fill="#ffd947"/>
    </g>
  </g>
</svg>
