<svg xmlns="http://www.w3.org/2000/svg" xmlns:xlink="http://www.w3.org/1999/xlink" width="523" height="251" viewBox="0 0 523 251">
  <defs>
    <clipPath id="clip-path">
      <rect id="Rectángulo_44632" data-name="Rectángulo 44632" width="523" height="251" rx="16" transform="translate(854 2819)" fill="#a6bbff"/>
    </clipPath>
  </defs>
  <g id="Grupo_173647" data-name="Grupo 173647" transform="translate(-854 -2819)">
    <path id="Trazado_177244" data-name="Trazado 177244" d="M16,0H507a16,16,0,0,1,16,16V235a16,16,0,0,1-16,16H16A16,16,0,0,1,0,235V16A16,16,0,0,1,16,0Z" transform="translate(854 2819)" fill="#c4d1ff"/>
    <g id="Enmascarar_grupo_259" data-name="Enmascarar grupo 259" clip-path="url(#clip-path)">
      <g id="Grupo_173506" data-name="Grupo 173506" transform="translate(732.385 2786.477)">
        <g id="Grupo_173507" data-name="Grupo 173507" transform="translate(-52.362 -1)">
          <path id="Trazado_177170" data-name="Trazado 177170" d="M335.788,328.987,315.7,349.079a39.012,39.012,0,0,1,20.092-20.092" transform="translate(-68.16 -71.03)" fill="#8284d2"/>
          <path id="Trazado_177171" data-name="Trazado 177171" d="M349.914,324.874l-38.332,38.332a38.886,38.886,0,0,1,.428-5.266L344.648,325.3a38.882,38.882,0,0,1,5.266-.428" transform="translate(-67.272 -70.142)" fill="#8284d2"/>
          <path id="Trazado_177172" data-name="Trazado 177172" d="M360.538,326.295,313,373.83a39.211,39.211,0,0,1-.837-4l44.37-44.37a39.418,39.418,0,0,1,4,.837" transform="translate(-67.398 -70.268)" fill="#8284d2"/>
          <path id="Trazado_177173" data-name="Trazado 177173" d="M369.7,330.354l-52.64,52.64q-.868-1.6-1.57-3.268l50.942-50.942q1.664.7,3.268,1.57" transform="translate(-68.116 -70.986)" fill="#8284d2"/>
          <path id="Trazado_177174" data-name="Trazado 177174" d="M377.847,336.335l-54.8,54.8q-1.135-1.316-2.137-2.7L375.147,334.2q1.383,1,2.7,2.137" transform="translate(-69.285 -72.155)" fill="#8284d2"/>
          <path id="Trazado_177175" data-name="Trazado 177175" d="M382.889,341.317q1.164,1.287,2.187,2.651l-54.4,54.4q-1.362-1.026-2.652-2.187Z" transform="translate(-70.822 -73.692)" fill="#8284d2"/>
          <path id="Trazado_177176" data-name="Trazado 177176" d="M389.712,350.063c.6,1.048,1.138,2.123,1.625,3.212L339.983,404.63c-1.09-.488-2.166-1.03-3.212-1.625Z" transform="translate(-72.71 -75.58)" fill="#8284d2"/>
          <path id="Trazado_177177" data-name="Trazado 177177" d="M395.485,360.652a37.844,37.844,0,0,1,.913,3.924l-45.114,45.115a38.049,38.049,0,0,1-3.924-.914Z" transform="translate(-74.996 -77.866)" fill="#8284d2"/>
          <path id="Trazado_177178" data-name="Trazado 177178" d="M399.832,373.747a38.913,38.913,0,0,1-.264,5.1l-34.01,34.01a39.062,39.062,0,0,1-5.1.264Z" transform="translate(-77.824 -80.693)" fill="#8284d2"/>
          <path id="Trazado_177179" data-name="Trazado 177179" d="M401.261,391.979a38.952,38.952,0,0,1-22.574,22.574Z" transform="translate(-81.76 -84.63)" fill="#8284d2"/>
          <path id="Trazado_177180" data-name="Trazado 177180" d="M788.688,15.567A312.834,312.834,0,0,0,690.809,0C529.521,0,398.77,120.954,398.77,270.159a251.8,251.8,0,0,0,5.3,51.4H788.688Z" transform="translate(-86.096)" fill="#f0f4ff"/>
          <path id="Trazado_177181" data-name="Trazado 177181" d="M226.571,23.783A152.1,152.1,0,0,1,87.456,114.338a151.894,151.894,0,0,1-45.877-7.049V23.783Z" transform="translate(78.398 -5.135)" fill="#f0f4ff"/>
          <path id="Trazado_177182" data-name="Trazado 177182" d="M774.524,133.675l-20.092,20.092a39.012,39.012,0,0,1,20.092-20.092" transform="translate(-162.885 -28.861)" fill="#fff"/>
          <path id="Trazado_177183" data-name="Trazado 177183" d="M788.65,129.561l-38.332,38.332a38.886,38.886,0,0,1,.428-5.266l32.638-32.638a38.884,38.884,0,0,1,5.266-.428" transform="translate(-161.997 -27.973)" fill="#fff"/>
          <path id="Trazado_177184" data-name="Trazado 177184" d="M799.274,130.982l-47.536,47.536a39.433,39.433,0,0,1-.836-4l44.37-44.37a39.422,39.422,0,0,1,4,.837" transform="translate(-162.123 -28.099)" fill="#fff"/>
          <path id="Trazado_177185" data-name="Trazado 177185" d="M808.439,135.042l-52.64,52.64q-.868-1.6-1.57-3.268l50.941-50.942q1.665.7,3.269,1.57" transform="translate(-162.841 -28.817)" fill="#fff"/>
          <path id="Trazado_177186" data-name="Trazado 177186" d="M816.583,141.023l-54.8,54.8q-1.135-1.316-2.137-2.7l54.241-54.24q1.383,1,2.7,2.137" transform="translate(-164.01 -29.986)" fill="#fff"/>
          <path id="Trazado_177187" data-name="Trazado 177187" d="M821.625,146.005q1.164,1.287,2.187,2.651l-54.4,54.4q-1.362-1.026-2.652-2.187Z" transform="translate(-165.547 -31.523)" fill="#fff"/>
          <path id="Trazado_177188" data-name="Trazado 177188" d="M828.448,154.751c.6,1.048,1.138,2.123,1.625,3.212l-51.354,51.354c-1.09-.488-2.166-1.03-3.212-1.625Z" transform="translate(-167.435 -33.411)" fill="#fff"/>
          <path id="Trazado_177189" data-name="Trazado 177189" d="M834.221,165.339a38.031,38.031,0,0,1,.914,3.924L790.02,214.378a38.053,38.053,0,0,1-3.924-.914Z" transform="translate(-169.721 -35.697)" fill="#fff"/>
          <path id="Trazado_177190" data-name="Trazado 177190" d="M838.568,178.434a38.933,38.933,0,0,1-.264,5.1l-34.01,34.009a38.919,38.919,0,0,1-5.1.265Z" transform="translate(-172.549 -38.525)" fill="#fff"/>
          <path id="Trazado_177191" data-name="Trazado 177191" d="M840,196.666a38.951,38.951,0,0,1-22.574,22.574Z" transform="translate(-176.485 -42.461)" fill="#fff"/>
          <path id="Trazado_177192" data-name="Trazado 177192" d="M461.15,351.2c-11.118-11.056-18.2-26.014-30.725-35.443-5.94-4.472-12.845-7.48-19.821-10.052a197.96,197.96,0,0,0-51.364-11.473,3.079,3.079,0,0,0-1.926.255,2.764,2.764,0,0,0-1,2.172c-.691,7.481,5.611,13.664,11.812,17.906A104.206,104.206,0,0,0,400.1,329.234c17.843,4.748,37.708,5.078,52.516,16.105Z" transform="translate(-76.919 -63.519)" fill="#27ac81"/>
          <path id="Trazado_177193" data-name="Trazado 177193" d="M365.25,303.112c27.539,5.631,55.708,13.254,77.528,30.974,8.573,6.963,15.916,15.3,23.212,23.588l20.15,22.894" transform="translate(-78.859 -65.443)" fill="none" stroke="#fff" stroke-miterlimit="10" stroke-width="1"/>
          <path id="Trazado_177194" data-name="Trazado 177194" d="M464.781,338.165a170.829,170.829,0,0,0-81.294-103.156c-1.763-.971-4.013-1.9-5.668-.751-1.316.911-1.589,2.718-1.657,4.316-.707,16.582,8.2,32.326,19.917,44.083s26.16,20.325,39.857,29.7,27.113,20.037,35.342,34.45" transform="translate(-81.206 -50.463)" fill="#54c293"/>
          <path id="Trazado_177195" data-name="Trazado 177195" d="M384.605,242.217c42.81,43.769,86.417,89.8,106.833,147.525" transform="translate(-83.038 -52.296)" fill="none" stroke="#fff" stroke-miterlimit="10" stroke-width="1"/>
          <path id="Trazado_177196" data-name="Trazado 177196" d="M20.819,163.249c7.339-7.3,12.012-17.172,20.281-23.4a50.52,50.52,0,0,1,13.083-6.635,130.641,130.641,0,0,1,33.905-7.573,2.033,2.033,0,0,1,1.272.168,1.826,1.826,0,0,1,.657,1.434c.456,4.938-3.7,9.019-7.8,11.819a68.792,68.792,0,0,1-21.1,9.68c-11.778,3.134-24.89,3.352-34.666,10.631Z" transform="translate(142.145 -27.122)" fill="#27ac81"/>
          <path id="Trazado_177197" data-name="Trazado 177197" d="M81.212,131.5c-18.178,3.717-36.773,8.748-51.176,20.447-5.66,4.595-10.506,10.1-15.323,15.569l-13.3,15.112" transform="translate(140.708 -23.77)" fill="none" stroke="#fff" stroke-miterlimit="10" stroke-width="1"/>
          <path id="Trazado_177198" data-name="Trazado 177198" d="M20.189,154.643A112.765,112.765,0,0,1,73.851,86.55c1.164-.641,2.649-1.252,3.742-.5A3.508,3.508,0,0,1,78.687,88.9c.467,10.946-5.414,21.338-13.148,29.1s-17.267,13.416-26.31,19.6-17.9,13.226-23.328,22.74" transform="translate(143.207 -18.504)" fill="#54c293"/>
          <path id="Trazado_177199" data-name="Trazado 177199" d="M70.991,91.308C42.732,120.2,13.948,150.587.472,188.688" transform="translate(140.911 -15.092)" fill="none" stroke="#fff" stroke-miterlimit="10" stroke-width="1"/>
          <line id="Línea_1416" data-name="Línea 1416" y2="1.499" transform="translate(232.198 305.149)" fill="#1d2b5e"/>
          <path id="Trazado_177200" data-name="Trazado 177200" d="M464.919,235.715c1.571,8.056-1.51,15.982-3.224,23.746a62.753,62.753,0,0,0-.984,23.1,53.11,53.11,0,0,0,17.356,31.232,48.086,48.086,0,0,0,17.326,9.977c.133.042.184-.158.056-.206a55.021,55.021,0,0,1-27.4-22.839,50.876,50.876,0,0,1-6.4-16.672,61.165,61.165,0,0,1,.535-23.837c1.693-8.053,4.919-16.236,2.865-24.536-.021-.085-.148-.049-.132.037" transform="translate(-99.328 -50.873)" fill="#1d2b5e"/>
          <path id="Trazado_177201" data-name="Trazado 177201" d="M458.492,217.325c5.776,5.909,5.44,14.755,3.636,22.222-1.049,4.342-2.524,8.571-3.728,12.872a129.856,129.856,0,0,0-2.958,12.774c-2.642,15.192-1.439,32,8.349,44.587,5.511,7.083,13.629,11.234,20.44,16.869.142.118.347-.078.206-.206-5.852-5.327-13.01-9.058-18.3-15.024a44,44,0,0,1-9.752-20.338c-1.747-8.37-1.374-17.021.049-25.41a129.7,129.7,0,0,1,2.962-12.979c1.176-4.24,2.616-8.411,3.652-12.69,1.867-7.7,1.906-17.039-4.455-22.773Z" transform="translate(-98.07 -46.901)" fill="#1d2b5e"/>
          <path id="Trazado_177202" data-name="Trazado 177202" d="M458.862,221.187c4.944,4.672,6.223,12.114,5.644,18.89s-2.716,13.338-3.465,20.1a51.749,51.749,0,0,0,3.463,24.815c5.794,14.463,17.564,25.684,29.977,35.1,6.334-8.371,12.421-17.287,14.885-27.49s.635-22.038-7.035-29.2Z" transform="translate(-99.07 -47.755)" fill="#1d2b5e"/>
          <path id="Trazado_177203" data-name="Trazado 177203" d="M485.449,240.6c-6.078,11.747-7.136,25.579-4.388,38.407,2.693,12.57,9.239,24.025,17.789,33.533a93.454,93.454,0,0,0,16.136,14.168c.28.2.536-.259.265-.454-10.114-7.3-19.108-16.338-25.5-27.108a66.234,66.234,0,0,1-9.532-36.816,56.545,56.545,0,0,1,5.412-21.622c.058-.123-.121-.231-.185-.107" transform="translate(-103.553 -51.935)" fill="#1d3268"/>
          <path id="Trazado_177204" data-name="Trazado 177204" d="M479.272,241.024c-4.871,13.394-7.178,28.022-5.113,42.21a63.221,63.221,0,0,0,6.266,19.706A88.1,88.1,0,0,0,491.816,319.6a170.206,170.206,0,0,0,16.332,16.679.117.117,0,0,0,.165-.165c-9.339-9.678-19.2-18.911-25.94-30.705-7.1-12.411-9.46-26.595-8.1-40.743a104.393,104.393,0,0,1,5.265-23.571c.057-.167-.2-.235-.263-.072" transform="translate(-102.209 -52.018)" fill="#1d3268"/>
          <path id="Trazado_177205" data-name="Trazado 177205" d="M458.19,58.4c-7.341-.118-14.823-.216-21.842,1.938s-13.623,6.972-16.014,13.913c-2.695,7.823.372,16.337,3.408,24.036l6.691,16.97A76.626,76.626,0,0,1,457.74,75.92Z" transform="translate(-90.528 -12.598)" fill="#1d2b5e"/>
          <path id="Trazado_177206" data-name="Trazado 177206" d="M608.26,355.889c18.166-.761,36.319-2.46,54.494-1.95-2.5-5.934-5.294-11.864-9.567-16.682-8.067-9.1-20.237-13.075-31.1-18.538a112.063,112.063,0,0,1-46.221-43.513,222.717,222.717,0,0,1-10.331-21.058,87.9,87.9,0,0,1-3.978-9.947,65.794,65.794,0,0,0-2.725-8.492c-3.443-7.41-11.157-11.7-18.39-15.5a130.677,130.677,0,0,1-5.315,32.14,12.555,12.555,0,0,1,1.824,3.843c4.982,28.232,1.661,57.295,18.268,82.205a78.026,78.026,0,0,0,18.019,17.921c11.675.161,23.35.063,35.02-.427" transform="translate(-115.537 -47.543)" fill="#e5e5e5"/>
          <path id="Trazado_177207" data-name="Trazado 177207" d="M541.893,347.245c-16.607-24.911-13.286-53.974-18.268-82.206A12.533,12.533,0,0,0,521.8,261.2a130.446,130.446,0,0,1-11.467,27.11l-7.773,10.508C487.651,315.692,473.5,347.62,473.4,358.87c24.508,1.5,61.969,5.958,86.511,6.3a78.058,78.058,0,0,1-18.018-17.921" transform="translate(-102.209 -56.393)" fill="#fff"/>
          <path id="Trazado_177208" data-name="Trazado 177208" d="M743.5,326.909c3.71-62.417-118.908-92.594-161.24-123-25.46-21.889-49.905-61.457-89.028-49.277-10.443,4.436-15.974,17.187-17.078,27.947,7.752,17.848,40.381,15.815,48.83,23.358,29.738,25.151,17.656,70.775,37.575,100.61,30.785,32.1,87.547,17.337,115.023,53.99,6.279-13.755,64.68-17.969,65.918-33.629" transform="translate(-102.803 -32.894)" fill="#1d2b5e"/>
          <path id="Trazado_177209" data-name="Trazado 177209" d="M495.8,185.421c4.7,7.394,13.025,11.031,21.04,13.671,4.812,1.585,9.72,2.93,14.389,4.919a38.425,38.425,0,0,1,11.853,7.715c14.158,13.751,16.128,34.617,21.76,52.494a75.081,75.081,0,0,0,12.807,24.613,85.079,85.079,0,0,0,19.779,17.73c16.925,11.165,36.738,16.822,56.381,21,19.409,4.126,41.372,6.459,56.278,21.015a49.142,49.142,0,0,1,4.435,4.981c.255.329.823-.106.58-.448-11.593-16.4-32.995-20.914-51.43-24.617-20.3-4.078-40.934-8.758-59.162-18.971-15.959-8.942-29.846-22.159-36.768-39.344-7.125-17.688-8.112-38.006-19.848-53.688a39.793,39.793,0,0,0-8.923-8.794,50.054,50.054,0,0,0-12.907-6.107c-8.878-3-18.428-5.038-25.753-11.267a24.146,24.146,0,0,1-4.429-4.946Z" transform="translate(-107.046 -40.023)" fill="#1d3268"/>
          <path id="Trazado_177210" data-name="Trazado 177210" d="M501.289,173.847c6.815,7.274,16.609,10.052,25.731,13.239a70.2,70.2,0,0,1,13.967,6.2,42.758,42.758,0,0,1,11.664,10.926c13.123,17.616,14.585,40.871,26.891,58.916,6.092,8.933,14.726,15.186,24.7,19.186,10.632,4.265,22.105,6.139,33.422,7.5,25.948,3.129,52.242,2.526,78.073,6.75a151.291,151.291,0,0,1,35.351,9.819c10.167,4.365,20.436,10.16,27.434,18.942a37.277,37.277,0,0,1,4.377,6.955c.235.485.957.061.722-.423-4.661-9.6-13.318-16.44-22.485-21.5a127.956,127.956,0,0,0-33.551-12.349c-25.01-5.7-50.773-5.666-76.221-7.7-12.541-1-25.24-2.324-37.416-5.623-10.632-2.88-21.045-7.582-28.741-15.673-15.513-16.309-17.191-40.433-28.228-59.34a53.019,53.019,0,0,0-9.223-11.906,43.455,43.455,0,0,0-12.531-8.109c-9.133-4.008-19.269-5.875-27.777-11.256a33.644,33.644,0,0,1-5.98-4.739c-.114-.115-.29.061-.179.18" transform="translate(-108.223 -37.487)" fill="#1d3268"/>
          <path id="Trazado_177211" data-name="Trazado 177211" d="M507.4,205.283l-.059.2c-.988,4.368-2.068,8.786-3.3,13.17-4.26,15.17-10.363,30.009-21.108,41.526a1.857,1.857,0,0,1-3.213-1.27c.016-19.63-6.751-36.893-21.889-50.312-9.873-9.275-18.667-20.361-30.4-27.294-7.5-4.434-16.424-3.645-24.52-5.787-.091-.025-.183-.059-.274-.092-11.617-4.758-6.494-10.77-5.664-19.015.059-.548.092-1.112.1-1.686a4.676,4.676,0,0,0-1.676-3.022c-.2-.191-.408-.374-.615-.557-1.52-1.354-3.106-2.582-2.342-4.991a4.961,4.961,0,0,1,.515-1.1,1.481,1.481,0,0,0,.191-.466,1.737,1.737,0,0,0-.083-1.195,1.914,1.914,0,0,0-.548-.748c-1.785-1.478-1.743-2.607-1.038-3.637,1.171-1.694,4.169-3.139,3.854-5.505a4.1,4.1,0,0,0-.955-2,2.32,2.32,0,0,0-.241-.249c-1.652-1.462-5.721-3.43-6.991-5.522-.756-1.229-.532-2.5,1.718-3.736,6.718-3.164,14.922-4.5,19.389-10.388a1.883,1.883,0,0,0,.282-.523c7.822-21.98,11.21-39,35.872-48.859a1.887,1.887,0,0,1,.648-.133l9.067-.325a1.889,1.889,0,0,1,1.479.64c14.78,17.122,16.357,41.776,14.2,64.188-.224,2.432-.507,4.832-.814,7.2a1.855,1.855,0,0,0,2.816,1.81c6.468-4.1,15.054-2.608,15.5,6.859.15,6-4.11,12.255-9.524,15.81a16.966,16.966,0,0,1-8.03,2.922,10.3,10.3,0,0,1-6.8-1.868l-.208-.15a1.867,1.867,0,0,0-2.882,2.01c3.256,11.991,18.061,18.11,29.952,19.48,16.632,2.126,23.765,7.656,17.6,24.612" transform="translate(-83.501 -13.336)" fill="#ffd19d"/>
          <path id="Trazado_177212" data-name="Trazado 177212" d="M433.965,112.976c1.352.71,2.712,1.733,4.228,1.539.022-1.153.345-2.483-.389-3.425a9.91,9.91,0,0,0-6.728-3.724c-1.411-.28-2.822-.572-4.235-.843a3.267,3.267,0,0,0-.96-.067,2.66,2.66,0,0,0-.7.176c-1.7.654-3.719,3.789-3.042,5.754,2.014.429,3.96-.54,5.965-.648a11.3,11.3,0,0,1,5.856,1.239" transform="translate(-91.114 -22.982)" fill="#ffbd85"/>
          <path id="Trazado_177213" data-name="Trazado 177213" d="M507.648,160.317c.149,6-4.11,12.256-9.525,15.811a41.391,41.391,0,0,0,1.844-3.878c.523-1.271.971-2.791.266-3.978a4.686,4.686,0,0,0-2.292-1.669c-4.558-2.076-9.284-4.143-12.763-7.747s-5.422-9.2-3.28-13.734l8.246-.673c-.224,2.433-.506,4.833-.814,7.2a1.854,1.854,0,0,0,2.815,1.811c6.469-4.1,15.055-2.608,15.5,6.859" transform="translate(-103.851 -31.187)" fill="#d19767"/>
          <path id="Trazado_177214" data-name="Trazado 177214" d="M487.792,164.732a4.74,4.74,0,0,1,2.489-3.906,7.7,7.7,0,0,1,8.06-.242A5.955,5.955,0,0,1,500.6,168a11.147,11.147,0,0,0-2.722-3.809,4.025,4.025,0,0,0-2.112-1.146,1.8,1.8,0,0,0-1.963,1.091c-.463,1.513,1.741,2.767,1.527,4.334-.323,2.359-3.748,1.415-5.29,2.4a6.492,6.492,0,0,0-2.432,2.146q.358-2.2.717-4.393a3.391,3.391,0,0,0-.017-1.905,6.987,6.987,0,0,1-.516-1.983" transform="translate(-105.276 -34.449)" fill="#d19767"/>
          <path id="Trazado_177215" data-name="Trazado 177215" d="M736.391,153.608l-1.636,21.839-.033.481-1.977,26.356-.05.631L730.254,235.5l-.042.5-3.786,50.569s-25.218-32.7-69.443-51.383c-44.209-18.683-64.769-2.8-88.433-16.806s-11.21-36.752-29.694-58.872-43.794-18.983-56.249-23.649c-11.533-4.327-9.707-15.869-7.647-24.97.033-.124.058-.249.091-.373.132-.59.266-1.171.4-1.745a10.405,10.405,0,0,0,.274-3.03c-.008-.2-.025-.391-.05-.582-.572-5.431-5.289-9.459-8.42-12.954-.092-.1-.175-.2-.265-.3a12.578,12.578,0,0,1-2.126-3.064c-2.184-4.982,6.851-11.841,3.213-16.889a24.185,24.185,0,0,0-5.372-4.923c-.1-.076-.191-.141-.282-.217a22.268,22.268,0,0,1-4.933-4.516l-.141-.191a8.587,8.587,0,0,1-1.487-3.761c24.621-25.833,70.033-7.806,88.717,12.124s15.885,40.48,58.233,44.217a74.955,74.955,0,0,1,18.376,3.736h.008q.8.274,1.57.573h.009c23.433,8.993,28.191,28.764,54.455,42.4,32.384,16.815,59.163-7.781,59.163-7.781" transform="translate(-98.422 -9.831)" fill="#1d3877"/>
          <path id="Trazado_177216" data-name="Trazado 177216" d="M433.211,125.683a2.951,2.951,0,0,0,2.122-.854l-.019-.033a3.776,3.776,0,0,1-2.918-.225l-.171-.078c-.913-.589-2.078-.313-3.238-.067-3.114.661-5.82,1.091-8.529-.919-.273-.2-.616.186-.452.452a5.461,5.461,0,0,0,4.258,2.458,8.822,8.822,0,0,0,2.463-.153,4.888,4.888,0,0,0,1.743.561l.011-.076a4.8,4.8,0,0,1-1.535-.527c.22-.043.438-.088.655-.136.169-.038.326-.064.491-.1.659.691,2.312.764,3.02.731v-.078a4.06,4.06,0,0,1-1.887-.8l-.066-.055c.267-.044.534-.086.8-.124a3.469,3.469,0,0,0,1.434.727,3.394,3.394,0,0,0,1.752-.16l-.01-.076a3.027,3.027,0,0,1-1.865-.654c.231-.024.472-.047.71-.069a4.115,4.115,0,0,0,1.235.252" transform="translate(-90.672 -26.654)" fill="#1d1d56"/>
          <path id="Trazado_177217" data-name="Trazado 177217" d="M480.09,146.144a15.021,15.021,0,0,0,3.241,11.927,23.94,23.94,0,0,0,11.345,7.648c5.162,1.822,10.646,2.607,16.013,3.579q8.839,1.6,17.677,3.2c9.646,1.761,20.079,3.888,27.347,11,6.417,6.277,9.208,15.11,12.189,23.332,2.961,8.166,6.369,16.327,13.126,22.111,7.753,6.637,17.815,9.6,27.677,11.362,5.738,1.026,11.53,1.709,17.278,2.677q8.658,1.458,17.153,3.728a173.412,173.412,0,0,1,33.217,12.422c10.235,5.156,19.505,12.043,28.64,18.906,8.841,6.643,17.684,13.408,25.358,21.407q2.854,2.974,5.466,6.165l.055-.055c-6.817-8.435-15.015-15.708-23.5-22.424-8.692-6.882-17.491-13.78-26.925-19.624a147.766,147.766,0,0,0-30.934-14.048,195.744,195.744,0,0,0-33.644-7.916c-10.758-1.589-21.844-2.9-31.656-7.921a36.765,36.765,0,0,1-11.713-9.146,45.273,45.273,0,0,1-6.615-11.622c-3.26-7.864-5.333-16.316-9.817-23.63a30.8,30.8,0,0,0-8.456-9.184,41.505,41.505,0,0,0-12.9-5.736c-4.914-1.366-9.959-2.195-14.974-3.088l-17.623-3.14c-9.846-1.754-21.7-4.19-26.029-14.51a13.653,13.653,0,0,1-.947-7.4Z" transform="translate(-103.603 -31.553)" fill="#1d2b5e"/>
          <path id="Trazado_177218" data-name="Trazado 177218" d="M536.985,56.829c13.879,5.675,24.2,17.021,34.241,27.721,9.7,10.339,20.051,21.091,33.708,26,8.8,3.159,18.245,3.452,27.456,4.363a80.11,80.11,0,0,1,14.149,2.431,46.21,46.21,0,0,1,12.762,5.974c7.73,5.1,14.307,11.732,21.79,17.172a87.905,87.905,0,0,0,24.37,12.835A58.045,58.045,0,0,0,732.27,155.7a45.461,45.461,0,0,0,12.806-3.964,56.938,56.938,0,0,0,11.646-7.862c1.861-1.565,3.669-3.19,5.475-4.817l-.1-.1a112.6,112.6,0,0,1-11.711,9.268,44.987,44.987,0,0,1-12.831,5.811,54.854,54.854,0,0,1-27.845-.094,80.994,80.994,0,0,1-25.146-11.714c-7.665-5.17-14.292-11.6-21.694-17.107a53.655,53.655,0,0,0-11.4-6.691,56.081,56.081,0,0,0-13.546-3.465c-9.211-1.316-18.625-1.266-27.705-3.459-14.821-3.58-25.929-14.068-36.185-24.749C564.19,76.5,554.508,65.2,541.566,58.746q-2.229-1.113-4.555-2.01Z" transform="translate(-115.937 -12.25)" fill="#1d3268"/>
          <path id="Trazado_177219" data-name="Trazado 177219" d="M662.324,138.333c5.77.16,11.041,2.721,15.857,5.714,4.881,3.034,9.468,6.515,14.023,10.012,8.721,6.7,17.376,13.7,27.436,18.32a52.909,52.909,0,0,0,15.168,4.507,78.7,78.7,0,0,0,17.056.118,106.646,106.646,0,0,0,29.839-7.08,101,101,0,0,0,29.6-17.7c.143-.126-.063-.322-.206-.207A114.317,114.317,0,0,1,784.425,168.3a107.172,107.172,0,0,1-30.132,7.921,89.294,89.294,0,0,1-16.318.464,51.6,51.6,0,0,1-16.159-3.9c-10.272-4.286-19.1-11.227-27.853-17.962a171.819,171.819,0,0,0-15.322-10.84c-4.961-3.019-10.4-5.631-16.317-5.725Z" transform="translate(-142.998 -29.85)" fill="#1d3268"/>
          <path id="Trazado_177220" data-name="Trazado 177220" d="M587.667,110.8c8.754,9.393,21.079,14.26,33.6,16.01,14.788,2.068,29.706-.227,44.312-2.607,15.136-2.467,30.5-5.093,45.87-3.372a64.869,64.869,0,0,1,21.589,6.136c6.473,3.2,12.356,7.439,18.141,11.726,11.1,8.225,22.836,17.364,36.98,19.18a37.945,37.945,0,0,0,5.3.3.2.2,0,0,0,0-.39c-14.616.045-27.24-8.505-38.531-16.86-5.754-4.257-11.461-8.621-17.679-12.191a64.08,64.08,0,0,0-19.89-7.421c-14.469-2.779-29.309-1.117-43.724,1.14-15.29,2.395-30.733,5.55-46.29,4.519-12.863-.852-26.172-4.629-36.138-13.12a45.156,45.156,0,0,1-3.381-3.2c-.1-.1-.245.051-.151.151" transform="translate(-126.873 -23.882)" fill="#1d3268"/>
          <path id="Trazado_177221" data-name="Trazado 177221" d="M515.739,207.633c7.4.206,14.137,3.97,19.428,8.954a50.88,50.88,0,0,1,12.263,18.274c2.924,7.4,3.684,15.113,3.793,23.007a199.192,199.192,0,0,0,1.534,25.079,108.056,108.056,0,0,0,5.765,23.923,65.8,65.8,0,0,0,10.252,17.62c8.609,10.657,20.087,18.751,32.373,24.643,14.362,6.887,29.861,11.046,45.295,14.751q2.889.693,5.779,1.376c.267.064.382-.347.114-.413-15.711-3.819-31.552-7.589-46.43-14.056-12.908-5.612-25.079-13.36-34.492-23.934a66.071,66.071,0,0,1-11.238-17.311c-3.353-7.652-5.178-15.915-6.489-24.134a174.811,174.811,0,0,1-1.916-25.742c-.085-7.89-.534-15.669-3.2-23.168a51.8,51.8,0,0,0-10.858-17.927c-4.6-4.941-10.477-9.184-17.176-10.637a22.871,22.871,0,0,0-4.8-.5.1.1,0,0,0,0,.194" transform="translate(-111.33 -44.787)" fill="#1d2b5e"/>
          <path id="Trazado_177222" data-name="Trazado 177222" d="M554.678,217.321c5.109,5.167,9.046,11.424,12.548,17.751,3.776,6.827,7.065,13.907,10.5,20.909,3.194,6.518,6.427,13.124,10.583,19.1a60.157,60.157,0,0,0,17.174,16.105c15.4,9.829,33.537,13.455,51.285,16.454,9.865,1.666,19.72,3.31,29.477,5.54,9.626,2.2,19.172,4.8,28.56,7.866A118.628,118.628,0,0,1,741.175,332.9,192.989,192.989,0,0,1,763.648,350c1.767,1.5,3.528,3.011,5.323,4.482.238.194.578-.129.343-.345a221.148,221.148,0,0,0-21.552-17.669A109.8,109.8,0,0,0,723.3,323.317a257.6,257.6,0,0,0-28.445-8.725c-9.593-2.443-19.286-4.412-29.045-6.064-18.412-3.116-37.394-5.678-54.165-14.425a66.028,66.028,0,0,1-19.624-15.088c-4.813-5.574-8.3-12.2-11.607-18.731-3.539-6.985-6.839-14.089-10.487-21.018-3.381-6.421-7.017-12.931-11.768-18.457a47.738,47.738,0,0,0-3.4-3.569Z" transform="translate(-119.757 -46.903)" fill="#1d3268"/>
          <path id="Trazado_177223" data-name="Trazado 177223" d="M470.21,104.706c.033.091.074.174.108.265-.092-.1-.175-.2-.266-.3Z" transform="translate(-101.486 -22.599)" fill="#1d2b5e"/>
          <path id="Trazado_177224" data-name="Trazado 177224" d="M795.031,192.014a73.077,73.077,0,0,1-6,5.8c-14.2,12.223-32.36,19.206-50.877,21.523-2.947.374-5.912.623-8.868.764-23.416,1.071-46.5-5.53-67.1-16.366A195.148,195.148,0,0,1,632.006,183.9c-9.948-7.872-18.725-17.4-29.428-24.288-22.453-14.457-50.321-12.779-75.7-16.7-16.433-2.541-34.253-8.453-45.7-20.759-.009-.2-.025-.391-.051-.582,14.7,16.026,38.206,20.361,59.106,22.461,12.506,1.254,25.1,2.084,37.383,4.924a79.576,79.576,0,0,1,32.235,15.229c4.841,3.87,9.358,8.121,14.024,12.2,4.609,4.027,9.375,7.88,14.307,11.509a183.985,183.985,0,0,0,30.583,18.459c20.9,9.873,44.067,15.079,67.193,12.613.747-.083,1.494-.166,2.242-.266,21.232-2.715,41.294-11.758,56.448-27.069.241-.25.623.133.382.382" transform="translate(-103.877 -26.248)" fill="#1d2b5e"/>
          <path id="Trazado_177225" data-name="Trazado 177225" d="M777.663,248.683a53.351,53.351,0,0,1-7.855,3.172c-11.069,3.437-22.918,3.487-34.336,2.034-.308-.034-.606-.075-.906-.116a155.537,155.537,0,0,1-32.1-7.93,163.41,163.41,0,0,1-55.385-33.7c-8.379-7.755-15.428-16.5-22.5-25.418-7.324-9.25-15.229-17.769-25.941-23.1-22.386-11.161-48.177-8.877-72.258-12.364-16.873-2.441-35.349-8.843-46.16-22.486.034-.124.059-.249.091-.373,13.668,17.188,37.317,21.921,58.126,23.723,22.694,1.96,47.489,1.752,67.169,14.946,9.457,6.353,16.358,15.52,23.317,24.363A172.181,172.181,0,0,0,651.589,215.5a162.875,162.875,0,0,0,56.979,31.861,150.018,150.018,0,0,0,26.945,6.029q3.238.4,6.484.623c12.074.847,24.421-.431,35.449-5.7.248-.125.464.241.216.365" transform="translate(-103.681 -27.723)" fill="#1d2b5e"/>
          <path id="Trazado_177226" data-name="Trazado 177226" d="M779.783,153.235q-2.826,3.376-5.971,6.469a89.58,89.58,0,0,1-37.283,21.713,88.43,88.43,0,0,1-27.519,3.621,91.431,91.431,0,0,1-35.556-8.362,88.936,88.936,0,0,1-16.268-9.731c-4.907-3.711-9.458-7.864-14.182-11.808a76.08,76.08,0,0,0-15.884-10.753,64.1,64.1,0,0,0-18.875-5.132c-12.556-1.711-25.592-1.42-37.674-5.722-21.589-7.7-32.981-29.211-49.074-44C506.36,75.62,484.687,68.2,464.51,72.515c-.1-.075-.191-.141-.282-.216a60.9,60.9,0,0,1,31.761,1.76,71.978,71.978,0,0,1,28.464,17.629c7.963,7.847,14.7,16.815,22.479,24.828,8.253,8.487,17.653,15.254,29.286,18.144,12.5,3.089,25.526,2.54,38.106,5.09a54.8,54.8,0,0,1,17.288,6.461,103.972,103.972,0,0,1,14.216,10.678,178.778,178.778,0,0,0,15.13,12.165,88.541,88.541,0,0,0,17.172,9.109,90.521,90.521,0,0,0,37.125,6.377,86.646,86.646,0,0,0,21.308-3.6,91.883,91.883,0,0,0,43.029-27.892c.117-.133.307.058.191.191" transform="translate(-100.229 -15.319)" fill="#1d2b5e"/>
          <path id="Trazado_177227" data-name="Trazado 177227" d="M405.393,168.555c-.656.092-1.3.241-1.959.3a12,12,0,0,1-2.184-.117,21.083,21.083,0,0,1-3.944-.789,23.227,23.227,0,0,1-2.424-.881,1.737,1.737,0,0,0-.083-1.195,20.5,20.5,0,0,0,2.791,1.138,26.541,26.541,0,0,0,3.778.938c.631.108,1.279.158,1.918.242.714.09,1.387.265,2.1.307Z" transform="translate(-85.238 -35.813)" fill="#d1a167"/>
          <path id="Trazado_177228" data-name="Trazado 177228" d="M433.662,108.985a12.816,12.816,0,0,1,6.482,4.208l-.084-1.075a15.027,15.027,0,0,0-12.783-8.736,1.58,1.58,0,0,0-1.232.315,1.354,1.354,0,0,0-.143,1.371" transform="translate(-91.929 -22.319)" fill="#1d2b5e"/>
          <path id="Trazado_177229" data-name="Trazado 177229" d="M483.925,186.194a16.278,16.278,0,0,1,2.6.582c1.411.4,2.806.846,4.2,1.287a10.3,10.3,0,0,1-6.8-1.868" transform="translate(-104.481 -40.2)" fill="#d1a167"/>
          <path id="Trazado_177230" data-name="Trazado 177230" d="M522.855,232.119l-.059.2c-.988,4.368-2.068,8.786-3.3,13.17a39.784,39.784,0,0,0-5.148-4.941c-5.173-4.143-11.268-6.966-16.907-10.454a80.645,80.645,0,0,1-14.788-11.776,18.368,18.368,0,0,1-4.191-5.392c-.889-2.032-2.646-3.522-4.235-5.022-3.483-3.286-7.476-6.258-12.2-7.408a8.555,8.555,0,0,1-2.506-.826,2.22,2.22,0,0,1-1.156-2.2c.259-1.222,1.73-1.66,2.928-2.01a24.15,24.15,0,0,0,8.542-4.926c1.233-1.031,2.345-2.2,3.576-3.23.525-.438,1.651-1.408,2.355-1.208a3.137,3.137,0,0,0-.449,1.939c3.259,11.987,18.061,18.106,29.949,19.475,16.632,2.126,23.765,7.656,17.6,24.612" transform="translate(-98.954 -40.173)" fill="#ffbd85"/>
          <path id="Trazado_177231" data-name="Trazado 177231" d="M403.11,178.609c.084,1.287-1.395,2.109-2.682,2.283-.407.051-.83.085-1.246.125.059-.548.092-1.112.1-1.685a4.684,4.684,0,0,0-1.677-3.023c-.2-.191-.407-.373-.615-.556,1.046.216,2.092.44,3.147.664,1.295.274,2.889.864,2.972,2.192" transform="translate(-85.712 -37.946)" fill="#ffbd85"/>
          <path id="Trazado_177232" data-name="Trazado 177232" d="M395.436,151.119a4.081,4.081,0,0,0-.955-2,2.25,2.25,0,0,0-.241-.25c-1.653-1.46-5.722-3.428-6.992-5.522a14.847,14.847,0,0,0,4.3,1.52c1.727.456,3.562,1.2,4.41,2.765a3.076,3.076,0,0,1-.523,3.488" transform="translate(-83.608 -30.949)" fill="#ffbd85"/>
          <path id="Trazado_177233" data-name="Trazado 177233" d="M488.8,196.452c6.271,12.1,20.62,16.505,32.033,22.091,6.408,3.138,12.518,6.993,16.9,12.742a47.143,47.143,0,0,1,8.184,18.884c1.687,7.948,1.824,16.121,1.836,24.214.012,7.8.023,15.593.543,23.379.98,14.68,3.488,29.878,10.279,43.092a34.342,34.342,0,0,0,5.757,8.308,27.734,27.734,0,0,0,8.573,5.818,79.951,79.951,0,0,0,10.366,3.645q5.888,1.739,11.892,3.049c1.975.43,3.96.765,5.964,1.035.2.027.3-.27.087-.319-7.817-1.822-15.623-3.554-23.235-6.146a39.08,39.08,0,0,1-9.842-4.667,26.871,26.871,0,0,1-7.276-7.89c-3.917-6.237-6.4-13.483-8.24-20.575a132.73,132.73,0,0,1-3.654-22.526c-.63-7.648-.765-15.32-.77-22.992-.005-7.962.025-15.968-1.191-23.858a53.089,53.089,0,0,0-6.451-19.054,39.172,39.172,0,0,0-14.177-13.7c-11.436-6.727-25.7-9.866-34.5-20.456a31.287,31.287,0,0,1-2.907-4.168.1.1,0,0,0-.169.1" transform="translate(-105.532 -42.383)" fill="#1d2b5e"/>
          <path id="Trazado_177234" data-name="Trazado 177234" d="M614.556,183.066c-6,3.131-12.041,6.245-18.509,8.22-9.74,3.753-26.879,2.541-30.126-9.059-.067-.241-.125-.481-.175-.73a.131.131,0,0,1-.016-.05c6.968,1.561,13.51-3.321,20.518-3.3,9.01-.631,18.152,2.176,26.755,4.509h.008L614.3,183c.083.025.174.042.257.067" transform="translate(-122.143 -38.442)" fill="#54c293"/>
          <path id="Trazado_177235" data-name="Trazado 177235" d="M614.3,183.948c-.814.183-1.628.365-2.441.532a110.887,110.887,0,0,1-22.728,2.624,71.776,71.776,0,0,1-12.846-1.113,63.244,63.244,0,0,1-10.363-2.815c-.067-.241-.125-.481-.174-.731a61.553,61.553,0,0,0,10.654,2.932,71.126,71.126,0,0,0,12.729,1.1,110.931,110.931,0,0,0,22.594-2.607l1.279-.274h.009c.431.117.855.233,1.287.349" transform="translate(-122.148 -39.391)" fill="#fff"/>
          <path id="Trazado_177236" data-name="Trazado 177236" d="M640.883,359.068c-.033-.016-.074-.025-.108-.042-.332-.133-.656-.257-.979-.382-18.052-7.1-31.114-12.721-36.893-33.381.1.042.191.083.291.125.407.183.822.357,1.245.539,14.249,5.987,33.729,10.313,36.154,28.133.282,1.237.108,3.92.291,5.007" transform="translate(-130.169 -70.226)" fill="#74c289"/>
          <path id="Trazado_177237" data-name="Trazado 177237" d="M640.854,359.061c-.332-.133-.656-.257-.98-.382a53.43,53.43,0,0,0-14.149-14.847c-2.773-1.968-5.746-3.67-8.586-5.6a65.553,65.553,0,0,1-13.868-12.8c.407.183.823.357,1.246.539a64.855,64.855,0,0,0,12.971,11.75c2.815,1.918,5.787,3.62,8.6,5.6a54.268,54.268,0,0,1,14.764,15.744" transform="translate(-130.249 -70.26)" fill="#fff"/>
          <path id="Trazado_177238" data-name="Trazado 177238" d="M723.453,107.8c-.023.011-.045.03-.068.041-.212.118-.416.238-.621.356-11.477,6.557-20.038,11.095-33.477,5.345.064-.036.125-.067.19-.1.271-.138.541-.285.819-.432,9.263-5.012,19.875-13.51,30.374-7.192.778.378,2.128,1.616,2.784,1.983" transform="translate(-148.82 -22.361)" fill="#fff"/>
          <path id="Trazado_177239" data-name="Trazado 177239" d="M723.437,108.938c-.212.12-.416.238-.621.358a36.42,36.42,0,0,0-13.926,1.176c-2.229.634-4.4,1.485-6.642,2.168a44.647,44.647,0,0,1-12.72,1.9c.271-.138.54-.284.819-.431a44.214,44.214,0,0,0,11.777-1.872c2.22-.676,4.393-1.528,6.648-2.176a36.97,36.97,0,0,1,14.664-1.12" transform="translate(-148.872 -23.459)" fill="#74c289"/>
          <path id="Trazado_177240" data-name="Trazado 177240" d="M781.354,243.123c-.756-.557-3.928,2.134-4.484,2.591-7.93,7.88-20,6.062-29.444,2.167.083-.042.158-.083.241-.125.233-.107.456-.224.681-.348,10.944-5.7,20.527-14.6,32.11-5.057.183.15.374.316.565.481.108.092.224.191.332.291" transform="translate(-161.372 -51.417)" fill="#54c293"/>
          <path id="Trazado_177241" data-name="Trazado 177241" d="M781.088,243.957a20.83,20.83,0,0,0-2.8-.183,31.187,31.187,0,0,0-7.158.93c-4.882,1.171-9.607,3.1-14.605,3.911a33.854,33.854,0,0,1-5.423.44,32.787,32.787,0,0,1-3.371-.174c.232-.108.456-.224.681-.349.9.074,1.793.108,2.69.108a34.019,34.019,0,0,0,5.356-.432c4.941-.805,9.657-2.732,14.572-3.9a31.464,31.464,0,0,1,7.258-.946,20.012,20.012,0,0,1,2.234.116c.183.149.373.315.565.481" transform="translate(-161.438 -52.542)" fill="#fff"/>
          <path id="Trazado_177242" data-name="Trazado 177242" d="M659.218,380.14c6.454-26.34,23.993-48.488,42.563-68.252,11.607-12.353,24.337-24.489,40.292-30.212,2.674-.959,6.178-1.5,7.9.75,1.1,1.433.962,3.438.649,5.215-2.431,13.829-12.295,25.326-23.618,33.63s-24.273,14.065-36.341,21.241-23.662,16.242-29.932,28.805Z" transform="translate(-142.328 -60.635)" fill="#27ac81"/>
          <path id="Trazado_177243" data-name="Trazado 177243" d="M738.881,294.082l-38.286,32.553c-7.4,6.295-14.84,12.622-21.193,19.976-12.248,14.176-20,31.589-27.574,48.722" transform="translate(-140.732 -63.493)" fill="none" stroke="#fff" stroke-miterlimit="10" stroke-width="1"/>
        </g>
      </g>
    </g>
  </g>
</svg>
