<svg xmlns="http://www.w3.org/2000/svg" xmlns:xlink="http://www.w3.org/1999/xlink" width="201" height="173" viewBox="0 0 201 173">
  <defs>
    <clipPath id="clip-path">
      <rect id="Rect치ngulo_44655" data-name="Rect치ngulo 44655" width="167.712" height="171.672" fill="none"/>
    </clipPath>
    <clipPath id="clip-path-2">
      <path id="Trazado_177524" data-name="Trazado 177524" d="M809.749,317.2c-.454,5.276,6.7,3.169,8.577-.286-1.88.927-6.625.971-8.577.286" transform="translate(-809.728 -316.91)" fill="none"/>
    </clipPath>
  </defs>
  <g id="Grupo_172705" data-name="Grupo 172705" transform="translate(-775 -454.394)">
    <g id="Grupo_173549" data-name="Grupo 173549">
      <rect id="Rect치ngulo_42860" data-name="Rect치ngulo 42860" width="201" height="173" transform="translate(775 454.394)" fill="none"/>
      <g id="Grupo_173543" data-name="Grupo 173543" transform="translate(792 455.396)">
        <g id="Grupo_173544" data-name="Grupo 173544" transform="translate(0 -0.002)">
          <g id="Grupo_173543-2" data-name="Grupo 173543" transform="translate(0 0)" clip-path="url(#clip-path)">
            <path id="Trazado_177500" data-name="Trazado 177500" d="M1379.791,725.461c.854.907-1.28,4.214-1.28,4.214l-4.374-3.467Z" transform="translate(-1226.392 -647.461)" fill="#007491"/>
            <path id="Trazado_177501" data-name="Trazado 177501" d="M418.927,751.952a8.62,8.62,0,0,1,.734-3.075c.45-1.258,1.076-2.771,1.8-4.355.654-1.433,3.217-6.751,3.972-8.162-1.065-1.524-15.527-13.212-18.832-14.869-5.493,9.055-14.3,25.746-14.3,30.751,0,12.209,13.025,22.675,25.867,26.4,2.487.72,4.078-6.452,3.819-6.825-2.956-4.257-1.837-12.718-3.058-19.87" transform="translate(-350.121 -643.918)" fill="#b56a76"/>
            <path id="Trazado_177502" data-name="Trazado 177502" d="M483.221,719.781c7.347.779,18.283,7.291,19.883,8.465s3.072-6.562,3.072-6.562L488.328,710.89Z" transform="translate(-431.266 -634.456)" fill="#a14861"/>
            <path id="Trazado_177503" data-name="Trazado 177503" d="M590.527,448.969c-8.909.906-16.632,7.518-21.706,13.818-.262,1.091-1.21,13.3-1.346,18.715-.413,16.462-.1,37.536-.1,41.132h-60.1c-1.445-6.241-1.048-41.919,1.1-60.84a23.751,23.751,0,0,0-1.789-1.988c-2.839-2.616-11.109-7.471-16.789-8.335,6.235-9.973,16.637-20.653,24.812-26.077,3.655-2.424,8.253-4.382,12.109-6.188.019,0,.038,0,.056-.006.1-.042.187-.082.271-.114,6.169-2.4,14.574-3.191,17.206-3.428,23.148,8.078,33.393,16.638,46.283,33.31" transform="translate(-437.128 -370.968)" fill="#2bc2c7"/>
            <path id="Trazado_177504" data-name="Trazado 177504" d="M1186.024,762.718c0,20.2-33.209,29.17-43.633,27-2.541-.528-1.088-8.193.15-8.193,4.313,0,17.291-15.112,16.5-19.748-.474-2.762-4.948-9.154-10.176-14.927q-.61-.677-1.236-1.339c4.243-6.5,12.215-14.262,21.6-16.31,1.447,1.928,2.9,3.94,4.316,5.995,6.678,9.7,12.479,20.344,12.479,27.522" transform="translate(-1018.312 -650.799)" fill="#b56a76"/>
            <path id="Trazado_177505" data-name="Trazado 177505" d="M587.7,1004.737c-.082-.474-13.6,22.965-.76,26.695,2.487.721,4.078-6.452,3.819-6.825-2.956-4.257-1.837-12.718-3.058-19.87" transform="translate(-518.898 -896.703)" fill="#b56a76"/>
            <path id="Trazado_177506" data-name="Trazado 177506" d="M1228.643,735.2c-6.475-2.183-22.638,7.706-24.683,11.655q-.609-.677-1.235-1.339c4.242-6.5,12.215-14.262,21.6-16.31,1.447,1.928,2.9,3.94,4.316,5.995" transform="translate(-1073.41 -650.799)" fill="#a14861"/>
            <path id="Trazado_177507" data-name="Trazado 177507" d="M1311.476,1029.03c-.452,0-1.089-.052-1.979-.135a10.028,10.028,0,0,0-2.692-.065.264.264,0,0,1-.271-.453c.388-.232,1.4-.158,3.012-.008a18.411,18.411,0,0,0,2.225.125,17.431,17.431,0,0,0-2.244-.711c-2.036-.557-2.87-.831-2.916-1.306-.014-.139.036-.337.351-.494,1.6-.8,7.281.8,8.4,1.131a.264.264,0,0,1-.149.507c-2.42-.71-6.831-1.755-8.017-1.166a13.357,13.357,0,0,0,2.466.819c1.862.509,2.635.756,2.782,1.149a.377.377,0,0,1-.049.368c-.13.171-.4.24-.923.24" transform="translate(-1165.942 -915.473)" fill="#8f4056"/>
            <path id="Trazado_177508" data-name="Trazado 177508" d="M1127.554,629.878a.264.264,0,0,1-.263-.248l-.016-.257a.264.264,0,1,1,.527-.034l.016.258a.264.264,0,0,1-.247.28h-.016m-.115-1.855a.264.264,0,0,1-.263-.248l-.038-.639a.264.264,0,0,1,.248-.279.267.267,0,0,1,.279.248l.038.639a.264.264,0,0,1-.248.279h-.016m-.129-2.237a.264.264,0,0,1-.263-.25l-.035-.639a.264.264,0,0,1,.249-.278.26.26,0,0,1,.278.249l.035.639a.264.264,0,0,1-.249.278h-.015m-.119-2.237a.264.264,0,0,1-.264-.25l-.032-.64a.264.264,0,0,1,.528-.026l.032.639a.264.264,0,0,1-.25.277h-.014m-.108-2.238a.264.264,0,0,1-.264-.252l-.029-.64a.264.264,0,1,1,.527-.023l.029.639a.264.264,0,0,1-.251.276h-.012m-.1-2.238a.264.264,0,0,1-.264-.253l-.025-.64a.264.264,0,1,1,.528-.021l.025.639a.264.264,0,0,1-.253.275h-.011m-.085-2.239a.264.264,0,0,1-.264-.255l-.022-.64a.264.264,0,0,1,.528-.018l.022.64a.264.264,0,0,1-.255.273h-.009m-.072-2.239a.264.264,0,0,1-.264-.256l-.018-.64a.264.264,0,1,1,.528-.015l.018.64a.264.264,0,0,1-.256.272h-.008m-.059-2.24a.264.264,0,0,1-.264-.258l-.014-.64a.264.264,0,1,1,.528-.011l.014.639a.264.264,0,0,1-.258.27h-.006m-.045-2.24a.264.264,0,0,1-.264-.26l-.01-.641a.264.264,0,0,1,.26-.268h0a.264.264,0,0,1,.264.26l.01.639a.264.264,0,0,1-.26.268Zm-.03-2.24a.264.264,0,0,1-.264-.261l-.006-.641a.264.264,0,0,1,.262-.266h0a.264.264,0,0,1,.264.262l.006.64a.264.264,0,0,1-.261.267Zm-.015-2.24a.264.264,0,0,1-.264-.263v-.64a.264.264,0,0,1,.264-.264h0a.264.264,0,0,1,.264.264v.64a.264.264,0,0,1-.264.265Zm0-2.24h0a.264.264,0,0,1-.263-.265l0-.641a.258.258,0,0,1,.266-.262.264.264,0,0,1,.262.266l0,.639a.264.264,0,0,1-.264.263m.021-2.24h0a.264.264,0,0,1-.26-.267q0-.323.009-.641a.267.267,0,0,1,.268-.26.264.264,0,0,1,.26.268q-.005.317-.01.639a.264.264,0,0,1-.264.26m.04-2.24h-.006a.264.264,0,0,1-.258-.27q.007-.322.015-.641a.264.264,0,0,1,.264-.257h.007a.264.264,0,0,1,.257.271q-.008.317-.015.639a.264.264,0,0,1-.264.258m.061-2.239h-.009a.264.264,0,0,1-.255-.273q.01-.322.022-.64a.261.261,0,0,1,.273-.255.264.264,0,0,1,.255.273q-.012.317-.022.639a.264.264,0,0,1-.264.255m.084-2.238h-.011a.264.264,0,0,1-.253-.275q.014-.323.029-.64a.264.264,0,1,1,.528.024q-.015.317-.029.638a.264.264,0,0,1-.264.253m.11-2.237h-.015a.264.264,0,0,1-.249-.278q.018-.323.036-.64a.264.264,0,0,1,.527.031q-.018.317-.036.638a.264.264,0,0,1-.263.249m.137-2.236h-.018a.264.264,0,0,1-.245-.281q.022-.323.045-.639a.264.264,0,1,1,.527.038q-.023.316-.044.638a.264.264,0,0,1-.263.246m.167-2.233h-.022a.264.264,0,0,1-.242-.285q.026-.323.054-.639a.264.264,0,1,1,.526.046q-.027.315-.054.636a.264.264,0,0,1-.263.242m.2-2.231h-.026a.264.264,0,0,1-.237-.289q.032-.323.064-.638a.264.264,0,0,1,.525.054q-.033.314-.065.636a.264.264,0,0,1-.262.238m.24-2.227-.031,0a.264.264,0,0,1-.231-.293q.038-.322.076-.637a.264.264,0,1,1,.524.064q-.038.313-.076.634a.264.264,0,0,1-.262.233m.283-2.222-.036,0a.264.264,0,0,1-.225-.3q.045-.322.09-.635a.264.264,0,1,1,.522.076q-.045.311-.09.632a.264.264,0,0,1-.261.228m.333-2.215a.264.264,0,0,1-.261-.307q.053-.322.106-.633a.264.264,0,1,1,.52.089q-.053.309-.105.629a.264.264,0,0,1-.26.222m.392-2.2a.26.26,0,0,1-.05,0,.264.264,0,0,1-.209-.309q.062-.322.125-.63a.264.264,0,0,1,.518.105q-.062.306-.124.625a.264.264,0,0,1-.259.214m.463-2.191a.267.267,0,0,1-.06-.007.264.264,0,0,1-.2-.317q.074-.321.148-.626a.264.264,0,0,1,.513.125q-.073.3-.147.62a.264.264,0,0,1-.257.2m.55-2.171a.264.264,0,0,1-.255-.335q.09-.321.177-.619a.264.264,0,1,1,.507.149q-.086.295-.175.612a.265.265,0,0,1-.254.193m.023-2.11a.264.264,0,0,1-.243-.161q-.127-.3-.249-.593a.264.264,0,1,1,.488-.2q.121.293.246.587a.264.264,0,0,1-.243.368m-.836-2.078a.264.264,0,0,1-.247-.171q-.115-.3-.223-.6a.264.264,0,0,1,.5-.18q.108.3.221.6a.264.264,0,0,1-.247.357m-.743-2.114a.264.264,0,0,1-.251-.182q-.1-.308-.195-.613a.264.264,0,0,1,.5-.156q.094.3.193.606a.264.264,0,0,1-.251.346m-.641-2.146a.264.264,0,0,1-.255-.195q-.085-.313-.164-.623a.264.264,0,1,1,.512-.131q.078.306.162.615a.264.264,0,0,1-.255.333m-.531-2.176a.264.264,0,0,1-.258-.209q-.068-.317-.13-.631a.264.264,0,1,1,.518-.1q.062.31.129.623a.264.264,0,0,1-.258.32m-.41-2.2a.264.264,0,0,1-.26-.223q-.05-.321-.094-.638a.264.264,0,0,1,.523-.073q.043.313.093.629a.264.264,0,0,1-.22.3.283.283,0,0,1-.041,0m-.279-2.222a.264.264,0,0,1-.263-.239q-.031-.323-.055-.643a.264.264,0,1,1,.527-.04q.024.314.054.633a.264.264,0,0,1-.238.288h-.025m-.137-2.236a.264.264,0,0,1-.264-.257q-.009-.325-.012-.645a.264.264,0,0,1,.262-.266h0a.264.264,0,0,1,.264.262q0,.315.012.635a.264.264,0,0,1-.257.271h-.008m.016-2.24h-.012a.264.264,0,0,1-.252-.275q.014-.325.035-.645a.264.264,0,1,1,.527.034q-.02.314-.034.634a.264.264,0,0,1-.264.253m.182-2.232-.032,0a.264.264,0,0,1-.23-.294q.039-.324.085-.64a.264.264,0,1,1,.523.075q-.045.311-.083.629a.264.264,0,0,1-.262.232m.36-2.21a.264.264,0,0,1-.259-.318q.066-.32.139-.632a.264.264,0,1,1,.514.12q-.071.305-.136.618a.264.264,0,0,1-.258.211m.552-2.17a.264.264,0,0,1-.253-.341q.1-.314.2-.617a.264.264,0,0,1,.5.168q-.1.3-.193.6a.264.264,0,0,1-.252.187m.759-2.107a.264.264,0,0,1-.243-.367q.128-.3.261-.593a.264.264,0,1,1,.48.22q-.13.283-.255.578a.264.264,0,0,1-.244.161m.987-2.01a.264.264,0,0,1-.229-.395c.109-.192.221-.38.332-.559a.264.264,0,1,1,.449.278c-.108.173-.216.356-.322.542a.264.264,0,0,1-.23.133m1.239-1.865a.264.264,0,0,1-.208-.426c.135-.173.274-.344.413-.505a.264.264,0,1,1,.4.344c-.134.155-.267.319-.4.486a.263.263,0,0,1-.208.1m1.531-1.632a.264.264,0,0,1-.173-.464c.17-.147.343-.286.514-.413a.264.264,0,1,1,.315.424c-.161.12-.323.25-.484.389a.262.262,0,0,1-.172.064m4.624-1.036a.263.263,0,0,1-.159-.053,1.923,1.923,0,0,0-.492-.268.264.264,0,1,1,.182-.5,2.44,2.44,0,0,1,.628.342.264.264,0,0,1-.159.475m-2.742-.161a.264.264,0,0,1-.1-.509,4.557,4.557,0,0,1,.646-.208.264.264,0,0,1,.122.514,3.994,3.994,0,0,0-.57.184.262.262,0,0,1-.1.019" transform="translate(-1004.877 -478.908)" fill="#007491"/>
            <path id="Trazado_177509" data-name="Trazado 177509" d="M661.491,618.511l-.031,0a.264.264,0,0,1-.232-.293c.629-5.35,1.5-10.871,3.578-15.011a.264.264,0,0,1,.472.237c-2.044,4.067-2.9,9.534-3.526,14.836a.264.264,0,0,1-.262.233" transform="translate(-590.132 -538.219)" fill="#007491"/>
            <path id="Trazado_177510" data-name="Trazado 177510" d="M699.489,493.78a.264.264,0,0,1-.25-.348q.1-.3.216-.611a.264.264,0,0,1,.5.183q-.111.3-.211.6a.264.264,0,0,1-.25.18m.816-2.087a.261.261,0,0,1-.106-.022.264.264,0,0,1-.136-.348q.129-.293.267-.588a.264.264,0,0,1,.479.223q-.135.29-.262.578a.265.265,0,0,1-.242.158m.972-2.018a.261.261,0,0,1-.122-.03.264.264,0,0,1-.112-.356q.149-.285.3-.569a.264.264,0,1,1,.464.252q-.152.28-.3.561a.264.264,0,0,1-.234.142m1.092-1.958a.264.264,0,0,1-.227-.4q.165-.278.333-.552a.264.264,0,0,1,.45.276q-.166.27-.329.545a.264.264,0,0,1-.227.129m1.2-1.9a.264.264,0,0,1-.219-.411q.181-.27.363-.533a.264.264,0,0,1,.434.3q-.18.259-.358.526a.264.264,0,0,1-.22.117m1.3-1.827a.264.264,0,0,1-.21-.423q.2-.262.4-.511a.264.264,0,1,1,.414.327q-.193.245-.389.5a.264.264,0,0,1-.211.1m1.422-1.733a.264.264,0,0,1-.2-.441c.151-.168.3-.328.443-.476a.264.264,0,0,1,.379.367c-.138.143-.283.3-.43.462a.263.263,0,0,1-.2.087" transform="translate(-624.045 -429.519)" fill="#007491"/>
            <path id="Trazado_177511" data-name="Trazado 177511" d="M649.322,669.22c-.026.192-.9,6.395-1.167,9.75-.277,3.41-.288,6.844-.429,9.123-.579-.669-1.175-1.336-1.789-1.988.73-6.651,2.016-13.492,3.385-16.886" transform="translate(-576.487 -597.266)" fill="#007491"/>
            <path id="Trazado_177512" data-name="Trazado 177512" d="M1173.345,862.561c-.3,3.987-.62,8.29-.843,13.77-.21-5.878-3.674-15.892-4.8-18.278l3.476,4.131a2.854,2.854,0,0,1,.29-1.675s.955.994,1.875,2.052" transform="translate(-1042.155 -765.796)" fill="#007491"/>
            <path id="Trazado_177513" data-name="Trazado 177513" d="M847.994,260.219c1.751,3.13-14.592,10.93-20.23,9.842-1.4-.271.995-7.744,1.534-9.124.171-.44.334-.9.486-1.363a60.544,60.544,0,0,0,2.259-12.452l.039-.019,14.833-8.565s-1.7,16.72,1.079,21.681" transform="translate(-738.376 -212.891)" fill="#b56a76"/>
            <path id="Trazado_177514" data-name="Trazado 177514" d="M865.873,259.486c1.082,10.073-7.772,19.23-15.705,18.783a60.544,60.544,0,0,0,2.259-12.452l.039-.019Z" transform="translate(-758.76 -231.586)" fill="#a14861"/>
            <path id="Trazado_177515" data-name="Trazado 177515" d="M791.644,68.974c-.015,1.088-.08,2.343-.2,3.684a45.622,45.622,0,0,1-2.271,11.464c-2.5,6.467-9.133,11.223-16.059,10.776-5.4-.347-7.809-4.361-8.26-8.483a15.489,15.489,0,0,1,.147-3.838c.29-2.008.83-4.119,1.307-6.068.314-1.28.6-2.492.77-3.557.343-2.146.533-4.471.726-6.446.206-2.1.734-3.113,1.6-3.7,1.277-.863,2.785-2.522,4.652-3.306a15.846,15.846,0,0,1,6.681-1.488,12.328,12.328,0,0,1,6.448,3.013,23.074,23.074,0,0,1,2.863,2.732,17.5,17.5,0,0,1,1.251,1.586,9.578,9.578,0,0,1,.339,3.629" transform="translate(-682.566 -51.763)" fill="#b56a76"/>
            <path id="Trazado_177516" data-name="Trazado 177516" d="M826.253,76.076a14.553,14.553,0,0,1-.734,1.7c-.672,1.456-1.562,3.309-1.562,3.309s.9-1.907-.223-2.2c-.289-.076-1.561.288-1.843-.379-.151-.357.249-1.391.184-2.152-.027-.317-.539-.314-.56-.629-.051-.752-.093-1.442-.163-1.784-.167-.811-1.61-.165-1.988-.683-.594-.813.882-2.8.252-2.853-9.784,3.494-17.59,2.9-16.379-1.256a.792.792,0,0,1,.231-.607,27.983,27.983,0,0,1,4.734-2.7l5.47-.111,7.6,1.513,2.161.431s.291.868.691,2.047c.491,1.451,1.136,3.375,1.591,4.724.314.929.532,1.591.545,1.63" transform="translate(-716.762 -58.664)" fill="#a14861"/>
            <path id="Trazado_177517" data-name="Trazado 177517" d="M874.932,253.546c.041-1.752,1.914-3.146,4.185-3.115s4.079,1.477,4.038,3.228-1.914,3.146-4.185,3.115-4.079-1.477-4.038-3.228" transform="translate(-780.86 -223.505)" fill="#b35d6b"/>
            <path id="Trazado_177518" data-name="Trazado 177518" d="M770.525,233.127c-.04,1.647-1.695,2.975-3.777,3.1.29-2.008.831-4.119,1.307-6.068a3.247,3.247,0,0,1,2.469,2.965" transform="translate(-684.309 -205.415)" fill="#b35d6b"/>
            <path id="Trazado_177519" data-name="Trazado 177519" d="M995.7,197.607c2.06,2.014-3.131,10.558-5.375,6.244-2.226-4.279,2.871-8.692,5.375-6.244" transform="translate(-883.355 -175.734)" fill="#b56a76"/>
            <path id="Trazado_177520" data-name="Trazado 177520" d="M1004.682,213.175a.261.261,0,0,1-.051,0,.264.264,0,0,1-.209-.309,3.531,3.531,0,0,1,1.736-2.181,3.661,3.661,0,0,1,2.125-.694.264.264,0,1,1-.137.51,3.525,3.525,0,0,0-1.708.632,3.141,3.141,0,0,0-1.5,1.834.264.264,0,0,1-.259.214" transform="translate(-896.424 -187.389)" fill="#8f4056"/>
            <path id="Trazado_177521" data-name="Trazado 177521" d="M1012.326,226.85a.264.264,0,0,1-.251-.183,1.375,1.375,0,0,0-1.279-.9.264.264,0,1,1-.019-.528,1.9,1.9,0,0,1,1.8,1.262.265.265,0,0,1-.252.345" transform="translate(-901.872 -201.025)" fill="#8f4056"/>
          </g>
        </g>
        <g id="Grupo_173546" data-name="Grupo 173546" transform="translate(87.061 34.072)">
          <g id="Grupo_173545" data-name="Grupo 173545" clip-path="url(#clip-path-2)">
            <path id="Trazado_177522" data-name="Trazado 177522" d="M783.766,272.372a7.313,7.313,0,1,0-7.313,7.314,7.314,7.314,0,0,0,7.313-7.314" transform="translate(-773.503 -270.633)" fill="#8f4056"/>
            <path id="Trazado_177523" data-name="Trazado 177523" d="M812.472,303.116c.246.257,5.842,1.314,7.248-1.717,1.554-3.351-7.729-.286-7.729-.286a5.37,5.37,0,0,0,.481,2" transform="translate(-811.748 -301.668)" fill="#fff"/>
          </g>
        </g>
        <g id="Grupo_173548" data-name="Grupo 173548" transform="translate(0 -0.002)">
          <g id="Grupo_173547" data-name="Grupo 173547" transform="translate(0 0)" clip-path="url(#clip-path)">
            <path id="Trazado_177525" data-name="Trazado 177525" d="M791.128,210.274c-.054.967-1.267,1.572-2.344,1.4a1.719,1.719,0,0,1-1.557-2.013c.217-.944,1.267-.778,2.344-.61s1.6.512,1.557,1.218" transform="translate(-702.55 -186.462)" fill="#fff"/>
            <path id="Trazado_177526" data-name="Trazado 177526" d="M803.871,210.328c-.158.769-.69,1.331-1.188,1.254s-.774-.762-.616-1.532.69-1.331,1.188-1.254.774.762.616,1.532" transform="translate(-715.791 -186.341)" fill="#04153d"/>
            <path id="Trazado_177527" data-name="Trazado 177527" d="M877,220.4a2.679,2.679,0,0,1-2.887,1.412,1.973,1.973,0,0,1-1.72-2.365c.183-.688,1.615-.88,2.887-.617s2.112.853,1.72,1.57" transform="translate(-778.538 -195.2)" fill="#fff"/>
            <path id="Trazado_177528" data-name="Trazado 177528" d="M889.757,220.769c-.221.788-.856,1.33-1.419,1.212s-.84-.853-.619-1.641.856-1.33,1.419-1.212.84.853.619,1.641" transform="translate(-792.205 -195.553)" fill="#04153d"/>
            <path id="Trazado_177529" data-name="Trazado 177529" d="M892.214,232.209c-.078.279-.3.471-.5.429s-.3-.3-.219-.581.3-.471.5-.429.3.3.219.581" transform="translate(-795.617 -206.719)" fill="#fff"/>
            <path id="Trazado_177530" data-name="Trazado 177530" d="M805.945,222.373c-.078.279-.3.471-.5.429s-.3-.3-.219-.581.3-.471.5-.429.3.3.219.581" transform="translate(-718.623 -197.94)" fill="#fff"/>
            <path id="Trazado_177531" data-name="Trazado 177531" d="M860.67,174.457l.188-.051c.077-.019.2-.046.324-.069a1.629,1.629,0,0,1,.172-.023l.176-.018c.12-.01.245-.014.379-.022l.408,0c.139,0,.284,0,.427.007s.29.009.435.017c.579.027,1.15.072,1.572.1.209.015.386.029.5.034l.151.008.079,0a.437.437,0,0,1,.056.866l-.066.012-.08.014-.089.013c-.135.02-.311.041-.525.067-.425.051-.983.116-1.532.2-.137.019-.273.042-.406.064s-.261.047-.387.069l-.351.074c-.106.028-.209.051-.3.077l-.122.038a.591.591,0,0,0-.1.033c-.042.021-.065.028-.106.046l-.175.086-.013.006a.885.885,0,1,1-.78-1.589.941.941,0,0,1,.161-.06" transform="translate(-767.547 -155.533)" fill="#04153d"/>
            <path id="Trazado_177532" data-name="Trazado 177532" d="M798.952,164.074l.122.012c.076.008.183.021.312.038.257.035.6.092.948.176.174.041.35.092.517.146l.243.087.223.095c.07.032.135.068.193.1a1.64,1.64,0,0,1,.152.089l.134.087.046.03a.9.9,0,0,1-.976,1.515.917.917,0,0,1-.246-.236l-.039-.055a.42.42,0,0,0-.052-.067c-.025-.026-.049-.057-.083-.091l-.116-.108-.146-.119c-.107-.081-.227-.167-.355-.249-.254-.164-.531-.316-.741-.423-.105-.053-.194-.1-.256-.125l-.1-.044-.02-.009a.444.444,0,0,1,.233-.845" transform="translate(-712.614 -146.431)" fill="#04153d"/>
            <path id="Trazado_177533" data-name="Trazado 177533" d="M800.836,12.672c-.379-1.2-1.967-1.37-2.311-2.643-.275-1.017.976-2.01.729-2.986-.325-1.288-2.493-1.168-2.822-1.665-.167-.252-.761-2.734-1.439-3.155-.969-.6-3.109-.062-3.955-.182-.78-.111-2-2.042-3.89-2.042-2.38,0-3.847,2.78-4.365,2.538a8.014,8.014,0,0,0-2.388-.689c-2.162-.272-2.508,2.468-3.192,2.917-1.509.988-2.291-.384-3.7.739-1.006.8.254,3.042-.833,4.31-.363.423-.989.14-1.322.679-.717,1.161.93,2.084.792,3.173-.105.833-1.064.745-1.286,1.313-.688,1.761,1.66,4.611,1.261,7.589.333-.928,2.232-8.444,2.217-12.084,1.9,1.478,9.22,3.206,16.252.955.7.884-.277,2.192.294,2.584.415.285,1.427-.371,2.164.258.309.264-.375,1.337-.072,1.783.1.146.585.324.825.546a3.552,3.552,0,0,0,.29.3c.1.894-1.328,2.648-.7,3.207.328.3,1.216.072,1.548.367.529.474-.578,3.445-.093,3.735.555.331,1.444-2.2,2.611-2.829,1.278-.691,2.445-.55,3.166-1.6.734-1.069-1.029-2.855-1.284-3.742-.3-1.034,1.958-1.931,1.5-3.373" transform="translate(-687.865 0.001)" fill="#0a0036"/>
            <path id="Trazado_177534" data-name="Trazado 177534" d="M797.125,214.276l-.041.155c-.028.1-.067.251-.123.439s-.13.414-.218.672-.2.546-.33.854-.28.642-.459.984-.4.69-.614,1.042-.454.717-.7,1.084-.5.733-.758,1.093a10.72,10.72,0,0,0-.7,1.04,1.181,1.181,0,0,0-.141.455,1.128,1.128,0,0,0,.012.229l.011.061,0,.015v.011l0-.011.009.038a.12.12,0,0,0,.007.02.171.171,0,0,0,.011.025.427.427,0,0,0,.256.171,1.973,1.973,0,0,0,.469.076,5.047,5.047,0,0,0,.982-.07,7.953,7.953,0,0,0,1.476-.391,4.156,4.156,0,0,0,.525-.231.2.2,0,0,1,.228.324l0,0s-.045.039-.133.106a3.7,3.7,0,0,1-.4.259,6.14,6.14,0,0,1-1.555.611,4.694,4.694,0,0,1-1.14.149,2.325,2.325,0,0,1-.683-.091,1.443,1.443,0,0,1-.375-.173,1.055,1.055,0,0,1-.334-.351.942.942,0,0,1-.057-.115,1.115,1.115,0,0,1-.044-.128l-.01-.038-.006-.027,0-.012,0-.023-.016-.094a1.9,1.9,0,0,1-.012-.4,1.764,1.764,0,0,1,.257-.763,4.22,4.22,0,0,1,.416-.575c.145-.175.291-.341.438-.506.293-.329.58-.658.854-.99s.53-.671.764-1.007a11.7,11.7,0,0,0,.636-.99c.182-.325.34-.641.47-.94a10.3,10.3,0,0,0,.512-1.489c.047-.184.081-.33.1-.429l.03-.154h0a.2.2,0,1,1,.389.075s0,.009,0,.013" transform="translate(-707.074 -191.016)" fill="#8f4056"/>
            <path id="Trazado_177535" data-name="Trazado 177535" d="M632.879,1141.352c-.1.244-1.06.194-1.394.8-1.693,3.069-.69,8.182-.234,8.917.332.535,4.133,1.763,4.918,1.607.712-.141,4.186-1.617,4.254-3.559.035-.991-3.69-3.707-5.181-5.959,2.073,1.375,3.731,2.4,4.641,2.511a.958.958,0,0,0,.975-.988c-.052-.573-1.529-2.159-3.51-3.687-1.5-1.156-2.769-2.6-3.714-2.821-.469-.112-1.12.557-1.184,1.368s.493,1.664.43,1.813" transform="translate(-562.744 -1015.786)" fill="#b56a76"/>
            <path id="Trazado_177536" data-name="Trazado 177536" d="M642.851,1195.788s.108.092.292.259c.091.084.2.185.33.294s.266.238.427.373.328.286.513.439l.577.485.622.513c.209.178.432.346.646.525s.435.35.651.52.426.341.635.5l.6.462.538.409c.169.121.32.242.458.337s.256.185.355.25.175.118.228.15l.081.051.018.011a.2.2,0,0,1-.174.353l-.1-.038a2.915,2.915,0,0,1-.28-.114c-.118-.052-.257-.118-.411-.2s-.328-.177-.515-.285-.385-.227-.59-.362-.424-.272-.641-.427-.443-.314-.67-.479-.449-.343-.673-.519-.442-.36-.654-.543-.42-.366-.615-.548-.382-.362-.556-.536-.332-.344-.478-.5-.275-.311-.388-.444-.208-.253-.282-.352c-.15-.2-.232-.313-.232-.313a.2.2,0,0,1,.292-.267" transform="translate(-573.439 -1067.176)" fill="#8f4056"/>
            <path id="Trazado_177537" data-name="Trazado 177537" d="M632.984,1225.185s.1.071.271.2c.085.055.188.122.3.2s.262.164.411.26l.5.3.558.331.6.351.622.359c.207.122.418.239.624.356s.408.234.606.341l.568.314c.182.1.352.192.511.275s.3.156.433.224.241.114.334.16.163.068.213.09l.076.031.026.011a.2.2,0,0,1-.1.378l-.093-.014c-.059-.011-.155-.018-.263-.046s-.243-.056-.387-.1-.312-.1-.484-.165-.365-.136-.558-.222-.4-.172-.609-.273-.422-.207-.639-.316-.43-.231-.645-.352-.426-.248-.632-.375-.407-.256-.6-.386-.375-.26-.546-.385-.329-.253-.474-.37-.273-.234-.386-.338-.212-.208-.29-.289c-.139-.163-.215-.26-.215-.26a.2.2,0,0,1,.272-.287Z" transform="translate(-564.643 -1093.421)" fill="#8f4056"/>
            <path id="Trazado_177538" data-name="Trazado 177538" d="M678.719,1185.448a.49.49,0,0,1-.026.082,1.041,1.041,0,0,1-.13.223,1.293,1.293,0,0,1-.278.272,1.465,1.465,0,0,1-.46.223,1.7,1.7,0,0,1-.29.05l-.076,0-.039,0h-.051c-.047,0-.079,0-.14-.011s-.121-.016-.172-.028l-.155-.037c-.1-.029-.2-.06-.3-.1a6.838,6.838,0,0,1-1.134-.579,14.548,14.548,0,0,1-1.859-1.385c-.238-.207-.429-.388-.56-.521-.065-.066-.116-.122-.152-.163a.735.735,0,0,1-.068-.089.16.16,0,0,1,.274-.165s-.006-.011.03.023.086.071.156.124c.14.108.348.26.6.439.5.354,1.184.819,1.887,1.219a7.3,7.3,0,0,0,1.048.5c.084.03.166.056.245.078l.116.027c.038.009.064.01.1.016s.084.006.123.009h.089a1.657,1.657,0,0,0,.19-.022,1.569,1.569,0,0,0,.324-.093,1.869,1.869,0,0,0,.243-.122c.064-.039.117-.078.144-.1a.327.327,0,0,0,.053-.045.16.16,0,1,1,.276.162" transform="translate(-600.465 -1055.94)" fill="#8f4056"/>
            <path id="Trazado_177539" data-name="Trazado 177539" d="M663.1,1251.063l-.043.071c-.026.044-.077.121-.138.207a5.687,5.687,0,0,1-.577.657,7.247,7.247,0,0,1-.956.773,6.8,6.8,0,0,1-1.249.678,4.13,4.13,0,0,1-.716.218,2.466,2.466,0,0,1-.385.048c-.037,0-.058,0-.107,0l-.083,0c-.055,0-.127-.011-.188-.018a4.924,4.924,0,0,1-.647-.127c-.2-.049-.384-.107-.553-.164s-.321-.117-.456-.169-.25-.109-.345-.157-.169-.09-.22-.122l-.08-.053a.16.16,0,0,1,.133-.287l.02.006.07.021.217.054c.191.046.471.106.8.175l.538.1c.19.032.392.068.589.09.047,0,.084.009.14.01l.083,0h.06a1.807,1.807,0,0,0,.289-.033,3.526,3.526,0,0,0,.61-.178,7.3,7.3,0,0,0,1.171-.571,9.022,9.022,0,0,0,.949-.65,5.29,5.29,0,0,0,.6-.54c.068-.071.116-.12.152-.165l.054-.064a.161.161,0,0,1,.259.188" transform="translate(-585.722 -1116.333)" fill="#8f4056"/>
            <path id="Trazado_177540" data-name="Trazado 177540" d="M632.549,1137.258l-.149-.1c-.1-.064-.24-.16-.424-.268a2.413,2.413,0,0,0-.673-.286c-.165-.039-.435.129-.611.4a1.531,1.531,0,0,0-.258.991,2.71,2.71,0,0,0,.128.578c.067.2.152.4.247.634a1.845,1.845,0,0,1,.071.208c.006.029.011.062.015.093a.333.333,0,0,1,0,.084.511.511,0,0,1-.01.053l-.007.026c-.015.031.022-.033-.035.075l-.025.038s-.023.029-.037.044a.6.6,0,0,1-.053.05.853.853,0,0,1-.262.137c-.067.023-.13.043-.19.061a2.247,2.247,0,0,0-.6.239.6.6,0,0,0-.179.172l-.016.024-.008.012,0,0c0-.006-.009.018.006-.013l-.005.011-.041.085-.082.17-.164.34-.119.332a5.723,5.723,0,0,0-.208.689c-.071.232-.1.475-.153.711a3.5,3.5,0,0,0-.057.357l-.046.356c-.031.236-.037.472-.058.7s-.017.46-.026.684,0,.444.005.658c.013.427.036.832.072,1.2s.074.714.123,1.014c.02.151.049.29.073.418s.049.247.076.351a4.594,4.594,0,0,0,.132.477l.062.151.011.026a.127.127,0,0,1-.228.109l-.1-.177a4.114,4.114,0,0,1-.192-.5c-.036-.108-.073-.228-.106-.359s-.076-.273-.108-.425c-.072-.3-.142-.651-.2-1.031s-.106-.8-.14-1.236c-.01-.221-.028-.447-.032-.68s-.009-.47,0-.712a12.482,12.482,0,0,1,.133-1.492,7.454,7.454,0,0,1,.15-.761,6.361,6.361,0,0,1,.225-.762l.137-.382.162-.343.081-.17.04-.085.005-.011c.018-.034.007-.013.012-.023l0-.007.017-.028.036-.054a1.239,1.239,0,0,1,.359-.342,2.8,2.8,0,0,1,.769-.309c.057-.016.111-.033.158-.048l.06-.023.015-.008.008,0a.114.114,0,0,0-.02.014.1.1,0,0,0-.018.022s-.013.026,0,.013l.026-.037c-.056.1-.02.037-.034.064l-.005.015a.155.155,0,0,0-.007.031c0,.022,0,.047,0,.04s0,0,0,0a1.315,1.315,0,0,0-.042-.131,4.4,4.4,0,0,1-.367-1.407,2.009,2.009,0,0,1,.1-.716,1.971,1.971,0,0,1,.319-.594,1.576,1.576,0,0,1,.48-.42.952.952,0,0,1,.306-.11.791.791,0,0,1,.189-.01c.027,0,.041.007.062.01l.029.005h.007l.025.005h0l.016.005a2.539,2.539,0,0,1,.758.407c.185.136.317.254.408.333l.136.123a.128.128,0,0,1-.159.2Z" transform="translate(-560.445 -1014.007)" fill="#8f4056"/>
            <path id="Trazado_177541" data-name="Trazado 177541" d="M989.7,1149.13c-2.3.352-10.289-8.039-11.764-8.039-2.763,0-8.525,3.888-8.186,4.506.965,1.763,5.215-1.513,5.853-.95-1.854,1.136-5.3,5.4-4.867,6.792.789,2.542,8.322.315,8.322.315s6.432,6.748,9.166,6.068a3.921,3.921,0,0,0,2.938-2.647,8.168,8.168,0,0,0-1.461-6.047" transform="translate(-865.476 -1018.403)" fill="#b56a76"/>
            <path id="Trazado_177542" data-name="Trazado 177542" d="M993.65,1189.423l-.113-.005-.314-.008c-.27,0-.659-.005-1.111.03a4.673,4.673,0,0,0-.7.107,1.351,1.351,0,0,0-.311.114l-.347.214-.189.118-.177.123c-.118.086-.241.159-.361.253l-.365.272c-.119.1-.237.195-.358.289-.237.2-.473.395-.694.6s-.444.409-.651.614-.406.4-.592.6l-.519.55-.775.839c-.095.1-.172.18-.227.235l-.083.083a.2.2,0,0,1-.3-.251l.005-.007.24-.355c.156-.229.38-.558.67-.941.145-.192.3-.4.481-.61s.364-.436.572-.655c.1-.112.209-.222.318-.333s.218-.226.336-.333c.229-.221.474-.433.722-.644.125-.1.255-.2.382-.3l.393-.284c.127-.1.269-.181.4-.266l.2-.127.2-.11.193-.107.095-.053.057-.031.065-.031a2.075,2.075,0,0,1,.483-.14,4.209,4.209,0,0,1,.822-.053,7.484,7.484,0,0,1,1.177.12c.14.024.248.05.324.067l.113.027a.2.2,0,0,1-.056.392Z" transform="translate(-879.475 -1060.996)" fill="#8f4056"/>
            <path id="Trazado_177543" data-name="Trazado 177543" d="M1009.684,1212.384l-.251.106-.273.123c-.106.048-.225.106-.355.168l-.415.209-.459.244-.487.271c-.166.092-.33.194-.5.289s-.333.2-.494.3-.322.2-.475.3l-.439.283-.387.26c-.236.164-.426.306-.542.406l-.1.1s-.009.009-.008,0a.031.031,0,0,0,0-.013.027.027,0,0,0,0-.011.2.2,0,1,1-.4,0,.394.394,0,0,1,0-.046.5.5,0,0,1,.009-.057.476.476,0,0,1,.017-.051,1.07,1.07,0,0,1,.125-.231,4.041,4.041,0,0,1,.506-.573c.112-.105.232-.221.368-.332s.275-.231.429-.343.311-.229.477-.341.338-.218.51-.324.352-.2.528-.3.354-.18.528-.258.345-.15.51-.21.322-.115.471-.158a5.2,5.2,0,0,1,.733-.165c.092-.016.157-.017.2-.022l.072-.007a.2.2,0,0,1,.1.385" transform="translate(-896.138 -1081.686)" fill="#8f4056"/>
            <path id="Trazado_177544" data-name="Trazado 177544" d="M1011.679,1163.262s-.094,0-.258-.01a2.81,2.81,0,0,0-.282,0c-.1,0-.224.008-.355.018a1.553,1.553,0,0,0-.2.024c-.07.01-.142.016-.215.031-.147.031-.3.062-.459.107-.079.018-.159.046-.24.073s-.164.049-.246.081c-.166.055-.333.126-.5.189l-1,.411c-.161.068-.32.126-.469.185s-.294.109-.427.156c-.266.093-.491.163-.651.206s-.25.067-.25.067a.161.161,0,0,1-.119-.3l0,0s.081-.046.225-.123.348-.185.6-.31c.124-.063.256-.135.4-.2s.292-.15.45-.224c.313-.154.654-.312,1.006-.458.177-.072.358-.137.54-.2.09-.031.182-.058.273-.081s.181-.048.273-.064.179-.038.269-.049l.261-.027a3.44,3.44,0,0,1,.481,0l.213.016c.067.006.133.021.193.031a2.127,2.127,0,0,1,.3.065c.157.045.247.075.247.075a.162.162,0,0,1-.053.316" transform="translate(-897.765 -1037.735)" fill="#8f4056"/>
            <path id="Trazado_177545" data-name="Trazado 177545" d="M977.748,1238.6a1.393,1.393,0,0,0,.152.193,1.485,1.485,0,0,0,.181.162,2.036,2.036,0,0,0,.428.249,3.762,3.762,0,0,0,.989.266,9.272,9.272,0,0,0,2.1.011,22.275,22.275,0,0,0,4.179-.839.284.284,0,0,1,.293.086l.005.006q.252.29.518.568t.546.545c.373.355.762.7,1.162,1.023a27.439,27.439,0,0,0,2.515,1.822c.435.281.88.547,1.328.8a14.149,14.149,0,0,0,1.368.7c.115.048.23.094.343.132.055.017.112.036.161.047l.019,0,.01,0h0l.049.008c.031,0,.067.012.094.015a2.614,2.614,0,0,0,.338.018,3.444,3.444,0,0,0,.36-.024,5.709,5.709,0,0,0,1.436-.376l.007,0a.286.286,0,0,1,.175-.012c.11.028.236.054.356.078s.244.047.367.067q.37.062.744.106c.5.06,1,.1,1.5.124.252.006.5.025.755.026s.5.007.756,0,.5-.013.757-.02c.126,0,.252-.012.379-.018l.379-.02h0a.16.16,0,0,1,.028.319l-.382.047c-.127.014-.254.034-.382.044-.255.021-.511.049-.768.061s-.513.03-.77.036-.514.01-.771.01c-.515-.008-1.03-.033-1.544-.078q-.386-.033-.771-.085-.193-.025-.386-.057c-.13-.021-.254-.043-.392-.073l.182-.014a6.23,6.23,0,0,1-.776.276,5.656,5.656,0,0,1-.812.17,3.5,3.5,0,0,1-.869.015c-.039,0-.067-.01-.1-.015l-.048-.008-.024,0-.014,0-.029-.007c-.078-.017-.147-.039-.216-.061-.136-.045-.265-.1-.391-.148a14.646,14.646,0,0,1-1.437-.719c-.233-.129-.459-.266-.686-.4s-.45-.28-.672-.425a28.069,28.069,0,0,1-2.559-1.882c-.408-.339-.805-.692-1.188-1.062q-.287-.277-.562-.569c-.183-.194-.358-.4-.53-.6l.3.092a22.814,22.814,0,0,1-4.3.767q-.548.035-1.1.019a7.745,7.745,0,0,1-1.105-.109,4.156,4.156,0,0,1-1.08-.333,2.384,2.384,0,0,1-.489-.316,1.819,1.819,0,0,1-.211-.208,1.783,1.783,0,0,1-.172-.239l0-.006a.16.16,0,0,1,.271-.169" transform="translate(-872.36 -1105.368)" fill="#8f4056"/>
            <path id="Trazado_177546" data-name="Trazado 177546" d="M973.558,1173.012l-.068.017-.063.023c-.029.012-.061.024-.1.04-.15.063-.366.169-.628.3l-.9.454c-.333.162-.69.337-1.06.491a7.619,7.619,0,0,1-1.13.4,2.881,2.881,0,0,1-.592.094,1.519,1.519,0,0,1-.568-.092,1.571,1.571,0,0,1-.417-.226,1.508,1.508,0,0,1-.258-.251,1.019,1.019,0,0,1-.13-.2c-.013-.025-.022-.048-.028-.063l-.009-.022a.159.159,0,0,1,.235-.191l.039.026.045.03c.03.021.081.052.145.089a2.313,2.313,0,0,0,.24.118,1.894,1.894,0,0,0,.316.1,1.6,1.6,0,0,0,.372.038,2.256,2.256,0,0,0,.457-.069,9.573,9.573,0,0,0,1.056-.344c.722-.277,1.444-.589,2-.8a7.088,7.088,0,0,1,.694-.232c.044-.012.086-.02.121-.028l.1-.018.071-.006a.16.16,0,0,1,.053.315Z" transform="translate(-863.566 -1046.609)" fill="#8f4056"/>
            <path id="Trazado_177547" data-name="Trazado 177547" d="M902.816,727.711c2.72-.51,13.449.053,17.443,1.784,0,1.87-.307,5.251-.307,5.251s-10.094-1.908-17.136-1.686Z" transform="translate(-805.747 -649.308)" fill="#007491"/>
            <path id="Trazado_177548" data-name="Trazado 177548" d="M773.221,904.6l14.97-3.29a.462.462,0,0,1,.56.451l.391,9.635a.461.461,0,0,1-.391.456l-14.109,1.571a.462.462,0,0,1-.526-.384l-1.253-7.916a.461.461,0,0,1,.357-.523" transform="translate(-689.762 -804.395)" fill="#007491"/>
            <path id="Trazado_177549" data-name="Trazado 177549" d="M764.838,899.3l15.955-3.506v10.065L766.23,908.1Z" transform="translate(-682.604 -799.478)" fill="#abd8f7"/>
            <path id="Trazado_177550" data-name="Trazado 177550" d="M764.855,907.245a.16.16,0,0,1-.158-.135l-1.346-8.5a.16.16,0,0,1,.124-.181l15.62-3.432a.16.16,0,0,1,.069.313l-15.473,3.4,1.323,8.356a.16.16,0,0,1-.133.183l-.025,0" transform="translate(-681.275 -798.761)" fill="#fff"/>
            <path id="Trazado_177551" data-name="Trazado 177551" d="M821.256,423l.287.245c.048.042.1.079.144.126l.145.153c.094.1.2.2.283.313l.25.33a5.272,5.272,0,0,1,.708,1.51,6.14,6.14,0,0,1,.2,1.649,8.164,8.164,0,0,1-.21,1.61,13.477,13.477,0,0,1-1.105,2.947,25.434,25.434,0,0,1-1.566,2.655c-.574.845-1.172,1.667-1.8,2.461s-1.272,1.574-1.926,2.343-1.322,1.523-1.985,2.28l-2,2.263c-.666.752-1.317,1.517-1.975,2.275s-1.3,1.532-1.938,2.3-1.278,1.545-1.9,2.333-1.23,1.579-1.823,2.384-1.157,1.627-1.7,2.461-1.052,1.687-1.519,2.557a21.091,21.091,0,0,0-1.213,2.675,12,12,0,0,0-.674,2.772.712.712,0,0,1-1.369.188l-.017-.043h0c-.1-.387-.2-.773-.309-1.156l-.277-1.156-.246-1.158-.217-1.16q-.2-1.161-.359-2.324c-.059-.387-.1-.776-.142-1.165l-.071-.582-.057-.583c-.038-.389-.079-.777-.1-1.167-.014-.195-.03-.389-.057-.583s-.061-.387-.1-.58c-.075-.386-.181-.772-.256-1.16a7.26,7.26,0,0,1-.115-1.172,8.718,8.718,0,0,1,.077-1.177c.045-.392.121-.783.162-1.173s.063-.779.063-1.169-.015-.781-.042-1.172a20.247,20.247,0,0,1-.1-2.356c.02-.391.055-.782.095-1.172s.1-.778.155-1.166c.124-.775.28-1.544.447-2.31l.517-2.291c.171-.763.356-1.522.563-2.276.1-.377.22-.751.329-1.125l.183-.557c.062-.186.115-.374.183-.557.135-.368.256-.739.41-1.1.074-.181.144-.364.222-.544l.245-.535a11.661,11.661,0,0,1,1.186-2.042.16.16,0,1,1,.256.192h0v0a10.385,10.385,0,0,0-1.126,1.99l-.223.531c-.071.179-.134.361-.2.541-.139.358-.247.729-.367,1.094s-.214.741-.315,1.112-.185.749-.267,1.125c-.164.754-.314,1.51-.437,2.272s-.209,1.529-.266,2.3c-.027.385-.058.769-.081,1.154s-.047.769-.07,1.154-.047.768-.078,1.151-.052.767-.095,1.149c-.073.765-.249,1.526-.36,2.294a9.09,9.09,0,0,0-.113,1.155,7.223,7.223,0,0,0,.031,1.159c.083.773.272,1.539.3,2.307a14.672,14.672,0,0,1-.136,2.319,6.26,6.26,0,0,0,.031,1.158c.033.385.083.767.13,1.15l.07.574.085.572c.061.381.119.762.194,1.139.132.759.307,1.509.492,2.254.1.371.2.742.307,1.109s.228.731.351,1.093.263.716.4,1.071.3.7.459,1.042h0l-1.386.145a14.578,14.578,0,0,1,.981-3.007,24.324,24.324,0,0,1,1.433-2.733c.524-.878,1.094-1.72,1.676-2.55s1.192-1.637,1.813-2.434,1.251-1.583,1.893-2.36,1.288-1.548,1.94-2.314l1.965-2.288c.649-.767,1.308-1.525,1.95-2.3s1.283-1.544,1.908-2.328,1.243-1.573,1.848-2.369,1.2-1.6,1.772-2.414,1.136-1.632,1.658-2.471a27.9,27.9,0,0,0,1.457-2.554c.106-.218.219-.434.313-.656l.148-.33.133-.334a11.777,11.777,0,0,0,.452-1.348c.053-.227.112-.455.144-.683.048-.228.063-.455.088-.683a5.8,5.8,0,0,0-.08-1.341,4.725,4.725,0,0,0-.468-1.249l-.177-.291c-.058-.1-.13-.178-.194-.269l-.1-.134c-.036-.046-.082-.093-.123-.14l-.252-.281a.4.4,0,0,1,.559-.572" transform="translate(-710.632 -377.431)" fill="#00586e"/>
            <path id="Trazado_177552" data-name="Trazado 177552" d="M819.2,806.723h-.031a.72.72,0,0,1-.689-.751c.007-.165.011-.349.011-.547,0-.3-.008-.629-.025-.991a.72.72,0,1,1,1.439-.065c.017.383.026.738.026,1.056,0,.218,0,.423-.012.609a.72.72,0,0,1-.719.689m-.123-3.2a.72.72,0,0,1-.717-.659c-.042-.49-.095-1.021-.156-1.577a.72.72,0,0,1,1.432-.158c.063.568.116,1.111.16,1.612a.72.72,0,0,1-.656.779l-.062,0m-.348-3.186a.72.72,0,0,1-.713-.629c-.065-.508-.137-1.039-.214-1.578a.72.72,0,0,1,1.426-.2c.078.546.151,1.083.217,1.6a.721.721,0,0,1-.715.812m-.451-3.174a.72.72,0,0,1-.711-.61c-.147-.948-.253-1.568-.254-1.574a.72.72,0,0,1,1.419-.244c0,.006.109.637.258,1.6a.72.72,0,0,1-.6.822.731.731,0,0,1-.111.008" transform="translate(-729.432 -708.752)" fill="#00586e"/>
            <path id="Trazado_177553" data-name="Trazado 177553" d="M803.094,886.111s3.049,4.687,3.787,5.193.877-.688.877-.688-1.76-4.967-2.851-5.18a2,2,0,0,0-1.814.674" transform="translate(-716.747 -790.206)" fill="#007491"/>
            <path id="Trazado_177554" data-name="Trazado 177554" d="M218.537,133.119c-.8,1-5.164,2.768-8.426,2.963-5.366-.837-16.58-1.41-24.405-4.674-5.7-2.377-11.167-7.088-13.5-10.976a.483.483,0,0,1,.22-.691c7.061-3.176,15.957-21.269,28.216-23.162a13.791,13.791,0,0,1,9,1.693c7.933-2.823,15.663,26.385,8.9,34.847" transform="translate(-153.627 -86.048)" fill="#1a107e"/>
            <path id="Trazado_177555" data-name="Trazado 177555" d="M322.27,292.986c-7.6.454-17.577-1.279-24.405-4.674-.415-4.02,1.407-11.138,4.083-13.832,6.509-6.554,22.685,3.241,22.685,3.241a49.824,49.824,0,0,0-2.363,15.265" transform="translate(-265.786 -242.953)" fill="#070256"/>
            <path id="Trazado_177556" data-name="Trazado 177556" d="M327.568,169.492c-1.065-2.588,11.31-17.3,15.576-16.9a7.48,7.48,0,0,1,5.023,2.552c.908-2.173,3.717-3.424,5.135-2.875,3.763,1.455.353,14.884-4.089,14.507Z" transform="translate(-292.291 -135.784)" fill="#070256"/>
            <path id="Trazado_177557" data-name="Trazado 177557" d="M234.434,336.776s-.021.034-.06.092-.1.141-.171.236a4.709,4.709,0,0,1-.609.643,3.969,3.969,0,0,1-.727.512,2.837,2.837,0,0,1-.369.168.084.084,0,0,1-.083-.142l0,0s.03-.027.084-.068l.221-.176.309-.248c.112-.092.23-.19.348-.291.234-.2.464-.41.637-.569l.211-.191c.052-.047.083-.072.083-.072a.084.084,0,0,1,.125.108" transform="translate(-207.4 -300.453)" fill="#42459c"/>
            <path id="Trazado_177558" data-name="Trazado 177558" d="M238.133,272.053a4.165,4.165,0,0,1-.236.39c-.076.113-.168.243-.275.377s-.225.273-.35.406a5.536,5.536,0,0,1-.749.671,3.848,3.848,0,0,1-.381.254h0a.067.067,0,0,1-.083-.1s.12-.137.3-.332.428-.453.668-.714.48-.526.67-.719.327-.314.327-.314a.067.067,0,0,1,.1.081Z" transform="translate(-210.664 -242.715)" fill="#42459c"/>
            <path id="Trazado_177559" data-name="Trazado 177559" d="M279.571,265.795s-.021.044-.06.117-.1.18-.167.3c-.143.248-.344.573-.565.887a9.477,9.477,0,0,1-.654.828c-.192.214-.331.347-.331.347a.083.083,0,0,1-.13-.1v0s.024-.042.068-.113.107-.173.187-.291c.157-.238.373-.549.59-.859s.442-.617.62-.842c.088-.113.167-.2.219-.269s.087-.1.087-.1a.083.083,0,0,1,.137.092" transform="translate(-247.8 -237.111)" fill="#42459c"/>
            <path id="Trazado_177560" data-name="Trazado 177560" d="M333.211,227.3s-.019.04-.054.107-.086.164-.152.276c-.13.226-.314.519-.51.8s-.4.563-.567.765c-.081.1-.155.182-.2.241s-.08.089-.08.089a.084.084,0,0,1-.136-.093h0s.018-.04.054-.107.086-.164.152-.277c.13-.226.314-.519.51-.8s.4-.562.567-.764c.081-.1.154-.182.2-.241s.081-.089.081-.089a.084.084,0,0,1,.136.093Z" transform="translate(-295.859 -202.751)" fill="#42459c"/>
            <path id="Trazado_177561" data-name="Trazado 177561" d="M326.434,179.1s-.035.039-.1.1-.154.156-.267.262c-.223.214-.524.493-.829.768s-.614.547-.851.747l-.289.238c-.07.057-.112.088-.112.088a.083.083,0,0,1-.116-.118s.032-.041.091-.11.143-.168.248-.283c.21-.23.5-.526.808-.8a10.732,10.732,0,0,1,.881-.726c.253-.184.431-.291.431-.291a.083.083,0,0,1,.1.127Z" transform="translate(-289.034 -159.72)" fill="#42459c"/>
            <path id="Trazado_177562" data-name="Trazado 177562" d="M390.914,168.863s-.035.033-.1.088l-.259.223c-.216.183-.5.42-.769.673-.136.125-.266.258-.391.38s-.24.24-.343.338-.191.178-.251.235-.1.087-.1.087h0a.083.083,0,0,1-.123-.11,7.113,7.113,0,0,1,.981-1.172,5.373,5.373,0,0,1,.436-.364c.145-.109.285-.2.406-.278.245-.151.414-.237.414-.237a.083.083,0,0,1,.112.036.084.084,0,0,1-.017.1" transform="translate(-346.79 -150.578)" fill="#42459c"/>
            <path id="Trazado_177563" data-name="Trazado 177563" d="M403.915,117.267l-.151.041c-.1.024-.231.065-.392.112s-.346.111-.54.185c-.1.037-.2.079-.295.123s-.2.092-.3.141c-.407.191-.8.4-1.1.565l-.5.273a.083.083,0,0,1-.1-.135h0s.173-.155.455-.357a7.366,7.366,0,0,1,1.1-.643c.106-.049.213-.1.317-.141s.216-.083.32-.117a4.438,4.438,0,0,1,.583-.145c.172-.032.318-.044.419-.055s.159-.01.159-.01h0a.083.083,0,0,1,.023.163" transform="translate(-357.446 -104.513)" fill="#42459c"/>
            <path id="Trazado_177564" data-name="Trazado 177564" d="M448.4,137.92s-.148,0-.359-.012-.5-.016-.778-.02h-.779c-.214,0-.359-.005-.359-.005a.084.084,0,0,1-.026-.163h0a2.479,2.479,0,0,1,.358-.093,4.094,4.094,0,0,1,1.616.027,2.413,2.413,0,0,1,.355.1h0a.084.084,0,0,1-.033.161" transform="translate(-398.09 -122.768)" fill="#42459c"/>
            <path id="Trazado_177565" data-name="Trazado 177565" d="M497.669,149.841s-.1-.107-.244-.263-.337-.363-.533-.566l-.548-.554c-.151-.151-.249-.259-.249-.259a.084.084,0,0,1,.1-.133h0a2.5,2.5,0,0,1,.318.189,3.949,3.949,0,0,1,.617.527,3.99,3.99,0,0,1,.5.64,2.419,2.419,0,0,1,.176.325v0a.083.083,0,0,1-.138.089" transform="translate(-442.735 -132.14)" fill="#42459c"/>
            <path id="Trazado_177566" data-name="Trazado 177566" d="M593.071,235.191s-.005-.148-.009-.359-.012-.5-.024-.778-.032-.566-.044-.778-.015-.359-.015-.359a.084.084,0,0,1,.161-.035h0a2.488,2.488,0,0,1,.113.352,3.943,3.943,0,0,1,.113.8,3.991,3.991,0,0,1-.048.811,2.428,2.428,0,0,1-.084.36v0a.084.084,0,0,1-.163-.024" transform="translate(-529.224 -207.799)" fill="#42459c"/>
            <path id="Trazado_177567" data-name="Trazado 177567" d="M615.223,360.673s.011-.148.032-.357.044-.494.063-.775.032-.566.044-.778.025-.358.025-.358a.084.084,0,0,1,.164-.016h0a2.469,2.469,0,0,1,.073.363,4.092,4.092,0,0,1-.118,1.612,2.418,2.418,0,0,1-.124.348l0,0a.084.084,0,0,1-.159-.042" transform="translate(-549.075 -319.801)" fill="#42459c"/>
            <path id="Trazado_177568" data-name="Trazado 177568" d="M579.546,415.761s.033-.144.084-.349.115-.482.175-.758l.157-.763c.042-.21.078-.351.078-.351a.084.084,0,0,1,.165.008h0a2.491,2.491,0,0,1,.019.37,4.094,4.094,0,0,1-.351,1.578,2.426,2.426,0,0,1-.173.327l0,0a.084.084,0,0,1-.151-.065" transform="translate(-517.233 -369.02)" fill="#42459c"/>
            <path id="Trazado_177569" data-name="Trazado 177569" d="M612.044,287.52s-.012-.148-.024-.358-.034-.495-.058-.776l-.078-.775c-.022-.212-.031-.358-.031-.358a.084.084,0,0,1,.16-.042h0a2.5,2.5,0,0,1,.128.347,3.942,3.942,0,0,1,.148.8,3.988,3.988,0,0,1-.013.812,2.427,2.427,0,0,1-.068.363v0a.084.084,0,0,1-.163-.017" transform="translate(-546.068 -254.503)" fill="#42459c"/>
            <path id="Trazado_177570" data-name="Trazado 177570" d="M476.25,116.046l-.068-.072c-.021-.025-.048-.044-.075-.072s-.066-.056-.1-.089a3.2,3.2,0,0,0-.618-.391,7.3,7.3,0,0,0-.693-.294l-.238-.089-.091-.036a.084.084,0,0,1,.03-.162h0a2.3,2.3,0,0,1,.364.036,2.778,2.778,0,0,1,.367.088,2.741,2.741,0,0,1,.406.161,2.265,2.265,0,0,1,.376.234,1.707,1.707,0,0,1,.282.27,1.343,1.343,0,0,1,.093.128.969.969,0,0,1,.062.105l.041.09a.084.084,0,0,1-.137.092" transform="translate(-423.315 -102.494)" fill="#42459c"/>
            <path id="Trazado_177571" data-name="Trazado 177571" d="M524.149,135.027l-.1.014c-.033,0-.064.013-.1.019s-.084.021-.131.03a3.19,3.19,0,0,0-.678.274,7.263,7.263,0,0,0-.643.391l-.211.141-.082.053a.084.084,0,0,1-.114-.119h0a2.3,2.3,0,0,1,.242-.275,2.767,2.767,0,0,1,.285-.246,2.734,2.734,0,0,1,.367-.236,2.255,2.255,0,0,1,.409-.169,1.7,1.7,0,0,1,.384-.071,1.33,1.33,0,0,1,.158,0,.944.944,0,0,1,.122.011l.1.019a.084.084,0,0,1,0,.165" transform="translate(-465.941 -120.332)" fill="#42459c"/>
            <path id="Trazado_177572" data-name="Trazado 177572" d="M274.987,366.874s-.008.039-.025.105-.035.155-.06.268l-.08.381c-.027.14-.057.289-.083.439l-.076.44-.06.385c-.015.113-.031.207-.037.273s-.013.1-.013.1v0a.084.084,0,0,1-.164.006,2.252,2.252,0,0,1-.046-.4,3.44,3.44,0,0,1,.011-.408,4.609,4.609,0,0,1,.061-.462,4.308,4.308,0,0,1,.24-.839c.044-.11.093-.2.124-.264s.054-.093.054-.093a.084.084,0,0,1,.153.061" transform="translate(-244.845 -327.339)" fill="#42459c"/>
            <path id="Trazado_177573" data-name="Trazado 177573" d="M621.878,210.425l.141.308c.043.1.1.218.153.358s.124.3.188.471c.134.346.279.753.419,1.2s.276.918.394,1.4c.062.24.11.483.163.721s.094.475.13.705.069.453.1.664.047.413.059.6.026.356.029.509.009.284.007.393c0,.218-.008.342-.008.342a.161.161,0,0,1-.319.021v0l-.057-.33c-.015-.1-.042-.232-.066-.378l-.089-.488-.112-.576-.135-.641-.151-.684-.167-.7c-.054-.237-.115-.472-.174-.7l-.175-.681-.32-1.207-.227-.856-.083-.328a.161.161,0,0,1,.3-.106" transform="translate(-554.741 -187.717)" fill="#070256"/>
            <path id="Trazado_177574" data-name="Trazado 177574" d="M164.456,257.309l-.231.249c-.074.078-.164.174-.273.279s-.227.229-.365.354-.281.267-.443.406-.327.291-.508.437-.366.3-.557.451-.391.3-.593.444-.406.286-.609.424-.407.266-.606.387l-.295.178-.288.16c-.185.107-.369.2-.536.28-.337.165-.627.284-.832.362s-.326.114-.326.114a.161.161,0,0,1-.131-.292l0,0,.288-.168.328-.2.422-.261c.152-.1.32-.2.493-.319l.545-.364.578-.4c.2-.136.393-.279.591-.421s.394-.286.588-.427.384-.28.565-.42l1-.754.706-.537.272-.2a.161.161,0,0,1,.214.238" transform="translate(-140.821 -229.402)" fill="#070256"/>
            <path id="Trazado_177575" data-name="Trazado 177575" d="M512.583,118.494a.32.32,0,0,1-.282-.167c-.425-.781-1.118-5.433.146-7.46a.32.32,0,1,1,.543.338c-1.1,1.77-.491,6.146-.126,6.816a.32.32,0,0,1-.281.473" transform="translate(-456.706 -98.811)" fill="#070256"/>
            <path id="Trazado_177576" data-name="Trazado 177576" d="M342.918,300.756c-1.331.947,17.193,20.7,17.193,20.7v-19.59a16.742,16.742,0,0,1-2.007-4.836,12.8,12.8,0,0,1-.317-2.662,41.968,41.968,0,0,1,.662-8.165l-11.2-9.706-2.586-1.96c4.108,10.743,2.7,23.057-1.745,26.218" transform="translate(-305.987 -245.02)" fill="#ffb8c1"/>
            <path id="Trazado_177577" data-name="Trazado 177577" d="M390.225,547.089c3.414,4.189,9.725,5.387,12.333,3.122s2.836,17.411,2.836,17.411l-5.964,1.818Z" transform="translate(-348.269 -488.267)" fill="#1996b5"/>
            <path id="Trazado_177578" data-name="Trazado 177578" d="M400.72,343.508a12.8,12.8,0,0,1-.317-2.662,41.968,41.968,0,0,1,.662-8.165l-10.429-6.067c-.527,7.3,4.825,15.775,10.085,16.894" transform="translate(-348.603 -291.497)" fill="#ff9ea8"/>
            <path id="Trazado_177579" data-name="Trazado 177579" d="M359.147,184.229c3,9.9,10.789,16.54,18.5,15.291,2.015-.326,4.784-4.219,5.517-8.3a11.5,11.5,0,0,0,.173-1.436,24.134,24.134,0,0,0-.189-5.4c-.164-1.07-.4-2.2-.685-3.737-.348-1.858-.429-3.788-.621-5.463a10.126,10.126,0,0,0-.688-3.04c-1.1-2.393-3.2-3.717-4.841-1.5-6.65-2.6-11.47,5.707-12.552,7.636a3.159,3.159,0,0,1-4.423,1.353c-.029-.015-.055-.03-.078-.045a17.276,17.276,0,0,0-.113,4.636" transform="translate(-320.437 -151.287)" fill="#ffb8c1"/>
            <path id="Trazado_177580" data-name="Trazado 177580" d="M426.638,317.763a3.622,3.622,0,1,0-3.4,3.832,3.623,3.623,0,0,0,3.4-3.832" transform="translate(-374.306 -280.557)" fill="#ffabb7"/>
            <path id="Trazado_177581" data-name="Trazado 177581" d="M560.848,311.468a3.629,3.629,0,0,0,2.421,3.207,11.5,11.5,0,0,0,.173-1.436,24.13,24.13,0,0,0-.189-5.4,3.627,3.627,0,0,0-2.405,3.632" transform="translate(-500.541 -274.738)" fill="#ffabb7"/>
            <path id="Trazado_177582" data-name="Trazado 177582" d="M380.588,175.815c-8.316-1.292-12.264,17.317-16.756,9.325-.067-.12,1.318,1.089,4.021-2.137,1.466-1.749,6.086-9.793,12.734-7.188" transform="translate(-324.712 -156.453)" fill="#ff9ea8"/>
            <path id="Trazado_177583" data-name="Trazado 177583" d="M525.221,175.189c-.732-2.607-2.26-5.189-5.53-4.535,1.645-2.221,3.745-.9,4.842,1.494a10.144,10.144,0,0,1,.688,3.041" transform="translate(-463.815 -151.291)" fill="#ff9ea8"/>
            <path id="Trazado_177584" data-name="Trazado 177584" d="M322.716,254.465c-1.754,2.216,3.538,10.123,4.612,4.793.454-2.254.151-3.509-.945-4.532-1.434-1.338-3.068-1.017-3.666-.261" transform="translate(-287.703 -226.521)" fill="#ffb5c0"/>
            <path id="Trazado_177585" data-name="Trazado 177585" d="M335.06,271.469h-.007a1.146,1.146,0,0,1-.852-.577.687.687,0,0,1,.078-.585.507.507,0,0,0,.083-.321,1.513,1.513,0,0,0-.7-1.19,1.267,1.267,0,0,0-1.092-.077.165.165,0,0,1-.131-.3,1.609,1.609,0,0,1,1.386.093,1.805,1.805,0,0,1,.864,1.434.819.819,0,0,1-.116.514.371.371,0,0,0-.058.331.878.878,0,0,0,.552.351.165.165,0,0,1-.007.33" transform="translate(-296.607 -239.453)" fill="#f26979"/>
            <path id="Trazado_177586" data-name="Trazado 177586" d="M338.142,275.667a.165.165,0,0,1-.159-.209.931.931,0,0,1,.791-.677.778.778,0,0,1,.8.374.165.165,0,0,1-.288.161.459.459,0,0,0-.468-.207.6.6,0,0,0-.513.437.165.165,0,0,1-.159.121" transform="translate(-301.638 -245.231)" fill="#f26979"/>
            <path id="Trazado_177587" data-name="Trazado 177587" d="M466.548,251.547l-.013-.05c-.009-.031-.021-.085-.039-.137a1.37,1.37,0,0,0-.075-.166.7.7,0,0,0-.13-.178.586.586,0,0,0-.2-.131.818.818,0,0,0-.28-.064,1.453,1.453,0,0,0-.344.006,2.926,2.926,0,0,0-.373.066c-.126.031-.252.07-.377.108s-.245.088-.363.132-.228.1-.335.142-.2.1-.3.14c-.18.091-.324.175-.421.236s-.145.1-.145.1l-.014.01a.161.161,0,0,1-.233-.214l.032-.05a1.214,1.214,0,0,1,.1-.133,2.518,2.518,0,0,1,.406-.385,3.782,3.782,0,0,1,.66-.406,3.64,3.64,0,0,1,.4-.171,3.2,3.2,0,0,1,.441-.127,2.392,2.392,0,0,1,.946-.038,1.344,1.344,0,0,1,.451.168,1.038,1.038,0,0,1,.328.306,1.122,1.122,0,0,1,.151.331,1.341,1.341,0,0,1,.044.268,1.373,1.373,0,0,1,0,.15l0,.052a.162.162,0,0,1-.318.035" transform="translate(-413.117 -223.303)" fill="#070256"/>
            <path id="Trazado_177588" data-name="Trazado 177588" d="M545.132,244.507l-.026-.024a.633.633,0,0,0-.069-.06c-.024-.016-.054-.035-.092-.058a.841.841,0,0,0-.122-.052.785.785,0,0,0-.147-.023,1.021,1.021,0,0,0-.177.01,2.034,2.034,0,0,0-.428.125,4,4,0,0,0-.444.216c-.07.04-.14.078-.2.117s-.125.076-.18.113c-.222.144-.362.249-.362.249l-.01.007a.163.163,0,0,1-.244-.2l.017-.034a1.039,1.039,0,0,1,.051-.094,2,2,0,0,1,.221-.3,2.626,2.626,0,0,1,.382-.354,2.487,2.487,0,0,1,.526-.308,1.628,1.628,0,0,1,.637-.144,1.033,1.033,0,0,1,.607.171.869.869,0,0,1,.186.176c.022.03.042.057.06.084l.043.081a.451.451,0,0,1,.036.1l.01.034a.166.166,0,0,1-.272.169" transform="translate(-484.271 -217.49)" fill="#070256"/>
            <path id="Trazado_177589" data-name="Trazado 177589" d="M531.028,326.206s.057.056.154.157.234.246.394.427a7.643,7.643,0,0,1,.518.652,4.416,4.416,0,0,1,.256.413,2.091,2.091,0,0,1,.193.5,1.073,1.073,0,0,1,.025.144l0,.037v.046a.644.644,0,0,1,0,.077.785.785,0,0,1-.105.33,1.138,1.138,0,0,1-.41.4,1.789,1.789,0,0,1-.447.19,2.122,2.122,0,0,1-.413.076,2.276,2.276,0,0,1-.616-.025,1.7,1.7,0,0,1-.168-.038l-.058-.016a.124.124,0,0,1,.037-.244h0s.077,0,.208,0a2.916,2.916,0,0,0,.533-.068,2.022,2.022,0,0,0,.667-.272.8.8,0,0,0,.237-.242.311.311,0,0,0,.038-.116.177.177,0,0,0,0-.042v-.017c0,.005,0-.015,0,.012v-.008l0-.022a.578.578,0,0,0-.015-.091,1.657,1.657,0,0,0-.143-.387,3.964,3.964,0,0,0-.21-.38c-.074-.122-.15-.241-.224-.353l-.212-.316c-.133-.2-.242-.363-.32-.479s-.118-.185-.118-.185a.125.125,0,0,1,.194-.154" transform="translate(-473.251 -291.101)" fill="#f26979"/>
            <path id="Trazado_177590" data-name="Trazado 177590" d="M486.631,379.6c-1.728.724-5.644.465-7.166-.032a7.688,7.688,0,0,0,5.045,2.6c1.1.063,1.785-1.363,2.12-2.57" transform="translate(-427.914 -338.758)" fill="#fff"/>
            <path id="Trazado_177591" data-name="Trazado 177591" d="M543.924,292.252c.05.9,1.177,1.463,2.178,1.307a1.6,1.6,0,0,0,1.449-1.871c-.2-.878-1.177-.724-2.179-.568s-1.484.475-1.448,1.132" transform="translate(-485.441 -259.712)" fill="#fff"/>
            <path id="Trazado_177592" data-name="Trazado 177592" d="M549.378,292.207c.146.715.64,1.238,1.1,1.166s.72-.708.574-1.424-.64-1.237-1.1-1.166-.72.708-.574,1.424" transform="translate(-490.273 -259.513)" fill="#04153d"/>
            <path id="Trazado_177593" data-name="Trazado 177593" d="M556.072,303.409c.073.259.282.438.467.4s.277-.281.2-.54-.282-.438-.467-.4-.277.28-.2.54" transform="translate(-496.262 -270.3)" fill="#fff"/>
            <path id="Trazado_177594" data-name="Trazado 177594" d="M457.746,301.618a2.49,2.49,0,0,0,2.683,1.314,1.834,1.834,0,0,0,1.6-2.2c-.17-.639-1.5-.819-2.684-.575s-1.964.792-1.6,1.459" transform="translate(-408.45 -267.793)" fill="#fff"/>
            <path id="Trazado_177595" data-name="Trazado 177595" d="M467.226,301.868c.2.732.8,1.237,1.319,1.127s.782-.793.577-1.525-.8-1.237-1.319-1.127-.782.793-.577,1.525" transform="translate(-416.928 -268.037)" fill="#04153d"/>
            <path id="Trazado_177596" data-name="Trazado 177596" d="M475.86,312.508c.073.259.282.438.467.4s.277-.281.2-.54-.282-.438-.467-.4-.277.281-.2.54" transform="translate(-424.674 -278.422)" fill="#fff"/>
            <path id="Trazado_177597" data-name="Trazado 177597" d="M536.89,284.481a4.1,4.1,0,0,1-3.625-3.987c-.081-1.356,1.895-2.195,3.765-2.4,1.479-.163,3.27.039,3.448,1.142a5.123,5.123,0,0,1-1.016,3.911,3.385,3.385,0,0,1-2.434,1.331c-.045,0-.091,0-.137,0m1.029-5.91a7.655,7.655,0,0,0-.832.047c-1.64.181-3.353.889-3.3,1.845.125,2.1,1.8,3.57,3.2,3.487a2.855,2.855,0,0,0,2.053-1.134,4.579,4.579,0,0,0,.907-3.5c-.074-.463-.9-.749-2.037-.749" transform="translate(-475.927 -248.148)" fill="#070256"/>
            <path id="Trazado_177598" data-name="Trazado 177598" d="M420.856,292.9a6.016,6.016,0,0,1-3.561-1.2,4.463,4.463,0,0,1-1.9-3.22c-.085-1.428,2.646-2.1,5.011-2.241,2.788-.166,5.829.323,5.917,1.79.147,2.458-2.21,4.683-5.147,4.858q-.161.009-.324.01m.6-6.162c-.328,0-.667.01-1.012.031-2.622.157-4.563.88-4.515,1.682a3.94,3.94,0,0,0,1.685,2.829,5.45,5.45,0,0,0,3.537,1.083c2.605-.156,4.778-2.165,4.651-4.3-.047-.781-1.918-1.325-4.346-1.325" transform="translate(-370.734 -255.44)" fill="#070256"/>
            <path id="Trazado_177599" data-name="Trazado 177599" d="M512.319,294.711a.256.256,0,0,1-.059-.007.264.264,0,0,1-.2-.316c.131-.574.839-.838,1.483-.846.7-.008,1.2.261,1.313.7a.264.264,0,1,1-.512.13c-.046-.179-.386-.309-.795-.306-.491.006-.919.2-.974.436a.264.264,0,0,1-.257.205" transform="translate(-456.999 -261.981)" fill="#070256"/>
            <path id="Trazado_177600" data-name="Trazado 177600" d="M366.335,265.988a.263.263,0,0,1-.164-.057l-5.944-4.732a.264.264,0,1,1,.329-.413l5.944,4.732a.264.264,0,0,1-.165.471" transform="translate(-321.407 -232.694)" fill="#070256"/>
            <path id="Trazado_177601" data-name="Trazado 177601" d="M80.373,601.063c0,3.073-60.737-2.8-60.748-6.994a50.57,50.57,0,0,1,.511-7.395c0-.021-16.839-9.623-18.337-17.368-2.473-12.788,8.523-41.9,17.9-53.812,5.052-6.416,15.295-11.279,20.783-11.946l15.186,22.344.931-21.452c2.88.924,9.233,7.4,12.19,11.659,7.867,11.329,4.715,42.315,5.18,51.65.463,9.293,6.4,29.857,6.4,33.313" transform="translate(-1.291 -449.408)" fill="#fff"/>
            <path id="Trazado_177602" data-name="Trazado 177602" d="M629.933,1006.908a.32.32,0,0,1-.318-.292c-.605-6.776-2.074-38.647.006-47.938a.32.32,0,0,1,.625.14c-2.065,9.226-.6,40.985.007,47.742a.32.32,0,0,1-.29.347h-.029" transform="translate(-560.964 -855.379)" fill="#4997e8"/>
            <path id="Trazado_177603" data-name="Trazado 177603" d="M618.414,741.884a.32.32,0,0,1-.308-.409c.191-.658.425-1.321.672-2.021a17.619,17.619,0,0,0,1.381-7.679c-.156-1.826-1.419-4.169-2.533-6.236a16.845,16.845,0,0,1-1.587-3.431c-.571-2.56-.531-5.37.1-6.833a.32.32,0,1,1,.588.252c-.571,1.33-.6,4.039-.06,6.442a17.05,17.05,0,0,0,1.525,3.266c1.144,2.122,2.44,4.527,2.608,6.486a18.142,18.142,0,0,1-1.415,7.946c-.244.692-.475,1.346-.661,1.987a.32.32,0,0,1-.307.231" transform="translate(-549.445 -638.195)" fill="#4997e8"/>
            <path id="Trazado_177604" data-name="Trazado 177604" d="M159.76,923.811c-.644.238-3.381,8.251-4.2,9.731a46.776,46.776,0,0,0-2,4.775,11.039,11.039,0,0,1,2.5.679c.746.4,4.951,3.829,4.951,3.829s1.295-2.639.723-8.3a71.859,71.859,0,0,0-1.982-10.714" transform="translate(-137.058 -824.484)" fill="#abd8f7"/>
            <path id="Trazado_177605" data-name="Trazado 177605" d="M504.379,754.362a.32.32,0,0,1-.32-.309c-.283-8.135-.512-16.025-.512-17.135a16.457,16.457,0,0,1,.5-3.3,31.327,31.327,0,0,0,.885-7.078c0-2.4-1.022-5.3-2.1-8.378-1.168-3.32-2.375-6.754-2.412-9.891a.32.32,0,0,1,.316-.324.315.315,0,0,1,.324.316c.035,3.032,1.225,6.415,2.376,9.686,1.1,3.129,2.14,6.085,2.14,8.591a31.891,31.891,0,0,1-.9,7.213,16.067,16.067,0,0,0-.49,3.169c0,1.1.228,8.984.511,17.112a.32.32,0,0,1-.309.331h-.011" transform="translate(-446.617 -631.826)" fill="#4997e8"/>
            <path id="Trazado_177606" data-name="Trazado 177606" d="M213.389,964.739h-.02a.32.32,0,0,1-.3-.339c.011-.174.04-.4.077-.69.25-1.962.836-6.556-1.516-14.283a.32.32,0,1,1,.612-.187c2.392,7.858,1.794,12.548,1.539,14.55-.035.277-.063.5-.073.649a.32.32,0,0,1-.319.3" transform="translate(-188.864 -846.976)" fill="#4997e8"/>
            <path id="Trazado_177607" data-name="Trazado 177607" d="M88.545,550.975l.4-.87.465-1,.288-.612.332-.673c.227-.471.491-.972.765-1.506.137-.267.29-.535.44-.812s.308-.558.48-.838.337-.569.516-.856l.563-.857c.187-.29.4-.565.6-.85.1-.141.2-.285.309-.424l.332-.409.332-.408.166-.2.177-.194.7-.773c.244-.245.491-.483.733-.72.123-.116.237-.241.365-.348l.377-.326c.251-.213.49-.432.743-.623l.744-.555c.122-.089.238-.182.359-.264l.362-.236.687-.448c.216-.15.442-.263.65-.382l.594-.331c.368-.217.711-.362.985-.5l.868-.411a.124.124,0,0,1,.111.221l-.007,0-.84.448c-.266.145-.6.3-.954.529l-.573.348c-.2.126-.42.241-.629.394l-.666.456-.351.24c-.117.083-.229.177-.347.268l-.717.562c-.125.092-.238.2-.357.306l-.36.317-.367.321c-.125.106-.236.229-.355.344-.235.235-.476.469-.713.711l-.682.763-.172.192-.161.2-.322.4-.323.4-.3.416c-.2.28-.411.548-.6.833l-.558.841c-.18.28-.349.563-.52.838s-.331.551-.486.822-.314.532-.456.794c-.286.522-.561,1.014-.8,1.477l-1.608,3.08a.124.124,0,0,1-.222-.109" transform="translate(-79.015 -477.068)" fill="#3d8cff"/>
            <rect id="Rect치ngulo_44656" data-name="Rect치ngulo 44656" width="46.635" height="33.886" transform="translate(13.742 148.982) rotate(-48.561)" fill="#2bc2c7"/>
            <path id="Trazado_177608" data-name="Trazado 177608" d="M448.737,1152.092a.557.557,0,0,1-.37-.14l-12.5-11.037a.56.56,0,1,1,.741-.84l12.5,11.037a.56.56,0,0,1-.371.98" transform="translate(-388.833 -1017.371)" fill="#fff"/>
            <path id="Trazado_177609" data-name="Trazado 177609" d="M151.025,1302.1a.264.264,0,0,1-.175-.066l-25.4-22.427a.264.264,0,1,1,.349-.4l25.2,22.252,30.689-34.762a.264.264,0,0,1,.4.349l-30.864,34.96a.265.265,0,0,1-.181.089h-.016" transform="translate(-111.88 -1130.428)" fill="#007491"/>
            <path id="Trazado_177610" data-name="Trazado 177610" d="M152.41,1129.8c4.219,4.188,16.493,16.4,17.741,18.261.848,1.262-.378,5.712-3.728,6.48-4.46,1.023-26.037-10.472-26.277-13.433S152.41,1129.8,152.41,1129.8" transform="translate(-125.074 -1008.328)" fill="#fff"/>
            <path id="Trazado_177611" data-name="Trazado 177611" d="M21.8,877.806a.317.317,0,0,1-.151-.038l-.062-.033C16.759,875.145.959,866.152.19,859.123c-.417-3.812-.712-14.431,5.527-30.677a.32.32,0,1,1,.6.229C.126,844.791.415,855.288.827,859.053c.584,5.338,11.261,12.859,21.06,18.117l.062.033a.32.32,0,0,1-.152.6" transform="translate(0 -739.19)" fill="#4997e8"/>
            <path id="Trazado_177612" data-name="Trazado 177612" d="M141.639,792.714a.319.319,0,0,1-.225-.092c-6.387-6.308-10.7-10.225-12.477-11.329a5.467,5.467,0,0,0-3.429-.869,5.2,5.2,0,0,1-2.27,2.015.494.494,0,0,1-.49-.136,1,1,0,0,1,.094-1.363,3.754,3.754,0,0,1,2.318-1.125,19.773,19.773,0,0,0,2.393-4.757c1.819-5.051,4.287-10.865,6.9-17.021,1.586-3.738,3.227-7.6,4.8-11.483a.32.32,0,1,1,.593.241c-1.575,3.884-3.216,7.751-4.8,11.492-2.609,6.147-5.073,11.953-6.886,16.987a21.13,21.13,0,0,1-2.181,4.484,6.3,6.3,0,0,1,3.3.991c1.842,1.145,6.077,4.986,12.589,11.417a.32.32,0,0,1-.225.548m-17.11-12.087a2.7,2.7,0,0,0-1.2.722c-.108.128-.212.3-.157.446a4.142,4.142,0,0,0,1.352-1.168" transform="translate(-109.348 -666.107)" fill="#4997e8"/>
            <path id="Trazado_177613" data-name="Trazado 177613" d="M209.775,1289.629c3.043,1.558,6.1,3.092,9.216,4.475,1.56.689,3.135,1.344,4.739,1.9a24.326,24.326,0,0,0,2.429.717,10.545,10.545,0,0,0,1.226.215,4.031,4.031,0,0,0,1.18-.017.371.371,0,0,1,.348.122l.034.006h0a6.961,6.961,0,0,0,1.243,1.446,11.889,11.889,0,0,0,1.529,1.2,25.215,25.215,0,0,0,3.478,1.867c.6.277,1.211.541,1.817.834a7.118,7.118,0,0,1,.9.5,1.439,1.439,0,0,1,.412.394.557.557,0,0,1,.07.161.635.635,0,0,1,.016.073l.011.061c.015.088.027.174.038.259.078.677.079,1.341.155,1.995a6.155,6.155,0,0,0,.172.956,2.112,2.112,0,0,0,.406.819h0a.176.176,0,1,1-.264.233l0,0a2.442,2.442,0,0,1-.464-.961,6.842,6.842,0,0,1-.178-1.009c-.036-.336-.059-.671-.083-1s-.045-.663-.088-.984c-.011-.081-.023-.159-.037-.235l-.012-.061a.32.32,0,0,0-.011-.048.217.217,0,0,0-.032-.065,1.135,1.135,0,0,0-.317-.279,6.814,6.814,0,0,0-.858-.45c-.6-.273-1.218-.524-1.831-.789a25.77,25.77,0,0,1-3.594-1.823,11.3,11.3,0,0,1-3.113-2.712h0l.352.128a4.516,4.516,0,0,1-1.36.007,11.042,11.042,0,0,1-1.288-.245,24.758,24.758,0,0,1-2.475-.769c-1.62-.587-3.193-1.269-4.752-1.984-3.114-1.434-6.152-3.014-9.174-4.615a.176.176,0,0,1,.163-.312" transform="translate(-186.991 -1150.953)" fill="#007491"/>
            <path id="Trazado_177614" data-name="Trazado 177614" d="M393.833,1317.6c-1.174.163-1.3-4.579-1.633-5.129-.232-.381-7.715-4.009-8.907-5.584-3.44-4.534,1-9.231,3.755-6.355.915.955,11.176,10.571,11.562,11.437a11.292,11.292,0,0,1-.162,4.282c-.731.021-.826-3.065-1.206-3.2-.14,0-1.582,4.3-3.409,4.548" transform="translate(-340.964 -1159.91)" fill="#ffb5c0"/>
            <path id="Trazado_177615" data-name="Trazado 177615" d="M497.852,1406.934l.3-1.051c.183-.629.421-1.469.62-2.312a7.983,7.983,0,0,0,.206-1.236,1.809,1.809,0,0,0,0-.275l0-.031s0-.018,0-.008l0-.018-.015-.071c-.012-.044-.021-.073-.035-.113a1.621,1.621,0,0,0-.243-.414c-.1-.122-.2-.228-.29-.323l-.237-.25c-.067-.07-.118-.126-.151-.166l-.052-.06a.083.083,0,0,1,.116-.117h0l.227.193a5.866,5.866,0,0,1,.6.544,1.725,1.725,0,0,1,.319.478,1.551,1.551,0,0,1,.055.158l.017.071,0,.018,0,.029.006.042a1.881,1.881,0,0,1,.012.328,7.26,7.26,0,0,1-.211,1.3c-.2.86-.485,1.692-.7,2.314s-.382,1.027-.382,1.027h0a.083.083,0,0,1-.156-.053" transform="translate(-444.321 -1249.893)" fill="#f26979"/>
            <path id="Trazado_177616" data-name="Trazado 177616" d="M484.925,1411.645l.036-.271c.024-.172.056-.417.088-.713s.076-.639.109-1.009.068-.763.091-1.157.035-.787.02-1.148a2.177,2.177,0,0,0-.067-.487.232.232,0,0,0-.016-.042l-.007-.017-.015-.027c-.02-.037-.039-.071-.058-.1l-.117-.188a3.641,3.641,0,0,0-.233-.315c-.075-.089-.141-.168-.2-.227a2.426,2.426,0,0,0-.19-.179h0a.083.083,0,0,1,.093-.136l.066.037a1.772,1.772,0,0,1,.174.121,2.476,2.476,0,0,1,.246.214,3.838,3.838,0,0,1,.281.315,2.406,2.406,0,0,1,.143.2c.024.037.047.073.068.108l.016.027c.008.015.013.026.02.039a.492.492,0,0,1,.031.076,2.241,2.241,0,0,1,.091.573,9.74,9.74,0,0,1-.022,1.186c-.028.4-.071.8-.121,1.17s-.106.717-.158,1.012c-.109.589-.207.977-.207.977a.083.083,0,0,1-.162-.03" transform="translate(-432.259 -1254.484)" fill="#f26979"/>
            <path id="Trazado_177617" data-name="Trazado 177617" d="M515.131,1406.937s-.039-.142-.083-.35a4.878,4.878,0,0,0-.2-.726c-.011-.03-.024-.06-.038-.094s-.026-.057-.041-.086a1.875,1.875,0,0,0-.091-.167,2.32,2.32,0,0,0-.2-.276c-.066-.077-.125-.141-.168-.184l-.067-.069h0a.084.084,0,0,1,.1-.135s.034.016.092.048a1.616,1.616,0,0,1,.228.157,1.638,1.638,0,0,1,.275.287,1.938,1.938,0,0,1,.123.19c.018.033.036.069.054.106s.031.068.046.1a2.38,2.38,0,0,1,.152.815,2.677,2.677,0,0,1-.014.367v0a.084.084,0,0,1-.164.011" transform="translate(-458.933 -1253.795)" fill="#f26979"/>
            <path id="Trazado_177618" data-name="Trazado 177618" d="M316.8,474.521l-6.591,5.688,7.02,11.254,2.3-3.751v4.724l11.448,7.5Z" transform="translate(-276.859 -423.501)" fill="#fff"/>
            <path id="Trazado_177619" data-name="Trazado 177619" d="M484.731,483.742l2.007,24.426,2.951-8.753-2.02-3.956,3.136,1.038-2.121-8.336Z" transform="translate(-432.614 -431.731)" fill="#fff"/>
            <path id="Trazado_177620" data-name="Trazado 177620" d="M486.417,487.359a.32.32,0,0,1-.31-.241l-.371-1.459-3.9-4.361a.32.32,0,0,1,.477-.427l3.953,4.419a.319.319,0,0,1,.071.134l.391,1.535a.32.32,0,0,1-.31.4" transform="translate(-429.957 -429.074)" fill="#4997e8"/>
            <path id="Trazado_177621" data-name="Trazado 177621" d="M510.5,563.445a.32.32,0,0,1-.3-.422l.873-2.588-1.959-3.836a.32.32,0,0,1,.386-.449l2.581.854-1.15-4.521a.32.32,0,1,1,.62-.158l1.294,5.087a.32.32,0,0,1-.411.383l-2.4-.793,1.666,3.261a.32.32,0,0,1,.018.248l-.916,2.716a.32.32,0,0,1-.3.218" transform="translate(-454.343 -492.724)" fill="#4997e8"/>
            <path id="Trazado_177622" data-name="Trazado 177622" d="M475.183,667.629a.319.319,0,0,1-.175-.052l-3.079-2.018a.32.32,0,0,1,.351-.535l2.733,1.791,1.531-4.541a.32.32,0,1,1,.607.2l-1.663,4.934a.321.321,0,0,1-.2.2.324.324,0,0,1-.1.018" transform="translate(-421.059 -590.872)" fill="#4997e8"/>
            <path id="Trazado_177623" data-name="Trazado 177623" d="M456.466,679.567a.318.318,0,0,1-.175-.052l-.734-.481a.32.32,0,0,1,.351-.535l.734.481a.32.32,0,0,1-.176.588" transform="translate(-406.447 -605.5)" fill="#4997e8"/>
            <path id="Trazado_177624" data-name="Trazado 177624" d="M399.306,627.113a.318.318,0,0,1-.175-.052l-5.035-3.3a.32.32,0,0,1-.145-.268v-1.806a.32.32,0,1,1,.64,0v1.633l4.89,3.2a.32.32,0,0,1-.176.588" transform="translate(-351.595 -554.559)" fill="#4997e8"/>
            <path id="Trazado_177625" data-name="Trazado 177625" d="M364.535,598.621h-.009a.32.32,0,0,1-.273-.168l-1-1.862a.32.32,0,0,1,.564-.3l.738,1.372,2.012-3.277a.32.32,0,0,1,.593.167v1.876a.32.32,0,1,1-.64,0v-.743l-1.711,2.786a.32.32,0,0,1-.273.153" transform="translate(-324.162 -530.339)" fill="#4997e8"/>
            <path id="Trazado_177626" data-name="Trazado 177626" d="M312.955,486.112a.32.32,0,0,1-.268-.145l-5.4-8.24a.32.32,0,0,1,.059-.418l6.591-5.688a.32.32,0,1,1,.418.485l-6.378,5.505,5.246,8.005a.32.32,0,0,1-.267.5" transform="translate(-274.202 -420.844)" fill="#4997e8"/>
            <path id="Trazado_177627" data-name="Trazado 177627" d="M381.021,740.1l-7.381.695-.4-2.038,7.381-.695Z" transform="translate(-333.108 -658.704)" fill="#4997e8"/>
          </g>
        </g>
      </g>
    </g>
  </g>
</svg>
