<svg xmlns="http://www.w3.org/2000/svg" xmlns:xlink="http://www.w3.org/1999/xlink" width="201" height="173" viewBox="0 0 201 173">
  <defs>
    <clipPath id="clip-path">
      <rect id="Rectángulo_44653" data-name="Rectángulo 44653" width="154.04" height="160.448" fill="none"/>
    </clipPath>
  </defs>
  <g id="Grupo_172702" data-name="Grupo 172702" transform="translate(-775 -452.394)">
    <rect id="Rectángulo_42860" data-name="Rectángulo 42860" width="201" height="173" transform="translate(775 452.394)" fill="none"/>
    <g id="Grupo_173541" data-name="Grupo 173541" transform="translate(798 458.393)">
      <g id="Grupo_173541-2" data-name="Grupo 173541" clip-path="url(#clip-path)">
        <path id="Trazado_177412" data-name="Trazado 177412" d="M107.8,18.9c-.267-.729-3.012-2.016-3.012-2.016s.68-3.935,0-3.935-1.544,3.784-1.576,3.922c0-.033-.061-.089-.926.353-1.044.534.109,4.41.109,4.41s-4.155,9.619-8.639,19.637c-6.9-1.426-13.345-2.837-16.687-3.77a16.116,16.116,0,0,0-3.952-.653,4.2,4.2,0,0,0-3.4,6.821,9.523,9.523,0,0,0,4.714,2.876,126.615,126.615,0,0,0,15.16,3.9c2.148.4,4.421.745,6.782,1a4.555,4.555,0,0,0,4.733-2.925c.66-1.726,1.288-3.528,1.862-5.392a61.954,61.954,0,0,0,2.951-20.207c.583-.932,2.095-3.437,1.878-4.026" transform="translate(-30.133 -5.672)" fill="#fa9778"/>
        <path id="Trazado_177413" data-name="Trazado 177413" d="M119.84,47.934s5.537,1.177,7.487,2.208l-7.176-2.911Z" transform="translate(-52.503 -20.693)" fill="#450d20"/>
        <path id="Trazado_177414" data-name="Trazado 177414" d="M35.416,53.97a9.524,9.524,0,0,0-5.228-1.777,126.575,126.575,0,0,0-15.646-.5c-2.183.081-4.477.238-6.837.5a4.554,4.554,0,0,0-3.98,3.887c-.267,1.828-.488,3.724-.639,5.669A61.949,61.949,0,0,0,4.616,82.115c-.366,1.037-1.294,3.811-.954,4.339.42.653,3.379,1.31,3.379,1.31s.195,3.988.859,3.84.68-4.03.682-4.171c0,.033.079.074.827-.547.9-.75-1.069-4.28-1.069-4.28s1.955-10.293,4.144-21.049c7.043-.114,13.643-.145,17.108.036a16.093,16.093,0,0,0,4-.226,4.2,4.2,0,0,0,1.826-7.4" transform="translate(-1.25 -22.618)" fill="#fa9778"/>
        <path id="Trazado_177415" data-name="Trazado 177415" d="M2.874,82.1s5.474.855,7.414.9L2.9,83.026Z" transform="translate(-1.259 -35.969)" fill="#450d20"/>
        <path id="Trazado_177416" data-name="Trazado 177416" d="M67.481,46.894c-2.231-1.341-3.766-1.833-4.856-3.154-.12-.435-.4-1.5-.613-2.709a12.693,12.693,0,0,1-.225-3.187v0a2.761,2.761,0,0,1,.315-1.147L51.686,30.838c.008.035.012.066.02.1.165.967,1.42,8.555.133,12.58a7.59,7.59,0,0,1-2.941.658,5.346,5.346,0,0,0-3.486,1.385c-1.31,1.232-2.436,3.542-1.7,7.857,1.478,8.63,2.816,16.461,2.249,21.72H67.305s.224-8.51.874-14.8c.593-5.739,2.7-11.4-.7-13.441" transform="translate(-19.049 -13.511)" fill="#fa9778"/>
        <path id="Trazado_177417" data-name="Trazado 177417" d="M69.729,44.068c-5.662.715-8.531-6.047-8.635-6.3a6.676,6.676,0,0,0,4.042,2.9,11.091,11.091,0,0,0,4.333.221c.012,0,.024,0,.035-.007a12.69,12.69,0,0,0,.225,3.186" transform="translate(-26.766 -16.547)" fill="#450d20"/>
        <path id="Trazado_177418" data-name="Trazado 177418" d="M76.792,52.728c-.006.174-.022.357-.044.552-.476,4.024-4.289,13.226-7.772,14.5a2.464,2.464,0,0,1-.374.108c-.07.016-.141.027-.217.038-.059.011-.124.016-.189.027q-.3.033-.633.049c-4.5.168-14.217-2.529-16.67-3.233l-.537-.157a.175.175,0,0,1-.038-.011L48.834,81.07l-22.383-.883s-1.527-18.133-2.437-20.245l-12.456.786a31.644,31.644,0,0,1-.342,5.973v.006a4.962,4.962,0,0,1-.147.525,2.334,2.334,0,0,1-.146.352C10.111,69.122,0,66.886,0,66.886s0-.336.012-.91c.005-.163.01-.347.01-.542.1-3.493.559-12.267,2.806-14.661l.065-.065a1.662,1.662,0,0,1,.276-.222,1.836,1.836,0,0,1,.174-.1,4.171,4.171,0,0,1,.379-.189c4.7-1.993,23.018-1.143,27.974.4a3.171,3.171,0,0,1,1.094.509s.021.011.06.027a.016.016,0,0,0,.005.011c.7.336,7.214,3.38,11.649.829l.2.043.623.13,17.953,3.8A33.953,33.953,0,0,1,64.3,49.36a5.063,5.063,0,0,1,.2-.5,1.207,1.207,0,0,1,.579-.682c1.355-.45,10.02,1.906,11.465,3.347a1.691,1.691,0,0,1,.244,1.2" transform="translate(0 -21.083)" fill="#69ceff"/>
        <path id="Trazado_177419" data-name="Trazado 177419" d="M76.6,66.656l5.174.609s1.1,6.436-3.09,6.041c-3.506-.33-2.083-6.65-2.083-6.65" transform="translate(-33.433 -29.203)" fill="#7dd5ff"/>
        <rect id="Rectángulo_44642" data-name="Rectángulo 44642" width="0.541" height="4.14" transform="translate(43.741 38.603) rotate(-84.368)" fill="#450d20"/>
        <path id="Trazado_177420" data-name="Trazado 177420" d="M70.038,54.06c-1.847,2.058-3.84,3.1-5.931,3.1-.108,0-.216,0-.325-.005-3.829-.2-6.721-3.764-7.376-4.642a3.187,3.187,0,0,1,1.094.509s.022.011.06.028a.017.017,0,0,0,.006.011c1.181,1.31,3.488,3.412,6.244,3.553,1.966.1,3.84-.8,5.606-2.681Z" transform="translate(-24.712 -23.006)" fill="#450d20"/>
        <rect id="Rectángulo_44643" data-name="Rectángulo 44643" width="5.35" height="0.541" transform="translate(35.615 51.505) rotate(-30.77)" fill="#450d20"/>
        <rect id="Rectángulo_44644" data-name="Rectángulo 44644" width="8.411" height="0.542" transform="matrix(0.857, -0.515, 0.515, 0.857, 35.614, 53.581)" fill="#450d20"/>
        <path id="Trazado_177421" data-name="Trazado 177421" d="M11.225,80.2V80.2a5.25,5.25,0,0,1-.146.525L.019,79.473c.006-.162.011-.346.011-.541Z" transform="translate(-0.008 -34.581)" fill="#450d20"/>
        <path id="Trazado_177422" data-name="Trazado 177422" d="M126.931,53.3c-.006.174-.022.357-.044.552l-12.446-3.921a5.065,5.065,0,0,1,.2-.5Z" transform="translate(-50.138 -21.659)" fill="#450d20"/>
        <path id="Trazado_177423" data-name="Trazado 177423" d="M42.741,68.031s2.885-.663,3.743-1.408-.139,8.506-2.62,8.349l-.435-3.354Z" transform="translate(-18.725 -29.17)" fill="#450d20"/>
        <path id="Trazado_177424" data-name="Trazado 177424" d="M88.515,70.6l-.536-.157a13.825,13.825,0,0,0-2.107-8.692l.433-.325a14.157,14.157,0,0,1,2.21,9.174" transform="translate(-37.622 -26.912)" fill="#450d20"/>
        <path id="Trazado_177425" data-name="Trazado 177425" d="M119.4,81.155q-.3.033-.634.049l-1.89-2.643.444-.314Z" transform="translate(-51.207 -34.281)" fill="#450d20"/>
        <path id="Trazado_177426" data-name="Trazado 177426" d="M122.928,78.073l-.628,2.779a2.481,2.481,0,0,1-.374.108c-.071.016-.141.028-.217.038l.688-3.049Z" transform="translate(-53.322 -34.15)" fill="#450d20"/>
        <path id="Trazado_177427" data-name="Trazado 177427" d="M5.774,55.2l-.542.043-.2-2.708L5.1,52.47a1.691,1.691,0,0,1,.276-.222,1.755,1.755,0,0,1,.173-.1l.016.222Z" transform="translate(-2.205 -22.845)" fill="#450d20"/>
        <path id="Trazado_177428" data-name="Trazado 177428" d="M8.937,53.536,8.645,54,5.828,52.22,5.639,52.1a1.652,1.652,0,0,1,.173-.1,4.112,4.112,0,0,1,.379-.19Z" transform="translate(-2.471 -22.698)" fill="#450d20"/>
        <path id="Trazado_177429" data-name="Trazado 177429" d="M69.861,7.892c-1.36-3.5-7.773-4.858-12.242-.972C55.543,8.727,55.106,12,55.23,14.989a1.617,1.617,0,0,0-.269-.11,1.861,1.861,0,0,0-2.1,1.314,2.464,2.464,0,0,0,.319,2.051,3.1,3.1,0,0,0,1.409,1.177,3.969,3.969,0,0,0,1.213.12,9.029,9.029,0,0,0,2.977,5.068,8.165,8.165,0,0,0,6.942,1.757c1.935-.4,4.8-1.642,5.51-3.651a5.085,5.085,0,0,0,.208-1.642c.052-4.233-.027-9.182-1.582-13.181" transform="translate(-23.117 -2.002)" fill="#fa9778"/>
        <path id="Trazado_177430" data-name="Trazado 177430" d="M80.22,22.059c0,.649.257,1.175.574,1.175s.574-.526.574-1.175-.257-1.175-.574-1.175-.574.526-.574,1.175" transform="translate(-35.145 -9.15)" fill="#450d20"/>
        <path id="Trazado_177431" data-name="Trazado 177431" d="M72.523,22.059c0,.649-.257,1.175-.574,1.175s-.574-.526-.574-1.175.257-1.175.574-1.175.574.526.574,1.175" transform="translate(-31.271 -9.15)" fill="#450d20"/>
        <path id="Trazado_177432" data-name="Trazado 177432" d="M77.294,29.3a2.8,2.8,0,0,1-.865.983,2.188,2.188,0,0,1-1.284.426,2.222,2.222,0,0,1-1.278-.441,4.216,4.216,0,0,1-.5-.441c-.135-.174-.267-.348-.385-.528.177.13.339.268.5.4.18.11.342.244.525.337a2.367,2.367,0,0,0,1.134.323,2.315,2.315,0,0,0,1.14-.307,4.955,4.955,0,0,0,1.009-.753" transform="translate(-31.976 -12.837)" fill="#450d20"/>
        <path id="Trazado_177433" data-name="Trazado 177433" d="M76.952,33.007a.943.943,0,0,1-.6.2.986.986,0,0,1-.6-.2,3.144,3.144,0,0,0,.6.068,2.608,2.608,0,0,0,.6-.068" transform="translate(-33.184 -14.461)" fill="#450d20"/>
        <path id="Trazado_177434" data-name="Trazado 177434" d="M71.714,15.466a1.36,1.36,0,0,0-.889-.329,2.748,2.748,0,0,0-.947.134,2.328,2.328,0,0,0-.834.478,2.425,2.425,0,0,0-.569.73.275.275,0,0,0,.426.336l.024-.022a3.368,3.368,0,0,1,.566-.45,1.983,1.983,0,0,1,.626-.257,2.447,2.447,0,0,1,.678-.066,2.585,2.585,0,0,0,.725-.042l.072-.017a.287.287,0,0,0,.122-.494" transform="translate(-29.985 -6.631)" fill="#450d20"/>
        <path id="Trazado_177435" data-name="Trazado 177435" d="M79.3,15.466a1.36,1.36,0,0,1,.889-.329,2.747,2.747,0,0,1,.947.134,2.328,2.328,0,0,1,.834.478,2.425,2.425,0,0,1,.569.73.275.275,0,0,1-.426.336l-.024-.022a3.368,3.368,0,0,0-.566-.45,1.983,1.983,0,0,0-.626-.257,2.447,2.447,0,0,0-.678-.066,2.587,2.587,0,0,1-.725-.042l-.072-.017a.288.288,0,0,1-.122-.494" transform="translate(-34.698 -6.631)" fill="#450d20"/>
        <path id="Trazado_177436" data-name="Trazado 177436" d="M78.093,19.781c.1.443.175.882.258,1.318a13.037,13.037,0,0,0,.289,1.279,3.182,3.182,0,0,0,.1.3,1.082,1.082,0,0,1,.1.379.764.764,0,0,1-.412.7.928.928,0,0,1-.749.04,1.818,1.818,0,0,1-.593-.355c.412.155.893.276,1.183.057a.453.453,0,0,0,.2-.419.84.84,0,0,0-.086-.261q-.067-.164-.116-.332a6.263,6.263,0,0,1-.215-1.352,7.133,7.133,0,0,1,.042-1.354" transform="translate(-33.771 -8.666)" fill="#450d20"/>
        <path id="Trazado_177437" data-name="Trazado 177437" d="M53.706,25.066a4.31,4.31,0,0,1,1.163.465,3.359,3.359,0,0,1,.929.774l.21-.259a3.856,3.856,0,0,0-.994-.388,1.482,1.482,0,0,0-.574-.026.65.65,0,0,0-.5.4.975.975,0,0,0,.28,1.068,1.417,1.417,0,0,0,.963.393,1.525,1.525,0,0,1-.812-.529.765.765,0,0,1-.147-.809c.092-.233.4-.226.711-.157a4.356,4.356,0,0,1,.907.343l.009,0a.168.168,0,0,0,.2-.264,3.069,3.069,0,0,0-1.082-.764,3.148,3.148,0,0,0-1.268-.253" transform="translate(-23.529 -10.981)" fill="#450d20"/>
        <path id="Trazado_177438" data-name="Trazado 177438" d="M59.094,16.108l.117-.024a.65.65,0,0,0,.1-1.233l-.017-.007c-2.012-.834-.092-3.92.588-6.092a2.081,2.081,0,0,1,2.507-1.67c5.278,1.6,8.086-1.76,8.086-1.76a9.408,9.408,0,0,1,1.115,2.389s7.274-4.852.73-7.19S57.684,4.476,57.684,4.476c-2.5-1.452-3.055,4.251-1.327,8.357a8.726,8.726,0,0,1,.539,1.694,1.92,1.92,0,0,0,2.2,1.581" transform="translate(-24.253 0)" fill="#450d20"/>
        <path id="Trazado_177439" data-name="Trazado 177439" d="M91.918,173.161a23.555,23.555,0,0,0-.044-14.074c-2.328-7.346-4.67-14.451-6.71-20.105a93.78,93.78,0,0,0-4.08-10.042c-1.207-2.326-2.36-4.475-3.457-6.423q-8.316.654-16.664.867l19.4,42.74L73.407,205.47c-.762,1.711-1.992,4.629-1.942,5.494a1.362,1.362,0,0,0,1.245,1.279l18.01,1.564a.682.682,0,0,0,.557-.2.978.978,0,0,0,.2-1.268.7.7,0,0,0-.641-.319c-4.58.193-9.889-4.2-9.889-4.2l-.12-.047c.289-.869,3.689-11.094,7.688-23.7.888-2.806,2.248-7.187,3.4-10.917" transform="translate(-26.708 -53.676)" fill="#f28e6f"/>
        <path id="Trazado_177440" data-name="Trazado 177440" d="M93.815,260.945c-.065.168-.13.336-.2.5l-10.22-3.51.108-.536Z" transform="translate(-36.536 -112.772)" fill="#450d20"/>
        <path id="Trazado_177441" data-name="Trazado 177441" d="M100.346,277.158a.616.616,0,0,1-.666.558l-19.41-1.446a1.674,1.674,0,0,1-1.435-1.051,1.7,1.7,0,0,1-.125-.552,1.8,1.8,0,0,1,.087-.6l2.085-6.4,8.844,2.437v1.332s.406,2.594,5.687,2.817c3.174.14,4.36,1.381,4.8,2.35a2.178,2.178,0,0,1,.108.271.562.562,0,0,1,.027.282" transform="translate(-34.483 -117.269)" fill="#69ceff"/>
        <path id="Trazado_177442" data-name="Trazado 177442" d="M100.347,282.613l-21.512-1.939a1.7,1.7,0,0,1-.125-.552l21.5,1.939a2.174,2.174,0,0,1,.108.271.562.562,0,0,1,.027.281" transform="translate(-34.484 -122.725)" fill="#450d20"/>
        <path id="Trazado_177443" data-name="Trazado 177443" d="M91.776,169.756c-1.646,7.387-5.107,21.832-9.088,31.921-.065.168-.13.336-.2.5-.438,1.1-.888,2.14-1.337,3.115l-9.478-3.515.6-3.108.108-.537,6.336-32.961L58,122.5l18.414-.374a130.41,130.41,0,0,1,15.414,37.841,22.715,22.715,0,0,1-.049,9.792" transform="translate(-25.409 -53.504)" fill="#d13f40"/>
        <path id="Trazado_177444" data-name="Trazado 177444" d="M71.281,150.154l20.981,4.605-19.238-1.016Z" transform="translate(-31.229 -65.784)" fill="#450d20"/>
        <rect id="Rectángulo_44645" data-name="Rectángulo 44645" width="0.541" height="1.354" transform="translate(46.964 89.086) rotate(-24.332)" fill="#450d20"/>
        <path id="Trazado_177445" data-name="Trazado 177445" d="M89.132,211.532l-.533-.1.474-2.536.533.1Zm.948-5.072-.533-.1.475-2.536.533.1Zm.949-5.072-.533-.1.475-2.536.533.1Zm.949-5.072-.533-.1.475-2.536.532.1Zm.949-5.073-.533-.1.474-2.536.533.1Zm.949-5.072-.533-.1.474-2.536.533.1Zm.039-4.963-1.064-2.35.493-.223,1.064,2.35Zm-2.127-4.7-1.064-2.35.493-.223,1.064,2.35Zm-2.128-4.7-1.064-2.35.494-.223,1.064,2.35Zm-2.127-4.7-1.064-2.35.493-.223,1.064,2.35Z" transform="translate(-37.883 -72.083)" fill="#450d20"/>
        <rect id="Rectángulo_44646" data-name="Rectángulo 44646" width="1.354" height="0.542" transform="matrix(0.184, -0.983, 0.983, 0.184, 49.992, 143.217)" fill="#450d20"/>
        <path id="Trazado_177446" data-name="Trazado 177446" d="M127.569,160.048a.979.979,0,0,0-.868-.947.7.7,0,0,0-.647.3c-2.694,3.71-9.43,5.145-9.43,5.145l-.111.065,0,0c-.536-.818-6.429-9.814-13.794-20.743-2.28-3.368-6.358-9.316-8.736-12.781a10.656,10.656,0,0,0-4.961-3.911c-7.106-2.73-14.233-5.388-20.293-7.506q-1.788-.625-3.439-1.181a95.277,95.277,0,0,0-10.4-3.039c-4.333-.839-8.178-1.489-11.428-1.874a47.167,47.167,0,0,0-1.609,5.833c-.736,3.5,5.055,10.329,5.055,10.329l36.675,9.369L110.093,169l0,0c.868,1.661,2.39,4.434,3.1,4.931a1.363,1.363,0,0,0,1.776-.181l12.411-13.144a.684.684,0,0,0,.188-.562" transform="translate(-18.305 -49.76)" fill="#fa9778"/>
        <path id="Trazado_177447" data-name="Trazado 177447" d="M180.59,194.711l-12.955,14.531a1.7,1.7,0,0,1-1.831.466,1.722,1.722,0,0,1-.482-.276,1.615,1.615,0,0,1-.33-.357l-3.812-5.546,7.311-5.546,1.061.813s2.307,1.256,5.692-2.8c2.166-2.589,3.958-2.638,4.972-2.328a.569.569,0,0,1,.092.027.643.643,0,0,1,.352.287.623.623,0,0,1-.07.731" transform="translate(-70.615 -84.79)" fill="#69ceff"/>
        <path id="Trazado_177448" data-name="Trazado 177448" d="M183.892,194.082,169.036,209.81a1.7,1.7,0,0,1-.482-.276l14.894-15.765a.626.626,0,0,1,.092.027.645.645,0,0,1,.352.287" transform="translate(-73.846 -84.892)" fill="#450d20"/>
        <path id="Trazado_177449" data-name="Trazado 177449" d="M115,158.117l-7.5,6.141-1.847-2.117-.357-.412L82.771,135.912c-16.161-3.7-39.179-6.949-41.426-13.989s2.974-16.735,2.974-16.735l22.384.883,2.166,8.633,18.545,7.187a16.034,16.034,0,0,1,7.56,6.077l18.512,27.87.3.455Z" transform="translate(-17.866 -46.084)" fill="#d13f40"/>
        <path id="Trazado_177450" data-name="Trazado 177450" d="M164.086,195.784l-8.129,5.849-.357-.412,8.189-5.893Z" transform="translate(-68.17 -85.576)" fill="#450d20"/>
        <path id="Trazado_177451" data-name="Trazado 177451" d="M85.912,119.621l-6.229-3.2,5.769,1.374Z" transform="translate(-34.91 -51.004)" fill="#450d20"/>
        <path id="Trazado_177452" data-name="Trazado 177452" d="M117.284,173.71,97,148.193,66.4,140.4l.134-.525,30.775,7.838,20.4,25.66Z" transform="translate(-29.09 -61.281)" fill="#450d20"/>
        <rect id="Rectángulo_44647" data-name="Rectángulo 44647" width="0.542" height="2.242" transform="translate(29.744 59.989)" fill="#450d20"/>
        <rect id="Rectángulo_44648" data-name="Rectángulo 44648" width="0.542" height="2.242" transform="translate(30.827 59.989)" fill="#450d20"/>
        <rect id="Rectángulo_44649" data-name="Rectángulo 44649" width="0.542" height="2.242" transform="translate(36.563 59.989)" fill="#450d20"/>
        <rect id="Rectángulo_44650" data-name="Rectángulo 44650" width="0.542" height="2.242" transform="translate(37.646 59.989)" fill="#450d20"/>
        <rect id="Rectángulo_44651" data-name="Rectángulo 44651" width="0.542" height="2.242" transform="translate(43.382 59.989)" fill="#450d20"/>
        <rect id="Rectángulo_44652" data-name="Rectángulo 44652" width="0.542" height="2.242" transform="translate(44.465 59.989)" fill="#450d20"/>
        <path id="Trazado_177453" data-name="Trazado 177453" d="M183.192,119.243l.983-3.479s-9.455-4.515-19.3-9.375c1.686-6.839,3.339-13.229,4.4-16.533a16.121,16.121,0,0,0,.8-3.925,4.2,4.2,0,0,0-6.688-3.652,9.525,9.525,0,0,0-3.052,4.6,126.57,126.57,0,0,0-4.472,15c-.478,2.131-.911,4.389-1.258,6.739a4.554,4.554,0,0,0,2.743,4.84c1.7.724,3.476,1.421,5.318,2.064a61.61,61.61,0,0,0,20.522,3.716" transform="translate(-67.715 -35.676)" fill="#fa9778"/>
        <path id="Trazado_177454" data-name="Trazado 177454" d="M181.311,114.965l2.146,2.745s-3.554.14-3.554-1.236a1.342,1.342,0,0,1,1.408-1.509" transform="translate(-78.818 -50.368)" fill="#eb9d28"/>
        <path id="Trazado_177455" data-name="Trazado 177455" d="M194.894,63.46c-.932-4.278-2.842-6-4.518-6.648a5.346,5.346,0,0,0-3.751.022,7.583,7.583,0,0,1-2.974.492c-2.7-3.249-4.382-10.754-4.591-11.712-.006-.035-.014-.066-.02-.1l-7.461,9.334a2.761,2.761,0,0,1,.721.945v0a12.665,12.665,0,0,1,.986,3.039c.256,1.2.4,2.292.447,2.741-.516,1.633-1.755,2.664-3.321,4.744-2.386,3.167-.514,8.734,2.877,13.618s9.261,11.94,9.261,11.94L198.7,85.1c-2.5-4.663-1.94-13.088-3.8-21.643" transform="translate(-74.19 -19.94)" fill="#fa9778"/>
        <path id="Trazado_177456" data-name="Trazado 177456" d="M175.6,62.143c5.518-1.459,5.642-8.8,5.645-9.077a6.678,6.678,0,0,1-2.661,4.2,11.079,11.079,0,0,1-3.934,1.83c-.012,0-.023.005-.035.006a12.678,12.678,0,0,1,.986,3.039" transform="translate(-76.499 -23.249)" fill="#450d20"/>
        <path id="Trazado_177457" data-name="Trazado 177457" d="M184.649,66.238s4.088,14.6,10.76,11.067a.468.468,0,0,1,.689.354l.934,8.015a.672.672,0,0,1-.469.723c-3.294,1.009-20.7,6.408-20.991,7.961-.319,1.715,2.2,1,2.2,1l.79,1s-3.757,1.833-5.066-1.146c-.96-2.185-3.311-9.954-4.5-13.94a6.565,6.565,0,0,1,.436-4.852,24,24,0,0,1,3.7-5.553s6.972.675,10.333-4.523c.11-.171,1.084.075,1.184-.11" transform="translate(-73.919 -29.02)" fill="#fcc574"/>
        <path id="Trazado_177458" data-name="Trazado 177458" d="M189.787,97.012a48.683,48.683,0,0,1-8.831-1.635l.146-.521a49.194,49.194,0,0,0,8.706,1.615Z" transform="translate(-79.279 -41.558)" fill="#450d20"/>
        <path id="Trazado_177459" data-name="Trazado 177459" d="M203.282,102.116l.082,1.323-19.305,5.494,5.514-2.439a47.939,47.939,0,0,1,6.307-2.277Z" transform="translate(-80.639 -44.738)" fill="#450d20"/>
        <path id="Trazado_177460" data-name="Trazado 177460" d="M161.978,66.709a16.022,16.022,0,0,0-3.949.659c-9.318,2.625-42.761,9-42.761,9v0a13.053,13.053,0,0,0-4.877-2.227c-.707-.173-.97.18-1.068.45a.255.255,0,0,0,.168.329c.663.209,1.879.833,1.938,1.355.067.589-5.24.176-5.368.96-.052.315,3.726.715,3.726.715s-4.069.369-3.8.876,3.928.674,3.928.674-3.982.884-3.511,1.291,3.672.193,3.672.193a4.145,4.145,0,0,0-2.069,1.159.179.179,0,0,0,.143.282c1.9.071,5.925-1.829,7.18-2.447v0c18.312,4.925,37.857-1.21,45.351-3.574a9.557,9.557,0,0,0,4.709-2.887,4.2,4.2,0,0,0-3.415-6.812" transform="translate(-46.429 -29.226)" fill="#fa9778"/>
        <path id="Trazado_177461" data-name="Trazado 177461" d="M164.256,87.265s17.955-2.327,26.891-7.088L189,83.2l-1.237-1.028s-17.629,5.367-23.507,5.091" transform="translate(-71.963 -35.127)" fill="#450d20"/>
        <path id="Trazado_177462" data-name="Trazado 177462" d="M174.565,32.683a1.859,1.859,0,0,0-2.436-.433,1.611,1.611,0,0,0-.208.2c-1.006-2.817-2.636-5.689-5.239-6.584-5.6-1.928-11.035,1.736-10.985,5.489a27.888,27.888,0,0,0,1.919,8.874c.444,1.233.927,2.438,1.406,3.581.049.122.1.24.149.359a5.068,5.068,0,0,0,.809,1.442c1.409,1.6,4.529,1.673,6.474,1.319a8.164,8.164,0,0,0,5.78-4.232,9.027,9.027,0,0,0,.862-5.813,4,4,0,0,0,1.078-.565,3.1,3.1,0,0,0,.865-1.62,2.464,2.464,0,0,0-.473-2.021" transform="translate(-68.213 -11.101)" fill="#fa9778"/>
        <path id="Trazado_177463" data-name="Trazado 177463" d="M160.518,55.133a1.986,1.986,0,1,0-.992-3.812,1.888,1.888,0,0,0-.414.23c.444,1.233.927,2.438,1.406,3.581" transform="translate(-69.709 -22.421)" fill="#fa8864"/>
        <path id="Trazado_177464" data-name="Trazado 177464" d="M177.782,45.822a1.987,1.987,0,1,1-2.587-1.1,1.987,1.987,0,0,1,2.587,1.1" transform="translate(-76.211 -19.531)" fill="#fa8864"/>
        <path id="Trazado_177465" data-name="Trazado 177465" d="M169.522,54.4a.942.942,0,0,0,.637-.037.987.987,0,0,0,.484-.416,3.117,3.117,0,0,1-.535.289,2.608,2.608,0,0,1-.585.164" transform="translate(-74.27 -23.637)" fill="#450d20"/>
        <path id="Trazado_177466" data-name="Trazado 177466" d="M166.385,36.691a1.361,1.361,0,0,1,.7-.638,2.736,2.736,0,0,1,.929-.23,2.3,2.3,0,0,1,.952.13,2.425,2.425,0,0,1,.8.463.275.275,0,0,1-.269.471l-.03-.011a3.374,3.374,0,0,0-.694-.2,1.983,1.983,0,0,0-.677,0,2.436,2.436,0,0,0-.653.193,2.618,2.618,0,0,1-.687.233l-.074.011a.287.287,0,0,1-.326-.243.283.283,0,0,1,.027-.169" transform="translate(-72.882 -15.691)" fill="#872000"/>
        <path id="Trazado_177467" data-name="Trazado 177467" d="M159.629,39.23a1.362,1.362,0,0,0-.948.028,2.745,2.745,0,0,0-.827.479,2.317,2.317,0,0,0-.594.755,2.425,2.425,0,0,0-.253.89.274.274,0,0,0,.52.152l.013-.029a3.442,3.442,0,0,1,.357-.629,2.013,2.013,0,0,1,.484-.473,2.458,2.458,0,0,1,.6-.315,2.6,2.6,0,0,0,.656-.311l.061-.043a.287.287,0,0,0,.065-.4.284.284,0,0,0-.137-.1" transform="translate(-68.785 -17.155)" fill="#872000"/>
        <path id="Trazado_177468" data-name="Trazado 177468" d="M172.43,40.737a1.24,1.24,0,0,1-.232,1.005.212.212,0,0,0,.315.285.227.227,0,0,0,.031-.046l0-.01a1.363,1.363,0,0,0,.147-.66,1.687,1.687,0,0,0-.136-.619.069.069,0,0,0-.131.038Z" transform="translate(-75.418 -17.809)" fill="#450d20"/>
        <path id="Trazado_177469" data-name="Trazado 177469" d="M169.045,43.53a1.586,1.586,0,0,1,.8-.859,1.82,1.82,0,0,1,.574-.166,1.585,1.585,0,0,1,.583.044.182.182,0,0,1-.01.355l-.012,0a4.3,4.3,0,0,0-.912.246,2.849,2.849,0,0,0-.787.51l-.019.016a.136.136,0,0,1-.192-.015.137.137,0,0,1-.025-.134" transform="translate(-74.058 -18.618)" fill="#450d20"/>
        <path id="Trazado_177470" data-name="Trazado 177470" d="M159.3,45.727a1.238,1.238,0,0,0,.88.539.212.212,0,1,1-.072.415l-.011,0a1.362,1.362,0,0,1-.574-.358,1.686,1.686,0,0,1-.346-.531.068.068,0,0,1,.119-.066Z" transform="translate(-69.735 -20.019)" fill="#450d20"/>
        <path id="Trazado_177471" data-name="Trazado 177471" d="M162.74,45.82a2.85,2.85,0,0,0-.915.2,4.248,4.248,0,0,0-.815.478l-.01.007a.182.182,0,0,1-.26-.242,1.572,1.572,0,0,1,.376-.447,1.826,1.826,0,0,1,.521-.293,1.586,1.586,0,0,1,1.173.031.136.136,0,0,1-.046.259Z" transform="translate(-70.412 -19.904)" fill="#450d20"/>
        <path id="Trazado_177472" data-name="Trazado 177472" d="M166.249,51.071s.968,1.244,2.1.6a2.012,2.012,0,0,0,.923-2.053Z" transform="translate(-72.836 -21.737)" fill="#fff"/>
        <path id="Trazado_177473" data-name="Trazado 177473" d="M165.343,42.18c.072.448.167.884.255,1.318s.173.866.212,1.294c.012.107.021.213.024.317a1.073,1.073,0,0,0,.049.389.764.764,0,0,0,.643.492.924.924,0,0,0,.709-.244,1.815,1.815,0,0,0,.417-.551c-.324.3-.725.59-1.075.5a.453.453,0,0,1-.346-.312.839.839,0,0,1-.018-.274c0-.119-.006-.236-.017-.351a6.223,6.223,0,0,0-.307-1.334,7.148,7.148,0,0,0-.546-1.24" transform="translate(-72.439 -18.48)" fill="#450d20"/>
        <path id="Trazado_177474" data-name="Trazado 177474" d="M186.2,39.469a4.928,4.928,0,0,0-1.33.532,3.835,3.835,0,0,0-1.061.884l-.24-.3a4.448,4.448,0,0,1,1.137-.443,1.7,1.7,0,0,1,.656-.03.742.742,0,0,1,.568.459,1.114,1.114,0,0,1-.321,1.222,1.618,1.618,0,0,1-1.1.45,1.75,1.75,0,0,0,.929-.6.876.876,0,0,0,.168-.924c-.106-.266-.459-.259-.813-.18a4.973,4.973,0,0,0-1.037.393l-.01.005a.193.193,0,0,1-.23-.3,3.507,3.507,0,0,1,1.237-.873,3.592,3.592,0,0,1,1.449-.29" transform="translate(-80.376 -17.291)" fill="#450d20"/>
        <path id="Trazado_177475" data-name="Trazado 177475" d="M147.439,31.2s2.77-3.116,2.775-4.588c0,0,8.829,7.9,13.311,3.567a1.835,1.835,0,0,1,2.866.542,2.848,2.848,0,0,1-1.851,3.885s.437,7.82-.536,10.1,3.566,3.9,10.03.6a4.288,4.288,0,0,1,1.942.326s.235-6.76-6.168-12.858-4.813-8.569-6.776-10.261c-1.789-1.542-7.333-4.894-15.889.214a7.073,7.073,0,0,0-3.489,6.679c.005.049.01.1.015.149a14.594,14.594,0,0,1-3.692,11.49,18.7,18.7,0,0,0-3.225,4.473c-2.121,4.548,8.524,7.3,8.524,7.3l13.976-3.071a18.56,18.56,0,0,0-1.35-5.131s-4.56.825-6.468-1.5a58.06,58.06,0,0,1-2.6-6.267c-.721-2.373-1.39-5.652-1.39-5.652" transform="translate(-59.79 -8.764)" fill="#872000"/>
        <path id="Trazado_177476" data-name="Trazado 177476" d="M236.043,203.96c-.363-.786-2.822-2.781-4.3-3.932l-24.667-31.434-2.573-40.02h-15.54c-.056,2.307-.064,4.831-.033,7.557a93.959,93.959,0,0,0,1.129,10.78c.819,5.642,2.013,12.563,3.333,19.726a27.216,27.216,0,0,0,7.614,14.407c2.579,2.554,5.429,5.369,7.333,7.229,9.463,9.235,17.277,16.654,17.942,17.284l-.084.1s-2.617,6.371-6.748,8.358a.7.7,0,0,0-.415.583.979.979,0,0,0,.776,1.023.685.685,0,0,0,.587-.084l15.152-9.861a1.363,1.363,0,0,0,.5-1.715" transform="translate(-82.764 -56.33)" fill="#eb8e71"/>
        <path id="Trazado_177477" data-name="Trazado 177477" d="M186.962,126.835s.119,30.413,6.076,43.005c5.257,11.11,22.215,28.539,26.132,32.486a1.5,1.5,0,0,0,1.826.238c2.322-1.359,7.967-4.917,9.732-8.337a1.51,1.51,0,0,0-.184-1.656l-22.883-27.584s-1.34-36.038-2.633-38.881-12.768-5.719-18.066.728" transform="translate(-81.91 -53.862)" fill="#ffe6de"/>
        <path id="Trazado_177478" data-name="Trazado 177478" d="M191.878,174.32l16.912-15.492.25,4.6Z" transform="translate(-84.064 -69.585)" fill="#450d20"/>
        <path id="Trazado_177479" data-name="Trazado 177479" d="M237.231,219.2,216.55,197.953a15.884,15.884,0,0,1-4.483-10.266l-.476-9.222,1.623-.083.476,9.222a14.264,14.264,0,0,0,4.025,9.217L238.4,218.069Z" transform="translate(-92.701 -78.151)" fill="#450d20"/>
        <path id="Trazado_177480" data-name="Trazado 177480" d="M259.316,258.69a1.8,1.8,0,0,1-.845,1.614L241.2,271.325a.566.566,0,0,1-.292.092.575.575,0,0,1-.32-.081.557.557,0,0,1-.287-.455.592.592,0,0,1,.108-.39l7.241-10.1-1.127-1.49,9.218-5.611,3.228,4.409a1.805,1.805,0,0,1,.347.991" transform="translate(-105.278 -110.97)" fill="#fcc574"/>
        <path id="Trazado_177481" data-name="Trazado 177481" d="M259.317,262.452,240.589,275.1a.557.557,0,0,1-.287-.455l18.9-12.766a1.63,1.63,0,0,1,.119.574" transform="translate(-105.279 -114.732)" fill="#450d20"/>
        <path id="Trazado_177482" data-name="Trazado 177482" d="M188.232,127.349c-.033-.193-.062-.389-.1-.576-.722-3.348-3.05-6.432-5.248-8.986a26.491,26.491,0,0,0-3.065-2.845A125.61,125.61,0,0,0,168.651,125.2a93.723,93.723,0,0,0-6.9,8.36c-3.452,4.537-7.553,10.238-11.738,16.2a27.214,27.214,0,0,0-4.944,15.527c-.015,3.63-.026,7.635-.019,10.3.042,13.222.224,24,.24,24.912l-.128.008s-6.379,2.6-10.692,1.042a.7.7,0,0,0-.707.112.979.979,0,0,0-.186,1.271.681.681,0,0,0,.471.36l17.652,3.9a1.364,1.364,0,0,0,1.571-.848c.306-.81.006-3.962-.209-5.823L158.2,160.89Z" transform="translate(-58.457 -50.358)" fill="#fa9778"/>
        <path id="Trazado_177483" data-name="Trazado 177483" d="M153.239,265.38l-.883,5.389a1.864,1.864,0,0,1-.119.406,1.619,1.619,0,0,1-.309.488,1.792,1.792,0,0,1-1.782.574l-19.963-4.615a.531.531,0,0,1-.271-.146.573.573,0,0,1-.162-.569.58.58,0,0,1,.476-.433l.043-.006,12.235-1.9.276-1.847Z" transform="translate(-56.837 -115.104)" fill="#fcc574"/>
        <path id="Trazado_177484" data-name="Trazado 177484" d="M152.252,274.093a1.628,1.628,0,0,1-.308.488l-22.178-4.755a.581.581,0,0,1,.476-.434l.043-.005Z" transform="translate(-56.852 -118.022)" fill="#450d20"/>
        <path id="Trazado_177485" data-name="Trazado 177485" d="M170.36,118.388l18.436-6.019s10.581,10.594,7.13,17.771-30.553,29.516-30.553,29.516l-1.844,35.507a2.116,2.116,0,0,1-2.105,2c-3.131.009-9.291-.331-13.666-2.848a2.087,2.087,0,0,1-1.013-2.008l2.718-31.167a21.683,21.683,0,0,1,3.473-9.925L167.15,129.6Z" transform="translate(-64.287 -49.23)" fill="#ffe6de"/>
        <path id="Trazado_177486" data-name="Trazado 177486" d="M190.252,120.558l-.161-.517,17.821-5.559.161.517Z" transform="translate(-83.281 -50.156)" fill="#450d20"/>
        <path id="Trazado_177487" data-name="Trazado 177487" d="M164.138,197.167l-1.618-.138,2.47-29.086a19.023,19.023,0,0,1,5.314-11.635c13.082-13.427,21.585-22.733,23.326-25.533,2.991-4.808-1.454-9.608-1.645-9.81l1.178-1.118c.056.058,5.5,5.905,1.846,11.787-2.466,3.963-15.808,17.871-23.543,25.809a17.4,17.4,0,0,0-4.858,10.638Z" transform="translate(-71.202 -52.507)" fill="#450d20"/>
      </g>
    </g>
  </g>
</svg>
