<svg xmlns="http://www.w3.org/2000/svg" xmlns:xlink="http://www.w3.org/1999/xlink" width="201" height="173" viewBox="0 0 201 173">
  <defs>
    <clipPath id="clip-path">
      <rect id="Rect치ngulo_44658" data-name="Rect치ngulo 44658" width="183.243" height="148.109" fill="none"/>
    </clipPath>
  </defs>
  <g id="Grupo_172703" data-name="Grupo 172703" transform="translate(-773 -452.394)">
    <g id="Grupo_173551" data-name="Grupo 173551">
      <rect id="Rect치ngulo_42860" data-name="Rect치ngulo 42860" width="201" height="173" transform="translate(773 452.394)" fill="none"/>
      <g id="Grupo_173550" data-name="Grupo 173550" transform="translate(782 464.394)">
        <g id="Grupo_173550-2" data-name="Grupo 173550" clip-path="url(#clip-path)">
          <path id="Trazado_177628" data-name="Trazado 177628" d="M1.629,73.276h181.45L181.45,201.552a1.113,1.113,0,0,1-1.113,1.1H1.114A1.113,1.113,0,0,1,0,201.523Z" transform="translate(0 -54.542)" fill="#8b6d60"/>
          <path id="Trazado_177629" data-name="Trazado 177629" d="M647.552,338.414l-.042,3.262-.568.89-.034.056-.146,1.058L644.689,358.7H627.744l-1.123-15.019-.086-1.113-.353-4.654h20.875a.491.491,0,0,1,.495.5" transform="translate(-466.086 -251.519)" fill="#a88779"/>
          <path id="Trazado_177630" data-name="Trazado 177630" d="M647.969,356.115l-.034.056-.147,1.058h-20.14l-.086-1.113Z" transform="translate(-467.113 -265.067)" fill="#8b6d60"/>
          <path id="Trazado_177631" data-name="Trazado 177631" d="M621.82,311.585h-7.883s-4.736-1.447-5.759-8.484a.458.458,0,0,1,.407-.523,12.539,12.539,0,0,1,6.6,1.3,11.175,11.175,0,0,1,1.536.924,14.855,14.855,0,0,1,5.1,6.78" transform="translate(-452.681 -225.19)" fill="#a88779"/>
          <path id="Trazado_177632" data-name="Trazado 177632" d="M634.6,213.288c-1.455,3.425-6.1,17.057,4.111,32.6a.551.551,0,0,0,.552.238l6.214-1.089a.545.545,0,0,0,.457-.563c-.16-3.03-1.436-19.75-10.4-31.313a.55.55,0,0,0-.935.129" transform="translate(-470.622 -158.507)" fill="#a88779"/>
          <path id="Trazado_177633" data-name="Trazado 177633" d="M671.635,248.591a.274.274,0,0,1-.2.145l-5.418.6a.281.281,0,0,1-.286-.223c-1.451-8.472-.768-14.93.684-19.717.011-.011.011-.011,0-.011.186-.635.383-1.213.6-1.781a22.521,22.521,0,0,1,6.074-9.285.35.35,0,0,1,.566.189,53.905,53.905,0,0,1,1.478,9.9c.037.579.063,1.136.068,1.692.253,10.777-3.062,17.535-3.564,18.493" transform="translate(-494.922 -162.441)" fill="#a88779"/>
          <path id="Trazado_177634" data-name="Trazado 177634" d="M689.51,252.132l-.2,15.654-3.083,5.166-.66,1.113h-4.4c-.007-.367-.013-.746,0-1.113.255-10.443,8.336-20.819,8.336-20.819" transform="translate(-507.011 -187.669)" fill="#a88779"/>
          <path id="Trazado_177635" data-name="Trazado 177635" d="M644.153,333.563l-.66,1.113H625.168a.557.557,0,0,1,.014-1.113Z" transform="translate(-464.936 -248.281)" fill="#8b6d60"/>
          <path id="Trazado_177636" data-name="Trazado 177636" d="M183.152,424.731H1.7l.07-5.525h181.45Z" transform="translate(-1.267 -312.028)" fill="#a88779"/>
          <path id="Trazado_177637" data-name="Trazado 177637" d="M94.129,310.858A16.351,16.351,0,0,1,90.1,321.045c-.35.39-.7.768-1.072,1.113a16.513,16.513,0,0,1-5.444,3.474,15.9,15.9,0,0,1-4.656,1.069c-.4.034-.8.045-1.214.045a15.271,15.271,0,0,1-5.786-1.113,14.958,14.958,0,0,1-5.211-3.463l-.011-.011a13.171,13.171,0,0,1-.988-1.113,15.391,15.391,0,0,1-3.367-10.187,16.527,16.527,0,0,1,16.4-15.876,15.279,15.279,0,0,1,15.374,15.876" transform="translate(-46.406 -219.564)" fill="#a88779"/>
          <path id="Trazado_177638" data-name="Trazado 177638" d="M126.464,261.138a.9.9,0,0,0-.885-.013.809.809,0,0,0-.422.7l-.414,12.675a.764.764,0,0,0,.363.7.872.872,0,0,0,.452.123.9.9,0,0,0,.433-.11.808.808,0,0,0,.422-.7l.414-12.675a.764.764,0,0,0-.363-.7" transform="translate(-92.849 -194.282)" fill="#a88779"/>
          <path id="Trazado_177639" data-name="Trazado 177639" d="M89.158,401.321l-.122,3.463L89,405.852v.045H75.874s.017-.49.036-1.113c.033-.835.058-1.926.075-2.416a1.11,1.11,0,0,1,.8-1.046Z" transform="translate(-56.475 -298.715)" fill="#a88779"/>
          <path id="Trazado_177640" data-name="Trazado 177640" d="M102.3,398.035H76.536a13.133,13.133,0,0,1-.988-1.113h26.764a.557.557,0,0,1-.014,1.113" transform="translate(-56.233 -295.441)" fill="#8b6d60"/>
          <path id="Trazado_177641" data-name="Trazado 177641" d="M102.483,415.977H75.874s.017-.49.036-1.113H102.5a.557.557,0,0,1-.014,1.113" transform="translate(-56.475 -308.796)" fill="#8b6d60"/>
          <path id="Trazado_177642" data-name="Trazado 177642" d="M40.259,147.372H86.523l-7.652-42.16H52.441Z" transform="translate(-29.966 -78.313)" fill="#a88779"/>
          <path id="Trazado_177643" data-name="Trazado 177643" d="M87.393,156.123q-.137,10.791-.274,21.582a.557.557,0,0,0,1.113,0q.137-10.791.274-21.582a.557.557,0,0,0-1.113,0" transform="translate(-64.845 -115.807)" fill="#8b6d60"/>
          <path id="Trazado_177644" data-name="Trazado 177644" d="M129.689,156.123q-.137,10.791-.274,21.582a.557.557,0,0,0,1.113,0q.137-10.791.274-21.582a.557.557,0,0,0-1.113,0" transform="translate(-96.327 -115.807)" fill="#8b6d60"/>
          <path id="Trazado_177645" data-name="Trazado 177645" d="M170.828,153.946q-.137,10.791-.274,21.582a.557.557,0,0,0,1.113,0q.137-10.791.274-21.582a.557.557,0,0,0-1.113,0" transform="translate(-126.948 -114.186)" fill="#8b6d60"/>
          <path id="Trazado_177646" data-name="Trazado 177646" d="M222.6,359.775H70.27s6.44-39.791,24.675-54.632C109.851,293,124.039,289.112,143.21,286.6c4.282-.568,8.809-1.058,13.647-1.559a124.294,124.294,0,0,1,18.433-.534c19.06.88,35.38,6.29,43.281,14.473,10.374,10.733,4.027,60.8,4.027,60.8" transform="translate(-52.304 -211.667)" fill="#ffb357"/>
          <path id="Trazado_177647" data-name="Trazado 177647" d="M295.395,320.228q-1.675-2.221-3.373-4.442c-2.971-1-5.942-2.015-8.913-3.017a.472.472,0,0,1-.327-.534.562.562,0,0,1,.093-.312q5.306-7.5,10.634-14.986c.5-.089,1.015-.178,1.528-.256q-5.424,7.632-10.838,15.286,4.074,1.369,8.148,2.761a.476.476,0,0,1,.42.2q1.741,2.3,3.5,4.609c.427.557-.439,1.258-.877.69" transform="translate(-210.478 -220.829)" fill="#d45a3b"/>
          <path id="Trazado_177648" data-name="Trazado 177648" d="M469.506,309.237a.488.488,0,0,1-.33.557.481.481,0,0,1-.312.056c-3.113-.378-6.214-.768-9.326-1.147l-5.076,2.538c-.638.312-1.027-.712-.4-1.024q2.622-1.319,5.244-2.616a.436.436,0,0,1,.467.022c2.846.345,5.68.69,8.526,1.046q-1.692-11.372-3.4-22.745l1.145.1q1.723,11.606,3.457,23.213" transform="translate(-337.736 -212.822)" fill="#d45a3b"/>
          <path id="Trazado_177649" data-name="Trazado 177649" d="M335.531,284.5,318.9,359.775H285.555c-.178,0,12.193-50.111,17.9-73.18,4.282-.568,8.809-1.058,13.647-1.559a124.294,124.294,0,0,1,18.432-.534" transform="translate(-212.546 -211.667)" fill="#fff0f0"/>
          <path id="Trazado_177650" data-name="Trazado 177650" d="M391.957,299.026l-.354,1.581a21.3,21.3,0,0,1-14.4,3.886c-6.848-.8-12.605-5.956-13.1-12.9.357-.045.725-.089,1.093-.134.494,7.526,7.526,12.3,14.821,12.035a21.529,21.529,0,0,0,11.936-4.465" transform="translate(-271.016 -216.939)" fill="#c29e8c"/>
          <path id="Trazado_177651" data-name="Trazado 177651" d="M398.892,240.761l-.154,12.118s-3.166,6.443-10.256,7.351a22.309,22.309,0,0,1-16.567-4.5l.037-2.892Z" transform="translate(-276.828 -179.206)" fill="#ffb08c"/>
          <path id="Trazado_177652" data-name="Trazado 177652" d="M355.2,96.369h0a17.517,17.517,0,0,1,17.561,17.787l-.247,19.442A18.062,18.062,0,0,1,354.5,151.384,17.517,17.517,0,0,1,336.94,133.6l.247-19.442A18.062,18.062,0,0,1,355.2,96.369" transform="translate(-250.793 -71.73)" fill="#ffb08c"/>
          <path id="Trazado_177653" data-name="Trazado 177653" d="M409.247,206.609h3.711a.557.557,0,0,0,.014-1.113h-3.711a.557.557,0,0,0-.014,1.113" transform="translate(-304.22 -152.957)" fill="#2f2031"/>
          <path id="Trazado_177654" data-name="Trazado 177654" d="M409.561,201.925l3.371-1.6c.65-.308.1-1.268-.55-.961l-3.37,1.6c-.65.308-.1,1.268.55.961" transform="translate(-304.222 -148.351)" fill="#2f2031"/>
          <path id="Trazado_177655" data-name="Trazado 177655" d="M375.079,207.437c-.45,1.241-.886,2.487-1.3,3.741a10.726,10.726,0,0,0-.775,2.746c-.063,1.685,1.847,2.369,3.141,2.949.646.29,1.224-.669.574-.961-.535-.24-1.809-.633-2.134-1.143a3.054,3.054,0,0,1,.06-2.668c.473-1.466.977-2.921,1.5-4.369.246-.678-.826-.969-1.07-.3" transform="translate(-277.637 -154.117)" fill="#c45d4d"/>
          <path id="Trazado_177656" data-name="Trazado 177656" d="M333.95,88.532s7.911,7.556,16.226,7.914,13.27-2.415,13.27-2.415-3.615,12.256,2.641,15.118,9.356-15.923,7.794-19.68a5.971,5.971,0,0,0-5.05-3.847s-1.77-8.588-9.5-12.345H338.562s-4.5,3.131-2.057,7.783c0,0-8.837-3.378-8.3,5.635a16.4,16.4,0,0,0,2.668,8.319Z" transform="translate(-244.275 -54.542)" fill="#3e2a43"/>
          <path id="Trazado_177657" data-name="Trazado 177657" d="M458.508,208.405a6.262,6.262,0,0,1-6.244,6.166,6.073,6.073,0,0,1-6.088-6.166,6.262,6.262,0,0,1,6.244-6.166,6.073,6.073,0,0,1,6.088,6.166" transform="translate(-332.102 -150.533)" fill="#ffb08c"/>
          <path id="Trazado_177658" data-name="Trazado 177658" d="M514.274,482.007q-2.158,12.174-4.34,24.36h-1.113q2.21-12.325,4.4-24.649c.12-.7,1.185-.4,1.054.289" transform="translate(-378.731 -358.26)" fill="#d45a3b"/>
          <path id="Trazado_177659" data-name="Trazado 177659" d="M211.769,482.514q-2.625,12.108-5.251,24.226h-1.124q2.661-12.258,5.31-24.527c.153-.69,1.219-.4,1.065.3" transform="translate(-152.881 -358.632)" fill="#d45a3b"/>
          <path id="Trazado_177660" data-name="Trazado 177660" d="M357.534,199.385a5.92,5.92,0,0,1-.057,2.362,1.44,1.44,0,0,1-2.775-.18,6.064,6.064,0,0,1-.005-2.275,1.437,1.437,0,0,1,2.838.093" transform="translate(-263.933 -147.47)" fill="#2f2031"/>
          <path id="Trazado_177661" data-name="Trazado 177661" d="M368.671,263.755a10.377,10.377,0,0,0,7.99-.37.51.51,0,0,0-.441-.919,9.307,9.307,0,0,1-7.195.324.515.515,0,0,0-.354.966" transform="translate(-274.172 -195.322)" fill="#c45d4d"/>
          <path id="Trazado_177662" data-name="Trazado 177662" d="M405.542,183.152a5.814,5.814,0,0,1,4.56-1.194c.859.163,1.152-1.178.291-1.342a7.158,7.158,0,0,0-5.585,1.389.681.681,0,0,0,.734,1.147" transform="translate(-301.081 -134.346)" fill="#3e2a43"/>
          <path id="Trazado_177663" data-name="Trazado 177663" d="M349.73,183.573a5.814,5.814,0,0,1,4.643.817c.712.507,1.538-.59.825-1.1a7.158,7.158,0,0,0-5.656-1.068.681.681,0,0,0,.188,1.348" transform="translate(-259.751 -135.528)" fill="#3e2a43"/>
          <path id="Trazado_177664" data-name="Trazado 177664" d="M405.2,290.4a17.4,17.4,0,0,1-12.358,5.171h-.735a16.492,16.492,0,0,1-4.224-.534,22.529,22.529,0,0,0,4.945,1.648,18.511,18.511,0,0,0,13.011-5.376c.627-.675.023-1.575-.639-.908" transform="translate(-288.712 -215.983)" fill="#c45d4d"/>
          <path id="Trazado_177665" data-name="Trazado 177665" d="M638.973,314.933a35.993,35.993,0,0,1-3.383-7.148,11.145,11.145,0,0,1,1.536.924,34.61,34.61,0,0,0,2.812,5.656c.371.612-.594,1.169-.965.568" transform="translate(-473.089 -229.094)" fill="#8b6d60"/>
          <path id="Trazado_177666" data-name="Trazado 177666" d="M674.259,275.551c-.031.713-1.145.713-1.114,0a58.356,58.356,0,0,0-.279-8.74,54.942,54.942,0,0,0-2.12-10.142c.011-.011.011-.011,0-.011.186-.635.383-1.213.6-1.781a55.19,55.19,0,0,1,2.369,9.842c.1.668.195,1.347.264,2.037v.011a56.256,56.256,0,0,1,.278,8.784" transform="translate(-499.257 -189.713)" fill="#8b6d60"/>
          <path id="Trazado_177667" data-name="Trazado 177667" d="M685.678,259.7a43.564,43.564,0,0,0-5.553,9.4c0,.011-.011.022-.011.033a.6.6,0,0,1-1.1.011.522.522,0,0,1,.037-.312c.264-.6.527-1.2.813-1.781a44.627,44.627,0,0,1,5.748-9.04c.037.579.064,1.136.068,1.692" transform="translate(-505.402 -192.046)" fill="#8b6d60"/>
          <path id="Trazado_177668" data-name="Trazado 177668" d="M364.909,360.649l-1.866,8.439H330.767c.693-2.861,1.4-5.7,2.067-8.439Z" transform="translate(-246.2 -268.442)" fill="#e3cfcf"/>
          <path id="Trazado_177669" data-name="Trazado 177669" d="M346.772,436.157l-1.866,8.439H312.129c.681-2.739,1.373-5.567,2.078-8.439Z" transform="translate(-232.327 -324.645)" fill="#e3cfcf"/>
          <path id="Trazado_177670" data-name="Trazado 177670" d="M329.325,509.489l-1.866,8.439h-33.2c.588-2.46,1.281-5.31,2.044-8.439Z" transform="translate(-219.026 -379.228)" fill="#e3cfcf"/>
          <path id="Trazado_177671" data-name="Trazado 177671" d="M527.011,474.395a50.115,50.115,0,0,0-5.942,9.07c-.326.64.627,1.2.954.562a48.827,48.827,0,0,1,5.765-8.844c.453-.552-.32-1.345-.777-.787" transform="translate(-387.798 -352.965)" fill="#d45a3b"/>
          <path id="Trazado_177672" data-name="Trazado 177672" d="M187.825,18.734H6.377L6.546,5.494A5.567,5.567,0,0,1,12.112,0H182.423a5.567,5.567,0,0,1,5.566,5.637Z" transform="translate(-4.747 0.001)" fill="#fff0f0"/>
          <path id="Trazado_177673" data-name="Trazado 177673" d="M139.879,24.787a4.071,4.071,0,1,1-4.071-4.071,4.07,4.07,0,0,1,4.071,4.071" transform="translate(-98.057 -15.42)" fill="#ffb357"/>
          <path id="Trazado_177674" data-name="Trazado 177674" d="M91.979,24.787a4.071,4.071,0,1,1-4.071-4.071,4.07,4.07,0,0,1,4.071,4.071" transform="translate(-62.403 -15.42)" fill="#ffb357"/>
          <path id="Trazado_177675" data-name="Trazado 177675" d="M44.079,24.787a4.071,4.071,0,1,1-4.071-4.071,4.07,4.07,0,0,1,4.071,4.071" transform="translate(-26.75 -15.42)" fill="#ffb357"/>
          <path id="Trazado_177676" data-name="Trazado 177676" d="M416.134,502.148a8.736,8.736,0,1,1,8.736-8.736,8.746,8.746,0,0,1-8.736,8.736m0-16.359a7.623,7.623,0,1,0,7.623,7.623,7.632,7.632,0,0,0-7.623-7.623" transform="translate(-303.238 -360.759)" fill="#fff0f0"/>
          <path id="Trazado_177677" data-name="Trazado 177677" d="M430.611,514.216h-4.155a.982.982,0,0,1-.982-.982v-2.879a.982.982,0,0,1,.982-.982h4.155a.982.982,0,0,1,.982.982v2.879a.982.982,0,0,1-.982.982" transform="translate(-316.693 -379.142)" fill="#fff0f0"/>
          <path id="Trazado_177678" data-name="Trazado 177678" d="M446.179,512.072l-3.129,1.455a.328.328,0,0,0,0,.593l3.129,1.512a.328.328,0,0,0,.471-.3v-2.967a.328.328,0,0,0-.466-.3" transform="translate(-329.634 -381.128)" fill="#fff0f0"/>
          <path id="Trazado_177679" data-name="Trazado 177679" d="M338.824,491.236a8.18,8.18,0,1,1-11.039-3.457,8.18,8.18,0,0,1,11.039,3.457" transform="translate(-240.712 -362.374)" fill="#f78b6a"/>
          <path id="Trazado_177680" data-name="Trazado 177680" d="M346.277,506.36c-.639-.97-2.039-2.8-3.181-2.2l-7.1,3.716c-1.142.6-.44,2.789-.008,3.867.13.324.436.517.65.405l2.674-1.4c.192-.1.229-.409.083-.689l-.2-.385c-.146-.28-.109-.589.083-.689l2.866-1.5c.192-.1.467.045.613.325l.2.385c.147.28.421.426.613.325l2.674-1.4c.213-.112.23-.473.038-.765" transform="translate(-249.627 -375.175)" fill="#fff0f0"/>
          <path id="Trazado_177681" data-name="Trazado 177681" d="M243.787,502.148a8.736,8.736,0,1,1,8.736-8.736,8.745,8.745,0,0,1-8.736,8.736m0-16.359a7.623,7.623,0,1,0,7.623,7.623,7.631,7.631,0,0,0-7.623-7.623" transform="translate(-174.956 -360.759)" fill="#fff0f0"/>
          <path id="Trazado_177682" data-name="Trazado 177682" d="M266.168,505.539a1.6,1.6,0,1,1-1.6-1.6,1.6,1.6,0,0,1,1.6,1.6" transform="translate(-195.737 -375.098)" fill="#fff0f0"/>
          <path id="Trazado_177683" data-name="Trazado 177683" d="M260.17,520.864h-7.119a.785.785,0,0,1-.754-.97,4.418,4.418,0,0,1,8.641.078.766.766,0,0,1-.767.893" transform="translate(-187.777 -384.4)" fill="#fff0f0"/>
        </g>
      </g>
    </g>
  </g>
</svg>
