<svg xmlns="http://www.w3.org/2000/svg" width="505" height="383.228" viewBox="0 0 505 383.228">
  <g id="Grupo_173514" data-name="Grupo 173514" transform="translate(0 -84.454)">
    <path id="Trazado_150104" data-name="Trazado 150104" d="M505,0H0V247.178H505Z" transform="translate(0 220.504)" fill="#6b8dff"/>
    <g id="Grupo_165526" data-name="Grupo 165526" transform="translate(19.276 0)">
      <path id="Trazado_150103" data-name="Trazado 150103" d="M57.95,370.527C-60.181,285.316,14.621,2.162,171.294,65.15S308.628,221.41,391,222.781,507.5,323.608,420.581,369.645Z" transform="translate(0 48.036)" fill="#ffbfc1"/>
      <g id="Grupo_165525" data-name="Grupo 165525" transform="translate(0.001 52.639)">
        <g id="Grupo_173515" data-name="Grupo 173515">
          <path id="Trazado_149963" data-name="Trazado 149963" d="M472.7,386.51q-40.459-.062-80.919-.091-45.767-.035-91.536-.046-47.725-.011-95.448,0-46.356.01-92.712.042-41.276.029-82.553.085l-8.976.013a.415.415,0,0,1,0-.83q40.421-.062,80.84-.09,45.749-.035,91.5-.046,47.722-.011,95.446,0,46.374.01,92.747.042,41.312.029,82.626.085l8.988.013a.415.415,0,0,1,0,.83" transform="translate(-20.159 -65.499)" fill="#2b244a"/>
          <path id="Trazado_149970" data-name="Trazado 149970" d="M119.5,410.374H76.51a2,2,0,0,0-2,2v3.1h47v-3.1a2,2,0,0,0-2-2" transform="translate(286.33 -69.719)" fill="#2b244a"/>
          <g id="Grupo_173517" data-name="Grupo 173517" transform="translate(0 31.815)">
            <path id="Trazado_149964" data-name="Trazado 149964" d="M.178,16.283A104.244,104.244,0,0,1,24.545,4.432C33.029,1.55,41.954-.358,51.064.056c8.036.366,16.036,2.536,22.4,7.1A40.7,40.7,0,0,1,86.363,23.03c4.976,10.581,5.188,22.317,4.693,33.638a242.918,242.918,0,0,1-3.9,32.532c-4.642,25.693-11.925,50.986-20.144,75.91-8.533,25.873-18.242,51.428-28.78,76.683-8.658,20.75-17.838,41.346-27.942,61.555q-1.433,2.868-2.9,5.723c-.225.439-.941.056-.716-.38,9.726-18.946,18.5-38.3,26.824-57.782,10.41-24.364,20.032-49.017,28.645-73.953,8.573-24.821,16.247-49.971,21.742-75.513a307.373,307.373,0,0,0,5.55-33.968,141.844,141.844,0,0,0,.419-28.753C88.393,24.7,80.54,9.666,65.633,3.771,48.014-3.2,27.476,2.777,11.527,10.65A96.614,96.614,0,0,0,.6,16.933a.387.387,0,0,1-.419-.65" transform="translate(378.443 0)" fill="#2b244a"/>
            <path id="Trazado_149965" data-name="Trazado 149965" d="M103.553,30.753c26.587.4,47.781,20.268,47.339,44.375,0,0,.892,13.87-2.852,15.281-39.513,14.89-86.907.744-91.106-1.431-2.91-1.507-3.169-5.845-3.042-7.875.2-3.221.087-5.162.424-7.782a76.522,76.522,0,0,1,1.439-8.15,41.424,41.424,0,0,1,7.958-16.323,46.008,46.008,0,0,1,8.058-7.862A49.8,49.8,0,0,1,87.95,32.849a52.822,52.822,0,0,1,15.6-2.1" transform="translate(273.979 -7.604)" fill="#ffeae0"/>
            <path id="Trazado_149966" data-name="Trazado 149966" d="M150.576,90.437A220.51,220.51,0,0,1,113.4,94.865a220.534,220.534,0,0,1-37.532-1.927c-7.025-.967-14.668-2.295-21.535-3.953-.515-.125-.283-.848.234-.723a221.925,221.925,0,0,0,37.748,5.56,221.086,221.086,0,0,0,37.331-.858q10.444-1.13,20.717-3.255c.522-.109.73.621.208.728" transform="translate(273.934 -21.825)" fill="#d9a389"/>
            <path id="Trazado_149967" data-name="Trazado 149967" d="M147.91,72.464a213.371,213.371,0,0,1-35.556,4.207,212.407,212.407,0,0,1-35.967-1.825q-9.95-1.362-19.7-3.675c-.516-.123-.283-.845.234-.723a206.8,206.8,0,0,0,35.366,5.208,213.247,213.247,0,0,0,35.681-.839q9.948-1.074,19.735-3.082c.521-.106.729.622.208.729" transform="translate(274.652 -17.42)" fill="#d9a389"/>
            <path id="Trazado_149968" data-name="Trazado 149968" d="M142.362,56.089a214.246,214.246,0,0,1-30.313,2.99,212.466,212.466,0,0,1-30.6-1.371Q72.9,56.7,64.472,55c-.521-.105-.286-.828.234-.723a208.188,208.188,0,0,0,30.243,3.831,213.736,213.736,0,0,0,30.213-.537q8.546-.758,16.992-2.209c.523-.09.733.639.208.729" transform="translate(273.737 -13.42)" fill="#d9a389"/>
            <path id="Trazado_149969" data-name="Trazado 149969" d="M131.317,40.605a214.036,214.036,0,0,1-39.8.476q-2.737-.224-5.466-.519-1.415-.154-2.827-.325a25.731,25.731,0,0,0-2.629-.337.377.377,0,1,1,.013-.752,21.226,21.226,0,0,1,2.226.287q1.311.163,2.625.308,2.426.27,4.857.482,4.963.436,9.948.636c6.64.269,13.3.226,19.93-.126q5.582-.3,11.139-.883c.529-.056.51.7-.014.753" transform="translate(271.387 -9.682)" fill="#d9a389"/>
            <path id="Trazado_149971" data-name="Trazado 149971" d="M109.324,29.094a.4.4,0,0,0,.415-.376V22.082a.417.417,0,0,0-.83,0v6.636a.4.4,0,0,0,.415.376" transform="translate(269.534 -5.368)" fill="#2b244a"/>
          </g>
          <path id="Trazado_149972" data-name="Trazado 149972" d="M505.052,288.427a7.657,7.657,0,0,0-4.334,3.335,7,7,0,0,0-.623,2.453l-.446,3.194q-.463,3.327-.927,6.653-1.849,13.266-3.7,26.531-1.874,13.445-3.748,26.889-1.872,13.425-3.742,26.849-1.841,13.206-3.682,26.412-.232,1.655-.461,3.31c-.073.527-.873.3-.8-.221q1.87-13.417,3.74-26.832l3.79-27.192q1.891-13.569,3.783-27.139,1.885-13.519,3.77-27.039.472-3.391.945-6.78.232-1.659.462-3.317a24.831,24.831,0,0,1,.463-3.056c.618-2.273,2.717-3.814,4.8-4.666.159-.066.32-.13.485-.183.51-.164.728.637.221.8" transform="translate(-436.259 -48.861)" fill="#dec6bd"/>
          <path id="Trazado_149973" data-name="Trazado 149973" d="M398.826,287.613c2.9.033,4.8,2.083,5.4,4.818.457,2.078.621,4.258.915,6.366l.9,6.488,3.663,26.28q1.844,13.227,3.687,26.453,1.841,13.208,3.682,26.416,1.824,13.086,3.648,26.17.225,1.614.45,3.228c.073.523-.726.749-.8.221q-1.787-12.82-3.574-25.64l-3.611-25.906-3.621-25.974q-1.8-12.921-3.6-25.843-.9-6.436-1.794-12.872l-.451-3.232a15.926,15.926,0,0,0-.52-2.766,4.732,4.732,0,0,0-2.557-3.037,4.857,4.857,0,0,0-1.82-.34.415.415,0,0,1,0-.83" transform="translate(-282.238 -48.863)" fill="#dec6bd"/>
          <path id="Trazado_149974" data-name="Trazado 149974" d="M495.515,216.922c1.189,14.97,6.442,24.424,9,28.234h6.608a89.407,89.407,0,0,0-14.119-28.81.834.834,0,0,0-1.492.575" transform="translate(-452.774 -36.7)" fill="#ccb16c"/>
          <path id="Trazado_149975" data-name="Trazado 149975" d="M492.706,203.35c-1.2,6.754-3.618,25.149,2.366,39.536h5.9s2.313-18.006-6.679-39.7a.833.833,0,0,0-1.59.164" transform="translate(-439.308 -34.432)" fill="#ccb16c"/>
          <path id="Trazado_149976" data-name="Trazado 149976" d="M488.113,212.4c-2.4,3.853-7.654,14.286-7.956,32.068h5.511s6.516-15.13,3.975-31.749a.834.834,0,0,0-1.531-.319" transform="translate(-419.135 -36.019)" fill="#ccb16c"/>
          <path id="Trazado_149977" data-name="Trazado 149977" d="M483.609,224.673a47.811,47.811,0,0,0-13.821,21.915h6.762a34.085,34.085,0,0,0,8.444-21.244.836.836,0,0,0-1.385-.671" transform="translate(-405.29 -38.135)" fill="#ccb16c"/>
          <path id="Trazado_149978" data-name="Trazado 149978" d="M501.846,248.9a84.336,84.336,0,0,1-3.152-16.87c-.045-.533.786-.53.83,0a83.287,83.287,0,0,0,3.123,16.65.416.416,0,0,1-.8.22" transform="translate(-446.955 -39.351)" fill="#2b244a"/>
          <path id="Trazado_149979" data-name="Trazado 149979" d="M490.819,249.277A76.522,76.522,0,0,0,492.2,238.34c.022-.532.853-.535.83,0a78.014,78.014,0,0,1-1.413,11.158c-.1.524-.9.3-.8-.221" transform="translate(-430.779 -40.424)" fill="#2b244a"/>
          <path id="Trazado_149980" data-name="Trazado 149980" d="M487.711,236.976a61.532,61.532,0,0,0-3.248,6.225,45.442,45.442,0,0,0-2.5,6.5.415.415,0,0,1-.8-.221,46.516,46.516,0,0,1,2.517-6.547,61.713,61.713,0,0,1,3.318-6.376.415.415,0,0,1,.716.419" transform="translate(-417.495 -40.155)" fill="#2b244a"/>
          <path id="Trazado_149981" data-name="Trazado 149981" d="M474.9,251.116h25.983a.673.673,0,0,1,.674.667c.015,2.328-.033,10.255-1.3,15.855a46.226,46.226,0,0,1-4.314,11.159H479.839a46.224,46.224,0,0,1-4.314-11.159c-1.264-5.6-1.312-13.527-1.3-15.855a.673.673,0,0,1,.673-.667" transform="translate(-425.541 -42.662)" fill="#ffeae0"/>
          <path id="Trazado_149982" data-name="Trazado 149982" d="M384.848,229h53.085a1.525,1.525,0,0,1,1.414.954l18.2,45.083H401.172L383.435,231.1a1.524,1.524,0,0,1,1.414-2.1" transform="translate(-306.064 -38.906)" fill="#2b244a"/>
          <path id="Trazado_149983" data-name="Trazado 149983" d="M347.988,280.8h34.731a2.025,2.025,0,0,1,2.025,2.025v1.014H347.988Z" transform="translate(-203.933 -47.706)" fill="#2b244a"/>
          <path id="Trazado_149984" data-name="Trazado 149984" d="M405.688,273.634l-6.894-17.109q-3.636-9.021-7.271-18.043l-1.853-4.6c-.59-1.465-.98-3.362-2.519-4.1-.481-.232-.061-.948.419-.716,1.376.663,1.824,1.927,2.358,3.254q.832,2.065,1.664,4.13,1.81,4.494,3.622,8.988l7.448,18.482q1.913,4.749,3.826,9.5c.2.5-.6.711-.8.221" transform="translate(-258.042 -38.908)" fill="#8c75b5"/>
          <path id="Trazado_149985" data-name="Trazado 149985" d="M387.382,281.473a2.281,2.281,0,0,0-.392.091c-.031.01-.064.022-.1.033s-.091.039-.026.009c-.061.028-.122.057-.182.09a2.69,2.69,0,0,0-.343.22c.075-.056-.007.008-.023.021l-.077.066c-.055.05-.107.1-.158.154s-.092.1-.135.153l-.031.039c.027-.035.031-.041.014-.017s-.04.054-.059.082a2.632,2.632,0,0,0-.2.345c-.006.012-.049.11-.027.056s-.017.046-.021.057c-.022.06-.042.122-.058.185s-.031.124-.042.187l-.007.047c.007-.053.009-.064.006-.032s-.007.074-.008.11a.415.415,0,0,1-.83,0,3,3,0,0,1,2.472-2.7.426.426,0,0,1,.511.29.419.419,0,0,1-.29.51" transform="translate(-237.336 -47.683)" fill="#8c75b5"/>
          <path id="Trazado_149986" data-name="Trazado 149986" d="M433.128,260.739A3.62,3.62,0,0,0,436.2,259.3a4.078,4.078,0,0,0,.33-3.738,7.628,7.628,0,0,0-6.627-4.9,3.62,3.62,0,0,0-3.069,1.434,4.076,4.076,0,0,0-.329,3.738,7.627,7.627,0,0,0,6.627,4.9M429.9,251.5a6.741,6.741,0,0,1,5.843,4.342,3.224,3.224,0,0,1-.223,2.983,2.819,2.819,0,0,1-2.392,1.085,6.741,6.741,0,0,1-5.843-4.342,3.224,3.224,0,0,1,.222-2.983A2.816,2.816,0,0,1,429.9,251.5" transform="translate(-320.939 -42.586)" fill="#8c75b5"/>
          <path id="Trazado_149987" data-name="Trazado 149987" d="M253.534,272.93s2.384,10.557-6.3,10.557h-65.3c-6.726,0-7.535,9.237-3.576,20.731s11.11,33.758,11.11,33.758h-4.6S174.64,308.029,172.992,304.6s-9.2-26.308,3.916-30.395,76.626-1.277,76.626-1.277" transform="translate(75.278 -46.208)" fill="#b06641"/>
          <rect id="Rectángulo_40891" data-name="Rectángulo 40891" width="105.664" height="14.866" transform="translate(254.07 287.256)" fill="#b06641"/>
          <path id="Trazado_149988" data-name="Trazado 149988" d="M132.571,331.43l19.239,90.8h-3.96l-26.734-90.8Z" transform="translate(217.33 -56.307)" fill="#b06641"/>
          <path id="Trazado_149989" data-name="Trazado 149989" d="M166.725,331.43l19.239,90.8H182l-26.734-90.8Z" transform="translate(154.825 -56.307)" fill="#b06641"/>
          <path id="Trazado_149990" data-name="Trazado 149990" d="M253.39,331.43l-19.239,90.8h3.96l26.734-90.8Z" transform="translate(10.464 -56.307)" fill="#b06641"/>
          <path id="Trazado_149991" data-name="Trazado 149991" d="M219.236,331.43,200,422.232h3.96l26.734-90.8Z" transform="translate(72.969 -56.307)" fill="#b06641"/>
          <path id="Trazado_149992" data-name="Trazado 149992" d="M167.1,301.706s19.84-43.582,25.288-73.211-13.282-38.312-41.888-39.5-52.489,5.065-57.469,16.687S86.649,286.9,86.649,286.9s73.9,20.254,80.455,14.8" transform="translate(204.418 -32.083)" fill="#ffc37a"/>
          <path id="Trazado_149993" data-name="Trazado 149993" d="M128.992,203.717c-4,11.294-7.792,22.671-10.9,34.246a216.884,216.884,0,0,0-6.678,35.191,152.935,152.935,0,0,0-.667,19.962c.017.534-.813.534-.83,0a167.053,167.053,0,0,1,2.873-35.6,285.229,285.229,0,0,1,8.9-34.762c2.043-6.462,4.239-12.873,6.5-19.262.176-.5.979-.285.8.221" transform="translate(249.487 -34.524)" fill="#2b244a"/>
          <path id="Trazado_149994" data-name="Trazado 149994" d="M241.9,315.985c5.521,2.527,4.058,21.853-4.371,25.939-6.57,3.185-30.472,2.2-54.077,1.986-30.553-.277-47.569-.754-56.026-.936-11.308-.244-15.79-28.522,4.985-32.779s83.351-6.173,109.489,5.789" transform="translate(126.641 -52.143)" fill="#ffc37a"/>
          <path id="Trazado_149995" data-name="Trazado 149995" d="M198.253,321.138a13.884,13.884,0,0,0-5.011-6.815,19.756,19.756,0,0,0-8.065-3.784,73.339,73.339,0,0,0-11.166-1.484c-4.572-.351-9.154-.6-13.734-.813q-9.118-.427-18.245-.651-10.441-.265-20.886-.29-1.344,0-2.688,0a.415.415,0,0,1,0-.83q10.726-.015,21.45.239,9.469.219,18.934.637c4.813.216,9.626.468,14.431.823a89.618,89.618,0,0,1,10.927,1.31,21.348,21.348,0,0,1,8.4,3.319,17.6,17.6,0,0,1,5.692,6.154,11.452,11.452,0,0,1,.756,1.967.415.415,0,0,1-.8.221" transform="translate(172.608 -52.066)" fill="#2b244a"/>
          <path id="Trazado_149996" data-name="Trazado 149996" d="M172.163,363.969H180.4a.415.415,0,0,1,0,.83h-8.237a.415.415,0,0,1,0-.83" transform="translate(146.298 -61.835)" fill="#2b244a"/>
          <path id="Trazado_149997" data-name="Trazado 149997" d="M137.757,363.969h8.237a.415.415,0,0,1,0,.83h-8.237a.415.415,0,0,1,0-.83" transform="translate(209.265 -61.835)" fill="#2b244a"/>
          <path id="Trazado_149998" data-name="Trazado 149998" d="M244.5,363.969h8.237a.415.415,0,0,1,0,.83H244.5a.415.415,0,0,1,0-.83" transform="translate(13.904 -61.835)" fill="#2b244a"/>
          <path id="Trazado_149999" data-name="Trazado 149999" d="M210.125,363.969h8.237a.415.415,0,0,1,0,.83h-8.237a.415.415,0,0,1,0-.83" transform="translate(76.823 -61.835)" fill="#2b244a"/>
          <path id="Trazado_150000" data-name="Trazado 150000" d="M200.328,351.93v9.511a.415.415,0,0,1-.83,0V351.93a.415.415,0,0,1,.83,0" transform="translate(103.747 -59.721)" fill="#2b244a"/>
          <path id="Trazado_150001" data-name="Trazado 150001" d="M315.548,228.685s-9.311,18.9-22.1,23.269c-13.062,4.456-24.822-5.92-20.118-30.961,4.7-25.006,8.074-41.016,10.918-46.9,2.987-6.179,8.269-11.281,23.768-10.148s-2.381,9.038-2.381,9.038l-5.6,4.013L297.4,209.509l8.2-10.408Z" transform="translate(-71.881 -27.826)" fill="#e0785e"/>
          <path id="Trazado_150002" data-name="Trazado 150002" d="M294.374,218.784q-.027,5.489-.056,10.977a.415.415,0,0,1-.83,0q.029-5.489.056-10.977a.415.415,0,0,1,.83,0" transform="translate(-68.321 -37.101)" fill="#2b244a"/>
          <path id="Trazado_150003" data-name="Trazado 150003" d="M297.25,168.351q-4.1.938-8.163,2.034a.415.415,0,0,1-.221-.8q4.062-1.1,8.163-2.034c.521-.119.742.681.221.8" transform="translate(-67.413 -28.463)" fill="#2b244a"/>
          <path id="Trazado_150004" data-name="Trazado 150004" d="M258.457,208.891l21.117,16.948,7.61-35.972-12.159-13.835a29.112,29.112,0,0,0-5.317,4.761c-3.9,4.675-11.251,28.1-11.251,28.1" transform="translate(-32.051 -29.906)" fill="#ffeae0"/>
          <path id="Trazado_150005" data-name="Trazado 150005" d="M287.565,215.333l-8.625-7.268c-.408-.344.181-.929.588-.587l8.624,7.268c.409.344-.181.929-.587.587" transform="translate(-50.047 -35.231)" fill="#2b244a"/>
          <path id="Trazado_150006" data-name="Trazado 150006" d="M418.322,417.132s-1.117,9-2.195,18.734H366.9s-.359-4.854,5.689-7.932c3.156-1.607,14.036-6.146,17.495-8.106,1.371-.776,3.364-1.38,4.273-3.171,0,0,8.673,3.347,23.962.475" transform="translate(-253.209 -70.786)" fill="#2b244a"/>
          <path id="Trazado_150007" data-name="Trazado 150007" d="M388.68,422.01a24.845,24.845,0,0,0-9.4.824c-5.308,1.453-8.954-1.642-11.047-5.078a5.671,5.671,0,0,0-2.743-2.628l3.054-7.471,22.078,5.32Z" transform="translate(-224.342 -69.257)" fill="#ffeae0"/>
          <path id="Trazado_150008" data-name="Trazado 150008" d="M417.042,435.7H368.163a.415.415,0,0,1,0-.83h48.879a.415.415,0,0,1,0,.83" transform="translate(-253.046 -73.88)" fill="#8c75b5"/>
          <path id="Trazado_150009" data-name="Trazado 150009" d="M272.393,367.322c4.932-8.968,9.716-18.017,14.526-27.05s9.642-18.041,14.68-26.942c5.049-8.921,10.3-17.731,15.919-26.307q2.092-3.194,4.253-6.34A57.681,57.681,0,0,1,326.015,275c5.583-6.3,13.7-7.484,21.631-7.484,0,0,30.443-.076,31.707-.074,1.067,2.955-3.5,18.891-2.3,23.93.8,3.393,1.586,6.838,2.3,10.317h-4.838c-2.875,0-5.8-.283-8.619.285a23.062,23.062,0,0,0-11.583,6.166c-5.788,5.73-9.291,13.248-12.915,20.421q-5.795,11.471-11.7,22.887-5.878,11.371-11.862,22.688c-3.924,7.422-6.5,12.716-10.5,20.1-3.7-.24-39.882-8.988-44.146-10.464,3.632-6.126,5.763-10.214,9.2-16.454" transform="translate(-128.319 -45.436)" fill="#2b244a"/>
          <path id="Trazado_150010" data-name="Trazado 150010" d="M390.747,405.242l-22.823-5.809-7.691-1.958a.415.415,0,0,1,.221-.8l22.823,5.809,7.691,1.958a.415.415,0,0,1-.221.8" transform="translate(-220.37 -67.389)" fill="#8c75b5"/>
          <path id="Trazado_150011" data-name="Trazado 150011" d="M372.932,417.132s-1.117,9-2.2,18.734H321.513s-.359-4.854,5.689-7.932c3.156-1.607,14.036-6.146,17.5-8.106,1.37-.776,3.363-1.38,4.272-3.171,0,0,8.673,3.347,23.963.475" transform="translate(-170.139 -70.786)" fill="#2b244a"/>
          <path id="Trazado_150012" data-name="Trazado 150012" d="M343.062,423.922a30.972,30.972,0,0,0-11.479.418c-5.308,1.453-6.646-3.149-8.739-6.584a5.677,5.677,0,0,0-2.743-2.628l3.054-7.471,22.078,5.32Z" transform="translate(-141.271 -69.257)" fill="#ffeae0"/>
          <path id="Trazado_150013" data-name="Trazado 150013" d="M372.206,435.7H324.377a.415.415,0,0,1,0-.83h47.829a.415.415,0,0,1,0,.83" transform="translate(-171.863 -73.88)" fill="#8c75b5"/>
          <path id="Trazado_150014" data-name="Trazado 150014" d="M205.531,391.672c-3.7-.24-39.881-8.988-44.145-10.464q5.448-9.189,10.575-18.564c4.932-8.968,9.715-18.017,14.526-27.05s9.643-18.041,14.68-26.942c5.048-8.921,10.3-17.732,15.918-26.307q2.092-3.194,4.254-6.34a57.688,57.688,0,0,1,4.245-5.681c5.583-6.3,13.7-7.483,21.63-7.483h19.432a39.542,39.542,0,0,1,4.473,0c-.315-1.255-.565-2.251-.88-3.507l37.6-19.425c6.164,8.636,10.317,14.948,14.331,23.641,3.406,7.376,6.68,15.475,4.779,23.72a17.192,17.192,0,0,1-5.161,9.066,4.755,4.755,0,0,1-1.459.678h-46.25c-2.875,0-5.8-.283-8.619.285a23.048,23.048,0,0,0-11.583,6.166c-5.787,5.729-9.291,13.249-12.916,20.421q-5.795,11.472-11.7,22.888-5.877,11.371-11.861,22.687-5.887,11.134-11.876,22.213" transform="translate(8.198 -40.758)" fill="#2b244a"/>
          <path id="Trazado_150015" data-name="Trazado 150015" d="M347.129,410.433l-34.546-8.793-9.293-2.366a.415.415,0,0,1,.221-.8l34.544,8.793,9.3,2.366a.415.415,0,0,1-.222.8" transform="translate(-129.483 -67.695)" fill="#8c75b5"/>
          <path id="Trazado_150016" data-name="Trazado 150016" d="M346.719,269.385c-7.681,1.153-12.188,8.613-15.973,14.624q-7.521,11.947-14.8,24.044-7.406,12.295-14.578,24.73-7.147,12.389-14.061,24.911-6.832,12.374-13.426,24.878-.821,1.558-1.637,3.117c-.248.473-.966.054-.717-.419q6.623-12.64,13.5-25.147,6.963-12.676,14.167-25.216,7.181-12.5,14.6-24.869,7.388-12.317,15.017-24.489a90.249,90.249,0,0,1,6.716-9.879,20.267,20.267,0,0,1,8.383-6.43,13.369,13.369,0,0,1,2.6-.654c.523-.079.748.721.221.8" transform="translate(-102.691 -45.629)" fill="#8c75b5"/>
          <path id="Trazado_150017" data-name="Trazado 150017" d="M225.262,267.358H200.636a.415.415,0,0,1,0-.83h24.627a.415.415,0,0,1,0,.83" transform="translate(77.8 -45.281)" fill="#8c75b5"/>
          <path id="Trazado_150018" data-name="Trazado 150018" d="M253.229,226.406s-7.354,4.781-16.833,9.642c-7.853,4.026-30.345,13.67-30.345,13.67H194.172s-16.362-35.407-20.956-61.981c-4.621-26.73,13.766-27.578,27.993-22.855,7.648,2.539,33.2,24.63,52.02,61.524" transform="translate(73.266 -27.636)" fill="#ffeae0"/>
          <path id="Trazado_150019" data-name="Trazado 150019" d="M253.834,162.951a14.816,14.816,0,0,1-3.841,8.88c-.354.4-.939-.188-.587-.587a13.886,13.886,0,0,0,3.6-8.293c.036-.53.866-.534.83,0" transform="translate(8.9 -27.616)" fill="#2b244a"/>
          <path id="Trazado_150020" data-name="Trazado 150020" d="M264.17,153.325l7.382,7.953a26.586,26.586,0,0,1-2.011,5.709A30.009,30.009,0,0,1,265.8,172.1l-11.966-12.451Z" transform="translate(-12.581 -26.048)" fill="#e0785e"/>
          <path id="Trazado_150021" data-name="Trazado 150021" d="M226.549,240.377l-5.911-4.159c-.433-.3-.019-1.025.419-.716l5.911,4.159c.433.3.019,1.024-.419.716" transform="translate(59.528 -39.997)" fill="#2b244a"/>
          <path id="Trazado_150022" data-name="Trazado 150022" d="M241.422,229.756l-17.5-11.991-5.037-3.452c-.437-.3-.023-1.019.419-.716l17.5,11.991,5.037,3.452c.437.3.023,1.019-.419.716" transform="translate(46.11 -36.276)" fill="#2b244a"/>
          <path id="Trazado_150023" data-name="Trazado 150023" d="M283.5,223.675s-8.69,27.661-22.486,29.637c-11.852,1.7-18.792-1.669-20.637-21.407s1.342-55.534,1.342-55.534a23.071,23.071,0,0,0-5.285-1.951c-2.213-.369-4.932,4-9.2,2.813-2.236-.623,2.132-7.846,5.257-11.253,3.264-3.558,6.8-4.911,16.672-3.159s11.72,7.722,12.544,12.174c.922,4.981,6.686,38.37,6.686,38.37Z" transform="translate(-1.945 -27.532)" fill="#e0785e"/>
          <path id="Trazado_150024" data-name="Trazado 150024" d="M264.475,168.654a16.764,16.764,0,0,0-3.987-3.277,17.034,17.034,0,0,0-4.678-2.029.415.415,0,0,1,.221-.8,17.8,17.8,0,0,1,4.877,2.112,17.511,17.511,0,0,1,4.155,3.408c.349.4-.236.991-.587.587" transform="translate(-7.593 -27.613)" fill="#2b244a"/>
          <path id="Trazado_150025" data-name="Trazado 150025" d="M243.966,234.732q-.908-5.44-1.816-10.88c-.087-.523.712-.748.8-.221q.908,5.44,1.816,10.88c.087.523-.712.747-.8.221" transform="translate(23.902 -37.942)" fill="#2b244a"/>
          <path id="Trazado_150026" data-name="Trazado 150026" d="M219.807,198.363q-2.332,13.877-5.317,27.635-.839,3.877-1.728,7.745c-.12.52-.92.3-.8-.221q3.15-13.716,5.677-27.563.711-3.9,1.368-7.817c.088-.525.888-.3.8.221" transform="translate(73.924 -33.612)" fill="#2b244a"/>
          <path id="Trazado_150027" data-name="Trazado 150027" d="M278.443,226.59c-.008,3.338,0,6.677.129,10.013a69.543,69.543,0,0,0,.96,10.125c.1.523-.7.746-.8.221a70.465,70.465,0,0,1-.984-10.174c-.134-3.393-.144-6.79-.135-10.185a.415.415,0,0,1,.83,0" transform="translate(-40.308 -38.427)" fill="#2b244a"/>
          <path id="Trazado_150028" data-name="Trazado 150028" d="M292.908,164.629a7.7,7.7,0,0,0-1.81,1.713c-.8.921-1.542,1.891-2.26,2.877q-1.027,1.412-1.981,2.878a13.718,13.718,0,0,0-1.147,1.938s0-.007-.023.061c-.066.188-.117.383-.164.576a3.02,3.02,0,0,0-.073,1.4,1.9,1.9,0,0,0,2.184,1.225c.523-.085.748.714.221.8a2.662,2.662,0,0,1-3.284-2.644,5.666,5.666,0,0,1,.935-2.767,52.885,52.885,0,0,1,4.517-6.359,9.942,9.942,0,0,1,2.466-2.42.415.415,0,0,1,.419.716" transform="translate(-59.654 -27.837)" fill="#2b244a"/>
          <path id="Trazado_150029" data-name="Trazado 150029" d="M359.713,412.937c-3.446-1.068-6.887-2.151-10.333-3.219-.509-.158-.292-.96.221-.8,3.446,1.068,6.887,2.151,10.333,3.219.509.158.291.959-.221.8" transform="translate(-180.326 -69.468)" fill="#8c75b5"/>
          <path id="Trazado_150030" data-name="Trazado 150030" d="M283.216,134.925c-.616-8.944-8.079-11.153-16.326-9.514s-10.449,5.035-11.9,12.084-2.556,15.421-2.467,17.709c.11,2.841,2.551,7.337,8.866,5.647a31.7,31.7,0,0,0,13.97-8.118c2.216-2.15,8.477-8.864,7.861-17.808" transform="translate(-23.194 -21.221)" fill="#e0785e"/>
          <path id="Trazado_150031" data-name="Trazado 150031" d="M249.57,128.011c3.579-2.946,12.369-5.284,19.234-3.025a11.567,11.567,0,0,1,6.984,6.051c2.03,3.785,5.925,12.7,3.435,16.88-1.758,2.954-5.528,3.522-8.252,3.51-.389.362-.5.3-.5.3a7.267,7.267,0,0,1-1.619-.421c-.2-.022-.378-.045-.522-.065-.127-.018-.2-.112-.24-.261-2.16-1.048-5-3.527-4.958-9.321a5.378,5.378,0,0,1-5.31-3.12c-1.382-3.618-2.468-6-4.84-6.354a4.465,4.465,0,0,0-4.029.951,9.854,9.854,0,0,0-1.893,3.041s-2.2-4.285,2.511-8.165" transform="translate(-15.007 -21.08)" fill="#2b244a"/>
          <path id="Trazado_150032" data-name="Trazado 150032" d="M270.793,144.674A25.545,25.545,0,0,1,264.91,133.7a.415.415,0,0,1,.8-.221,24.671,24.671,0,0,0,5.67,10.61c.359.394-.227.983-.587.587" transform="translate(-21.705 -22.626)" fill="#8c75b5"/>
          <path id="Trazado_150033" data-name="Trazado 150033" d="M265.111,140.577a23.983,23.983,0,0,1-2.341-4.628.418.418,0,0,1,.29-.511.425.425,0,0,1,.511.29,23.023,23.023,0,0,0,2.257,4.429c.293.449-.425.865-.716.419" transform="translate(-14.328 -23.007)" fill="#8c75b5"/>
          <path id="Trazado_150034" data-name="Trazado 150034" d="M259.875,140.579a8.222,8.222,0,0,1-1.123-2.191.417.417,0,0,1,.29-.51.425.425,0,0,1,.511.29c.032.093.065.186.1.278.017.047.036.092.054.138.006.015.065.155.029.071q.113.263.245.517a7.9,7.9,0,0,0,.612.989.416.416,0,0,1-.149.568.426.426,0,0,1-.568-.149" transform="translate(-5.748 -23.422)" fill="#8c75b5"/>
          <path id="Trazado_150035" data-name="Trazado 150035" d="M263.1,153.4l.7,5.042s-5.28,1.715-6.939-4.217,6.243-.825,6.243-.825" transform="translate(-7.149 -25.714)" fill="#2b244a"/>
          <path id="Trazado_150036" data-name="Trazado 150036" d="M261.763,149.787a4.722,4.722,0,1,0,4.518-4.917,4.721,4.721,0,0,0-4.518,4.917" transform="translate(-18.811 -24.611)" fill="#e0785e"/>
          <path id="Trazado_150037" data-name="Trazado 150037" d="M283.755,145.1a3.785,3.785,0,0,0,.41-.114c1.423-.46,2.521.452,2.917-.849.282-.95-.259-1.706-2.03-1.64a4.535,4.535,0,0,0-1.3.227l-.008,0a1.6,1.6,0,0,0,.011,2.373" transform="translate(-52.581 -24.209)" fill="#2b244a"/>
          <path id="Trazado_150038" data-name="Trazado 150038" d="M273.51,144.575c-.085,1.356,1.258.885,2.439,1.811,1.085.85,1.957,1.07,2.232.379.332-.834-.455-2.3-2.2-3.023-1.634-.677-2.409-.155-2.471.833" transform="translate(-35.616 -24.368)" fill="#2b244a"/>
          <path id="Trazado_150039" data-name="Trazado 150039" d="M264.959,152.062c1.366-1,1.295-3.608-.545-4.032-.521-.12-.3-.921.22-.8a2.852,2.852,0,0,1,2.081,2.425,3.316,3.316,0,0,1-1.337,3.124.417.417,0,0,1-.568-.149.423.423,0,0,1,.149-.568" transform="translate(-16.312 -25.011)" fill="#2b244a"/>
          <path id="Trazado_150040" data-name="Trazado 150040" d="M284.161,152.958a2.5,2.5,0,0,1-1.836-.662,1,1,0,0,1-.328-.928,2.094,2.094,0,0,1,.53-.859c.326-.4.672-.78.985-1.188a9.759,9.759,0,0,0,.833-1.331c.251-.472.969-.053.717.418a12.487,12.487,0,0,1-1.517,2.17c-.161.191-.322.383-.48.576-.1.12-.337.326-.22.49a1.309,1.309,0,0,0,.532.36,1.756,1.756,0,0,0,.784.123c.534-.028.532.8,0,.83" transform="translate(-49.508 -25.107)" fill="#2b244a"/>
          <path id="Trazado_150041" data-name="Trazado 150041" d="M286.151,157.085c-1.786,2.06-4.574,1.858-5.7-.763a.255.255,0,0,1,.27-.35l5.269.7a.255.255,0,0,1,.164.416" transform="translate(-49.317 -26.498)" fill="#2b244a"/>
          <path id="Trazado_150042" data-name="Trazado 150042" d="M277.4,148.565a1,1,0,0,1,.9-.317.942.942,0,0,1,.666.814,3.261,3.261,0,0,1-.073,1.162,2.082,2.082,0,0,1-.621,1.2.873.873,0,0,1-1.4-.606,2.887,2.887,0,0,1,.529-2.251" transform="translate(-39.1 -25.183)" fill="#2b244a"/>
          <path id="Trazado_150043" data-name="Trazado 150043" d="M285.81,147.12a1,1,0,0,1,.9-.317.942.942,0,0,1,.666.814,3.262,3.262,0,0,1-.073,1.162,2.082,2.082,0,0,1-.621,1.2.873.873,0,0,1-1.4-.606,2.887,2.887,0,0,1,.529-2.251" transform="translate(-54.493 -24.938)" fill="#2b244a"/>
          <path id="Trazado_150044" data-name="Trazado 150044" d="M281.287,140.466c-1.137.565-5.984-4.437-5.813-8.166s4.553-1.12,4.553-1.12a9.289,9.289,0,0,0-.184,4.227c.465,2.159,2.8,4.385,1.444,5.059" transform="translate(-40.694 -22.136)" fill="#2b244a"/>
          <path id="Trazado_150045" data-name="Trazado 150045" d="M285.149,162.327a32.112,32.112,0,0,1-9,4.677,11.2,11.2,0,0,1-7.733.149,4.941,4.941,0,0,1-3.023-3.508c-.119-.52.681-.742.8-.221a4.131,4.131,0,0,0,2.671,3.013,8.654,8.654,0,0,0,3.515.532,20.922,20.922,0,0,0,7.69-2.494,33.973,33.973,0,0,0,4.664-2.865c.433-.315.847.4.419.716" transform="translate(-35.941 -27.443)" fill="#2b244a"/>
          <path id="Trazado_150046" data-name="Trazado 150046" d="M265.4,155.9a.983.983,0,1,0,1.024-.939.983.983,0,0,0-1.024.939" transform="translate(-17.999 -26.327)" fill="#ffeae0"/>
          <path id="Trazado_150047" data-name="Trazado 150047" d="M381.177,426.217c-2.645,1.139-5.249,2.365-7.846,3.607a7.937,7.937,0,0,0-3.258,2.661A10.108,10.108,0,0,0,368.59,437c-.057.526-.888.531-.83,0a11.422,11.422,0,0,1,1.423-4.662,8.323,8.323,0,0,1,3.14-2.933c1.308-.72,2.706-1.31,4.058-1.942q2.173-1.016,4.376-1.962c.486-.208.909.506.419.717" transform="translate(-216.993 -72.282)" fill="#8c75b5"/>
          <path id="Trazado_150048" data-name="Trazado 150048" d="M188.573,274.622s2.384,10.557-6.3,10.557h-65.3c-6.726,0-7.535,9.237-3.576,20.731s11.11,33.758,11.11,33.758h-4.6s-10.229-29.948-11.877-33.375-9.2-26.308,3.916-30.4,76.626-1.277,76.626-1.277" transform="translate(194.164 -46.496)" fill="#b06641"/>
          <path id="Trazado_150049" data-name="Trazado 150049" d="M343.3,253.388H327.167s-.516,9.742.491,16.156c1.05,6.685,2.985,9.053,4.559,9.958a7.042,7.042,0,0,0,6.035,0c1.574-.9,3.509-3.273,4.558-9.958,1.007-6.414.492-16.156.492-16.156" transform="translate(-145.23 -43.048)" fill="#d9a389"/>
          <path id="Trazado_150050" data-name="Trazado 150050" d="M352.533,271.859a9.426,9.426,0,0,1-7.291-5.1,8.963,8.963,0,0,1-.784-4.817,6.286,6.286,0,0,1,2.072-3.778,7.629,7.629,0,0,1,4.74-1.952c.534-.026.533.8,0,.83a6.356,6.356,0,0,0-5.95,4.738,7.9,7.9,0,0,0,3.081,7.552,9.533,9.533,0,0,0,4.352,1.725c.526.076.3.876-.221.8" transform="translate(-169.259 -43.528)" fill="#d9a389"/>
          <path id="Trazado_150051" data-name="Trazado 150051" d="M419.172,288.427a7.66,7.66,0,0,0-4.334,3.335,7.011,7.011,0,0,0-.623,2.453q-.223,1.6-.445,3.194-.464,3.327-.927,6.653-1.849,13.266-3.7,26.531L405.4,357.481q-1.872,13.425-3.742,26.849-1.84,13.206-3.682,26.412-.23,1.655-.462,3.31c-.073.527-.873.3-.8-.221L400.451,387q1.9-13.6,3.789-27.192,1.893-13.569,3.784-27.139,1.884-13.519,3.769-27.039.473-3.391.945-6.78.23-1.659.462-3.317a24.644,24.644,0,0,1,.462-3.056c.618-2.273,2.717-3.814,4.8-4.666.159-.066.32-.13.485-.183.51-.164.728.637.221.8" transform="translate(-279.089 -48.861)" fill="#dec6bd"/>
          <path id="Trazado_150052" data-name="Trazado 150052" d="M312.946,287.613c2.9.033,4.8,2.083,5.4,4.818.457,2.078.621,4.258.915,6.366l.9,6.488,3.663,26.28q1.844,13.227,3.687,26.453,1.841,13.208,3.682,26.416,1.824,13.086,3.648,26.17.225,1.614.45,3.228c.073.523-.726.749-.8.221l-3.574-25.64q-1.805-12.953-3.612-25.906-1.809-12.987-3.62-25.974-1.8-12.921-3.6-25.843-.9-6.436-1.794-12.872l-.451-3.232a15.926,15.926,0,0,0-.521-2.766,4.732,4.732,0,0,0-2.557-3.037,4.86,4.86,0,0,0-1.82-.34.415.415,0,0,1,0-.83" transform="translate(-125.068 -48.863)" fill="#dec6bd"/>
          <path id="Trazado_150053" data-name="Trazado 150053" d="M316.664,288.591H474.384a2.064,2.064,0,0,0,0-4.127H316.664a2.064,2.064,0,1,0,0,4.127" transform="translate(-267.921 -48.328)" fill="#b06641"/>
          <path id="Trazado_150054" data-name="Trazado 150054" d="M412.519,284.975a3.53,3.53,0,0,0,.061,3.068.425.425,0,0,1-.149.568.419.419,0,0,1-.568-.149,4.418,4.418,0,0,1-.06-3.906.418.418,0,0,1,.568-.149.425.425,0,0,1,.149.568" transform="translate(-284.439 -48.309)" fill="#2b244a"/>
          <path id="Trazado_150055" data-name="Trazado 150055" d="M364.312,179.962h2.28s6.063,13.2,7.681,13.2c1.2,0,.3-13.2.3-13.2H466.8a1.617,1.617,0,0,0,1.606-1.8l-7.54-64.367a1.617,1.617,0,0,0-1.605-1.429H356.773a1.617,1.617,0,0,0-1.605,1.8l7.539,64.367a1.617,1.617,0,0,0,1.605,1.429" transform="translate(-293.556 -19.089)" fill="#8498d9"/>
          <path id="Trazado_150056" data-name="Trazado 150056" d="M374.839,184.122H450.1a134.563,134.563,0,0,0-3.362-22.131c-1.312-4.931-2.964-9.754-5.852-13.705a24.148,24.148,0,0,0-11.431-8.16,57.111,57.111,0,0,0-15.224-2.88,98.866,98.866,0,0,0-15.548-.158c-6.342.548-12.7,2.274-17.092,7.737a18.249,18.249,0,0,0-2.964,5.338A39.291,39.291,0,0,0,376.9,157.5c-.556,3.528-1.826,20.147-2.059,26.622" transform="translate(-291.582 -23.249)" fill="#ffeae0"/>
          <path id="Trazado_150057" data-name="Trazado 150057" d="M418.041,139.012q-.7,11.853-1.4,23.7-.19,3.211-.379,6.423c-.031.53-.862.535-.83,0q.7-11.853,1.4-23.705.19-3.211.379-6.423c.032-.531.862-.535.83,0" transform="translate(-293.216 -23.549)" fill="#2b244a"/>
          <path id="Trazado_150058" data-name="Trazado 150058" d="M313.808,141.432a9.079,9.079,0,0,1,2.456-2.365,16.728,16.728,0,0,1,6.648-1.841c5.641-.585,19.53-1.165,22.977-.46a2.27,2.27,0,0,1,1.851,1.986,1.863,1.863,0,0,1,1.058,2.2c-.139.471-1.058,1.2-1.058,1.2a3.125,3.125,0,0,1,.445,1.7,2.384,2.384,0,0,1-.969,1.556c-3.8,1.7-16.207,3.468-20.074,4.7a8.866,8.866,0,0,0-3.426,1.88c-.876.823-3.187,3.13-3.615,2.737-3.176-2.916-8.228-7.124-9.295-8.908a42.73,42.73,0,0,1,3-4.388" transform="translate(-137.204 -23.18)" fill="#ffa58f"/>
          <path id="Trazado_150059" data-name="Trazado 150059" d="M327.316,138.918s3.925-4.2,12.926-6.831c6.461-1.886,7.3-.587,6.919.765-.4,1.407-5.255,4.057-5.255,4.057Z" transform="translate(-149.265 -22.28)" fill="#ffa58f"/>
          <path id="Trazado_150060" data-name="Trazado 150060" d="M336.064,142.213a5.807,5.807,0,0,0-.721-4.292c-.28-.457.437-.874.716-.418a6.664,6.664,0,0,1,.805,4.932c-.117.52-.918.3-.8-.221" transform="translate(-145.666 -23.327)" fill="#2b244a"/>
          <path id="Trazado_150061" data-name="Trazado 150061" d="M335.673,137.182a10.825,10.825,0,0,1-1.967.789,16.343,16.343,0,0,1-1.947.529.426.426,0,0,1-.51-.291.417.417,0,0,1,.29-.51,16.257,16.257,0,0,0,1.9-.512,9.7,9.7,0,0,0,1.82-.722c.467-.261.886.455.419.716" transform="translate(-141.157 -23.175)" fill="#2b244a"/>
          <path id="Trazado_150062" data-name="Trazado 150062" d="M325.1,139.714q-6.281.625-12.575.986c-.534.031-.532-.8,0-.83q6.3-.361,12.575-.986c.531-.053.527.778,0,.83" transform="translate(-114.92 -23.595)" fill="#2b244a"/>
          <path id="Trazado_150063" data-name="Trazado 150063" d="M325.054,143.551q-6.4.636-12.814,1.005c-.534.031-.532-.8,0-.83q6.42-.369,12.814-1.005c.531-.053.527.778,0,.83" transform="translate(-114.632 -24.246)" fill="#2b244a"/>
          <path id="Trazado_150064" data-name="Trazado 150064" d="M479.679,118.921a2.49,2.49,0,1,0,2.49-2.49,2.49,2.49,0,0,0-2.49,2.49" transform="translate(-413.166 -19.781)" fill="#fff"/>
          <path id="Trazado_150065" data-name="Trazado 150065" d="M469.679,118.921a2.49,2.49,0,1,0,2.49-2.49,2.49,2.49,0,0,0-2.49,2.49" transform="translate(-394.865 -19.781)" fill="#fff"/>
          <path id="Trazado_150066" data-name="Trazado 150066" d="M395.354,178.705c2.781-2.756,7.712-6.3,12.452-6.06,3.993.208,11.5,4.7,13.091,8.185a1.834,1.834,0,0,1-.075,2.017,2.331,2.331,0,0,1-1.835.946.81.81,0,0,1-.2-.017c.216.191.44.374.648.581a2.472,2.472,0,0,1,.714,1.1,2,2,0,0,1-.963,2.117,4.146,4.146,0,0,1-2.532.448,3.207,3.207,0,0,1-.042,1.61,6.3,6.3,0,0,1-.31.573H398.435c-1.129-1.22-1.728-3.345-2.176-4.906a39.081,39.081,0,0,1-.9-6.591" transform="translate(-279.657 -29.329)" fill="#ffa58f"/>
          <path id="Trazado_150067" data-name="Trazado 150067" d="M410.913,119.779,409.666,134s4.917,4.3,12.935,1.113l-.218-8.478Z" transform="translate(-292.988 -20.349)" fill="#ffa58f"/>
          <path id="Trazado_150068" data-name="Trazado 150068" d="M395.763,109.476a5.118,5.118,0,1,0,5.119-5.118,5.118,5.118,0,0,0-5.119,5.118" transform="translate(-264.846 -17.729)" fill="#2b244a"/>
          <path id="Trazado_150069" data-name="Trazado 150069" d="M397.832,106.481c1.277-7.341,6.986-8.717,13.662-6.654s8.206,5.058,8.8,11.01a125.334,125.334,0,0,1,.519,14.849c-.108,1.9-2.585,5.75-7.659,3.81a26.122,26.122,0,0,1-10.859-7.641c-1.648-1.968-5.742-8.033-4.465-15.374" transform="translate(-281.226 -16.812)" fill="#ffa58f"/>
          <path id="Trazado_150070" data-name="Trazado 150070" d="M409.316,111.608a20.906,20.906,0,0,1-1.966,5.516c-1.488,2.8-1.479,4.863-5.738,6.459V116.6s-3.667-3.676-2.01-7.044c0,0-2.56-1.223-2.214-4.958.212-2.289,1.628-3.05,2.527-3.736a2.369,2.369,0,0,0,.825-1.453c.559-2.006,3.185-4.151,7.923-3.389s5.129,2.334,6.226,2.594,2.4-.934,5.694-.035c3.138.857,5.272,5.638,1.951,8.474-2.783,2.377-7.23.761-7.818,1.038s-1.774,3.12-5.4,3.515" transform="translate(-284.377 -16.287)" fill="#2b244a"/>
          <path id="Trazado_150071" data-name="Trazado 150071" d="M402.511,116.3c-.672.959-1.324-.08-2.616-.091-1.188-.011-1.893-.331-1.708-.944.224-.74,1.542-1.306,3.106-.854,1.465.422,1.707,1.19,1.217,1.889" transform="translate(-263.575 -19.41)" fill="#2b244a"/>
          <path id="Trazado_150072" data-name="Trazado 150072" d="M399.828,118.492a.827.827,0,0,1,.658-.438.78.78,0,0,1,.7.517,2.721,2.721,0,0,1,.179.949,1.722,1.722,0,0,1-.254,1.089.724.724,0,0,1-1.249-.2,2.393,2.393,0,0,1-.036-1.917" transform="translate(-263.437 -20.056)" fill="#2b244a"/>
          <path id="Trazado_150073" data-name="Trazado 150073" d="M419.069,118.709a3.861,3.861,0,1,1-3.793-3.929,3.861,3.861,0,0,1,3.793,3.929" transform="translate(-290.852 -19.5)" fill="#ffa58f"/>
          <path id="Trazado_150074" data-name="Trazado 150074" d="M395.306,118.052s2.751,4.373,2.543,5.266-2.836,1.307-2.836,1.307Z" transform="translate(-256.084 -20.056)" fill="#ffa58f"/>
          <path id="Trazado_150075" data-name="Trazado 150075" d="M418.075,117.265a1.607,1.607,0,0,0-1.029,1.038,2.844,2.844,0,0,0,.15,1.934.418.418,0,0,1-.29.511.425.425,0,0,1-.51-.29,3.475,3.475,0,0,1-.115-2.471,2.448,2.448,0,0,1,1.574-1.522.415.415,0,0,1,.221.8" transform="translate(-294.097 -19.783)" fill="#2b244a"/>
          <path id="Trazado_150076" data-name="Trazado 150076" d="M378.555,153.911S368.47,175.9,362.163,185.818l-24.405-.041,24.256-38.938Z" transform="translate(-189.251 -24.947)" fill="#ffeae0"/>
          <path id="Trazado_150077" data-name="Trazado 150077" d="M413.415,134.765a21.725,21.725,0,0,1-3.517-2.595.415.415,0,1,1,.588-.587,20.634,20.634,0,0,0,3.349,2.465.415.415,0,0,1-.419.716" transform="translate(-284.514 -22.335)" fill="#2b244a"/>
          <path id="Trazado_150078" data-name="Trazado 150078" d="M389.748,175.194c.842,5.064,1.295,10.185,2.2,15.239.093.522-.706.746-.8.221-.9-5.055-1.356-10.175-2.2-15.239-.087-.523.713-.747.8-.221" transform="translate(-245.136 -29.713)" fill="#2b244a"/>
          <path id="Trazado_150079" data-name="Trazado 150079" d="M436.967,170.556v13.02a.415.415,0,0,1-.83,0v-13.02a.415.415,0,0,1,.83,0" transform="translate(-329.328 -28.908)" fill="#2b244a"/>
          <path id="Trazado_150080" data-name="Trazado 150080" d="M407.68,185.276a25.1,25.1,0,0,0-9.916-5.753c-.51-.155-.292-.956.221-.8a26.019,26.019,0,0,1,10.282,5.967c.389.368-.2.954-.587.587" transform="translate(-268.662 -30.36)" fill="#2b244a"/>
          <path id="Trazado_150081" data-name="Trazado 150081" d="M410.722,189.957a38.042,38.042,0,0,0-9.922-6.042c-.486-.2-.273-1.005.221-.8a39.322,39.322,0,0,1,10.288,6.257c.409.344-.181.929-.587.587" transform="translate(-274.247 -31.104)" fill="#2b244a"/>
          <path id="Trazado_150082" data-name="Trazado 150082" d="M442.823,180.223a147.971,147.971,0,0,0-16.159,11.32c-.412.332-1-.252-.587-.587a149.432,149.432,0,0,1,16.327-11.45.415.415,0,0,1,.419.716" transform="translate(-326.913 -30.486)" fill="#2b244a"/>
          <path id="Trazado_150083" data-name="Trazado 150083" d="M425.56,139.161a12.969,12.969,0,0,1-8.014,3.787,13.834,13.834,0,0,1-8.614-2.1,15.252,15.252,0,0,1-3.864-3.452c-.329-.414.255-1.005.587-.587,3.619,4.552,9.791,6.681,15.306,4.459a11.7,11.7,0,0,0,4.012-2.695c.373-.383.96.2.587.587" transform="translate(-292.169 -23.218)" fill="#2b244a"/>
          <path id="Trazado_150084" data-name="Trazado 150084" d="M401.186,126.861c.008.9.008,1.685,0,2.316a6.954,6.954,0,0,1-3.594-2.5c.241,0,1.876.091,3.594.183" transform="translate(-261.557 -21.521)" fill="#fff"/>
          <path id="Trazado_150085" data-name="Trazado 150085" d="M359.043,163.539l-16.4-7.575c-.485-.223-.063-.939.419-.716l16.4,7.575c.484.223.063.939-.419.716" transform="translate(-174.248 -26.368)" fill="#2b244a"/>
          <path id="Trazado_150086" data-name="Trazado 150086" d="M344.846,119.111h27.995a4.841,4.841,0,0,0,4.827-4.826v-2.713a4.842,4.842,0,0,0-4.827-4.827H344.846a4.841,4.841,0,0,0-4.826,4.827v2.713a4.84,4.84,0,0,0,4.826,4.826" transform="translate(-190.242 -18.135)" fill="#ffeae0"/>
          <path id="Trazado_150087" data-name="Trazado 150087" d="M376.159,115.828v6.548a.83.83,0,0,0,1.126.775l6.522-2.5Z" transform="translate(-226.381 -19.678)" fill="#ffeae0"/>
          <path id="Trazado_150088" data-name="Trazado 150088" d="M353.571,113.271a.767.767,0,0,1,0,1.532.767.767,0,0,1,0-1.532" transform="translate(-177.518 -19.244)" fill="#2b244a"/>
          <path id="Trazado_150089" data-name="Trazado 150089" d="M362.544,113.271a.767.767,0,0,1,0,1.532.767.767,0,0,1,0-1.532" transform="translate(-193.942 -19.244)" fill="#2b244a"/>
          <path id="Trazado_150090" data-name="Trazado 150090" d="M371.519,113.271a.767.767,0,0,1,0,1.532.767.767,0,0,1,0-1.532" transform="translate(-210.367 -19.244)" fill="#2b244a"/>
          <g id="Grupo_173516" data-name="Grupo 173516" transform="translate(0 33.793)">
            <path id="Trazado_150091" data-name="Trazado 150091" d="M254.013,66.576a28.708,28.708,0,1,0-28.708-28.708,28.74,28.74,0,0,0,28.708,28.708m0-56.586a27.878,27.878,0,1,1-27.878,27.878A27.909,27.909,0,0,1,254.013,9.99" transform="translate(-0.069 -1.557)" fill="#2b244a"/>
            <path id="Trazado_150092" data-name="Trazado 150092" d="M230.578,38.764a24.33,24.33,0,1,0,24.33-24.33,24.33,24.33,0,0,0-24.33,24.33" transform="translate(-0.965 -2.452)" fill="#ffeae0"/>
            <path id="Trazado_150093" data-name="Trazado 150093" d="M259.977,14.333v2.824a.412.412,0,0,1-.824,0V14.333a.412.412,0,0,1,.824,0" transform="translate(-5.422 -2.365)" fill="#2b244a"/>
            <path id="Trazado_150094" data-name="Trazado 150094" d="M261.05,27.879V44.057a.412.412,0,0,1-.823,0V27.879a.412.412,0,0,1,.823,0" transform="translate(-7.388 -4.669)" fill="#2b244a"/>
            <path id="Trazado_150095" data-name="Trazado 150095" d="M260.914,37.78l7.826,6.568,1.371,1.15c.407.341-.179.921-.583.583L261.7,39.512l-1.371-1.149c-.406-.341.179-.921.583-.583" transform="translate(-16.559 -6.401)" fill="#2b244a"/>
            <path id="Trazado_150096" data-name="Trazado 150096" d="M259.631,72.392V69.569a.412.412,0,1,1,.823,0v2.823a.412.412,0,1,1-.823,0" transform="translate(-6.297 -11.749)" fill="#2b244a"/>
            <path id="Trazado_150097" data-name="Trazado 150097" d="M233.309,44.3h-2.823a.411.411,0,1,1,0-.823h2.823a.411.411,0,1,1,0,.823" transform="translate(44.973 -7.387)" fill="#2b244a"/>
            <path id="Trazado_150098" data-name="Trazado 150098" d="M285.72,43h2.824a.412.412,0,0,1,0,.823H285.72a.412.412,0,0,1,0-.823" transform="translate(-56.113 -7.306)" fill="#2b244a"/>
            <path id="Trazado_150099" data-name="Trazado 150099" d="M241.192,23.381l-2,2a.412.412,0,1,1-.583-.583l2-2a.412.412,0,0,1,.583.583" transform="translate(30.393 -3.853)" fill="#2b244a"/>
            <path id="Trazado_150100" data-name="Trazado 150100" d="M278.008,63.514l2-2a.412.412,0,0,1,.583.582l-2,2a.412.412,0,1,1-.583-.583" transform="translate(-41.704 -10.431)" fill="#2b244a"/>
            <path id="Trazado_150101" data-name="Trazado 150101" d="M240.948,64.435l-2-2a.412.412,0,1,1,.582-.583l2,2a.412.412,0,0,1-.583.583" transform="translate(29.773 -10.488)" fill="#2b244a"/>
            <path id="Trazado_150102" data-name="Trazado 150102" d="M278.252,22.46l2,2a.412.412,0,1,1-.582.583l-2-2a.412.412,0,0,1,.583-.582" transform="translate(-41.085 -3.796)" fill="#2b244a"/>
          </g>
        </g>
      </g>
    </g>
  </g>
</svg>
