<svg xmlns="http://www.w3.org/2000/svg" xmlns:xlink="http://www.w3.org/1999/xlink" width="293.01" height="613.163" viewBox="0 0 293.01 613.163">
  <defs>
    <clipPath id="clip-path">
      <rect id="Rectángulo_40959" data-name="Rectángulo 40959" width="293.01" height="613.163" fill="none"/>
    </clipPath>
    <clipPath id="clip-path-2">
      <rect id="Rectángulo_38703" data-name="Rectángulo 38703" width="3.156" height="1.478" fill="none"/>
    </clipPath>
  </defs>
  <g id="Grupo_173527" data-name="Grupo 173527" transform="translate(-185.327 -1301.867)">
    <g id="Grupo_172619" data-name="Grupo 172619" transform="translate(185.327 1301.867)">
      <g id="Grupo_157493" data-name="Grupo 157493" transform="translate(0 0)">
        <path id="Trazado_114544" data-name="Trazado 114544" d="M177,554.626c-35.982-16.369-73.3-38.456-87.789-75.393-16.083-40.993.751-86.9.347-130.966-.321-34.908-11.571-68.619-20.423-102.374s-15.353-69.621-6.22-103.3c6.114-22.546,19.1-42.946,35.865-59.133,29.522-28.5,72.057-43.929,112.472-37.41s77.13,36.223,88.945,75.626c16.739,55.825-15.959,115.417-9.009,173.3,2.719,22.65,11.422,44.07,17.323,66.1A272.2,272.2,0,0,1,317.763,433c-.221,37.158-9.587,76.8-37.157,101.547C252.8,559.5,211.412,570.28,177,554.626Z" transform="translate(-41.304 -39.372)" fill="#e1e8ff"/>
        <g id="Grupo_173520" data-name="Grupo 173520">
          <g id="Grupo_165659" data-name="Grupo 165659" clip-path="url(#clip-path)">
            <path id="Trazado_150964" data-name="Trazado 150964" d="M200.521,287.149H162.646V210.005h37.875a4.6,4.6,0,0,1,4.6,4.6v67.954a4.6,4.6,0,0,1-4.6,4.595" transform="translate(26.846 34.663)" fill="#ffcfa6"/>
            <path id="Trazado_150965" data-name="Trazado 150965" d="M244.927,534.467a4.927,4.927,0,0,1-.387.9,5.7,5.7,0,0,1-.55.815c-.122.122-.224.245-.346.367a5.156,5.156,0,0,1-3.664,1.526H166.849c-.305,0-.61-.02-.895-.041a5.88,5.88,0,0,1-.876-.122,5.272,5.272,0,0,1-.855-.183c-.284-.082-.55-.163-.814-.264a5.7,5.7,0,0,1-.814-.326,7.1,7.1,0,0,1-.692-.346,9.852,9.852,0,0,1-2.565-2.016,5.376,5.376,0,0,1-.428-.488,10.068,10.068,0,0,1-1.18-1.833,4.52,4.52,0,0,1-.326-.712.768.768,0,0,1-.082-.184,8.7,8.7,0,0,1-.488-1.608l-2.973-23.679L148.118,460.5l46.765-5.557s2.647,45.116,2.769,45.442c0,.02.142.082.367.245h.02c1.038.651,3.95,2.443,7.879,4.886.407.224.814.488,1.242.753.163.1.346.2.509.305,1.689,1.039,3.542,2.179,5.456,3.36.57.366,1.141.712,1.73,1.079,2.688,1.669,5.5,3.421,8.287,5.191a.019.019,0,0,1,.02.02c.733.448,1.405.917,2.138,1.364.631.387,1.222.774,1.812,1.16,9.325,5.945,17.347,11.36,17.774,12.623.02.041.02.1.041.142,0,.021,0,.021.021.041a4.888,4.888,0,0,1-.021,2.911" transform="translate(24.448 75.092)" fill="#f9b3a2"/>
            <path id="Trazado_150966" data-name="Trazado 150966" d="M244.114,527.995a4.919,4.919,0,0,1-.387.9,5.126,5.126,0,0,1-.55.815c-.122.122-.224.245-.346.367a5.156,5.156,0,0,1-3.664,1.526H166.035c-.305,0-.611-.02-.895-.041a5.885,5.885,0,0,1-.876-.122,5.264,5.264,0,0,1-.855-.183c-.284-.082-.55-.163-.814-.264a5.683,5.683,0,0,1-.814-.326,7.062,7.062,0,0,1-.692-.346,9.851,9.851,0,0,1-2.565-2.016,5.38,5.38,0,0,1-.428-.488,10.06,10.06,0,0,1-1.18-1.832,4.522,4.522,0,0,1-.326-.712.769.769,0,0,1-.082-.184,8.694,8.694,0,0,1-.488-1.608L153.046,499.8h33.7c1.017-.733,2.035-1.425,3.094-2.1,2.605-1.689,4.865-3.034,7.37-3.542h.02c1.038.651,3.95,2.443,7.879,4.886.407.224.814.488,1.242.753.163.1.346.2.509.305,1.689,1.039,3.542,2.179,5.456,3.36.57.366,1.141.712,1.73,1.079,2.688,1.67,5.5,3.421,8.287,5.191a.019.019,0,0,1,.02.02c.733.449,1.405.917,2.138,1.364.631.387,1.222.774,1.812,1.16,9.325,5.945,17.347,11.36,17.774,12.623.02.041.02.1.041.142,0,.021,0,.021.021.041a4.737,4.737,0,0,1-.021,2.911" transform="translate(25.262 81.565)" fill="#2f3f4f"/>
            <path id="Trazado_150967" data-name="Trazado 150967" d="M108.661,460.5l-5.72,45.768-2.973,23.678c-.082.305-.163.591-.243.876-.082.243-.163.488-.266.733s-.2.488-.305.712c-.1.2-.2.387-.305.571a10.015,10.015,0,0,1-.977,1.445,5.075,5.075,0,0,1-.428.489,9.854,9.854,0,0,1-2.565,2.016,7.359,7.359,0,0,1-.692.346,5.641,5.641,0,0,1-.814.326c-.264.1-.529.183-.814.264a5.377,5.377,0,0,1-.855.183,6.164,6.164,0,0,1-.875.122c-.285.02-.591.041-.9.041H33.9a5.153,5.153,0,0,1-3.665-1.527c-.122-.122-.224-.243-.346-.366a5.705,5.705,0,0,1-.55-.816,5.051,5.051,0,0,1-.387-.895,4.9,4.9,0,0,1-.02-2.911c.02-.021.02-.021.02-.041.021-.041.021-.1.062-.143.2-.63,7.431-8.225,14.719-15.7.489-.509.977-1.018,1.487-1.506,1.384-1.446,2.769-2.85,4.072-4.194.509-.529,1.018-1.017,1.487-1.506,4.275-4.336,7.594-7.615,7.96-7.839h.021a2.892,2.892,0,0,0,.366-.245c.122-.325,2.79-45.442,2.79-45.442Z" transform="translate(4.741 75.092)" fill="#f9b3a2"/>
            <path id="Trazado_150968" data-name="Trazado 150968" d="M102.941,499.8l-2.972,23.679c-.082.3-.163.59-.245.875-.082.243-.163.488-.264.733s-.2.488-.305.712c-.1.2-.2.388-.305.571a10.121,10.121,0,0,1-.977,1.446,5.412,5.412,0,0,1-.428.488,9.852,9.852,0,0,1-2.565,2.015,7.208,7.208,0,0,1-.692.346,5.73,5.73,0,0,1-.814.326c-.266.1-.53.183-.814.265a5.279,5.279,0,0,1-.855.183,6.043,6.043,0,0,1-.876.122c-.284.02-.59.041-.9.041H33.9a5.15,5.15,0,0,1-3.664-1.527c-.122-.122-.225-.243-.346-.366a5.772,5.772,0,0,1-.55-.814,4.928,4.928,0,0,1-.387-.9,4.737,4.737,0,0,1-.021-2.911c.021-.021.021-.021.021-.041.02-.041.02-.1.061-.142.2-.631,7.432-8.225,14.721-15.7.488-.509.976-1.017,1.485-1.506,1.385-1.446,2.769-2.85,4.072-4.193.509-.53,1.018-1.018,1.487-1.508,4.276-4.336,7.594-7.614,7.961-7.838h.02c2.5.509,4.764,1.854,7.37,3.543,1.059.672,2.077,1.364,3.115,2.1Z" transform="translate(4.74 81.565)" fill="#2f3f4f"/>
            <path id="Trazado_150969" data-name="Trazado 150969" d="M18.2,102.253l14.7-9,17.726,4.5,17.638,33.359L42.788,143.585Z" transform="translate(3.004 15.393)" fill="#f9b3a2"/>
            <path id="Trazado_150970" data-name="Trazado 150970" d="M165.145,48.93a109.616,109.616,0,0,1-10.5-12.266c-4.92-6.786-6.957-19.341-4.751-20.189s17.306-5.09,22.4,1.357,11.2,17.645,11.877,21.037-19.025,10.06-19.025,10.06" transform="translate(24.596 2.364)" fill="#2f3f4f"/>
            <path id="Trazado_150971" data-name="Trazado 150971" d="M139.934,5.339s-9.4-1.285-16.522,8.386c-5.313,7.209-3.86,15.439-5.386,18.493s-6.32,5.2-9.247,12.042a18,18,0,0,0-1.016,6.158c-.09,1.811.369,4.773-.648,6.34a9.952,9.952,0,0,1-1.318,1.477c-2.182,2.218-4.88,6.788-4.059,10.12h68.373a20.57,20.57,0,0,0-1.272-8.96c-1.781-4.315-2.108-6.013-1.654-11.829.573-7.338-4.355-17.045-4.355-17.045Z" transform="translate(16.768 0.872)" fill="#a66353"/>
            <path id="Trazado_150972" data-name="Trazado 150972" d="M218.746,73.454l22.411,4.017A18.26,18.26,0,0,1,255.913,98.4c-1.686,10.538-6.34,22.374-18.443,25.726-23.159,6.414-39.746,2.777-39.746,2.777Z" transform="translate(32.636 12.124)" fill="#f9b3a2"/>
            <path id="Trazado_150973" data-name="Trazado 150973" d="M159.735,33.348a20.411,20.411,0,0,1-21.987,14.3,20.071,20.071,0,0,1-3.466-.733,20.468,20.468,0,0,1-6.99-3.739c-.259-.207-.5-.409-.73-.629a9.033,9.033,0,0,1-.665-.633c-3.95-4.067-7.445-12.948-5.161-20.447a20.392,20.392,0,0,1,38.69-.977l-.006.02a20.3,20.3,0,0,1,1.193,7.635.548.548,0,0,1,0,.149,20.687,20.687,0,0,1-.874,5.053" transform="translate(19.809 1.157)" fill="#f9b3a2"/>
            <path id="Trazado_150974" data-name="Trazado 150974" d="M159.785,23.1s1.06,14.963-.889,23.5c-2.414,10.564-13.434,10.653-22.511,4.806s-12.174-16.335-12.174-16.335,17.78-8.232,20.052-8.21S159.785,23.1,159.785,23.1" transform="translate(20.502 3.813)" fill="#f9b3a2"/>
            <path id="Trazado_150975" data-name="Trazado 150975" d="M120.005,71.322l15.1,3.052,13.016-3.5-.679-11.033-.393-6.213v-.019l-.41-6.784L138.59,44.4,126.2,32.866Z" transform="translate(19.808 5.425)" fill="#f9b3a2"/>
            <path id="Trazado_150976" data-name="Trazado 150976" d="M134,47.439c.249.411,4.356,6.945,8.088,8.838a18.229,18.229,0,0,0,3.052,1.16l-.393-6.213v-.019s-4.5-1.231-6.731-2.017A34.106,34.106,0,0,1,134,47.439" transform="translate(22.117 7.83)" fill="#2f3f4f"/>
            <path id="Trazado_150977" data-name="Trazado 150977" d="M154.57,39.008l-12.945-.27s1.118,2.5,5.826,3.216a7.406,7.406,0,0,0,7.118-2.945" transform="translate(23.376 6.394)" fill="#fff"/>
            <path id="Trazado_150978" data-name="Trazado 150978" d="M156,14.18s-2.682,5.2-7.6,7.284c-2.745,1.163-9.89,1.883-12.46,3.414-2.346,1.4-3.816,4.424-4.567,6.932a17.161,17.161,0,0,0-.818,4.541c-.027,1.617-2.527,3.235-2.527,3.235l-3,6.567s-6.687-9.8-6.687-20.369A18.927,18.927,0,0,1,135.375,7.037a25.758,25.758,0,0,1,14.06,2C152.708,10.528,156,14.18,156,14.18" transform="translate(19.533 1.128)" fill="#a66353"/>
            <path id="Trazado_150979" data-name="Trazado 150979" d="M123.137,30.773a6.938,6.938,0,1,0,6.932-7.216,7.078,7.078,0,0,0-6.932,7.216" transform="translate(20.325 3.888)" fill="#f9b3a2"/>
            <path id="Trazado_150980" data-name="Trazado 150980" d="M200.833,69.458l-11.758,90.323-103.408,50.5s-11.844-138.126-4-140.819a95.929,95.929,0,0,1,21.464-4.212c2.737-.278,5.6-.471,8.531-.62,9.577-.535,20.095-.492,31.127-.235,12.036.256,26.316,1.475,37.69,2.694,3.1.3,5.986.62,8.531.94,7.139.813,11.822,1.433,11.822,1.433" transform="translate(13.037 10.598)" fill="#2f3f4f"/>
            <path id="Trazado_150981" data-name="Trazado 150981" d="M89.609,68.714a332.786,332.786,0,0,0-32.87,15.232C36.7,94.369,30.818,97.308,30.818,97.308l33.209,56.6,47.5-13.311s-5.612-41.955-6.414-45.964-15.5-25.921-15.5-25.921" transform="translate(5.087 11.342)" fill="#2f3f4f"/>
            <path id="Trazado_150982" data-name="Trazado 150982" d="M81.394,143.766a1.02,1.02,0,0,1-1-.821L67.5,77.554a1.018,1.018,0,1,1,2-.393L82.393,142.55a1.019,1.019,0,0,1-.8,1.2,1.055,1.055,0,0,1-.2.019" transform="translate(11.139 12.6)" fill="#0f0a1c"/>
            <path id="Trazado_150983" data-name="Trazado 150983" d="M186.444,68.714l37.5,5.522L212.9,145.855H166.223Z" transform="translate(27.437 11.342)" fill="#2f3f4f"/>
            <path id="Trazado_150984" data-name="Trazado 150984" d="M173.568,144.754a1.038,1.038,0,0,1-.237-.028,1.018,1.018,0,0,1-.755-1.226L187,82.758a1.017,1.017,0,1,1,1.979.471l-14.422,60.744a1.018,1.018,0,0,1-.989.782" transform="translate(28.481 13.53)" fill="#0f0a1c"/>
            <path id="Trazado_150985" data-name="Trazado 150985" d="M223.253,105.342,162.859,48.432l26.723-31.1s61.05,48.322,68.233,58.078c8.132,11.046,11.313,26.278,4.9,40.352s-18.22,17.227-18.22,17.227Z" transform="translate(26.881 2.861)" fill="#f9b3a2"/>
            <path id="Trazado_150986" data-name="Trazado 150986" d="M167.727,51.294c-.729,0-1.8-3.86-1.931-4.285a22.09,22.09,0,0,1-1.087-5.934,21.55,21.55,0,0,0-1.511-8.358,22.767,22.767,0,0,0-3.844-5.9,36.277,36.277,0,0,0-9.606-7.369c-1.392-.776-2.849-1.446-4.22-2.259-3.228-1.917-10.473-6.284-11.686-8.851S133.308.172,141.112,0s38.771,6.8,55.48,20.193,32.749,28.242,32.749,28.242l-61.614,2.856" transform="translate(22.014 0)" fill="#f9b3a2"/>
            <path id="Trazado_150987" data-name="Trazado 150987" d="M155.3,23.353a1.018,1.018,0,0,1-.6-.192L147.6,18.014a1.018,1.018,0,1,1,1.193-1.651l7.111,5.146a1.018,1.018,0,0,1-.6,1.843" transform="translate(24.292 2.669)" fill="#2f3f4f"/>
            <path id="Trazado_150988" data-name="Trazado 150988" d="M137.584,12.073a1.014,1.014,0,0,1-1.018-.994c0-.185-.015-4.554,5.606-6.211,6.718-1.983,22.974,3.966,23.663,4.22a1.018,1.018,0,0,1-.7,1.911c-.163-.061-16.311-5.972-22.382-4.179-4.087,1.206-4.146,4.111-4.146,4.234a1.023,1.023,0,0,1-1.011,1.019Z" transform="translate(22.541 0.737)" fill="#2f3f4f"/>
            <path id="Trazado_150989" data-name="Trazado 150989" d="M82.885,178.711l16.79-68.9h91.973l2.406,82.8L82.885,190.2Z" transform="translate(13.681 18.125)" fill="#44a38c"/>
            <path id="Trazado_150990" data-name="Trazado 150990" d="M207.917,540.657h-64.67L115.455,340.233l7.954-138.041.128-2.138.449-7.653.128-2.138,1.668-29.074L187.073,133.4s1.646,24.286,3.784,56.29c.043.706.107,1.411.15,2.138.17,2.522.341,5.067.513,7.653.042.706.085,1.411.149,2.138,2.074,31.063,6.419,67.043,8.129,94.793,3.742,61.463,8.119,244.249,8.119,244.249" transform="translate(19.057 22.018)" fill="#44a38c"/>
            <path id="Trazado_150991" data-name="Trazado 150991" d="M88.488,169.573s-15.5,63.334-20.309,110.9S48.938,532.74,48.938,532.74h61.731s29.662-164.615,38.749-214.319S161.71,214.2,161.71,201.373s-3.869-36.2-3.869-36.2Z" transform="translate(8.078 27.262)" fill="#44a38c"/>
            <path id="Trazado_150992" data-name="Trazado 150992" d="M191.843,192.254l-68.262.578-9.149.085-.022-2.138,9.3-.086,67.985-.577c.042.706.085,1.411.149,2.138" transform="translate(18.884 31.38)" fill="#2f3f4f"/>
            <path id="Trazado_150993" data-name="Trazado 150993" d="M191.956,183.849l-67.022.577-15.2.128-.022-2.137,15.351-.128,66.743-.578c.043.706.107,1.411.15,2.138" transform="translate(18.109 29.993)" fill="#2f3f4f"/>
            <path id="Trazado_150994" data-name="Trazado 150994" d="M104.379,185.979,78.34,217.658s-5.131-3.889-12.623-9.65c-2.911-2.239-6.21-4.785-9.691-7.492C37.437,186.061,13.291,166.841,8.852,161.08.485,150.228-3.017,135.06,3.07,120.849a41.015,41.015,0,0,1,18.141-19.87l21.54,29.44,42.225,38.072,9.08,8.185Z" transform="translate(0 16.667)" fill="#f9b3a2"/>
            <path id="Trazado_150995" data-name="Trazado 150995" d="M123.943,192.051a17.053,17.053,0,0,1-1.326,7.2,13.646,13.646,0,0,1-.92,1.967,15.607,15.607,0,0,1-5.6,6.306,13.717,13.717,0,0,1-2.054,1.155,26.683,26.683,0,0,1-5.9,2.138c-9.341,2.266-18.834-5.088-25.248-3.357s-10.56,2.031-14.343-.855c-3.805-2.886-9.171-20.929-9.171-20.929l27.385-17.787s17.38,3.762,23.645,7.91c4.019,2.652,9.15,5.709,11.63,9.749a12.309,12.309,0,0,1,1.5,3.656,11.542,11.542,0,0,1,.408,2.843" transform="translate(9.801 27.712)" fill="#f9b3a2"/>
            <path id="Trazado_150996" data-name="Trazado 150996" d="M118.444,190.255c-1.049-.727-2.267-1.539-3.614-2.437-7.589-5-21.058-6.883-21.206-6.905a1.09,1.09,0,0,1-.92-1.2,1.053,1.053,0,0,1,1.219-.919c.557.085,14.088,1.967,22.084,7.247.727.471,1.39.919,2.031,1.369a11.545,11.545,0,0,1,.408,2.843" transform="translate(15.3 29.509)" fill="#2f3f4f"/>
            <path id="Trazado_150997" data-name="Trazado 150997" d="M117.659,196.219a13.639,13.639,0,0,1-.919,1.967,39.792,39.792,0,0,0-9.3-5,84.431,84.431,0,0,0-17.146-4.769,1.067,1.067,0,0,1-.855-1.24,1.037,1.037,0,0,1,1.241-.855,86.512,86.512,0,0,1,17.573,4.875,41.989,41.989,0,0,1,9.407,5.024" transform="translate(14.76 30.75)" fill="#2f3f4f"/>
            <path id="Trazado_150998" data-name="Trazado 150998" d="M111.366,203.059a13.647,13.647,0,0,1-2.053,1.155,39.032,39.032,0,0,0-20.266-7.1,1.071,1.071,0,1,1,.128-2.138,40.955,40.955,0,0,1,22.191,8.081" transform="translate(14.532 32.182)" fill="#2f3f4f"/>
            <path id="Trazado_150999" data-name="Trazado 150999" d="M124.065,384.945a.912.912,0,0,1-.126-.008,1.017,1.017,0,0,1-.885-1.135q3.5-28.252,6.877-56.523l1.05-8.733c3.031-25.147,6.165-51.148,7.106-76.781q.215-5.91.4-11.824c.155-4.722.31-9.444.492-14.164l.926-24.273a1.043,1.043,0,0,1,1.057-.979,1.016,1.016,0,0,1,.977,1.054l-.927,24.276c-.179,4.716-.334,9.435-.489,14.151q-.2,5.916-.4,11.833c-.943,25.715-4.082,51.761-7.119,76.95l-1.049,8.731q-3.376,28.272-6.88,56.531a1.017,1.017,0,0,1-1.009.892" transform="translate(20.31 31.448)" fill="#2f3f4f"/>
            <path id="Trazado_151000" data-name="Trazado 151000" d="M135.758,269.935l-.713-1.907c.1-.037,9.948-3.862,11.443-14.33,1.575-11.023,1.418-61.576,1.416-62.085l2.037-.008c.007,2.085.16,51.211-1.435,62.378-1.671,11.691-12.3,15.783-12.747,15.952" transform="translate(22.29 31.626)" fill="#2f3f4f"/>
            <path id="Trazado_151001" data-name="Trazado 151001" d="M109.846,125.089l-8.531.213-1.6-60.116c2.737-.278,5.6-.471,8.531-.62Z" transform="translate(16.458 10.657)" fill="#44a38c"/>
            <path id="Trazado_151002" data-name="Trazado 151002" d="M174.813,67.617l-1.262,67.792L165,135.238l1.283-68.56c3.1.3,5.986.62,8.531.939" transform="translate(27.235 11.006)" fill="#44a38c"/>
            <path id="Trazado_151003" data-name="Trazado 151003" d="M108.794,115.424a3.741,3.741,0,1,0-3.741,3.741,3.741,3.741,0,0,0,3.741-3.741" transform="translate(16.722 18.434)" fill="#fff"/>
            <path id="Trazado_151004" data-name="Trazado 151004" d="M173.483,115.424a3.742,3.742,0,1,0-3.741,3.741,3.741,3.741,0,0,0,3.741-3.741" transform="translate(27.4 18.434)" fill="#fff"/>
            <path id="Trazado_151005" data-name="Trazado 151005" d="M200.532,499.41l-7.37,8.958a1.011,1.011,0,0,1-.793.366.923.923,0,0,1-.631-.224.989.989,0,0,1-.143-1.425l7.187-8.734c.408.224.814.489,1.242.754.163.1.346.2.509.305" transform="translate(31.585 82.257)" fill="#fff"/>
            <path id="Trazado_151006" data-name="Trazado 151006" d="M206.7,503.223l-7.39,8.978a1,1,0,0,1-1.446.143,1,1,0,0,1-.122-1.425l7.228-8.775c.57.366,1.139.713,1.73,1.079" transform="translate(32.6 82.883)" fill="#fff"/>
            <path id="Trazado_151007" data-name="Trazado 151007" d="M62.83,510.455a1,1,0,0,1-.9.529.9.9,0,0,1-.488-.142l-15.067-8.449c.509-.529,1.018-1.018,1.487-1.506l14.577,8.185a1.029,1.029,0,0,1,.387,1.384" transform="translate(7.655 82.675)" fill="#fff"/>
            <path id="Trazado_151008" data-name="Trazado 151008" d="M57.569,515.082a1.006,1.006,0,0,1-.875.509,1.16,1.16,0,0,1-.509-.122l-14.577-8.185c.488-.509.976-1.018,1.485-1.506l14.089,7.92a1.006,1.006,0,0,1,.387,1.384" transform="translate(6.868 83.483)" fill="#fff"/>
            <path id="Trazado_151009" data-name="Trazado 151009" d="M208.219,244.021a2.031,2.031,0,0,1-1.312-.479c-.471-.4-47.375-40.18-69.92-81.125-29.613-53.787-36.747-97.168-36.816-97.6a2.036,2.036,0,0,1,4.022-.64c.068.426,7.114,43.156,36.36,96.276,22.177,40.275,68.514,79.584,68.978,79.975a2.036,2.036,0,0,1-1.313,3.593" transform="translate(16.53 10.309)" fill="#ffcfa6"/>
            <path id="Trazado_151010" data-name="Trazado 151010" d="M86.119,167.111l-28.34,31.333c-2.911-2.239-6.21-4.785-9.691-7.493l28.951-32.025Z" transform="translate(7.937 26.232)" fill="#a66353"/>
            <path id="Trazado_151011" data-name="Trazado 151011" d="M76.378,174.919a8.78,8.78,0,1,0-8.78,8.78,8.78,8.78,0,0,0,8.78-8.78" transform="translate(9.708 27.423)" fill="#fff"/>
            <path id="Trazado_151096" data-name="Trazado 151096" d="M108.662,79.822a2.293,2.293,0,0,0,.6-.132c.095-.029.179-.072.269-.107a2.767,2.767,0,0,0,.254-.128,3.783,3.783,0,0,0,.891-.686l.185-.193-.075-.176c-.736-1.735-1.49-3.463-2.334-5.156.517,1.82,1.123,3.605,1.747,5.384l.11-.369a3.778,3.778,0,0,0-.937.622,2.7,2.7,0,0,0-.2.2c-.063.074-.131.139-.188.22a2.294,2.294,0,0,0-.317.522" transform="translate(62.812 -40.362)" fill="#af593c"/>
            <g id="Grupo_165664" data-name="Grupo 165664" transform="translate(170.024 37.998)" opacity="0.5">
              <g id="Grupo_161778" data-name="Grupo 161778" transform="translate(0 0)">
                <g id="Grupo_161777" data-name="Grupo 161777" clip-path="url(#clip-path-2)">
                  <path id="Trazado_142708" data-name="Trazado 142708" d="M113.067,88.532l-3.156,1.245,1.54.232Z" transform="translate(-109.911 -88.532)" fill="#af593c"/>
                </g>
              </g>
            </g>
            <path id="Trazado_151097" data-name="Trazado 151097" d="M99.719,71.813l-.091.364c-.034.112-.069.245-.124.4a5.088,5.088,0,0,1-.2.489,4.122,4.122,0,0,1-.3.527,3.013,3.013,0,0,1-.415.5,1.923,1.923,0,0,1-.532.368,1.221,1.221,0,0,1-.3.1c-.052.007-.1.024-.153.026l-.077,0-.039,0h-.012l-.2-.011c-.065,0-.092-.02-.14-.026a1.251,1.251,0,0,1-.29-.1,1.962,1.962,0,0,1-.531-.369,3.05,3.05,0,0,1-.415-.5,4.854,4.854,0,0,1-.3-.527,5.176,5.176,0,0,1-.2-.489c-.055-.15-.09-.286-.124-.4l-.092-.361-.017.1a2.8,2.8,0,0,0-.042.277,3.046,3.046,0,0,0-.01.438,2.921,2.921,0,0,0,.071.573,2.872,2.872,0,0,0,.215.662,2.643,2.643,0,0,0,.422.679,2.22,2.22,0,0,0,.691.568,1.936,1.936,0,0,0,.454.176c.082.018.185.043.253.049l.2.017h.058l.031,0,.062-.005.123-.011a2.347,2.347,0,0,0,.24-.049,1.961,1.961,0,0,0,.447-.174,2.242,2.242,0,0,0,.69-.568,2.655,2.655,0,0,0,.422-.679,2.891,2.891,0,0,0,.215-.662,2.949,2.949,0,0,0,.071-.573,3.1,3.1,0,0,0-.01-.441c-.008-.12-.033-.211-.041-.275l-.017-.1" transform="translate(78.338 -39.41)" fill="#1b262c"/>
            <path id="Trazado_151098" data-name="Trazado 151098" d="M138.239,74.619l-.091.364c-.034.113-.069.246-.124.4a4.97,4.97,0,0,1-.2.489,4.094,4.094,0,0,1-.3.527,3.014,3.014,0,0,1-.415.5,1.924,1.924,0,0,1-.532.368,1.236,1.236,0,0,1-.3.105c-.052.007-.1.023-.153.026l-.077,0-.039,0H136l-.2-.011c-.065,0-.092-.02-.14-.026a1.25,1.25,0,0,1-.29-.1,1.962,1.962,0,0,1-.531-.369,3.037,3.037,0,0,1-.415-.5,2.617,2.617,0,0,1-.161-.265,2.7,2.7,0,0,1-.137-.262,5.145,5.145,0,0,1-.2-.489c-.055-.15-.09-.286-.124-.4l-.092-.361-.017.1a2.8,2.8,0,0,0-.041.277,3.051,3.051,0,0,0-.01.438,2.915,2.915,0,0,0,.071.573,2.863,2.863,0,0,0,.215.662,2.643,2.643,0,0,0,.422.679,2.226,2.226,0,0,0,.691.568,1.928,1.928,0,0,0,.454.175,2.539,2.539,0,0,0,.253.049l.2.017h.058l.031,0,.062-.005.123-.011a2.27,2.27,0,0,0,.24-.049,1.961,1.961,0,0,0,.447-.174,2.24,2.24,0,0,0,.69-.568,2.671,2.671,0,0,0,.422-.679,2.905,2.905,0,0,0,.215-.662,2.948,2.948,0,0,0,.071-.573,3.093,3.093,0,0,0-.01-.441c-.008-.12-.033-.211-.041-.275l-.017-.1" transform="translate(26.925 -41.277)" fill="#1b262c"/>
          </g>
        </g>
      </g>
    </g>
    <g id="Grupo_173522" data-name="Grupo 173522" transform="translate(252.104 1570.251)">
      <rect id="Rectángulo_44603" data-name="Rectángulo 44603" width="159.862" height="44.518" rx="22" transform="translate(0)" fill="#3c3fa7"/>
      <path id="Trazado_177686" data-name="Trazado 177686" d="M43.921,21.261q-.088-.513-.168-1.318T43.6,18.111q-.073-1.025-.117-2.227t-.044-2.52q0-.381.007-1.033t.037-1.465q.029-.813.1-1.721t.168-1.8q.1-.894.271-1.707a10.335,10.335,0,0,1,.4-1.436,3.278,3.278,0,0,1,.535-.989.9.9,0,0,1,.7-.366,1.6,1.6,0,0,1,.417.073,1.505,1.505,0,0,1,.491.249,1.525,1.525,0,0,1,.4.469,1.451,1.451,0,0,1,.168.732,20.419,20.419,0,0,1-.11,2.131q-.11,1.047-.2,1.875a10.435,10.435,0,0,0-.073,1.34q.015.513.264.513.059,0,.161-.366t.249-.959q.146-.593.359-1.355T48.271,6q.278-.791.623-1.553a7.36,7.36,0,0,1,.784-1.355,4.253,4.253,0,0,1,.959-.959,1.953,1.953,0,0,1,1.15-.366,1.618,1.618,0,0,1,1.113.4,3.034,3.034,0,0,1,.747,1.069A7.013,7.013,0,0,1,54.1,4.752q.161.85.249,1.729t.125,1.729q.037.85.066,1.516t.088,1.069q.059.4.205.4.088,0,.286-.535t.52-1.333q.322-.8.762-1.729a11.909,11.909,0,0,1,1-1.729,6.237,6.237,0,0,1,1.23-1.333A2.289,2.289,0,0,1,60.078,4a1.744,1.744,0,0,1,1.663,1.34,12.547,12.547,0,0,1,.505,4.138q0,1.289-.073,2.959T62.07,16q-.029,1.89.044,3.933A40.391,40.391,0,0,0,62.466,24a.7.7,0,0,1-.044.388.618.618,0,0,1-.212.249.866.866,0,0,1-.33.132,2.09,2.09,0,0,1-.4.037,1.8,1.8,0,0,1-1.23-.41,2.746,2.746,0,0,1-.732-1.069,5.963,5.963,0,0,1-.366-1.472,15.214,15.214,0,0,1-.117-1.633q-.015-.82.022-1.553t.037-1.216q0-.806.037-1.692t.081-1.75q.044-.864.073-1.648t.007-1.377a5.91,5.91,0,0,0-.1-.945q-.073-.352-.249-.352-.205,0-.557.513a11.587,11.587,0,0,0-.754,1.311q-.4.8-.835,1.772t-.791,1.9q-.359.93-.623,1.707a8.913,8.913,0,0,0-.337,1.187,2.879,2.879,0,0,1-.081.359,2.67,2.67,0,0,1-.19.491,1.888,1.888,0,0,1-.3.439.557.557,0,0,1-.425.19.7.7,0,0,1-.454-.183,2.345,2.345,0,0,1-.4-.425,3.308,3.308,0,0,1-.286-.461l-.139-.278a4.35,4.35,0,0,1-.249-.886q-.117-.593-.227-1.377t-.22-1.685q-.11-.9-.212-1.794l-.2-1.721q-.1-.828-.19-1.458T51.3,8.282q-.1-.381-.2-.381t-.366.52q-.249.52-.579,1.414t-.71,2.073q-.381,1.179-.762,2.483t-.725,2.673q-.344,1.37-.593,2.629t-.388,2.344a10.1,10.1,0,0,0-.1,1.831q.015.176.015.439a2.138,2.138,0,0,1-.059.505,1,1,0,0,1-.2.41.493.493,0,0,1-.4.168,1.139,1.139,0,0,1-.7-.264,2.685,2.685,0,0,1-.652-.791,6.656,6.656,0,0,1-.557-1.3A11.9,11.9,0,0,1,43.921,21.261Zm29.707.967a3.4,3.4,0,0,1,.044,1.025,2.047,2.047,0,0,1-.212.718,1.074,1.074,0,0,1-.388.417.96.96,0,0,1-.5.139.871.871,0,0,1-.608-.234,2.016,2.016,0,0,1-.432-.579,4.247,4.247,0,0,1-.293-.747q-.117-.4-.205-.747t-.154-.579q-.066-.234-.154-.234a.589.589,0,0,0-.388.212,5.634,5.634,0,0,0-.461.535q-.249.322-.549.7a5.324,5.324,0,0,1-.674.7,3.586,3.586,0,0,1-.828.535,2.322,2.322,0,0,1-1,.212,2.4,2.4,0,0,1-1.362-.41,3.667,3.667,0,0,1-1.055-1.1,5.673,5.673,0,0,1-.681-1.582,7.094,7.094,0,0,1-.242-1.86,9.246,9.246,0,0,1,.19-1.794,11.857,11.857,0,0,1,.549-1.9,10.556,10.556,0,0,1,.894-1.809,7.76,7.76,0,0,1,1.23-1.531A5.7,5.7,0,0,1,67.9,11.241a4.319,4.319,0,0,1,1.846-.4,3.329,3.329,0,0,1,1.406.271,2.878,2.878,0,0,1,.989.74,3.7,3.7,0,0,1,.645,1.1,7.54,7.54,0,0,1,.374,1.355,12.262,12.262,0,0,1,.176,1.5q.044.776.044,1.538t.022,1.479q.022.732.051,1.384t.081,1.172Q73.584,21.905,73.628,22.228Zm-7.222-2.314A2.026,2.026,0,0,0,66.648,21q.242.381.447.381a1.325,1.325,0,0,0,.791-.293,4.258,4.258,0,0,0,.776-.769,7.67,7.67,0,0,0,.71-1.069,11.634,11.634,0,0,0,.579-1.194,9.61,9.61,0,0,0,.4-1.135,3.52,3.52,0,0,0,.146-.9q0-.015-.007-.161t-.037-.359q-.029-.212-.088-.461a1.932,1.932,0,0,0-.176-.469,1.125,1.125,0,0,0-.293-.359.663.663,0,0,0-.425-.139,1.185,1.185,0,0,0-.754.308,3.7,3.7,0,0,0-.71.813,8.53,8.53,0,0,0-.63,1.135,11.444,11.444,0,0,0-.505,1.282,11.562,11.562,0,0,0-.337,1.26A5.334,5.334,0,0,0,66.406,19.913Zm8.408,3.34a3.979,3.979,0,0,1-.1-.71q-.044-.52-.066-1.23t-.029-1.531q-.007-.82-.007-1.6t.007-1.443q.007-.667.007-1.062a8.491,8.491,0,0,1,.073-1.04,4.885,4.885,0,0,1,.264-1.1,2.765,2.765,0,0,1,.505-.872,1.032,1.032,0,0,1,.813-.359.784.784,0,0,1,.579.2,1.492,1.492,0,0,1,.308.439q.11.242.183.439t.22.2a.6.6,0,0,0,.352-.22q.205-.205.469-.447a4.412,4.412,0,0,1,.593-.454,3.648,3.648,0,0,1,.732-.359,2.576,2.576,0,0,1,.886-.146,2.7,2.7,0,0,1,1.15.242,2.8,2.8,0,0,1,.886.637,2.969,2.969,0,0,1,.571.894,2.633,2.633,0,0,1,.205,1.011,3.292,3.292,0,0,1-.044.542,1.482,1.482,0,0,1-.161.476.928.928,0,0,1-.33.344,1.06,1.06,0,0,1-.564.132.954.954,0,0,1-.667-.2,2.051,2.051,0,0,1-.359-.439,3.367,3.367,0,0,0-.315-.439.646.646,0,0,0-.52-.2,1.519,1.519,0,0,0-1.084.549,5.1,5.1,0,0,0-.93,1.436,10.131,10.131,0,0,0-.652,2.021,10.8,10.8,0,0,0-.249,2.322,6.96,6.96,0,0,1-.117,1.377,3.277,3.277,0,0,1-.322.938,1.4,1.4,0,0,1-.469.527,1.076,1.076,0,0,1-.571.161,1.034,1.034,0,0,1-.469-.1,1.369,1.369,0,0,1-.359-.256,1.538,1.538,0,0,1-.256-.337A2.367,2.367,0,0,1,74.814,23.253ZM87.866,6.817q-.015.176-.029.286a.364.364,0,0,0,.015.183.178.178,0,0,0,.117.1.957.957,0,0,0,.278.029H88.4a1.638,1.638,0,0,0,.2-.015q.5-.029.974-.051t.974-.022q.527,0,1.238.029a8.777,8.777,0,0,1,1.34.154,3.566,3.566,0,0,1,1.069.374.763.763,0,0,1,.439.688.9.9,0,0,1-.2.564,1.533,1.533,0,0,1-.623.439,4.563,4.563,0,0,1-1.106.286,11.165,11.165,0,0,1-1.633.1q-.322,0-.688.029l-.725.059q-.359.029-.7.066t-.608.051a.6.6,0,0,0-.469.242,1.176,1.176,0,0,0-.176.579q-.1,1.6-.154,3.164t-.037,3q.015,1.436.11,2.688a21.082,21.082,0,0,0,.271,2.2q.132.63.286,1.128a8.422,8.422,0,0,1,.227.879,1.312,1.312,0,0,1-.015.652.847.847,0,0,1-.439.461,1.273,1.273,0,0,1-.571.146,1.251,1.251,0,0,1-.725-.227,2.9,2.9,0,0,1-.586-.535,4.056,4.056,0,0,1-.425-.608q-.168-.3-.227-.432a6.174,6.174,0,0,1-.388-1.428q-.154-.9-.242-2.014t-.125-2.344q-.037-1.23-.037-2.424t.029-2.256q.029-1.062.073-1.809a2.192,2.192,0,0,0,.015-.41q-.015-.073-.322-.073h-.352a2.035,2.035,0,0,1-1.187-.308.9.9,0,0,1-.439-.747.764.764,0,0,1,.146-.454,1.706,1.706,0,0,1,.4-.388,3.817,3.817,0,0,1,.6-.344q.344-.161.74-.322a1.25,1.25,0,0,0,.425-.271.871.871,0,0,0,.176-.535q.029-.557.088-1.179t.139-1.223q.081-.6.2-1.143a8.065,8.065,0,0,1,.264-.959,2.3,2.3,0,0,1,.337-.659.531.531,0,0,1,.41-.242,1.583,1.583,0,0,1,.439.073,1.811,1.811,0,0,1,.483.227,1.49,1.49,0,0,1,.41.41,1.354,1.354,0,0,1,.22.608q.015.117.022.483t.007.857q0,.491-.022,1.062T87.866,6.817Zm1.758,12.993q0-.513-.022-1.362t-.015-1.816q.007-.967.073-1.956a14.651,14.651,0,0,1,.22-1.787,4.327,4.327,0,0,1,.439-1.3.843.843,0,0,1,.74-.505,1.867,1.867,0,0,1,.872.168,1.076,1.076,0,0,1,.447.769,6.652,6.652,0,0,1,.1.74q.037.447.037,1.077,0,.337.015,1.143t.022,1.831q.007,1.025.015,2.146t-.007,2.117q-.015,1-.059,1.729a5,5,0,0,1-.117.967.472.472,0,0,1-.234.271,1.734,1.734,0,0,1-.359.146,1.924,1.924,0,0,1-.352.066q-.168.015-.227.015a.88.88,0,0,1-.688-.344,2.8,2.8,0,0,1-.491-.952,7.766,7.766,0,0,1-.3-1.421A13.892,13.892,0,0,1,89.624,19.811Zm.293-14.546a2.816,2.816,0,0,1,.11-.8,1.908,1.908,0,0,1,.33-.652,1.48,1.48,0,0,1,.557-.432,1.851,1.851,0,0,1,.776-.154,2.154,2.154,0,0,1,.608.088,1.4,1.4,0,0,1,.535.293,1.529,1.529,0,0,1,.381.527,1.948,1.948,0,0,1,.146.806,2.24,2.24,0,0,1-.161.879,1.74,1.74,0,0,1-.439.63,1.86,1.86,0,0,1-.637.374,2.241,2.241,0,0,1-.74.125,1.5,1.5,0,0,1-.74-.161,1.28,1.28,0,0,1-.447-.4,1.476,1.476,0,0,1-.22-.542A3.021,3.021,0,0,1,89.917,5.265Zm4.116,8.965a2.366,2.366,0,0,1,.117-.667,3.058,3.058,0,0,1,.337-.74,2.278,2.278,0,0,1,.542-.6,1.281,1.281,0,0,1,1.34-.11.874.874,0,0,1,.344.4,1.96,1.96,0,0,1,.146.645q.029.381.029.85,0,.894.278.894.146,0,.293-.22l.615-.923a6.833,6.833,0,0,1,.82-1,4.693,4.693,0,0,1,1.077-.813,2.838,2.838,0,0,1,1.4-.337,2.087,2.087,0,0,1,1.274.359,2.236,2.236,0,0,1,.74,1.025,5.43,5.43,0,0,1,.315,1.6,15.051,15.051,0,0,1-.029,2.08q-.073.981-.088,2.5t.117,3.75a1.776,1.776,0,0,1-.022.417,1.4,1.4,0,0,1-.139.425,1.123,1.123,0,0,1-.264.337.605.605,0,0,1-.41.139,1.667,1.667,0,0,1-1.208-.417,2.621,2.621,0,0,1-.645-1,4.534,4.534,0,0,1-.264-1.187q-.051-.608-.051-.974,0-.645.051-1.157t.1-1q.051-.483.1-.959a9.677,9.677,0,0,0,.051-1.033,6.734,6.734,0,0,0-.037-.784,2,2,0,0,0-.1-.469.5.5,0,0,0-.146-.227.265.265,0,0,0-.154-.059,1,1,0,0,0-.579.337,7.547,7.547,0,0,0-.769.864q-.41.527-.835,1.165t-.776,1.223a3.393,3.393,0,0,0-.256.586q-.1.293-.125.425a4.825,4.825,0,0,0-.044.725v.945q0,.5-.022,1a5.027,5.027,0,0,1-.117.916,1.957,1.957,0,0,1-.271.667.569.569,0,0,1-.5.256h-.293a1.356,1.356,0,0,1-.439-.081,2.259,2.259,0,0,1-.439-.205,2.16,2.16,0,0,1-.374-.286,1.069,1.069,0,0,1-.242-.322,4.325,4.325,0,0,1-.242-.974q-.1-.623-.154-1.4T94.019,19.2Q94,18.331,94,17.511q0-1.025.015-1.9T94.033,14.229Z" transform="translate(6.087 6.071)" fill="#ffd947"/>
    </g>
  </g>
</svg>
