<svg xmlns="http://www.w3.org/2000/svg" xmlns:xlink="http://www.w3.org/1999/xlink" width="295" height="609.508" viewBox="0 0 295 609.508">
  <defs>
    <clipPath id="clip-path">
      <rect id="Rectángulo_44636" data-name="Rectángulo 44636" width="207.201" height="609.508" fill="none"/>
    </clipPath>
    <clipPath id="clip-path-2">
      <rect id="Rectángulo_38703" data-name="Rectángulo 38703" width="3.182" height="1.49" fill="none"/>
    </clipPath>
  </defs>
  <g id="Grupo_173528" data-name="Grupo 173528" transform="translate(-1114.326 -1303)">
    <g id="Grupo_173521" data-name="Grupo 173521" transform="translate(23 -7.748)">
      <g id="Grupo_172676" data-name="Grupo 172676" transform="translate(0.326 -355)">
        <path id="Trazado_177276" data-name="Trazado 177276" d="M0,0H295V557H0Z" transform="translate(1091 1707)" fill="none"/>
        <g id="Grupo_172620" data-name="Grupo 172620" transform="translate(1108.28 1665.748)">
          <g id="Grupo_157493" data-name="Grupo 157493" transform="translate(-0.001)">
            <path id="Trazado_114544" data-name="Trazado 114544" d="M198.605,552.231c35.813-16.292,72.953-38.275,87.377-75.039,16.007-40.8-.748-86.494-.345-130.351.32-34.744,11.517-68.3,20.327-101.893s15.281-69.294,6.191-102.816c-6.085-22.44-19.01-42.745-35.7-58.856C247.075,54.9,204.739,39.553,164.515,46.042S87.747,82.095,75.988,121.312c-16.66,55.563,15.884,114.875,8.967,172.49-2.706,22.544-11.368,43.863-17.242,65.79a270.917,270.917,0,0,0-9.2,71.579c.22,36.983,9.542,76.442,36.982,101.071C123.17,557.085,164.36,567.811,198.605,552.231Z" transform="translate(-58.504 -44.565)" fill="#ffdfe0"/>
            <g id="Grupo_173523" data-name="Grupo 173523" transform="translate(34.839)" clip-path="url(#clip-path)">
              <path id="Trazado_177277" data-name="Trazado 177277" d="M14.143,530.952H77.229a9.978,9.978,0,0,0,9.4-6.62,8.768,8.768,0,0,0,.4-1.316l.439-28.963.042-2.089,1.336-88.4-45.378-.73,3.592,89.127s.084,1.838.084,2.089h-.022c-.5,0-5.43,3.654-11.569,8.415-.586.439-1.17.919-1.776,1.378-.563.439-1.127.877-1.691,1.337-.626.48-1.274.981-1.922,1.5-.877.71-1.775,1.42-2.673,2.129l-1.942,1.567c-8.1,6.495-15.516,12.739-16.142,13.949-.02.042-.042.063-.042.084-.02.042-.02.084-.042.125a4.989,4.989,0,0,0,4.824,6.411" transform="translate(107.502 78.553)" fill="#f9b3a2"/>
              <path id="Trazado_177278" data-name="Trazado 177278" d="M88.486,504.51a9.978,9.978,0,0,1-9.4,6.619H16a4.988,4.988,0,0,1-4.824-6.41c.022-.042.022-.084.042-.125,0-.022.022-.042.042-.084Z" transform="translate(105.633 98.379)" fill="#2f3f4f"/>
              <path id="Trazado_177279" data-name="Trazado 177279" d="M10.205,477.42s.084,1.838.084,2.088H50.613l.042-2.088Z" transform="translate(144.351 93.097)" fill="#2f3f4f"/>
              <rect id="Rectángulo_44634" data-name="Rectángulo 44634" width="2.088" height="32.234" transform="translate(188.928 572.061)" fill="#2f3f4f"/>
              <path id="Trazado_177280" data-name="Trazado 177280" d="M93.793,530.952h75.616a9.978,9.978,0,0,0,9.4-6.62,8.768,8.768,0,0,0,.4-1.316l1.691-28.963.125-2.089,8.875-88.4-45.357-.73-5.3,89.127s.084,1.838.084,2.089v.084c-.042.082-4.762,2.714-11.319,6.41-1.086.627-2.235,1.274-3.425,1.922-1.879,1.086-3.842,2.193-5.847,3.341-.606.355-1.232.71-1.838,1.065q-1.314.753-2.63,1.5c-.69.4-1.4.815-2.089,1.212-11.443,6.6-22.3,13.177-23.117,14.743-.02.042-.042.063-.042.084-.02.042-.02.084-.041.125a4.987,4.987,0,0,0,4.823,6.411" transform="translate(-88.736 78.553)" fill="#f9b3a2"/>
              <path id="Trazado_177281" data-name="Trazado 177281" d="M188.087,504.51a9.978,9.978,0,0,1-9.4,6.619H103.074a4.986,4.986,0,0,1-4.823-6.41c.02-.042.02-.084.042-.125,0-.022.02-.042.042-.084Z" transform="translate(-98.019 98.379)" fill="#2f3f4f"/>
              <path id="Trazado_177282" data-name="Trazado 177282" d="M137.952,477.423l-.125,2.088H96.248c0-.25-.041-.939-.082-2.088Z" transform="translate(-45.669 93.097)" fill="#2f3f4f"/>
              <rect id="Rectángulo_44635" data-name="Rectángulo 44635" width="2.088" height="32.731" transform="translate(70.467 571.563)" fill="#2f3f4f"/>
              <path id="Trazado_177283" data-name="Trazado 177283" d="M118.013,78.634A50.217,50.217,0,0,0,97.575,107c-5.221,19.316-14.1,84.053-10.368,98.952,3.847,15.378,33.263,23.545,42.468-3.335s16.78-52.286,16.225-54.9-27.887-69.083-27.887-69.083" transform="translate(-41.877 15.334)" fill="#f9b3a2"/>
              <path id="Trazado_177284" data-name="Trazado 177284" d="M45.152,204.051h87.176s7.317-44.1,7.317-67.869c0-23.743,2.324-41.837-11.25-53.636C121.671,76.7,107.09,71.8,98.027,68.271c-.668-.25-1.337-.5-1.984-.752-8.354-3.132-14.869-4.948-14.869-4.948s-9.709,0-27.418,6.619A55.909,55.909,0,0,0,38.824,78.5c-.69.584-1.4,1.19-2.088,1.818-7.518,6.808-13.971,15.6-14.556,24.015-1.043,14.89,22.971,99.714,22.971,99.714" transform="translate(40.938 12.201)" fill="#f9b3a2"/>
              <path id="Trazado_177285" data-name="Trazado 177285" d="M105.664,53.266a8.738,8.738,0,0,1-.776.715,3.155,3.155,0,0,1-.388.347,4.1,4.1,0,0,1-.448.388,23.657,23.657,0,0,1-7.984,4.267,22.825,22.825,0,0,1-3.96.836A23.346,23.346,0,0,1,66.956,43.466a24.112,24.112,0,0,1-1-5.777v-.164a23.289,23.289,0,0,1,1.367-8.738l-.019-.02a24.656,24.656,0,0,1,1.244-2.818s.062-.123.184-.327a23.3,23.3,0,0,1,42.832,4.267c2.613,8.575-1.387,18.722-5.9,23.377" transform="translate(16.007 2.602)" fill="#f9b3a2"/>
              <path id="Trazado_177286" data-name="Trazado 177286" d="M70.961,31.284s-1.212,17.11,1.017,26.867c2.76,12.08,15.362,12.183,25.741,5.5s13.921-18.68,13.921-18.68-20.331-9.413-22.93-9.388-17.749-4.295-17.749-4.295" transform="translate(11.156 6.1)" fill="#f9b3a2"/>
              <path id="Trazado_177287" data-name="Trazado 177287" d="M63.617,58.851l.164,7.043.02.735v.02l.122,6.391.02.715.286,12.637L79.4,89.128l16.925-4.92L85.564,40.967,72.559,55.319Z" transform="translate(34.856 7.989)" fill="#f9b3a2"/>
              <path id="Trazado_177288" data-name="Trazado 177288" d="M81.043,62.639l.02.735v.02l.123,6.391a22.217,22.217,0,0,0,3.2-1.573c4.063-2.511,8.125-10.351,8.37-10.841a40.1,40.1,0,0,1-4.41,2.389c-2.2.98-6.431,2.553-7.309,2.879" transform="translate(17.593 11.187)" fill="#2f3f4f"/>
              <path id="Trazado_177289" data-name="Trazado 177289" d="M88.377,49.008l12.956-.271s-.459,3.366-5.842,4.178a6.411,6.411,0,0,1-7.114-3.906" transform="translate(0.257 9.504)" fill="#fff"/>
              <path id="Trazado_177290" data-name="Trazado 177290" d="M104.352,52.717a8.737,8.737,0,0,1-.776.715,3.233,3.233,0,0,1-.387.347c-.339-1.109-1.03-7.221-3.627-9.372-2.42-2.005-7.615-11.217-7.831-12.36-.98-5.411.178-2.617-2.887-5.589s-14.761-3.818-18.619-3.144c-2.9.51-4.083,1.776-4.511,2.368,2.817-5.227,6.984-9.809,13.108-11.666a24.241,24.241,0,0,1,29.724,15.933c2.613,8.574.318,18.114-4.194,22.768" transform="translate(19.026 2.542)" fill="#2f3f4f"/>
              <path id="Trazado_177291" data-name="Trazado 177291" d="M80.8,38.863c0,4.558-2.869,8.253-6.408,8.253s-6.408-3.695-6.408-8.253,2.869-8.253,6.408-8.253S80.8,34.3,80.8,38.863" transform="translate(45.159 5.969)" fill="#f9b3a2"/>
              <path id="Trazado_177292" data-name="Trazado 177292" d="M78.537,20.663a45.067,45.067,0,0,0,.382,8.039,8.6,8.6,0,0,0,2.255,4.923H98.613L97.082,22.832s-5.625-3.062-8.98-3.487-9.565,1.318-9.565,1.318" transform="translate(14.781 3.759)" fill="#2f3f4f"/>
              <path id="Trazado_177293" data-name="Trazado 177293" d="M107.962,20.471a15.127,15.127,0,0,0-3.317,6.635,16.191,16.191,0,0,0,0,6.371H94.776s-1.105-5.945,2.042-10.453,11.143-2.553,11.143-2.553" transform="translate(-13.793 3.909)" fill="#2f3f4f"/>
              <path id="Trazado_177294" data-name="Trazado 177294" d="M31.446,18.936S32.807,5.971,42.164,1.888,62.836.347,66.792,9.493c2.887,6.676,5.827,13.781,11.781,16.674S86.74,31.682,87.42,36.58l.681,4.9L61.73,43.009A21.205,21.205,0,0,1,54.989,32.4c-1.845-7.6,2.317-10.5-4.148-16.454s-16.162,4.269-16.162,4.269Z" transform="translate(81.522 0)" fill="#2f3f4f"/>
              <path id="Trazado_177295" data-name="Trazado 177295" d="M71.381,42.41a1.9,1.9,0,1,0,1.9-1.9,1.9,1.9,0,0,0-1.9,1.9" transform="translate(46.723 7.9)" fill="#fff"/>
              <path id="Trazado_177296" data-name="Trazado 177296" d="M135.5,133.3s-16.762,5.6-31.119-5.106c-10.533-7.851-22.587-23.232-22.587-23.232l-25.1,21.927L33.376,104.965s-9.5,15.119-11.016,26.355S41,195.795,41,195.795l47.191,17.5,43.909-17.5Z" transform="translate(45.082 20.468)" fill="#ffeae6"/>
              <path id="Trazado_177297" data-name="Trazado 177297" d="M0,514.615H155.68s-2.777-236.621-8.52-269.469c-3.529-20.173-10.837-39.782-15.954-51.894-3.194-7.622-5.534-12.279-5.534-12.279H34.561a132.793,132.793,0,0,0-6.954,12.279c-6.954,13.658-16.748,37.359-18.022,64.215C8.06,289.292,0,514.615,0,514.615" transform="translate(51.521 35.29)" fill="#4663ab"/>
              <path id="Trazado_177298" data-name="Trazado 177298" d="M106.666,238.9c.226-.5.644-1.44-46.649-124.846l-1.95.747c12.771,33.324,46.04,120.515,46.613,123.757l.875-.154Z" transform="translate(31.111 22.24)" fill="#2f3f4f"/>
              <path id="Trazado_177299" data-name="Trazado 177299" d="M20.48,193.253h103.6c-3.2-7.622-5.534-12.279-5.534-12.279H27.434a132.588,132.588,0,0,0-6.954,12.279" transform="translate(58.648 35.29)" fill="#2f3f4f"/>
              <path id="Trazado_177300" data-name="Trazado 177300" d="M39.161,180.974l.564,12.279.251,5.263,2.088-.084-.251-5.179-.564-12.279Z" transform="translate(118.339 35.29)" fill="#4663ab"/>
              <path id="Trazado_177301" data-name="Trazado 177301" d="M98.908,198.432l2.088.084.251-5.263.564-12.279H99.723l-.564,12.279Z" transform="translate(-12.806 35.29)" fill="#4663ab"/>
              <path id="Trazado_177302" data-name="Trazado 177302" d="M57.1,115.829l2.047.5L71.114,67.465c-.668-.251-1.337-.5-1.984-.752Z" transform="translate(67.852 13.009)" fill="#ffeae6"/>
              <path id="Trazado_177303" data-name="Trazado 177303" d="M106.642,77.721v35.27h2.089V75.9c-.69.584-1.4,1.19-2.089,1.816" transform="translate(-28.967 14.801)" fill="#ffe7cf"/>
              <path id="Trazado_177304" data-name="Trazado 177304" d="M56.179,93.762s-33.8,99-33.862,99.144c-.631,1.582,6.748,8.173,7.833,9.274,6.725,6.825,17.268,15.378,27.588,12.84,8.641-2.125,13.22-11.756,17.042-18.9,10.294-19.25,14.831-34.687,21.406-55.454.545-1.722,1.087-3.445,1.6-5.176L82.806,111.055Z" transform="translate(82.787 18.284)" fill="#f9b3a2"/>
              <path id="Trazado_177305" data-name="Trazado 177305" d="M48.476,105.629s2.026,8.207,5.3,20.151c1.023,3.718,2.151,7.769,3.4,12.071,8.625,29.946,21.989,70.834,32.284,77.141,18.753,11.485,33.872-5.743,33.872-5.743l-18.919-62.377-8.207-21.4L91.7,113.753,84.185,94.144Z" transform="translate(25.932 18.358)" fill="#f9b3a2"/>
              <path id="Trazado_177306" data-name="Trazado 177306" d="M119.178,141.992,108.85,203.025,83.939,204.38s1.465-36.545,1.907-39.155-3.212-32.107-3.212-32.107,5.394-28.278,5.743-34.892c.219-4.167,1.691-8.275,3.182-12.134a63.734,63.734,0,0,1,3.923-9.259c1.833-3.144,4.4-4.668,7.756-5.915a49.851,49.851,0,0,1,15.11-3.083c4.426-.172,12.142,16.3,12.838,18.906s-12.007,55.252-12.007,55.252" transform="translate(-22.76 13.227)" fill="#f9b3a2"/>
              <path id="Trazado_177307" data-name="Trazado 177307" d="M71.176,123.48l3.738,11.966,2.526-.793,39.03-12.383-4.511-11.716L74.037,122.582Z" transform="translate(5.675 21.558)" fill="#a66353"/>
              <path id="Trazado_177308" data-name="Trazado 177308" d="M78.152,120.718a8.744,8.744,0,1,1,8.745,8.745,8.745,8.745,0,0,1-8.745-8.745" transform="translate(18.169 21.835)" fill="#fff"/>
              <path id="Trazado_177309" data-name="Trazado 177309" d="M95.1,118.3l1.949-.748L92.66,106.131c-.39-1.018-1.565-5.878-2.812-11.025-1.792-7.4-3.822-15.793-4.976-19.048-2.133-6.013-8.745-8.4-9.023-8.494a1.044,1.044,0,0,0-.694,1.969c.06.02,5.955,2.163,7.747,7.223,1.12,3.154,3.225,11.852,4.917,18.84,1.521,6.287,2.474,10.195,2.892,11.283Z" transform="translate(21.178 13.163)" fill="#2f3f4f"/>
              <path id="Trazado_177310" data-name="Trazado 177310" d="M116.966,182.263a1.042,1.042,0,0,0,1.025-.865l16.633-95.3a1.043,1.043,0,1,0-2.055-.358l-16.633,95.3a1.044,1.044,0,0,0,1.03,1.224" transform="translate(-65.965 16.55)" fill="#2f3f4f"/>
              <path id="Trazado_177311" data-name="Trazado 177311" d="M70.057,169.116a1.068,1.068,0,0,0,.375-.069,1.047,1.047,0,0,0,.6-1.35l-14.608-37.94a1.045,1.045,0,1,0-1.95.75l14.608,37.94a1.044,1.044,0,0,0,.975.669" transform="translate(71.085 25.172)" fill="#2f3f4f"/>
              <path id="Trazado_177312" data-name="Trazado 177312" d="M114.244,169.042a1.019,1.019,0,0,0,.355-.062,1.045,1.045,0,0,0,.626-1.338c-.145-.4-14.608-40.368-15.713-45.127-.678-2.913-.253-8.841.2-15.113.269-3.777.549-7.685.613-11.256.173-9.429.989-19.885,1-19.99a1.043,1.043,0,0,0-.958-1.122,1.075,1.075,0,0,0-1.122.96c-.008.105-.832,10.621-1.005,20.113-.063,3.516-.341,7.395-.609,11.146-.459,6.436-.894,12.514-.147,15.735,1.133,4.878,15.186,43.717,15.786,45.367a1.044,1.044,0,0,0,.981.688" transform="translate(-24.089 14.631)" fill="#2f3f4f"/>
              <path id="Trazado_177313" data-name="Trazado 177313" d="M106.077,102.4l2.084-.1s-.913-18.413-1.16-22.5a10.279,10.279,0,0,0-4.255-7.288,1.045,1.045,0,0,0-1.173,1.729,8.278,8.278,0,0,1,3.345,5.685c.247,4.085,1.16,22.477,1.16,22.478" transform="translate(-21.795 14.105)" fill="#2f3f4f"/>
              <path id="Trazado_177314" data-name="Trazado 177314" d="M102.733,102.21a.854.854,0,0,0,.1,0,1.043,1.043,0,0,0,.946-1.132c-.067-.749-1.654-18.42-2.97-23.281a14.407,14.407,0,0,0-5.741-7.923,1.044,1.044,0,0,0-1.107,1.771,12.5,12.5,0,0,1,4.833,6.7c1.267,4.687,2.888,22.741,2.9,22.922a1.045,1.045,0,0,0,1.038.951" transform="translate(-8.274 13.594)" fill="#2f3f4f"/>
              <path id="Trazado_177315" data-name="Trazado 177315" d="M95.873,101.358c.035,0,.069,0,.1,0a1.047,1.047,0,0,0,.938-1.141c-.014-.134-1.324-13.431-2.492-19.833a22.472,22.472,0,0,0-6.192-11.372,1.044,1.044,0,0,0-1.421,1.531,20.692,20.692,0,0,1,5.557,10.216c1.154,6.319,2.456,19.529,2.468,19.661a1.045,1.045,0,0,0,1.038.943" transform="translate(6.939 13.402)" fill="#2f3f4f"/>
              <path id="Trazado_177316" data-name="Trazado 177316" d="M59.062,113a1.049,1.049,0,0,0,.989-.706l4.365-12.784a1.045,1.045,0,0,0-1.978-.675l-4.367,12.784a1.046,1.046,0,0,0,.652,1.325,1.033,1.033,0,0,0,.337.056" transform="translate(73.398 19.136)" fill="#2f3f4f"/>
              <path id="Trazado_177317" data-name="Trazado 177317" d="M152.033,492.367V510.43h2.088V491.155c-.688.4-1.4.815-2.088,1.212" transform="translate(-128.599 95.775)" fill="#2f3f4f"/>
              <path id="Trazado_177318" data-name="Trazado 177318" d="M73.565,492.958a1.044,1.044,0,0,0,1.044-1.034l2.245-227.1a1.045,1.045,0,0,0-1.035-1.054.983.983,0,0,0-1.054,1.034L72.521,491.9a1.044,1.044,0,0,0,1.035,1.054Z" transform="translate(43.683 51.435)" fill="#2f3f4f"/>
            </g>
          </g>
        </g>
      </g>
      <g id="Grupo_173487" data-name="Grupo 173487" transform="translate(911.326 -382)">
        <rect id="Rectángulo_44603" data-name="Rectángulo 44603" width="158" height="44" rx="22" transform="translate(249 1942)" fill="#3c3fa7"/>
        <path id="Trazado_177687" data-name="Trazado 177687" d="M48.726,1.324q.571,0,.981.747a8.209,8.209,0,0,1,.71,1.992,24.527,24.527,0,0,1,.491,2.871q.19,1.626.315,3.384t.19,3.53q.066,1.772.11,3.311t.081,2.732q.037,1.194.1,1.78a5.167,5.167,0,0,0,.125.769q.081.315.168.564t.146.476A2.089,2.089,0,0,1,52.2,24a.8.8,0,0,1-.923.894,1.831,1.831,0,0,1-1.04-.293,2.584,2.584,0,0,1-.747-.776,4.773,4.773,0,0,1-.505-1.091,8.989,8.989,0,0,1-.308-1.238,11.08,11.08,0,0,1-.146-1.238q-.037-.608-.037-1.062a1.141,1.141,0,0,0-.117-.542.5.5,0,0,0-.483-.22q-.234,0-.6.007t-.769.022q-.4.015-.82.044t-.769.059a1.6,1.6,0,0,0-.916.4,2.438,2.438,0,0,0-.623.784q-.322.718-.63,1.472t-.615,1.465q-.308.71-.615,1.348a8.783,8.783,0,0,1-.659,1.15,3.587,3.587,0,0,1-.308.388.585.585,0,0,1-.439.139,1.4,1.4,0,0,1-.623-.146,1.868,1.868,0,0,1-.527-.381,1.778,1.778,0,0,1-.359-.542A1.455,1.455,0,0,1,38.5,24a3.2,3.2,0,0,1,.146-.571q.132-.41.33-.937t.432-1.106q.234-.579.439-1.069t.344-.82q.139-.33.154-.359.161-.278.066-.425a.646.646,0,0,0-.322-.234,3.505,3.505,0,0,0-.542-.154,3.075,3.075,0,0,1-.6-.19,1.488,1.488,0,0,1-.483-.33.81.81,0,0,1-.2-.586.965.965,0,0,1,.212-.637,1.59,1.59,0,0,1,.52-.41,2.486,2.486,0,0,1,.667-.22,3.7,3.7,0,0,1,.667-.066,3.9,3.9,0,0,0,.483-.029,1.93,1.93,0,0,0,.447-.11,1.351,1.351,0,0,0,.388-.227,1.131,1.131,0,0,0,.293-.4q.352-.776.806-1.912t.967-2.424q.513-1.289,1.047-2.644t1.055-2.556q.52-1.2,1-2.146a8.767,8.767,0,0,1,.857-1.428,2.175,2.175,0,0,1,.183-.22,1.819,1.819,0,0,1,.249-.22A1.791,1.791,0,0,1,48.4,1.4.757.757,0,0,1,48.726,1.324Zm-.425,7.6q0-.7-.22-.7-.161,0-.366.454-.264.63-.535,1.34t-.535,1.428l-.52,1.414q-.256.7-.491,1.3a3.743,3.743,0,0,0-.205.652,1,1,0,0,0-.015.374.216.216,0,0,0,.117.168.53.53,0,0,0,.205.037.631.631,0,0,0,.1-.007.631.631,0,0,1,.1-.007l2.109-.146a.342.342,0,0,0,.212-.081.326.326,0,0,0,.088-.154.752.752,0,0,0,.022-.183v-.154q0-.688-.015-1.523t-.022-1.648q-.007-.813-.022-1.5T48.3,8.927Zm4.922,5.3a2.366,2.366,0,0,1,.117-.667,3.058,3.058,0,0,1,.337-.74,2.278,2.278,0,0,1,.542-.6,1.281,1.281,0,0,1,1.34-.11.874.874,0,0,1,.344.4,1.96,1.96,0,0,1,.146.645q.029.381.029.85,0,.894.278.894.146,0,.293-.22l.615-.923a6.833,6.833,0,0,1,.82-1,4.693,4.693,0,0,1,1.077-.813,2.838,2.838,0,0,1,1.4-.337,2.087,2.087,0,0,1,1.274.359,2.236,2.236,0,0,1,.74,1.025,5.43,5.43,0,0,1,.315,1.6,15.051,15.051,0,0,1-.029,2.08q-.073.981-.088,2.5t.117,3.75a1.776,1.776,0,0,1-.022.417,1.4,1.4,0,0,1-.139.425,1.123,1.123,0,0,1-.264.337.605.605,0,0,1-.41.139,1.667,1.667,0,0,1-1.208-.417,2.621,2.621,0,0,1-.645-1,4.534,4.534,0,0,1-.264-1.187q-.051-.608-.051-.974,0-.645.051-1.157t.1-1q.051-.483.1-.959a9.677,9.677,0,0,0,.051-1.033,6.734,6.734,0,0,0-.037-.784,2,2,0,0,0-.1-.469.5.5,0,0,0-.146-.227.265.265,0,0,0-.154-.059,1,1,0,0,0-.579.337,7.547,7.547,0,0,0-.769.864q-.41.527-.835,1.165T56.8,18.58a3.393,3.393,0,0,0-.256.586q-.1.293-.125.425a4.825,4.825,0,0,0-.044.725v.945q0,.5-.022,1a5.027,5.027,0,0,1-.117.916,1.957,1.957,0,0,1-.271.667.569.569,0,0,1-.5.256h-.293a1.356,1.356,0,0,1-.439-.081,2.259,2.259,0,0,1-.439-.205,2.16,2.16,0,0,1-.374-.286,1.069,1.069,0,0,1-.242-.322,4.325,4.325,0,0,1-.242-.974q-.1-.623-.154-1.4T53.208,19.2q-.015-.864-.015-1.685,0-1.025.015-1.9T53.223,14.229ZM73.862.138a.792.792,0,0,1,.652.33,2.527,2.527,0,0,1,.4.784,4.639,4.639,0,0,1,.2.945,5.49,5.49,0,0,1,.037.8q-.088,2.915-.242,5.632t-.278,5.405q-.125,2.688-.161,5.413t.1,5.654a2.469,2.469,0,0,1-.029.359,1.277,1.277,0,0,1-.11.366.845.845,0,0,1-.22.286.516.516,0,0,1-.344.117,1.159,1.159,0,0,1-.857-.33,2.365,2.365,0,0,1-.52-.806,4.832,4.832,0,0,1-.278-1q-.088-.527-.146-.937-.044-.322-.1-.623t-.1-.542a1.962,1.962,0,0,0-.117-.388q-.066-.146-.139-.146a.53.53,0,0,0-.352.19q-.19.19-.425.469t-.535.615a4.5,4.5,0,0,1-.674.615,3.736,3.736,0,0,1-.85.469A2.837,2.837,0,0,1,67.71,24a3.735,3.735,0,0,1-1.677-.359,3.583,3.583,0,0,1-1.216-.967,4.246,4.246,0,0,1-.74-1.384,5.243,5.243,0,0,1-.249-1.611,10.674,10.674,0,0,1,.176-1.9,11.45,11.45,0,0,1,.513-1.9,10.936,10.936,0,0,1,.813-1.743,7.6,7.6,0,0,1,1.062-1.436,4.776,4.776,0,0,1,1.289-.974,3.212,3.212,0,0,1,1.479-.359,2.266,2.266,0,0,1,.63.081q.278.081.513.168t.425.168a.938.938,0,0,0,.366.081.446.446,0,0,0,.33-.125.831.831,0,0,0,.19-.3,1.545,1.545,0,0,0,.088-.352q.022-.176.037-.264.088-.615.146-1.458t.11-1.787q.051-.945.11-1.926t.139-1.882q.081-.9.205-1.655a7.515,7.515,0,0,1,.3-1.252,1.177,1.177,0,0,1,.417-.5A1.139,1.139,0,0,1,73.862.138ZM66.743,20.089a1.312,1.312,0,0,0,.073.469,1.019,1.019,0,0,0,.176.308.632.632,0,0,0,.22.168.55.55,0,0,0,.22.051,1.294,1.294,0,0,0,.784-.293,4.154,4.154,0,0,0,.747-.747,7.9,7.9,0,0,0,.674-1.011,12.023,12.023,0,0,0,.549-1.091,8.14,8.14,0,0,0,.366-.989,2.717,2.717,0,0,0,.132-.688,1.6,1.6,0,0,0-.059-.41,1.223,1.223,0,0,0-.19-.4,1.106,1.106,0,0,0-.344-.308.982.982,0,0,0-.505-.125,1.291,1.291,0,0,0-.8.286,3.253,3.253,0,0,0-.688.74,6.506,6.506,0,0,0-.571,1.018,8.84,8.84,0,0,0-.425,1.128,10.62,10.62,0,0,0-.264,1.069A4.657,4.657,0,0,0,66.743,20.089Zm9.507,3.164a3.979,3.979,0,0,1-.1-.71q-.044-.52-.066-1.23t-.029-1.531q-.007-.82-.007-1.6t.007-1.443q.007-.667.007-1.062a8.491,8.491,0,0,1,.073-1.04,4.885,4.885,0,0,1,.264-1.1,2.765,2.765,0,0,1,.505-.872,1.032,1.032,0,0,1,.813-.359.784.784,0,0,1,.579.2,1.492,1.492,0,0,1,.308.439q.11.242.183.439t.22.2a.6.6,0,0,0,.352-.22q.205-.205.469-.447a4.412,4.412,0,0,1,.593-.454,3.648,3.648,0,0,1,.732-.359,2.576,2.576,0,0,1,.886-.146,2.7,2.7,0,0,1,1.15.242,2.8,2.8,0,0,1,.886.637,2.969,2.969,0,0,1,.571.894,2.633,2.633,0,0,1,.205,1.011,3.292,3.292,0,0,1-.044.542,1.482,1.482,0,0,1-.161.476.928.928,0,0,1-.33.344,1.06,1.06,0,0,1-.564.132.954.954,0,0,1-.667-.2,2.051,2.051,0,0,1-.359-.439,3.367,3.367,0,0,0-.315-.439.646.646,0,0,0-.52-.2,1.519,1.519,0,0,0-1.084.549,5.1,5.1,0,0,0-.93,1.436,10.131,10.131,0,0,0-.652,2.021,10.8,10.8,0,0,0-.249,2.322,6.96,6.96,0,0,1-.117,1.377,3.277,3.277,0,0,1-.322.938,1.4,1.4,0,0,1-.469.527,1.076,1.076,0,0,1-.571.161,1.034,1.034,0,0,1-.469-.1,1.369,1.369,0,0,1-.359-.256,1.538,1.538,0,0,1-.256-.337A2.367,2.367,0,0,1,76.25,23.253Zm17.988-8.335A4.742,4.742,0,0,1,94,16.427a5.431,5.431,0,0,1-.623,1.289,5.54,5.54,0,0,1-.886,1.04,7.407,7.407,0,0,1-1,.776,5.419,5.419,0,0,1-.989.505,2.763,2.763,0,0,1-.85.2.7.7,0,0,0-.513.168.516.516,0,0,0-.132.344.9.9,0,0,0,.088.381,2.842,2.842,0,0,0,.161.308,1.721,1.721,0,0,0,.608.557,2.586,2.586,0,0,0,1.223.22,6.969,6.969,0,0,0,.989-.088,5.582,5.582,0,0,0,1.289-.374A7.078,7.078,0,0,0,96.3,19.43a.583.583,0,0,1,.22-.176.613.613,0,0,1,.835.256,2.619,2.619,0,0,1-.044,2.329,3.758,3.758,0,0,1-.8.967,6.45,6.45,0,0,1-1.172.813,8.87,8.87,0,0,1-1.421.623,10.334,10.334,0,0,1-1.553.4,9.077,9.077,0,0,1-1.56.139,6.147,6.147,0,0,1-2.322-.417,4.646,4.646,0,0,1-1.743-1.208,5.412,5.412,0,0,1-1.091-1.934,8.181,8.181,0,0,1-.381-2.593,11.437,11.437,0,0,1,.146-1.809,11.106,11.106,0,0,1,.439-1.787,8.991,8.991,0,0,1,.732-1.633,6,6,0,0,1,1.033-1.333,4.589,4.589,0,0,1,1.34-.9,4.02,4.02,0,0,1,1.641-.33,3.471,3.471,0,0,1,1.736.4,3.338,3.338,0,0,1,1.113,1,4.031,4.031,0,0,1,.6,1.326A5.6,5.6,0,0,1,94.238,14.918Zm-5.771,2.476q0,.059.007.161a.486.486,0,0,0,.059.2.44.44,0,0,0,.154.161.542.542,0,0,0,.293.066,1.623,1.623,0,0,0,.945-.374,4.589,4.589,0,0,0,.923-.923,5.849,5.849,0,0,0,.7-1.179,2.838,2.838,0,0,0,.278-1.128,1.929,1.929,0,0,0-.044-.388,1.768,1.768,0,0,0-.139-.41.918.918,0,0,0-.264-.33.68.68,0,0,0-.432-.132,1.241,1.241,0,0,0-.806.417,4.61,4.61,0,0,0-.806,1.055,7.505,7.505,0,0,0-.615,1.392A4.522,4.522,0,0,0,88.467,17.394Zm17.7,4.834a3.4,3.4,0,0,1,.044,1.025,2.047,2.047,0,0,1-.212.718,1.074,1.074,0,0,1-.388.417.96.96,0,0,1-.5.139.871.871,0,0,1-.608-.234,2.016,2.016,0,0,1-.432-.579,4.247,4.247,0,0,1-.293-.747q-.117-.4-.205-.747t-.154-.579q-.066-.234-.154-.234a.589.589,0,0,0-.388.212,5.634,5.634,0,0,0-.461.535q-.249.322-.549.7a5.324,5.324,0,0,1-.674.7,3.586,3.586,0,0,1-.828.535,2.322,2.322,0,0,1-1,.212A2.4,2.4,0,0,1,98,23.883a3.667,3.667,0,0,1-1.055-1.1,5.673,5.673,0,0,1-.681-1.582,7.094,7.094,0,0,1-.242-1.86,9.246,9.246,0,0,1,.19-1.794,11.857,11.857,0,0,1,.549-1.9,10.556,10.556,0,0,1,.894-1.809,7.76,7.76,0,0,1,1.23-1.531,5.7,5.7,0,0,1,1.545-1.062,4.319,4.319,0,0,1,1.846-.4,3.329,3.329,0,0,1,1.406.271,2.878,2.878,0,0,1,.989.74,3.7,3.7,0,0,1,.645,1.1,7.54,7.54,0,0,1,.374,1.355,12.262,12.262,0,0,1,.176,1.5q.044.776.044,1.538t.022,1.479q.022.732.051,1.384t.081,1.172Q106.118,21.905,106.162,22.228ZM98.94,19.913A2.026,2.026,0,0,0,99.182,21q.242.381.447.381a1.325,1.325,0,0,0,.791-.293,4.258,4.258,0,0,0,.776-.769,7.67,7.67,0,0,0,.71-1.069,11.634,11.634,0,0,0,.579-1.194,9.61,9.61,0,0,0,.4-1.135,3.52,3.52,0,0,0,.146-.9q0-.015-.007-.161t-.037-.359q-.029-.212-.088-.461a1.932,1.932,0,0,0-.176-.469,1.125,1.125,0,0,0-.293-.359.663.663,0,0,0-.425-.139,1.185,1.185,0,0,0-.754.308,3.7,3.7,0,0,0-.71.813,8.53,8.53,0,0,0-.63,1.135,11.444,11.444,0,0,0-.505,1.282,11.562,11.562,0,0,0-.337,1.26A5.334,5.334,0,0,0,98.94,19.913Z" transform="translate(255 1948)" fill="#ffd947"/>
      </g>
    </g>
    <g id="Grupo_173526" data-name="Grupo 173526" transform="translate(1 1.16)">
      <path id="Trazado_177324" data-name="Trazado 177324" d="M110.663,79.875a2.312,2.312,0,0,1-.6-.133c-.1-.029-.18-.073-.271-.108a2.792,2.792,0,0,1-.256-.129,3.815,3.815,0,0,1-.9-.691l-.187-.195.075-.178c.742-1.749,1.5-3.491,2.353-5.2-.521,1.835-1.132,3.635-1.762,5.427L109,78.3a3.809,3.809,0,0,1,.945.627,2.729,2.729,0,0,1,.2.2c.063.074.132.14.19.221a2.313,2.313,0,0,1,.32.527" transform="translate(1150.351 1277.063)" fill="#af593c"/>
      <g id="Grupo_173525" data-name="Grupo 173525" transform="translate(1259.294 1355.466)" opacity="0.5">
        <g id="Grupo_161778" data-name="Grupo 161778" transform="translate(0 0)">
          <g id="Grupo_161777" data-name="Grupo 161777" clip-path="url(#clip-path-2)">
            <path id="Trazado_142708" data-name="Trazado 142708" d="M109.911,88.532l3.182,1.255-1.552.234Z" transform="translate(-109.911 -88.532)" fill="#af593c"/>
          </g>
        </g>
      </g>
    </g>
    <path id="Trazado_177325" data-name="Trazado 177325" d="M95.186,71.813l.082.327c.031.1.062.22.111.356a4.573,4.573,0,0,0,.178.44,3.7,3.7,0,0,0,.268.474,2.708,2.708,0,0,0,.373.446,1.728,1.728,0,0,0,.478.331,1.1,1.1,0,0,0,.266.094c.046.007.091.021.138.023l.07,0,.035,0H97.2l.181-.01c.058,0,.082-.018.126-.023a1.125,1.125,0,0,0,.261-.092,1.764,1.764,0,0,0,.477-.331,2.742,2.742,0,0,0,.373-.446,4.361,4.361,0,0,0,.268-.474,4.65,4.65,0,0,0,.178-.439c.049-.135.081-.257.112-.359l.082-.325.015.087a2.518,2.518,0,0,1,.037.249,2.738,2.738,0,0,1,.009.394,2.626,2.626,0,0,1-.063.515,2.58,2.58,0,0,1-.193.6,2.376,2.376,0,0,1-.38.611,2,2,0,0,1-.621.51,1.74,1.74,0,0,1-.408.158c-.074.016-.166.039-.227.044l-.18.015h-.052l-.028,0-.055,0-.11-.01a2.111,2.111,0,0,1-.216-.044,1.763,1.763,0,0,1-.4-.156,2.015,2.015,0,0,1-.62-.51,2.386,2.386,0,0,1-.379-.61,2.6,2.6,0,0,1-.193-.595,2.651,2.651,0,0,1-.063-.515,2.78,2.78,0,0,1,.009-.4c.007-.108.03-.19.037-.247l.015-.087" transform="translate(1158.67 1278.064)" fill="#1b262c"/>
    <path id="Trazado_177326" data-name="Trazado 177326" d="M133.706,74.619l.082.327c.031.1.062.221.111.356a4.466,4.466,0,0,0,.178.439,3.682,3.682,0,0,0,.268.474,2.708,2.708,0,0,0,.373.447,1.73,1.73,0,0,0,.478.331,1.112,1.112,0,0,0,.266.094c.046.007.091.021.138.023l.069,0,.035,0h.011l.181-.01c.058,0,.082-.018.126-.023a1.124,1.124,0,0,0,.261-.092,1.764,1.764,0,0,0,.477-.331,2.73,2.73,0,0,0,.373-.446,2.351,2.351,0,0,0,.145-.238,2.422,2.422,0,0,0,.123-.235,4.62,4.62,0,0,0,.178-.439c.049-.135.081-.257.112-.359l.082-.325.015.087c.008.057.03.141.037.249a2.743,2.743,0,0,1,.009.394,2.621,2.621,0,0,1-.063.515,2.573,2.573,0,0,1-.193.6,2.375,2.375,0,0,1-.38.611,2,2,0,0,1-.621.51,1.733,1.733,0,0,1-.408.158,2.284,2.284,0,0,1-.227.044l-.18.015h-.052l-.028,0-.055,0-.11-.01a2.039,2.039,0,0,1-.216-.044,1.762,1.762,0,0,1-.4-.156,2.014,2.014,0,0,1-.62-.51,2.4,2.4,0,0,1-.38-.611,2.611,2.611,0,0,1-.193-.595,2.649,2.649,0,0,1-.063-.515,2.781,2.781,0,0,1,.009-.4c.007-.108.029-.19.037-.247l.015-.087" transform="translate(1132.74 1276.103)" fill="#1b262c"/>
  </g>
</svg>
