<svg xmlns="http://www.w3.org/2000/svg" xmlns:xlink="http://www.w3.org/1999/xlink" width="295" height="559.275" viewBox="0 0 295 559.275">
  <defs>
    <clipPath id="clip-path">
      <rect id="Rectángulo_44639" data-name="Rectángulo 44639" width="212.687" height="556.85" fill="none"/>
    </clipPath>
  </defs>
  <g id="Grupo_173538" data-name="Grupo 173538" transform="translate(-180.326 -4370)">
    <g id="Grupo_173534" data-name="Grupo 173534" transform="translate(15 -12.382)">
      <g id="Grupo_172619" data-name="Grupo 172619" transform="translate(200.326 4408.295)">
        <g id="Grupo_157493" data-name="Grupo 157493" transform="translate(0 0)">
          <path id="Trazado_114544" data-name="Trazado 114544" d="M161.34,487.2C130.115,473,97.732,453.828,85.156,421.774c-13.957-35.574.652-75.414.3-113.654-.279-30.293-10.042-59.548-17.723-88.841s-13.324-60.418-5.4-89.645c5.306-19.566,16.575-37.269,31.124-51.316,25.62-24.737,62.532-38.122,97.6-32.465S258,77.287,268.251,111.481c14.526,48.445-13.849,100.16-7.818,150.394,2.359,19.656,9.912,38.244,15.033,57.363a236.212,236.212,0,0,1,8.025,62.41c-.191,32.246-8.319,66.65-32.245,88.124C227.112,491.432,191.2,500.784,161.34,487.2Z" transform="translate(-58.504 -44.565)" fill="#c4d1fd"/>
        </g>
      </g>
      <g id="Grupo_173533" data-name="Grupo 173533" transform="translate(206.507 4383.382)">
        <g id="Grupo_173533-2" data-name="Grupo 173533" clip-path="url(#clip-path)">
          <path id="Trazado_177327" data-name="Trazado 177327" d="M54.915,297.461l50.407-108.015c-3.9-4.032-7.819-8.05-11.543-12.231-7.361-8.263-15.155-17.039-22.132-26.145-5.4,8.594-11.329,19.094-17.751,31.16-3.391,6.358-7.876,17.293-12.97,30.981-6.168,16.552-13.221,37.139-20.29,58.571a84.332,84.332,0,0,0-.742,50.485c3.21,10.779,6.769,22.669,9.175,30.556C41.051,392,51.252,423.794,52.119,426.5l-.373.139s-16.592,13.423-30.776,12.678a2.177,2.177,0,0,0-2,.965,3.033,3.033,0,0,0,.588,3.936,2.112,2.112,0,0,0,1.718.646l55.853-4.26a4.224,4.224,0,0,0,3.9-3.923c.181-2.676-3.534-11.759-5.841-17.084Z" transform="translate(12.145 111.943)" fill="#eb8e71"/>
          <path id="Trazado_177328" data-name="Trazado 177328" d="M157.1,421.629a2.174,2.174,0,0,0-2.058-.825c-14.1,1.722-31.576-10.526-31.576-10.526l-.381-.113c.679-2.754,8.663-35.173,17.915-75.086,1.856-8.035,4.586-20.142,7.046-31.117a84.327,84.327,0,0,0-4.22-50.313c-8.531-20.894-16.985-40.946-24.282-57.033-6.024-13.3-11.254-23.9-15.074-30.013-.282-.451-.555-.883-.834-1.327-6.708,4.2-13.32,8.545-19.642,13.3-6.988,5.251-13.8,10.7-21.035,15.566l48.438,87.49L99.587,404.87c-1.934,5.472-5.014,14.788-4.648,17.445A4.225,4.225,0,0,0,99.1,425.96l56.013.4a2.119,2.119,0,0,0,1.67-.763,3.033,3.033,0,0,0,.315-3.968" transform="translate(46.65 122.469)" fill="#fa9778"/>
          <path id="Trazado_177329" data-name="Trazado 177329" d="M83.579,325.572a5.588,5.588,0,0,1-4.81,2.954l-63.452,1.924a1.757,1.757,0,0,1-.924-.218,1.8,1.8,0,0,1-.723-.724,1.728,1.728,0,0,1-.042-1.666,1.827,1.827,0,0,1,.907-.865l35.3-15.39-.634-5.752,33.434-.3,1.6,16.855a5.117,5.117,0,0,1-.057,1.471,5.043,5.043,0,0,1-.594,1.717" transform="translate(9.954 226.396)" fill="#d13f40"/>
          <path id="Trazado_177330" data-name="Trazado 177330" d="M83.579,317.773l-69.91,3.936a1.728,1.728,0,0,1-.042-1.666l70.545-3.987a5.043,5.043,0,0,1-.594,1.717" transform="translate(9.954 234.196)" fill="#450d20"/>
          <path id="Trazado_177331" data-name="Trazado 177331" d="M82.238,324.635a5.59,5.59,0,0,0,5.025,2.571l63.411-3.022a1.744,1.744,0,0,0,.905-.291,1.783,1.783,0,0,0,.663-.777,1.726,1.726,0,0,0-.089-1.664,1.828,1.828,0,0,0-.971-.794l-36.39-12.594.185-5.784-33.357,2.3-.277,16.928a5.143,5.143,0,0,0,.171,1.461,5.01,5.01,0,0,0,.726,1.666" transform="translate(60.272 223.989)" fill="#d13f40"/>
          <path id="Trazado_177332" data-name="Trazado 177332" d="M82.165,316.476l70-1.518a1.726,1.726,0,0,0-.089-1.664l-70.641,1.516a5.011,5.011,0,0,0,.726,1.666" transform="translate(60.346 232.148)" fill="#450d20"/>
          <path id="Trazado_177333" data-name="Trazado 177333" d="M70.207,151.6l65.446-7.131,52.533,139.516a35.2,35.2,0,0,1,1.426,20L167.537,403.74H133.974l11.012-104.883-45.37-81.172-39.057,83.69,17.2,102.365H42.518L15.29,313.155a35.2,35.2,0,0,1,0-20.26c6.49-21.6,23.864-75.026,54.914-141.29" transform="translate(10.227 107.054)" fill="#fcc574"/>
          <path id="Trazado_177334" data-name="Trazado 177334" d="M73.472,151.85,20.657,291.574,47.065,395.652" transform="translate(15.307 112.52)" fill="none" stroke="#450d20" stroke-miterlimit="10" stroke-width="0.964"/>
          <path id="Trazado_177335" data-name="Trazado 177335" d="M83.365,151.85,31.9,289.9,53.158,393.584" transform="translate(23.64 112.52)" fill="none" stroke="#450d20" stroke-miterlimit="10" stroke-width="0.964"/>
          <path id="Trazado_177336" data-name="Trazado 177336" d="M64.817,151.85l57.366,135.808-13.24,103.857" transform="translate(48.029 112.52)" fill="none" stroke="#450d20" stroke-miterlimit="10" stroke-width="0.964"/>
          <path id="Trazado_177337" data-name="Trazado 177337" d="M77.526,149.832,132.9,287.477l-18.46,105.536" transform="translate(57.447 111.025)" fill="none" stroke="#450d20" stroke-miterlimit="10" stroke-width="0.964"/>
          <path id="Trazado_177338" data-name="Trazado 177338" d="M31.9,293.545l29.546,7.042-1.194-7.2Z" transform="translate(23.64 217.402)" fill="#450d20"/>
          <path id="Trazado_177339" data-name="Trazado 177339" d="M85.169,293.392l-.616,6.426,27.842-6.426Z" transform="translate(62.653 217.402)" fill="#450d20"/>
          <path id="Trazado_177340" data-name="Trazado 177340" d="M116.112,111.824a16.565,16.565,0,0,0-10.954-3.884,23.521,23.521,0,0,1-9.184-1.7c-4.453-12.312-1.447-35.952-1.05-38.965.021-.11.03-.205.049-.315L63.4,86.308a8.539,8.539,0,0,1,1.107,3.512v.012a39.313,39.313,0,0,1-.327,9.894c-.514,3.755-1.26,7.1-1.583,8.459-3.223,4.217-7.918,5.918-14.671,10.328-10.288,6.72-10.691,24.914-5.954,42.714s14.967,49.209,14.967,49.209l55.936-6.013c-2.364-16.217,5.825-41.575,9.4-68.468,1.786-13.447-1.967-20.469-6.168-24.13" transform="translate(28.944 49.62)" fill="#fa9778"/>
          <path id="Trazado_177341" data-name="Trazado 177341" d="M53.492,94.511C71.107,96.067,79.2,74.8,79.5,74a20.7,20.7,0,0,1-12.177,9.447,34.39,34.39,0,0,1-13.392,1.189c-.037-.01-.073-.009-.11-.019a39.3,39.3,0,0,1-.327,9.892" transform="translate(39.637 54.835)" fill="#450d20"/>
          <path id="Trazado_177342" data-name="Trazado 177342" d="M87.916,96.134c-4.25-.958-9.809-.738-17,1.976a391.964,391.964,0,0,0-44.453,19.405c-6,3.129-12.213,6.618-18.47,10.495a14.11,14.11,0,0,0-5.973,16.17c1.684,5.472,3.586,11.069,5.747,16.715,6.76,17.676,16.024,35.774,28.817,51.852.86,4.835,3.367,17.412,6.839,21.83a.554.554,0,0,0,.965-.155c.326-.886.47-2.88-.864-7.3,0,0,5.3,8.412,7.175,8.851s-3.162-11.153-3.162-11.153,7.082,8.862,8.848,8.618-4.723-11.113-4.723-11.113,7.887,8.738,8.581,8.035c1.731-1.748-8.973-14.3-7.373-15.2,1.415-.8,5.193,1.109,6.926,2.389a.79.79,0,0,0,1.13-.176c.5-.738.9-2.04-.82-3.5a41.274,41.274,0,0,0-11.322-7.032c-2.693-10.387-8.844-34.237-14.971-58.99,19.56-9.682,37.992-18.542,47.93-22.642a49.833,49.833,0,0,0,10.893-5.949c8.872-6.659,6.1-20.7-4.723-23.131" transform="translate(1.029 70.852)" fill="#fa9778"/>
          <path id="Trazado_177343" data-name="Trazado 177343" d="M128.992,6.017a.555.555,0,0,0-.9-.387c-.749.575-1.938,2.18-3.179,6.624,0,0,.033-9.943-1.316-11.318s-3.306,11.111-3.306,11.111S119.062.771,117.441.031s-1.967,11.912-1.967,11.912S113.5.341,112.533.562c-2.4.55-.084,16.879-1.919,16.788-1.626-.082-3.792-3.719-4.568-5.73A.789.789,0,0,0,105,11.167c-.817.355-1.854,1.238-1.182,3.391A40.651,40.651,0,0,0,111.2,28.646C107.388,42.917,83.765,130.93,74.421,156.829a49.587,49.587,0,0,0-2.914,12.058c-1.043,11.048,11.208,18.441,20.293,12.067,3.567-2.5,7.14-6.774,9.969-13.912,8.938-22.556,32.093-81.252,21.226-138.743,1.812-4.4,6.569-16.616,6-22.281" transform="translate(52.94 0)" fill="#fa9778"/>
          <path id="Trazado_177344" data-name="Trazado 177344" d="M177.564,54.38s-.167.94-.487,2.618c-.085.486-.2,1.024-.32,1.644-2.634,13.508-11.543,55.815-23.577,77.025,0,0,3.405,31.028-10.455,66.57l-.991.219L83.371,215.662,68,165.739,38.063,181.681l1.057,4.783.369,1.645,1.09,4.9-33.143,5.27-1.408-4.85-.47-1.628L.59,174.682a14.912,14.912,0,0,1,8.357-17.8l62.9-27.421s40.273,20.338,55.576-12.586l17.419-60.749.472-1.628.773-2.7Z" transform="translate(0 38.381)" fill="#d13f40"/>
          <path id="Trazado_177345" data-name="Trazado 177345" d="M48.22,151.537l57.472-7.827.32-5.373Z" transform="translate(35.731 102.507)" fill="#450d20"/>
          <path id="Trazado_177346" data-name="Trazado 177346" d="M37.123,130.792,3.662,136.111l-.47-1.628,33.563-5.336Z" transform="translate(2.365 95.697)" fill="#450d20"/>
          <path id="Trazado_177347" data-name="Trazado 177347" d="M115.43,55.848c-.084.487-.2,1.024-.319,1.645L83.194,54.976l.47-1.628Z" transform="translate(61.646 39.531)" fill="#450d20"/>
          <path id="Trazado_177348" data-name="Trazado 177348" d="M67.965,112.216c-14.241,0-26.818-7.15-27.468-7.525l.839-1.454c.192.11,19.318,10.973,36.517,5.951,8.362-2.439,14.974-8.237,19.656-17.229L99,92.735c-4.9,9.417-11.858,15.5-20.681,18.068a36.923,36.923,0,0,1-10.35,1.414" transform="translate(30.008 68.142)" fill="#450d20"/>
          <rect id="Rectángulo_44637" data-name="Rectángulo 44637" width="18.473" height="1.68" transform="matrix(0.818, -0.575, 0.575, 0.818, 103.543, 216.578)" fill="#450d20"/>
          <rect id="Rectángulo_44638" data-name="Rectángulo 44638" width="7.567" height="1.679" transform="matrix(0.778, -0.628, 0.628, 0.778, 111.054, 218.291)" fill="#450d20"/>
          <path id="Trazado_177349" data-name="Trazado 177349" d="M86.951,101.178a94.968,94.968,0,0,1,2.552,16.29A112.42,112.42,0,0,1,89.533,134a94.1,94.1,0,0,1-2.556,16.343,78,78,0,0,1-5.562,15.528q.608-1.974,1.259-3.919L83.314,160l.507-1.988,1.067-3.95.83-4a128.224,128.224,0,0,0,2.141-16.183c.407-5.43.491-10.886.36-16.343-.082-2.728-.216-5.458-.447-8.183-.169-2.732-.479-5.451-.822-8.176" transform="translate(60.328 74.972)" fill="#450d20"/>
          <path id="Trazado_177350" data-name="Trazado 177350" d="M6.054,137.5l29.3,2.54-1.9-6.9Z" transform="translate(4.486 98.661)" fill="#450d20"/>
          <path id="Trazado_177351" data-name="Trazado 177351" d="M84.62,53.481l29.754-3.968-.9,6.445Z" transform="translate(62.703 36.689)" fill="#450d20"/>
          <path id="Trazado_177352" data-name="Trazado 177352" d="M100.51,75.977c-.944-2.617-3.853-4.635-6.644-3.827a4.986,4.986,0,0,0-.82.373c.035-9.271-1.694-19.355-8.336-24.7-14.288-11.513-33.986-6.558-37.79,4.431-2.958,8.533-3.757,18.348-3.75,27.879-.005,4.062.134,8.082.326,11.917.017.409.044.806.057,1.2a15.773,15.773,0,0,0,.839,5.054c2.423,6.139,11.437,9.645,17.476,10.66a25.288,25.288,0,0,0,21.3-6.247A27.958,27.958,0,0,0,91.8,86.686a12.3,12.3,0,0,0,3.736-.512,9.619,9.619,0,0,0,4.227-3.809,7.636,7.636,0,0,0,.749-6.388" transform="translate(31.989 30.559)" fill="#fa9778"/>
          <path id="Trazado_177353" data-name="Trazado 177353" d="M43.5,75.6a6.212,6.212,0,0,0,1.584.145,6.153,6.153,0,1,0-.461-12.3,5.832,5.832,0,0,0-1.449.235c-.005,4.06.134,8.08.326,11.917" transform="translate(31.989 47.009)" fill="#fa8864"/>
          <path id="Trazado_177354" data-name="Trazado 177354" d="M70.494,68.706a6.157,6.157,0,1,1-6.382-5.921,6.157,6.157,0,0,1,6.382,5.921" transform="translate(43.114 46.52)" fill="#fa8864"/>
          <path id="Trazado_177355" data-name="Trazado 177355" d="M46.119,58.666a3.838,3.838,0,0,0,2.121,2.392.658.658,0,1,1-.588,1.165l-.028-.019a4.214,4.214,0,0,1-1.375-1.579,5.259,5.259,0,0,1-.548-1.887.213.213,0,0,1,.191-.232.21.21,0,0,1,.221.141Z" transform="translate(33.862 43.351)" fill="#450d20"/>
          <path id="Trazado_177356" data-name="Trazado 177356" d="M47.061,59.919a8.775,8.775,0,0,0,2.866.474,13.217,13.217,0,0,0,2.9-.43l.038-.009a.566.566,0,0,1,.467,1,4.94,4.94,0,0,1-1.6.848,5.633,5.633,0,0,1-1.838.239,4.914,4.914,0,0,1-3.334-1.449.422.422,0,0,1,.432-.691Z" transform="translate(34.412 44.37)" fill="#450d20"/>
          <path id="Trazado_177357" data-name="Trazado 177357" d="M60.6,58.666a3.838,3.838,0,0,1-2.121,2.392.658.658,0,0,0,.435,1.241.631.631,0,0,0,.153-.077L59.1,62.2a4.214,4.214,0,0,0,1.375-1.579,5.222,5.222,0,0,0,.547-1.887.212.212,0,0,0-.411-.091Z" transform="translate(43.007 43.351)" fill="#450d20"/>
          <path id="Trazado_177358" data-name="Trazado 177358" d="M61.917,60.587a4.916,4.916,0,0,1-3.334,1.45,5.676,5.676,0,0,1-1.838-.24,4.922,4.922,0,0,1-1.6-.848.565.565,0,0,1,.465-1l.038.009a13.232,13.232,0,0,0,2.9.43,8.785,8.785,0,0,0,2.867-.474l.073-.023a.423.423,0,0,1,.434.691" transform="translate(40.704 44.369)" fill="#450d20"/>
          <path id="Trazado_177359" data-name="Trazado 177359" d="M49.075,66.467a8.729,8.729,0,0,0,2.793,2.946,6.8,6.8,0,0,0,4.027,1.17A6.889,6.889,0,0,0,59.8,69.068a12.752,12.752,0,0,0,1.483-1.422c.4-.554.787-1.107,1.132-1.678-.534.421-1.018.869-1.506,1.3-.547.36-1.031.8-1.586,1.1A7.347,7.347,0,0,1,55.849,69.5a7.209,7.209,0,0,1-3.564-.82,15.361,15.361,0,0,1-3.21-2.216" transform="translate(36.364 48.881)" fill="#450d20"/>
          <path id="Trazado_177360" data-name="Trazado 177360" d="M51.971,69.915a2.924,2.924,0,0,0,1.894.564,3.057,3.057,0,0,0,1.849-.705,9.577,9.577,0,0,1-1.866.28,8.077,8.077,0,0,1-1.877-.139" transform="translate(38.51 51.702)" fill="#450d20"/>
          <path id="Trazado_177361" data-name="Trazado 177361" d="M55.065,52.933A4.226,4.226,0,0,1,57.78,51.81a8.482,8.482,0,0,1,2.948.306A7.155,7.155,0,0,1,63.365,53.5a7.481,7.481,0,0,1,1.847,2.194.851.851,0,0,1-1.28,1.088l-.075-.063a10.459,10.459,0,0,0-1.805-1.328,6.171,6.171,0,0,0-1.967-.723,7.517,7.517,0,0,0-2.107-.125,8.038,8.038,0,0,1-2.249-.045l-.226-.047a.89.89,0,0,1-.437-1.516" transform="translate(40.599 38.377)" fill="#450d20"/>
          <path id="Trazado_177362" data-name="Trazado 177362" d="M54.1,53.029a4.214,4.214,0,0,0-2.791-.916,8.491,8.491,0,0,0-2.918.526,7.2,7.2,0,0,0-2.526,1.576,7.508,7.508,0,0,0-1.677,2.326.852.852,0,0,0,1.358.991l.068-.07A10.5,10.5,0,0,1,47.322,56a6.152,6.152,0,0,1,1.908-.869,7.521,7.521,0,0,1,2.091-.282,8.1,8.1,0,0,0,2.239-.214l.223-.063a.891.891,0,0,0,.613-1.1.877.877,0,0,0-.291-.444" transform="translate(32.679 38.615)" fill="#450d20"/>
          <path id="Trazado_177363" data-name="Trazado 177363" d="M53.132,56.606c-.263,1.382-.444,2.753-.646,4.11s-.411,2.706-.745,3.994c-.077.324-.164.641-.266.949a3.407,3.407,0,0,0-.265,1.186,2.37,2.37,0,0,0,1.356,2.11,2.878,2.878,0,0,0,2.324.037,5.653,5.653,0,0,0,1.795-1.168c-1.257.528-2.733.958-3.656.313a1.4,1.4,0,0,1-.679-1.273,2.607,2.607,0,0,1,.237-.818c.124-.345.232-.693.32-1.041a19.3,19.3,0,0,0,.51-4.21,22.216,22.216,0,0,0-.286-4.189" transform="translate(37.945 41.945)" fill="#450d20"/>
          <path id="Trazado_177364" data-name="Trazado 177364" d="M78.644,61.028a15.234,15.234,0,0,0-4.119,1.647,11.865,11.865,0,0,0-3.29,2.739l-.743-.917a13.743,13.743,0,0,1,3.52-1.374,5.274,5.274,0,0,1,2.032-.092A2.3,2.3,0,0,1,77.8,64.451a3.454,3.454,0,0,1-.992,3.785A5.022,5.022,0,0,1,73.4,69.628a5.421,5.421,0,0,0,2.88-1.873,2.714,2.714,0,0,0,.521-2.864c-.327-.823-1.422-.8-2.519-.557a15.448,15.448,0,0,0-3.214,1.217l-.031.016a.6.6,0,0,1-.8-.256.6.6,0,0,1,.092-.679,10.866,10.866,0,0,1,3.832-2.706,11.13,11.13,0,0,1,4.49-.9" transform="translate(51.992 45.22)" fill="#450d20"/>
          <path id="Trazado_177365" data-name="Trazado 177365" d="M111.6,78.916s-3.646,5.176-6.372,4.861-9.363-13.15-4.615-20.347c0,0-8.5,2.275-13.244-5.575,0,0-10.249,7.169-17.067,0a8.187,8.187,0,0,1-5.846,4.076S62.1,71.653,61.909,78.947c0,0-.618,19.217.82,25.133,0,0,.832,4.267,7.269,7.688a45.064,45.064,0,0,0,10.021,3.506,52.11,52.11,0,0,1-1.92,18.4s-6.689,9.1-18.282,10.646l-1.419-.66L22.275,159.423s-12.434-22.9,5.8-29.642c0,0-12.955-25.762,14.873-33.593,0,0-15.119-22.461,12.159-30.528,0,0-5.509-24.087,20.613-26.388,0,0,31.883-22.515,37.242,15.244,0,0,20.951.728,11.407,23.787,0,0,3.8,2.956,2.561,7.469L113.987,131.08l-.064,1.583-2.437-.949a82.23,82.23,0,0,1-1.053-38.979s8.407.165,8.839-7.579a6.441,6.441,0,0,0-2.242-5.367,5.451,5.451,0,0,0-5.43-.872" transform="translate(13.438 24.165)" fill="#450d20"/>
        </g>
      </g>
      <g id="Grupo_173522" data-name="Grupo 173522" transform="translate(232.675 4637.319)">
        <rect id="Rectángulo_44603" data-name="Rectángulo 44603" width="160.894" height="44.806" rx="22" transform="translate(0)" fill="#3c3fa7"/>
        <path id="Trazado_177688" data-name="Trazado 177688" d="M43.088,21.729a1.505,1.505,0,0,1,.1-.564.46.46,0,0,1,.483-.256,1.041,1.041,0,0,1,.7.242q.286.242.637.527a4.291,4.291,0,0,0,.857.527,3.176,3.176,0,0,0,1.355.242,4.216,4.216,0,0,0,1.787-.359,4.584,4.584,0,0,0,1.311-.886,3.882,3.882,0,0,0,.813-1.128,2.618,2.618,0,0,0,.278-1.084,2.1,2.1,0,0,0-.564-1.377,11.179,11.179,0,0,0-1.414-1.355q-.85-.7-1.831-1.465a14.426,14.426,0,0,1-1.831-1.714,9.068,9.068,0,0,1-1.414-2.1,5.909,5.909,0,0,1-.564-2.622,6.091,6.091,0,0,1,.623-2.776,7.076,7.076,0,0,1,1.6-2.117,7.235,7.235,0,0,1,2.19-1.355,6.463,6.463,0,0,1,2.38-.476A2.98,2.98,0,0,1,51.84,1.9a3.585,3.585,0,0,1,1.772,1.765,2.833,2.833,0,0,1,.271,1.2,3.723,3.723,0,0,1-.059.564,4.107,4.107,0,0,1-.183.71,2.07,2.07,0,0,1-.33.608.618.618,0,0,1-.5.256.759.759,0,0,1-.388-.117,1.258,1.258,0,0,1-.352-.315,1.9,1.9,0,0,1-.256-.447,1.371,1.371,0,0,1-.1-.527,2.031,2.031,0,0,0-.022-.264,1.421,1.421,0,0,0-.081-.315.764.764,0,0,0-.176-.271.416.416,0,0,0-.308-.117,2.8,2.8,0,0,0-.7.117,5.641,5.641,0,0,0-.916.344,6.937,6.937,0,0,0-.974.564,4.769,4.769,0,0,0-.879.776,3.989,3.989,0,0,0-.637.981,2.773,2.773,0,0,0-.249,1.172,2.883,2.883,0,0,0,.315,1.333,5.061,5.061,0,0,0,.842,1.172,11.289,11.289,0,0,0,1.194,1.084l1.355,1.069q.688.542,1.355,1.121a9.492,9.492,0,0,1,1.194,1.238,5.787,5.787,0,0,1,.842,1.428,4.423,4.423,0,0,1,.315,1.692,5.237,5.237,0,0,1-.3,1.758,6.27,6.27,0,0,1-.828,1.582A7.7,7.7,0,0,1,51.84,23.4a8.661,8.661,0,0,1-1.479,1.033,7.6,7.6,0,0,1-1.619.667,6,6,0,0,1-1.626.234,4.7,4.7,0,0,1-1.589-.264,3.837,3.837,0,0,1-1.282-.747,3.5,3.5,0,0,1-.85-1.143A3.387,3.387,0,0,1,43.088,21.729Zm15.586,2.49a2.814,2.814,0,0,1-1.34-.3,2.85,2.85,0,0,1-.959-.835,4.368,4.368,0,0,1-.63-1.252,9.982,9.982,0,0,1-.366-1.567,16.786,16.786,0,0,1-.176-1.787q-.044-.937-.044-1.89,0-.234.015-.718t.073-1.077q.059-.593.176-1.223a6.247,6.247,0,0,1,.322-1.15,2.676,2.676,0,0,1,.52-.857,1,1,0,0,1,.754-.337,1.179,1.179,0,0,1,.52.125,1.439,1.439,0,0,1,.447.337,1.712,1.712,0,0,1,.308.5,1.586,1.586,0,0,1,.117.608q0,.63-.059,1.289t-.125,1.326q-.066.667-.125,1.34t-.059,1.333q0,.22.007.549t.051.7a6.654,6.654,0,0,0,.132.747,2.961,2.961,0,0,0,.242.674,1.427,1.427,0,0,0,.388.483.9.9,0,0,0,.571.183,1.3,1.3,0,0,0,1.025-.476,3.8,3.8,0,0,0,.674-1.216,8.98,8.98,0,0,0,.4-1.633q.139-.894.2-1.736t.066-1.523q.007-.681.007-.989a4.74,4.74,0,0,1,.073-.835,2.581,2.581,0,0,1,.234-.725,1.425,1.425,0,0,1,.417-.505.991.991,0,0,1,.608-.19.965.965,0,0,1,.637.212,1.592,1.592,0,0,1,.417.549,2.915,2.915,0,0,1,.234.74,4.378,4.378,0,0,1,.073.784q0,1.187-.044,2.256t-.088,2.124q-.044,1.055-.088,2.131t-.044,2.278a3.032,3.032,0,0,1-.366,1.721,1.126,1.126,0,0,1-.952.505,1.792,1.792,0,0,1-.776-.132.82.82,0,0,1-.374-.337,1.06,1.06,0,0,1-.125-.439q-.015-.234-.015-.439a.94.94,0,0,0-.051-.337.216.216,0,0,0-.227-.132.619.619,0,0,0-.4.176q-.205.176-.5.4a3.291,3.291,0,0,1-.718.4A2.814,2.814,0,0,1,58.674,24.22Zm6.548-2.271a1.424,1.424,0,0,1,.249-.857.7.7,0,0,1,.557-.344.635.635,0,0,1,.417.168q.2.168.461.366a3.3,3.3,0,0,0,.645.366,2.358,2.358,0,0,0,.952.168q.088,0,.315-.022a1.314,1.314,0,0,0,.461-.139,1.163,1.163,0,0,0,.41-.352,1.108,1.108,0,0,0,.176-.674,1.378,1.378,0,0,0-.3-.916,3.127,3.127,0,0,0-.762-.645q-.461-.286-1-.549a5.536,5.536,0,0,1-1-.63A3.266,3.266,0,0,1,66.035,17a2.767,2.767,0,0,1-.344-1.333,4.207,4.207,0,0,1,.286-1.582,4.321,4.321,0,0,1,.886-1.421,4.45,4.45,0,0,1,1.443-1.018,4.617,4.617,0,0,1,1.926-.388,4.718,4.718,0,0,1,.776.066,2.523,2.523,0,0,1,.718.227,1.4,1.4,0,0,1,.527.454,1.3,1.3,0,0,1,.205.762,2.843,2.843,0,0,1-.037.417,1.891,1.891,0,0,1-.139.476,1.158,1.158,0,0,1-.278.4.646.646,0,0,1-.454.161.881.881,0,0,1-.337-.066q-.161-.066-.322-.146t-.33-.146a1.017,1.017,0,0,0-.374-.066,1.586,1.586,0,0,0-.579.125,2.111,2.111,0,0,0-.579.344,2.007,2.007,0,0,0-.439.513,1.178,1.178,0,0,0-.176.615,1.112,1.112,0,0,0,.315.769,5.064,5.064,0,0,0,.784.681q.469.337,1.011.71a6.71,6.71,0,0,1,1.011.857,4.391,4.391,0,0,1,.784,1.121,3.352,3.352,0,0,1,.315,1.5,3.069,3.069,0,0,1-.417,1.67,3.251,3.251,0,0,1-1.047,1.047,4.236,4.236,0,0,1-1.362.542,6.6,6.6,0,0,1-1.348.154,3.986,3.986,0,0,1-1.494-.249,3.111,3.111,0,0,1-1-.623,2.352,2.352,0,0,1-.564-.806A2.163,2.163,0,0,1,65.222,21.949Zm18.281.278a3.4,3.4,0,0,1,.044,1.025,2.047,2.047,0,0,1-.212.718,1.074,1.074,0,0,1-.388.417.96.96,0,0,1-.5.139.871.871,0,0,1-.608-.234,2.016,2.016,0,0,1-.432-.579,4.247,4.247,0,0,1-.293-.747q-.117-.4-.205-.747t-.154-.579q-.066-.234-.154-.234a.589.589,0,0,0-.388.212,5.634,5.634,0,0,0-.461.535q-.249.322-.549.7a5.324,5.324,0,0,1-.674.7,3.586,3.586,0,0,1-.828.535,2.322,2.322,0,0,1-1,.212,2.4,2.4,0,0,1-1.362-.41,3.667,3.667,0,0,1-1.055-1.1,5.673,5.673,0,0,1-.681-1.582,7.094,7.094,0,0,1-.242-1.86,9.246,9.246,0,0,1,.19-1.794,11.857,11.857,0,0,1,.549-1.9A10.556,10.556,0,0,1,75,13.834,7.76,7.76,0,0,1,76.23,12.3a5.7,5.7,0,0,1,1.545-1.062,4.319,4.319,0,0,1,1.846-.4,3.329,3.329,0,0,1,1.406.271,2.878,2.878,0,0,1,.989.74,3.7,3.7,0,0,1,.645,1.1,7.54,7.54,0,0,1,.374,1.355,12.262,12.262,0,0,1,.176,1.5q.044.776.044,1.538t.022,1.479q.022.732.051,1.384t.081,1.172Q83.459,21.905,83.5,22.228Zm-7.222-2.314A2.026,2.026,0,0,0,76.523,21q.242.381.447.381a1.325,1.325,0,0,0,.791-.293,4.258,4.258,0,0,0,.776-.769,7.67,7.67,0,0,0,.71-1.069,11.634,11.634,0,0,0,.579-1.194,9.61,9.61,0,0,0,.4-1.135,3.52,3.52,0,0,0,.146-.9q0-.015-.007-.161t-.037-.359q-.029-.212-.088-.461a1.932,1.932,0,0,0-.176-.469,1.125,1.125,0,0,0-.293-.359.663.663,0,0,0-.425-.139,1.185,1.185,0,0,0-.754.308,3.7,3.7,0,0,0-.71.813,8.53,8.53,0,0,0-.63,1.135,11.444,11.444,0,0,0-.505,1.282,11.562,11.562,0,0,0-.337,1.26A5.334,5.334,0,0,0,76.281,19.913Zm8.262-5.684a2.366,2.366,0,0,1,.117-.667,3.058,3.058,0,0,1,.337-.74,2.278,2.278,0,0,1,.542-.6,1.281,1.281,0,0,1,1.34-.11.874.874,0,0,1,.344.4,1.96,1.96,0,0,1,.146.645q.029.381.029.85,0,.894.278.894.146,0,.293-.22l.615-.923a6.833,6.833,0,0,1,.82-1,4.693,4.693,0,0,1,1.077-.813,2.838,2.838,0,0,1,1.4-.337,2.087,2.087,0,0,1,1.274.359,2.236,2.236,0,0,1,.74,1.025,5.43,5.43,0,0,1,.315,1.6,15.051,15.051,0,0,1-.029,2.08q-.073.981-.088,2.5t.117,3.75a1.776,1.776,0,0,1-.022.417,1.4,1.4,0,0,1-.139.425,1.123,1.123,0,0,1-.264.337.605.605,0,0,1-.41.139,1.667,1.667,0,0,1-1.208-.417,2.621,2.621,0,0,1-.645-1,4.534,4.534,0,0,1-.264-1.187q-.051-.608-.051-.974,0-.645.051-1.157t.1-1q.051-.483.1-.959a9.677,9.677,0,0,0,.051-1.033,6.734,6.734,0,0,0-.037-.784,2,2,0,0,0-.1-.469.5.5,0,0,0-.146-.227.265.265,0,0,0-.154-.059,1,1,0,0,0-.579.337,7.547,7.547,0,0,0-.769.864q-.41.527-.835,1.165t-.776,1.223a3.393,3.393,0,0,0-.256.586q-.1.293-.125.425a4.825,4.825,0,0,0-.044.725v.945q0,.5-.022,1a5.027,5.027,0,0,1-.117.916,1.957,1.957,0,0,1-.271.667.569.569,0,0,1-.5.256h-.293a1.356,1.356,0,0,1-.439-.081,2.259,2.259,0,0,1-.439-.205,2.16,2.16,0,0,1-.374-.286A1.069,1.069,0,0,1,85,23.209a4.325,4.325,0,0,1-.242-.974q-.1-.623-.154-1.4T84.528,19.2q-.015-.864-.015-1.685,0-1.025.015-1.9T84.543,14.229Zm20.7,8a3.4,3.4,0,0,1,.044,1.025,2.047,2.047,0,0,1-.212.718,1.074,1.074,0,0,1-.388.417.96.96,0,0,1-.5.139.871.871,0,0,1-.608-.234,2.016,2.016,0,0,1-.432-.579,4.247,4.247,0,0,1-.293-.747q-.117-.4-.205-.747t-.154-.579q-.066-.234-.154-.234a.589.589,0,0,0-.388.212,5.634,5.634,0,0,0-.461.535q-.249.322-.549.7a5.324,5.324,0,0,1-.674.7,3.586,3.586,0,0,1-.828.535,2.322,2.322,0,0,1-1,.212,2.4,2.4,0,0,1-1.362-.41,3.667,3.667,0,0,1-1.055-1.1,5.673,5.673,0,0,1-.681-1.582,7.094,7.094,0,0,1-.242-1.86,9.246,9.246,0,0,1,.19-1.794,11.857,11.857,0,0,1,.549-1.9,10.556,10.556,0,0,1,.894-1.809,7.76,7.76,0,0,1,1.23-1.531,5.7,5.7,0,0,1,1.545-1.062,4.319,4.319,0,0,1,1.846-.4,3.329,3.329,0,0,1,1.406.271,2.878,2.878,0,0,1,.989.74,3.7,3.7,0,0,1,.645,1.1,7.54,7.54,0,0,1,.374,1.355,12.262,12.262,0,0,1,.176,1.5q.044.776.044,1.538t.022,1.479q.022.732.051,1.384t.081,1.172Q105.2,21.905,105.241,22.228ZM98.02,19.913A2.026,2.026,0,0,0,98.261,21q.242.381.447.381a1.325,1.325,0,0,0,.791-.293,4.258,4.258,0,0,0,.776-.769,7.67,7.67,0,0,0,.71-1.069,11.634,11.634,0,0,0,.579-1.194,9.61,9.61,0,0,0,.4-1.135,3.52,3.52,0,0,0,.146-.9q0-.015-.007-.161t-.037-.359q-.029-.212-.088-.461a1.932,1.932,0,0,0-.176-.469,1.125,1.125,0,0,0-.293-.359.663.663,0,0,0-.425-.139,1.185,1.185,0,0,0-.754.308,3.7,3.7,0,0,0-.71.813,8.53,8.53,0,0,0-.63,1.135,11.444,11.444,0,0,0-.505,1.282,11.562,11.562,0,0,0-.337,1.26A5.334,5.334,0,0,0,98.02,19.913Z" transform="translate(6.127 6.11)" fill="#ffd947"/>
      </g>
    </g>
    <path id="Trazado_177408" data-name="Trazado 177408" d="M0,0H295V559.275H0Z" transform="translate(180.326 4370)" fill="none"/>
  </g>
</svg>
